<svg enable-background="new 0 0 70 70" height="70" viewBox="0 0 70 70" width="70" xmlns="http://www.w3.org/2000/svg" xmlns:xlink="http://www.w3.org/1999/xlink"><linearGradient id="a" gradientTransform="matrix(1 0 0 -1 0 71.27997)" gradientUnits="userSpaceOnUse" x1="70.22612" x2="-5.13024" y1="27.79912" y2="63.12242"><stop offset="0" stop-color="#c90f5e"/><stop offset=".22111" stop-color="#c90f5e"/><stop offset=".2356" stop-color="#c90f5e"/><stop offset=".35559" stop-color="#ca135c"/><stop offset=".46633" stop-color="#ce1e57"/><stop offset=".5735" stop-color="#d4314e"/><stop offset=".67844" stop-color="#dc4b41"/><stop offset=".78179" stop-color="#e66d31"/><stop offset=".88253" stop-color="#f3961d"/><stop offset=".94241" stop-color="#fcb20f"/></linearGradient><linearGradient id="b" gradientTransform="matrix(1 0 0 -1 0 71.27997)" gradientUnits="userSpaceOnUse" x1="24.65904" x2="46.04762" y1="61.99608" y2="2.93445"><stop offset=".04188" stop-color="#077cfb"/><stop offset=".44503" stop-color="#c90f5e"/><stop offset=".95812" stop-color="#077cfb"/></linearGradient><linearGradient id="c" gradientTransform="matrix(1 0 0 -1 0 71.27997)" gradientUnits="userSpaceOnUse" x1="17.39552" x2="33.19389" y1="63.34592" y2="7.20092"><stop offset=".27749" stop-color="#c90f5e"/><stop offset=".97382" stop-color="#fcb20f"/></linearGradient><path d="m70 27.237-6.609-3.487-42.465-23.75-17.099 17.921 17.792 23.147 38.918 3.329z" fill="url(#a)"/><path d="m50.423 16.132-6.152-15.025-16.628 16.364-15.875 32.723 37.643 19.806 20.589-12.02z" fill="url(#b)"/><path d="m20.926 0-20.926 14.095 7.779 48.077 20.069 7.717 25.932-21.066z" fill="url(#c)"/><path d="m13.30219 13.19311h43.61371v43.61371h-43.61371z"/><g fill="#fff"><path d="m17.22741 18.86293h8.39564a7.38416 7.38416 0 0 1 5.34268 1.85358 5.86989 5.86989 0 0 1 1.52648 4.1433 5.74339 5.74339 0 0 1 -3.92521 5.66979l4.47041 6.54206h-4.6885l-3.92523-5.88786h-3.162v5.88785h-4.03427zm8.06859 8.83178c1.96262 0 3.053-1.09034 3.053-2.61682 0-1.74455-1.19938-2.61682-3.162-2.61682h-4.03435v5.23365h4.14335z"/><path d="m36.09034 18.86293h7.19626c5.77882 0 9.70405 3.92523 9.70405 9.15888 0 5.12461-3.92523 9.15888-9.70405 9.15888h-7.19626zm4.03427 3.59813v11.01246h3.162a5.23727 5.23727 0 0 0 5.56075-5.45171 5.26493 5.26493 0 0 0 -5.56075-5.56075z"/><path d="m17.22741 48.62925h16.35514v2.72586h-16.35514z"/></g></svg>