<svg xmlns="http://www.w3.org/2000/svg" width="70" height="70" fill="none" viewBox="0 0 70 70">
  <defs>
    <linearGradient id="a" x1="65.4997" x2="11.5422" y1="40.1011" y2="9.13685" gradientUnits="userSpaceOnUse">
      <stop offset="0" stop-color="#DD1265"/>
      <stop offset="0.4834" stop-color="#DD1265"/>
      <stop offset="0.9424" stop-color="#FDB60D"/>
    </linearGradient>
    <linearGradient id="b" x1="33.4156" x2="54.8046" y1="6.11231" y2="65.1748" gradientUnits="userSpaceOnUse">
      <stop offset="0.1392" stop-color="#087CFA"/>
      <stop offset="0.4757" stop-color="#DD1265"/>
      <stop offset="0.9581" stop-color="#087CFA"/>
    </linearGradient>
    <linearGradient id="c" x1="17.3951" x2="33.1938" y1="7.9337" y2="64.0795" gradientUnits="userSpaceOnUse">
      <stop offset="0.2775" stop-color="#DD1265"/>
      <stop offset="0.9684" stop-color="#FDB60D"/>
    </linearGradient>
  </defs>
  <path fill="url(#a)" d="M70 27.2708L20.9272 0L53.8125 48.8542L60.5209 44.4063L70 27.2708Z"/>
  <path fill="url(#b)" d="M50.4583 16.1146L44.2604 1.09375L30.6979 14.5104L36.2395 63.0729L49.4374 70L69.9999 57.9688L50.4583 16.1146Z"/>
  <path fill="url(#c)" d="M20.927 0L0 14.0729L7.80207 62.1979L27.8541 69.8542L53.8124 48.8542L20.927 0Z"/>
  <g>
    <path fill="#000000" d="M56 14H14V56H56V14Z"/>
    <path fill="#FFFFFF" d="M34.4166 48.6499H18.6666V51.3332H34.4166V48.6499Z"/>
    <path fill="#FFFFFF" d="M35.5 19.25H41.6833C46.7 19.25 50.0833 22.6042 50.0833 26.9993C50.0833 31.3945 46.7 34.8643 41.6833 34.8643L35.5 34.98V19.25ZM39 22.3729V31.8571H41.6833C44.4833 31.8571 46.4667 30.0065 46.4667 27.2307C46.4667 24.4548 44.6 22.4885 41.6833 22.4885L39 22.3729Z"/>
    <path fill="#FFFFFF" d="M19.3399 19.25H26.5408C28.5682 19.25 30.0363 19.8093 31.1549 20.858C32.0638 21.7668 32.4832 22.9553 32.4832 24.4234V24.4933C32.4832 25.7517 32.2036 26.8004 31.5744 27.6393C30.9452 28.4084 30.1062 29.0376 29.1275 29.3871L32.9726 34.98H28.9178L25.6319 30.1561H22.7656V34.98H19.27V19.25H19.3399ZM26.331 26.8703C27.17 26.8703 27.8691 26.6606 28.2886 26.2411C28.7779 25.8216 28.9877 25.2624 28.9877 24.6332V24.5632C28.9877 23.7942 28.7779 23.2349 28.2886 22.8854C27.7992 22.5358 27.17 22.3261 26.2611 22.3261H22.8355V26.8703H26.331Z"/>
  </g>
  <g>
    <rect x="37" y="53" width="33" height="17" fill="#d99e2b"/>
    <path fill="#000000" d="M40.05563,66.966h7.19661V65.24271H41.745V62.2975h4.82041V60.57425H41.745V57.72294h5.43874V55.99969H40.05563Z"/>
    <path fill="#000000" d="M48.15627,66.966h1.86832l1.06757-2.6268h4.9082l1.05281,2.6268h1.9277l-4.5671-10.95841h-1.6904Zm3.60316-4.321,1.77945-4.35241L55.33309,62.645Z"/>
    <path fill="#000000" d="M59.87536,66.966h1.62869V63.44109h1.84026a3.50285,3.50285,0,0,0,3.70715-3.74426v-.03124a3.36233,3.36233,0,0,0-3.52185-3.6659H59.87536Zm1.62869-5.26364V57.75418h1.89333a1.80658,1.80658,0,0,1,1.99894,1.95836V59.744a1.86938,1.86938,0,0,1-1.99894,1.95836Z"/>
  </g>
</svg>
