<svg xmlns="http://www.w3.org/2000/svg" width="412" height="91" fill="none" viewBox="0 0 412 91">
  <path fill="#000" d="M0 4H85V89H0V4Z"/>
  <path fill="#fff" d="M10.543 72.9795H42.4715V78.3009H10.543V72.9795Z"/>
  <path fill="#fff" d="M10.5713 14.4577H25.1875C26.8794 14.3536 28.5751 14.5873 30.1758 15.1452C31.7764 15.7031 33.25 16.5741 34.5106 17.7073C35.4358 18.6817 36.1562 19.8318 36.629 21.0895C37.1019 22.3473 37.3177 23.6871 37.2636 25.0296V25.1148C37.3693 27.2951 36.7538 29.4495 35.5124 31.245C34.2709 33.0405 32.4726 34.3771 30.3954 35.0481L38.2285 46.4856H29.9839L23.1299 36.2401H17.6665V46.4856H10.5713V14.4577ZM24.7618 30.0672C28.1959 30.0672 30.1683 28.2367 30.1683 25.5405V25.4553C30.1683 22.4328 28.0681 20.8718 24.6341 20.8718H17.6665V30.0672H24.7618Z"/>
  <path fill="#fff" d="M43.1104 14.4575H55.598C65.659 14.4575 72.6265 21.3683 72.6265 30.3792V30.4786C72.6265 39.4895 65.6732 46.4854 55.598 46.4854H43.1104V14.4575ZM50.2056 20.8149V40.1139H55.6547C56.9343 40.1893 58.2155 39.9942 59.4146 39.5413C60.6138 39.0885 61.7041 38.3881 62.6145 37.4857C63.5249 36.5834 64.2349 35.4993 64.6984 34.3042C65.1618 33.1091 65.3683 31.8297 65.3043 30.5495V30.4644C65.3692 29.1794 65.1643 27.895 64.7025 26.6941C64.2408 25.4931 63.5325 24.4023 62.6234 23.4918C61.7142 22.5813 60.6244 21.8715 59.4242 21.408C58.2239 20.9444 56.9398 20.7376 55.6547 20.8007L50.2056 20.8149Z"/>
  <path fill="#000" d="M117 3.92871H155.91C166.723 3.92871 175.11 6.96547 180.715 12.5565C185.455 17.2961 188.009 23.9799 188.009 32.0117V32.2529C188.009 45.9893 180.588 54.6313 169.76 58.6472L190.563 89.0432H168.682L150.447 61.7975H135.731V89.0432H117V3.92871ZM154.69 45.2656C163.814 45.2656 169.036 40.3982 169.036 33.232V33.0192C169.036 24.9874 163.445 20.8579 154.321 20.8579H135.731V45.2656H154.69Z"/>
  <path fill="#000" d="M196.608 0.281738H216.064V16.6859H196.608V0.281738ZM197.091 23.8663H215.538V89.0432H197.091V23.8663Z"/>
  <path fill="#000" d="M224.039 56.5754V56.3341C224.039 34.5659 238.229 22.6459 253.697 22.6459C257.607 22.5662 261.482 23.4054 265.009 25.0962C268.536 26.787 271.616 29.282 274.003 32.3806V0.281738H292.451V89.0432H274.003V79.6774C269.505 85.751 263.304 90.2494 253.697 90.2494C238.499 90.2494 224.039 78.3435 224.039 56.5754V56.5754ZM274.259 56.5754V56.3341C274.259 45.5068 267.078 38.3406 258.45 38.3406C249.823 38.3406 242.515 45.4358 242.515 56.3341V56.5754C242.515 67.4027 249.808 74.5689 258.45 74.5689C267.092 74.5689 274.259 67.4027 274.259 56.5754Z"/>
  <path fill="#000" d="M300.412 56.8167V56.5754C300.412 37.9717 313.666 22.646 332.625 22.646C354.393 22.646 364.369 39.5469 364.369 58.037C364.369 59.4561 364.241 61.1873 364.127 62.8902H318.718C320.534 71.291 326.366 75.6616 334.64 75.6616C340.841 75.6616 345.339 73.7175 350.448 68.9779L361.02 78.3436C354.946 85.8788 346.191 90.4907 334.398 90.4907C314.872 90.4907 300.412 76.7543 300.412 56.8167V56.8167ZM346.375 51.3391C345.268 43.0803 340.415 37.4892 332.625 37.4892C324.834 37.4892 319.924 42.9526 318.505 51.3391H346.375Z"/>
  <path fill="#000" d="M372.429 23.8664H390.876V36.9926C394.651 27.9958 400.739 22.1635 411.68 22.646V41.9876H410.743C398.468 41.9876 390.876 49.395 390.876 64.962V89.0858H372.429V23.8664Z"/>
</svg>
