<svg enable-background="new 0 0 384.7 89.9" height="89.9" viewBox="0 0 384.7 89.9" width="384.7" xmlns="http://www.w3.org/2000/svg"><path d="m0 3.8h85v85h-85z"/><path d="m7.9 72.9h31.9v5.3h-31.9z" fill="#fff"/><path d="m111.8 3.6h38.8c10.8 0 19.1 3 24.7 8.6 4.7 4.7 7.3 11.4 7.3 19.4v.2c0 13.7-7.4 22.3-18.2 26.3l20.7 30.3h-21.8l-18.2-27.1h-14.7v27.1h-18.7v-84.8zm37.5 41.2c9.1 0 14.3-4.8 14.3-12v-.2c0-8-5.6-12.1-14.7-12.1h-18.5v24.4h18.9z"/><path d="m186.7 0h19.4v16.4h-19.4zm.5 23.5h18.4v65h-18.4z"/><path d="m208.9 56.1v-.2c0-21.7 14.2-33.6 29.6-33.6 9.8 0 15.9 4.5 20.2 9.7v-32h18.4v88.5h-18.4v-9.3c-4.5 6.1-10.7 10.5-20.2 10.5-15.2 0-29.6-11.9-29.6-33.6zm50 0v-.2c0-10.8-7.2-17.9-15.8-17.9s-15.9 7-15.9 17.9v.2c0 10.8 7.3 17.9 15.9 17.9 8.7.1 15.8-7.1 15.8-17.9z"/><path d="m279.3 56.4v-.2c0-18.5 13.2-33.8 32.1-33.8 21.7 0 31.6 16.8 31.6 35.3 0 1.5-.1 3.2-.2 4.8h-45.2c1.8 8.4 7.6 12.7 15.9 12.7 6.2 0 10.7-1.9 15.8-6.7l10.5 9.3c-6.1 7.5-14.8 12.1-26.5 12.1-19.6 0-34-13.7-34-33.5zm45.8-5.5c-1.1-8.2-5.9-13.8-13.7-13.8-7.6 0-12.6 5.5-14.1 13.8z"/><path d="m345.6 23.5h18.4v13.1c3.8-9 9.8-14.8 20.7-14.3v19.3h-1c-12.2 0-19.8 7.4-19.8 22.9v24h-18.4v-65z"/><g fill="#fff"><path d="m7.9 14h9.7c2.7 0 4.8.8 6.2 2.2 1.2 1.2 1.8 2.9 1.8 4.9v.1c0 3.4-1.9 5.6-4.6 6.6l5.2 7.6h-5.5l-4.6-6.8h-3.7v6.8h-4.5zm9.4 10.3c2.3 0 3.6-1.2 3.6-3v-.1c0-2-1.4-3-3.7-3h-4.6v6.1z"/><path d="m28.8 14h8.3c6.7 0 11.3 4.6 11.3 10.6v.1c0 6-4.6 10.6-11.3 10.6h-8.3zm4.7 4.2v12.8h3.6c3.8 0 6.4-2.6 6.4-6.3v-.1c0-3.8-2.6-6.4-6.4-6.4z"/></g></svg>