<svg xmlns="http://www.w3.org/2000/svg" width="185" height="64" fill="none" viewBox="0 0 185 64">
  <defs>
    <linearGradient id="a" x1="64.712" x2="39.8491" y1="56.3782" y2="2.75258" gradientUnits="userSpaceOnUse">
      <stop offset=".21" stop-color="#007DFE"/>
      <stop offset=".55" stop-color="#FFB700"/>
    </linearGradient>
    <linearGradient id="b" x1="59.7719" x2="1.06701" y1="3.98138" y2="62.6868" gradientUnits="userSpaceOnUse">
      <stop offset=".23" stop-color="#FFB700"/>
      <stop offset=".73" stop-color="#FF0A67"/>
    </linearGradient>
  </defs>
  <path fill="#fff" d="M102.038 34.2c1.58-.77 2.8-1.85 3.66-3.24.86-1.39 1.29-3 1.29-4.83s-.42-3.41-1.27-4.79c-.85-1.38-2.05-2.45-3.61-3.21-1.56-.76-3.3597-1.13-5.4197-1.13h-12.7v29.96h5.33v-11.6h5.49l6.7297 11.6h6.12l-7.29-12.13c.58-.17 1.15-.37 1.68-.63h-.01Zm-2.9497-3.92c-.76.38-1.67.58-2.71.58h-7.06v-9.35h7.06c1.04 0 1.94.19 2.71.57.76.38 1.3497.92 1.7797 1.62.42.7.63 1.52.63 2.46s-.21 1.79-.63 2.49c-.42.71-1.0097 1.25-1.7797 1.64v-.01Zm11.6797-7.56h5.76v-5.01h-5.76v5.01Zm.36 24.23h5.05V25.03h-5.05v21.92Zm26.33-18.64c-.71-1.08-1.61-1.95-2.71-2.59-1.36-.8-2.95-1.2-4.76-1.2-1.95 0-3.7.49-5.23 1.47-1.53.98-2.74 2.34-3.61 4.09-.87 1.75-1.3 3.72-1.3 5.92 0 2.2.43 4.17 1.3 5.92.87 1.75 2.08 3.11 3.62 4.09s3.28 1.47 5.22 1.47c1.81 0 3.4-.4 4.76-1.2 1.1-.65 2-1.52 2.71-2.59v3.28h5.05V17.01h-5.05v11.32-.02Zm-.79 11.31c-.53 1.05-1.26 1.87-2.2 2.46-.94.59-2.03.89-3.25.89-1.22 0-2.27-.29-3.21-.88-.94-.58-1.67-1.41-2.19-2.46s-.78-2.27-.78-3.64.26-2.58.78-3.63c.52-1.05 1.25-1.87 2.19-2.46.94-.59 2.01-.89 3.21-.89 1.2 0 2.31.3 3.25.89.94.59 1.68 1.41 2.2 2.46.53 1.05.79 2.26.79 3.63s-.26 2.58-.79 3.63Zm26.71-13.64c-1.68-.97-3.6-1.46-5.76-1.46-2.16 0-4.03.5-5.77 1.49-1.73.99-3.1 2.36-4.1 4.1-1 1.74-1.5 3.69-1.5 5.84s.5 4.17 1.49 5.93c.99 1.75 2.35 3.12 4.07 4.11 1.72.98 3.66 1.48 5.81 1.48 1.7 0 3.25-.26 4.64-.79 1.39-.53 2.59-1.28 3.57-2.25s1.73-2.13 2.25-3.49h-5.5c-.56.74-1.26 1.32-2.1 1.73-.84.41-1.79.62-2.85.62-1.2 0-2.27-.29-3.22-.88-.95-.58-1.69-1.4-2.23-2.45-.43-.83-.68-1.76-.78-2.77h17.29v-1.22c0-2.23-.47-4.21-1.4-5.94-.93-1.73-2.24-3.08-3.93-4.06l.02.01Zm-11.88 7.83c.13-.72.34-1.4.67-2.02.54-1.02 1.28-1.82 2.23-2.4.95-.58 2.02-.87 3.22-.87 1.2 0 2.26.3 3.18.9.92.6 1.63 1.43 2.13 2.49.28.59.47 1.22.59 1.89h-12.02v.01Zm32.08-8.92c-1.55 0-2.92.4-4.09 1.21-.83.57-1.53 1.33-2.1 2.26v-3.32h-5.01v21.92h5.05V35.13c0-1.06.22-1.97.67-2.74.45-.77 1.09-1.36 1.93-1.78.83-.41 1.82-.62 2.94-.62h1.41V24.9h-.81l.01-.01Z"/>
  <path fill="#007DFE" d="m48.0473 58.1839 11.8755-.0017c2.2493 0 4.0721-1.8234 4.0721-4.0727V42.6029c0-1.1887-.5196-2.3186-1.422-3.0924L24.4115 6.80068c-.7383-.63244-1.6786-.98037-2.6508-.98037H9.88523c-2.24931 0-4.07273 1.82342-4.07273 4.07273V21.4014c0 1.1887.51956 2.3185 1.42196 3.0924L45.3953 57.203c.7384.633 1.6786.9804 2.6514.9804l.0006.0005Z"/>
  <path fill="url(#a)" d="M49.4753 58.1818h10.4466c2.2493 0 4.0727-1.8234 4.0727-4.0727V41.0164c0-.1925-.014-.3851-.0407-.576L58.6762 3.49673C58.3893 1.49004 56.6712 0 54.6442 0h-15.673c-2.2499 0-4.0733 1.824-4.0728 4.07389l.0047 18.53851c0 .4375.0704.8721.2089 1.2869l10.4995 31.4979c.5544 1.6629 2.1108 2.7846 3.8638 2.7846Z"/>
  <path fill="url(#b)" d="M4.06687 64H38.0352c1.6291 0 3.1016-.9711 3.7434-2.4681l16.0681-37.4906c.217-.5068.3293-1.0531.3293-1.6046V4.07273C58.176 1.82342 56.3525 0 54.1032 0H36.1373c-.8047 0-1.5913.238545-2.261.685382L1.80767 22.0881c-1.13222.7558-1.811784 2.0265-1.811784 3.3874l-.001745 34.4518C-.00586 62.1766 1.81756 64 4.06687 64Z"/>
  <path fill="#000" d="M51.9941 12h-40v40h40V12Z"/>
  <path fill="#fff" fill-rule="evenodd" d="M43.4426 20.643c-.636-1.1382-1.5181-2.0359-2.6465-2.6787-1.1216-.6429-2.3929-.9643-3.814-.9643h-5.7104v14.9994h5.7104c1.4211 0 2.6924-.3214 3.814-.9642 1.1284-.6429 2.0105-1.5268 2.6465-2.665.6354-1.1519.9534-2.4376.9534-3.8702 0-1.4326-.318-2.7189-.9534-3.857ZM40.85 27.1517c-.3645.7502-.8822 1.3253-1.5537 1.7139-.6716.4023-1.4539.6026-2.3464.6026h-2.7533v-9.937h2.7533c.8925 0 1.6748.2009 2.3464.6021.6715.3885 1.1892.9648 1.5537 1.7144.3645.7502.5464 1.6335.5464 2.6517s-.1819 1.9021-.5464 2.6523Z" clip-rule="evenodd"/>
  <path fill="#fff" fill-rule="evenodd" d="M20.0139 26.335h2.5243L25.7673 32h3.3537l-3.5712-6.0083c.0732-.0233.1478-.0446.2224-.0659.1682-.0481.3363-.0962.4881-.1665.8145-.4018 1.4395-.9511 1.8752-1.6605.4425-.71.6641-1.5267.6641-2.4646s-.2182-1.7276-.6538-2.4239c-.4287-.6962-1.0429-1.2455-1.843-1.6335-.8001-.3885-1.7253-.5762-2.7751-.5762h-6.4393V32h2.9249l.0006-5.665Zm0-6.8974h3.3215c.493 0 .9212.0942 1.2857.2681.3713.1877.6572.4419.8569.7771.1998.3346.3002.7232.3002 1.1784 0 .4551-.0999.8437-.3002 1.1921-.2003.3346-.4856.5895-.8569.7766-.3645.1871-.7927.268-1.2857.268h-3.3215v-4.4603Z" clip-rule="evenodd"/>
  <path fill="#fff" d="M16.9883 44h16v3h-16v-3Z"/>
</svg>
