<svg xmlns="http://www.w3.org/2000/svg" xmlns:xlink="http://www.w3.org/1999/xlink" width="70" height="70" viewBox="0 0 70 70">
  <defs>
    <linearGradient id="linear-gradient" x1="63.38684" y1="44.2386" x2="3.77963" y2="10.03219" gradientUnits="userSpaceOnUse">
      <stop offset="0" stop-color="#c90f5e"/>
      <stop offset="0.22111" stop-color="#c90f5e"/>
      <stop offset="0.2356" stop-color="#c90f5e"/>
      <stop offset="0.35559" stop-color="#ca135c"/>
      <stop offset="0.46633" stop-color="#ce1e57"/>
      <stop offset="0.5735" stop-color="#d4314e"/>
      <stop offset="0.67844" stop-color="#dc4b41"/>
      <stop offset="0.78179" stop-color="#e66d31"/>
      <stop offset="0.88253" stop-color="#f3961d"/>
      <stop offset="0.94241" stop-color="#fcb20f"/>
    </linearGradient>
    <linearGradient id="linear-gradient-2" x1="24.65866" y1="9.2836" x2="46.04755" y2="68.3461" gradientUnits="userSpaceOnUse">
      <stop offset="0.13918" stop-color="#077cfb"/>
      <stop offset="0.47573" stop-color="#c90f5e"/>
      <stop offset="0.95812" stop-color="#077cfb"/>
    </linearGradient>
    <linearGradient id="linear-gradient-3" x1="17.39516" y1="7.93368" x2="33.19377" y2="64.07951" gradientUnits="userSpaceOnUse">
      <stop offset="0.27749" stop-color="#c90f5e"/>
      <stop offset="0.96842" stop-color="#fdb60d"/>
    </linearGradient>
  </defs>
  <g>
    <polygon points="70 27.236 20.925 0 3.826 17.921 21.62 41.067 60.537 44.397 70 27.236" fill="url(#linear-gradient)"/>
    <polygon points="50.423 16.132 44.271 1.107 27.643 17.471 11.768 50.194 49.412 70 70 57.98 50.423 16.132" fill="url(#linear-gradient-2)"/>
    <polygon points="20.925 0 0 14.094 7.778 62.172 27.848 69.889 53.78 48.823 20.925 0" fill="url(#linear-gradient-3)"/>
  </g>
  <g>
    <rect x="14" y="14" width="42" height="42"/>
    <rect x="17.98999" y="48.125" width="15.75" height="2.625" fill="#fff"/>
    <g>
      <path d="M17.75441,19.40855h8.06388a7.03,7.03,0,0,1,5.141,1.78924,5.53893,5.53893,0,0,1,1.51224,4.03194v.0513a5.48115,5.48115,0,0,1-3.78059,5.46825l4.31,6.29927h-4.5367l-3.77956-5.64472H21.63554v5.64472H17.75441Zm7.81252,8.56865c1.88978,0,2.97318-1.00748,2.97318-2.49509v-.0513c0-1.662-1.15931-2.5197-3.0491-2.5197H21.63554V27.9772Z" fill="#fff"/>
      <path d="M35.9833,19.40855h6.87994c5.54418,0,9.374,3.80624,9.374,8.76973v.0513c0,4.96349-3.82983,8.819-9.374,8.819H35.9833Zm3.88112,3.50256V33.546h2.99882a5.026,5.026,0,0,0,5.31642-5.26717v-.04924a5.06652,5.06652,0,0,0-5.31642-5.31847Z" fill="#fff"/>
    </g>
  </g>
  <g>
    <rect x="37" y="53" width="33" height="17" fill="#d99e2b"/>
    <g>
      <path d="M40.05563,66.966h7.19661V65.24271H41.745V62.2975h4.82041V60.57425H41.745V57.72294h5.43874V55.99969H40.05563Z"/>
      <path d="M48.15627,66.966h1.86832l1.06757-2.6268h4.9082l1.05281,2.6268h1.9277l-4.5671-10.95841h-1.6904Zm3.60316-4.321,1.77945-4.35241L55.33309,62.645Z"/>
      <path d="M59.87536,66.966h1.62869V63.44109h1.84026a3.50288,3.50288,0,0,0,3.70715-3.74426v-.03124a3.3623,3.3623,0,0,0-3.52185-3.6659H59.87536Zm1.62869-5.26364V57.75418h1.89333a1.80657,1.80657,0,0,1,1.99894,1.95836V59.744a1.86935,1.86935,0,0,1-1.99894,1.95836Z"/>
    </g>
  </g>
  <g>
    <rect x="37" y="53" width="33" height="17" fill="#d99e2b"/>
    <g>
      <path d="M40.05563,66.966h7.19661V65.24271H41.745V62.2975h4.82041V60.57425H41.745V57.72294h5.43874V55.99969H40.05563Z"/>
      <path d="M48.15627,66.966h1.86832l1.06757-2.6268h4.9082l1.05281,2.6268h1.9277l-4.5671-10.95841h-1.6904Zm3.60316-4.321,1.77945-4.35241L55.33309,62.645Z"/>
      <path d="M59.87536,66.966h1.62869V63.44109h1.84026a3.50285,3.50285,0,0,0,3.70715-3.74426v-.03124a3.36233,3.36233,0,0,0-3.52185-3.6659H59.87536Zm1.62869-5.26364V57.75418h1.89333a1.80658,1.80658,0,0,1,1.99894,1.95836V59.744a1.86938,1.86938,0,0,1-1.99894,1.95836Z"/>
    </g>
  </g>
</svg>
