<svg xmlns="http://www.w3.org/2000/svg" width="128" height="128" fill="none" viewBox="0 0 128 128">
  <defs>
    <linearGradient id="a" x1="128.781" x2="79.2149" y1="112.659" y2="5.74875" gradientUnits="userSpaceOnUse">
      <stop offset=".21" stop-color="#007DFE"/>
      <stop offset=".55" stop-color="#FFB700"/>
    </linearGradient>
    <linearGradient id="b" x1="119.351" x2="2.16001" y1="8.13375" y2="125.326" gradientUnits="userSpaceOnUse">
      <stop offset=".23" stop-color="#FFB700"/>
      <stop offset=".73" stop-color="#FF0A67"/>
    </linearGradient>
  </defs>
  <path fill="#007DFE" d="M95.1007 116h24.5173c4.608 0 8.323-3.774 8.249-8.381l-.353-22.0865c-.037-2.3625-1.086-4.595-2.88-6.1325L48.3182 13.9862C46.8232 12.705 44.9182 12 42.9495 12H20.252c-4.5563 0-8.25 3.6937-8.25 8.25v22.0062c0 2.3788 1.0275 4.6426 2.8175 6.2088l74.8499 65.494c1.5038 1.316 3.4338 2.041 5.4326 2.041h-.0013Z"/>
  <path fill="url(#a)" d="M98.0261 116H119.75c4.556 0 8.25-3.694 8.25-8.25V82.6188c0-.4-.029-.8-.088-1.1963L117.016 7.05375C116.422 3.0025 112.947 0 108.854 0H78.0586c-4.5575 0-8.2513 3.695-8.25 8.2525l.0087 37.0087c0 .8513.1325 1.6975.3913 2.5075L90.1661 110.26c1.0925 3.419 4.27 5.74 7.8587 5.74h.0013Z"/>
  <path fill="url(#b)" d="M8.25 128h68.255c3.3162 0 6.31-1.986 7.6-5.041L115.7 48.1162c.437-1.0362.659-2.1512.649-3.2762l-.3-36.6575C116.013 3.6525 112.33 0 107.8 0H72.4688c-1.6113 0-3.1863.47125-4.5326 1.35625L3.71875 43.5737C1.3975 45.1 0 47.69 0 50.4675V119.75c0 4.556 3.69375 8.25 8.25 8.25Z"/>
  <path fill="#000" d="M104 24H24v80h80V24Z"/>
  <path fill="#fff" d="M66 88H34v6h32v-6Z"/>
  <path fill="#fff" d="M33.9844 33.9844h12.8837c2.1013 0 3.9513.3862 5.5525 1.1575 1.6.7712 2.8338 1.8575 3.6975 3.2587.865 1.4013 1.2975 3.0225 1.2975 4.8663 0 1.8437-.44 3.4975-1.3187 4.92-.8788 1.4225-2.13 2.5225-3.7513 3.3012-1.6225.7788-3.505 1.1688-5.6487 1.1688h-6.86v11.34h-5.8525V33.9844Zm15.0812 13.2587c.7363-.365 1.3038-.8862 1.7038-1.565.4-.6787.6-1.4687.6-2.3687 0-.9-.2-1.7038-.6-2.3688-.4-.665-.9688-1.1787-1.7038-1.5437-.7362-.365-1.5975-.5463-2.5837-.5463h-6.6463v8.94h6.6463c.9862 0 1.8475-.1825 2.5837-.5462v-.0013Zm-5.2625 3.5275h6.3888l7.8675 13.2275h-6.71l-7.5463-13.2275Z"/>
  <path fill="#fff" d="M63.2266 33.9844h11.4262c2.8438 0 5.3913.6425 7.6425 1.9287 2.2513 1.2863 4.0125 3.0688 5.2838 5.3488 1.2712 2.28 1.9075 4.855 1.9075 7.7287 0 2.8738-.6363 5.4488-1.9075 7.7288-1.2725 2.28-3.0338 4.0625-5.2838 5.3487-2.25 1.2863-4.7987 1.9288-7.6425 1.9288H63.2266V33.9844Zm16.0562 23.7525c1.3438-.8 2.38-1.9475 3.1088-3.4413.7287-1.4937 1.0937-3.2612 1.0937-5.3062 0-2.045-.365-3.8125-1.0937-5.3063-.7288-1.4937-1.765-2.64-3.1088-3.4412-1.3437-.8-2.9087-1.2-4.695-1.2h-5.51v19.8937h5.51c1.7863 0 3.3513-.4 4.695-1.2v.0013Z"/>
</svg>
