<svg xmlns="http://www.w3.org/2000/svg" width="64" height="64" fill="none" viewBox="0 0 64 64">
  <defs>
    <linearGradient id="a" x1="64.3905" x2="39.6074" y1="56.3294" y2="2.87438" gradientUnits="userSpaceOnUse">
      <stop offset=".21" stop-color="#007DFE"/>
      <stop offset=".55" stop-color="#FFB700"/>
    </linearGradient>
    <linearGradient id="b" x1="59.6756" x2="1.08" y1="4.06688" y2="62.6631" gradientUnits="userSpaceOnUse">
      <stop offset=".23" stop-color="#FFB700"/>
      <stop offset=".73" stop-color="#FF0A67"/>
    </linearGradient>
  </defs>
  <path fill="#007DFE" d="M47.5494 58h12.2587c2.3038 0 4.1613-1.8869 4.1244-4.1906l-.1763-11.0431c-.0187-1.1813-.5431-2.2975-1.44-3.0663L24.1581 6.99312C23.4106 6.3525 22.4581 6 21.4737 6H10.125C7.84687 6 6 7.84687 6 10.125v11.0031c0 1.1894.51375 2.3213 1.40875 3.1044L44.8337 56.9794C45.5856 57.6375 46.5506 58 47.55 58h-.0006Z"/>
  <path fill="url(#a)" d="M49.0131 58h10.8618c2.2781 0 4.125-1.8469 4.125-4.125V41.3094c0-.2-.0144-.4-.0437-.5981L58.508 3.52688C58.2112 1.50125 56.4737 0 54.4268 0H39.0293c-2.2788 0-4.1256 1.8475-4.125 4.12625l.0044 18.50435c0 .4256.0662.8488.1956 1.2538L45.083 55.13c.5463 1.7094 2.135 2.87 3.9294 2.87h.0007Z"/>
  <path fill="url(#b)" d="M4.125 64h34.1275c1.6581 0 3.155-.9931 3.8-2.5206L57.85 24.0581c.2187-.5181.3294-1.0756.3244-1.6381l-.15-18.32875C58.0063 1.82625 56.165 0 53.9 0H36.2344c-.8057 0-1.5932.235625-2.2663.678125L1.85938 21.7869C.69875 22.55 0 23.845 0 25.2337V59.875C0 62.1531 1.84687 64 4.125 64Z"/>
  <path fill="#000" d="M52 12H12v40h40V12Z"/>
  <path fill="#fff" d="M33 44H17v3h16v-3Z"/>
  <path fill="#fff" d="M16.9922 16.9922h6.4419c1.0506 0 1.9756.1931 2.7762.5787.8.3857 1.4169.9288 1.8488 1.6294.4325.7006.6487 1.5113.6487 2.4331 0 .9219-.22 1.7488-.6594 2.46-.4393.7113-1.065 1.2613-1.8756 1.6507-.8112.3893-1.7525.5843-2.8244.5843h-3.43v5.67h-2.9262V16.9922Zm7.5406 6.6294c.3681-.1825.6519-.4432.8519-.7825.2-.3394.3-.7344.3-1.1844 0-.45-.1-.8519-.3-1.1844-.2-.3325-.4844-.5894-.8519-.7719-.3681-.1825-.7987-.2731-1.2919-.2731h-3.3231v4.47h3.3231c.4932 0 .9238-.0912 1.2919-.2731v-.0006Zm-2.6312 1.7637h3.1943l3.9338 6.6138h-3.355l-3.7731-6.6138Z"/>
  <path fill="#fff" d="M31.6133 16.9922h5.7131c1.4219 0 2.6956.3212 3.8213.9644 1.1256.6431 2.0062 1.5343 2.6418 2.6743.6357 1.14.9538 2.4275.9538 3.8644 0 1.4369-.3181 2.7244-.9538 3.8644-.6362 1.14-1.5168 2.0312-2.6418 2.6744-1.125.6431-2.3994.9643-3.8213.9643h-5.7131V16.9922Zm8.0281 11.8762c.6719-.4 1.19-.9737 1.5544-1.7206.3644-.7469.5469-1.6306.5469-2.6531 0-1.0225-.1825-1.9063-.5469-2.6531-.3644-.7469-.8825-1.32-1.5544-1.7207-.6719-.4-1.4544-.6-2.3475-.6h-2.755v9.9469h2.755c.8931 0 1.6756-.2 2.3475-.6v.0006Z"/>
</svg>
