<svg height="70" viewBox="0 0 70 70" width="70" xmlns="http://www.w3.org/2000/svg" xmlns:xlink="http://www.w3.org/1999/xlink"><linearGradient id="a" gradientUnits="userSpaceOnUse" x1="63.38684" x2="3.77963" y1="44.2386" y2="10.03219"><stop offset="0" stop-color="#c90f5e"/><stop offset=".22111" stop-color="#c90f5e"/><stop offset=".2356" stop-color="#c90f5e"/><stop offset=".35559" stop-color="#ca135c"/><stop offset=".46633" stop-color="#ce1e57"/><stop offset=".5735" stop-color="#d4314e"/><stop offset=".67844" stop-color="#dc4b41"/><stop offset=".78179" stop-color="#e66d31"/><stop offset=".88253" stop-color="#f3961d"/><stop offset=".94241" stop-color="#fcb20f"/></linearGradient><linearGradient id="b" gradientUnits="userSpaceOnUse" x1="24.65866" x2="46.04755" y1="9.2836" y2="68.3461"><stop offset=".13918" stop-color="#077cfb"/><stop offset=".47573" stop-color="#c90f5e"/><stop offset=".95812" stop-color="#077cfb"/></linearGradient><linearGradient id="c" gradientUnits="userSpaceOnUse" x1="17.39516" x2="33.19377" y1="7.93368" y2="64.07951"><stop offset=".27749" stop-color="#c90f5e"/><stop offset=".96842" stop-color="#fdb60d"/></linearGradient><path d="m70 27.236-49.075-27.236-17.099 17.921 17.794 23.146 38.917 3.33z" fill="url(#a)"/><path d="m50.423 16.132-6.152-15.025-16.628 16.364-15.875 32.723 37.644 19.806 20.588-12.02z" fill="url(#b)"/><path d="m20.925 0-20.925 14.094 7.778 48.078 20.07 7.717 25.932-21.066z" fill="url(#c)"/><path d="m14 14h42v42h-42z"/><g fill="#fff"><path d="m17.98999 48.125h15.75v2.625h-15.75z"/><path d="m17.75441 19.40855h8.06388a7.03 7.03 0 0 1 5.141 1.78924 5.53893 5.53893 0 0 1 1.51224 4.03194v.0513a5.48115 5.48115 0 0 1 -3.78059 5.46825l4.31 6.29927h-4.5367l-3.77956-5.64472h-3.04914v5.64472h-3.88113zm7.81252 8.56865c1.88978 0 2.97318-1.00748 2.97318-2.49509v-.0513c0-1.662-1.15931-2.5197-3.0491-2.5197h-3.85547v5.06609z"/><path d="m35.9833 19.40855h6.87994c5.54418 0 9.374 3.80624 9.374 8.76973v.0513c0 4.96349-3.82983 8.819-9.374 8.819h-6.87994zm3.88112 3.50256v10.63489h2.99882a5.026 5.026 0 0 0 5.31642-5.26717v-.04924a5.06652 5.06652 0 0 0 -5.31642-5.31847z"/></g><path d="m37 53h33v17h-33z" fill="#d99e2b"/><path d="m40.05563 66.966h7.19661v-1.72329h-5.50724v-2.94521h4.82041v-1.72325h-4.82041v-2.85131h5.43874v-1.72325h-7.12811z"/><path d="m48.15627 66.966h1.86832l1.06757-2.6268h4.9082l1.05281 2.6268h1.9277l-4.5671-10.95841h-1.6904zm3.60316-4.321 1.77945-4.35241 1.79421 4.35241z"/><path d="m59.87536 66.966h1.62869v-3.52491h1.84026a3.50288 3.50288 0 0 0 3.70715-3.74426v-.03124a3.3623 3.3623 0 0 0 -3.52185-3.6659h-3.65425zm1.62869-5.26364v-3.94818h1.89333a1.80657 1.80657 0 0 1 1.99894 1.95836v.03146a1.86935 1.86935 0 0 1 -1.99894 1.95836z"/><path d="m37 53h33v17h-33z" fill="#d99e2b"/><path d="m40.05563 66.966h7.19661v-1.72329h-5.50724v-2.94521h4.82041v-1.72325h-4.82041v-2.85131h5.43874v-1.72325h-7.12811z"/><path d="m48.15627 66.966h1.86832l1.06757-2.6268h4.9082l1.05281 2.6268h1.9277l-4.5671-10.95841h-1.6904zm3.60316-4.321 1.77945-4.35241 1.79421 4.35241z"/><path d="m59.87536 66.966h1.62869v-3.52491h1.84026a3.50285 3.50285 0 0 0 3.70715-3.74426v-.03124a3.36233 3.36233 0 0 0 -3.52185-3.6659h-3.65425zm1.62869-5.26364v-3.94818h1.89333a1.80658 1.80658 0 0 1 1.99894 1.95836v.03146a1.86938 1.86938 0 0 1 -1.99894 1.95836z"/></svg>