<svg xmlns="http://www.w3.org/2000/svg" width="271" height="48" fill="none" viewBox="0 0 271 48">
  <defs>
    <linearGradient id="a" x1="0" x2="35.1" y1="12.3" y2="40.8" gradientUnits="userSpaceOnUse">
      <stop stop-color="#FF318C"/>
      <stop offset="1" stop-color="#AF1DF5"/>
    </linearGradient>
  </defs>
  <path fill="#000" d="M98.72 32.218 91.87 9h-5.65l-6.7 23.218L72.54 9H67l9.27 30.0091h5.88l6.83-23.1078 6.76 23.1078h5.91L110.9 9h-5.42l-6.76 23.218Zm20.68-14.0931c-.83.571-1.53 1.3322-2.1 2.2637v-3.3254h-5.01v21.9559h5.05V27.1697c0-1.0617.22-1.9732.67-2.7444.45-.7713 1.09-1.3623 1.93-1.783.83-.4106 1.82-.621 2.94-.621h1.41V16.923h-.81c-1.56 0-2.92.4006-4.09 1.212l.01-.0101Zm7.4-3.3755h5.76V9.7312h-5.76v5.0182Zm.36 24.2597h5.05V17.0632h-5.05v21.9559-.01Zm16.8-27.3047h-4.71v3.5558c0 .5309-.16.9616-.49 1.2922-.33.3305-.76.5008-1.31.5008h-2.4l-.02 4.3972h3.85l.02 11.7292c0 1.1118.26 2.1134.78 3.0049.52.8915 1.25 1.5826 2.18 2.0834.93.5008 1.99.7512 3.16.7512h4.73V34.622h-3.72c-.6 0-1.09-.2004-1.49-.591-.39-.3907-.59-.8915-.59-1.4925l-.02-11.0781h5.82l.02-4.3972h-5.82v-5.3588h.01Zm24.28 6.3003c-1.68-.9715-3.6-1.4624-5.76-1.4624-2.16 0-4.03.5009-5.77 1.4925-1.73.9916-3.1 2.3639-4.1 4.1067-1 1.7429-1.5 3.6961-1.5 5.8496 0 2.1535.5 4.1768 1.49 5.9397.99 1.7529 2.35 3.1251 4.07 4.1168 1.72.9816 3.66 1.4824 5.81 1.4824 1.7 0 3.25-.2604 4.64-.7913 1.39-.5309 2.59-1.2821 3.57-2.2537.98-.9716 1.73-2.1335 2.25-3.4957h-5.5c-.56.7412-1.26 1.3221-2.1 1.7328-.84.4107-1.79.621-2.85.621-1.2 0-2.27-.2904-3.22-.8814-.95-.581-1.69-1.4023-2.23-2.454-.43-.8314-.68-1.7629-.78-2.7746h17.29v-1.222c0-2.2336-.47-4.2169-1.4-5.9497-.93-1.7329-2.24-3.0851-3.93-4.0667l.02.01Zm-11.88 7.8429c.13-.7212.34-1.4023.67-2.0233.54-1.0217 1.28-1.823 2.23-2.404.95-.5809 2.02-.8714 3.22-.8714 1.2 0 2.26.3005 3.18.9015.92.601 1.63 1.4323 2.13 2.4941.28.5909.47 1.222.59 1.8931h-12.02v.01Zm27.99-7.7227c-.83.571-1.53 1.3322-2.1 2.2637v-3.3254h-5.01v21.9559h5.05V27.1697c0-1.0617.22-1.9732.67-2.7444.45-.7713 1.09-1.3623 1.93-1.783.83-.4106 1.82-.621 2.94-.621h1.41V16.923h-.81c-1.55 0-2.92.4006-4.09 1.212l.01-.0101Zm22.53 9.165c-.87-.611-1.88-1.0216-3.04-1.222l-4.82-.8313c-.56-.1002-1.02-.2404-1.38-.4307-.36-.1903-.64-.4207-.82-.7112-.18-.2905-.28-.621-.28-1.0116 0-.5109.15-.9716.45-1.3723.3-.4006.72-.7112 1.27-.9315.55-.2204 1.18-.3306 1.89-.3306s1.31.1102 1.87.3406 1.02.5509 1.37.9516c.35.4006.57.8914.65 1.4423h5.03c-.1-1.3422-.54-2.5141-1.32-3.5157-.78-1.0017-1.83-1.7729-3.15-2.3138-1.32-.5409-2.81-.8114-4.46-.8114s-3.17.2905-4.46.8715c-1.29.5809-2.29 1.3822-2.99 2.4039-.7 1.0217-1.05 2.1836-1.05 3.4857 0 1.0618.24 2.0333.72 2.9148.48.8814 1.15 1.6226 2.02 2.2236.87.601 1.89.9816 3.06 1.172l4.86.8113c.46.0701.86.2203 1.21.4407.35.2204.62.5008.81.8213.19.3306.29.6912.29 1.0918 0 .5409-.17 1.0217-.52 1.4224-.35.4106-.84.7211-1.47.9515-.63.2304-1.33.3406-2.12.3406-.84 0-1.58-.1102-2.21-.3306-.64-.2203-1.15-.5408-1.54-.9515-.39-.4107-.62-.9115-.7-1.5025H191c.09 1.3422.55 2.5342 1.38 3.5659.83 1.0316 1.96 1.833 3.37 2.4039 1.41.5609 3 .8514 4.77.8514 1.77 0 3.21-.2905 4.59-.8815 1.38-.5909 2.46-1.4123 3.25-2.474s1.19-2.2637 1.19-3.5859c0-1.0717-.23-2.0734-.7-2.9949-.46-.9215-1.13-1.6928-2-2.3038h.03Zm6.5 11.7192h5.05V17.0632h-5.05v21.9559-.01Zm-.36-24.2597h5.76V9.7312h-5.76v5.0182Zm26.69 5.5892c-.71-1.0818-1.61-1.9532-2.71-2.5943-1.36-.8013-2.95-1.202-4.76-1.202-1.95 0-3.7.4909-5.23 1.4725-1.53.9816-2.74 2.3438-3.61 4.0967-.87 1.7528-1.3 3.7261-1.3 5.9297 0 2.2036.43 4.1768 1.3 5.9297.87 1.7529 2.08 3.1151 3.62 4.0967 1.54.9816 3.28 1.4724 5.22 1.4724 1.81 0 3.4-.4007 4.76-1.202 1.1-.651 2-1.5225 2.71-2.5942v3.2854h5.05V9h-5.05v11.3386Zm-.79 11.3285c-.53 1.0517-1.26 1.8731-2.2 2.464-.94.591-2.03.8915-3.25.8915-1.22 0-2.27-.2905-3.21-.8814-.94-.581-1.67-1.4123-2.19-2.4641-.52-1.0517-.78-2.2737-.78-3.6459 0-1.3723.26-2.5843.78-3.636.52-1.0517 1.25-1.8731 2.19-2.464.94-.591 2.01-.8915 3.21-.8915 1.2 0 2.31.3005 3.25.8915.94.5909 1.68 1.4123 2.2 2.464.53 1.0517.79 2.2637.79 3.636 0 1.3722-.26 2.5842-.79 3.6359Zm32.04-3.656c0-2.2336-.47-4.2169-1.4-5.9497-.93-1.7329-2.24-3.0851-3.93-4.0667-1.69-.9816-3.6-1.4624-5.76-1.4624-2.16 0-4.03.5009-5.77 1.4925-1.73.9916-3.1 2.3638-4.1 4.1067-1 1.7429-1.5 3.6961-1.5 5.8496 0 2.1535.5 4.1768 1.49 5.9397.99 1.7529 2.35 3.1251 4.07 4.1167 1.72.9816 3.66 1.4825 5.81 1.4825 1.7 0 3.25-.2605 4.64-.7913 1.39-.5309 2.59-1.2821 3.57-2.2537.98-.9716 1.73-2.1335 2.25-3.4957h-5.5c-.56.7412-1.26 1.3221-2.1 1.7328-.84.4107-1.79.621-2.85.621-1.2 0-2.27-.2905-3.22-.8814-.95-.581-1.69-1.4023-2.23-2.454-.43-.8314-.68-1.7629-.78-2.7746h17.29v-1.222l.02.01Zm-17.21-2.1635c.13-.7212.34-1.4023.67-2.0233.54-1.0217 1.28-1.823 2.23-2.404.95-.5809 2.02-.8714 3.22-.8714 1.2 0 2.26.3005 3.18.9015.92.601 1.63 1.4323 2.13 2.4941.28.5909.47 1.222.59 1.8931h-12.02v.01Z"/>
  <path fill="url(#a)" d="M5.992 0H48v41.9922h-6.016V5.97617H5.992V0Zm30.016 11.9602V48H0V11.9602h36.008ZM22 39H5.976v3.0398L22 41.9922V39Z"/>
</svg>
