<svg id="Layer_1" data-name="Layer 1" xmlns="http://www.w3.org/2000/svg" xmlns:xlink="http://www.w3.org/1999/xlink" width="70" height="70" viewBox="0 0 70 70">
  <defs>
    <linearGradient id="linear-gradient" x1="41.08629" y1="17.64979" x2="46.5384" y2="4.06277" gradientUnits="userSpaceOnUse">
      <stop offset="0" stop-color="#9775f8"/>
      <stop offset="0.95161" stop-color="#22d88f"/>
    </linearGradient>
    <linearGradient id="linear-gradient-2" x1="17.07095" y1="36.26017" x2="24.14989" y2="67.10412" gradientUnits="userSpaceOnUse">
      <stop offset="0" stop-color="#9775f8"/>
      <stop offset="0.21423" stop-color="#689cce"/>
      <stop offset="0.42298" stop-color="#42bdac"/>
      <stop offset="0.58968" stop-color="#2bd197"/>
      <stop offset="0.69355" stop-color="#22d88f"/>
    </linearGradient>
    <linearGradient id="linear-gradient-3" x1="4.89311" y1="34.04309" x2="66.23245" y2="67.91054" gradientUnits="userSpaceOnUse">
      <stop offset="0.07527" stop-color="#22d88f"/>
      <stop offset="0.72043" stop-color="#9775f8"/>
    </linearGradient>
    <linearGradient id="linear-gradient-4" y1="26.84047" x2="61.64602" y2="26.84047" gradientUnits="userSpaceOnUse">
      <stop offset="0.07527" stop-color="#22d88f"/>
      <stop offset="0.26582" stop-color="#5ab0b4"/>
      <stop offset="0.56452" stop-color="#b86cf2"/>
      <stop offset="1" stop-color="#ff59e6"/>
    </linearGradient>
  </defs>
  <title>dataGripEAP</title>
  <g>
    <polygon points="65.536 10.882 70 39.533 53.033 49.409 49.76 33.163 65.536 10.882" fill="#9775f8"/>
    <polygon points="65.536 10.882 40.473 0 19.424 17.471 49.76 33.163 65.536 10.882" fill="url(#linear-gradient)"/>
    <polygon points="47.302 70 18.049 30.562 9.275 36.42 0.606 62.505 47.302 70" fill="url(#linear-gradient-2)"/>
    <polygon points="52.8 50.126 32.3 36.634 0 32.311 47.302 70 52.8 50.126" fill="url(#linear-gradient-3)"/>
    <polygon points="0 0.496 0 32.311 60.75 53.185 65.536 10.882 0 0.496" fill="url(#linear-gradient-4)"/>
  </g>
  <g>
    <rect x="14" y="14" width="42" height="42"/>
    <rect x="17.98999" y="48.125" width="15.75" height="2.625" fill="#fff"/>
    <g>
      <path d="M18.24848,19.44564h6.783c5.46611,0,9.24268,3.75184,9.24268,8.6466v.04965c0,4.89455-3.77657,8.69605-9.24268,8.69605h-6.783Zm3.82632,3.45375v10.485h2.95667A4.95582,4.95582,0,0,0,30.274,28.19154v-.04965a4.995,4.995,0,0,0-5.24249-5.2425Z" fill="#fff"/>
      <path d="M34.95154,28.19154v-.04965A8.92679,8.92679,0,0,1,44.07,19.14755a9.54921,9.54921,0,0,1,6.83264,2.38532l-2.41,2.90682a6.40427,6.40427,0,0,0-4.54682-1.76391,5.22382,5.22382,0,0,0-4.99405,5.41646v.04965a5.211,5.211,0,0,0,5.26732,5.51576,6.10564,6.10564,0,0,0,3.6027-1.04362V30.12942H43.97061V26.825h7.55323v7.55314a11.2887,11.2887,0,0,1-7.429,2.75788C38.67836,37.136,34.95154,33.33473,34.95154,28.19154Z" fill="#fff"/>
    </g>
  </g>
  <g>
    <rect x="37" y="53" width="33" height="17" fill="#d99e2b"/>
    <g>
      <path d="M40.05563,66.966h7.19661V65.24271H41.745V62.2975h4.82041V60.57425H41.745V57.72294h5.43874V55.99969H40.05563Z"/>
      <path d="M48.15627,66.966h1.86832l1.06757-2.6268h4.9082l1.05281,2.6268h1.9277l-4.5671-10.95841h-1.6904Zm3.60316-4.321,1.77945-4.35241L55.33309,62.645Z"/>
      <path d="M59.87536,66.966h1.62869V63.44109h1.84026a3.50288,3.50288,0,0,0,3.70715-3.74426v-.03124a3.3623,3.3623,0,0,0-3.52185-3.6659H59.87536Zm1.62869-5.26364V57.75418h1.89333a1.80657,1.80657,0,0,1,1.99894,1.95836V59.744a1.86935,1.86935,0,0,1-1.99894,1.95836Z"/>
    </g>
  </g>
  <g>
    <rect x="37" y="53" width="33" height="17" fill="#d99e2b"/>
    <g>
      <path d="M40.05563,66.966h7.19661V65.24271H41.745V62.2975h4.82041V60.57425H41.745V57.72294h5.43874V55.99969H40.05563Z"/>
      <path d="M48.15627,66.966h1.86832l1.06757-2.6268h4.9082l1.05281,2.6268h1.9277l-4.5671-10.95841h-1.6904Zm3.60316-4.321,1.77945-4.35241L55.33309,62.645Z"/>
      <path d="M59.87536,66.966h1.62869V63.44109h1.84026a3.50285,3.50285,0,0,0,3.70715-3.74426v-.03124a3.36233,3.36233,0,0,0-3.52185-3.6659H59.87536Zm1.62869-5.26364V57.75418h1.89333a1.80658,1.80658,0,0,1,1.99894,1.95836V59.744a1.86938,1.86938,0,0,1-1.99894,1.95836Z"/>
    </g>
  </g>
</svg>
