<svg xmlns="http://www.w3.org/2000/svg" width="64" height="64" fill="none" viewBox="0 0 64 64">
  <defs>
    <linearGradient id="a" x1="59.6762" x2="1.08" y1="4.06688" y2="62.6631" gradientUnits="userSpaceOnUse">
      <stop offset=".28" stop-color="#7256FF"/>
      <stop offset=".66" stop-color="#00D980"/>
    </linearGradient>
    <linearGradient id="b" x1="64.3912" x2="39.6074" y1="56.3294" y2="2.87437" gradientUnits="userSpaceOnUse">
      <stop offset=".3" stop-color="#FF43F2"/>
      <stop offset=".54" stop-color="#7256FF"/>
    </linearGradient>
  </defs>
  <path fill="url(#a)" d="M4.125 64h34.1275c1.6581 0 3.155-.9931 3.8-2.5206L57.85 24.0581c.2187-.5181.3294-1.0756.3244-1.6381l-.15-18.32875C58.0056 1.82625 56.1644 0 53.8994 0H36.2337c-.8056 0-1.5931.235625-2.2662.678125L1.85938 21.7869C.69875 22.55 0 23.845 0 25.2337V59.875C0 62.1531 1.84687 64 4.125 64Z"/>
  <path fill="url(#b)" d="M49.0131 58h10.8618c2.2781 0 4.125-1.8469 4.125-4.125V41.3094c0-.2-.0144-.4-.0437-.5981L58.508 3.52688C58.2112 1.50125 56.4737 0 54.4268 0H39.0293c-2.2788 0-4.1256 1.8475-4.125 4.12625l.0044 18.50435c0 .4256.0662.8488.1956 1.2538L45.083 55.13c.5463 1.7094 2.135 2.87 3.9294 2.87h.0007Z"/>
  <path fill="#FF43F2" d="M47.55 58h12.2588c2.3037 0 4.1612-1.8869 4.1243-4.1906L63.9994 43c-.0188-1.1812-.7856-2.5312-1.6825-3.3L24.1588 6.99312C23.4113 6.3525 22.4587 6 21.4744 6H10.125C7.84687 6 6 7.84687 6 10.125v11.0031c0 1.1894.51375 2.3213 1.40875 3.1044L44.8338 56.9794C45.5856 57.6375 46.5506 58 47.55 58Z"/>
  <path fill="#000" d="M52 12H12v40h40V12Z"/>
  <path fill="#fff" d="M33 44H17v3h16v-3Z"/>
  <path fill="#fff" d="M17.0117 16.9922h5.7131c1.4219 0 2.6957.3212 3.8213.9644 1.1256.6431 2.0062 1.5343 2.6419 2.6743.6362 1.14.9537 2.4275.9537 3.8644 0 1.4369-.3181 2.7244-.9537 3.8644-.6363 1.14-1.5169 2.0312-2.6419 2.6744-1.1256.6431-2.3994.9643-3.8213.9643h-5.7131V16.9922Zm8.0281 11.8762c.6719-.4 1.19-.9737 1.5544-1.7206.3644-.7469.5469-1.6306.5469-2.6531 0-1.0225-.1825-1.9063-.5469-2.6531-.3644-.7469-.8825-1.32-1.5544-1.7207-.6718-.4-1.4543-.6-2.3475-.6h-2.755v9.9469h2.755c.8932 0 1.6757-.2 2.3475-.6v.0006Z"/>
  <path fill="#fff" d="M35.4262 31.2425c-1.165-.675-2.0794-1.6044-2.7438-2.7869-.6644-1.1825-.9969-2.5025-.9969-3.9606s.3325-2.7781.9969-3.9606 1.5794-2.1119 2.7438-2.7869c1.1643-.675 2.4656-1.0131 3.9018-1.0131 1.1644 0 2.2382.2075 3.2213.6219.9825.4143 1.8112.9968 2.4869 1.7468.6756.75 1.1487 1.615 1.42 2.5938h-3.13c-.2288-.4719-.5375-.8806-.9269-1.2275-.3894-.3463-.845-.6144-1.3669-.8038s-1.0825-.2837-1.6831-.2837c-.8863 0-1.6863.2212-2.4013.6643-.7143.4432-1.2737 1.0526-1.6775 1.8276-.4037.7756-.6056 1.6487-.6056 2.6206s.2019 1.8456.6056 2.6206c.4038.7756.9632 1.3844 1.6775 1.8275.7144.4431 1.515.6644 2.4013.6644.8219 0 1.5669-.1538 2.235-.4613.6681-.3069 1.1987-.7325 1.5919-1.2756.3931-.5431.6037-1.1538.6325-1.8331l.0106.3106H40.293v-2.3044h6.3563v1.1794c0 1.3219-.32 2.5175-.9594 3.5856-.6394 1.0681-1.515 1.91-2.6262 2.5244-1.1113.6144-2.3563.9219-3.7357.9219-1.3793 0-2.7368-.3375-3.9018-1.0131v.0012Z"/>
</svg>
