<svg enable-background="new 0 0 580.3 107.9" height="107.9" viewBox="0 0 580.3 107.9" width="580.3" xmlns="http://www.w3.org/2000/svg"><path d="m0 3.8h85v85h-85z"/><g fill="#fff"><path d="m7.9 72.9h31.9v5.3h-31.9z"/><path d="m7.9 14.4h8.3c6.7 0 11.3 4.6 11.3 10.6s-4.6 10.6-11.3 10.6h-8.3zm4.7 4.2v12.8h3.6c3.8 0 6.4-2.6 6.4-6.3v-.1c0-3.8-2.6-6.4-6.4-6.4z"/><path d="m28.3 25c0-6.1 4.7-11 11.1-11 3.8 0 6.1 1 8.3 2.9l-2.9 3.5c-1.6-1.4-3.1-2.2-5.6-2.2-3.4 0-6.1 3-6.1 6.6v.2c0 3.9 2.7 6.7 6.4 6.7 1.7 0 3.2-.4 4.4-1.3v-3h-4.7v-4h9.2v9.2c-2.2 1.9-5.2 3.4-9.1 3.4-6.5 0-11-4.7-11-11z"/></g><path d="m111.8 3.6h33.1c26.7 0 45.1 18.3 45.1 42.2v.2c0 23.9-18.4 42.4-45.1 42.4h-33.1zm18.6 16.9v51.1h14.4c15.3 0 25.6-10.3 25.6-25.3v-.2c0-15-10.3-25.6-25.6-25.6z"/><path d="m188.9 69.8v-.2c0-14.2 10.8-20.7 26.2-20.7 6.5 0 11.3 1.1 15.9 2.7v-1.1c0-7.6-4.7-11.9-13.9-11.9-7 0-12 1.3-17.9 3.5l-4.8-14.1c7.2-3.2 14.2-5.2 25.2-5.2 10.1 0 17.3 2.7 21.9 7.3 4.8 4.8 7 12 7 20.7v37.7h-17.8v-7c-4.5 5-10.7 8.2-19.6 8.2-12.2 0-22.2-7-22.2-19.9zm42.3-4.2v-3.3c-3.2-1.5-7.3-2.4-11.8-2.4-7.9 0-12.7 3.2-12.7 9v.2c0 5 4.1 7.9 10.1 7.9 8.5 0 14.4-4.8 14.4-11.4z"/><path d="m257.1 70.1v-30.8h-7.8v-15.8h7.8v-16.6h18.4v16.6h15.3v15.8h-15.3v27.7c0 4.2 1.8 6.3 5.9 6.3 3.4 0 6.4-.8 9.1-2.3v14.8c-3.9 2.3-8.4 3.8-14.5 3.8-11.3 0-18.9-4.5-18.9-19.5z"/><path d="m292.6 69.8v-.2c0-14.2 10.8-20.7 26.2-20.7 6.5 0 11.3 1.1 15.9 2.7v-1.1c0-7.6-4.7-11.9-13.9-11.9-7 0-12 1.3-17.9 3.5l-4.7-14.1c7.2-3.2 14.2-5.2 25.2-5.2 10.1 0 17.3 2.7 21.9 7.3 4.8 4.8 7 12 7 20.7v37.7h-17.8v-7c-4.5 5-10.7 8.2-19.6 8.2-12.2 0-22.3-7-22.3-19.9zm42.3-4.2v-3.3c-3.2-1.5-7.3-2.4-11.8-2.4-7.9 0-12.7 3.2-12.7 9v.2c0 5 4.1 7.9 10.1 7.9 8.6 0 14.4-4.8 14.4-11.4z"/><path d="m355.9 46.3v-.2c0-24.1 18.8-43.9 44.5-43.9 15.3 0 24.5 4.1 33.3 11.6l-11.8 14.2c-6.5-5.5-12.4-8.6-22.2-8.6-13.6 0-24.4 12-24.4 26.4v.2c0 15.5 10.7 26.9 25.7 26.9 6.8 0 12.8-1.7 17.6-5.1v-12h-18.8v-16.2h36.8v36.8c-8.7 7.4-20.7 13.5-36.2 13.5-26.3 0-44.5-18.5-44.5-43.6z"/><path d="m442.2 23.5h18.4v13.1c3.8-9 9.8-14.8 20.7-14.3v19.3h-1c-12.2 0-19.8 7.4-19.8 22.9v24h-18.4v-65z"/><path d="m485.7 0h19.4v16.4h-19.4zm.5 23.5h18.4v65h-18.4z"/><path d="m512.1 23.5h18.4v9.3c4.5-6.1 10.7-10.5 20.2-10.5 15.1 0 29.6 11.9 29.6 33.6v.2c0 21.7-14.2 33.6-29.6 33.6-9.8 0-15.9-4.5-20.2-9.7v27.9h-18.4zm49.8 32.6v-.2c0-10.8-7.3-17.9-15.9-17.9s-15.8 7.2-15.8 17.9v.2c0 10.8 7.2 17.9 15.8 17.9 8.7.1 15.9-7 15.9-17.9z"/></svg>