<svg xmlns="http://www.w3.org/2000/svg" width="615" height="109" fill="none" viewBox="0 0 615 109">
  <path fill="#000" d="M0 4H85V89H0V4Z"/>
  <path fill="#fff" d="M10.543 72.9795H42.4715V78.3009H10.543V72.9795Z"/>
  <path fill="#fff" d="M10.5713 14.4863H23.0589C33.1341 14.4863 40.0875 21.3971 40.0875 30.408V30.5074C40.0875 39.5183 33.1341 46.5142 23.0589 46.5142H10.5713V14.4863ZM17.6665 20.8437V40.1143H23.1157C24.3964 40.1918 25.6791 39.9982 26.88 39.5463C28.0809 39.0944 29.1729 38.3943 30.0849 37.4917C30.9969 36.5891 31.7082 35.5043 32.1725 34.3082C32.6368 33.1121 32.8436 31.8314 32.7794 30.5499V30.4648C32.8445 29.1785 32.6392 27.8929 32.1766 26.691C31.714 25.489 31.0044 24.3974 30.0937 23.4867C29.1831 22.576 28.0915 21.8665 26.8895 21.4039C25.6876 20.9413 24.4019 20.7359 23.1157 20.8011L17.6665 20.8437Z"/>
  <path fill="#fff" d="M43.4367 30.5927V30.5075C43.4171 28.3062 43.84 26.1235 44.6803 24.0888C45.5206 22.0541 46.7612 20.2091 48.3283 18.6631C49.8955 17.1171 51.7573 15.9018 53.8032 15.0892C55.8491 14.2767 58.0374 13.8835 60.2382 13.933C64.8483 13.693 69.3683 15.2727 72.8252 18.3321L68.3835 23.6819C66.1298 21.5381 63.1211 20.3703 60.0112 20.4323C57.479 20.543 55.0929 21.6484 53.3711 23.5083C51.6494 25.3683 50.7311 27.8325 50.8157 30.3656V30.4649C50.8157 36.3114 54.8458 40.6111 60.5078 40.6111C62.8621 40.6754 65.178 40.0059 67.1348 38.6954V34.1545H60.0395V28.0809H73.9462V41.9876C70.1446 45.2881 65.2726 47.0937 60.2382 47.0678C50.3049 47.0678 43.4367 40.1145 43.4367 30.5927V30.5927Z"/>
  <path fill="#000" d="M117 3.81494H150.135C176.841 3.81494 195.289 22.1348 195.289 46.0458V46.287C195.289 70.198 176.841 88.7733 150.135 88.7733H117V3.81494ZM135.689 20.6874V71.9008H150.135C165.432 71.9008 175.749 61.5844 175.749 46.5283V46.287C175.749 31.2451 165.432 20.7442 150.135 20.7442L135.689 20.6874Z"/>
  <path fill="#000" d="M197.446 70.0847V69.9144C197.446 55.7239 208.245 49.1537 223.67 49.1537C229.083 49.106 234.462 50.0089 239.563 51.8215V50.7289C239.563 43.0802 234.838 38.8372 225.614 38.8372C219.455 38.8418 213.354 40.0368 207.649 42.3565L203.037 28.2795C210.947 24.6478 219.58 22.862 228.282 23.0574C238.357 23.0574 245.637 25.7253 250.249 30.3372C255.102 35.1903 257.344 42.3565 257.344 51.0978V88.8445H239.45V81.7492C234.951 86.7159 228.764 89.9939 219.782 89.9939C207.521 89.9797 197.446 82.9413 197.446 70.0847V70.0847ZM239.804 65.8275V62.5495C236.098 60.9202 232.089 60.0932 228.04 60.123C220.151 60.123 215.269 63.2874 215.269 69.1055V69.3468C215.269 74.3276 219.398 77.2367 225.344 77.2367C233.986 77.2367 239.804 72.5113 239.804 65.8275Z"/>
  <path fill="#000" d="M270.087 70.326V39.4901H262.325V23.7103H270.087V7.09326H288.535V23.7103H303.832V39.4901H288.535V67.2893C288.535 71.5464 290.351 73.604 294.48 73.604C297.661 73.6323 300.796 72.8509 303.591 71.3335V86.1058C299.182 88.7014 294.131 90.0045 289.017 89.8663C277.736 89.8663 270.087 85.3679 270.087 70.326V70.326Z"/>
  <path fill="#000" d="M310.104 70.0844V69.9141C310.104 55.7236 320.903 49.1535 336.314 49.1535C341.732 49.1058 347.116 50.0088 352.221 51.8213V50.7286C352.221 43.0799 347.482 38.837 338.258 38.837C332.099 38.8429 325.999 40.0379 320.293 42.3562L315.667 28.2083C323.578 24.5794 332.21 22.7938 340.912 22.9862C350.987 22.9862 358.266 25.654 362.878 30.2659C367.746 35.1191 369.974 42.2853 369.974 51.0266V88.7733H352.094V81.678C347.609 86.6447 341.422 89.9227 332.44 89.9227C320.179 89.9795 310.104 82.941 310.104 70.0844V70.0844ZM352.463 65.8273V62.5493C348.752 60.9188 344.738 60.0918 340.684 60.1227C332.795 60.1227 327.913 63.2872 327.913 69.1053V69.3465C327.913 74.3274 332.043 77.2364 337.988 77.2364C346.63 77.2364 352.463 72.511 352.463 65.8273Z"/>
  <path fill="#000" d="M377.452 46.5286V46.2873C377.452 22.1635 396.269 2.29688 421.996 2.29688C437.293 2.29688 446.517 6.4263 455.372 13.9473L443.608 28.1377C437.052 22.6744 431.22 19.5241 421.4 19.5241C407.806 19.5241 396.992 31.5293 396.992 45.9752V46.2164C396.992 61.755 407.678 73.1783 422.734 73.1783C428.988 73.365 435.143 71.583 440.33 68.0839V56.0078H421.514V39.8591H458.409V76.7543C448.334 85.4935 435.432 90.2832 422.095 90.2353C395.659 90.2353 377.452 71.6599 377.452 46.5286V46.5286Z"/>
  <path fill="#000" d="M468.271 23.7102H486.719V36.8222C490.479 27.8396 496.553 22.0215 507.479 22.504V41.803H506.5C494.254 41.803 486.719 49.2104 486.719 64.7348V88.7735H468.271V23.7102Z"/>
  <path fill="#000" d="M516.249 0.167969H535.619V16.558H516.249V0.167969ZM516.731 23.71H535.179V88.7733H516.731V23.71Z"/>
  <path fill="#000" d="M545.765 23.7102H564.213V33.0191C568.697 26.9456 574.898 22.4614 584.477 22.4614C599.646 22.4614 614.092 34.353 614.092 56.0787V56.3199C614.092 78.0455 599.902 89.9371 584.477 89.9371C580.576 90.0146 576.711 89.177 573.192 87.4914C569.673 85.8059 566.597 83.3192 564.213 80.2309V108.229H545.765V23.7102ZM595.645 56.3483V56.107C595.645 45.3081 588.365 38.1419 579.751 38.1419C571.138 38.1419 564 45.3223 564 56.1212V56.3625C564 67.1614 571.095 74.3276 579.78 74.3276C588.464 74.3276 595.645 67.2891 595.645 56.3625V56.3483Z"/>
</svg>
