<svg xmlns="http://www.w3.org/2000/svg" width="264" height="64" fill="none" viewBox="0 0 264 64">
  <defs>
    <linearGradient id="a" x1="59.7777" x2="1.07287" y1="3.98196" y2="62.6868" gradientUnits="userSpaceOnUse">
      <stop offset=".28" stop-color="#7256FF"/>
      <stop offset=".66" stop-color="#00D980"/>
    </linearGradient>
    <linearGradient id="b" x1="64.7178" x2="39.4774" y1="56.3788" y2="1.93862" gradientUnits="userSpaceOnUse">
      <stop offset=".3" stop-color="#FF43F2"/>
      <stop offset=".54" stop-color="#7256FF"/>
    </linearGradient>
  </defs>
  <path fill="#fff" d="M102.814 18.93c-2.23-1.28-4.7599-1.93-7.5899-1.93h-11.23v29.96h11.24c2.83 0 5.3499-.64 7.5899-1.93 2.23-1.28 3.98-3.06 5.23-5.33 1.26-2.27 1.88-4.84 1.88-7.73 0-2.89-.63-5.46-1.88-7.73-1.25-2.27-3-4.04-5.23-5.33l-.01.02Zm.52 18.54c-.76 1.56-1.85 2.75-3.25 3.6-1.3999.85-3.0399 1.26-4.8899 1.26h-5.86V21.66h5.86c1.85 0 3.49.42 4.8899 1.26 1.4.84 2.49 2.04 3.25 3.6.76 1.56 1.14 3.38 1.14 5.48 0 2.1-.38 3.92-1.14 5.48v-.01Zm27.4-9.1c-.71-1.09-1.62-1.97-2.73-2.63-1.36-.8-2.95-1.2-4.76-1.2-1.95 0-3.7.49-5.23 1.47-1.53.98-2.74 2.34-3.61 4.09-.87 1.75-1.3 3.72-1.3 5.92 0 2.2.43 4.17 1.3 5.92.87 1.75 2.08 3.11 3.62 4.09s3.28 1.47 5.22 1.47c1.81 0 3.4-.4 4.76-1.2 1.11-.65 2.02-1.54 2.73-2.63v3.31h4.96V25.06h-4.96v3.31Zm-.82 11.27c-.53 1.05-1.26 1.87-2.2 2.46-.94.59-2.03.89-3.25.89-1.22 0-2.27-.29-3.21-.88-.94-.58-1.67-1.4-2.19-2.46s-.78-2.27-.78-3.64.26-2.58.78-3.63c.52-1.05 1.25-1.87 2.19-2.46.94-.59 2.01-.89 3.21-.89 1.2 0 2.31.3 3.25.89.94.59 1.68 1.41 2.2 2.46.53 1.05.79 2.26.79 3.63s-.26 2.58-.79 3.63Zm17.62-19.94h-4.71v3.55c0 .53-.17.96-.49 1.29-.33.34-.76.5-1.31.5h-2.4l-.02 4.39h3.85l.02 11.71c0 1.11.26 2.11.78 3 .52.88 1.25 1.58 2.18 2.08.93.5 1.99.75 3.16.75h4.73v-4.39h-3.72c-.6 0-1.1-.2-1.49-.59-.39-.39-.59-.89-.59-1.49l-.02-11.06h5.82l.02-4.39h-5.82V19.7h.01Zm25.04 8.67c-.71-1.09-1.62-1.97-2.73-2.63-1.36-.8-2.95-1.2-4.76-1.2-1.96 0-3.7.49-5.23 1.47-1.53.98-2.74 2.34-3.61 4.09-.87 1.75-1.31 3.72-1.31 5.92 0 2.2.44 4.17 1.31 5.92.87 1.75 2.08 3.11 3.62 4.09s3.28 1.47 5.22 1.47c1.81 0 3.4-.4 4.76-1.2 1.11-.65 2.02-1.54 2.73-2.63v3.31h4.97V25.06h-4.97v3.31Zm-.81 11.27c-.53 1.05-1.26 1.87-2.21 2.46-.94.59-2.03.89-3.25.89-1.22 0-2.27-.29-3.21-.88-.94-.58-1.67-1.4-2.19-2.46s-.78-2.27-.78-3.64.26-2.58.78-3.63c.52-1.05 1.25-1.87 2.19-2.46.94-.59 2.01-.89 3.21-.89 1.2 0 2.31.3 3.25.89.94.59 1.68 1.41 2.21 2.46s.79 2.26.79 3.63-.26 2.58-.79 3.63Zm27.48-4.1h7.19c-.12 1.27-.53 2.42-1.26 3.46-.81 1.15-1.91 2.04-3.29 2.69-1.38.64-2.92.96-4.63.96-1.84 0-3.51-.46-5-1.38-1.49-.92-2.66-2.19-3.5-3.81-.84-1.62-1.26-3.44-1.26-5.47s.42-3.85 1.26-5.47c.84-1.62 2.01-2.89 3.5-3.81 1.49-.92 3.16-1.38 5-1.38 1.25 0 2.42.19 3.5.58 1.08.39 2.02.94 2.84 1.67.81.73 1.46 1.59 1.95 2.59h5.71c-.56-1.93-1.5-3.62-2.85-5.07-1.34-1.46-2.97-2.59-4.9-3.39-1.93-.81-4.02-1.21-6.29-1.21-2.85 0-5.43.67-7.74 2.02-2.3 1.35-4.12 3.2-5.44 5.56-1.32 2.36-1.98 5-1.98 7.91s.66 5.55 1.98 7.91c1.32 2.36 3.13 4.22 5.44 5.56 2.3 1.35 4.88 2.02 7.74 2.02 2.86 0 5.17-.61 7.37-1.82s3.93-2.87 5.19-4.99c1.26-2.11 1.88-4.48 1.88-7.11v-2.31h-12.41v4.29Zm23.64-9.43c-.83.57-1.53 1.33-2.1 2.26v-3.32h-5.01v21.92h5.05V35.14c0-1.06.22-1.97.67-2.74.45-.77 1.09-1.36 1.93-1.78.83-.41 1.82-.62 2.94-.62h1.41v-5.09h-.81c-1.56 0-2.92.4-4.09 1.21l.01-.01Zm7.77 20.86h5.05V25.05h-5.05v21.92Zm-.36-24.23h5.76v-5.01h-5.76v5.01Zm31.66 7.35c-.87-1.75-2.07-3.11-3.61-4.09-1.53-.98-3.28-1.47-5.23-1.47-1.8 0-3.38.4-4.75 1.2-1.17.68-2.1 1.62-2.82 2.78v-3.47h-4.94V53.8h5.05V43.66c.71 1.08 1.6 1.96 2.71 2.6 1.36.8 2.95 1.2 4.76 1.2 1.94 0 3.68-.49 5.22-1.47 1.54-.98 2.75-2.34 3.62-4.09.87-1.75 1.3-3.72 1.3-5.92 0-2.2-.43-4.17-1.3-5.92l-.01.03Zm-4.65 9.55c-.52 1.05-1.25 1.87-2.19 2.46-.94.59-2.01.89-3.21.89-1.2 0-2.31-.29-3.25-.88-.94-.58-1.68-1.4-2.2-2.46-.53-1.06-.79-2.27-.79-3.64s.26-2.58.79-3.63c.53-1.05 1.26-1.87 2.2-2.46.94-.59 2.03-.89 3.25-.89 1.22 0 2.27.3 3.21.89.94.59 1.67 1.41 2.19 2.46s.78 2.26.78 3.63-.26 2.58-.78 3.63Z"/>
  <path fill="url(#a)" d="M4.07273 64H38.041c1.6291 0 3.1017-.9711 3.7434-2.4681l16.0681-37.4906c.217-.5068.3293-1.0531.3293-1.6046V4.07273C58.1818 1.82342 56.3584 0 54.1091 0h-17.966c-.8046 0-1.5912.238545-2.2609.685382L1.81353 22.0881C.681309 22.8439.001745 24.1146.001745 25.4755L0 59.9273C0 62.1766 1.82342 64 4.07273 64Z"/>
  <path fill="url(#b)" d="M49.4812 58.1818h10.4465c2.2493 0 4.0727-1.8234 4.0727-4.0727V41.0164c0-.1925-.0139-.3851-.0407-.576L58.682 3.49673C58.3952 1.49004 56.6771 0 54.65 0H38.977c-2.2499 0-4.0733 1.824-4.0727 4.07389l.0047 18.53851c0 .4375.0704.8721.2088 1.2869l10.4995 31.4979c.5545 1.6629 2.1109 2.7846 3.8639 2.7846Z"/>
  <path fill="#FF43F2" d="m48.0512 58.1839 11.8755-.0017c2.2493 0 4.0721-1.8234 4.0721-4.0727V42.6029c0-1.1887-.5196-2.3186-1.422-3.0924L24.4154 6.80068c-.7383-.63244-1.6786-.98037-2.6508-.98037H9.88913c-2.24931 0-4.07272 1.82342-4.07272 4.07273V21.4014c0 1.1887.51956 2.3185 1.42196 3.0924L45.3992 57.203c.7384.633 1.6786.9804 2.6514.9804l.0006.0005Z"/>
  <path fill="#000" d="M52 12H12v40h40V12Z"/>
  <path fill="#fff" fill-rule="evenodd" d="M22.751 17.368h-5.7569v15.1222h5.7569c1.4327 0 2.7144-.3241 3.8451-.9721 1.1376-.6481 2.027-1.5444 2.6681-2.6895.6405-1.1521.9611-2.4523.9611-3.8995s-.3206-2.7433-.9611-3.8885c-.6411-1.152-1.5305-2.0524-2.6681-2.7005-1.1307-.648-2.4124-.9721-3.8451-.9721Zm2.3331 11.968c-.677.4033-1.4651.6047-2.3655.6047l-2.7757.0006V19.9175h2.7757c.8998 0 1.6885.2008 2.3655.6047.677.4033 1.1989.9825 1.5664 1.7388.3674.7493.5508 1.6381.5508 2.6681s-.1834 1.9222-.5508 2.6785c-.3675.7494-.8894 1.3245-1.5664 1.7284Z" clip-rule="evenodd"/>
  <path fill="#fff" d="M35.3272 31.7339c1.174.6764 2.4846 1.0155 3.9318 1.0155 1.3899 0 2.6427-.3096 3.7589-.9293 1.1231-.6197 2.0055-1.4651 2.6461-2.5385.6481-1.0797.9721-2.2856.9721-3.6182v-1.1879h-6.405v2.322h3.5161c-.0722.5605-.2757 1.0719-.6107 1.534-.3958.5468-.9322.9762-1.6092 1.2852-.6701.3095-1.4188.4646-2.2469.4646-.8928 0-1.6989-.2228-2.4193-.6695-.7204-.4467-1.2857-1.0583-1.696-1.836-.4027-.7841-.6046-1.6671-.6046-2.6461 0-.9791.2013-1.858.6046-2.6357.4109-.7847.9762-1.4003 1.696-1.847.7199-.4467 1.5265-.6695 2.4193-.6695.6053 0 1.1706.0972 1.696.2916.526.1875.9831.4577 1.372.8101.3963.3455.7094.7563.9397 1.2314h3.1541c-.2736-.9866-.7528-1.8575-1.4367-2.6138-.677-.7562-1.5126-1.3436-2.5061-1.7608-.9866-.4172-2.0663-.6266-3.2404-.6266-1.4477 0-2.7578.3414-3.9318 1.0259-1.1741.6764-2.0959 1.6132-2.7653 2.8081-.6695 1.188-1.0046 2.5165-1.0046 3.9857 0 1.4692.3351 2.8018 1.0046 3.9967.67 1.1879 1.5918 2.1236 2.7653 2.8081Z"/>
  <path fill="#fff" d="M16.9941 44.0037h16v3h-16v-3Z"/>
</svg>
