<svg xmlns="http://www.w3.org/2000/svg" width="70" height="70" fill="none" viewBox="0 0 70 70">
  <defs>
    <linearGradient id="a" x1="64.0842" x2="66.1312" y1="26.3353" y2="44.1564" gradientUnits="userSpaceOnUse">
      <stop offset="0.1599" stop-color="#21D789"/>
      <stop offset="0.5402" stop-color="#419FBC"/>
      <stop offset="1" stop-color="#6B57FF"/>
    </linearGradient>
    <linearGradient id="b" x1="45.4665" x2="50.6442" y1="18.6845" y2="5.43914" gradientUnits="userSpaceOnUse">
      <stop offset="0" stop-color="#6B57FF"/>
      <stop offset="0.9516" stop-color="#21D789"/>
    </linearGradient>
    <linearGradient id="c" x1="16.8596" x2="21.8877" y1="35.3395" y2="57.2477" gradientUnits="userSpaceOnUse">
      <stop offset="0" stop-color="#6B57FF"/>
      <stop offset="0.0219079" stop-color="#685CFB"/>
      <stop offset="0.281" stop-color="#4A91CA"/>
      <stop offset="0.5057" stop-color="#34B7A7"/>
      <stop offset="0.6853" stop-color="#26CE91"/>
      <stop offset="0.7971" stop-color="#21D789"/>
    </linearGradient>
    <linearGradient id="d" x1="4.36042" x2="65.6997" y1="35.0079" y2="68.8753" gradientUnits="userSpaceOnUse">
      <stop offset="0.0752688" stop-color="#21D789"/>
      <stop offset="0.8874" stop-color="#6B57FF"/>
    </linearGradient>
    <linearGradient id="e" x1="4.73477" x2="66.3808" y1="26.8405" y2="26.8405" gradientUnits="userSpaceOnUse">
      <stop offset="0.3086" stop-color="#21D789"/>
      <stop offset="0.4871" stop-color="#59A3B2"/>
      <stop offset="0.7668" stop-color="#B74AF7"/>
      <stop offset="1" stop-color="#FF45ED"/>
    </linearGradient>
  </defs>
  <path fill="url(#a)" d="M65.5521 10.8646L70 39.5208L61.7604 44.3333L56.5 26.5L65.5521 10.8646Z"/>
  <path fill="url(#b)" d="M65.5521 10.8646L40.4687 0L33.4688 5.83333L45 17L65.5521 10.8646Z"/>
  <path fill="url(#c)" d="M47.3229 70L11 30.5L0.583313 62.4896L47.3229 70Z"/>
  <path fill="url(#d)" d="M54.5 45L0 32.3021L47.3229 70L54.5 45Z"/>
  <path fill="url(#e)" d="M0 0.510406V32.3021L60.7396 53.1562L65.5521 10.8646L0 0.510406Z"/>
  <g>
    <path fill="#000000" d="M56 14H14V56H56V14Z"/>
    <path fill="#FFFFFF" d="M34.4166 48.6499H18.6666V51.3333H34.4166V48.6499Z"/>
    <path fill="#FFFFFF" d="M35.8 27.224C35.8 22.6811 39.3191 18.97 44.118 18.97C46.9973 18.97 48.6608 19.7378 50.3244 21.1455L48.149 23.8328C46.9333 22.8091 45.8455 22.2332 43.99 22.2332C41.4306 22.2332 39.4471 24.4727 39.4471 27.16V27.224C39.4471 30.1033 41.4306 32.2148 44.2459 32.2148C45.5256 32.2148 46.6133 31.8948 47.5091 31.255V29.0155H43.99V26.0083H50.8363V32.8546C49.3007 34.2623 47.0612 35.35 44.1819 35.35C39.1912 35.35 35.8 31.8948 35.8 27.224Z"/>
    <path fill="#FFFFFF" d="M18.5 19.1334H24.6833C29.7 19.1334 33.0833 22.4876 33.0833 26.8828C33.0833 31.2779 29.7 34.7478 24.6833 34.7478L18.5 34.8634V19.1334ZM22 22.2563V31.7406H24.6833C27.4833 31.7406 29.4667 29.89 29.4667 27.1141C29.4667 24.3382 27.6 22.372 24.6833 22.372L22 22.2563Z"/>
  </g>
</svg>
