<svg enable-background="new 0 0 70 70" height="70" viewBox="0 0 70 70" width="70" xmlns="http://www.w3.org/2000/svg" xmlns:xlink="http://www.w3.org/1999/xlink"><linearGradient id="a" gradientTransform="matrix(1 0 0 -1 0 72)" gradientUnits="userSpaceOnUse" x1="41.0685" x2="46.5206" y1="54.3573" y2="67.9443"><stop offset="0" stop-color="#9775f8"/><stop offset=".9516" stop-color="#22d88f"/></linearGradient><linearGradient id="b" gradientTransform="matrix(1 0 0 -1 0 72)" gradientUnits="userSpaceOnUse" x1="17.0673" x2="24.1462" y1="35.739" y2="4.8951"><stop offset="0" stop-color="#9775f8"/><stop offset=".2142" stop-color="#689cce"/><stop offset=".423" stop-color="#42bdac"/><stop offset=".5897" stop-color="#2bd197"/><stop offset=".6935" stop-color="#22d88f"/></linearGradient><linearGradient id="c" gradientTransform="matrix(1 0 0 -1 0 72)" gradientUnits="userSpaceOnUse" x1="4.9" x2="66.2394" y1="37.9694" y2="4.1019"><stop offset=".07526882" stop-color="#22d88f"/><stop offset=".7204" stop-color="#9775f8"/></linearGradient><linearGradient id="d" gradientTransform="matrix(1 0 0 -1 0 72)" gradientUnits="userSpaceOnUse" x1="0" x2="61.646" y1="45.15" y2="45.15"><stop offset=".07526882" stop-color="#22d88f"/><stop offset=".2658" stop-color="#5ab0b4"/><stop offset=".5645" stop-color="#b86cf2"/><stop offset="1" stop-color="#ff59e6"/></linearGradient><path d="m65.5 10.9 4.5 28.6-17 9.9-3.2-16.2z" fill="#9775f8"/><path d="m65.5 10.9-25-10.9-21.1 17.5 30.4 15.7z" fill="url(#a)"/><path d="m47.3 70-29.3-39.4-8.7 5.8-8.7 26.1z" fill="url(#b)"/><path d="m52.8 50.1-20.5-13.5-32.3-4.3 47.3 37.7z" fill="url(#c)"/><path d="m0 .5v31.8l60.8 20.9 4.7-42.3z" fill="url(#d)"/><path d="m13.4 13.4h43.2v43.2h-43.2z"/><g fill="#fff"><path d="m17.8 19h7c5.6 0 9.5 3.9 9.5 8.9v.1c0 5-3.9 8.9-9.5 8.9h-7zm3.9 3.6v10.8h3c3.2 0 5.4-2.2 5.4-5.3v-.1c0-3.2-2.2-5.4-5.4-5.4z"/><path d="m35 28c0-5.1 4-9.3 9.4-9.3 3.2 0 5.2.9 7 2.5l-2.5 3c-1.4-1.2-2.6-1.8-4.7-1.8-2.9 0-5.1 2.5-5.1 5.6 0 3.3 2.2 5.7 5.4 5.7 1.4 0 2.7-.4 3.7-1.1v-2.6h-4v-3.4h7.8v7.8c-1.8 1.6-4.4 2.8-7.6 2.8-5.6 0-9.4-3.9-9.4-9.2z"/><path d="m17.4 48.5h16.2v2.7h-16.2z"/></g></svg>