<svg xmlns="http://www.w3.org/2000/svg" width="128" height="128" fill="none" viewBox="0 0 128 128">
  <defs>
    <linearGradient id="a" x1="119.352" x2="2.16" y1="8.13375" y2="125.326" gradientUnits="userSpaceOnUse">
      <stop offset=".28" stop-color="#7256FF"/>
      <stop offset=".66" stop-color="#00D980"/>
    </linearGradient>
    <linearGradient id="b" x1="128.782" x2="79.2148" y1="112.659" y2="5.74875" gradientUnits="userSpaceOnUse">
      <stop offset=".3" stop-color="#FF43F2"/>
      <stop offset=".54" stop-color="#7256FF"/>
    </linearGradient>
  </defs>
  <path fill="url(#a)" d="M8.25 128h68.255c3.3162 0 6.31-1.986 7.6-5.041L115.7 48.1162c.437-1.0362.659-2.1512.649-3.2762l-.3-36.6575c-.038-4.53-3.72-8.1825-8.25-8.1825H72.4675c-1.6113 0-3.1863.47125-4.5325 1.35625L3.71875 43.5737C1.3975 45.1 0 47.69 0 50.4675V119.75c0 4.556 3.69375 8.25 8.25 8.25Z"/>
  <path fill="url(#b)" d="M98.0261 116H119.75c4.556 0 8.25-3.694 8.25-8.25V82.6188c0-.4-.029-.8-.088-1.1963L117.016 7.05375C116.422 3.0025 112.947 0 108.854 0H78.0586c-4.5575 0-8.2513 3.695-8.25 8.2525l.0087 37.0087c0 .8513.1325 1.6975.3913 2.5075L90.1661 110.26c1.0925 3.419 4.27 5.74 7.8587 5.74h.0013Z"/>
  <path fill="#FF43F2" d="M95.1 116h24.518c4.607 0 8.322-3.774 8.248-8.381L127.999 86c-.038-2.3625-1.571-5.0625-3.365-6.6L48.3175 13.9862C46.8225 12.705 44.9175 12 42.9487 12H20.25C15.6937 12 12 15.6937 12 20.25v22.0062c0 2.3788 1.0275 4.6426 2.8175 6.2088l74.85 65.494C91.1713 115.275 93.1012 116 95.1 116Z"/>
  <path fill="#000" d="M104 24H24v80h80V24Z"/>
  <path fill="#fff" d="M66 88H34v6h32v-6Z"/>
  <path fill="#fff" d="M34.0254 33.9844h11.4262c2.8438 0 5.3913.6425 7.6425 1.9287 2.2513 1.2863 4.0125 3.0688 5.2838 5.3488 1.2725 2.28 1.9075 4.855 1.9075 7.7287 0 2.8738-.6363 5.4488-1.9075 7.7288-1.2725 2.28-3.0338 4.0625-5.2838 5.3487-2.2512 1.2863-4.7987 1.9288-7.6425 1.9288H34.0254V33.9844Zm16.0562 23.7525c1.3438-.8 2.38-1.9475 3.1088-3.4413.7287-1.4937 1.0937-3.2612 1.0937-5.3062 0-2.045-.365-3.8125-1.0937-5.3063-.7288-1.4937-1.765-2.64-3.1088-3.4412-1.3437-.8-2.9087-1.2-4.695-1.2h-5.51v19.8937h5.51c1.7863 0 3.3513-.4 4.695-1.2v.0013Z"/>
  <path fill="#fff" d="M70.8543 62.485c-2.33-1.35-4.1588-3.2087-5.4875-5.5737-1.3288-2.365-1.9938-5.005-1.9938-7.9213 0-2.9162.665-5.5563 1.9938-7.9213 1.3287-2.365 3.1587-4.2237 5.4875-5.5737 2.3287-1.35 4.9312-2.0262 7.8037-2.0262 2.3288 0 4.4763.415 6.4425 1.2437 1.965.8288 3.6225 1.9937 4.9738 3.4937 1.3512 1.5 2.2975 3.23 2.84 5.1875h-6.26c-.4575-.9437-1.075-1.7612-1.8538-2.4549-.7787-.6925-1.69-1.2288-2.7337-1.6076-1.0438-.3787-2.165-.5674-3.3663-.5674-1.7725 0-3.3725.4424-4.8025 1.3287-1.4287.8862-2.5475 2.105-3.355 3.655-.8075 1.5513-1.2112 3.2975-1.2112 5.2413 0 1.9437.4037 3.6912 1.2112 5.2412.8075 1.5512 1.9263 2.7687 3.355 3.655 1.4288.8862 3.03 1.3287 4.8025 1.3287 1.6438 0 3.1338-.3075 4.47-.9225 1.3363-.6137 2.3975-1.4649 3.1838-2.5512.7862-1.0862 1.2075-2.3075 1.265-3.6663l.0212.6213H80.588v-4.6087h12.7125v2.3587c0 2.6437-.64 5.035-1.9187 7.1712-1.2788 2.1363-3.03 3.8201-5.2525 5.0488-2.2225 1.2288-4.7125 1.8437-7.4713 1.8437-2.7587 0-5.4737-.6749-7.8037-2.0262v.0025Z"/>
  <path fill="#FDB60D" d="M112.377 128H47.623A15.622 15.622 0 0 1 32 112.377V95.623A15.623 15.623 0 0 1 47.623 80h64.754A15.622 15.622 0 0 1 128 95.623v16.754A15.62 15.62 0 0 1 112.377 128Z"/>
  <path fill="#000" d="M49.825 93.512h16.477v4.277H54.6v4.431h10.3v4.275H54.6v4.588h11.86v4.275H49.825V93.512Zm28.398-.154h4.431l9.362 22h-5.024l-1.997-4.899h-9.237l-1.997 4.899h-4.899l9.36-22Zm5.057 12.857-2.904-7.085-2.901 7.085h5.805Zm12.107-12.703h8.926c5.211 0 8.363 3.09 8.363 7.552v.063c0 5.055-3.932 7.678-8.83 7.678h-3.652v6.553h-4.807V93.512ZM104 104.53a3.382 3.382 0 0 0 3.807-3.308v-.063c0-2.152-1.497-3.308-3.901-3.308h-3.712v6.679H104Z"/>
</svg>
