<svg height="70" viewBox="0 0 70 70" width="70" xmlns="http://www.w3.org/2000/svg" xmlns:xlink="http://www.w3.org/1999/xlink"><linearGradient id="a" gradientUnits="userSpaceOnUse" x1="41.08629" x2="46.5384" y1="17.64979" y2="4.06277"><stop offset="0" stop-color="#9775f8"/><stop offset=".95161" stop-color="#22d88f"/></linearGradient><linearGradient id="b" gradientUnits="userSpaceOnUse" x1="17.07095" x2="24.14989" y1="36.26017" y2="67.10412"><stop offset="0" stop-color="#9775f8"/><stop offset=".21423" stop-color="#689cce"/><stop offset=".42298" stop-color="#42bdac"/><stop offset=".58968" stop-color="#2bd197"/><stop offset=".69355" stop-color="#22d88f"/></linearGradient><linearGradient id="c" gradientUnits="userSpaceOnUse" x1="4.89311" x2="66.23245" y1="34.04309" y2="67.91054"><stop offset=".07527" stop-color="#22d88f"/><stop offset=".72043" stop-color="#9775f8"/></linearGradient><linearGradient id="d" gradientUnits="userSpaceOnUse" x2="61.64602" y1="26.84047" y2="26.84047"><stop offset=".07527" stop-color="#22d88f"/><stop offset=".26582" stop-color="#5ab0b4"/><stop offset=".56452" stop-color="#b86cf2"/><stop offset="1" stop-color="#ff59e6"/></linearGradient><path d="m65.536 10.882 4.464 28.651-16.967 9.876-3.273-16.246z" fill="#9775f8"/><path d="m65.536 10.882-25.063-10.882-21.049 17.471 30.336 15.692z" fill="url(#a)"/><path d="m47.302 70-29.253-39.438-8.774 5.858-8.669 26.085z" fill="url(#b)"/><path d="m52.8 50.126-20.5-13.492-32.3-4.323 47.302 37.689z" fill="url(#c)"/><path d="m0 .496v31.815l60.75 20.874 4.786-42.303z" fill="url(#d)"/><path d="m14 14h42v42h-42z"/><g fill="#fff"><path d="m17.98999 48.125h15.75v2.625h-15.75z"/><path d="m18.24848 19.44564h6.783c5.46611 0 9.24268 3.75184 9.24268 8.6466v.04965c0 4.89455-3.77657 8.69605-9.24268 8.69605h-6.783zm3.82632 3.45375v10.485h2.95667a4.95582 4.95582 0 0 0 5.24253-5.19285v-.04965a4.995 4.995 0 0 0 -5.24249-5.2425z"/><path d="m34.95154 28.19154v-.04965a8.92679 8.92679 0 0 1 9.11846-8.99434 9.54921 9.54921 0 0 1 6.83264 2.38532l-2.41 2.90682a6.40427 6.40427 0 0 0 -4.54682-1.76391 5.22382 5.22382 0 0 0 -4.99405 5.41646v.04965a5.211 5.211 0 0 0 5.26732 5.51576 6.10564 6.10564 0 0 0 3.6027-1.04362v-2.48461h-3.85118v-3.30442h7.55323v7.55314a11.2887 11.2887 0 0 1 -7.429 2.75788c-5.41648-.00002-9.1433-3.80129-9.1433-8.94448z"/></g><path d="m37 53h33v17h-33z" fill="#d99e2b"/><path d="m40.05563 66.966h7.19661v-1.72329h-5.50724v-2.94521h4.82041v-1.72325h-4.82041v-2.85131h5.43874v-1.72325h-7.12811z"/><path d="m48.15627 66.966h1.86832l1.06757-2.6268h4.9082l1.05281 2.6268h1.9277l-4.5671-10.95841h-1.6904zm3.60316-4.321 1.77945-4.35241 1.79421 4.35241z"/><path d="m59.87536 66.966h1.62869v-3.52491h1.84026a3.50288 3.50288 0 0 0 3.70715-3.74426v-.03124a3.3623 3.3623 0 0 0 -3.52185-3.6659h-3.65425zm1.62869-5.26364v-3.94818h1.89333a1.80657 1.80657 0 0 1 1.99894 1.95836v.03146a1.86935 1.86935 0 0 1 -1.99894 1.95836z"/><path d="m37 53h33v17h-33z" fill="#d99e2b"/><path d="m40.05563 66.966h7.19661v-1.72329h-5.50724v-2.94521h4.82041v-1.72325h-4.82041v-2.85131h5.43874v-1.72325h-7.12811z"/><path d="m48.15627 66.966h1.86832l1.06757-2.6268h4.9082l1.05281 2.6268h1.9277l-4.5671-10.95841h-1.6904zm3.60316-4.321 1.77945-4.35241 1.79421 4.35241z"/><path d="m59.87536 66.966h1.62869v-3.52491h1.84026a3.50285 3.50285 0 0 0 3.70715-3.74426v-.03124a3.36233 3.36233 0 0 0 -3.52185-3.6659h-3.65425zm1.62869-5.26364v-3.94818h1.89333a1.80658 1.80658 0 0 1 1.99894 1.95836v.03146a1.86938 1.86938 0 0 1 -1.99894 1.95836z"/></svg>