<svg version="1.0" id="Layer_1" xmlns="http://www.w3.org/2000/svg" xmlns:xlink="http://www.w3.org/1999/xlink" x="0px" y="0px"
	 viewBox="0 0 580.3 107.9" enable-background="new 0 0 580.3 107.9" xml:space="preserve">
<g>
	<g>
		<g>
			<rect y="3.8" fill="#000000" width="85" height="85"/>
			<rect x="7.9" y="72.9" fill="#FFFFFF" width="31.9" height="5.3"/>
		</g>
	</g>
	<g>
		<g>
			<path fill="#FFFFFF" d="M7.9,14.4h8.3c6.7,0,11.3,4.6,11.3,10.6V25c0,6-4.6,10.6-11.3,10.6H7.9V14.4z M12.6,18.6v12.8h3.6
				c3.8,0,6.4-2.6,6.4-6.3V25c0-3.8-2.6-6.4-6.4-6.4H12.6z"/>
			<path fill="#FFFFFF" d="M28.3,25L28.3,25c0-6.1,4.7-11,11.1-11c3.8,0,6.1,1,8.3,2.9l-2.9,3.5c-1.6-1.4-3.1-2.2-5.6-2.2
				c-3.4,0-6.1,3-6.1,6.6V25c0,3.9,2.7,6.7,6.4,6.7c1.7,0,3.2-0.4,4.4-1.3v-3h-4.7v-4h9.2v9.2c-2.2,1.9-5.2,3.4-9.1,3.4
				C32.8,36,28.3,31.3,28.3,25z"/>
		</g>
	</g>
	<g>
		<path d="M111.8,3.6h33.1c26.7,0,45.1,18.3,45.1,42.2v0.2c0,23.9-18.4,42.4-45.1,42.4h-33.1V3.6z M130.4,20.5v51.1
			h14.4c15.3,0,25.6-10.3,25.6-25.3v-0.2c0-15-10.3-25.6-25.6-25.6H130.4z"/>
		<path d="M188.9,69.8v-0.2c0-14.2,10.8-20.7,26.2-20.7c6.5,0,11.3,1.1,15.9,2.7v-1.1c0-7.6-4.7-11.9-13.9-11.9
			c-7,0-12,1.3-17.9,3.5L194.4,28c7.2-3.2,14.2-5.2,25.2-5.2c10.1,0,17.3,2.7,21.9,7.3c4.8,4.8,7,12,7,20.7v37.7h-17.8v-7
			c-4.5,5-10.7,8.2-19.6,8.2C198.9,89.7,188.9,82.7,188.9,69.8z M231.2,65.6v-3.3c-3.2-1.5-7.3-2.4-11.8-2.4c-7.9,0-12.7,3.2-12.7,9
			v0.2c0,5,4.1,7.9,10.1,7.9C225.3,77,231.2,72.2,231.2,65.6z"/>
		<path d="M257.1,70.1V39.3h-7.8V23.5h7.8V6.9h18.4v16.6h15.3v15.8h-15.3V67c0,4.2,1.8,6.3,5.9,6.3
			c3.4,0,6.4-0.8,9.1-2.3v14.8c-3.9,2.3-8.4,3.8-14.5,3.8C264.7,89.6,257.1,85.1,257.1,70.1z"/>
		<path d="M292.6,69.8v-0.2c0-14.2,10.8-20.7,26.2-20.7c6.5,0,11.3,1.1,15.9,2.7v-1.1c0-7.6-4.7-11.9-13.9-11.9
			c-7,0-12,1.3-17.9,3.5L298.2,28c7.2-3.2,14.2-5.2,25.2-5.2c10.1,0,17.3,2.7,21.9,7.3c4.8,4.8,7,12,7,20.7v37.7h-17.8v-7
			c-4.5,5-10.7,8.2-19.6,8.2C302.7,89.7,292.6,82.7,292.6,69.8z M334.9,65.6v-3.3c-3.2-1.5-7.3-2.4-11.8-2.4c-7.9,0-12.7,3.2-12.7,9
			v0.2c0,5,4.1,7.9,10.1,7.9C329.1,77,334.9,72.2,334.9,65.6z"/>
		<path d="M355.9,46.3v-0.2c0-24.1,18.8-43.9,44.5-43.9c15.3,0,24.5,4.1,33.3,11.6L421.9,28
			c-6.5-5.5-12.4-8.6-22.2-8.6c-13.6,0-24.4,12-24.4,26.4v0.2c0,15.5,10.7,26.9,25.7,26.9c6.8,0,12.8-1.7,17.6-5.1V55.8h-18.8V39.6
			h36.8v36.8c-8.7,7.4-20.7,13.5-36.2,13.5C374.1,89.9,355.9,71.4,355.9,46.3z"/>
		<path d="M442.2,23.5h18.4v13.1c3.8-9,9.8-14.8,20.7-14.3v19.3h-1c-12.2,0-19.8,7.4-19.8,22.9v24h-18.4V23.5z"/>
		<path d="M485.7,0h19.4v16.4h-19.4V0z M486.2,23.5h18.4v65h-18.4V23.5z"/>
		<path d="M512.1,23.5h18.4v9.3c4.5-6.1,10.7-10.5,20.2-10.5c15.1,0,29.6,11.9,29.6,33.6v0.2
			c0,21.7-14.2,33.6-29.6,33.6c-9.8,0-15.9-4.5-20.2-9.7v27.9h-18.4V23.5z M561.9,56.1v-0.2c0-10.8-7.3-17.9-15.9-17.9
			c-8.6,0-15.8,7.2-15.8,17.9v0.2c0,10.8,7.2,17.9,15.8,17.9C554.7,74.1,561.9,67,561.9,56.1z"/>
	</g>
</g>
</svg>
