<svg xmlns="http://www.w3.org/2000/svg" width="128" height="128" fill="none" viewBox="0 0 128 128">
  <defs>
    <linearGradient id="a" gradientUnits="userSpaceOnUse" x1="8.135" x2="125.327" y1="8.64626" y2="125.839">
      <stop offset=".29" stop-color="#009ae5"/>
      <stop offset=".7" stop-color="#00d980"/>
    </linearGradient>
    <linearGradient id="b" gradientUnits="userSpaceOnUse" x1="112.659" x2="5.74875" y1="-.781255" y2="48.7862">
      <stop offset=".3" stop-color="#ff2d90"/>
      <stop offset=".54" stop-color="#009ae5"/>
    </linearGradient>
  </defs>
  <path d="m128 119.748v-68.2555c0-3.3162-1.986-6.31-5.041-7.6l-74.8428-31.595c-1.0362-.4375-2.1512-.6587-3.2762-.6487l-36.6575.3c-4.53.0362-8.1825 3.7187-8.1825 8.2487v35.3313c0 1.6112.47125 3.1862 1.35625 4.5325l42.21745 64.2187c1.525 2.321 4.1163 3.718 6.8938 3.718h69.2825c4.556 0 8.25-3.694 8.25-8.25z"
        fill="url(#a)"/>
  <path d="m116 29.975v-21.725c0-4.55625-3.694-8.25-8.25-8.25h-25.1312c-.4 0-.8.02875-1.1963.0875l-74.36875 10.8963c-4.05125.5937-7.05375 4.0687-7.05375 8.1624v30.795c0 4.5575 3.695 8.2513 8.2525 8.25l37.0087-.0087c.8513 0 1.6975-.1325 2.5075-.3913l62.4913-19.9574c3.419-1.0925 5.74-4.27 5.74-7.8588z"
        fill="url(#b)"/>
  <path d="m116 32.8978v-24.51749c0-4.6075-3.774-8.322497-8.381-8.248747l-21.6102-.12375c-2.3625.037499-5.0713 1.562497-6.6088 3.356247l-65.4138 76.31624c-1.2812 1.495-1.9862 3.4-1.9862 5.3688v22.6989c0 4.556 3.6937 8.25 8.25 8.25h22.0062c2.3788 0 4.6426-1.028 6.2088-2.818l65.494-74.8497c1.316-1.5037 2.041-3.4337 2.041-5.4325z"
        fill="#ff2d90"/>
  <path d="m104 24h-80v80h80z" fill="#000"/>
  <path d="m66 88h-32v6h32z" fill="#fff"/>
  <path d="m41.493 62.485c-2.33-1.35-4.1588-3.2087-5.4875-5.5737-1.3288-2.365-1.9938-5.005-1.9938-7.9213 0-2.9162.665-5.5563 1.9938-7.9213 1.3287-2.365 3.1587-4.2237 5.4875-5.5737 2.3287-1.35 4.9312-2.0262 7.8037-2.0262 2.43 0 4.6588.4499 6.6888 1.3499 2.0287.9 3.72 2.1613 5.07 3.7838s2.2537 3.4838 2.7112 5.585h-6.1312c-.4-1.0862-.9963-2.04-1.79-2.8625-.7938-.8212-1.7475-1.4537-2.8625-1.8975-1.115-.4425-2.33-.665-3.6438-.665-1.7725 0-3.3725.4425-4.8025 1.3288-1.4287.8862-2.5475 2.105-3.355 3.655-.8075 1.5512-1.2112 3.2974-1.2112 5.2412 0 1.9437.4037 3.6912 1.2112 5.2412.8075 1.5513 1.9263 2.7688 3.355 3.6551 1.4288.8862 3.03 1.3287 4.8025 1.3287 1.315 0 2.53-.2212 3.6438-.665 1.115-.4425 2.0687-1.075 2.8625-1.8975.7937-.8212 1.39-1.7763 1.79-2.8625h6.1312c-.4575 2.1012-1.3612 3.9625-2.7112 5.585s-3.0413 2.8838-5.07 3.7837c-2.03.9-4.2588 1.3501-6.6888 1.3501-2.8725 0-5.4737-.6751-7.8037-2.0263z"
        fill="#fff"/>
  <path d="m74.6562 33.9844v24.7387h14.235v5.2738h-20.065v-30.0125h5.8312z" fill="#fff"/>
  <path fill="#FDB60D" d="M112.377 128H47.623A15.622 15.622 0 0 1 32 112.377V95.623A15.623 15.623 0 0 1 47.623 80h64.754A15.622 15.622 0 0 1 128 95.623v16.754A15.62 15.62 0 0 1 112.377 128Z"/>
  <path fill="#000" d="M49.825 93.512h16.477v4.277H54.6v4.431h10.3v4.275H54.6v4.588h11.86v4.275H49.825V93.512Zm28.398-.154h4.431l9.362 22h-5.024l-1.997-4.899h-9.237l-1.997 4.899h-4.899l9.36-22Zm5.057 12.857-2.904-7.085-2.901 7.085h5.805Zm12.107-12.703h8.926c5.211 0 8.363 3.09 8.363 7.552v.063c0 5.055-3.932 7.678-8.83 7.678h-3.652v6.553h-4.807V93.512ZM104 104.53a3.382 3.382 0 0 0 3.807-3.308v-.063c0-2.152-1.497-3.308-3.901-3.308h-3.712v6.679H104Z"/>
</svg>
