<?xml version="1.0" encoding="utf-8"?>
<!-- Generator: Adobe Illustrator 19.1.0, SVG Export Plug-In . SVG Version: 6.00 Build 0)  -->
<svg version="1.1" xmlns="http://www.w3.org/2000/svg" xmlns:xlink="http://www.w3.org/1999/xlink" x="0px" y="0px"
	 width="405.4px" height="90.2px" viewBox="0 0 405.4 90.2" style="enable-background:new 0 0 405.4 90.2;" xml:space="preserve">
<g>
	<g>
		<rect y="3.7" style="fill:#000000;" width="85" height="85"/>
		<path style="fill:#FFFFFF;" d="M7.6,25L7.6,25c0-6.2,4.6-11.1,11.2-11.1c4,0,6.5,1.3,8.4,3.3l-3,3.5c-1.7-1.5-3.3-2.4-5.5-2.4
			c-3.6,0-6.2,3-6.2,6.7V25c0,3.7,2.5,6.7,6.2,6.7c2.4,0,3.9-1,5.6-2.5l3,3c-2.2,2.4-4.7,3.8-8.8,3.8C12.2,36,7.6,31.2,7.6,25"/>
		<path style="fill:#FFFFFF;" d="M30.6,14.2h4.7v17.4h9.4v4H30.6V14.2z"/>
		<rect x="8" y="72.8" style="fill:#FFFFFF;" width="31.9" height="5.3"/>
	</g>
	<g>
		<path d="M105.4,46.4v-0.2c0-24.2,18.2-44,44.3-44c16,0,25.6,5.3,33.5,13.1L171.4,29
			c-6.6-6-13.2-9.6-21.7-9.6c-14.3,0-24.7,11.9-24.7,26.5v0.2c0,14.6,10.1,26.7,24.7,26.7c9.7,0,15.7-3.9,22.4-10l11.9,12
			c-8.7,9.4-18.5,15.2-34.9,15.2C124,90.2,105.4,70.8,105.4,46.4z"/>
		<path d="M187.4,3.6h18.7v68h42.4v17h-61.1V3.6z"/>
		<path d="M251.1,0h19.4v16.4h-19.4V0z M251.6,23.6h18.5v65.1h-18.5V23.6z"/>
		<path d="M272.5,56.5v-0.2c0-18.7,15.1-33.9,35.4-33.9C328,22.4,343,37.3,343,56v0.2
			c0,18.7-15.1,33.9-35.4,33.9C287.4,90.2,272.5,75.2,272.5,56.5z M324.7,56.5v-0.2c0-9.6-6.9-18-17.1-18
			c-10.6,0-16.9,8.1-16.9,17.7v0.2c0,9.6,6.9,18,17.1,18C318.4,74.2,324.7,66.1,324.7,56.5z"/>
		<path d="M345.8,23.6h18.5v9.2c4.3-5.5,9.7-10.4,19.1-10.4c14,0,22.1,9.2,22.1,24.2v42.2h-18.5V52.4
			c0-8.7-4.1-13.2-11.2-13.2c-7,0-11.5,4.5-11.5,13.2v36.3h-18.5V23.6z"/>
	</g>
</g>
</svg>
