<svg height="24.69444mm" viewBox="0 0 70 70" width="24.69444mm" xmlns="http://www.w3.org/2000/svg" xmlns:xlink="http://www.w3.org/1999/xlink"><linearGradient id="a" gradientUnits="userSpaceOnUse" x1="22.2541" x2="45.65356" y1="15.14847" y2="15.14847"><stop offset="0" stop-color="#ed358c"/><stop offset=".1553" stop-color="#e9388c"/><stop offset=".2969" stop-color="#de418c"/><stop offset=".4332" stop-color="#cc508c"/><stop offset=".5662" stop-color="#b2658d"/><stop offset=".6969" stop-color="#90808d"/><stop offset=".8259" stop-color="#67a18e"/><stop offset=".9512" stop-color="#37c78f"/><stop offset="1" stop-color="#22d88f"/></linearGradient><linearGradient id="b" gradientTransform="translate(0 -524.00006)" gradientUnits="userSpaceOnUse" x1="17.81818" x2="7.52294" y1="532.97415" y2="602.05651"><stop offset=".0914" stop-color="#22d88f"/><stop offset=".9032" stop-color="#029de0"/></linearGradient><linearGradient id="c" x1="63.80723" x2="-6.61201" xlink:href="#b" y1="530.45364" y2="604.8269"/><linearGradient id="d" x1="40.11435" x2="66.87567" xlink:href="#b" y1="573.35041" y2="577.15534"/><path d="m26.906 28.328-4.703 1.969 4.266-30.297 16.078 8.859z" fill="url(#a)"/><path d="m24.391 42 2.296-42-20.234 12.688-6.453 38.718z" fill="url(#b)"/><path d="m68.578 21-8.969-18.375-17.062 6.234-12.469 13.782-30.078 28.765 22.75 16.625 28.438-25.812z" fill="url(#c)"/><path d="m29.422 29.859-3.938 23.954 15.969 12.359 17.5 3.828 11.047-24.937z" fill="url(#d)"/><path d="m14 13.99997h42v42h-42z"/><g fill="#fff"><path d="m17.99 48.12497h15.75v2.625h-15.75z"/><path d="m17.675 28.28a8.835 8.835 0 0 1 8.6356-9.03q.19717-.0044.3944 0a8.5891 8.5891 0 0 1 6.825 2.73l-2.415 2.835a6.34366 6.34366 0 0 0 -4.41-1.995 5.14586 5.14586 0 0 0 -5.04876 5.24117q.00205.10948.00876.21883a5.20812 5.20812 0 0 0 4.94752 5.4563q.04623.00227.09248.0037a6.687 6.687 0 0 0 4.62-1.995l2.415 2.415a8.99464 8.99464 0 0 1 -7.14 3.15 8.93881 8.93881 0 0 1 -8.92545-8.95214z"/><path d="m36.365 19.46h3.885v14.175h7.56v3.255h-11.445z"/></g><path d="m37 53h33v17h-33z" fill="#d99e2b"/><path d="m40.05563 66.966h7.19661v-1.72329h-5.50724v-2.94521h4.82041v-1.72325h-4.82041v-2.85131h5.43874v-1.72325h-7.12811z"/><path d="m48.15627 66.966h1.86832l1.06757-2.6268h4.9082l1.05281 2.6268h1.9277l-4.5671-10.95841h-1.6904zm3.60316-4.321 1.77945-4.35241 1.79421 4.35241z"/><path d="m59.87536 66.966h1.62869v-3.52491h1.84026a3.50288 3.50288 0 0 0 3.70715-3.74426v-.03124a3.3623 3.3623 0 0 0 -3.52185-3.6659h-3.65425zm1.62869-5.26364v-3.94818h1.89333a1.80657 1.80657 0 0 1 1.99894 1.95836v.03146a1.86935 1.86935 0 0 1 -1.99894 1.95836z"/></svg>