<svg xmlns="http://www.w3.org/2000/svg" width="64" height="64" fill="none" viewBox="0 0 64 64">
  <defs>
    <linearGradient id="a" x1="4.0675" x2="62.6637" y1="4.32704" y2="62.9233" gradientUnits="userSpaceOnUse">
      <stop offset=".29" stop-color="#009AE5"/>
      <stop offset=".7" stop-color="#00D980"/>
    </linearGradient>
    <linearGradient id="b" x1="56.3294" x2="2.87437" y1="-.390627" y2="24.3931" gradientUnits="userSpaceOnUse">
      <stop offset=".3" stop-color="#FF2D90"/>
      <stop offset=".54" stop-color="#009AE5"/>
    </linearGradient>
  </defs>
  <path fill="url(#a)" d="M64 59.8777V25.7502c0-1.6582-.9931-3.155-2.5206-3.8L24.0581 6.15266c-.5181-.21875-1.0756-.32937-1.6381-.32437l-18.32875.15C1.82625 5.99641 0 7.83766 0 10.1027v17.6656c0 .8056.235625 1.5931.678125 2.2662L21.7869 62.1439c.7625 1.1606 2.0581 1.8588 3.4468 1.8588H59.875c2.2781 0 4.125-1.8469 4.125-4.125Z"/>
  <path fill="url(#b)" d="M58 14.9875V4.125C58 1.84687 56.1531 0 53.875 0H41.3094c-.2 0-.4.014375-.5981.04375L3.52688 5.49188C1.50125 5.78875 0 7.52625 0 9.57312V24.9706c0 2.2788 1.8475 4.1256 4.12625 4.125l18.50435-.0044c.4256 0 .8488-.0662 1.2538-.1956L55.13 18.9169c1.7094-.5463 2.87-2.135 2.87-3.9294Z"/>
  <path fill="#FF2D90" d="M58 16.4528V4.19406C58 1.89031 56.1131.032813 53.8094.069687L43.0044.007813C41.8231.026562 40.4688.789061 39.7 1.68594L6.99312 39.8441C6.3525 40.5916 6 41.5441 6 42.5284v11.3494c0 2.2781 1.84687 4.125 4.125 4.125h11.0031c1.1894 0 2.3213-.5137 3.1044-1.4087l32.7469-37.425C57.6375 18.4172 58 17.4522 58 16.4528Z"/>
  <path fill="#000" d="M52 12H12v40h40V12Z"/>
  <path fill="#fff" d="M33 44H17v3h16v-3Z"/>
  <path fill="#fff" d="M20.7465 31.2425c-1.165-.675-2.0794-1.6044-2.7438-2.7869-.6643-1.1825-.9968-2.5025-.9968-3.9606s.3325-2.7781.9968-3.9606c.6644-1.1825 1.5794-2.1119 2.7438-2.7869 1.1644-.675 2.4656-1.0131 3.9019-1.0131 1.215 0 2.3293.225 3.3443.675 1.0144.45 1.86 1.0806 2.535 1.8919.675.8112 1.1269 1.7418 1.3557 2.7925h-3.0657c-.2-.5432-.4981-1.02-.895-1.4313-.3968-.4106-.8737-.7269-1.4312-.9487-.5575-.2213-1.165-.3325-1.8219-.3325-.8862 0-1.6862.2212-2.4012.6643-.7144.4432-1.2738 1.0525-1.6775 1.8275-.4038.7757-.6057 1.6488-.6057 2.6206 0 .9719.2019 1.8457.6057 2.6207.4037.7756.9631 1.3844 1.6775 1.8275.7143.4431 1.515.6644 2.4012.6644.6575 0 1.265-.1107 1.8219-.3325.5575-.2213 1.0344-.5375 1.4312-.9488.3969-.4106.695-.8881.895-1.4313h3.0657c-.2288 1.0507-.6807 1.9813-1.3557 2.7926-.675.8112-1.5206 1.4418-2.535 1.8918-1.015.45-2.1293.675-3.3443.675-1.4363 0-2.7369-.3375-3.9019-1.0131v.0025Z"/>
  <path fill="#fff" d="M37.3291 16.9922v12.3694h7.1175v2.6368H34.4141V16.9922h2.9156-.0006Z"/>
</svg>
