<svg xmlns="http://www.w3.org/2000/svg" width="195" height="64" fill="none" viewBox="0 0 195 64">
  <defs>
    <linearGradient id="a" x1="3.98138" x2="62.6868" y1="4.22438" y2="62.9293" gradientUnits="userSpaceOnUse">
      <stop offset=".29" stop-color="#009AE5"/>
      <stop offset=".7" stop-color="#00D980"/>
    </linearGradient>
    <linearGradient id="b" x1="56.3788" x2="2.75258" y1="-.71738" y2="24.1455" gradientUnits="userSpaceOnUse">
      <stop offset=".3" stop-color="#FF318C"/>
      <stop offset=".54" stop-color="#009AE5"/>
    </linearGradient>
  </defs>
  <path fill="#fff" d="M93.1941 22.71c1.49-.92 3.16-1.38 5-1.38 1.36 0 2.6099.23 3.7799.69 1.17.46 2.16 1.11 3 1.97.84.86 1.46 1.85 1.87 3h5.61c-.48-2.05-1.39-3.88-2.73-5.47-1.34-1.59-3-2.83-5-3.7-2-.88-4.19-1.32-6.5699-1.32-2.85 0-5.43.67-7.74 2.02-2.3 1.35-4.12 3.2-5.44 5.56-1.32 2.36-1.98 5-1.98 7.91s.66 5.55 1.98 7.91c1.32 2.36 3.13 4.22 5.44 5.56 2.3 1.35 4.88 2.02 7.74 2.02 2.3799 0 4.5699-.44 6.5699-1.32 2-.88 3.66-2.11 5-3.7 1.34-1.59 2.24-3.41 2.73-5.47h-5.61c-.41 1.14-1.04 2.14-1.87 3-.83.86-1.83 1.51-3 1.97-1.17.46-2.4199.68-3.7799.68-1.84 0-3.51-.46-5-1.38-1.49-.92-2.66-2.19-3.5-3.81-.84-1.62-1.26-3.44-1.26-5.47s.42-3.85 1.26-5.47c.84-1.62 2.01-2.89 3.5-3.81v.01ZM121.914 17h-5.31v29.96h19.75v-4.82h-14.45V16.99l.01.01Zm17.45 29.97h5.05V25.05h-5.05v21.92Zm-.36-24.23h5.76v-5.01h-5.76v5.01Zm26.39 3.3c-1.75-1-3.71-1.5-5.86-1.5-2.15 0-4.13.5-5.9 1.5-1.76 1-3.14 2.37-4.14 4.12-1 1.75-1.5 3.7-1.5 5.85 0 2.15.5 4.11 1.51 5.85 1.01 1.75 2.39 3.12 4.14 4.12 1.75 1 3.71 1.5 5.86 1.5 2.15 0 4.13-.5 5.89-1.5 1.76-1 3.13-2.37 4.14-4.12 1.01-1.75 1.51-3.7 1.51-5.85 0-2.15-.5-4.11-1.51-5.85-1.01-1.75-2.39-3.12-4.14-4.12Zm-.39 13.59c-.52 1.06-1.26 1.88-2.21 2.46-.95.58-2.05.88-3.27.88-1.22 0-2.32-.29-3.26-.88-.95-.58-1.68-1.41-2.2-2.46-.52-1.06-.78-2.26-.78-3.62 0-1.36.26-2.58.78-3.64s1.25-1.88 2.2-2.46c.95-.58 2.04-.88 3.26-.88 1.22 0 2.31.3 3.26.89.95.59 1.69 1.41 2.21 2.46.53 1.05.79 2.26.79 3.63s-.26 2.56-.78 3.62Zm28.33-11.09c-.66-1.3-1.58-2.29-2.76-2.97-1.18-.69-2.56-1.03-4.13-1.03-1.68 0-3.15.39-4.4 1.18-1 .63-1.82 1.49-2.45 2.55v-3.21h-4.9v21.92h5.05V34.29c0-1.03.21-1.94.63-2.75.42-.81 1.02-1.43 1.79-1.88.77-.45 1.65-.67 2.65-.67.93 0 1.73.2 2.4.59.67.39 1.18.96 1.54 1.7.36.74.54 1.64.54 2.7v13.01h5.03V33.21c0-1.8-.33-3.35-.98-4.64l-.01-.03Z"/>
  <path fill="url(#a)" d="M64 59.9294V25.9611c0-1.6291-.9711-3.1017-2.4681-3.7434L24.0413 6.14962c-.5068-.21702-1.0531-.32931-1.6046-.32931H4.07273C1.82342 5.82031 0 7.64373 0 9.89304V27.859c0 .8047.238545 1.5913.685382 2.261L22.0887 62.1886c.7552 1.1322 2.0265 1.8118 3.3874 1.8118l34.4512.0017c2.2493 0 4.0727-1.8234 4.0727-4.0727Z"/>
  <path fill="url(#b)" d="M58.1818 14.5193V4.07273C58.1818 1.82342 56.3584 0 54.1091 0H41.0164c-.1925 0-.3851.013964-.576.040727L3.49673 5.3184C1.49004 5.60465 0 7.32334 0 9.34982V25.0228c0 2.2499 1.824 4.0733 4.07389 4.0728l18.53851-.0047c.4375 0 .8721-.0704 1.2869-.2089l31.4979-10.4995c1.6629-.5544 2.7846-2.1108 2.7846-3.8638v.0006Z"/>
  <path fill="#FF318C" d="m58.1814 15.9476-.0017-11.87545C58.1797 1.82342 56.3562 0 54.1069 0H42.6003c-1.1886 0-2.3185.519564-3.0923 1.42196L6.79872 39.5834c-.63243.7383-.98036 1.6786-.98036 2.6508v11.8755c0 2.2493 1.82342 4.0727 4.07273 4.0727H21.3994c1.1887 0 2.3186-.5196 3.0924-1.422L57.201 18.599c.6331-.7383.9804-1.6786.9804-2.6514Z"/>
  <path fill="#000" d="M52 12H12v40h40V12Z"/>
  <path fill="#fff" d="M20.0471 31.161c1.1594.668 2.4537 1.0029 3.8828 1.0029v-.0011c1.2086 0 2.3183-.2241 3.328-.6721 1.0097-.448 1.8486-1.0731 2.5172-1.8771.6754-.8108 1.1274-1.7388 1.3548-2.784h-3.0508c-.1995.54-.4977 1.0172-.896 1.4292-.3915.4057-.864.7188-1.4189.9388-.5543.22-1.1588.3309-1.8131.3309-.8817 0-1.6783-.22-2.3892-.6612-.7114-.4411-1.2697-1.0451-1.6748-1.8131-.3983-.7743-.5972-1.6463-.5972-2.6132 0-.9668.1989-1.8348.5972-2.6028.4057-.7749.964-1.3829 1.6748-1.824.7109-.4412 1.5075-.6612 2.3892-.6612.6537 0 1.2583.1109 1.8131.3309.5549.22 1.0274.5371 1.4189.9491.3983.4057.6965.8789.896 1.4189h3.0508c-.228-1.0451-.6794-1.9691-1.3548-2.7731-.6686-.8109-1.5075-1.44-2.5172-1.888-1.0097-.448-2.1194-.672-3.328-.672-1.4297 0-2.724.3371-3.8828 1.0131-1.1595.668-2.0697 1.5931-2.7309 2.7731-.6611 1.1732-.992 2.4852-.992 3.936 0 1.4509.3309 2.7669.992 3.9469.6617 1.1731 1.572 2.0971 2.7309 2.7731Z"/>
  <path fill="#fff" d="M36.1248 29.2833V16.9742h-2.9012v14.9331h9.984v-2.624h-7.0828Z"/>
  <path fill="#fff" d="M16.9941 43.9988h16v3h-16v-3Z"/>
</svg>
