<svg enable-background="new 0 0 405.4 90.2" height="90.2" viewBox="0 0 405.4 90.2" width="405.4" xmlns="http://www.w3.org/2000/svg"><path d="m0 3.7h85v85h-85z"/><g fill="#fff"><path d="m7.6 25c0-6.2 4.6-11.1 11.2-11.1 4 0 6.5 1.3 8.4 3.3l-3 3.5c-1.7-1.5-3.3-2.4-5.5-2.4-3.6 0-6.2 3-6.2 6.7s2.5 6.7 6.2 6.7c2.4 0 3.9-1 5.6-2.5l3 3c-2.2 2.4-4.7 3.8-8.8 3.8-6.3 0-10.9-4.8-10.9-11"/><path d="m30.6 14.2h4.7v17.4h9.4v4h-14.1z"/><path d="m8 72.8h31.9v5.3h-31.9z"/></g><path d="m105.4 46.4v-.2c0-24.2 18.2-44 44.3-44 16 0 25.6 5.3 33.5 13.1l-11.8 13.7c-6.6-6-13.2-9.6-21.7-9.6-14.3 0-24.7 11.9-24.7 26.5v.2c0 14.6 10.1 26.7 24.7 26.7 9.7 0 15.7-3.9 22.4-10l11.9 12c-8.7 9.4-18.5 15.2-34.9 15.2-25.1.2-43.7-19.2-43.7-43.6z"/><path d="m187.4 3.6h18.7v68h42.4v17h-61.1z"/><path d="m251.1 0h19.4v16.4h-19.4zm.5 23.6h18.5v65.1h-18.5z"/><path d="m272.5 56.5v-.2c0-18.7 15.1-33.9 35.4-33.9 20.1 0 35.1 14.9 35.1 33.6v.2c0 18.7-15.1 33.9-35.4 33.9-20.2.1-35.1-14.9-35.1-33.6zm52.2 0v-.2c0-9.6-6.9-18-17.1-18-10.6 0-16.9 8.1-16.9 17.7v.2c0 9.6 6.9 18 17.1 18 10.6 0 16.9-8.1 16.9-17.7z"/><path d="m345.8 23.6h18.5v9.2c4.3-5.5 9.7-10.4 19.1-10.4 14 0 22.1 9.2 22.1 24.2v42.2h-18.5v-36.4c0-8.7-4.1-13.2-11.2-13.2-7 0-11.5 4.5-11.5 13.2v36.3h-18.5z"/></svg>