<svg xmlns="http://www.w3.org/2000/svg" width="70" height="70" fill="none" viewBox="0 0 70 70">
  <defs>
    <linearGradient id="a" x1="25.1611" x2="45.2169" y1="13.6861" y2="13.6861" gradientUnits="userSpaceOnUse">
      <stop offset="0" stop-color="#FF318C"/>
      <stop offset="0.149" stop-color="#FB348C"/>
      <stop offset="0.2849" stop-color="#F03C8C"/>
      <stop offset="0.4157" stop-color="#DE4A8C"/>
      <stop offset="0.5434" stop-color="#C45D8B"/>
      <stop offset="0.6689" stop-color="#A2778B"/>
      <stop offset="0.7926" stop-color="#79958A"/>
      <stop offset="0.9128" stop-color="#49B98A"/>
      <stop offset="1" stop-color="#21D789"/>
    </linearGradient>
    <linearGradient id="b" x1="17.131" x2="6.83587" y1="8.88278" y2="77.965" gradientUnits="userSpaceOnUse">
      <stop offset="0.0913979" stop-color="#21D789"/>
      <stop offset="0.9032" stop-color="#009AE5"/>
    </linearGradient>
    <linearGradient id="c" x1="63.8362" x2="-6.58306" y1="6.49196" y2="80.8651" gradientUnits="userSpaceOnUse">
      <stop offset="0.0913979" stop-color="#21D789"/>
      <stop offset="0.9032" stop-color="#009AE5"/>
    </linearGradient>
    <linearGradient id="d" x1="42.7908" x2="66.8754" y1="51.1264" y2="54.5508" gradientUnits="userSpaceOnUse">
      <stop offset="0.0913979" stop-color="#21D789"/>
      <stop offset="0.9032" stop-color="#009AE5"/>
    </linearGradient>
  </defs>
  <path fill="url(#a)" d="M20 41.5L26.6875 0L42.5833 8.82292L20 41.5Z"/>
  <path fill="url(#b)" d="M26.6875 39V0L6.48958 12.7604L0 51.4792L26.6875 39Z"/>
  <path fill="url(#c)" d="M68.6146 21L59.5729 2.69789L42.5833 8.82289L25.1563 27.3437L0 51.4791L22.6771 67.9583L51.2604 42.2187L68.6146 21Z"/>
  <path fill="url(#d)" d="M56.8748 40.1042L45.9373 35L26.7969 55.2344L41.4894 66.2083L58.9894 70L69.9998 45.0625L56.8748 40.1042Z"/>
  <g>
    <path fill="#000000" d="M56 14H14V56H56V14Z"/>
    <path fill="#FFFFFF" d="M34.4167 48.65H18.6667V51.3333H34.4167V48.65Z"/>
    <g>
      <path fill="#FFFFFF" d="M36 19.13H39.458V31.8553H46.3047V34.76H36V19.13Z"/>
      <path fill="#FFFFFF" d="M18 27.0667C18 22.6333 21.2667 18.9 26.1667 18.9C29.2 18.9 30.8333 19.8333 32.4667 21.2333L30.3667 23.8C29.2 22.6333 28.0333 21.9333 26.4 21.9333C23.8333 21.9333 21.7333 24.0333 21.7333 26.8333C21.7333 29.6333 23.6 31.7333 26.4 31.7333C28.2667 31.7333 29.2 31.0333 30.6 29.8667L32.7 32.2C30.8333 34.0667 28.9667 35 25.9333 35C21.2667 35 18 31.5 18 27.0667Z"/>
    </g>
  </g>
</svg>
