<svg xmlns="http://www.w3.org/2000/svg" width="432" height="91" fill="none" viewBox="0 0 432 91">
  <path fill="#000" d="M0 4H85V89H0V4Z"/>
  <path fill="#fff" d="M10.543 72.9795H42.4715V78.3009H10.543V72.9795Z"/>
  <path fill="#fff" d="M42.5708 14.4863H49.666V40.5826H63.6437V46.5H42.5708V14.4863Z"/>
  <path fill="#fff" d="M8.27258 30.7061V30.6209C8.2335 28.4122 8.6421 26.2185 9.47373 24.172C10.3054 22.1254 11.5428 20.2685 13.1114 18.7131C14.6801 17.1577 16.5475 15.9361 18.601 15.1219C20.6545 14.3076 22.8516 13.9177 25.0599 13.9755C27.4045 13.8563 29.7478 14.2361 31.9347 15.0899C34.1216 15.9436 36.1025 17.2518 37.7462 18.928L33.2762 24.1359C31.1143 21.8939 28.1591 20.5895 25.0457 20.5031C19.6108 20.5031 15.7084 25.0015 15.7084 30.5216V30.6209C15.7084 36.141 19.5256 40.7387 25.0457 40.7387C28.7211 40.7387 30.9773 39.3197 33.56 36.9641L37.9733 41.5334C36.3441 43.4174 34.3086 44.9071 32.0201 45.8903C29.7317 46.8735 27.25 47.3246 24.7619 47.2096C22.5863 47.2422 20.4263 46.8374 18.4101 46.0194C16.3939 45.2014 14.5625 43.9867 13.0246 42.4475C11.4867 40.9083 10.2736 39.0759 9.45729 37.0589C8.641 35.042 8.23813 32.8817 8.27258 30.7061"/>
  <path fill="#000" d="M114.077 46.6844V46.4431C114.077 22.2484 132.326 2.45264 158.479 2.45264C174.528 2.45264 184.135 7.81664 192.053 15.593L180.133 29.3436C173.563 23.3836 166.865 19.7366 158.351 19.7366C144.004 19.7366 133.66 31.6566 133.66 46.2444V46.4857C133.66 61.0877 143.763 73.2489 158.351 73.2489C168.086 73.2489 174.046 69.3607 180.729 63.3156L192.649 75.3633C183.894 84.729 174.202 90.5613 157.741 90.5613C132.695 90.4762 114.077 71.1345 114.077 46.6844V46.6844Z"/>
  <path fill="#000" d="M199.106 3.87158H217.837V71.9859H260.324V89.0144H199.106V3.87158Z"/>
  <path fill="#000" d="M267.717 0.225098H287.187V16.6435H267.717V0.225098ZM268.214 23.8239H286.662V89.0149H268.214V23.8239Z"/>
  <path fill="#000" d="M294.381 56.7879V56.5467C294.381 37.8152 309.465 22.603 329.772 22.603C350.078 22.603 364.936 37.574 364.936 56.3054V56.5467C364.936 75.2781 349.851 90.4761 329.46 90.4761C309.068 90.4761 294.381 75.5903 294.381 56.7879V56.7879ZM346.687 56.7879V56.5467C346.687 46.9397 339.748 38.5389 329.531 38.5389C318.959 38.5389 312.63 46.6843 312.63 56.3054V56.5467C312.63 66.1536 319.555 74.5402 329.772 74.5402C340.372 74.5402 346.701 66.3948 346.701 56.7879H346.687Z"/>
  <path fill="#000" d="M371.96 23.8235H390.408V33.0189C394.665 27.5556 400.129 22.5605 409.494 22.5605C423.486 22.5605 431.631 31.8127 431.631 46.7695V89.0145H413.184V52.6444C413.184 43.8888 409.054 39.3905 402.002 39.3905C394.949 39.3905 390.451 43.8888 390.451 52.6444V89.0145H372.003L371.96 23.8235Z"/>
</svg>
