<?xml version="1.0" encoding="utf-8"?>
<!-- Generator: Adobe Illustrator 19.1.0, SVG Export Plug-In . SVG Version: 6.00 Build 0)  -->
<svg version="1.1" id="Layer_1" xmlns="http://www.w3.org/2000/svg" xmlns:xlink="http://www.w3.org/1999/xlink" x="0px" y="0px"
	 width="70px" height="70px" viewBox="0 0 70 70" style="enable-background:new 0 0 70 70;" xml:space="preserve">
<g>
	<g>
		<linearGradient id="SVGID_1_" gradientUnits="userSpaceOnUse" x1="22.2541" y1="15.1368" x2="45.6536" y2="15.1368">
			<stop  offset="0" style="stop-color:#ED358C"/>
			<stop  offset="0.1553" style="stop-color:#E9388C"/>
			<stop  offset="0.2969" style="stop-color:#DE418C"/>
			<stop  offset="0.4332" style="stop-color:#CC508C"/>
			<stop  offset="0.5662" style="stop-color:#B2658D"/>
			<stop  offset="0.6969" style="stop-color:#90808D"/>
			<stop  offset="0.8259" style="stop-color:#67A18E"/>
			<stop  offset="0.9512" style="stop-color:#37C78F"/>
			<stop  offset="1" style="stop-color:#22D88F"/>
		</linearGradient>
		<polygon style="fill:url(#SVGID_1_);" points="26.9,28.4 22.3,30.3 26.4,0 42.6,8.8 		"/>
		<linearGradient id="SVGID_2_" gradientUnits="userSpaceOnUse" x1="17.7997" y1="8.9824" x2="7.5045" y2="78.0647">
			<stop  offset="9.139785e-002" style="stop-color:#22D88F"/>
			<stop  offset="0.9032" style="stop-color:#029DE0"/>
		</linearGradient>
		<polygon style="fill:url(#SVGID_2_);" points="24.3,42 26.7,0 6.5,12.7 0,51.5 		"/>
		<linearGradient id="SVGID_3_" gradientUnits="userSpaceOnUse" x1="63.8362" y1="6.492" x2="-6.583" y2="80.8652">
			<stop  offset="9.139785e-002" style="stop-color:#22D88F"/>
			<stop  offset="0.9032" style="stop-color:#029DE0"/>
		</linearGradient>
		<polygon style="fill:url(#SVGID_3_);" points="68.6,21 59.6,2.7 42.6,8.8 30.1,22.7 0,51.5 22.7,68 51.2,42.3 		"/>
		<linearGradient id="SVGID_4_" gradientUnits="userSpaceOnUse" x1="40.1137" y1="49.3657" x2="66.8751" y2="53.1707">
			<stop  offset="9.139785e-002" style="stop-color:#22D88F"/>
			<stop  offset="0.9032" style="stop-color:#029DE0"/>
		</linearGradient>
		<polygon style="fill:url(#SVGID_4_);" points="29.4,29.9 25.5,53.9 41.5,66.2 59,70 70,45 		"/>
	</g>
	<g>
		<rect x="13.4" y="13.4" style="fill:#000000;" width="43.2" height="43.2"/>
		<rect x="17.5" y="48.5" style="fill:#FFFFFF;" width="16.2" height="2.7"/>
		<path style="fill:#FFFFFF;" d="M17.2,28.1L17.2,28.1c0-5.1,3.8-9.3,9.3-9.3c3.4,0,5.4,1.1,7.1,2.8l-2.5,2.9c-1.4-1.3-2.8-2-4.6-2
			c-3,0-5.2,2.5-5.2,5.6V28c0,3.1,2.1,5.6,5.2,5.6c2,0,3.3-0.8,4.7-2.1l2.5,2.5c-1.8,2-3.9,3.2-7.3,3.2
			C21.1,37.3,17.2,33.2,17.2,28.1"/>
		<path style="fill:#FFFFFF;" d="M36.4,19.1h3.9v14.6h7.8v3.3H36.4V19.1z"/>
	</g>
</g>
</svg>
