<svg enable-background="new 0 0 70 70" height="70" viewBox="0 0 70 70" width="70" xmlns="http://www.w3.org/2000/svg" xmlns:xlink="http://www.w3.org/1999/xlink"><linearGradient id="a" gradientUnits="userSpaceOnUse" x1="22.2541" x2="45.6536" y1="15.1368" y2="15.1368"><stop offset="0" stop-color="#ed358c"/><stop offset=".1553" stop-color="#e9388c"/><stop offset=".2969" stop-color="#de418c"/><stop offset=".4332" stop-color="#cc508c"/><stop offset=".5662" stop-color="#b2658d"/><stop offset=".6969" stop-color="#90808d"/><stop offset=".8259" stop-color="#67a18e"/><stop offset=".9512" stop-color="#37c78f"/><stop offset="1" stop-color="#22d88f"/></linearGradient><linearGradient id="b"><stop offset=".09139785" stop-color="#22d88f"/><stop offset=".9032" stop-color="#029de0"/></linearGradient><linearGradient id="c" gradientUnits="userSpaceOnUse" x1="17.7997" x2="7.5045" xlink:href="#b" y1="8.9824" y2="78.0647"/><linearGradient id="d" gradientUnits="userSpaceOnUse" x1="63.8362" x2="-6.583" xlink:href="#b" y1="6.492" y2="80.8652"/><linearGradient id="e" gradientUnits="userSpaceOnUse" x1="40.1137" x2="66.8751" xlink:href="#b" y1="49.3657" y2="53.1707"/><path d="m26.9 28.4-4.6 1.9 4.1-30.3 16.2 8.8z" fill="url(#a)"/><path d="m24.3 42 2.4-42-20.2 12.7-6.5 38.8z" fill="url(#c)"/><path d="m68.6 21-9-18.3-17 6.1-12.5 13.9-30.1 28.8 22.7 16.5 28.5-25.7z" fill="url(#d)"/><path d="m29.4 29.9-3.9 24 16 12.3 17.5 3.8 11-25z" fill="url(#e)"/><path d="m13.4 13.4h43.2v43.2h-43.2z"/><g fill="#fff"><path d="m17.5 48.5h16.2v2.7h-16.2z"/><path d="m17.2 28.1c0-5.1 3.8-9.3 9.3-9.3 3.4 0 5.4 1.1 7.1 2.8l-2.5 2.9c-1.4-1.3-2.8-2-4.6-2-3 0-5.2 2.5-5.2 5.6v-.1c0 3.1 2.1 5.6 5.2 5.6 2 0 3.3-.8 4.7-2.1l2.5 2.5c-1.8 2-3.9 3.2-7.3 3.2-5.3.1-9.2-4-9.2-9.1"/><path d="m36.4 19.1h3.9v14.6h7.8v3.3h-11.7z"/></g></svg>