<svg fill="none" height="70" viewBox="0 0 70 70" width="70" xmlns="http://www.w3.org/2000/svg" xmlns:xlink="http://www.w3.org/1999/xlink"><linearGradient id="a" gradientUnits="userSpaceOnUse" x1="41.2277" x2="51.2294" y1="33.176" y2="7.71711"><stop offset=".04937" stop-color="#219e89"/><stop offset=".27923" stop-color="#21bd89"/><stop offset=".75337" stop-color="#6edd88"/><stop offset="1" stop-color="#71de88"/></linearGradient><linearGradient id="b" gradientUnits="userSpaceOnUse" x1="49.6621" x2="42.9737" y1="5.80176" y2="38.8105"><stop offset="0" stop-color="#5ef789"/><stop offset=".1634" stop-color="#21d789"/><stop offset=".50492" stop-color="#0ea67b"/><stop offset=".98215" stop-color="#21d789"/></linearGradient><linearGradient id="c" gradientUnits="userSpaceOnUse" x1="30.4681" x2="52.8823" y1="30.0616" y2="-.6446"><stop offset=".38956" stop-color="#5ef789"/><stop offset=".63623" stop-color="#21d789"/><stop offset=".92822" stop-color="#0ea67b"/></linearGradient><linearGradient id="d" gradientUnits="userSpaceOnUse" x1="57.8533" x2="24.4028" y1="18.2809" y2="66.3555"><stop offset=".24437" stop-color="#21d789"/><stop offset=".89126" stop-color="#fdb60d"/></linearGradient><linearGradient id="e" gradientUnits="userSpaceOnUse" x1="68.5873" x2="33.3012" y1="15.0893" y2="65.802"><stop offset="0" stop-color="#21d789"/><stop offset="1" stop-color="#fdb60d"/></linearGradient><linearGradient id="f"><stop offset=".06498" stop-color="#037f5c"/><stop offset=".89819" stop-color="#038e5c" stop-opacity="0"/></linearGradient><linearGradient id="g" gradientUnits="userSpaceOnUse" x1="56.1758" x2="56.5654" xlink:href="#f" y1="46.2923" y2="36.292"/><linearGradient id="h" gradientUnits="userSpaceOnUse" x1="49.1673" x2="13.9717" y1="36.7766" y2="63.9045"><stop offset="0" stop-color="#21bd89"/><stop offset=".73314" stop-color="#fdb60d"/></linearGradient><linearGradient id="i" gradientUnits="userSpaceOnUse" x1="33.3575" x2="17.182" y1="6.68179" y2="57.8747"><stop offset="0" stop-color="#fe2857"/><stop offset="1" stop-color="#fdb60d"/></linearGradient><linearGradient id="j" gradientUnits="userSpaceOnUse" x1="50.3528" x2="19.4797" y1="3.65966" y2="64.2385"><stop offset=".1207" stop-color="#fd7430"/><stop offset=".25438" stop-color="#fdb60d"/><stop offset=".53455" stop-color="#fe2857"/><stop offset=".91392" stop-color="#fdb60d"/></linearGradient><linearGradient id="k" gradientUnits="userSpaceOnUse" x1="15.4398" x2="35.3129" y1="14.3288" y2="5.03748"><stop offset=".21599" stop-color="#be0059"/><stop offset=".88355" stop-color="#fe2857" stop-opacity="0"/></linearGradient><linearGradient id="l" gradientUnits="userSpaceOnUse" x1="43.6838" x2="38.8405" y1="20.4056" y2="9.07784"><stop offset=".45951" stop-color="#fe2857"/><stop offset=".85318" stop-color="#fdb60d"/><stop offset="1" stop-color="#fdffa1"/></linearGradient><linearGradient id="m" gradientUnits="userSpaceOnUse" x1="44.9909" x2="7.89365" y1="9.36011" y2="58.0957"><stop offset=".27215" stop-color="#fe2857"/><stop offset="1" stop-color="#fdb60d"/></linearGradient><linearGradient id="n" gradientUnits="userSpaceOnUse" x1="41.5774" x2="19.1922" y1="60.7334" y2="35.6152"><stop offset=".3899" stop-color="#fdd468"/><stop offset=".97479" stop-color="#fdb60d" stop-opacity="0"/></linearGradient><linearGradient id="o" gradientUnits="userSpaceOnUse" x1="25.8097" x2="3.7909" y1="42.4572" y2="33.8243"><stop offset=".34967" stop-color="#fdb60d" stop-opacity="0"/><stop offset=".98508" stop-color="#fdffa1"/></linearGradient><linearGradient id="p" gradientUnits="userSpaceOnUse" x1="24.7687" x2="13.91" y1="6.15638" y2="40.5224"><stop offset=".02988" stop-color="#ff7f39"/><stop offset=".1294" stop-color="#fe2857"/><stop offset="1" stop-color="#fdb60d"/></linearGradient><linearGradient id="q" gradientUnits="userSpaceOnUse" x1="31.8568" x2="47.1756" xlink:href="#f" y1="43.2548" y2="30.8447"/><linearGradient id="r" gradientUnits="userSpaceOnUse" x1="14.3452" x2="52.0608" y1="14.3452" y2="52.0608"><stop offset=".028481" stop-color="#5a1f3a"/><stop offset=".079756" stop-color="#4e1b32"/><stop offset=".2774" stop-color="#260d18"/><stop offset=".3795" stop-color="#16080e"/><stop offset=".3907" stop-color="#15080e"/><stop offset=".6833" stop-color="#060204"/><stop offset=".9138"/></linearGradient><linearGradient id="s" gradientUnits="userSpaceOnUse" x1="35.1026" x2="44.5142" y1="39.5289" y2="13.2193"><stop offset=".04937" stop-color="#219e89" stop-opacity="0"/><stop offset=".82237" stop-color="#6edd88"/><stop offset="1" stop-color="#71de88"/></linearGradient><linearGradient id="t" gradientUnits="userSpaceOnUse" x1="41.9477" x2="77.9896" y1="58.245" y2="11.829"><stop offset="0" stop-color="#21d789" stop-opacity="0"/><stop offset="1" stop-color="#fdb60d"/></linearGradient><linearGradient id="u" gradientUnits="userSpaceOnUse" x1="16.0659" x2="34.8921" y1="5.94675" y2="40.3161"><stop offset="0" stop-color="#fe2857"/><stop offset="1" stop-color="#fdb60d" stop-opacity="0"/></linearGradient><clipPath id="v"><path d="m2.81201 2.84961h64.4v64.4h-64.4z"/></clipPath><clipPath id="w"><path d="m15 15h40v40h-40z"/></clipPath><g clip-path="url(#v)"><path d="m47.2489 2.84961 18.4739 13.21569-18.9768 24.7817-18.0863-20.9202z" fill="url(#a)"/><path d="m47.2489 2.84961 18.4739 13.21569-23.9097 11.0664-13.1534-7.2049z" fill="url(#b)"/><path d="m47.2489 2.84961-5.4358 24.28209-13.1534-7.2049z" fill="url(#c)"/><path d="m67.2117 42.428-25.2668-15.4856-31.9659 22.5458 7.5547 14.5335z" fill="url(#d)"/><path d="m67.2118 42.429-14.68-8.9319-17.5636 4.5463-17.225 29.2067z" fill="url(#e)"/><path d="m52.3358 33.5479 14.8763 8.8809-21.7829.2907z" fill="url(#g)"/><path d="m38.1135 37.0889-13.4768 26.8031 20.7922-21.1731z" fill="url(#h)"/><path d="m16.7253 3.30762 34.0481 8.41938-33.03 55.5222-14.93139-24.0592z" fill="url(#i)"/><path d="m50.7732 11.7275-14.3844 9.559-18.6613 45.4723.6603-.5923 6.2489-2.2741z" fill="url(#j)"/><path d="m16.7251 3.30762 23.6542 5.85705-8.8543 8.06413z" fill="url(#k)"/><path d="m50.7733 11.7271-10.4085-2.57378.0148.01137-8.8542 8.06401 4.347 4.3172z" fill="url(#l)"/><path d="m17.7277 66.7581-14.91569-23.5682 28.71339-25.9614 4.347 4.3172z" fill="url(#m)"/><path d="m17.7277 66.7581-14.91569-23.5682 28.71339-25.9614 4.347 4.3172z" fill="url(#n)"/><path d="m17.7277 66.7581-14.91569-23.5682 28.71339-25.9614 4.347 4.3172z" fill="url(#o)"/><path d="m16.7253 3.30762-13.91329 39.88218 28.71339-25.9612z" fill="url(#p)"/><path d="m38.147 37.046 14.3116-3.659-9.5599-5.8997z" fill="url(#q)"/></g><path d="m55 15h-40v40h40z" fill="url(#r)"/><g clip-path="url(#w)" opacity=".3"><path d="m54.9998 15h-20.5758l-16.2106 21.6178 28.4474 4.443 8.339-10.8899z" fill="url(#s)" opacity=".5"/><path d="m42.3513 55 12.6487-6.3467v-13.3222l-2.5889-1.5752-17.4544 4.5183-9.8644 16.7258z" fill="url(#t)"/><path d="m48.9513 15h-33.9513v40h10.1555z" fill="url(#u)"/></g><g fill="#fff"><path d="m35 47.4004h-15v2.5h15z"/><path d="m35 47.4004h-15v2.5h15z"/><path d="m20 19.9004h6.9c1.9 0 3.4.5 4.4 1.5.8.8 1.3 2 1.3 3.4 0 2.4-1.3 4-3.2 4.7l3.6 5.5h-3.9l-3.2-4.8h-2.6v4.8h-3.3zm6.6 7.4c1.6 0 2.5-.9 2.5-2.1 0-1.4-1-2.1-2.6-2.1h-3.2v4.2z"/><path d="m35 19.9004h6.9c1.9 0 3.4.5 4.4 1.5.8.8 1.3 2 1.3 3.4 0 2.4-1.3 4-3.2 4.7l3.6 5.5h-3.9l-3.2-4.8h-2.6v4.8h-3.3zm6.6 7.4c1.6 0 2.5-.9 2.5-2.1 0-1.4-1-2.1-2.6-2.1h-3.2v4.2z"/></g></svg>