<svg enable-background="new 0 0 70 70" height="70" viewBox="0 0 70 70" width="70" xmlns="http://www.w3.org/2000/svg" xmlns:xlink="http://www.w3.org/1999/xlink"><linearGradient id="a"><stop offset=".1745" stop-color="#078efc"/><stop offset=".2044" stop-color="#118afc"/><stop offset=".4353" stop-color="#5971fc"/><stop offset=".6271" stop-color="#8e5efc"/><stop offset=".7705" stop-color="#af52fc"/><stop offset=".8491" stop-color="#bb4efc"/></linearGradient><linearGradient id="b" gradientUnits="userSpaceOnUse" x1="54.203331" x2="35.493644" xlink:href="#a" y1="27.360519" y2="55.888331"/><linearGradient id="c" gradientUnits="userSpaceOnUse" x1="7.234738" x2="45.177238" xlink:href="#a" y1="30.13505" y2="1.589581"/><linearGradient id="d" gradientUnits="userSpaceOnUse" x1="9.876613" x2="57.576144" y1="58.244269" y2="27.59255"><stop offset="0" stop-color="#078efc"/><stop offset=".1062" stop-color="#15a7d3"/><stop offset=".228" stop-color="#23bfaa"/><stop offset=".3478" stop-color="#2dd28b"/><stop offset=".4634" stop-color="#35df74"/><stop offset=".573" stop-color="#39e767"/><stop offset=".6701" stop-color="#3bea62"/></linearGradient><path d="m57.274 22.361 9.541 21.197-13.49 23.045-32.403-26.401 16.571-15.972z" fill="url(#b)"/><path d="m43.499 42.747 9.826 23.857-29.935-10.29-2.468-16.111z" fill="#bb4efc"/><path d="m24.281 9.433 13.776 7.06-12.398 37.54-24.969-.26 5.364-11.895-5.364-15.201z" fill="#078efc"/><path d="m41.563.479 6.515 22.17-47.388 4.028 15.071-26.198z" fill="url(#c)"/><path d="m66.815 14.519-27.724 6.58-38.401 32.674 24.768 12.831 21.515-22.181z" fill="url(#d)"/><path d="m11.711 11.5h44.083v44.083h-44.083z"/><g fill="#fff"><path d="m16.119 48.309h16.531v2.645h-16.531z"/><path d="m14.607 25.88v-.054c-.18-5.295 3.967-9.734 9.262-9.913.09-.003.179-.005.269-.005 2.64-.135 5.22.815 7.142 2.63l-2.52 3.206c-1.251-1.272-2.969-1.975-4.753-1.945-3.083.226-5.41 2.889-5.22 5.974v.054c-.258 3.091 2.039 5.805 5.13 6.063.125.01.251.017.377.019 1.347.04 2.67-.365 3.765-1.151v-2.74h-4.025v-3.643h7.895v8.328c-2.113 1.955-4.886 3.041-7.765 3.043-5.162.123-9.446-3.963-9.569-9.125-.005-.247-.001-.494.012-.741z"/><path d="m33.609 25.88v-.054c-.141-5.335 4.069-9.774 9.405-9.915s9.774 4.069 9.915 9.405c.004.152.004.305.001.457v.054c.141 5.335-4.069 9.774-9.405 9.915-5.335.141-9.774-4.069-9.915-9.405-.004-.152-.004-.304-.001-.457zm15.141 0v-.054c.186-3.14-2.209-5.835-5.349-6.021-.053-.003-.105-.005-.158-.007-3.096.078-5.542 2.65-5.464 5.746.002.076.005.152.01.229v.054c-.186 3.14 2.209 5.835 5.349 6.021.053.003.105.005.158.007 3.096-.078 5.542-2.65 5.464-5.746-.002-.076-.005-.153-.01-.229z"/></g></svg>