<svg height="70" viewBox="0 0 70 70" width="70" xmlns="http://www.w3.org/2000/svg" xmlns:xlink="http://www.w3.org/1999/xlink"><linearGradient id="a" gradientUnits="userSpaceOnUse" x1="56.64937" x2="36.84317" y1="28.45701" y2="58.65656"><stop offset=".17455" stop-color="#078efc"/><stop offset=".20439" stop-color="#118afc"/><stop offset=".43526" stop-color="#5971fc"/><stop offset=".62712" stop-color="#8e5efc"/><stop offset=".77048" stop-color="#af52fc"/><stop offset=".84913" stop-color="#bb4efc"/></linearGradient><linearGradient id="b" x1="6.62544" x2="48.81627" xlink:href="#a" y1="33.00425" y2="1.26256"/><linearGradient id="c" gradientUnits="userSpaceOnUse" x1="9.72477" x2="60.21956" y1="61.15027" y2="28.70235"><stop offset="0" stop-color="#078efc"/><stop offset=".1062" stop-color="#15a7d3"/><stop offset=".22803" stop-color="#23bfaa"/><stop offset=".34783" stop-color="#2dd28b"/><stop offset=".46344" stop-color="#35df74"/><stop offset=".57302" stop-color="#39e767"/><stop offset=".67012" stop-color="#3bea62"/></linearGradient><path d="m59.89951 23.16457 10.10049 22.43967-14.28067 24.39576-34.30143-27.9486 17.54239-16.90864z" fill="url(#a)"/><path d="m45.31747 44.745 10.40186 25.255-31.68856-10.893-2.61287-17.0556z" fill="#bb4efc"/><path d="m24.974 9.47856 14.58333 7.474-13.12504 39.73954-26.43229-.27461 5.67885-12.59156-5.67885-13.7998z" fill="#078efc"/><path d="m44.77623 0 5.38859 23.469-50.16482 6.55713 19.62922-30.02613z" fill="url(#b)"/><path d="m70 14.863-29.349 6.965-40.651 34.589 26.22 13.583 22.775-23.48z" fill="url(#c)"/><path d="m14 14h42v42h-42z"/><g fill="#fff"><path d="m17.98999 48.125h15.75v2.625h-15.75z"/><path d="m16.75983 28.21842v-.04835a8.88975 8.88975 0 0 1 9.0802-8.9573 9.514 9.514 0 0 1 6.8046 2.37531l-2.4005 2.89511a6.38214 6.38214 0 0 0 -4.528-1.75681 5.20279 5.20279 0 0 0 -4.97325 5.39533v.04836a5.18914 5.18914 0 0 0 5.24624 5.492 6.07769 6.07769 0 0 0 3.58715-1.03958v-2.474h-3.835v-3.29h7.52183v7.52083a11.2324 11.2324 0 0 1 -7.39793 2.748c-5.39428.00005-9.10534-3.78555-9.10534-8.9089z"/><path d="m34.86336 28.21842v-.04835a8.9565 8.9565 0 0 1 9.22928-8.9573 8.87483 8.87483 0 0 1 9.17892 8.90894v.04836a8.95651 8.95651 0 0 1 -9.22928 8.9573 8.87484 8.87484 0 0 1 -9.17892-8.90895zm14.42516 0v-.04835a5.26244 5.26244 0 0 0 -5.24624-5.44369 5.18107 5.18107 0 0 0 -5.19588 5.39533v.04836a5.26243 5.26243 0 0 0 5.24624 5.44368 5.18108 5.18108 0 0 0 5.19588-5.39533z"/></g><path d="m37 53h33v17h-33z" fill="#d99e2b"/><path d="m40.05563 66.966h7.19661v-1.72329h-5.50724v-2.94521h4.82041v-1.72325h-4.82041v-2.85131h5.43874v-1.72325h-7.12811z"/><path d="m48.15627 66.966h1.86832l1.06757-2.6268h4.9082l1.05281 2.6268h1.9277l-4.5671-10.95841h-1.6904zm3.60316-4.321 1.77945-4.35241 1.79421 4.35241z"/><path d="m59.87536 66.966h1.62869v-3.52491h1.84026a3.50288 3.50288 0 0 0 3.70715-3.74426v-.03124a3.3623 3.3623 0 0 0 -3.52185-3.6659h-3.65425zm1.62869-5.26364v-3.94818h1.89333a1.80657 1.80657 0 0 1 1.99894 1.95836v.03146a1.86935 1.86935 0 0 1 -1.99894 1.95836z"/><path d="m37 53h33v17h-33z" fill="#d99e2b"/><path d="m40.05563 66.966h7.19661v-1.72329h-5.50724v-2.94521h4.82041v-1.72325h-4.82041v-2.85131h5.43874v-1.72325h-7.12811z"/><path d="m48.15627 66.966h1.86832l1.06757-2.6268h4.9082l1.05281 2.6268h1.9277l-4.5671-10.95841h-1.6904zm3.60316-4.321 1.77945-4.35241 1.79421 4.35241z"/><path d="m59.87536 66.966h1.62869v-3.52491h1.84026a3.50285 3.50285 0 0 0 3.70715-3.74426v-.03124a3.36233 3.36233 0 0 0 -3.52185-3.6659h-3.65425zm1.62869-5.26364v-3.94818h1.89333a1.80658 1.80658 0 0 1 1.99894 1.95836v.03146a1.86938 1.86938 0 0 1 -1.99894 1.95836z"/></svg>