<svg xmlns="http://www.w3.org/2000/svg" width="238" height="64" fill="none" viewBox="0 0 238 64">
  <defs>
    <linearGradient id="a" x1="63.6351" x2="39.318" y1="54.0451" y2="1.59593" gradientUnits="userSpaceOnUse">
      <stop offset=".24" stop-color="#00D886"/>
      <stop offset=".51" stop-color="#007DFE"/>
    </linearGradient>
    <linearGradient id="b" x1="59.3792" x2=".674325" y1="4.38051" y2="63.0854" gradientUnits="userSpaceOnUse">
      <stop offset=".27" stop-color="#007DFE"/>
      <stop offset=".7" stop-color="#D249FC"/>
    </linearGradient>
  </defs>
  <path fill="#fff" d="M100.19 35.54h7.19c-.12 1.27-.53 2.42-1.26 3.46-.81 1.15-1.91 2.04-3.29 2.69-1.38.64-2.92.96-4.63.96-1.84 0-3.51-.46-5-1.38-1.49-.92-2.66-2.19-3.5-3.81-.84-1.62-1.26-3.44-1.26-5.47s.42-3.85 1.26-5.47c.84-1.62 2.01-2.89 3.5-3.81 1.49-.92 3.16-1.38 5-1.38 1.25 0 2.42.19 3.5.58 1.08.39 2.02.94 2.84 1.67.81.73 1.46 1.59 1.95 2.59h5.71c-.56-1.93-1.5-3.62-2.85-5.07-1.34-1.46-2.97-2.59-4.9-3.39-1.93-.81-4.02-1.21-6.29-1.21-2.85 0-5.43.67-7.74 2.02-2.3 1.35-4.12 3.2-5.44 5.56-1.32 2.36-1.98 5-1.98 7.91s.66 5.55 1.98 7.91c1.32 2.36 3.13 4.22 5.44 5.56 2.3 1.35 4.88 2.02 7.74 2.02 2.86 0 5.17-.61 7.37-1.82s3.93-2.87 5.19-4.99c1.26-2.11 1.88-4.48 1.88-7.11v-2.31h-12.41v4.29Zm32.59-9.5c-1.75-1-3.71-1.5-5.86-1.5-2.15 0-4.13.5-5.9 1.5-1.76 1-3.14 2.37-4.14 4.12-1 1.75-1.5 3.7-1.5 5.85 0 2.15.5 4.11 1.51 5.85 1.01 1.75 2.39 3.12 4.14 4.12 1.75 1 3.71 1.5 5.86 1.5 2.15 0 4.13-.5 5.89-1.5 1.76-1 3.13-2.37 4.14-4.12 1.01-1.75 1.51-3.7 1.51-5.85 0-2.15-.5-4.11-1.51-5.85-1.01-1.75-2.39-3.12-4.14-4.12Zm-.4 13.59c-.52 1.06-1.26 1.88-2.21 2.46-.95.58-2.05.88-3.27.88-1.22 0-2.32-.29-3.26-.88-.95-.58-1.68-1.41-2.2-2.46-.52-1.06-.78-2.26-.78-3.62 0-1.36.26-2.58.78-3.64s1.25-1.88 2.2-2.46c.95-.58 2.04-.88 3.26-.88 1.22 0 2.31.3 3.26.89.95.59 1.69 1.41 2.21 2.46.53 1.05.79 2.26.79 3.63s-.26 2.56-.78 3.62Zm15.53-22.62h-5.31v29.96h19.75v-4.82H147.9V17l.01.01Zm33.59 11.36c-.71-1.09-1.62-1.97-2.73-2.63-1.36-.8-2.95-1.2-4.76-1.2-1.95 0-3.7.49-5.23 1.47-1.53.98-2.74 2.34-3.61 4.09-.87 1.75-1.3 3.72-1.3 5.92 0 2.2.43 4.17 1.3 5.92.87 1.75 2.08 3.11 3.62 4.09s3.28 1.47 5.22 1.47c1.81 0 3.4-.4 4.76-1.2 1.11-.65 2.02-1.54 2.73-2.63v3.31h4.96V25.06h-4.96v3.31Zm-.82 11.27c-.53 1.05-1.26 1.87-2.2 2.46-.94.59-2.03.89-3.25.89-1.22 0-2.27-.29-3.21-.88-.94-.58-1.67-1.4-2.19-2.46s-.78-2.27-.78-3.64.26-2.58.78-3.63c.52-1.05 1.25-1.87 2.19-2.46.94-.59 2.01-.89 3.21-.89 1.2 0 2.31.3 3.25.89.94.59 1.68 1.41 2.2 2.46.53 1.05.79 2.26.79 3.63s-.26 2.58-.79 3.63Zm26.65-14.07c-1.18-.69-2.56-1.03-4.13-1.03-1.68 0-3.15.39-4.4 1.18-1.01.63-1.82 1.49-2.45 2.55v-3.21h-4.9v21.92h5.05V34.29c0-1.03.21-1.94.63-2.75.42-.81 1.02-1.43 1.79-1.88.77-.45 1.66-.67 2.65-.67.93 0 1.73.2 2.4.59.67.39 1.18.96 1.54 1.7.36.74.54 1.64.54 2.7v13.01h5.03V33.21c0-1.8-.33-3.35-.98-4.64-.65-1.29-1.58-2.29-2.76-2.97l-.01-.03Zm24.91-8.56v11.32c-.71-1.07-1.61-1.95-2.71-2.59-1.36-.8-2.95-1.2-4.76-1.2-1.96 0-3.7.49-5.23 1.47-1.53.98-2.74 2.34-3.61 4.09-.87 1.75-1.31 3.72-1.31 5.92 0 2.2.44 4.17 1.31 5.92.87 1.75 2.08 3.11 3.62 4.09s3.28 1.47 5.22 1.47c1.81 0 3.4-.4 4.76-1.2 1.1-.65 2-1.52 2.71-2.59v3.28h5.05V17.03h-5.05v-.02Zm-.8 22.63c-.53 1.05-1.26 1.87-2.21 2.46-.94.59-2.03.89-3.25.89-1.22 0-2.27-.29-3.21-.88-.94-.58-1.67-1.4-2.19-2.46s-.78-2.27-.78-3.64.26-2.58.78-3.63c.52-1.05 1.25-1.87 2.19-2.46.94-.59 2.01-.89 3.21-.89 1.2 0 2.31.3 3.25.89.94.59 1.68 1.41 2.21 2.46s.79 2.26.79 3.63-.26 2.58-.79 3.63Z"/>
  <path fill="#00D886" d="m48.0531 58.1839 11.8755-.0017c2.2493 0 4.0722-1.8234 4.0722-4.0727V42.6029c0-1.1887-.5196-2.3186-1.422-3.0924L24.4173 6.80068c-.7383-.63244-1.6785-.98037-2.6507-.98037H9.89109c-2.24931 0-4.07273 1.82342-4.07273 4.07273V21.4014c0 1.1887.51956 2.3185 1.42196 3.0924L45.4012 57.203c.7383.633 1.6785.9804 2.6513.9804l.0006.0005Z"/>
  <path fill="url(#a)" d="M49.4806 58.1818h10.4465c2.2493 0 4.0728-1.8234 4.0728-4.0727V41.0164c0-.1925-.014-.3851-.0408-.576L58.6815 3.49673C58.3952 1.49062 56.6765 0 54.65 0H38.977c-2.2499 0-4.0733 1.824-4.0727 4.07389l.0047 18.53851c0 .4375.0704.8721.2088 1.2869l10.4995 31.4979c.5545 1.6629 2.1109 2.7846 3.8639 2.7846h-.0006Z"/>
  <path fill="url(#b)" d="M4.07273 64H38.041c1.6291 0 3.1017-.9711 3.7434-2.4681l16.0681-37.4906c.217-.5068.3293-1.0531.3293-1.6046V4.07273C58.1818 1.82342 56.3584 0 54.1091 0h-17.966c-.8046 0-1.5912.238545-2.2609.685382L1.81353 22.0881C.681309 22.8439.001745 24.1146.001745 25.4755L0 59.9273C0 62.1766 1.82342 64 4.07273 64Z"/>
  <path fill="#000" d="M52 12H12v40h40V12Z"/>
  <path fill="#fff" d="M19.764 31.6245c1.174.6765 2.4847 1.0155 3.9318 1.0155 1.3899 0 2.6427-.3095 3.7589-.9293 1.1231-.6197 2.005-1.4651 2.6461-2.5384.6481-1.0798.9721-2.2857.9721-3.6183v-1.1879h-6.405v2.3221h3.516c-.0722.5605-.2761 1.0718-.6106 1.5339-.3958.5468-.9322.9762-1.6092 1.2852-.6701.3096-1.4188.4646-2.2469.4646-.8928 0-1.6988-.2227-2.4193-.6695-.7204-.4467-1.2857-1.0583-1.6959-1.836-.4034-.784-.6047-1.667-.6047-2.6461 0-.979.2013-1.858.6047-2.6357.4108-.7846.9761-1.4003 1.6959-1.847.7199-.4467 1.5265-.6695 2.4193-.6695.6053 0 1.1706.0972 1.696.2916.526.1875.9831.4577 1.372.8101.3958.3455.7094.7563.9397 1.2314h3.1542c-.2737-.9866-.7529-1.8575-1.4368-2.6137-.677-.7563-1.5126-1.3436-2.5061-1.7608-.9866-.4172-2.0669-.6267-3.2404-.6267-1.4477 0-2.7583.3414-3.9318 1.0259-1.1741.6765-2.0959 1.6133-2.7653 2.8082-.6695 1.1879-1.0046 2.5165-1.0046 3.9856 0 1.4692.3351 2.8018 1.0046 3.9967.67 1.1879 1.5918 2.1236 2.7653 2.8081Z"/>
  <path fill="#fff" fill-rule="evenodd" d="M36.1829 31.6245c1.181.6765 2.4951 1.0155 3.9422 1.0155 1.4541 0 2.7688-.339 3.9423-1.0155 1.181-.6845 2.1062-1.6202 2.7757-2.8081.6695-1.1949 1.0045-2.5275 1.0045-3.9967 0-1.4691-.335-2.7977-1.0045-3.9856-.6695-1.1949-1.5947-2.1317-2.7757-2.8082C42.8939 17.3414 41.5723 17 40.1251 17c-1.4471 0-2.7612.3414-3.9422 1.0259-1.1735.6765-2.0988 1.6133-2.7758 2.8082-.6695 1.1879-1.0045 2.5165-1.0045 3.9856 0 1.4692.335 2.8018 1.0045 3.9967.6765 1.1879 1.6023 2.1236 2.7758 2.8081Zm6.3621-2.2463c-.7129.4468-1.516.6695-2.4089.6695-.8928 0-1.6994-.2227-2.4193-.6695-.7128-.4536-1.2747-1.0756-1.685-1.8684-.4033-.7991-.6046-1.696-.6046-2.6895 0-.9935.2013-1.8858.6046-2.6785.4103-.7991.9722-1.4217 1.685-1.8684.7199-.4537 1.5265-.6805 2.4193-.6805.8929 0 1.696.2268 2.4089.6805.7129.4467 1.2707 1.0693 1.674 1.8684.4033.7921.6047 1.685.6047 2.6785s-.2014 1.8904-.6047 2.6895c-.4033.7922-.9611 1.4148-1.674 1.8684Z" clip-rule="evenodd"/>
  <path fill="#fff" d="M16.9941 44h16v3h-16v-3Z"/>
</svg>
