<svg xmlns="http://www.w3.org/2000/svg" width="544" height="91" fill="none" viewBox="0 0 544 91">
  <path fill="#000" d="M0 4H85V89H0V4Z"/>
  <path fill="#fff" d="M10.4517 72.7625H42.3117V78.0725H10.4517V72.7625Z"/>
  <path fill="#fff" d="M8.18607 30.4666V30.3817C8.16855 28.1869 8.59146 26.0109 9.42977 23.9824C10.2681 21.954 11.5048 20.1143 13.0666 18.5722C14.6285 17.0302 16.4838 15.8171 18.5228 15.0047C20.5618 14.1924 22.743 13.7973 24.9373 13.8428C29.5382 13.5986 34.0501 15.1755 37.4973 18.2324L33.136 23.5707C30.8871 21.4315 27.8848 20.2662 24.7816 20.3281C22.2549 20.4385 19.8739 21.5416 18.1558 23.3975C16.4378 25.2535 15.5214 27.7124 15.6059 30.2401V30.3392C15.6059 36.1731 19.6273 40.4777 25.2913 40.4777C27.618 40.523 29.9022 39.8506 31.8333 38.552V34.0349H24.7533V27.9603H38.6442V41.8371C34.8568 45.1218 30.0074 46.9228 24.994 46.9064C15.0395 46.9064 8.18607 39.968 8.18607 30.4666V30.4666Z"/>
  <path fill="#fff" d="M41.9152 30.5091V30.4242C41.9125 28.2124 42.3535 26.0226 43.212 23.9842C44.0705 21.9459 45.3291 20.1004 46.9134 18.557C48.4977 17.0137 50.3754 15.8038 52.4355 14.9989C54.4957 14.194 56.6963 13.8105 58.9072 13.8711C61.1149 13.791 63.3159 14.1578 65.3783 14.9494C67.4406 15.7411 69.3217 16.9413 70.9087 18.478C72.4957 20.0147 73.7558 21.8563 74.6134 23.8921C75.471 25.9279 75.9083 28.116 75.8992 30.3251V30.41C75.9 32.6212 75.4578 34.8102 74.5986 36.8477C73.7394 38.8851 72.4807 40.7298 70.8968 42.2728C69.3129 43.8157 67.436 45.0257 65.3767 45.8313C63.3175 46.6369 61.1177 47.0217 58.9072 46.9631C56.6991 47.0452 54.4972 46.6798 52.434 45.8889C50.3707 45.098 48.4888 43.8979 46.9014 42.3607C45.314 40.8236 44.054 38.9813 43.1971 36.9445C42.3402 34.9078 41.9042 32.7188 41.9152 30.5091V30.5091ZM68.5502 30.5091V30.41C68.5938 29.1096 68.3758 27.8137 67.9089 26.5992C67.4421 25.3847 66.7361 24.2764 65.8327 23.34C64.9293 22.4036 63.8471 21.6583 62.6501 21.1482C61.4531 20.6381 60.1659 20.3736 58.8648 20.3706C57.5762 20.366 56.3 20.6215 55.1127 21.122C53.9253 21.6225 52.8512 22.3575 51.9547 23.2831C51.0582 24.2086 50.3578 25.3056 49.8955 26.5084C49.4332 27.7111 49.2185 28.9949 49.2643 30.2826V30.3817C49.2207 31.6821 49.4387 32.978 49.9055 34.1925C50.3723 35.407 51.0784 36.5153 51.9818 37.4517C52.8851 38.3881 53.9674 39.1335 55.1644 39.6436C56.3614 40.1537 57.6486 40.4181 58.9497 40.4211C60.2371 40.4239 61.5117 40.1669 62.6975 39.6656C63.8832 39.1643 64.9556 38.4289 65.8506 37.5036C66.7455 36.5782 67.4446 35.4818 67.9061 34.28C68.3675 33.0782 68.5818 31.7957 68.536 30.5091H68.5502Z"/>
  <g id="text-name">
    <path fill="#fff" d="M113.126 46.5383V46.2976C113.126 22.0982 131.973 2.27417 157.758 2.27417C173.079 2.27417 182.326 6.40889 191.19 13.9562L179.395 28.187C172.839 22.7071 167.005 19.5494 157.149 19.5494C143.528 19.5494 132.709 31.5854 132.709 46.0569V46.2976C132.709 61.8736 143.414 73.2866 158.48 73.2866C164.76 73.482 170.942 71.6988 176.152 68.189V56.0255H157.277V39.8548H194.234V76.7841C184.146 85.5359 171.227 90.3351 157.872 90.2927C131.364 90.321 113.126 71.7148 113.126 46.5383V46.5383Z"/>
    <path fill="#fff" d="M200.691 56.6344V56.3937C200.691 37.66 215.772 22.4097 236.091 22.4097C256.411 22.4097 271.237 37.3626 271.237 56.0963V56.337C271.237 75.0565 256.156 90.321 235.837 90.321C215.517 90.321 200.691 75.3681 200.691 56.6344ZM252.97 56.6344V56.3937C252.97 46.779 246.046 38.3963 235.837 38.3963C225.259 38.3963 218.929 46.5383 218.929 56.1529V56.3937C218.929 65.9941 225.868 74.391 236.077 74.391C246.655 74.391 252.97 66.2349 252.97 56.6344Z"/>
    <path fill="#fff" d="M276.405 3.74683H295.096V71.8281H337.576V88.8201H276.405V3.74683Z"/>
    <path fill="#fff" d="M340.791 70.1287V69.888C340.791 55.728 351.609 49.1011 367.057 49.1011C372.483 49.0523 377.875 49.9582 382.987 51.7773V50.6728C382.987 43.0123 378.244 38.7643 368.997 38.7643C362.827 38.7681 356.716 39.9654 351 42.2901L346.384 28.1301C354.312 24.5123 362.961 22.7495 371.673 22.9759C381.77 22.9759 389.062 25.6521 393.678 30.2824C398.549 35.1393 400.758 42.3184 400.758 51.0693V88.8624H382.888V81.7824C378.385 86.7667 372.183 90.0518 363.192 90.0518C350.887 90.0801 340.791 83.0143 340.791 70.1287V70.1287ZM383.271 65.8807V62.6239C379.556 60.9853 375.535 60.1551 371.475 60.1884C363.574 60.1884 358.731 63.346 358.731 69.1941V69.4348C358.731 74.4192 362.866 77.3361 368.827 77.3361C377.394 77.3078 383.228 72.5359 383.228 65.8807H383.271Z"/>
    <path fill="#fff" d="M408.815 23.6841H427.294V32.8881C431.542 27.4223 437.022 22.438 446.381 22.438C460.372 22.438 468.514 31.6845 468.514 46.6374V88.8342H450.035V52.4997C450.035 43.7488 445.9 39.2459 438.848 39.2459C431.797 39.2459 427.294 43.7488 427.294 52.4997V88.8625H408.815V23.6841Z"/>
    <path fill="#fff" d="M474.928 56.3937V56.1529C474.928 34.389 489.088 22.4663 504.523 22.4663C508.432 22.3884 512.305 23.2278 515.831 24.9172C519.358 26.6066 522.439 29.0989 524.828 32.1942V0.0935059H543.321V88.8625H524.828V79.4886C520.325 85.5774 514.137 90.0803 504.523 90.0803C489.329 90.0803 474.928 78.2001 474.928 56.3937ZM525.14 56.3937V56.1529C525.14 45.3205 517.975 38.1556 509.337 38.1556C500.699 38.1556 493.336 45.2073 493.336 56.1529V56.3937C493.336 67.2119 500.629 74.391 509.266 74.391C517.904 74.391 525.069 67.2119 525.069 56.3937H525.14Z"/>
  </g>
</svg>
