<svg enable-background="new 0 0 554.144 108.383" height="108.383" viewBox="0 0 554.144 108.383" width="554.144" xmlns="http://www.w3.org/2000/svg"><path d="m0 3.664h85.039v85.039h-85.039z" fill="#000001"/><path d="m7.973 72.76h31.889v5.314h-31.889z" fill="#fff"/><path d="m105.817 46.414v-.242c0-24.18 18.833-43.985 44.592-43.985 15.31 0 24.544 4.132 33.414 11.665l-11.786 14.216c-6.562-5.468-12.394-8.627-22.236-8.627-13.608 0-24.422 12.029-24.422 26.488v.243c0 15.553 10.692 26.975 25.759 26.975 6.805 0 12.88-1.701 17.619-5.104v-12.15h-18.833v-16.16h36.938v36.937c-8.748 7.412-20.777 13.486-36.33 13.486-26.49 0-44.715-18.589-44.715-43.742z"/><path d="m189.528 56.5v-.243c0-18.712 15.067-33.9 35.358-33.9 20.17 0 35.115 14.945 35.115 33.657v.243c0 18.712-15.067 33.899-35.358 33.899-20.169 0-35.115-14.945-35.115-33.656zm52.248 0v-.243c0-9.599-6.926-17.983-17.132-17.983-10.571 0-16.889 8.141-16.889 17.74v.243c0 9.599 6.926 17.983 17.132 17.983 10.57 0 16.889-8.141 16.889-17.74z"/><path d="m263.52 101.578 6.318-13.852c6.683 3.767 13.366 5.954 21.992 5.954 12.637 0 18.591-6.075 18.591-17.74v-3.159c-5.468 6.562-11.422 10.571-21.264 10.571-15.188 0-28.918-11.058-28.918-30.376v-.244c0-19.44 13.973-30.376 28.918-30.376 10.085 0 16.039 4.253 21.021 9.721v-8.505h18.469v50.424c0 11.665-2.795 20.17-8.263 25.639-6.075 6.074-15.431 8.748-28.067 8.748-10.571 0-20.535-2.43-28.797-6.805zm46.901-48.601v-.244c0-8.869-6.926-15.066-15.917-15.066-8.992 0-15.796 6.197-15.796 15.066v.244c0 8.99 6.805 15.066 15.796 15.066 8.992 0 15.917-6.197 15.917-15.066z"/><path d="m335.81 0h18.469v88.699h-18.469z"/><path d="m357.557 69.986v-.242c0-14.217 10.814-20.777 26.245-20.777 6.562 0 11.301 1.094 15.918 2.673v-1.094c0-7.655-4.739-11.907-13.974-11.907-7.047 0-12.029 1.336-17.982 3.523l-4.617-14.095c7.168-3.159 14.216-5.225 25.272-5.225 10.085 0 17.376 2.673 21.993 7.29 4.86 4.86 7.047 12.029 7.047 20.777v37.789h-17.861v-7.048c-4.495 4.981-10.692 8.263-19.684 8.263-12.272.001-22.357-7.046-22.357-19.927zm42.405-4.252v-3.281c-3.159-1.457-7.29-2.43-11.785-2.43-7.898 0-12.759 3.159-12.759 8.991v.243c0 4.982 4.132 7.898 10.085 7.898 8.627.001 14.459-4.738 14.459-11.421z"/><path d="m423.166 23.572h18.469v9.234c4.253-5.469 9.721-10.45 19.076-10.45 13.974 0 22.114 9.234 22.114 24.18v42.163h-18.469v-36.33c0-8.749-4.132-13.244-11.179-13.244-7.048 0-11.543 4.495-11.543 13.244v36.33h-18.469v-65.127z"/><path d="m485.737 56.257v-.243c0-21.75 14.216-33.657 29.647-33.657 9.842 0 15.917 4.496 20.291 9.721v-32.078h18.469v88.699h-18.469v-9.356c-4.496 6.075-10.692 10.571-20.291 10.571-15.188 0-29.647-11.908-29.647-33.657zm50.181 0v-.243c0-10.814-7.169-17.982-15.796-17.982s-15.917 7.047-15.917 17.982v.243c0 10.813 7.29 17.983 15.917 17.983s15.796-7.17 15.796-17.983z"/><g fill="#fff"><path d="m6.818 25.007v-.059c0-6.036 4.701-10.981 11.131-10.981 3.822 0 6.128 1.032 8.342 2.912l-2.943 3.549c-1.637-1.366-3.093-2.154-5.551-2.154-3.397 0-6.097 3.003-6.097 6.612v.062c0 3.882 2.67 6.732 6.431 6.732 1.698 0 3.214-.425 4.397-1.274v-3.033h-4.701v-4.033h9.221v9.22c-2.183 1.852-5.187 3.369-9.069 3.369-6.612-.001-11.161-4.642-11.161-10.922z"/><path d="m30.094 25.007v-.059c0-6.036 4.762-10.981 11.314-10.981 6.551 0 11.252 4.883 11.252 10.919v.062c0 6.036-4.762 10.981-11.314 10.981-6.551-.001-11.252-4.886-11.252-10.922zm17.684-.001v-.059c0-3.64-2.67-6.673-6.431-6.673-3.76 0-6.37 2.974-6.37 6.612v.062c0 3.64 2.67 6.673 6.431 6.673 3.76-.001 6.37-2.974 6.37-6.615z"/></g></svg>