<svg xmlns="http://www.w3.org/2000/svg" width="48" height="48" fill="none" viewBox="0 0 48 48">
  <defs>
    <linearGradient id="b" x1="4.75407" x2="70.6146" y1="8.63622" y2="59.748" gradientUnits="userSpaceOnUse">
      <stop stop-color="#955AE0"/>
      <stop offset="1" stop-color="#4D67F0"/>
    </linearGradient>
    <clipPath id="a">
      <path fill="#fff" d="M0 0h48v48H0z"/>
    </clipPath>
  </defs>
  <g clip-path="url(#a)">
    <path fill="url(#b)" d="M3.72781 8.16C8.04781 5.7 13.9878 4.5 19.0878 4.5c14.94 0 24.42 6.96 24.42 16.38 0 7.5-6.54 12.12-15.24 12.12-7.02 0-12.24-2.58-12.24-6 0-3.24 3.3-4.8 7.98-3l1.2-3.66c-7.26-2.34-13.26.96-13.26 6.66s7.08 9.78 16.56 9.78c11.28 0 19.5-6.24 19.5-15.9 0-12.06-11.4-20.88-28.92-20.88-5.64 0-11.99999 1.44-17.21999 4.26l1.86 3.9ZM44.2878 39.84c-4.32 2.46-10.26 3.66-15.36 3.66-14.94 0-24.41999-6.96-24.41999-16.38 0-7.5 6.53999-12.12 15.23999-12.12 7.02 0 12.24 2.58 12.24 6 0 3.24-3.3 4.8-7.98 3l-1.2 3.66c7.26 2.34 13.26-.96 13.26-6.66s-7.08-9.78-16.56-9.78C8.22781 11.22.007813 17.46.007813 27.12.007813 39.18 11.4078 48 28.9278 48c5.64 0 12-1.44 17.22-4.26l-1.86-3.9Z"/>
  </g>
</svg>
