<svg xmlns="http://www.w3.org/2000/svg" width="309" height="64" fill="none" viewBox="0 0 309 64">
  <defs>
    <linearGradient id="a" x1="-.719999" x2="24.1436" y1="7.62784" y2="61.2524" gradientUnits="userSpaceOnUse">
      <stop offset=".1" stop-color="#FC801D"/>
      <stop offset=".59" stop-color="#FE2857"/>
    </linearGradient>
    <linearGradient id="b" x1="4.22031" x2="62.9211" y1="60.0205" y2="1.31055" gradientUnits="userSpaceOnUse">
      <stop offset=".21" stop-color="#FE2857"/>
      <stop offset=".7" stop-color="#007EFF"/>
    </linearGradient>
  </defs>
  <path fill="#000" d="M84 46.9622h5.46v-29.96H84v29.96Zm26.74-21.4c-1.18-.69-2.56-1.03-4.13-1.03-1.68 0-3.15.39-4.4 1.18-1.01.63-1.82 1.49-2.45 2.55v-3.21h-4.9v21.92h5.05v-12.69c0-1.03.21-1.94.63-2.75.42-.81 1.02-1.43 1.79-1.88.77-.45 1.65-.67 2.65-.67.93 0 1.73.2 2.4.59.67.39 1.18.96 1.54 1.7.36.74.54 1.64.54 2.7v13.01h5.03v-13.78c0-1.8-.33-3.35-.98-4.64-.65-1.29-1.58-2.29-2.76-2.97l-.01-.03Zm14.85-5.86h-4.71v3.55c0 .53-.16.96-.49 1.29-.33.34-.76.5-1.31.5h-2.4l-.02 4.39h3.85l.02 11.71c0 1.11.26 2.11.78 3 .52.88 1.25 1.58 2.18 2.08.93.5 1.99.75 3.16.75h4.73v-4.39h-3.72c-.6 0-1.1-.2-1.49-.59-.39-.39-.59-.89-.59-1.49l-.02-11.06h5.82l.02-4.39h-5.82v-5.35h.01Zm24.28 6.29c-1.68-.97-3.6-1.46-5.76-1.46-2.16 0-4.03.5-5.77 1.49-1.73.99-3.1 2.36-4.1 4.1-1 1.74-1.5 3.69-1.5 5.84s.5 4.17 1.49 5.93c.99 1.76 2.35 3.12 4.07 4.11 1.72.98 3.66 1.48 5.81 1.48 1.7 0 3.25-.26 4.64-.79 1.4-.53 2.59-1.28 3.57-2.25s1.73-2.13 2.25-3.49h-5.5c-.56.74-1.26 1.32-2.1 1.73-.84.41-1.79.62-2.85.62-1.2 0-2.27-.29-3.22-.88-.95-.59-1.69-1.4-2.23-2.45-.43-.83-.68-1.76-.78-2.77h17.29v-1.22c0-2.23-.47-4.21-1.4-5.94-.93-1.73-2.24-3.08-3.93-4.06l.02.01Zm-11.88 7.83c.13-.72.34-1.4.67-2.02.54-1.02 1.28-1.82 2.23-2.4.95-.58 2.02-.87 3.22-.87 1.2 0 2.26.3 3.18.9.92.6 1.63 1.43 2.13 2.49.28.59.47 1.22.59 1.89h-12.02v.01Zm20.87 13.14h5.05v-29.96h-5.05v29.96Zm9.93 0h5.05v-29.96h-5.05v29.96Zm14.97-8.58v-13.95h-5.14v13.95h5.14Zm6.53-1.65c0 1.06-.23 1.99-.69 2.8-.46.81-1.1 1.44-1.92 1.89-.82.45-1.77.67-2.84.67h-6.23v4.86h6.33c2.11 0 3.97-.41 5.58-1.22 1.6-.81 2.85-1.95 3.75-3.42.89-1.47 1.34-3.17 1.34-5.12v-20.2h-5.33v19.73l.01.01Zm-6.1-18.87h-5.76v5.01h5.76v-5.01Zm30.09 29.1h5.46v-29.96h-5.46v29.96Zm30.21-28.03c-2.23-1.28-4.76-1.93-7.59-1.93h-11.24v29.96h11.24c2.83 0 5.35-.64 7.59-1.93s3.98-3.06 5.23-5.33c1.26-2.27 1.88-4.84 1.88-7.73 0-2.89-.63-5.46-1.88-7.73-1.26-2.27-3-4.04-5.23-5.33v.02Zm.51 18.53c-.76 1.56-1.85 2.75-3.25 3.6-1.4.85-3.04 1.26-4.89 1.26H231v-20.67h5.86c1.85 0 3.48.42 4.89 1.26 1.41.84 2.49 2.04 3.25 3.6.76 1.56 1.15 3.38 1.15 5.48 0 2.1-.38 3.92-1.15 5.48v-.01Zm16.23-3.25h14.6v-4.62h-14.6v-7.85h16.05v-4.73h-21.25v29.96h21.68v-4.73h-16.48v-8.03Zm35.63-17.21h-5.76l-10.87 29.96h5.52l2.35-7.19h12.03l2.55 7.19h5.39l-11.21-29.96Zm-7.43 18.58 4.04-12.01.45-1.86.47 1.86 4.3 12.01h-9.27.01Z"/>
  <path fill="#FF8100" d="M15.95 5.82812H4.07C1.82 5.82812 0 7.65784 0 9.89748V21.4057c0 1.1898.519998 2.3196 1.42 3.0895L39.58 57.2c.74.6299 1.68.9799 2.65.9799h11.88c2.25 0 4.07-1.8197 4.07-4.0694V42.6023c0-1.1898-.52-2.3196-1.42-3.0895L18.6 6.80797c-.74-.6299-1.68-.97985-2.65-.97985Z"/>
  <path fill="url(#a)" d="M14.52 5.82812H4.07C1.82 5.82812 0 7.64784 0 9.89748V22.9854c0 .19.01.39.04.5799l5.28 36.9342c.29 2.0097 2 3.4995 4.03 3.4995h15.67c2.25 0 4.07-1.8197 4.07-4.0694V41.3925c0-.4399-.08-.8698-.21-1.2898L18.38 8.60769c-.55-1.65974-2.11-2.77957-3.86-2.77957Z"/>
  <path fill="url(#b)" d="M59.9303.009997h-33.97c-1.63 0-3.1.969848-3.74 2.469613L6.15031 39.9637c-.22.5099-.33 1.0498-.33 1.5997v18.3572c0 2.2496 1.82 4.0693 4.07 4.0693H27.8603c.8 0 1.59-.2399 2.26-.6899l32.07-21.3966c1.13-.7599 1.81-2.0297 1.81-3.3895V4.06936c0-2.24965-1.82-4.06936-4.07-4.06936v.009997Z"/>
  <path fill="#000" d="M52 12H12v40h40V12Z"/>
  <path fill="#fff" d="M25.84 29.39h-2.98v-9.77h2.98v-2.61H17v2.61h2.98v9.77H17V32h8.84v-2.61ZM31.72 17v10.07c0 .44-.09.82-.28 1.16-.19.34-.45.6-.79.79-.34.19-.73.28-1.16.28h-2.15V32h2.52c.91 0 1.72-.2 2.45-.61.73-.41 1.3-.97 1.71-1.69.41-.72.62-1.53.62-2.43V17h-2.92ZM17 47h16v-3H17v3Z"/>
</svg>
