<svg id="Layer_1" data-name="Layer 1" xmlns="http://www.w3.org/2000/svg" xmlns:xlink="http://www.w3.org/1999/xlink" width="70" height="70" viewBox="0 0 70 70">
  <defs>
    <linearGradient id="linear-gradient" x1="0.78984" y1="40.08934" x2="33.31716" y2="40.08934" gradientUnits="userSpaceOnUse">
      <stop offset="0.25806" stop-color="#f97a12"/>
      <stop offset="0.45911" stop-color="#b07b58"/>
      <stop offset="0.7241" stop-color="#577bae"/>
      <stop offset="0.91053" stop-color="#1e7ce5"/>
      <stop offset="1" stop-color="#087cfa"/>
    </linearGradient>
    <linearGradient id="linear-gradient-2" x1="25.76735" y1="24.87998" x2="79.42399" y2="54.56998" gradientUnits="userSpaceOnUse">
      <stop offset="0" stop-color="#f97a12"/>
      <stop offset="0.0718" stop-color="#cb7a3e"/>
      <stop offset="0.15406" stop-color="#9e7b6a"/>
      <stop offset="0.24204" stop-color="#757b91"/>
      <stop offset="0.33443" stop-color="#537bb1"/>
      <stop offset="0.43243" stop-color="#387ccc"/>
      <stop offset="0.53813" stop-color="#237ce0"/>
      <stop offset="0.65516" stop-color="#147cef"/>
      <stop offset="0.79251" stop-color="#0b7cf7"/>
      <stop offset="1" stop-color="#087cfa"/>
    </linearGradient>
    <linearGradient id="linear-gradient-3" x1="63.22771" y1="42.91532" x2="48.29029" y2="-1.7191" gradientUnits="userSpaceOnUse">
      <stop offset="0" stop-color="#fe315d"/>
      <stop offset="0.0784" stop-color="#cb417e"/>
      <stop offset="0.16008" stop-color="#9e4e9b"/>
      <stop offset="0.24742" stop-color="#755bb4"/>
      <stop offset="0.33917" stop-color="#5365ca"/>
      <stop offset="0.43648" stop-color="#386ddb"/>
      <stop offset="0.54144" stop-color="#2374e9"/>
      <stop offset="0.65763" stop-color="#1478f3"/>
      <stop offset="0.794" stop-color="#0b7bf8"/>
      <stop offset="1" stop-color="#087cfa"/>
    </linearGradient>
    <linearGradient id="linear-gradient-4" x1="10.72041" y1="16.47301" x2="55.52366" y2="90.58001" gradientUnits="userSpaceOnUse">
      <stop offset="0" stop-color="#fe315d"/>
      <stop offset="0.04023" stop-color="#f63462"/>
      <stop offset="0.10373" stop-color="#df3a71"/>
      <stop offset="0.16667" stop-color="#c24383"/>
      <stop offset="0.29121" stop-color="#ad4a91"/>
      <stop offset="0.5498" stop-color="#755bb4"/>
      <stop offset="0.91755" stop-color="#1d76ed"/>
      <stop offset="1" stop-color="#087cfa"/>
    </linearGradient>
  </defs>
  <title>IntelliJIDEAEAP</title>
  <g>
    <polygon points="17.688 54.582 0.79 41.245 9.239 25.597 33.317 35.03 17.688 54.582" fill="url(#linear-gradient)"/>
    <polygon points="70 18.662 68.742 59.205 41.777 70 25.598 59.561 49.251 34.964 38.9 12.261 48.248 1.058 70 18.662" fill="url(#linear-gradient-2)"/>
    <polygon points="70 18.662 48.672 43.912 38.9 12.261 48.248 1.058 70 18.662" fill="url(#linear-gradient-3)"/>
    <polygon points="33.687 58.138 5.644 68.274 10.14 52.544 15.955 33.065 0 27.732 10.14 0 32.069 2.658 53.706 27.375 33.687 58.138" fill="url(#linear-gradient-4)"/>
  </g>
  <g>
    <rect x="14" y="14" width="42" height="42"/>
    <rect x="17.98999" y="48.125" width="15.75" height="2.625" fill="#fff"/>
  </g>
  <polygon points="29.269 22.649 29.269 19.461 20.573 19.461 20.573 22.649 23.008 22.649 23.008 33.663 20.573 33.663 20.573 36.852 29.269 36.852 29.269 33.663 26.834 33.663 26.834 22.649 29.269 22.649" fill="#fff"/>
  <path d="M37.61656,37.10026a6.92231,6.92231,0,0,1-3.41622-.77021,8.019,8.019,0,0,1-2.27317-1.83831l2.41015-2.68347a6.88845,6.88845,0,0,0,1.503,1.27938,3.16575,3.16575,0,0,0,1.67677.46006,2.19777,2.19777,0,0,0,1.71424-.68364,3.2133,3.2133,0,0,0,.62161-2.19885v-11.205h3.92538V30.839a7.814,7.814,0,0,1-.42259,2.70867,5.29435,5.29435,0,0,1-1.21736,1.93781,5.15053,5.15053,0,0,1-1.95008,1.20509,7.66587,7.66587,0,0,1-2.57169.40965" fill="#fff"/>
  <g>
    <rect x="37" y="53" width="33" height="17" fill="#d99e2b"/>
    <g>
      <path d="M40.05563,66.966h7.19661V65.24271H41.745V62.2975h4.82041V60.57425H41.745V57.72294h5.43874V55.99969H40.05563Z"/>
      <path d="M48.15627,66.966h1.86832l1.06757-2.6268h4.9082l1.05281,2.6268h1.9277l-4.5671-10.95841h-1.6904Zm3.60316-4.321,1.77945-4.35241L55.33309,62.645Z"/>
      <path d="M59.87536,66.966h1.62869V63.44109h1.84026a3.50285,3.50285,0,0,0,3.70715-3.74426v-.03124a3.36233,3.36233,0,0,0-3.52185-3.6659H59.87536Zm1.62869-5.26364V57.75418h1.89333a1.80658,1.80658,0,0,1,1.99894,1.95836V59.744a1.86938,1.86938,0,0,1-1.99894,1.95836Z"/>
    </g>
  </g>
</svg>
