<svg xmlns="http://www.w3.org/2000/svg" width="128" height="128" fill="none" viewBox="0 0 128 128">
  <defs>
    <linearGradient id="a" x1="-.78125" x2="48.785" y1="15.3413" y2="122.251" gradientUnits="userSpaceOnUse">
      <stop offset=".1" stop-color="#FC801D"/>
      <stop offset=".59" stop-color="#FE2857"/>
    </linearGradient>
    <linearGradient id="b" x1="8.64822" x2="125.839" y1="119.865" y2="2.6725" gradientUnits="userSpaceOnUse">
      <stop offset=".21" stop-color="#FE2857"/>
      <stop offset=".7" stop-color="#007EFF"/>
    </linearGradient>
  </defs>
  <path fill="#FF8100" d="M32.9001 12H8.38264c-4.6075 0-8.322498 3.7738-8.248748 8.3813l.3525 22.0862C.523892 44.83 1.57264 47.0625 3.36639 48.6l76.31751 65.414c1.495 1.281 3.4 1.986 5.3687 1.986h22.6984c4.557 0 8.25-3.694 8.25-8.25V85.7438c0-2.3788-1.027-4.6425-2.817-6.2088L38.3326 14.0413C36.8289 12.725 34.8989 12 32.9001 12Z"/>
  <path fill="url(#a)" d="M29.975 12H8.25C3.69375 12 0 15.6937 0 20.25v25.1312c0 .4.02875.8.0875 1.1963l10.8963 74.3705c.5937 4.051 4.0687 7.053 8.1624 7.053h30.795c4.5575 0 8.2513-3.695 8.25-8.252l-.0087-37.009c0-.8513-.1325-1.6975-.3913-2.5075L37.8338 17.7412c-1.0925-3.4187-4.27-5.7399-7.8588-5.7399V12Z"/>
  <path fill="url(#b)" d="M119.749 0H51.4945c-3.3163 0-6.31 1.98625-7.6 5.04125L12.2995 79.8838c-.4375 1.0362-.6588 2.1512-.6488 3.2762l.3 36.657c.0375 4.53 3.72 8.183 8.25 8.183H55.532c1.6112 0 3.1862-.471 4.5325-1.356l64.2185-42.2178c2.321-1.525 3.718-4.1162 3.718-6.8937V8.25c0-4.55625-3.694-8.25-8.25-8.25h-.002Z"/>
  <path fill="#000" d="M104 24H24v80h80V24Z"/>
  <path fill="#fff" d="M66 88H34v6h32v-6Z"/>
  <path fill="#fff" d="M33.998 58.7669h5.96V39.2156h-5.96v-5.2312h17.6863v5.2312h-5.96v19.5513h5.96v5.2312H33.998v-5.2312Z"/>
  <path fill="#fff" d="M55.2852 58.5956h4.3087c.8713 0 1.6475-.185 2.3263-.5575.6787-.3712 1.2037-.8962 1.5762-1.5762.3713-.6788.5575-1.4538.5575-2.3263V33.9844h5.8525v20.5587c0 1.8013-.415 3.4188-1.2437 4.855-.8288 1.4363-1.9725 2.5613-3.43 3.3763-1.4575.815-3.0938 1.2225-4.9088 1.2225h-5.0375v-5.4025l-.0012.0012Z"/>
</svg>
