<svg enable-background="new 0 0 70 70" height="70" viewBox="0 0 70 70" width="70" xmlns="http://www.w3.org/2000/svg" xmlns:xlink="http://www.w3.org/1999/xlink"><linearGradient id="a" gradientUnits="userSpaceOnUse" x1=".7898" x2="33.3172" y1="40.0893" y2="40.0893"><stop offset=".2581" stop-color="#f97a12"/><stop offset=".4591" stop-color="#b07b58"/><stop offset=".7241" stop-color="#577bae"/><stop offset=".9105" stop-color="#1e7ce5"/><stop offset="1" stop-color="#087cfa"/></linearGradient><linearGradient id="b" gradientUnits="userSpaceOnUse" x1="25.7674" x2="79.424" y1="24.88" y2="54.57"><stop offset="0" stop-color="#f97a12"/><stop offset=".07179946" stop-color="#cb7a3e"/><stop offset=".1541" stop-color="#9e7b6a"/><stop offset=".242" stop-color="#757b91"/><stop offset=".3344" stop-color="#537bb1"/><stop offset=".4324" stop-color="#387ccc"/><stop offset=".5381" stop-color="#237ce0"/><stop offset=".6552" stop-color="#147cef"/><stop offset=".7925" stop-color="#0b7cf7"/><stop offset="1" stop-color="#087cfa"/></linearGradient><linearGradient id="c" gradientUnits="userSpaceOnUse" x1="63.2277" x2="48.2903" y1="42.9153" y2="-1.7191"><stop offset="0" stop-color="#fe315d"/><stop offset=".07840246" stop-color="#cb417e"/><stop offset=".1601" stop-color="#9e4e9b"/><stop offset=".2474" stop-color="#755bb4"/><stop offset=".3392" stop-color="#5365ca"/><stop offset=".4365" stop-color="#386ddb"/><stop offset=".5414" stop-color="#2374e9"/><stop offset=".6576" stop-color="#1478f3"/><stop offset=".794" stop-color="#0b7bf8"/><stop offset="1" stop-color="#087cfa"/></linearGradient><linearGradient id="d" gradientUnits="userSpaceOnUse" x1="10.7204" x2="55.5237" y1="16.473" y2="90.58"><stop offset="0" stop-color="#fe315d"/><stop offset=".04023279" stop-color="#f63462"/><stop offset=".1037" stop-color="#df3a71"/><stop offset=".1667" stop-color="#c24383"/><stop offset=".2912" stop-color="#ad4a91"/><stop offset=".5498" stop-color="#755bb4"/><stop offset=".9175" stop-color="#1d76ed"/><stop offset="1" stop-color="#087cfa"/></linearGradient><path d="m17.7 54.6-16.9-13.4 8.4-15.6 24.1 9.4z" fill="url(#a)"/><path d="m70 18.7-1.3 40.5-26.9 10.8-16.2-10.4 23.7-24.6-10.4-22.7 9.3-11.2z" fill="url(#b)"/><path d="m70 18.7-21.3 25.2-9.8-31.6 9.3-11.2z" fill="url(#c)"/><path d="m33.7 58.1-28.1 10.2 4.5-15.8 5.9-19.4-16-5.4 10.1-27.7 22 2.7 21.6 24.7z" fill="url(#d)"/><path d="m13.7 13.5h43.2v43.2h-43.2z"/><g fill="#fff"><path d="m17.7 48.6h16.2v2.7h-16.2z"/><path d="m29.4 22.4v-3.3h-9v3.3h2.6v11.3h-2.6v3.3h9v-3.3h-2.5v-11.3z"/><path d="m38 37.3c-1.4 0-2.6-.3-3.5-.8s-1.7-1.2-2.3-1.9l2.5-2.8c.5.6 1 1 1.5 1.3s1.1.5 1.7.5c.7 0 1.3-.2 1.8-.7.4-.5.6-1.2.6-2.3v-11.5h4v11.7c0 1.1-.1 2-.4 2.8s-.7 1.4-1.3 2c-.5.5-1.2 1-2 1.2-.8.3-1.6.5-2.6.5"/></g></svg>