<svg fill="none" height="70" viewBox="0 0 70 70" width="70" xmlns="http://www.w3.org/2000/svg"
     xmlns:xlink="http://www.w3.org/1999/xlink">
  <linearGradient id="a" gradientUnits="userSpaceOnUse" x1="5.1698" x2="40.0094" y1="39.8927" y2="38.1208">
    <stop offset=".09" stop-color="#fc801d"/>
    <stop offset=".23" stop-color="#b07f61"/>
    <stop offset=".41" stop-color="#577db3"/>
    <stop offset=".53" stop-color="#1e7ce6"/>
    <stop offset=".59" stop-color="#087cfa"/>
  </linearGradient>
  <linearGradient id="b" gradientUnits="userSpaceOnUse" x1="61.9646" x2="50.349" y1="36.1812" y2="1.4729">
    <stop offset="0" stop-color="#fe2857"/>
    <stop offset=".08" stop-color="#cb3979"/>
    <stop offset=".16" stop-color="#9e4997"/>
    <stop offset=".25" stop-color="#7557b2"/>
    <stop offset=".34" stop-color="#5362c8"/>
    <stop offset=".44" stop-color="#386cda"/>
    <stop offset=".54" stop-color="#2373e8"/>
    <stop offset=".66" stop-color="#1478f2"/>
    <stop offset=".79" stop-color="#0b7bf8"/>
    <stop offset="1" stop-color="#087cfa"/>
  </linearGradient>
  <linearGradient id="c" gradientUnits="userSpaceOnUse" x1="10.6823" x2="54.4906" y1="16.1219" y2="88.5865">
    <stop offset="0" stop-color="#fe2857"/>
    <stop offset=".08" stop-color="#fe295f"/>
    <stop offset=".21" stop-color="#ff2d76"/>
    <stop offset=".3" stop-color="#ff318c"/>
    <stop offset=".38" stop-color="#ea3896"/>
    <stop offset=".55" stop-color="#b248ae"/>
    <stop offset=".79" stop-color="#5a63d6"/>
    <stop offset="1" stop-color="#087cfa"/>
  </linearGradient>
  <path d="m11.0833 49.3719-10.295794-8.1302 6.059374-11.2219 9.10732 3.0479z" fill="url(#a)"/>
  <path d="m70 18.6594-1.2615 40.5417-26.9646 10.799-14.6854-9.4792z" fill="#087cfa"/>
  <path d="m70 18.6594-13.3437 13.0156-17.1355-21.0219 8.4584-9.50832z" fill="url(#b)"/>
  <path d="m27.0885 60.5208-21.44475 7.7511 4.49165-15.7282 5.8188-19.476-15.9542-5.3375 10.1354-27.7302 22.9104 2.70521 23.6105 28.96979z"
        fill="url(#c)"/>
  <path d="m13.5 13.5h43v43h-43z" fill="#000000"/>
  <path d="m26.9225 22.1462v-2.8816h-8.1425v2.8816h2.2848v9.9519h-2.2848v2.8816h8.1425v-2.8816h-2.2776v-9.9519z"
        fill="#ffffff"/>
  <path d="m34.7298 35.204c-1.1096.0347-2.2098-.2074-3.1944-.7028-.8088-.4206-1.5293-.9831-2.1248-1.6587l2.2485-2.4247c.4108.4477.8862.8359 1.4117 1.1526.4694.2811 1.0121.4274 1.5644.4217.2954.0137.5904-.0337.8653-.1392.2748-.1054.5232-.2665.7283-.4722.4383-.5725.6453-1.2797.5821-1.989v-10.1417h3.6383v10.2963c.0162.8339-.1192 1.6642-.4002 2.4528-.2393.6556-.6305 1.2497-1.1437 1.7369-.5133.4873-1.1351.8548-1.8179 1.0744-.7754.2535-1.59.3771-2.4085.3655"
        fill="#ffffff"/>
  <path d="m34.4166 48.6499h-15.75v2.6833h15.75z" fill="#ffffff"/>
</svg>
