<svg enable-background="new 0 0 719.8 90.2" height="90.2" viewBox="0 0 719.8 90.2" width="719.8" xmlns="http://www.w3.org/2000/svg"><path d="m0 3.6h85v85h-85z"/><g fill="#fff"><path d="m8 72.7h31.9v5.3h-31.9z"/><path d="m10.9 14.2h4.7v21.2h-4.7z"/><path d="m7.9 31.5h10.6v3.9h-10.6z"/><path d="m7.9 14.2h10.6v3.9h-10.6z"/><path d="m28.7 35.7c-1.7 0-3-.3-4.2-.9-1.1-.6-2-1.4-2.8-2.2l2.9-3.3c.6.7 1.2 1.2 1.8 1.6s1.3.6 2 .6c.9 0 1.6-.3 2.1-.8.5-.6.8-1.5.8-2.7v-13.8h4.8v13.9c0 1.3-.2 2.4-.5 3.3s-.8 1.7-1.5 2.4c-.6.6-1.4 1.1-2.4 1.5-.8.3-1.9.4-3 .4"/></g><path d="m106.1 3.6h18.7v85.1h-18.7z"/><path d="m129.8 23.6h18.5v9.2c4.3-5.5 9.7-10.4 19.1-10.4 14 0 22.1 9.2 22.1 24.2v42.2h-18.5v-36.4c0-8.7-4.1-13.2-11.2-13.2-7 0-11.5 4.5-11.5 13.2v36.3h-18.5z"/><path d="m199.4 70.2v-30.8h-7.8v-15.8h7.8v-16.7h18.5v16.6h15.3v15.8h-15.3v27.8c0 4.3 1.8 6.3 6 6.3 3.4 0 6.4-.9 9.1-2.3v14.9c-3.9 2.3-8.4 3.8-14.6 3.8-11.3 0-19-4.5-19-19.6z"/><path d="m232.7 56.5v-.2c0-18.6 13.2-33.9 32.2-33.9 21.8 0 31.7 16.9 31.7 35.4 0 1.5-.1 3.2-.2 4.9h-45.3c1.8 8.4 7.7 12.8 15.9 12.8 6.2 0 10.7-1.9 15.8-6.7l10.6 9.4c-6.1 7.5-14.8 12.2-26.6 12.2-19.6-.2-34.1-14-34.1-33.9zm45.9-5.5c-1.1-8.3-6-13.9-13.7-13.9s-12.6 5.5-14.1 13.9z"/><path d="m300.1 0h18.5v88.7h-18.5z"/><path d="m322.5 0h18.5v88.7h-18.5z"/><path d="m345.6 0h19.4v16.4h-19.4zm.5 23.6h18.5v65.1h-18.5z"/><path d="m365.9 77.2 11.7-13.2c4.9 5.3 9.6 8.5 15.6 8.5 7 0 11.4-4.3 11.4-14.1v-54.8h19.2v55.6c0 10.1-2.9 17.6-8 22.7-5.2 5.2-12.9 7.9-22.1 7.9-13.3.1-22-5.7-27.8-12.6z"/><path d="m454.4 3.6h18.7v85.1h-18.7z"/><path d="m479.8 3.6h33.2c26.7 0 45.2 18.3 45.2 42.3v.2c0 23.9-18.5 42.5-45.2 42.5h-33.2zm18.7 16.9v51.3h14.5c15.3 0 25.6-10.3 25.6-25.4v-.2c0-15.1-10.3-25.6-25.6-25.6h-14.5z"/><path d="m562.3 3.6h64.2v16.6h-45.6v17.3h40.1v16.6h-40.1v17.9h46.2v16.6h-64.8z"/><path d="m666.1 3h17.3l36.5 85.7h-19.6l-7.8-19.1h-36l-7.8 19.1h-19.1zm19.7 50.1-11.3-27.6-11.3 27.6z"/></svg>