<svg xmlns="http://www.w3.org/2000/svg" width="64" height="64" fill="none" viewBox="0 0 64 64">
  <defs>
    <linearGradient id="a" x1="-.390625" x2="24.3925" y1="7.67063" y2="61.1256" gradientUnits="userSpaceOnUse">
      <stop offset=".1" stop-color="#FC801D"/>
      <stop offset=".59" stop-color="#FE2857"/>
    </linearGradient>
    <linearGradient id="b" x1="4.32509" x2="62.9207" y1="59.9325" y2="1.33625" gradientUnits="userSpaceOnUse">
      <stop offset=".21" stop-color="#FE2857"/>
      <stop offset=".7" stop-color="#007EFF"/>
    </linearGradient>
  </defs>
  <path fill="#FF8100" d="M16.4501 6H4.19132C1.88757 6 .03007 7.88688.066946 10.1906l.17625 11.0431C.261946 22.415.786321 23.5312 1.6832 24.3l38.1587 32.7069c.7475.6406 1.7.9931 2.6844.9931h11.3494c2.2781 0 4.125-1.8469 4.125-4.125V42.8719c0-1.1894-.5138-2.3213-1.4088-3.1044L19.1663 7.02063C18.4144 6.3625 17.4494 6 16.4501 6Z"/>
  <path fill="url(#a)" d="M14.9875 6H4.125C1.84687 6 0 7.84687 0 10.125v12.5656c0 .2.014375.4.04375.5981l5.44813 37.1851c.29687 2.0256 2.03437 3.5268 4.08124 3.5268H24.9706c2.2788 0 4.1256-1.8475 4.125-4.1262L29.0912 41.37c0-.4256-.0662-.8488-.1956-1.2538L18.9169 8.87062c-.5463-1.70937-2.135-2.86999-3.9294-2.86999V6Z"/>
  <path fill="url(#b)" d="M59.8757 0H25.7482c-1.6581 0-3.155.993125-3.8 2.52063L6.15071 39.9419c-.21875.5181-.32938 1.0756-.32438 1.6381l.15 18.3287C5.99508 62.1737 7.83633 64 10.1013 64H27.767c.8056 0 1.5931-.2356 2.2662-.6781l32.1094-21.1088c1.1606-.7625 1.8587-2.0581 1.8587-3.4468V4.125c0-2.27813-1.8468-4.125-4.125-4.125h-.0006Z"/>
  <path fill="#000" d="M52 12H12v40h40V12Z"/>
  <path fill="#fff" d="M33 44H17v3h16v-3Z"/>
  <path fill="#fff" d="M17 29.3834h2.98v-9.7756H17v-2.6156h8.8431v2.6156h-2.98v9.7756h2.98v2.6157H17v-2.6157Z"/>
  <path fill="#fff" d="M27.6426 29.2978h2.1544c.4356 0 .8237-.0925 1.1631-.2787.3394-.1857.6019-.4482.7881-.7882.1856-.3393.2788-.7268.2788-1.1631V16.9922h2.9262v10.2794c0 .9006-.2075 1.7093-.6219 2.4275-.4143.7181-.9862 1.2806-1.715 1.6881-.7287.4075-1.5468.6112-2.4543.6112h-2.5188v-2.7012l-.0006.0006Z"/>
  <path fill="#FDB60D" d="M56.1887 64H23.8113c-2.0716 0-4.0585-.8229-5.5234-2.2878C16.823 60.2473 16 58.2604 16 56.1887v-8.3774c0-1.0258.202-2.0416.5946-2.9893.3926-.9477.968-1.8088 1.6933-2.5342a7.812297 7.812297 0 0 1 2.5342-1.6932C21.7698 40.202 22.7855 40 23.8113 40h32.3774c2.0717 0 4.0585.8229 5.5234 2.2878C63.177 43.7527 64 45.7396 64 47.8113v8.3774c0 2.0717-.823 4.0586-2.2879 5.5235S58.2604 64 56.1887 64Z"/>
  <path fill="#000" d="M24.9121 46.7578h8.2388v2.1384h-5.8515v2.2157h5.1495v2.1374h-5.1495v2.2939h5.9297v2.1375h-8.317V46.7578Z"/>
  <path fill="#000" d="M39.1118 46.6797h2.2157l4.6812 11h-2.5123l-.9986-2.4494h-4.6182l-.9986 2.4494h-2.4494l4.6802-11Zm2.5286 6.4285-1.4517-3.5424-1.4507 3.5424h2.9024Z"/>
  <path fill="#000" d="M47.6934 46.7578h4.4627c2.6058 0 4.1814 1.5452 4.1814 3.776v.0315c0 2.5275-1.9657 3.839-4.415 3.839H50.097v3.2762h-2.4036V46.7578Zm4.3063 5.5082c.2362.03.476.0098.7038-.0593s.4384-.1856.6182-.3417c.1797-.1561.3244-.3484.4246-.5643.1003-.216.1538-.4506.1571-.6886v-.0315c0-1.0759-.7487-1.6538-1.9505-1.6538H50.097v3.3392h1.9027Z"/>
</svg>
