<svg xmlns="http://www.w3.org/2000/svg" width="754" height="91" fill="none" viewBox="0 0 754 91">
  <path fill="#fff" d="M117.156 4.24072H135.732V88.6599H117.156V4.24072Z"/>
  <path fill="#fff" d="M144.231 24.0221H162.566V33.1892C166.823 27.7542 172.215 22.8159 181.51 22.8159C195.374 22.8159 203.448 31.983 203.448 46.812V88.6597H185.114V52.6017C185.114 43.9172 181.013 39.4613 174.017 39.4613C167.021 39.4613 162.551 43.9172 162.551 52.6017V88.6597H144.231V24.0221Z"/>
  <path fill="#fff" d="M214.574 70.3257V39.7026H206.868V24.0222H214.574V7.47607H232.908V24.0222H248.106V39.7026H232.908V67.3173C232.908 71.5745 234.724 73.5895 238.825 73.5895C241.981 73.6156 245.091 72.8392 247.864 71.3332V86.0062C243.484 88.6096 238.456 89.9184 233.362 89.7808C222.18 89.7808 214.574 85.2825 214.574 70.3257V70.3257Z"/>
  <path fill="#fff" d="M251.185 56.7028V56.4615C251.185 38.0139 264.325 22.8159 283.142 22.8159C304.726 22.8159 314.616 39.5749 314.616 57.909C314.616 59.328 314.503 61.0451 314.375 62.7337H269.391C271.208 71.0493 276.998 75.3916 285.2 75.3916C291.344 75.3916 295.814 73.4617 300.809 68.7647L311.31 78.0453C305.279 85.5236 296.595 90.1072 284.902 90.1072C265.532 90.1072 251.185 76.4843 251.185 56.7028V56.7028ZM296.779 51.282C295.686 43.0799 290.862 37.5314 283.142 37.5314C275.422 37.5314 270.598 42.9522 269.15 51.282H296.779Z"/>
  <path fill="#fff" d="M319.768 0.62207H338.102V88.603H319.768V0.62207Z"/>
  <path fill="#fff" d="M345.864 0.62207H364.198V88.603H345.864V0.62207Z"/>
  <path fill="#fff" d="M371.492 0.62207H390.777V16.8985H371.492V0.62207ZM371.975 24.0222H390.295V88.6598H371.975V24.0222Z"/>
  <path fill="#fff" d="M394.112 77.2081L405.805 64.2381C410.63 69.5453 415.341 72.7523 421.244 72.7523C428.24 72.7523 432.596 68.4952 432.596 58.7605V4.24072H451.654V59.4701C451.654 69.4885 448.816 76.9669 443.693 82.0329C438.571 87.0989 430.922 89.866 421.741 89.866C416.475 90.0026 411.248 88.933 406.459 86.7391C401.671 84.5452 397.447 81.2851 394.112 77.2081V77.2081Z"/>
  <path fill="#fff" d="M483.44 4.24072H502.002V88.6599H483.44V4.24072Z"/>
  <path fill="#fff" d="M510.715 4.24072H543.637C570.173 4.24072 588.493 22.4471 588.493 46.2162V46.4574C588.493 70.2123 570.173 88.6599 543.637 88.6599H510.715V4.24072ZM529.276 20.9997V71.9009H543.637C558.835 71.9009 569.08 61.6412 569.08 46.6986V46.4574C569.08 31.5006 558.835 20.9997 543.637 20.9997H529.276Z"/>
  <path fill="#fff" d="M594.666 4.24072H658.338V20.7584H613.113V37.8863H652.917V54.4183H613.113V72.1422H658.948V88.6599H594.666V4.24072Z"/>
  <path fill="#fff" d="M699.718 3.64453H716.846L753.032 88.6597H733.619L725.899 69.7296H690.196L682.476 88.6597H663.546L699.718 3.64453ZM719.258 53.3112L708.048 25.9236L696.823 53.3254L719.258 53.3112Z"/>
  <path fill="#000" d="M0 4H85V89H0V4Z"/>
  <path fill="#fff" d="M10.543 72.9795H42.4715V78.3009H10.543V72.9795Z"/>
  <path fill="#fff" d="M26.4787 20.4177V14.5996H10.5996V20.4177H15.0412V40.5114H10.5996V46.3295H26.4787V40.5114H22.0371V20.4177H26.4787Z"/>
  <path fill="#fff" d="M41.7053 46.7837C39.5413 46.8537 37.3958 46.365 35.4757 45.3646C33.8998 44.5072 32.4913 43.3728 31.3179 42.0157L35.7169 37.12C36.518 38.0239 37.4452 38.8077 38.4699 39.4472C39.387 40.0098 40.4451 40.3001 41.5208 40.2844C42.0972 40.3149 42.6734 40.2204 43.2098 40.0073C43.7462 39.7942 44.2302 39.4676 44.6285 39.0499C45.4859 37.9008 45.8901 36.4762 45.7638 35.0481V14.5713H52.859V35.3603C52.8905 37.0395 52.6263 38.711 52.0785 40.2986C51.6139 41.6233 50.8516 42.8238 49.8504 43.8079C48.8491 44.7919 47.6356 45.5332 46.303 45.9748C44.7908 46.4867 43.2023 46.7362 41.606 46.7127"/>
</svg>
