<svg xmlns="http://www.w3.org/2000/svg" width="128" height="128" fill="none" viewBox="0 0 128 128">
  <defs>
    <linearGradient id="a" x1="8.64822" x2="125.841" y1="119.866" y2="2.67375" gradientUnits="userSpaceOnUse">
      <stop offset=".25" stop-color="#FFB700"/>
      <stop offset=".73" stop-color="#FF2D90"/>
    </linearGradient>
    <linearGradient id="b" x1="-.781251" x2="48.7862" y1="15.3413" y2="122.251" gradientUnits="userSpaceOnUse">
      <stop offset=".29" stop-color="#7256FF"/>
      <stop offset=".66" stop-color="#FFB700"/>
    </linearGradient>
  </defs>
  <path fill="url(#a)" d="M119.749 0H51.4945c-3.3163 0-6.31 1.98625-7.6 5.04125L12.2995 79.8838c-.4375 1.0362-.6588 2.1512-.6488 3.2762l.3 36.657c.0375 4.53 3.72 8.183 8.25 8.183H55.532c1.6112 0 3.1862-.471 4.5325-1.356l64.2185-42.2178c2.321-1.525 3.718-4.1162 3.718-6.8937V8.25c0-4.55625-3.694-8.25-8.25-8.25h-.002Z"/>
  <path fill="url(#b)" d="M29.975 12H8.25C3.69375 12 0 15.6937 0 20.25v25.1312c0 .4.02875.8.0875 1.1963l10.8963 74.3705c.5937 4.051 4.0687 7.053 8.1624 7.053h30.795c4.5575 0 8.2513-3.695 8.25-8.252l-.0087-37.009c0-.8513-.1325-1.6975-.3913-2.5075L37.8338 17.7412c-1.0925-3.4187-4.27-5.7399-7.8588-5.7399V12Z"/>
  <path fill="#7256FF" d="M32.9 12H8.3825C3.775 12 .06 15.7738.13375 20.3813L0 42c.0375 2.3625 1.5725 5.0613 3.36625 6.5988L79.6837 114.012c1.495 1.282 3.4 1.987 5.3688 1.987h22.6985c4.557 0 8.25-3.694 8.25-8.25V85.7425c0-2.3787-1.027-4.6425-2.817-6.2087L38.3325 14.0413C36.8288 12.725 34.8988 12 32.9 12Z"/>
  <path fill="#000" d="M104 24H24v80h80V24Z"/>
  <path fill="#fff" d="M66 88H34v6h32v-6Z"/>
  <path fill="#fff" d="M34.0247 33.9844h12.8837c2.115 0 3.9688.3862 5.5625 1.1575 1.5938.7712 2.8225 1.8575 3.6875 3.2587.865 1.4013 1.2975 3.0225 1.2975 4.8663 0 1.8437-.44 3.5162-1.3187 4.9312-.8788 1.415-2.1263 2.5113-3.7413 3.2913-1.615.7787-3.5012 1.1687-5.66 1.1687h-6.86v11.34h-5.8525V33.9856l.0013-.0012Zm15.0812 13.26c.7363-.365 1.3038-.8863 1.7038-1.565.4-.6788.6-1.475.6-2.39s-.2-1.6825-.6-2.3475c-.4-.665-.9688-1.1788-1.7038-1.5438-.7362-.365-1.5975-.5462-2.5837-.5462h-6.6463v8.94h6.6463c.9862 0 1.8475-.1825 2.5837-.5463v-.0012Z"/>
  <path fill="#fff" d="M55.9766 58.5956h4.3087c.8713 0 1.6475-.185 2.3263-.5575.6787-.3712 1.2037-.8962 1.5762-1.5762.3713-.6788.5575-1.4538.5575-2.3263V33.9844h5.8525v20.5587c0 1.8013-.415 3.4188-1.2437 4.855-.8288 1.4363-1.9725 2.5613-3.43 3.3763-1.4575.815-3.0938 1.2225-4.9088 1.2225h-5.0375v-5.4025l-.0012.0012Z"/>
</svg>
