<svg width="70" height="70" viewBox="0 0 70 70" fill="none" xmlns="http://www.w3.org/2000/svg">
<path d="M68.8967 53.413L70 23.0543L50.7119 18.6793L34.2772 29.6739L41.9239 52.2337L68.8967 53.413Z" fill="url(#paint0_linear)"/>
<path d="M64.5978 37.1303L70 23.0543L51.0163 14.6847L34.2772 29.6738L64.5978 37.1303Z" fill="url(#paint1_linear)"/>
<path d="M44.7772 69.9999L68.8967 53.4129L10.9185 27.6575L0 58.701L44.7772 69.9999Z" fill="url(#paint2_linear)"/>
<path d="M0 26.7446L38.5761 56.1522L64.5978 37.1304L35.038 4.33696L9.28261 0L0 26.7446Z" fill="url(#paint3_linear)"/>
<path d="M56 14H14V56H56V14Z" fill="#010101"/>
<path d="M34.4166 48.6499H18.6666V51.3332H34.4166V48.6499Z" fill="white"/>
<path d="M19 19H25.1833C30.2 19 33.5833 22.3542 33.5833 26.7493C33.5833 31.1445 30.2 34.6143 25.1833 34.6143L19 34.73V19ZM22.5 22.1229V31.6071H25.1833C27.9833 31.6071 29.9667 29.7565 29.9667 26.9807C29.9667 24.2048 28.1 22.2385 25.1833 22.2385L22.5 22.1229Z" fill="white"/>
<path d="M34.97 32.3599L37 29.9099C38.4 31.0999 39.94 31.7999 41.69 31.7999C43.09 31.7999 44 31.2399 44 30.3299V30.2599C44 29.3499 43.44 28.9299 40.85 28.2299C37.63 27.4599 35.6 26.5499 35.6 23.3999V23.3299C35.6 20.4599 37.91 18.5699 41.13 18.5699C43.44 18.5699 45.4 19.2699 47.01 20.5999L45.19 23.1899C43.79 22.2099 42.39 21.6499 41.06 21.6499C39.73 21.6499 39.03 22.2799 39.03 23.0499V23.1199C39.03 24.1699 39.73 24.5199 42.46 25.2199C45.68 26.0599 47.5 27.1799 47.5 29.9799V30.0499C47.5 33.1999 45.12 34.9499 41.69 34.9499C39.31 34.8799 36.86 34.0399 34.97 32.3599Z" fill="white"/>
<path d="M56 14H14V56H56V14Z" fill="#010101"/>
<path d="M34.4166 48.6499H18.6666V51.3332H34.4166V48.6499Z" fill="white"/>
<path d="M35.3333 35.21C34.0967 35.21 33.07 34.9767 32.2533 34.51C31.4133 34.0433 30.7367 33.4833 30.2 32.8533L32.37 30.4267C32.8133 30.9167 33.28 31.3133 33.7233 31.5933C34.19 31.8733 34.68 32.0133 35.24 32.0133C35.8933 32.0133 36.4067 31.8033 36.78 31.3833C37.1533 30.9633 37.34 30.31 37.34 29.4V19.2733H40.8867V29.5633C40.8867 30.4967 40.77 31.3133 40.5133 32.0133C40.2567 32.7133 39.8833 33.2967 39.4167 33.7633C38.9267 34.2533 38.3433 34.6033 37.6433 34.86C36.9433 35.0933 36.1733 35.21 35.3333 35.21Z" fill="white"/>
<path d="M19.25 19.25H25.69C29.47 19.25 31.71 21.49 31.71 24.71V24.78C31.71 28.42 28.91 30.31 25.34 30.31H22.68V35H19.25V19.25ZM25.48 27.16C27.23 27.16 28.21 26.11 28.21 24.78V24.71C28.21 23.17 27.16 22.33 25.41 22.33H22.75V27.16H25.48Z" fill="white"/>
<defs>
<linearGradient id="paint0_linear" x1="59.7803" y1="48.6662" x2="49.6386" y2="19.368" gradientUnits="userSpaceOnUse">
<stop offset="0.000825369" stop-color="#FF318C"/>
<stop offset="1" stop-color="#FE6C54"/>
</linearGradient>
<linearGradient id="paint1_linear" x1="62.4188" y1="16.9399" x2="53.5196" y2="28.242" gradientUnits="userSpaceOnUse">
<stop stop-color="#FF546A"/>
<stop offset="0.7814" stop-color="#FE764A"/>
</linearGradient>
<linearGradient id="paint2_linear" x1="58.7349" y1="62.4092" x2="7.66135" y2="43.9806" gradientUnits="userSpaceOnUse">
<stop offset="0.016776" stop-color="#FF318C"/>
<stop offset="0.8106" stop-color="#6B57FF"/>
</linearGradient>
<linearGradient id="paint3_linear" x1="19.8195" y1="48.8407" x2="41.5404" y2="10.4765" gradientUnits="userSpaceOnUse">
<stop offset="0.3305" stop-color="#FF318C"/>
<stop offset="0.9422" stop-color="#FDB60D"/>
</linearGradient>
</defs>
</svg>
