<svg xmlns="http://www.w3.org/2000/svg" width="617" height="109" fill="none" viewBox="0 0 617 109">
  <path fill="#000" d="M85 4H0V89H85V4Z"/>
  <path fill="#fff" d="M9.81497 14.502H22.922C30.5747 14.502 35.2031 19.0398 35.2031 25.5933V25.6846C35.2031 33.1083 29.4291 36.9585 22.2344 36.9585H16.8721V46.582H9.81494L9.81497 14.502ZM22.4633 30.6803C25.9919 30.6803 28.0547 28.5719 28.0547 25.8216V25.7302C28.0547 22.5676 25.8549 20.8729 22.3257 20.8729H16.8721V30.6803H22.4633Z"/>
  <path fill="#fff" d="M31.2588 42.2282L35.7046 37.2795C37.5377 39.2952 39.3245 40.4864 41.5706 40.4864C44.2282 40.4864 45.878 38.8829 45.878 35.1711V14.502H53.1191V35.4921C53.1191 39.2952 52.0193 42.1369 50.0942 44.0613C48.9711 45.0862 47.6553 45.8774 46.2234 46.3888C44.7915 46.9001 43.2722 47.1215 41.7539 47.0399C39.7534 47.0917 37.7676 46.685 35.9485 45.8509C34.1294 45.0169 32.5252 43.7777 31.2588 42.2282Z"/>
  <path fill="#fff" d="M42.4999 73.0624H10.6249V78.3748H42.4999V73.0624Z"/>
  <path fill="#fff" d="M117.41 3.75528H152.189C172.496 3.75528 184.778 15.7936 184.778 33.1825V33.4264C184.778 53.1268 169.456 63.34 150.365 63.34H136.137V88.8774H117.41V3.75528ZM150.973 46.6815C160.336 46.6815 165.808 41.087 165.808 33.7908V33.5483C165.808 25.1574 159.971 20.6577 150.607 20.6577H136.137V46.6815H150.973Z"/>
  <path fill="#fff" d="M189.283 23.6981H207.766V36.8312C211.536 27.8333 217.616 21.9963 228.561 22.4814V41.8173H227.588C215.306 41.8173 207.766 49.2354 207.766 64.8006V88.8773H189.283V23.6981Z"/>
  <path fill="#fff" d="M227.712 56.6522V56.4097C227.712 37.6821 242.791 22.4814 263.099 22.4814C283.284 22.4814 298.242 37.4396 298.242 56.1658V56.4097C298.242 75.1358 283.163 90.3365 262.855 90.3365C242.669 90.3365 227.712 75.3797 227.712 56.6522ZM280.001 56.6522V56.4097C280.001 46.802 273.07 38.4124 262.855 38.4124C252.276 38.4124 245.952 46.5595 245.952 56.1658V56.4097C245.952 66.0159 252.884 74.4069 263.099 74.4069C273.678 74.4069 280.001 66.2585 280.001 56.6522Z"/>
  <path fill="#fff" d="M294.596 107.969V93.4975C295.88 93.7345 297.182 93.8569 298.488 93.8634C302.379 93.8634 305.055 91.7958 305.055 86.3233V23.6981H323.539V87.7825C323.539 102.132 316.242 108.698 302.623 108.698C299.929 108.737 297.239 108.493 294.596 107.969ZM304.569 0.106445H324.025V16.5239H304.569V0.106445Z"/>
  <path fill="#fff" d="M330.348 56.6522V56.4097C330.348 37.8041 343.603 22.4814 362.574 22.4814C384.34 22.4814 394.312 39.3852 394.312 57.8689C394.312 59.3281 394.19 61.0299 394.068 62.733H348.71C350.534 71.1226 356.371 75.5017 364.64 75.5017C370.843 75.5017 375.341 73.556 380.449 68.8125L391.028 78.1762C384.948 85.7149 376.193 90.3365 364.397 90.3365C344.819 90.3365 330.348 76.5951 330.348 56.6522ZM376.314 51.1811C375.22 42.9107 370.356 37.3177 362.574 37.3177C354.912 37.3177 349.927 42.7902 348.468 51.1811H376.314Z"/>
  <path fill="#fff" d="M397.477 56.6522V56.4097C397.477 37.8041 411.704 22.4814 431.647 22.4814C443.929 22.4814 451.59 26.6166 457.67 33.4264L446.361 45.5866C442.227 41.2089 438.092 38.4124 431.526 38.4124C422.284 38.4124 415.717 46.5595 415.717 56.1658V56.4097C415.717 66.3804 422.163 74.4069 432.255 74.4069C438.457 74.4069 442.713 71.731 447.212 67.4752L458.035 78.4201C451.712 85.3505 444.415 90.3365 431.404 90.3365C411.826 90.3365 397.477 75.2578 397.477 56.6522Z"/>
  <path fill="#fff" d="M465.7 70.3936V39.5071H457.917V23.6981H465.7V7.0381H484.183V23.6981H499.506V39.5071H484.183V67.3532C484.183 71.6103 486.008 73.6765 490.142 73.6765C493.329 73.6921 496.467 72.8971 499.262 71.3664V86.2027C494.849 88.8059 489.792 90.1123 484.67 89.972C473.361 89.972 465.7 85.4724 465.7 70.3936Z"/>
  <path fill="#fff" d="M500.723 56.6522V56.4097C500.723 37.6821 515.802 22.4814 536.11 22.4814C556.296 22.4814 571.253 37.4396 571.253 56.1658V56.4097C571.253 75.1358 556.174 90.3365 535.866 90.3365C515.681 90.3365 500.723 75.3797 500.723 56.6522ZM553.013 56.6522V56.4097C553.013 46.802 546.081 38.4124 535.866 38.4124C525.287 38.4124 518.964 46.5595 518.964 56.1658V56.4097C518.964 66.0159 525.896 74.4069 536.11 74.4069C546.689 74.4069 553.013 66.2585 553.013 56.6522Z"/>
  <path fill="#fff" d="M577.215 23.6981H595.698V36.8312C599.469 27.8333 605.548 21.9963 616.493 22.4814V41.8173H615.52C603.238 41.8173 595.698 49.2354 595.698 64.8006V88.8773H577.215V23.6981Z"/>
</svg>
