<svg enable-background="new 0 0 70 70" height="70" viewBox="0 0 70 70" width="70" xmlns="http://www.w3.org/2000/svg" xmlns:xlink="http://www.w3.org/1999/xlink"><linearGradient id="a" gradientUnits="userSpaceOnUse" x1="20.4772" x2="32.4637" y1="18.7816" y2="68.9576"><stop offset="0" stop-color="#7866ff"/><stop offset=".0228684" stop-color="#7e64fe"/><stop offset=".1948" stop-color="#aa56f3"/><stop offset=".3493" stop-color="#c94cec"/><stop offset=".4796" stop-color="#dc45e8"/><stop offset=".5699" stop-color="#e343e6"/><stop offset=".6413" stop-color="#e859bc"/><stop offset=".8185" stop-color="#f48f58"/><stop offset=".9419" stop-color="#fcb019"/><stop offset="1" stop-color="#ffbd00"/></linearGradient><linearGradient id="b" gradientUnits="userSpaceOnUse" x1="49.4178" x2="32.7196" y1="41.4513" y2="7.5163"><stop offset="0" stop-color="#7866ff"/><stop offset=".2018" stop-color="#965cf8"/><stop offset=".6398" stop-color="#e343e6"/><stop offset=".9677" stop-color="#ffbd00"/></linearGradient><linearGradient id="c" gradientUnits="userSpaceOnUse" x1="26.353" x2="36.21" y1="53.6042" y2="30.2224"><stop offset=".1183" stop-color="#e343e6"/><stop offset=".2112" stop-color="#c84cec"/><stop offset=".3376" stop-color="#ab55f3"/><stop offset=".4724" stop-color="#955df8"/><stop offset=".6177" stop-color="#8562fc"/><stop offset=".7811" stop-color="#7b65fe"/><stop offset="1" stop-color="#7866ff"/></linearGradient><path d="m8 65.1-7.9-27.5 51.6 7.6-7.4 24.8z" fill="url(#a)"/><path d="m23.5.1 18.6 5.3 21.1-5.4 6.8 46.3-56.6-8.7z" fill="url(#b)"/><path d="m70 46.1-2.7-17.2-41.7-14.5-25.5 5.5-.1 17.8 49.6 13.6z" fill="url(#c)"/><path d="m13.4 13.4h43.2v43.2h-43.2z"/><g fill="#fff"><path d="m17.4 48.5h16.2v2.7h-16.2z"/><path d="m17.4 19h6.9c5.6 0 9.5 3.9 9.5 8.9v.1c0 5-3.9 9-9.5 9h-6.9zm3.9 3.6v10.8h2.9c3.2 0 5.4-2.2 5.4-5.4s-2.2-5.4-5.4-5.4z"/><path d="m34.8 19.1h4.3l4.6 7.5 4.7-7.5h4.2v17.8h-3.9v-11.7l-5 7.6h-.1l-4.9-7.5v11.6h-3.9z"/></g></svg>