<?xml version="1.0" encoding="utf-8"?>
<!-- Generator: Adobe Illustrator 19.1.0, SVG Export Plug-In . SVG Version: 6.00 Build 0)  -->
<svg version="1.1" xmlns="http://www.w3.org/2000/svg" xmlns:xlink="http://www.w3.org/1999/xlink" x="0px" y="0px"
	 width="724.6px" height="108.5px" viewBox="0 0 724.6 108.5" style="enable-background:new 0 0 724.6 108.5;" xml:space="preserve"
	>
<g>
	<g>
		<rect x="0" y="3.6" style="fill:#000000;" width="85" height="85"/>
		<path style="fill:#FFFFFF;" d="M8,14.2l8.2,0c6.7,0,11.3,4.6,11.3,10.6v0.1c0,6-4.6,10.6-11.3,10.6H8V14.2z M12.6,18.4v12.8h3.5
			c3.8,0,6.4-2.6,6.4-6.3v-0.1c0-3.8-2.6-6.4-6.4-6.4H12.6z"/>
		<polygon style="fill:#FFFFFF;" points="28.7,14.2 33.7,14.2 39.3,23.2 44.8,14.2 49.9,14.2 49.9,35.4 45.2,35.4 45.2,21.6 
			39.3,30.6 39.2,30.6 33.3,21.7 33.3,35.4 28.7,35.4 		"/>
		<rect x="8" y="72.7" style="fill:#FFFFFF;" width="32" height="5.3"/>
	</g>
	<g>
		<path d="M104.6,56.3V56c0-21.7,14.2-33.7,29.6-33.7c9.8,0,15.9,4.5,20.3,9.7V0H173v88.7h-18.5v-9.4
			c-4.5,6.1-10.7,10.6-20.3,10.6C119.1,89.9,104.6,78,104.6,56.3z M154.8,56.3V56c0-10.8-7.2-18-15.8-18s-15.9,7-15.9,18v0.2
			c0,10.8,7.3,18,15.9,18S154.8,67.1,154.8,56.3z"/>
		<path d="M175.2,56.5v-0.2c0-18.7,15.1-33.9,35.4-33.9c20.2,0,35.1,14.9,35.1,33.7v0.2
			c0,18.7-15.1,33.9-35.4,33.9C190.1,90.2,175.2,75.2,175.2,56.5z M227.4,56.5v-0.2c0-9.6-6.9-18-17.1-18
			c-10.6,0-16.9,8.1-16.9,17.7v0.2c0,9.6,6.9,18,17.1,18C221.1,74.2,227.4,66.1,227.4,56.5z"/>
		<path d="M250.9,70.2V39.4h-7.8V23.6h7.8V6.9h18.5v16.6h15.3v15.8h-15.3v27.8c0,4.3,1.8,6.3,6,6.3
			c3.4,0,6.4-0.9,9.1-2.3V86c-3.9,2.3-8.4,3.8-14.6,3.8C258.5,89.8,250.9,85.3,250.9,70.2z"/>
		<path d="M288.3,3.6h20.2l22.4,36l22.4-36h20.2v85.1h-18.6V33.2l-23.9,36.3h-0.5l-23.7-36v55.2h-18.3V3.6z"
			/>
		<path d="M375.9,56.5v-0.2c0-18.6,13.2-33.9,32.2-33.9c21.7,0,31.7,16.9,31.7,35.4c0,1.5-0.1,3.2-0.2,4.9
			h-45.3c1.8,8.4,7.7,12.8,15.9,12.8c6.2,0,10.7-1.9,15.8-6.7l10.6,9.4c-6.1,7.5-14.8,12.2-26.6,12.2
			C390.4,90.2,375.9,76.4,375.9,56.5z M421.8,51c-1.1-8.3-6-13.9-13.7-13.9c-7.7,0-12.6,5.5-14.1,13.9H421.8z"/>
		<path d="M442.1,23.6h18.5v9.2c4.3-5.5,9.8-10.5,19.2-10.5c8.5,0,14.9,3.8,18.3,10.3
			c5.7-6.7,12.5-10.3,21.4-10.3c13.7,0,22,8.3,22,23.9v42.4H523V52.4c0-8.7-3.9-13.2-10.8-13.2s-11.2,4.5-11.2,13.2v36.3h-18.5V52.4
			c0-8.7-3.9-13.2-10.8-13.2s-11.2,4.5-11.2,13.2v36.3h-18.5V23.6z"/>
		<path d="M543,56.5v-0.2c0-18.7,15.1-33.9,35.4-33.9c20.2,0,35.1,14.9,35.1,33.7v0.2
			c0,18.7-15.1,33.9-35.4,33.9C557.9,90.2,543,75.2,543,56.5z M595.2,56.5v-0.2c0-9.6-6.9-18-17.1-18c-10.6,0-16.9,8.1-16.9,17.7
			v0.2c0,9.6,6.9,18,17.1,18C588.9,74.2,595.2,66.1,595.2,56.5z"/>
		<path d="M615.6,23.6h18.5v13.1c3.8-9,9.8-14.8,20.8-14.3v19.3h-1c-12.3,0-19.8,7.4-19.8,23v24.1h-18.5V23.6
			z"/>
		<path d="M705.4,23.6h19.2l-25,66.7c-5,13.2-10.3,18.2-21.4,18.2c-6.7,0-11.7-1.7-16.4-4.5l6.2-13.4
			c2.4,1.5,5.5,2.6,7.9,2.6c3.2,0,4.9-1,6.4-4.3l-25.5-65.4h19.6l14.8,44.3L705.4,23.6z"/>
	</g>
</g>
</svg>
