<svg xmlns="http://www.w3.org/2000/svg" width="313" height="64" fill="none" viewBox="0 0 313 64">
  <defs>
    <linearGradient id="a" x1="59.6821" x2="1.08586" y1="4.0675" y2="62.6638" gradientUnits="userSpaceOnUse">
      <stop offset=".31" stop-color="#FF45ED"/>
      <stop offset=".83" stop-color="#6B57FF"/>
    </linearGradient>
    <linearGradient id="b" x1="64.397" x2="39.6133" y1="56.3294" y2="2.875" gradientUnits="userSpaceOnUse">
      <stop offset=".3" stop-color="#FDB60D"/>
      <stop offset=".7" stop-color="#FF45ED"/>
    </linearGradient>
  </defs>
  <path fill="#fff" d="M100.62 28.32c-.71-1.07-1.61-1.95-2.71-2.59-1.36-.8-2.95-1.2-4.76-1.2-1.96 0-3.7.49-5.23 1.47-1.53.98-2.74 2.34-3.61 4.09-.87 1.75-1.31 3.72-1.31 5.92 0 2.2.44 4.17 1.31 5.92.87 1.75 2.08 3.11 3.62 4.09s3.28 1.47 5.22 1.47c1.81 0 3.4-.4 4.76-1.2 1.1-.65 2-1.52 2.71-2.59v3.28h5.05V17.02h-5.05v11.32-.02Zm-.79 11.31c-.53 1.05-1.26 1.87-2.21 2.46-.94.59-2.03.89-3.25.89-1.22 0-2.27-.29-3.21-.88-.94-.58-1.67-1.4-2.19-2.46s-.78-2.27-.78-3.64.26-2.58.78-3.63c.52-1.05 1.25-1.87 2.19-2.46.94-.59 2.01-.89 3.21-.89 1.2 0 2.31.3 3.25.89.94.59 1.68 1.41 2.21 2.46s.79 2.26.79 3.63-.26 2.58-.79 3.63Zm26.91-13.6c-1.75-1-3.71-1.5-5.86-1.5-2.15 0-4.13.5-5.9 1.5-1.76 1-3.14 2.37-4.14 4.12-1 1.75-1.5 3.7-1.5 5.85 0 2.15.5 4.11 1.51 5.85 1.01 1.75 2.39 3.12 4.14 4.12 1.75 1 3.71 1.5 5.86 1.5 2.15 0 4.13-.5 5.89-1.5 1.76-1 3.13-2.37 4.14-4.12 1.01-1.75 1.51-3.7 1.51-5.85 0-2.15-.5-4.11-1.51-5.85-1.01-1.75-2.39-3.12-4.14-4.12Zm-.39 13.59c-.52 1.06-1.26 1.88-2.21 2.46-.95.58-2.05.88-3.27.88-1.22 0-2.32-.29-3.26-.88-.95-.58-1.68-1.41-2.2-2.46-.52-1.06-.78-2.26-.78-3.62 0-1.36.26-2.58.78-3.64s1.25-1.88 2.2-2.46c.95-.58 2.04-.88 3.26-.88 1.22 0 2.31.3 3.26.89.95.59 1.69 1.41 2.21 2.46.53 1.05.79 2.26.79 3.63s-.26 2.56-.78 3.62Zm15.88-19.93h-4.71v3.55c0 .53-.16.96-.49 1.29-.33.33-.76.5-1.31.5h-2.4l-.02 4.39h3.85l.02 11.71c0 1.11.26 2.11.78 3 .52.88 1.25 1.58 2.18 2.08.93.5 1.99.75 3.16.75h4.73v-4.39h-3.72c-.6 0-1.09-.2-1.49-.59-.39-.39-.59-.89-.59-1.49l-.02-11.06h5.82l.02-4.39h-5.82v-5.35h.01Zm26.33 18.9-.49 1.67-.49-1.67L158.4 17h-6.83v29.96h5.27V25.69l-.06-.98 9.25 22.26h3.94l9.27-22.41-.04 1.13v21.27h5.26V17h-6.91l-8.97 21.59h-.02Zm37.25-12.6c-1.68-.97-3.6-1.46-5.76-1.46-2.16 0-4.03.5-5.77 1.49-1.73.99-3.1 2.36-4.1 4.1-1 1.74-1.5 3.69-1.5 5.84s.5 4.17 1.49 5.93c.99 1.75 2.35 3.12 4.07 4.11 1.72.98 3.66 1.48 5.81 1.48 1.7 0 3.25-.26 4.64-.79 1.4-.53 2.59-1.28 3.57-2.25s1.73-2.13 2.25-3.49h-5.5c-.56.74-1.26 1.32-2.1 1.73-.84.41-1.79.62-2.85.62-1.2 0-2.27-.29-3.22-.88-.95-.58-1.69-1.4-2.23-2.45-.43-.83-.68-1.76-.78-2.77h17.29v-1.22c0-2.23-.47-4.21-1.4-5.94-.93-1.73-2.24-3.08-3.93-4.06l.02.01Zm-11.88 7.83c.13-.72.34-1.4.67-2.02.54-1.02 1.28-1.82 2.23-2.4.95-.58 2.02-.87 3.22-.87 1.2 0 2.26.3 3.18.9.92.6 1.63 1.43 2.13 2.49.28.59.47 1.22.59 1.89h-12.02v.01Zm50.2-8.23c-1.18-.71-2.54-1.06-4.1-1.06-1.68 0-3.15.4-4.41 1.2-1.14.73-2.03 1.74-2.7 3.01l-.06-.15c-.61-1.3-1.49-2.3-2.62-3.01-1.13-.71-2.48-1.06-4.03-1.06-1.55 0-2.96.39-4.12 1.17-.98.66-1.76 1.57-2.37 2.71v-3.36h-4.9v21.92h5.05V34.25c0-1.07.19-2 .58-2.8.39-.8.93-1.41 1.65-1.84.71-.43 1.55-.64 2.5-.64.88 0 1.64.19 2.28.58.64.39 1.12.93 1.46 1.65.34.72.5 1.56.5 2.55v13.23h4.94V34.27c0-1.07.2-2 .59-2.8.39-.8.95-1.41 1.67-1.84.72-.43 1.55-.64 2.49-.64.88 0 1.64.19 2.27.58.63.39 1.11.93 1.44 1.65.33.72.5 1.56.5 2.55V47h5.05V33.17c0-1.73-.32-3.24-.95-4.54-.64-1.3-1.54-2.3-2.72-3.01l.01-.03Zm24.53.44c-1.75-1-3.71-1.5-5.86-1.5-2.15 0-4.13.5-5.9 1.5-1.76 1-3.14 2.37-4.14 4.12-1 1.75-1.5 3.7-1.5 5.85 0 2.15.5 4.11 1.51 5.85 1.01 1.75 2.39 3.12 4.14 4.12 1.75 1 3.71 1.5 5.86 1.5 2.15 0 4.13-.5 5.89-1.5 1.76-1 3.13-2.37 4.14-4.12 1.01-1.75 1.51-3.7 1.51-5.85 0-2.15-.5-4.11-1.51-5.85-1.01-1.75-2.39-3.12-4.14-4.12Zm-.4 13.59c-.52 1.06-1.26 1.88-2.21 2.46-.95.58-2.05.88-3.27.88-1.22 0-2.32-.29-3.26-.88-.95-.58-1.68-1.41-2.2-2.46-.52-1.06-.78-2.26-.78-3.62 0-1.36.26-2.58.78-3.64s1.25-1.88 2.2-2.46c.95-.58 2.04-.88 3.26-.88 1.22 0 2.31.3 3.26.89.95.59 1.69 1.41 2.21 2.46.53 1.05.79 2.26.79 3.63s-.26 2.56-.78 3.62Zm16.8-13.52c-.83.57-1.53 1.33-2.1 2.26v-3.32h-5.01v21.92H283V35.13c0-1.06.22-1.97.67-2.74.45-.77 1.09-1.36 1.93-1.78.83-.41 1.82-.62 2.94-.62h1.41V24.9h-.81c-1.56 0-2.92.4-4.09 1.21l.01-.01Zm22.34-1.06v10.85c0 1.03-.21 1.94-.63 2.75-.42.81-1.02 1.43-1.79 1.88-.77.45-1.66.67-2.65.67-.93 0-1.73-.2-2.4-.59-.67-.39-1.18-.96-1.54-1.7-.36-.74-.54-1.64-.54-2.7V25.03h-5.03v11.92c0 1.8.33 3.34.98 4.63.66 1.29 1.58 2.27 2.76 2.94 1.18.67 2.56 1.01 4.13 1.01 1.68 0 3.15-.39 4.4-1.16.95-.59 1.73-1.37 2.34-2.34l-.04 3.16c0 .9-.18 1.66-.55 2.29-.36.63-.88 1.11-1.56 1.43-.68.32-1.5.49-2.45.49h-7.88v4.39h8.2c1.88 0 3.52-.34 4.92-1.02 1.4-.68 2.48-1.64 3.23-2.88.76-1.24 1.13-2.7 1.13-4.39V25.02h-5.05l.02.02Z"/>
  <path fill="url(#a)" d="M4.13086 64H38.2584c1.6581 0 3.155-.9931 3.8-2.5206l15.7975-37.4213c.2187-.5181.3293-1.0756.3243-1.6381l-.15-18.32875C58.0115 1.82625 56.1702 0 53.9052 0H36.2396c-.8056 0-1.5931.235625-2.2662.678125L1.86523 21.7869C.704609 22.55.00586 23.845.00586 25.2337V59.875c0 2.2781 1.84687 4.125 4.125 4.125Z"/>
  <path fill="url(#b)" d="M49.0189 58h10.8619c2.2781 0 4.125-1.8469 4.125-4.125V41.3094c0-.2-.0144-.4-.0438-.5981L58.5139 3.52688C58.217 1.50125 56.4795 0 54.4327 0H39.0352c-2.2788 0-4.1257 1.8475-4.125 4.12625l.0043 18.50435c0 .4256.0663.8488.1957 1.2538L45.0889 55.13c.5463 1.7094 2.135 2.87 3.9294 2.87h.0006Z"/>
  <path fill="#FDB60D" d="M47.5559 58h12.2587c2.3038 0 4.1613-1.8869 4.1244-4.1906L64.0052 43c-.0187-1.1812-.785-2.5312-1.6818-3.3L24.1646 6.99312C23.4171 6.3525 22.4646 6 21.4802 6H10.1309c-2.27817 0-4.12504 1.84687-4.12504 4.125v11.0031c0 1.1894.51375 2.3213 1.40875 3.1044L44.8396 56.9794C45.5915 57.6375 46.5565 58 47.5559 58Z"/>
  <path fill="#000" d="M52.0059 12h-40v40h40V12Z"/>
  <path fill="#fff" fill-rule="evenodd" d="M17.0127 16.9922h5.7131c1.4219 0 2.6956.3212 3.8213.9644 1.1256.6431 2.0062 1.5343 2.6425 2.6743.6356 1.14.9537 2.4275.9537 3.8644 0 1.4369-.3181 2.7244-.9537 3.8644-.6363 1.14-1.5169 2.0312-2.6425 2.6744-1.1257.6431-2.3994.9643-3.8213.9643h-5.7131V16.9922Zm8.0281 11.8762c.6719-.4 1.19-.9737 1.5544-1.7206.3644-.7469.5469-1.6306.5469-2.6531 0-1.0225-.1825-1.9063-.5469-2.6531-.3644-.7469-.8825-1.32-1.5544-1.7207-.6719-.4-1.4544-.6-2.3475-.6h-2.755v9.9469h2.755c.8931 0 1.6756-.1994 2.3475-.5994Z" clip-rule="evenodd"/>
  <path fill="#fff" d="M33 43.9984H17v3h16v-3Z"/>
  <path fill="#fff" d="M36.3058 16.9922h-4.0719v15.0062h2.8832V21.2903l-.0432-.7075 3.4513 11.4156h2.1225l3.4944-11.4906-.0432.7825v10.7081h2.8938V16.9922h-4.1375l-2.98 9.8506-.225 1.2863-.2575-1.2863-3.0869-9.8506Z"/>
</svg>
