<svg xmlns="http://www.w3.org/2000/svg" width="128" height="128" fill="none" viewBox="0 0 128 128">
  <defs>
    <linearGradient id="a" x1="119.353" x2="2.16" y1="8.13501" y2="125.328" gradientUnits="userSpaceOnUse">
      <stop offset=".31" stop-color="#FF45ED"/>
      <stop offset=".83" stop-color="#6B57FF"/>
    </linearGradient>
    <linearGradient id="b" x1="128.782" x2="79.2148" y1="112.659" y2="5.75" gradientUnits="userSpaceOnUse">
      <stop offset=".3" stop-color="#FDB60D"/>
      <stop offset=".7" stop-color="#FF45ED"/>
    </linearGradient>
  </defs>
  <path fill="url(#a)" d="M8.25 128h68.255c3.3162 0 6.31-1.986 7.6-5.041L115.7 48.1162c.437-1.0362.659-2.1512.649-3.2762l-.3-36.6575c-.038-4.53-3.72-8.1825-8.25-8.1825H72.4675c-1.6113 0-3.1863.47125-4.5325 1.35625L3.71875 43.5737C1.3975 45.1 0 47.69 0 50.4675V119.75c0 4.556 3.69375 8.25 8.25 8.25Z"/>
  <path fill="url(#b)" d="M98.0261 116H119.75c4.556 0 8.25-3.694 8.25-8.25V82.6188c0-.4-.029-.8-.088-1.1963L117.016 7.05375C116.422 3.0025 112.947 0 108.854 0H78.0586c-4.5575 0-8.2513 3.695-8.25 8.2525l.0087 37.0087c0 .8513.1325 1.6975.3913 2.5075L90.1661 110.26c1.0925 3.419 4.27 5.74 7.8587 5.74h.0013Z"/>
  <path fill="#FDB60D" d="M95.1 116h24.518c4.607 0 8.322-3.774 8.248-8.381L127.999 86c-.038-2.3625-1.57-5.0625-3.364-6.6L48.3175 13.9862C46.8225 12.705 44.9175 12 42.9487 12H20.25C15.6937 12 12 15.6937 12 20.25v22.0062c0 2.3788 1.0275 4.6426 2.8175 6.2088l74.85 65.494C91.1713 115.275 93.1012 116 95.1 116Z"/>
  <path fill="#000" d="M104 24H24v80h80V24Z"/>
  <path fill="#fff" d="M66 88H34v6h32v-6Z"/>
  <path fill="#fff" d="M34.0254 33.9844h11.4262c2.8438 0 5.3913.6425 7.6425 1.9287 2.2513 1.2863 4.0125 3.0688 5.285 5.3488 1.2713 2.28 1.9075 4.855 1.9075 7.7287 0 2.8738-.6362 5.4488-1.9075 7.7288-1.2725 2.28-3.0337 4.0625-5.285 5.3487-2.2512 1.2863-4.7987 1.9288-7.6425 1.9288H34.0254V33.9844Zm16.0562 23.7525c1.3438-.8 2.38-1.9475 3.1088-3.4413.7287-1.4937 1.0937-3.2612 1.0937-5.3062 0-2.045-.365-3.8125-1.0937-5.3063-.7288-1.4937-1.765-2.64-3.1088-3.4412-1.3437-.8-2.9087-1.2-4.695-1.2h-5.51v19.8937h5.51c1.7863 0 3.3513-.4 4.695-1.2v.0013Z"/>
  <path fill="#fff" d="M64.4648 33.9844h8.1463l6.1738 19.7012.515 2.5725.4499-2.5725 5.96-19.7012h8.275v30.0125h-5.7875V42.5806l.0863-1.565-6.9888 22.9813h-4.2449l-6.9026-22.8313.0863 1.415v21.4163h-5.7663V33.9844h-.0025Z"/>
</svg>
