<svg xmlns="http://www.w3.org/2000/svg" width="774" height="109" fill="none" viewBox="0 0 774 109">
  <path fill="#000" d="M0 4H85V89H0V4Z"/>
  <path fill="#fff" d="M10.543 72.8657H42.4715V78.1872H10.543V72.8657Z"/>
  <path fill="#fff" d="M10.5713 14.3442H23.0589C33.12 14.3442 40.0875 21.255 40.0875 30.266V30.3653C40.0875 39.3762 33.1341 46.3721 23.0589 46.3721H10.5713V14.3442ZM17.6665 20.7016V40.0148H23.1157C24.3953 40.0902 25.6764 39.8951 26.8756 39.4422C28.0747 38.9894 29.165 38.289 30.0754 37.3866C30.9858 36.4843 31.6959 35.4002 32.1593 34.2051C32.6228 33.01 32.8292 31.7306 32.7652 30.4504V30.3653C32.8302 29.0803 32.6252 27.7959 32.1634 26.595C31.7017 25.394 30.9934 24.3032 30.0843 23.3927C29.1752 22.4822 28.0853 21.7724 26.8851 21.3089C25.6848 20.8453 24.4008 20.6385 23.1157 20.7016H17.6665Z"/>
  <path fill="#fff" d="M42.5142 14.3726H50.1061L58.5352 27.9103L66.9502 14.3726H74.5421V46.4005H67.532L67.5462 25.4837L58.5352 39.1633H58.3365L49.4249 25.6256V46.3863H42.5142V14.3726Z"/>
  <path fill="#fff" d="M315.397 3.98535H335.533L357.912 39.9866L380.29 3.98535H400.483V89.1282H381.922V33.5299L357.968 69.9143H357.486L333.759 33.8989V89.1282H315.397V3.98535Z"/>
  <path fill="#fff" d="M407.99 56.8875V56.6462C407.99 38.0425 421.244 22.7168 440.216 22.7168C461.999 22.7168 471.975 39.6177 471.975 58.1078C471.975 59.5269 471.847 61.2723 471.733 62.9752H426.352C428.183 71.3618 434.015 75.7466 442.288 75.7466C448.489 75.7466 452.988 73.8025 458.096 69.0487L468.682 78.4144C462.609 85.9637 453.839 90.5898 442.047 90.5898C422.464 90.5898 407.99 76.8393 407.99 56.8875V56.8875ZM453.967 51.4667C452.874 43.1937 448.007 37.5884 440.216 37.5884C432.426 37.5884 427.573 43.0659 426.111 51.4667H453.967Z"/>
  <path fill="#fff" d="M478.091 23.923H496.538V33.1752C500.796 27.6977 506.387 22.7168 515.752 22.7168C524.267 22.7168 530.709 26.4773 534.115 33.0475C539.791 26.3637 546.645 22.7168 555.528 22.7168C569.279 22.7168 577.552 30.9757 577.552 46.6703V89.1282H559.104V52.758C559.104 44.0025 555.202 39.5041 548.277 39.5041C541.352 39.5041 537.038 44.0025 537.038 52.758V89.1282H518.59V52.758C518.59 44.0025 514.702 39.5041 507.763 39.5041C500.824 39.5041 496.581 44.0025 496.581 52.758V89.1282H478.133L478.091 23.923Z"/>
  <path fill="#fff" d="M583.938 56.8875V56.6462C583.938 37.9148 599.022 22.7168 619.343 22.7168C639.664 22.7168 654.493 37.6736 654.493 56.405V56.6462C654.493 75.3777 639.408 90.5898 619.101 90.5898C598.795 90.5898 583.938 75.5905 583.938 56.8875V56.8875ZM636.244 56.8875V56.6462C636.244 47.0393 629.276 38.6953 619.101 38.6953C608.515 38.6953 602.186 46.8548 602.186 56.4617V56.703C602.186 66.3099 609.126 74.7107 619.343 74.7107C629.915 74.6539 636.244 66.4944 636.244 56.8875V56.8875Z"/>
  <path fill="#fff" d="M661.574 23.923H680.021V37.0634C683.796 28.0667 689.87 22.2202 700.825 22.7169V42.0443H699.845C687.571 42.0443 679.979 49.4659 679.979 65.0471V89.1709H661.531L661.574 23.923Z"/>
  <path fill="#fff" d="M754.393 23.9229H773.607L748.547 90.7032C743.566 103.971 738.216 108.952 727.19 108.952C721.398 109.034 715.701 107.475 710.758 104.454L716.973 91.0722C719.351 92.5751 722.07 93.4536 724.877 93.6265C728.042 93.6265 729.745 92.6473 731.32 89.3693L705.777 23.9229H725.36L740.203 68.3248L754.393 23.9229Z"/>
  <path fill="#fff" d="M114.729 56.6461V56.4049C114.729 34.6367 128.92 22.7167 144.416 22.7167C148.326 22.6409 152.2 23.4803 155.729 25.1681C159.257 26.8558 162.342 29.3451 164.737 32.4371V0.380859H183.184V89.1281H164.737V79.7624C160.224 85.8359 154.023 90.3343 144.416 90.3343C129.218 90.3343 114.729 78.4285 114.729 56.6461V56.6461ZM164.978 56.6461V56.4049C164.978 45.5775 157.798 38.3971 149.156 38.3971C140.514 38.3971 133.22 45.4924 133.22 56.4049V56.6461C133.22 67.4734 140.528 74.6538 149.156 74.6538C157.783 74.6538 164.978 67.4734 164.978 56.6461V56.6461Z"/>
  <path fill="#fff" d="M190.578 56.8875V56.6462C190.578 37.9148 205.648 22.7168 225.969 22.7168C246.289 22.7168 261.118 37.6736 261.118 56.405V56.6462C261.118 75.3777 246.034 90.5898 225.727 90.5898C205.421 90.5898 190.578 75.5905 190.578 56.8875V56.8875ZM242.87 56.8875V56.6462C242.87 47.0393 235.945 38.6385 225.727 38.6385C215.141 38.6385 208.812 46.798 208.812 56.405V56.6462C208.812 66.2532 215.752 74.6539 225.969 74.6539C236.555 74.6539 242.87 66.4944 242.87 56.8875V56.8875Z"/>
  <path fill="#fff" d="M271.52 70.6379V39.7452H263.729V23.9228H271.52V7.26318H289.968V23.9228H305.293V39.7452H289.968V67.6011C289.968 71.8582 291.784 73.9159 295.928 73.9159C299.116 73.931 302.256 73.135 305.052 71.6028V86.446C300.637 89.0525 295.576 90.3608 290.45 90.2207C279.183 90.2207 271.52 85.7223 271.52 70.6379Z"/>
</svg>
