<svg height="64" viewBox="0 0 64 64" width="64" xmlns="http://www.w3.org/2000/svg" xmlns:xlink="http://www.w3.org/1999/xlink"><linearGradient id="a" gradientUnits="userSpaceOnUse" x1="25.11286" x2="55.8756" y1="24.24154" y2="24.24154"><stop offset="0" stop-color="#21d789"/><stop offset="1" stop-color="#07c3f2"/></linearGradient><linearGradient id="b" gradientUnits="userSpaceOnUse" x1="-17.86545" x2="57.82258" y1="49.24445" y2="-6.62828"><stop offset=".01075" stop-color="#fcf84a"/><stop offset=".1116" stop-color="#a7eb62"/><stop offset=".2056" stop-color="#5fe077"/><stop offset=".2727" stop-color="#32da84"/><stop offset=".3065" stop-color="#21d789"/><stop offset=".5768" stop-color="#21d789"/><stop offset=".5968" stop-color="#21d789"/><stop offset=".686" stop-color="#20d68c"/><stop offset=".7627" stop-color="#1ed497"/><stop offset=".8348" stop-color="#19d1a9"/><stop offset=".904" stop-color="#13ccc2"/><stop offset=".9707" stop-color="#0bc6e1"/><stop offset="1" stop-color="#07c3f2"/></linearGradient><linearGradient id="c" gradientUnits="userSpaceOnUse" x1="13.34958" x2="25.98738" y1="71.2007" y2="31.54442"><stop offset="0" stop-color="#21d789"/><stop offset=".1638" stop-color="#24d788"/><stop offset=".3047" stop-color="#2fd886"/><stop offset=".4371" stop-color="#41da82"/><stop offset=".5644" stop-color="#5adc7d"/><stop offset=".6881" stop-color="#7ae077"/><stop offset=".809" stop-color="#a1e36e"/><stop offset=".9254" stop-color="#cfe865"/><stop offset="1" stop-color="#f1eb5e"/></linearGradient><linearGradient id="d" gradientUnits="userSpaceOnUse" x1="27.24435" x2="48.14941" y1="33.66779" y2="5.56084"><stop offset="0" stop-color="#21d789"/><stop offset=".06081" stop-color="#24d788"/><stop offset=".1131" stop-color="#2fd886"/><stop offset=".1622" stop-color="#41da82"/><stop offset=".2094" stop-color="#5add7d"/><stop offset=".2548" stop-color="#79e077"/><stop offset=".2581" stop-color="#7ce076"/><stop offset=".4986" stop-color="#8ce173"/><stop offset=".9247" stop-color="#b2e56b"/></linearGradient><linearGradient id="e" gradientUnits="userSpaceOnUse" x1="62.68843" x2="13.30179" y1="37.7307" y2="37.27348"><stop offset=".3871" stop-color="#fcf84a"/><stop offset=".5358" stop-color="#ecf451"/><stop offset=".8259" stop-color="#c2e964"/><stop offset=".9247" stop-color="#b2e56b"/></linearGradient><path d="m58 6h-14l-8.4 30 22.4 6.483z" fill="url(#a)"/><path d="m33.782 6h-15.747-12.035v43.541l8.2-.941 8.4-3.6.4-6.2 3.4-17.8 17.6-15z" fill="url(#b)"/><path d="m33.574 58-7.174-37-7.6 3.8-12.8 19.2v14z" fill="url(#c)"/><path d="m42.112 6-13.912 12.4h20.8l-1.815-12.4z" fill="url(#d)"/><path d="m58 40.357-14-23.357-14.8 1.4-2.8 2.6-7.477 31 12.615 6h26.462z" fill="url(#e)"/><path d="m12 12h40v40h-40z"/><g fill="#fff"><path d="m16.2 17.2h6.8c4 0 6.4 2.4 6.4 5.8 0 3.8-3 5.8-6.8 5.8h-2.8v5h-3.6zm6.6 8.4a2.47692 2.47692 0 0 0 2.8-2.6c0-1.6-1.2-2.6-3-2.6h-2.8v5.2z"/><path d="m30.8 25.6a8.41422 8.41422 0 0 1 8.6-8.6 8.40548 8.40548 0 0 1 6.6 2.6l-2.4 2.6a5.75621 5.75621 0 0 0 -4.2-1.8 4.96013 4.96013 0 0 0 -4.8 5.2 4.96013 4.96013 0 0 0 4.8 5.2 6.42343 6.42343 0 0 0 4.4-2l2.4 2.4a8.71563 8.71563 0 0 1 -6.8 3c-5-.2-8.6-3.8-8.6-8.6"/><path d="m16 45.40002h15v2.40002h-15z"/></g></svg>