<svg xmlns="http://www.w3.org/2000/svg" width="680" height="161" fill="none" viewBox="0 0 680 161">
  <path fill="#000" d="M117.875 3.6123H152.469C172.655 3.6123 184.881 15.5967 184.881 32.8793V33.1343C184.881 52.7258 169.638 62.8829 150.656 62.8829H136.49V88.2825H117.875V3.6123ZM151.251 46.3086C160.572 46.3086 166.012 40.7414 166.012 33.5592V33.3184C166.012 24.9746 160.204 20.569 150.896 20.569H136.504V46.3086H151.251Z"/>
  <path fill="#000" d="M236.77 23.459H255.88L230.906 89.855C225.948 103.029 220.635 107.988 209.657 107.988C203.898 108.075 198.233 106.522 193.323 103.511L199.486 90.2092C201.852 91.7011 204.556 92.5731 207.348 92.7449C210.493 92.7449 212.192 91.7816 213.765 88.4951L188.408 23.459H207.886L222.633 67.6002L236.77 23.459Z"/>
  <path fill="#000" d="M256.476 46.1949V45.9399C256.476 21.8577 274.622 2.16699 300.617 2.16699C316.582 2.16699 326.116 7.49341 333.992 15.228L322.149 28.8982C315.619 22.9627 308.961 19.3362 300.504 19.3362C286.224 19.3362 275.94 31.1931 275.94 45.6991V45.9399C275.94 60.4601 285.983 72.5578 300.504 72.5578C310.179 72.5578 316.086 68.6905 322.744 62.6416L334.601 74.6119C325.889 83.919 316.185 89.727 299.894 89.727C274.976 89.727 256.476 70.5038 256.476 46.1949V46.1949Z"/>
  <path fill="#000" d="M340.749 0H359.165V32.5818C363.415 27.1421 368.84 22.184 378.147 22.184C392.058 22.184 400.161 31.3777 400.161 46.2662V88.2825H381.745V52.1167C381.745 43.4046 377.637 38.9282 370.625 38.9282C363.613 38.9282 359.137 43.4046 359.137 52.1167V88.2825H340.721L340.749 0Z"/>
  <path fill="#000" d="M407.854 69.6541V69.4133C407.854 55.2473 418.62 48.7309 433.976 48.7309C439.37 48.683 444.731 49.5845 449.813 51.3941V50.3033C449.813 42.682 445.096 38.4464 435.902 38.4464C429.767 38.4521 423.692 39.6451 418.011 41.9596L413.407 27.921C421.286 24.2839 429.889 22.4867 438.565 22.6655C448.609 22.6655 455.862 25.3287 460.452 29.9326C465.297 34.7632 467.535 41.9029 467.535 50.6008V88.2824H449.7V81.1994C445.223 86.1575 439.047 89.4298 430.108 89.4298C417.897 89.4865 407.854 82.4743 407.854 69.6541V69.6541ZM450.054 65.4043V62.1461C446.362 60.512 442.362 59.6861 438.325 59.7237C430.462 59.7237 425.575 62.8686 425.575 68.6766V68.9175C425.575 73.8756 429.683 76.7796 435.605 76.7796C444.246 76.7937 450.054 72.0765 450.054 65.4185V65.4043Z"/>
  <path fill="#000" d="M477.465 23.459H495.881V36.5201C499.635 27.5671 505.684 21.7591 516.563 22.2407V41.4782H515.642C503.417 41.4782 495.923 48.8445 495.923 64.3279V88.2826H477.507L477.465 23.459Z"/>
  <path fill="#000" d="M524.878 23.4585H543.294V32.5814C547.544 27.1417 553.097 22.1836 562.404 22.1836C570.904 22.1836 577.278 25.9376 580.664 32.4681C586.331 25.8101 593.116 22.1836 601.913 22.1836C615.569 22.1836 623.8 30.414 623.8 46.0108V88.2255H605.384V52.1164C605.384 43.4043 601.516 38.9278 594.618 38.9278C587.719 38.9278 583.497 43.4043 583.497 52.1164V88.2821H565.223V52.1164C565.223 43.4043 561.356 38.9278 554.457 38.9278C547.558 38.9278 543.337 43.4043 543.337 52.1164V88.2821H524.921L524.878 23.4585Z"/>
  <path fill="#000" d="M0 4H84.996V88.996H0V4Z"/>
  <path fill="#fff" d="M11.3047 72.4736H43.1782V77.7859H11.3047V72.4736Z"/>
  <path fill="#fff" d="M11.333 14.166H24.3657C31.9587 14.166 36.5485 18.6708 36.5485 25.173V25.258C36.5485 32.6243 30.8821 36.4491 23.6858 36.4491H18.416V45.997H11.333V14.166ZM23.8841 30.2161C27.3831 30.2161 29.4372 28.1337 29.4372 25.3997V25.3147C29.4372 22.1698 27.2556 20.4841 23.7708 20.4841H18.416V30.2161H23.8841Z"/>
  <path fill="#fff" d="M40.3593 30.1879V30.1029C40.3183 27.9192 40.7204 25.7498 41.5411 23.7257C42.3619 21.7017 43.5844 19.865 45.1348 18.3265C46.6851 16.7881 48.5312 15.5798 50.5615 14.7747C52.5919 13.9695 54.7643 13.5842 56.9477 13.642C59.2674 13.5248 61.5856 13.901 63.7492 14.7459C65.9127 15.5908 67.8724 16.8852 69.4987 18.5435L65.0506 23.6857C62.909 21.4713 59.9847 20.1846 56.9052 20.1017C51.5363 20.1017 47.6689 24.5499 47.6689 30.0179V30.1171C47.6689 35.571 51.4513 40.1183 56.9052 40.1183C60.5458 40.1183 62.7699 38.7017 65.2773 36.3926L69.7254 40.8974C68.1214 42.7678 66.1137 44.2497 63.8537 45.2313C61.5937 46.2128 59.1403 46.6685 56.6785 46.5638C54.5216 46.5965 52.3802 46.1948 50.3818 45.3827C48.3833 44.5706 46.5688 43.3647 45.0461 41.8367C43.5234 40.3087 42.3237 38.49 41.5186 36.4887C40.7134 34.4875 40.3191 32.3447 40.3593 30.1879Z"/>
  <path fill="#000" d="M115.609 136.716V136.631C115.554 134.555 115.916 132.488 116.676 130.555C117.435 128.621 118.576 126.86 120.03 125.376C121.483 123.892 123.22 122.715 125.138 121.916C127.055 121.116 129.114 120.711 131.191 120.723C133.421 120.656 135.641 121.057 137.707 121.898C139.773 122.74 141.641 124.004 143.19 125.61L140.81 128.146C139.573 126.818 138.078 125.757 136.417 125.026C134.756 124.296 132.963 123.911 131.149 123.896C124.349 123.896 119.249 129.421 119.249 136.504V136.589C119.249 143.672 124.392 149.338 131.149 149.338C135.399 149.338 138.133 147.709 141.065 144.904L143.346 147.143C141.809 148.879 139.914 150.261 137.791 151.193C135.668 152.125 133.368 152.584 131.05 152.54C128.985 152.556 126.938 152.155 125.032 151.361C123.126 150.567 121.4 149.395 119.958 147.918C118.516 146.44 117.387 144.686 116.64 142.761C115.893 140.836 115.542 138.78 115.609 136.716V136.716Z"/>
  <path fill="#000" d="M147.1 140.754V140.669C147.088 137.528 148.325 134.511 150.538 132.282C152.751 130.053 155.759 128.795 158.9 128.783C162.041 128.772 165.057 130.009 167.286 132.222C169.515 134.435 170.774 137.443 170.785 140.584V140.669C170.795 142.233 170.492 143.784 169.896 145.23C169.3 146.677 168.422 147.99 167.313 149.094C166.204 150.198 164.887 151.069 163.437 151.659C161.988 152.248 160.436 152.542 158.871 152.525C157.32 152.545 155.781 152.253 154.344 151.668C152.907 151.083 151.602 150.217 150.505 149.12C149.408 148.023 148.542 146.718 147.957 145.281C147.372 143.844 147.08 142.305 147.1 140.754V140.754ZM167.314 140.754V140.669C167.35 139.525 167.158 138.386 166.748 137.318C166.338 136.25 165.719 135.275 164.928 134.449C164.136 133.623 163.188 132.963 162.138 132.509C161.088 132.054 159.959 131.813 158.815 131.801C157.686 131.811 156.572 132.049 155.538 132.5C154.503 132.951 153.571 133.606 152.796 134.426C152.021 135.246 151.419 136.214 151.027 137.272C150.635 138.33 150.46 139.456 150.514 140.584V140.669C150.47 141.804 150.654 142.936 151.056 143.998C151.457 145.061 152.067 146.032 152.85 146.855C153.633 147.678 154.573 148.335 155.615 148.788C156.656 149.242 157.778 149.482 158.914 149.494C160.047 149.497 161.169 149.27 162.212 148.828C163.255 148.385 164.197 147.736 164.982 146.919C165.767 146.102 166.378 145.135 166.779 144.075C167.18 143.015 167.362 141.885 167.314 140.754V140.754Z"/>
  <path fill="#000" d="M176.537 129.293H179.908V133.161C180.638 131.859 181.704 130.778 182.995 130.03C184.286 129.282 185.754 128.896 187.246 128.911C188.773 128.858 190.281 129.259 191.58 130.063C192.878 130.868 193.909 132.039 194.542 133.43C195.347 132.031 196.514 130.873 197.919 130.079C199.324 129.284 200.917 128.881 202.531 128.911C207.758 128.911 211.031 132.424 211.031 138.048V152.101H207.645V138.841C207.645 134.45 205.449 131.985 201.766 131.985C198.338 131.985 195.491 134.535 195.491 139.068V152.157H192.091V138.799C192.091 134.549 189.853 132.042 186.254 132.042C182.656 132.042 179.922 135.031 179.922 139.195V152.157H176.537V129.293Z"/>
  <path fill="#000" d="M217.986 129.293H221.372V133.161C222.101 131.859 223.167 130.778 224.459 130.03C225.75 129.282 227.218 128.896 228.71 128.911C230.237 128.858 231.745 129.259 233.043 130.063C234.342 130.868 235.373 132.039 236.005 133.43C236.811 132.031 237.977 130.873 239.383 130.079C240.788 129.284 242.381 128.881 243.995 128.911C249.222 128.911 252.424 132.424 252.424 138.048V152.101H249.052V138.841C249.052 134.45 246.842 131.985 243.159 131.985C239.731 131.985 236.884 134.535 236.884 139.068V152.157H233.541V138.799C233.541 134.549 231.302 132.042 227.704 132.042C224.106 132.042 221.372 135.031 221.372 139.195V152.157H217.986V129.293Z"/>
  <path fill="#000" d="M259.11 143.389V129.223H262.482V142.482C262.482 146.732 264.777 149.338 268.772 149.338C269.694 149.356 270.609 149.182 271.461 148.828C272.312 148.475 273.082 147.949 273.72 147.284C274.359 146.619 274.853 145.828 275.171 144.963C275.49 144.098 275.626 143.176 275.571 142.255V129.251H278.914V151.917H275.571V147.964C274.807 149.343 273.679 150.485 272.31 151.267C270.941 152.049 269.384 152.44 267.808 152.398C262.312 152.483 259.11 148.743 259.11 143.389V143.389Z"/>
  <path fill="#000" d="M286.153 129.293H289.539V133.246C290.302 131.863 291.432 130.717 292.804 129.935C294.176 129.152 295.737 128.764 297.316 128.812C302.798 128.812 306.014 132.495 306.014 137.906V152.072H302.586V138.813C302.586 134.563 300.305 131.956 296.296 131.956C295.374 131.937 294.457 132.109 293.604 132.462C292.752 132.815 291.982 133.341 291.343 134.006C290.704 134.672 290.21 135.463 289.892 136.329C289.574 137.196 289.439 138.118 289.496 139.039V152.044H286.153V129.293Z"/>
  <path fill="#000" d="M312.785 120.595H316.652V124.335H312.785V120.595ZM313.012 129.293H316.397V151.958H313.068L313.012 129.293Z"/>
  <path fill="#000" d="M324.486 145.98V132.282H321.327V129.293H324.486V122.437H327.872V129.293H335.068V132.282H327.872V145.541C327.8 146.057 327.85 146.583 328.017 147.076C328.183 147.57 328.463 148.017 328.832 148.384C329.202 148.751 329.652 149.027 330.147 149.19C330.641 149.353 331.167 149.399 331.683 149.324C332.83 149.326 333.962 149.054 334.983 148.53V151.434C333.724 152.087 332.322 152.418 330.903 152.398C327.234 152.398 324.486 150.599 324.486 145.98V145.98Z"/>
  <path fill="#000" d="M358.215 129.293H361.828L352.294 152.752C350.367 157.441 348.158 159.155 344.744 159.155C343.065 159.173 341.408 158.784 339.913 158.022L341.046 155.344C342.139 155.925 343.364 156.213 344.602 156.18C346.628 156.18 347.903 155.118 349.263 151.93L338.936 129.265H342.675L350.934 148.19L358.215 129.293Z"/>
  <path fill="#000" d="M378.94 140.711V140.626C378.94 134.081 383.558 128.812 389.834 128.812C396.563 128.812 400.43 134.166 400.43 140.796C400.459 141.164 400.459 141.533 400.43 141.901H382.369C382.435 143.973 383.31 145.936 384.806 147.371C386.301 148.806 388.3 149.598 390.372 149.579C391.725 149.595 393.066 149.317 394.301 148.764C395.536 148.211 396.636 147.397 397.526 146.377L399.637 148.261C398.501 149.634 397.067 150.729 395.445 151.466C393.823 152.202 392.054 152.56 390.273 152.511C388.745 152.513 387.232 152.205 385.825 151.606C384.419 151.008 383.148 150.131 382.09 149.028C381.031 147.926 380.206 146.621 379.665 145.192C379.124 143.762 378.877 142.238 378.94 140.711ZM397.002 139.394C396.648 135.271 394.282 131.659 389.749 131.659C385.797 131.659 382.808 134.96 382.369 139.394H397.002Z"/>
  <path fill="#000" d="M404.878 140.711V140.626C404.878 133.203 410.276 128.811 415.715 128.811C417.456 128.81 419.169 129.252 420.691 130.098C422.213 130.943 423.495 132.163 424.413 133.642V119.943H427.813V152.001H424.413V147.44C423.523 148.96 422.253 150.223 420.729 151.107C419.205 151.991 417.477 152.465 415.715 152.483C410.276 152.483 404.878 148.176 404.878 140.711V140.711ZM424.555 140.711V140.626C424.62 138.378 423.792 136.197 422.252 134.559C420.712 132.921 418.586 131.959 416.339 131.885C411.947 131.885 408.349 135.129 408.349 140.626V140.711C408.349 146.065 412.032 149.494 416.339 149.494C417.459 149.457 418.561 149.199 419.581 148.736C420.601 148.272 421.519 147.61 422.283 146.79C423.046 145.97 423.64 145.007 424.03 143.956C424.42 142.905 424.599 141.788 424.555 140.668V140.711Z"/>
  <path fill="#000" d="M434.896 120.595H438.749V124.335H434.896V120.595ZM435.108 129.293H438.494V151.958H435.108V129.293Z"/>
  <path fill="#000" d="M446.626 145.98V132.282H443.467V129.293H446.626V122.437H450.012V129.293H457.208V132.282H450.012V145.541C449.94 146.059 449.989 146.585 450.157 147.08C450.324 147.575 450.605 148.024 450.976 148.391C451.347 148.758 451.799 149.034 452.296 149.196C452.792 149.357 453.32 149.401 453.836 149.324C454.979 149.324 456.106 149.052 457.123 148.53V151.434C455.863 152.087 454.462 152.418 453.043 152.398C449.388 152.398 446.626 150.599 446.626 145.98Z"/>
  <path fill="#000" d="M462.109 120.595H465.976V124.335H462.109V120.595ZM462.336 129.293H465.721V151.958H462.336V129.293Z"/>
  <path fill="#000" d="M471.544 140.754V140.669C471.538 139.113 471.839 137.572 472.429 136.133C473.019 134.694 473.887 133.386 474.982 132.282C477.195 130.053 480.203 128.795 483.344 128.783C486.485 128.772 489.502 130.009 491.731 132.222C492.834 133.318 493.711 134.62 494.312 136.055C494.912 137.489 495.224 139.028 495.229 140.584V140.669C495.239 142.233 494.937 143.784 494.341 145.23C493.745 146.677 492.867 147.99 491.758 149.094C490.649 150.198 489.331 151.069 487.882 151.659C486.432 152.248 484.88 152.542 483.316 152.525C481.765 152.545 480.225 152.253 478.788 151.668C477.352 151.083 476.046 150.217 474.949 149.12C473.852 148.023 472.986 146.718 472.401 145.281C471.816 143.844 471.525 142.305 471.544 140.754ZM491.759 140.754V140.669C491.795 139.525 491.602 138.386 491.192 137.318C490.782 136.25 490.164 135.275 489.372 134.449C488.58 133.623 487.632 132.963 486.582 132.509C485.533 132.054 484.403 131.813 483.259 131.801C482.131 131.811 481.016 132.049 479.982 132.5C478.948 132.951 478.015 133.606 477.24 134.426C476.465 135.246 475.863 136.214 475.471 137.272C475.079 138.33 474.904 139.456 474.958 140.584V140.669C474.914 141.804 475.099 142.936 475.5 143.998C475.901 145.061 476.512 146.032 477.295 146.855C478.078 147.678 479.018 148.335 480.059 148.788C481.101 149.242 482.223 149.482 483.358 149.494C484.491 149.497 485.613 149.27 486.656 148.828C487.699 148.385 488.641 147.736 489.426 146.919C490.211 146.102 490.823 145.135 491.224 144.075C491.625 143.015 491.807 141.885 491.759 140.754V140.754Z"/>
  <path fill="#000" d="M500.981 129.293H504.31V133.245C505.074 131.863 506.204 130.719 507.576 129.936C508.947 129.154 510.508 128.765 512.087 128.811C517.583 128.811 520.785 132.494 520.785 137.906V152.072H517.399V138.813C517.399 134.563 515.118 131.956 511.123 131.956C510.2 131.937 509.283 132.109 508.43 132.462C507.576 132.815 506.806 133.34 506.165 134.006C505.525 134.671 505.03 135.462 504.71 136.328C504.391 137.194 504.255 138.117 504.31 139.039V152.044H500.924L500.981 129.293Z"/>
</svg>
