<svg xmlns="http://www.w3.org/2000/svg" width="128" height="129" fill="none" viewBox="0 0 128 129">
  <defs>
    <radialGradient id="a" cx="0" cy="0" r="1" gradientTransform="translate(123.445 3.50969) scale(168.026)" gradientUnits="userSpaceOnUse">
      <stop offset=".03" stop-color="#F0EB18"/>
      <stop offset=".71" stop-color="#00C4F4"/>
    </radialGradient>
  </defs>
  <path fill="url(#a)" d="M119.75.117188H51.4175c-2.1875 0-4.2862.868749-5.8337 2.416252L2.41625 45.7009C.86875 47.2484 0 49.3459 0 51.5347v68.3323c0 4.556 3.69375 8.25 8.25 8.25h68.3325c2.1887 0 4.2863-.869 5.8338-2.416l43.1647-43.1676c1.548-1.5475 2.416-3.645 2.416-5.8325L128 8.36844c0-4.55625-3.694-8.250003-8.25-8.250003V.117188Z"/>
  <path fill="#000" d="M104 24.1172H24v79.9998h80V24.1172Z"/>
  <path fill="#fff" d="M66 88.1172H34v6h32v-6Z"/>
  <path fill="#fff" d="M34.0013 34.1016H46.885c2.115 0 3.9687.3862 5.5625 1.1575 1.5937.7712 2.8225 1.8575 3.6875 3.2587.865 1.4013 1.2975 3.0225 1.2975 4.8663 0 1.8437-.44 3.5162-1.3187 4.9312-.8788 1.415-2.1263 2.5113-3.7413 3.2913-1.615.7787-3.5012 1.1687-5.66 1.1687h-6.86v11.34H34V34.1028l.0013-.0012Zm15.0812 13.2587c.7363-.365 1.3038-.8862 1.7038-1.565.4-.6787.5999-1.475.5999-2.39s-.1999-1.6825-.5999-2.3475-.9688-1.1787-1.7038-1.5437c-.7362-.365-1.5975-.5463-2.5838-.5463h-6.645v8.94h6.645c.9863 0 1.8476-.1825 2.5838-.5462v-.0013Z"/>
  <path fill="#fff" d="M67.0145 62.6022c-2.33-1.35-4.1588-3.2088-5.4875-5.5738-1.3288-2.365-1.9938-5.005-1.9938-7.9212 0-2.9163.665-5.5563 1.9938-7.9213 1.3287-2.365 3.1587-4.2237 5.4875-5.5737 2.3287-1.35 4.9312-2.0263 7.8037-2.0263 2.43 0 4.6588.45 6.6888 1.35 2.0287.9 3.72 2.1613 5.07 3.7838 1.35 1.6225 2.2537 3.4837 2.7112 5.585H83.157c-.4-1.0863-.9963-2.04-1.79-2.8625-.7938-.8213-1.7475-1.4538-2.8625-1.8975-1.115-.4425-2.33-.665-3.645-.665-1.7725 0-3.3725.4425-4.8025 1.3287-1.4288.8863-2.5475 2.105-3.355 3.655-.8075 1.5513-1.2113 3.2975-1.2113 5.2413 0 1.9437.4038 3.6912 1.2113 5.2412.8075 1.5513 1.9262 2.7688 3.355 3.655 1.4287.8863 3.03 1.3288 4.8025 1.3288 1.315 0 2.53-.2213 3.645-.665 1.115-.4425 2.0687-1.075 2.8625-1.8975.7937-.8213 1.39-1.7763 1.79-2.8625h6.1312c-.4575 2.1012-1.3612 3.9625-2.7112 5.585-1.35 1.6225-3.0413 2.8837-5.07 3.7837-2.03.9-4.2588 1.35-6.6888 1.35-2.8725 0-5.4737-.675-7.8037-2.0262v.005Z"/>
</svg>
