<svg xmlns="http://www.w3.org/2000/svg" width="70" height="70" fill="none" viewBox="0 0 70 70">
  <defs>
    <linearGradient id="a" x1="63.1568" x2="-9.07825" y1="63.1923" y2="-9.04295" gradientUnits="userSpaceOnUse">
      <stop offset="0.482" stop-color="#FCF84A"/>
      <stop offset="0.7258" stop-color="#21D789"/>
    </linearGradient>
  </defs>
  <path fill="url(#a)" d="M64 6H6V64H64V6Z"/>
  <path fill="#000000" d="M56 14H14V56H56V14Z"/>
  <path fill="#FFFFFF" d="M19.1333 19.1333H25.55C29.2833 19.1333 31.6167 21.35 31.6167 24.6166C31.6167 28.2333 28.8167 30.1 25.2 30.1H22.5167V34.7666H19.0167V19.1333H19.1333ZM25.3167 27.1833C27.0667 27.1833 28 26.0166 28 24.7333C28 23.2166 26.95 22.4 25.2 22.4H22.5167V27.1833H25.3167Z"/>
  <path fill="#FFFFFF" d="M33.6 27.0666C33.6 22.6332 36.8667 18.8999 41.7667 18.8999C44.8 18.8999 46.4334 19.8332 48.0667 21.2332L45.9667 23.7999C44.8 22.6332 43.6334 21.9332 42 21.9332C39.4334 21.9332 37.3334 24.0332 37.3334 26.8332C37.3334 29.6332 39.2 31.7332 42 31.7332C43.8667 31.7332 44.8 31.0332 46.2 29.8666L48.3 32.1999C46.4334 34.0666 44.5667 34.9999 41.5334 34.9999C36.8667 34.9999 33.6 31.4999 33.6 27.0666Z"/>
  <path fill="#FFFFFF" d="M34.4167 48.6499H18.6667V51.3332H34.4167V48.6499Z"/>
  <g>
    <rect x="37" y="53" width="33" height="17" fill="#d99e2b"/>
    <path fill="#000000" d="M40.05563,66.966h7.19661V65.24271H41.745V62.2975h4.82041V60.57425H41.745V57.72294h5.43874V55.99969H40.05563Z"/>
    <path fill="#000000" d="M48.15627,66.966h1.86832l1.06757-2.6268h4.9082l1.05281,2.6268h1.9277l-4.5671-10.95841h-1.6904Zm3.60316-4.321,1.77945-4.35241L55.33309,62.645Z"/>
    <path fill="#000000" d="M59.87536,66.966h1.62869V63.44109h1.84026a3.50285,3.50285,0,0,0,3.70715-3.74426v-.03124a3.36233,3.36233,0,0,0-3.52185-3.6659H59.87536Zm1.62869-5.26364V57.75418h1.89333a1.80658,1.80658,0,0,1,1.99894,1.95836V59.744a1.86938,1.86938,0,0,1-1.99894,1.95836Z"/>
  </g>
</svg>
