<svg xmlns="http://www.w3.org/2000/svg" width="64" height="65" fill="none" viewBox="0 0 64 65">
  <defs>
    <radialGradient id="a" cx="0" cy="0" r="1" gradientTransform="translate(61.7225 1.75875) scale(84.0131)" gradientUnits="userSpaceOnUse">
      <stop offset=".03" stop-color="#F0EB18"/>
      <stop offset=".71" stop-color="#00C4F4"/>
    </radialGradient>
  </defs>
  <path fill="url(#a)" d="M59.875.0625H25.7087c-1.0937 0-2.1431.434375-2.9168 1.20812L1.20812 22.8544C.434375 23.6281 0 24.6769 0 25.7712v34.1663c0 2.2781 1.84687 4.125 4.125 4.125h34.1662c1.0944 0 2.1432-.4344 2.9169-1.2081l21.5825-21.5838c.7738-.7737 1.2081-1.8225 1.2081-2.9162L64 4.18812C64 1.91 62.1531.063125 59.875.063125V.0625Z"/>
  <path fill="#000" d="M52 12.0625H12v40h40v-40Z"/>
  <path fill="#fff" d="M33 44.0625H17v3h16v-3Z"/>
  <path fill="#fff" d="M17.0006 17.0547h6.4419c1.0575 0 1.9844.1931 2.7812.5787.7969.3857 1.4113.9288 1.8438 1.6294.4325.7006.6487 1.5113.6487 2.4331 0 .9219-.2199 1.7582-.6593 2.4657s-1.0631 1.2556-1.8706 1.6456c-.8075.3894-1.7507.5844-2.83.5844h-3.43v5.67H17V17.0553l.0006-.0006Zm7.5407 6.6294c.3681-.1825.6518-.4432.8518-.7825.2-.3394.3-.7375.3-1.195s-.1-.8413-.3-1.1738c-.2-.3325-.4843-.5894-.8518-.7719-.3682-.1825-.7988-.2731-1.2919-.2731h-3.3225v4.47h3.3225c.4931 0 .9237-.0912 1.2919-.2731v-.0006Z"/>
  <path fill="#fff" d="M33.5082 31.305c-1.165-.675-2.0794-1.6044-2.7437-2.7869-.6644-1.1825-.9969-2.5025-.9969-3.9606s.3325-2.7781.9969-3.9606c.6643-1.1825 1.5793-2.1119 2.7437-2.7869 1.1644-.675 2.4656-1.0131 3.9019-1.0131 1.215 0 2.3294.225 3.3444.675 1.0143.45 1.86 1.0806 2.535 1.8919.675.8112 1.1268 1.7418 1.3556 2.7924h-3.0656c-.2-.5431-.4982-1.0199-.895-1.4312-.3969-.4106-.8738-.7269-1.4313-.9487-.5575-.2213-1.165-.3325-1.8225-.3325-.8862 0-1.6862.2212-2.4012.6643-.7144.4432-1.2738 1.0525-1.6775 1.8275-.4038.7757-.6057 1.6488-.6057 2.6206 0 .9719.2019 1.8457.6057 2.6207.4037.7756.9631 1.3844 1.6775 1.8275.7143.4431 1.515.6644 2.4012.6644.6575 0 1.265-.1107 1.8225-.3325.5575-.2213 1.0344-.5375 1.4313-.9488.3968-.4106.695-.8881.895-1.4313h3.0656c-.2288 1.0507-.6806 1.9813-1.3556 2.7926-.675.8112-1.5207 1.4418-2.535 1.8918-1.015.45-2.1294.675-3.3444.675-1.4363 0-2.7369-.3375-3.9019-1.0131v.0025Z"/>
</svg>
