<svg height="70" viewBox="0 0 70 70" width="70" xmlns="http://www.w3.org/2000/svg" xmlns:xlink="http://www.w3.org/1999/xlink"><linearGradient id="a" gradientUnits="userSpaceOnUse" x1="-7.2" x2="32.51875" y1="30.67441" y2="30.67441"><stop offset=".01075" stop-color="#fcf84a"/><stop offset=".1116" stop-color="#a7eb62"/><stop offset=".2056" stop-color="#5fe077"/><stop offset=".2727" stop-color="#32da84"/><stop offset=".3065" stop-color="#21d789"/><stop offset=".5768" stop-color="#21d789"/><stop offset=".5968" stop-color="#21d789"/><stop offset=".686" stop-color="#20d68c"/><stop offset=".7627" stop-color="#1ed497"/><stop offset=".8348" stop-color="#19d1a9"/><stop offset=".904" stop-color="#13ccc2"/><stop offset=".9707" stop-color="#0bc6e1"/><stop offset="1" stop-color="#07c3f2"/></linearGradient><linearGradient id="b" gradientUnits="userSpaceOnUse" x1="6" x2="30.40625" y1="43.04688" y2="43.04688"><stop offset="0" stop-color="#21d789"/><stop offset=".1638" stop-color="#24d788"/><stop offset=".3047" stop-color="#2fd886"/><stop offset=".4371" stop-color="#41da82"/><stop offset=".5644" stop-color="#5adc7d"/><stop offset=".6881" stop-color="#7ae077"/><stop offset=".809" stop-color="#a1e36e"/><stop offset=".9254" stop-color="#cfe865"/><stop offset="1" stop-color="#f1eb5e"/></linearGradient><linearGradient id="c" gradientUnits="userSpaceOnUse" x1="76.22194" x2="29.62194" y1="26.84126" y2="51.04126"><stop offset=".3871" stop-color="#fcf84a"/><stop offset=".5358" stop-color="#ecf451"/><stop offset=".8259" stop-color="#c2e964"/><stop offset=".9247" stop-color="#b2e56b"/></linearGradient><path d="m6 6h58v58h-58z" fill="#09cae8"/><path d="m64 23.389-14.891-12.342-9.953 28.547h10.719l12.25 3.39 1.875-3.777z" fill="#09cae8"/><path d="m14.109 54.469 10.063-4.266.328-7.219 3.938-20.89 17.281-11.703-6.656-4.391h-33.063v49.349z" fill="url(#a)"/><path d="m19.688 26.578-13.688 21.046v16.376h23.084l1.322-1.547-1.968-40.359z" fill="url(#b)"/><path d="m30.625 19.141h24.281l-1.952-13.141h-7.611z" fill="#a5e46e"/><path d="m64 39.912-2.75-10.381-13.781 5.36 1.64-17.391-17.39 1.641-3.281 2.953-8.204 39.812 7.458 2.094h36.308z" fill="url(#c)"/><path d="m14 14h42v42h-42z"/><g fill="#fff"><path d="m17.98999 48.125h15.75v2.625h-15.75z"/><path d="m17.885 19.46h7.14c4.2 0 6.615 2.415 6.615 5.985 0 3.99-3.15 6.09-7.035 6.09h-2.94v5.25h-3.78zm6.825 8.82c1.89 0 3.045-1.155 3.045-2.625 0-1.68-1.155-2.625-3.15-2.625h-2.94v5.355h3.045z"/><path d="m33.11 28.28a8.835 8.835 0 0 1 9.03-9.03 8.5891 8.5891 0 0 1 6.825 2.73l-2.415 2.835a6.34366 6.34366 0 0 0 -4.41-1.995 5.14585 5.14585 0 0 0 -5.04 5.46 5.20813 5.20813 0 0 0 5.04 5.46 6.687 6.687 0 0 0 4.62-1.995l2.415 2.415a9.15357 9.15357 0 0 1 -16.065-5.88"/></g><path d="m37 53h33v17h-33z" fill="#d99e2b"/><path d="m40.05563 66.966h7.19661v-1.72329h-5.50724v-2.94521h4.82041v-1.72325h-4.82041v-2.85131h5.43874v-1.72325h-7.12811z"/><path d="m48.15627 66.966h1.86832l1.06757-2.6268h4.9082l1.05281 2.6268h1.9277l-4.5671-10.95841h-1.6904zm3.60316-4.321 1.77945-4.35241 1.79421 4.35241z"/><path d="m59.87536 66.966h1.62869v-3.52491h1.84026a3.50288 3.50288 0 0 0 3.70715-3.74426v-.03124a3.3623 3.3623 0 0 0 -3.52185-3.6659h-3.65425zm1.62869-5.26364v-3.94818h1.89333a1.80657 1.80657 0 0 1 1.99894 1.95836v.03146a1.86935 1.86935 0 0 1 -1.99894 1.95836z"/></svg>