<svg xmlns="http://www.w3.org/2000/svg" width="64" height="64" fill="none" viewBox="0 0 64 64">
  <defs>
    <linearGradient id="a" x1="59.9325" x2="1.33625" y1="59.6756" y2="1.07938" gradientUnits="userSpaceOnUse">
      <stop offset=".25" stop-color="#7256FF"/>
      <stop offset=".73" stop-color="#007DFE"/>
    </linearGradient>
    <linearGradient id="b" x1="7.67063" x2="61.125" y1="64.3925" y2="39.6094" gradientUnits="userSpaceOnUse">
      <stop offset=".3" stop-color="#00D886"/>
      <stop offset=".54" stop-color="#7256FF"/>
    </linearGradient>
  </defs>
  <path fill="url(#a)" d="M0 4.125v34.1275c0 1.6581.993125 3.155 2.52063 3.8L39.9419 57.85c.5181.2187 1.0756.3294 1.6381.3244l18.3287-.15c2.265-.0188 4.0913-1.86 4.0913-4.125V36.2337c0-.8056-.2356-1.5931-.6781-2.2662L42.2131 1.85938C41.45.69875 40.155 0 38.7663 0H4.125C1.84687 0 0 1.84687 0 4.125Z"/>
  <path fill="url(#b)" d="M6 49.015v10.8619c0 2.2781 1.84687 4.125 4.125 4.125h12.5656c.2 0 .4-.0144.5981-.0438L60.4738 58.51c2.0256-.2969 3.5268-2.0344 3.5268-4.0812V39.0312c0-2.2787-1.8475-4.1256-4.1262-4.1249l-18.5044.0043c-.4256 0-.8488.0663-1.2538.1957L8.87062 45.085c-1.70937.5463-2.86999 2.135-2.86999 3.9294L6 49.015Z"/>
  <path fill="#00D886" d="M6 47.55v12.2588c0 2.3037 1.88688 4.1612 4.1906 4.1243L21 64c1.1812-.0188 2.5312-.7862 3.3-1.6831l32.7069-38.1581c.6406-.7475.9931-1.7001.9931-2.6844V10.125C58 7.84687 56.1531 6 53.875 6H42.8719c-1.1894 0-2.3213.51375-3.1044 1.40875L7.02063 44.8338C6.3625 45.5856 6 46.5506 6 47.55Z"/>
  <path fill="#000" d="M52 12H12v40h40V12Z"/>
  <path fill="#fff" d="M33 44H17v3h16v-3Z"/>
  <path fill="#fff" d="M20.7458 31.2425c-1.1681-.675-2.0869-1.6044-2.755-2.7869-.6681-1.1825-1.0025-2.5025-1.0025-3.9606s.3337-2.7781 1.0025-3.9606c.6681-1.1825 1.5862-2.1119 2.755-2.7869 1.1681-.675 2.4744-1.0131 3.9175-1.0131 1.4431 0 2.7387.3375 3.9069 1.0131 1.1681.675 2.085 1.6044 2.7493 2.7869.6644 1.1825.9969 2.5025.9969 3.9606s-.3325 2.7781-.9969 3.9606c-.6643 1.1825-1.5812 2.1119-2.7493 2.7869-1.1682.675-2.4707 1.0131-3.9069 1.0131-1.4363 0-2.7494-.3375-3.9175-1.0131Zm6.3081-2.2294c.7075-.4462 1.2613-1.065 1.6613-1.8543.4-.7894.6-1.6775.6-2.6638 0-.9862-.2-1.8738-.6-2.6638-.4-.7893-.9538-1.4074-1.6613-1.8543-.7075-.4463-1.5044-.67-2.39-.67-.8856 0-1.6844.2231-2.3956.67-.7113.4469-1.2688 1.065-1.6719 1.8543-.4037.7894-.6056 1.6776-.6056 2.6638 0 .9863.2019 1.8744.6056 2.6638.4038.7893.9613 1.4081 1.6719 1.8543.7112.4469 1.5094.67 2.3956.67.8863 0 1.6831-.2231 2.39-.67Zm-2.16 6.0344c-.4894-.2538-.865-.6131-1.1256-1.0775-.2613-.4644-.3913-1.0113-.3913-1.64l-.0106-1.94h2.7438v1.8113c0 .2212.0431.4124.1287.5731.0856.1606.2088.2825.37.3644.1606.0818.3519.1231.5738.1231h1.8331v2.165h-2.4119c-.6506 0-1.22-.1269-1.7094-.3806l-.0006.0012Z"/>
  <path fill="#fff" d="M38.2334 16.9922h3.1725l5.5632 15.0062h-2.9475l-1.2113-3.4837h-5.8419l-1.1362 3.4837h-3.0119l5.4131-15.0062Zm3.805 9.2612-2.0256-5.7237-.225-.9538-.2144.9538-1.9081 5.7237h4.3731Z"/>
</svg>
