<svg xmlns="http://www.w3.org/2000/svg" width="70" height="70" fill="none" viewBox="0 0 70 70">
  <defs>
    <linearGradient id="a" x1="25.6566" x2="16.4404" y1="58.5302" y2="25.2718" gradientUnits="userSpaceOnUse">
      <stop stop-color="#087CFA"/>
      <stop offset="1" stop-color="#6B57FF"/>
    </linearGradient>
    <linearGradient id="b" x1="13.0023" x2="47.3148" y1="63.4832" y2="14.1239" gradientUnits="userSpaceOnUse">
      <stop stop-color="#087CFA"/>
      <stop offset="0.387317" stop-color="#097FF6"/>
      <stop offset="0.960121" stop-color="#3BEA62"/>
    </linearGradient>
  </defs>
  <path fill="url(#a)" d="M33.084 25.1406L3.47891 17.9053L0 26.1363L10.6717 60.2709L39.0261 70.0002L33.084 25.1406Z"/>
  <path fill="url(#b)" d="M70.0002 20.0238L62.8851 6.09226L26.579 0L10.6719 60.2707L39.0262 70L40.5453 67.5065L70.0002 20.0238Z"/>
  <path fill="#000" d="M56 14H14V56H56V14Z"/>
  <path fill="#fff" d="M34.4165 48.6494H18.6665V51.3327H34.4165V48.6494Z"/>
  <path fill="#fff" d="M42.3063 19.2559H45.4747L52.1688 34.9866H48.5763L47.1482 31.4835H40.5436L39.1155 34.9866H35.6123L42.3063 19.2559ZM45.921 28.4489L43.8459 23.3837L41.7708 28.4489H45.921V28.4489Z"/>
  <path fill="#fff" d="M32.884 35.4562L31.1659 33.9166C29.8494 34.7645 28.2652 35.2553 26.5247 35.2553C21.7051 35.2553 18.2466 31.6629 18.2466 27.2227V27.178C18.2466 22.7377 21.7497 19.1006 26.5694 19.1006C31.389 19.1006 34.8475 22.6931 34.8475 27.1334V27.178C34.8475 28.8291 34.3343 30.3688 33.4642 31.6629L35.0707 33.0241L32.884 35.4562V35.4562ZM28.6222 31.6629L26.0785 29.4986L28.2652 27.0441L30.8312 29.3647C31.099 28.74 31.2551 28.0036 31.2551 27.2227V27.178C31.2551 24.5004 29.2916 22.2691 26.5247 22.2691C23.7579 22.2691 21.839 24.4558 21.839 27.1334V27.178C21.839 29.8556 23.8026 32.0869 26.5694 32.0869C27.328 32.0869 28.0197 31.953 28.6222 31.6629V31.6629Z"/>
</svg>
