<svg xmlns="http://www.w3.org/2000/svg" width="128" height="128" fill="none" viewBox="0 0 128 128">
  <defs>
    <linearGradient id="a" x1="119.865" x2="2.6725" y1="119.351" y2="2.15875" gradientUnits="userSpaceOnUse">
      <stop offset=".25" stop-color="#7256FF"/>
      <stop offset=".73" stop-color="#007DFE"/>
    </linearGradient>
    <linearGradient id="b" x1="15.3413" x2="122.25" y1="128.785" y2="79.2188" gradientUnits="userSpaceOnUse">
      <stop offset=".3" stop-color="#00D886"/>
      <stop offset=".54" stop-color="#7256FF"/>
    </linearGradient>
  </defs>
  <path fill="url(#a)" d="M0 8.25v68.255c0 3.3162 1.98625 6.31 5.04125 7.6L79.8838 115.7c1.0362.437 2.1512.659 3.2762.649l36.657-.3c4.53-.038 8.183-3.72 8.183-8.25V72.4675c0-1.6113-.471-3.1863-1.356-4.5325L84.4262 3.71875C82.9 1.3975 80.31 0 77.5325 0H8.25C3.69375 0 0 3.69375 0 8.25Z"/>
  <path fill="url(#b)" d="M12 98.03v21.724c0 4.556 3.6937 8.25 8.25 8.25h25.1312c.4 0 .8-.029 1.1963-.088l74.3705-10.896c4.051-.594 7.053-4.069 7.053-8.162V78.0625c0-4.5575-3.695-8.2512-8.252-8.25l-37.009.0088c-.8513 0-1.6975.1325-2.5075.3912L17.7412 90.17c-3.4187 1.0925-5.7399 4.27-5.7399 7.8588L12 98.03Z"/>
  <path fill="#00D886" d="M12 95.1v24.518c0 4.607 3.7738 8.322 8.3813 8.248L42 128c2.3625-.038 5.0625-1.572 6.6-3.366l65.414-76.3165c1.281-1.495 1.986-3.4 1.986-5.3688V20.25c0-4.5563-3.694-8.25-8.25-8.25H85.7438c-2.3788 0-4.6425 1.0275-6.2088 2.8175l-65.4937 74.85C12.725 91.1713 12 93.1012 12 95.1Z"/>
  <path fill="#000" d="M104 24H24v80h80V24Z"/>
  <path fill="#fff" d="M66 88H34v6h32v-6Z"/>
  <path fill="#fff" d="M41.4916 62.485c-2.3363-1.35-4.1738-3.2087-5.51-5.5737-1.3363-2.365-2.005-5.005-2.005-7.9213 0-2.9162.6675-5.5563 2.005-7.9213 1.3362-2.365 3.1725-4.2237 5.51-5.5737 2.3362-1.35 4.9487-2.0262 7.835-2.0262 2.8862 0 5.4775.6749 7.8137 2.0262 2.3363 1.35 4.17 3.2087 5.4988 5.5737 1.3287 2.365 1.9937 5.0051 1.9937 7.9213 0 2.9163-.665 5.5563-1.9937 7.9213-1.3288 2.365-3.1625 4.2237-5.4988 5.5737-2.3362 1.35-4.9412 2.0262-7.8137 2.0262-2.8725 0-5.4988-.6749-7.835-2.0262Zm12.6162-4.4588c1.415-.8925 2.5225-2.1299 3.3225-3.7087.8-1.5787 1.2-3.355 1.2-5.3275 0-1.9725-.4-3.7475-1.2-5.3275-.8-1.5788-1.9075-2.815-3.3225-3.7087-1.415-.8925-3.0087-1.34-4.78-1.34-1.7712 0-3.3687.4462-4.7912 1.34-1.4225.8937-2.5375 2.1299-3.3438 3.7087-.8075 1.5787-1.2112 3.355-1.2112 5.3275 0 1.9725.4037 3.7488 1.2112 5.3275.8075 1.5788 1.9225 2.8162 3.3438 3.7087 1.4225.8938 3.0187 1.34 4.7912 1.34s3.3663-.4462 4.78-1.34Zm-4.32 12.0688c-.9787-.5075-1.73-1.2263-2.2512-2.155-.5225-.9288-.7825-2.0225-.7825-3.28l-.0213-3.88h5.4875v3.6225c0 .4425.0863.825.2575 1.1462.1713.3213.4175.5651.74.7288.3213.1638.7038.2462 1.1475.2462h3.6663v4.33h-4.8238c-1.3012 0-2.44-.2537-3.4187-.7612l-.0013.0025Z"/>
  <path fill="#fff" d="M76.4669 33.9844h6.345l11.1262 30.0125h-5.895l-2.4225-6.9675H73.9369l-2.2725 6.9675h-6.0238l10.8263-30.0125Zm7.61 18.5225-4.0513-11.4475-.45-1.9075-.4287 1.9075-3.8163 11.4475h8.7463Z"/>
</svg>
