<svg xmlns="http://www.w3.org/2000/svg" width="414" height="105" fill="none" viewBox="0 0 414 105">
  <path d="m85 .143555h-85v85.000045h85z" fill="#000"/>
  <path d="m56.9998 10.5127h6.489l13.7097 32.2174h-7.3576l-2.9248-7.1746h-13.5266l-2.9247 7.1746h-7.1748zm7.403 18.8277-4.2499-10.3736-4.25 10.3736z"
          fill="#fff"/>
  <path d="m37.7018 43.6904-3.5186-3.1531c-2.6965 1.7365-5.941 2.7418-9.5055 2.7418-9.8708 0-16.95407-7.3574-16.95407-16.4513v-.0916c0-9.0939 7.17457-16.5428 17.04557-16.5428 9.8707 0 16.954 7.3576 16.954 16.4515v.0913c0 3.3817-1.051 6.535-2.8332 9.1855l3.2902 2.7877zm-8.7284-7.7687-5.2095-4.4327 4.4783-5.0269 5.2554 4.7527c.5484-1.2795.8682-2.7877.8682-4.387v-.0916c0-5.4837-4.0214-10.0536-9.6881-10.0536-5.6666 0-9.5967 4.4786-9.5967 9.9623v.0913c0 5.484 4.0216 10.0539 9.6882 10.0539 1.5536 0 2.9703-.2744 4.2042-.8684z"
          fill="#fff"/>
  <path d="m39.844 69.2051h-31.87476v5.312h31.87476z" fill="#fff"/>
  <path fill="#000" d="m149.796 0h17.179l36.296 85.2939h-19.479l-7.743-18.9944h-35.811l-7.743 18.9944h-18.995zm19.599 49.8455-11.251-27.4634-11.252 27.4634z"/>
  <path fill="#000" d="m254.567 75.9786c-4.476 6.0493-10.646 10.5257-20.204 10.5257-15.123 0-29.52-11.8567-29.52-33.5127v-.2419c0-21.6561 14.155-33.5124 29.52-33.5124 9.8 0 15.849 4.4764 20.204 9.6785v-8.469h18.39v84.2052h-18.39zm.242-22.987v-.2419c0-10.7677-7.138-17.9057-15.728-17.9057s-15.849 7.0173-15.849 17.9057v.2419c0 10.7676 7.259 17.9056 15.849 17.9056s15.728-7.138 15.728-17.9056z"/>
  <path fill="#000" d="m285.295 62.4281v-41.9818h18.389v36.1744c0 8.711 4.114 13.1874 11.131 13.1874s11.493-4.4764 11.493-13.1874v-36.1744h18.39v64.8477h-18.39v-9.1947c-4.234 5.444-9.678 10.4046-18.994 10.4046-13.913 0-22.019-9.1947-22.019-24.0758z"/>
  <path fill="#000" d="m353.649 66.6623v-.2419c0-14.1549 10.767-20.688 26.132-20.688 6.534 0 11.252 1.0887 15.849 2.6616v-1.0891c0-7.6218-4.718-11.8564-13.913-11.8564-7.017 0-11.978 1.3311-17.906 3.5085l-4.597-14.0342c7.138-3.1454 14.155-5.2021 25.165-5.2021 10.041 0 17.3 2.6616 21.898 7.2592 4.839 4.839 7.017 11.9771 7.017 20.688v37.6262h-17.785v-7.0173c-4.476 4.9606-10.646 8.2272-19.599 8.2272-12.219 0-22.261-7.0173-22.261-19.8417zm42.223-4.2341v-3.267c-3.146-1.4517-7.259-2.4193-11.735-2.4193-7.864 0-12.704 3.1454-12.704 8.9529v.2419c0 4.9602 4.114 7.8637 10.042 7.8637 8.59 0 14.397-4.7183 14.397-11.3722z"/>
</svg>
