<svg xmlns="http://www.w3.org/2000/svg" width="186" height="64" fill="none" viewBox="0 0 186 64">
  <defs>
    <linearGradient id="a" x1="60.0186" x2="1.31316" y1="59.7777" y2="1.07287" gradientUnits="userSpaceOnUse">
      <stop offset=".25" stop-color="#7256FF"/>
      <stop offset=".73" stop-color="#007DFE"/>
    </linearGradient>
    <linearGradient id="b" x1="7.62199" x2="62.0615" y1="64.7192" y2="39.4788" gradientUnits="userSpaceOnUse">
      <stop offset=".3" stop-color="#00D886"/>
      <stop offset=".54" stop-color="#7256FF"/>
    </linearGradient>
  </defs>
  <path fill="#fff" d="M93.8848 17 82.9941 47.0169h5.5305l2.3545-7.2036h12.0529l2.555 7.2036h5.4L99.6557 17h-5.7709Zm-1.6732 18.6153 4.0477-12.0328.4509-1.8635.4709 1.8635 4.3079 12.0328h-9.2874.01Zm37.3404-7.0934c-.731-1.1622-1.653-2.094-2.815-2.7753-1.362-.8015-2.955-1.2023-4.769-1.2023-1.964 0-3.707.4909-5.24 1.4728-1.533.9819-2.745 2.3445-3.617 4.0978-.871 1.7533-1.312 3.7271-1.312 5.9312 0 2.2042.441 4.178 1.312 5.9313.872 1.7533 2.084 3.1159 3.627 4.0978 1.543.9818 3.286 1.4728 5.23 1.4728 1.814 0 3.407-.4008 4.769-1.2023 1.102-.6513 2.004-1.5229 2.715-2.595V53.9h5.06V25.0653h-4.95v3.4566h-.01Zm-.901 11.1511c-.531 1.052-1.263 1.8736-2.214 2.4647-.942.5911-2.034.8917-3.257.8917-1.222 0-2.274-.2906-3.216-.8817-.942-.5811-1.673-1.4027-2.194-2.4647-.521-1.062-.781-2.2743-.781-3.6469 0-1.3726.26-2.5849.781-3.6369.521-1.052 1.252-1.8735 2.194-2.4647.942-.5911 2.014-.8917 3.216-.8917 1.203 0 2.315.3006 3.257.8917.941.5912 1.683 1.4127 2.214 2.4647.531 1.052.791 2.2643.791 3.6369 0 1.3726-.26 2.5849-.791 3.6369Zm25.127-1.8936c0 1.032-.21 1.9437-.631 2.7552-.421.8116-1.022 1.4328-1.793 1.8836-.772.4509-1.663.6713-2.655.6713-.942 0-1.744-.2004-2.415-.5911-.671-.3908-1.172-.9619-1.533-1.7033-.36-.7414-.541-1.6431-.541-2.7051V25.0553h-5.039v13.8062c0 1.8034.33 3.3563.982 4.6488.651 1.2924 1.583 2.2943 2.765 2.9756 1.182.6813 2.565 1.032 4.138 1.032 1.683 0 3.156-.3907 4.408-1.1822 1.012-.6312 1.823-1.5029 2.455-2.5649v3.2361h4.909V25.0653h-5.06v12.7141h.01Zm26.631-12.7141v3.3163c-.711-1.0921-1.623-1.9738-2.735-2.635-1.363-.8015-2.956-1.2023-4.769-1.2023-1.964 0-3.707.4909-5.24 1.4728-1.533.9819-2.745 2.3445-3.617 4.0978-.872 1.7533-1.313 3.7271-1.313 5.9312 0 2.2042.441 4.178 1.313 5.9313.872 1.7533 2.084 3.1159 3.627 4.0978 1.543.9818 3.286 1.4728 5.23 1.4728 1.813 0 3.406-.4008 4.769-1.2023 1.112-.6513 2.024-1.543 2.735-2.635v3.3163h4.979V25.0653h-4.979Zm-.812 14.6077c-.531 1.052-1.262 1.8736-2.214 2.4647-.942.5911-2.034.8917-3.256.8917s-2.274-.2906-3.216-.8817c-.942-.5811-1.673-1.4027-2.194-2.4647-.521-1.062-.782-2.2743-.782-3.6469 0-1.3726.261-2.5849.782-3.6369.521-1.052 1.252-1.8735 2.194-2.4647.942-.5911 2.014-.8917 3.216-.8917 1.202 0 2.314.3006 3.256.8917.942.5912 1.683 1.4127 2.214 2.4647.531 1.052.792 2.2643.792 3.6369 0 1.3726-.261 2.5849-.792 3.6369Z"/>
  <path fill="url(#a)" d="M0 4.07273V38.041c0 1.6291.971054 3.1017 2.46807 3.7434L39.9587 57.8525c.5067.217 1.0531.3293 1.6046.3293h18.364c2.2493 0 4.0727-1.8234 4.0727-4.0727v-17.966c0-.8046-.2386-1.5913-.6854-2.2609L41.9118 1.81353C41.1561.681309 39.8854.001745 38.5245.001745L4.07273 0C1.82342 0 0 1.82342 0 4.07273Z"/>
  <path fill="url(#b)" d="M5.81836 49.4825v10.4466c0 2.2493 1.82342 4.0727 4.07273 4.0727H22.9837c.1926 0 .3852-.014.576-.0407l36.9437-5.2771c2.0067-.2868 3.4968-2.005 3.4968-4.032V38.979c0-2.2499-1.824-4.0733-4.0739-4.0727l-18.5385.0046c-.4375 0-.8721.0704-1.287.2089L8.60294 45.6193c-1.66284.5544-2.78458 2.1108-2.78458 3.8638v-.0006Z"/>
  <path fill="#00D886" d="m5.81836 48.0551.00174 11.8755c0 2.2493 1.82342 4.0721 4.07273 4.0721H21.3994c1.1887 0 2.3186-.5196 3.0924-1.422l32.7098-38.1614c.6325-.7383.9804-1.6786.9804-2.6508V9.89304c0-2.24931-1.8234-4.07273-4.0727-4.07273H42.6009c-1.1887 0-2.3185.51957-3.0924 1.42197L6.7993 45.4037c-.63301.7384-.98036 1.6786-.98036 2.6514h-.00058Z"/>
  <path fill="#000" d="M52 12H12v40h40V12Z"/>
  <path fill="#fff" fill-rule="evenodd" d="M20.0825 31.2119c.8131.4642 1.694.7569 2.634.8992l.0011.1854c0 .6295.1286 1.1787.3857 1.6338.264.4688.6393.8304 1.1247 1.0714.493.2542 1.064.3885 1.7142.3885h2.4102V33.221h-1.8318c-.2284 0-.4212-.0396-.5784-.1205-.1573-.0804-.2783-.2009-.3644-.3616-.0855-.1606-.1286-.3483-.1286-.5755v-.085c.8746-.1521 1.6964-.4309 2.4533-.8659 1.1712-.6829 2.0889-1.6069 2.7528-2.785.664-1.1919.9962-2.5043.9962-3.9637 0-1.4593-.3322-2.7717-.9962-3.9504-.6639-1.1914-1.5821-2.1153-2.7528-2.785-1.1644-.6829-2.4676-1.0175-3.9097-1.0175-1.4422 0-2.7385.3346-3.9098 1.0175-1.1638.6697-2.0814 1.5936-2.7528 2.785-.6639 1.1787-.9962 2.4905-.9962 3.9504 0 1.4599.3323 2.7718.9962 3.9637.6714 1.1781 1.5885 2.1015 2.7523 2.7844Zm-.1498-9.3999c.4069-.8034.9641-1.4192 1.6711-1.8616.7139-.4419 1.5138-.6697 2.3993-.6697.8855 0 1.682.2272 2.389.6697.707.4419 1.2602 1.0576 1.6602 1.8616.4.7764.5997 1.6602.5997 2.6513 0 .991-.2003 1.8742-.5997 2.6644-.4.7896-.9532 1.406-1.6602 1.861-.707.4419-1.5035.656-2.389.656-.8855 0-1.6854-.2141-2.3993-.656-.707-.4556-1.2642-1.0714-1.6711-1.861-.4-.7902-.5997-1.674-.5997-2.6644 0-.9905.1997-1.8749.5997-2.6513Z" clip-rule="evenodd"/>
  <path fill="#fff" fill-rule="evenodd" d="M40.5126 16.9646h-3.17l-5.4098 14.9967h3.0099l1.1357-3.481h5.8379l1.2103 3.481h2.9456l-5.5596-14.9967Zm-3.7381 9.253 1.9069-5.7174.2141-.9509.225.9509 2.0245 5.7174h-4.3705Z" clip-rule="evenodd"/>
  <path fill="#fff" d="M16.9941 44.001h16v3h-16v-3Z"/>
</svg>
