<svg fill="none" height="91" viewBox="0 0 528 91" width="528" xmlns="http://www.w3.org/2000/svg"
     xmlns:xlink="http://www.w3.org/1999/xlink">
  <defs>
    <linearGradient id="a" gradientUnits="userSpaceOnUse" x1="-9.50961" x2="70.9488" y1="1.92464" y2="84.0949">
      <stop offset="0" stop-color="#ff45ed"/>
      <stop offset="1" stop-color="#087cfa"/>
    </linearGradient>
  </defs>
  <path
    d="m227.432 0h-3.168v3.05989h3.168zm-.216 7.1276h-2.772v18.6068h2.772zm-63.222-6.58724h10.725c2.402-.140673 4.765.65984 6.586 2.23177.525.52977.939 1.15922 1.217 1.85131.279.69209.416 1.43284.403 2.17864v.07292c.025 1.26689-.347 2.50976-1.063 3.5551-.717 1.0453-1.741 1.8409-2.932 2.2756 2.987.8985 5.399 2.6276 5.399 6.082v.0716c0 4.319-3.636 6.875-9.142 6.875h-11.193zm16.052 6.65755c0-2.48177-1.98-4.10156-5.579-4.10156h-7.666v8.67325h7.45c3.42 0 5.795-1.5482 5.795-4.49872zm-5.291 7.09119h-7.954v8.8893h8.458c3.815 0 6.19-1.6914 6.19-4.4987v-.0729c0-2.7344-2.303-4.3177-6.694-4.3177zm-65.603 5.5781-2.051 1.763c.762 1.3848 1.891 2.5335 3.261 3.3207 1.371.7871 2.932 1.1825 4.512 1.1429 1.016.0337 2.029-.1333 2.98-.4915s1.822-.9004 2.563-1.5958c.804-.8964 1.421-1.9434 1.816-3.0802.396-1.1368.561-2.3408.488-3.5422v-16.843741h-2.88v16.878941c0 3.9948-2.087 6.0469-4.93 6.0469-2.628 0-4.211-1.2604-5.759-3.599zm386.845 14.467h-4.818v46.2801h4.818zm-343.071.9518h5.505v5.3913h-5.505zm.312 12.554h4.818v32.7743h-4.818zm-43.237-11.6021h18.651c5.009 0 8.952 1.459 11.455 3.9323.916.9383 1.637 2.0489 2.121 3.2677s.721 2.5214.698 3.8325v.125c0 5.7698-3.506 8.7466-6.95 10.2681 5.197 1.5877 9.39 4.6306 9.39 10.7165v.125c0 7.6074-6.321 12.1094-15.898 12.1094h-19.467zm27.916 11.7271c0-4.3733-3.444-7.2252-9.702-7.2252h-13.33v15.2773h12.955c5.946 0 10.077-2.7269 10.077-7.9235zm-9.203 12.4916h-13.829v15.6558h14.708c6.633 0 10.764-2.9768 10.764-7.9235v-.1249c0-4.8217-4.006-7.6074-11.643-7.6074zm40.794 22.0578-2.191 3.8073c4.305 3.0228 9.449 4.6192 14.708 4.5645 5.13 0 9.452-1.459 12.33-4.377 2.628-2.6608 4.131-6.5306 4.131-11.6022v-27.0669h-4.818v5.8948c-1.862-2.6933-4.539-4.7176-7.638-5.7747-3.098-1.0571-6.455-1.0912-9.574-.0972-3.12.994-5.837 2.9635-7.753 5.6185-1.916 2.6549-2.929 5.8549-2.889 9.1287v.1249c-.039 2.0142.327 4.0157 1.076 5.886.748 1.8702 1.865 3.5711 3.283 5.002 1.418 1.4308 3.109 2.5624 4.973 3.3277 1.863.7654 3.861 1.1488 5.876 1.1278 5.946 0 9.889-3.1055 12.708-6.9092v3.8662c0 7.6699-4.634 11.6647-11.767 11.6647-4.499.0102-8.876-1.4608-12.455-4.1859zm24.347-19.9667v.125c0 6.593-5.759 11.095-11.892 11.095-1.475.0247-2.939-.2466-4.306-.798-1.368-.5514-2.611-1.3715-3.656-2.4119s-1.87-2.2799-2.427-3.645c-.558-1.3651-.835-2.8282-.817-4.3026v-.1249c0-6.7217 5.072-11.0326 11.206-11.0326 6.133 0 11.892 4.3733 11.892 11.095zm31.837-26.3098h15.211c13.771 0 23.282 9.5735 23.282 22.0614v.1286c0 12.4879-9.511 22.1864-23.282 22.1864h-15.211zm4.947 4.6269v35.1226h10.264c11.077 0 18.152-7.6074 18.152-17.4345v-.125c0-9.8271-7.075-17.5631-18.152-17.5631zm39.161 30.1135v.1286c0 6.7181 6.072 10.2057 12.084 10.2057 2.26.0646 4.502-.414 6.538-1.3956s3.807-2.4376 5.164-4.2456v4.943h4.634v-20.0329c0-4.1822-1.128-7.3538-3.319-9.5735-2.377-2.4072-5.883-3.6126-10.452-3.6126-4.08-.0121-8.108.9212-11.767 2.7269l1.44 3.9911c3.049-1.5439 6.411-2.3675 9.828-2.4072 6.071 0 9.636 3.043 9.636 8.9378v1.143c-3.23-.9563-6.584-1.427-9.953-1.3966-8.199 0-13.833 3.6788-13.833 10.5879zm23.848-5.5787v3.1716c0 5.1965-4.88 8.8716-10.827 8.8716-4.38 0-8.136-2.4072-8.136-6.527v-.1286c0-4.1197 3.381-6.7805 9.452-6.7805 3.221.002 6.425.4712 9.511 1.3929zm14.641 6.5306v-19.7793h-4.509v-4.3108h4.509v-9.8897h4.818v9.8897h10.265v4.3108h-10.265v19.1435c0 3.9948 2.191 5.4538 5.447 5.4538 1.634.0062 3.245-.3861 4.693-1.143v4.1859c-1.792.9477-3.794 1.4268-5.821 1.3929-5.193 0-9.137-2.5983-9.137-9.2538zm19.578-.9519v.1286c0 6.7181 6.071 10.2057 12.083 10.2057 2.26.0646 4.502-.414 6.538-1.3956s3.807-2.4376 5.164-4.2456v4.943h4.634v-20.0329c0-4.1822-1.128-7.3538-3.319-9.5735-2.377-2.4072-5.883-3.6126-10.452-3.6126-4.08-.0121-8.108.9212-11.767 2.7269l1.441 3.9911c3.048-1.5439 6.41-2.3675 9.827-2.4072 6.071 0 9.636 3.043 9.636 8.9378v1.143c-3.23-.9563-6.584-1.427-9.952-1.3966-8.2 0-13.833 3.6788-13.833 10.5879zm23.847-5.5787v3.1716c0 5.1965-4.88 8.8716-10.827 8.8716-4.38 0-8.136-2.4072-8.136-6.527v-.1286c0-4.1197 3.381-6.7805 9.452-6.7805 3.221.002 6.425.4712 9.511 1.3929zm42.675-24.5348h-14.774v-4.6269h34.491v4.6269h-14.774v39.7495h-4.943zm16.637 23.3918v.1286c-.041 2.2241.364 4.434 1.189 6.4995.826 2.0655 2.057 3.9451 3.619 5.5281 1.563 1.583 3.427 2.8375 5.481 3.6897 2.055.8522 4.26 1.2849 6.484 1.2726 2.243.0068 4.465-.4324 6.536-1.2922s3.951-2.123 5.53-3.716c1.578-1.593 2.824-3.484 3.665-5.5631s1.26-4.3047 1.233-6.5472v-.125c.016-2.2306-.411-4.4422-1.255-6.5069-.845-2.0646-2.09-3.9412-3.665-5.5212s-3.447-2.8321-5.509-3.6837c-2.062-.8515-4.272-1.2858-6.502-1.2775-2.231.0083-4.438.4588-6.493 1.3257-2.056.8668-3.919 2.1327-5.482 3.7243s-2.794 3.4774-3.624 5.5483c-.829 2.0708-1.239 4.2855-1.207 6.516zm28.791 0v.1286c0 6.9092-4.881 12.6166-11.893 12.6165-6.821 0-11.955-5.7074-11.955-12.7451v-.125c0-6.9091 4.822-12.679 11.83-12.679 6.821 0 12.018 5.7699 12.018 12.804zm10.066.1286v-.1286c-.033-2.2305.378-4.4452 1.207-6.516.829-2.0709 2.061-3.9567 3.624-5.5483s3.426-2.8575 5.481-3.7243c2.056-.8669 4.262-1.3174 6.493-1.3257s4.441.426 6.503 1.2775c2.061.8516 3.934 2.1037 5.508 3.6837 1.575 1.58 2.821 3.4566 3.665 5.5212.845 2.0647 1.272 4.2763 1.256 6.5069v.125c.027 2.2425-.392 4.4681-1.233 6.5472s-2.087 3.9701-3.666 5.5631c-1.578 1.593-3.458 2.8562-5.53 3.716-2.071.8598-4.293 1.299-6.535 1.2922-2.225.0123-4.429-.4204-6.484-1.2726s-3.918-2.1067-5.481-3.6897-2.793-3.4626-3.619-5.5281-1.23-4.2754-1.189-6.4995zm28.79 0v-.1286c0-7.0341-5.196-12.804-12.017-12.804-7.009 0-11.83 5.7699-11.83 12.679v.125c0 7.0377 5.134 12.7451 11.955 12.7451 7.012.0001 11.892-5.7073 11.892-12.6165zm24.267 12.0433 2.444-3.4841c3.178 2.5781 7.111 4.0468 11.201 4.1823 3.881 0 6.7-2.0287 6.7-5.1966v-.1285c0-3.2966-3.819-4.5645-8.078-5.7662-5.068-1.459-10.702-3.2341-10.702-9.2575v-.1286c0-5.6413 4.631-9.3788 11.018-9.3788 4.143.0786 8.179 1.3313 11.639 3.6126l-2.19 3.675c-2.827-1.9406-6.147-3.0391-9.574-3.1679-3.818 0-6.262 2.0287-6.262 4.7519v.1286c0 3.0783 3.936 4.2896 8.214 5.6063l.114.0349c5.005 1.5215 10.389 3.4877 10.389 9.3825v.1286c0 6.2109-5.072 9.8272-11.518 9.8272-4.875-.0846-9.585-1.78-13.395-4.8217zm-375.028-59.9441v-.0729c0-5.362 3.779-9.68104 8.925-9.68104 5.507 0 8.674 4.39194 8.674 9.82554.007.3004-.005.6009-.036.8997h-14.756c.396 4.0313 3.239 6.2995 6.55 6.2995 1.109.0104 2.208-.219 3.22-.6725 1.013-.4535 1.916-1.1204 2.646-1.9551l1.728 1.5469c-.928 1.126-2.101 2.0256-3.43 2.6305-1.328.6049-2.777.8991-4.236.8603-5.11.0001-9.285-3.9231-9.285-9.6809zm14.792-1.0808c-.288-3.3828-2.232-6.33329-5.939-6.33329-3.239 0-5.686 2.69919-6.046 6.33329zm8.01-5.82938v11.22788c0 3.7799 2.267 5.2552 5.254 5.2552 1.164.0198 2.315-.2524 3.347-.7917v-2.375c-.834.4302-1.76.6526-2.699.6485-1.872 0-3.132-.8282-3.132-3.0964v-10.8685h5.903v-2.44662h-5.903v-5.61456h-2.77v5.61456h-2.592v2.44664zm41.701-2.44664h-2.772v18.60682h2.772v-7.4141c0-5.6146 3.311-8.53124 7.377-8.53124h.217v-2.987c-3.527-.14323-6.226 2.08854-7.594 5.18364zm9.861 13.20832v-.0729c0-3.9219 3.24-6.0104 7.954-6.0104 1.936-.0177 3.864.249 5.723.7917v-.6485c0-3.3463-2.052-5.07289-5.543-5.07289-1.962.0219-3.895.48939-5.65 1.36719l-.828-2.26823c2.108-1.02455 4.422-1.55364 6.766-1.54687 1.088-.077 2.181.06492 3.213.41739 1.032.35246 1.984.90831 2.797 1.63469.668.73036 1.181 1.58822 1.509 2.52192.328.9338.464 1.9242.399 2.9117v11.3737h-2.663v-2.8073c-.787 1.0302-1.808 1.8581-2.978 2.4151-1.171.5571-2.457.8272-3.753.788-3.454 0-6.946-1.9792-6.946-5.7943zm13.712-1.4401v-1.7995c-1.776-.5234-3.618-.79-5.47-.7916-3.491 0-5.435 1.5104-5.435 3.8502v.0717c0 2.3398 2.16 3.7083 4.679 3.7083 3.419 0 6.226-2.0886 6.226-5.0391zm17.269-11.76822h2.771v3.23832c.626-1.13245 1.551-2.07073 2.675-2.712 1.124-.64126 2.402-.96075 3.695-.92343 4.499 0 7.126 3.02343 7.126 7.45053v11.5534h-2.771v-10.8698c0-3.4558-1.871-5.6146-5.147-5.6146-.758-.01606-1.512.12577-2.213.41648s-1.334.72392-1.858 1.27222c-.525.5483-.929 1.1996-1.189 1.9127-.259.713-.368 1.4722-.318 2.2293v10.6537h-2.771zm21.74 14.25132-1.404 1.9792c2.199 1.7292 4.905 2.6901 7.702 2.7356 3.707 0 6.622-2.0521 6.622-5.5781v-.0729c0-3.3463-3.095-4.4622-5.974-5.3255l-.075-.0229c-2.455-.7475-4.712-1.435-4.712-3.1802v-.0729c0-1.5469 1.404-2.69924 3.599-2.69924 1.968.07257 3.876.69605 5.507 1.79944l1.26-2.0872c-1.996-1.29697-4.315-2.00796-6.694-2.05208-3.672 0-6.335 2.125-6.335 5.32808v.0704c0 3.4192 3.239 4.427 6.154 5.2552 2.447.6848 4.643 1.4036 4.643 3.276v.0703c0 1.8008-1.619 2.9531-3.851 2.9531-2.348-.0758-4.608-.9095-6.442-2.3763z"
    fill="#000"/>
  <path
    d="m39.9999.614563h-39.99982943l-.00007057 80.000037 39.998-.0031.0018.0031c10.5991-.0311 20.7552-4.2553 28.2499-11.7501 7.4947-7.4947 11.7189-17.6508 11.7499-28.2499v-.0015c-.0309-10.599-4.2551-20.755-11.7498-28.2496-7.4948-7.49449-17.651-11.718378-28.2499-11.748937z"
    fill="url(#a)"/>
</svg>
