<?xml version="1.0" encoding="utf-8"?>
<!-- Generator: Adobe Illustrator 19.1.0, SVG Export Plug-In . SVG Version: 6.00 Build 0)  -->
<svg version="1.1" id="Layer_1" xmlns="http://www.w3.org/2000/svg" xmlns:xlink="http://www.w3.org/1999/xlink" x="0px" y="0px"
	 viewBox="0 0 16 16" style="enable-background:new 0 0 16 16;" xml:space="preserve">
<g>
	<path d="M11.2,4.2h-1V6h1.1c0.7,0,1-0.4,1-0.9C12.3,4.5,11.9,4.2,11.2,4.2z"/>
	<path d="M1,1v14h14V1H1z M3,3h1.3v3.4c0,1,0.5,1.5,1.3,1.5s1.3-0.5,1.3-1.4V3.1h1.3v3.4c0,1.8-1,2.7-2.6,2.7C4,9.1,3,8.2,3,6.4V3z
		 M9,13H3v-1h6V13z M11.2,7.2h-1V9H8.9V3h2.4c1.4,0,2.3,0.8,2.3,2.1C13.6,6.5,12.5,7.2,11.2,7.2z"/>
</g>
</svg>
