<?xml version="1.0" encoding="utf-8"?>
<!-- Generator: Adobe Illustrator 19.1.0, SVG Export Plug-In . SVG Version: 6.00 Build 0)  -->
<svg version="1.1" id="Layer_1" xmlns="http://www.w3.org/2000/svg" xmlns:xlink="http://www.w3.org/1999/xlink" x="0px" y="0px"
	 width="70px" height="70px" viewBox="0 0 70 70" style="enable-background:new 0 0 70 70;" xml:space="preserve">
<g>
	<g>
		
			<linearGradient id="SVGID_1_" gradientUnits="userSpaceOnUse" x1="64.9131" y1="54.3846" x2="17.5131" y2="47.2746" gradientTransform="matrix(1 0 0 -1 0 65.395)">
			<stop  offset="0" style="stop-color:#FF8200"/>
			<stop  offset="0.9731" style="stop-color:#905CFB"/>
		</linearGradient>
		<polygon style="fill:url(#SVGID_1_);" points="60.5,24 9.6,26.9 9.3,7.4 55.2,0.2 		"/>
		
			<linearGradient id="SVGID_2_" gradientUnits="userSpaceOnUse" x1="15.6745" y1="30.5931" x2="20.0928" y2="55.2747" gradientTransform="matrix(1 0 0 -1 0 65.395)">
			<stop  offset="0" style="stop-color:#0CB0F2"/>
			<stop  offset="0.9731" style="stop-color:#905CFB"/>
		</linearGradient>
		<path style="fill:url(#SVGID_2_);" d="M20.3,43.2l16.4-20.8L18.9,10.2l0,0c-3.1-2.8-7.8-4-12.6-2c-2.4,1-4.3,2.9-5.3,5.3
			c-2.1,5-0.8,9.9,2.4,12.9l0,0L20.3,43.2z"/>
		
			<linearGradient id="SVGID_3_" gradientUnits="userSpaceOnUse" x1="58.3352" y1="11.7285" x2="26.9777" y2="27.0426" gradientTransform="matrix(1 0 0 -1 0 65.395)">
			<stop  offset="0" style="stop-color:#0CB0F2"/>
			<stop  offset="0.9731" style="stop-color:#905CFB"/>
		</linearGradient>
		<polygon style="fill:url(#SVGID_3_);" points="20.3,43.2 45.5,68.1 61.2,38.8 36.7,22.4 		"/>
		
			<linearGradient id="SVGID_4_" gradientUnits="userSpaceOnUse" x1="60.6778" y1="9.337" x2="7.3522" y2="28.5084" gradientTransform="matrix(1 0 0 -1 0 65.395)">
			<stop  offset="0" style="stop-color:#0CB0F2"/>
			<stop  offset="0.9731" style="stop-color:#905CFB"/>
		</linearGradient>
		<path style="fill:url(#SVGID_4_);" d="M53.9,36.6L53.9,36.6l-41.9-2l0,0c-1.6-0.3-3.4-0.2-5.3,0.6c-1.8,0.8-3.2,2.1-3.9,3.9
			c-2.1,4.9,0.4,9.6,4.5,11.2l0,0L44.8,68c0.5,0.3,3,1,3,1c2,0.6,4.2,0.9,6.2,0.9c2.5,0,5.3-0.7,8.1-2.1c2.6-1.3,4.2-3.4,5.6-6
			c1.7-3,2.2-5.8,2.2-8.6C69.8,44.5,62.6,37.2,53.9,36.6z"/>
		
			<linearGradient id="SVGID_5_" gradientUnits="userSpaceOnUse" x1="64.194" y1="59.46" x2="18.5236" y2="22.651" gradientTransform="matrix(1 0 0 -1 0 65.395)">
			<stop  offset="0" style="stop-color:#FF8200"/>
			<stop  offset="0.9731" style="stop-color:#905CFB"/>
		</linearGradient>
		<path style="fill:url(#SVGID_5_);" d="M52.1,1.1c-0.7,0.3-1.4,0.7-2,1.1l0,0L26.9,19.7l11.5,16.8l25.2-14.1
			c1.9-0.9,3.4-2.5,4.3-4.3C73.5,7.3,63.1-3.5,52.1,1.1z"/>
		<polygon style="fill:#905CFB;" points="14.5,49.8 38.4,36.5 26.9,19.7 4.9,36.2 		"/>
		
			<linearGradient id="SVGID_6_" gradientUnits="userSpaceOnUse" x1="30.4483" y1="16.1521" x2="2.2652" y2="26.1676" gradientTransform="matrix(1 0 0 -1 0 65.395)">
			<stop  offset="0" style="stop-color:#0CB0F2"/>
			<stop  offset="0.9731" style="stop-color:#905CFB"/>
		</linearGradient>
		<path style="fill:url(#SVGID_6_);" d="M20.4,56.4V35L12,34.6H12c-1.6-0.3-3.4-0.2-5.3,0.6c-1.8,0.8-3.2,2.1-3.9,3.9
			c-2.1,4.9,0.4,9.6,4.5,11.2h0.1L20.4,56.4z"/>
	</g>
	<g>
		<g>
			<rect x="13.4" y="13.4" style="fill:#000000;" width="43.2" height="43.2"/>
			<g>
				<path style="fill:#FFFFFF;" d="M17.5,29.4V19h4v10.3c0,3,1.5,4.5,3.9,4.5s3.9-1.5,3.9-4.4V19h4v10.2c0,5.5-3.1,8.2-8,8.2
					C20.5,37.5,17.5,34.7,17.5,29.4z"/>
				<path style="fill:#FFFFFF;" d="M35.4,19h7.4c4.3,0,6.9,2.6,6.9,6.3v0.1c0,4.2-3.3,6.4-7.3,6.4h-3v5.4h-4V19z M42.6,28.2
					c2,0,3.2-1.2,3.2-2.7v-0.1c0-1.8-1.2-2.7-3.2-2.7h-3.1v5.5H42.6z"/>
			</g>
			<rect x="17.5" y="48.5" style="fill:#FFFFFF;" width="16.2" height="2.7"/>
		</g>
	</g>
</g>
</svg>
