<svg enable-background="new 0 0 596.6 104.6" height="104.6" viewBox="0 0 596.6 104.6" width="596.6" xmlns="http://www.w3.org/2000/svg"><path d="m106.3 48.7v-48.6h18.7v48.1c0 13.9 6.9 21 18.3 21s18.3-6.9 18.3-20.4v-48.7h18.7v48c0 25.8-14.5 38.4-37.3 38.4s-36.7-12.8-36.7-37.8z"/><path d="m183.6 20h18.5v9.4c4.5-6.1 10.7-10.6 20.3-10.6 15.2 0 29.6 11.9 29.6 33.7v.2c0 21.7-14.2 33.7-29.6 33.7-9.8 0-15.9-4.5-20.3-9.7v27.9h-18.5zm49.9 32.7v-.2c0-10.8-7.3-18-15.9-18s-15.8 7.2-15.8 18v.2c0 10.8 7.2 18 15.8 18s15.9-7.1 15.9-18z"/><path d="m249.1 76.5 7.9-12.2c7 5.1 14.5 7.8 20.5 7.8 5.3 0 7.8-1.9 7.8-4.9v-.2c0-4-6.3-5.3-13.5-7.5-9.1-2.7-19.4-6.9-19.4-19.6v-.2c0-13.2 10.7-20.7 23.8-20.7 8.3 0 17.3 2.8 24.3 7.5l-7 12.8c-6.4-3.8-12.9-6.1-17.6-6.1-4.5 0-6.8 1.9-6.8 4.5v.3c0 3.6 6.2 5.3 13.2 7.8 9.1 3 19.7 7.4 19.7 19.3v.2c0 14.5-10.8 21-24.9 21-9.2 0-19.4-3-28-9.8z"/><path d="m302.7 52.9v-.2c0-18.7 15.1-33.9 35.4-33.9 20.2 0 35.1 14.9 35.1 33.7v.2c0 18.7-15.1 33.9-35.4 33.9-20.2 0-35.1-15-35.1-33.7zm52.2 0v-.2c0-9.6-6.9-18-17.1-18-10.6 0-16.9 8.1-16.9 17.7v.2c0 9.6 6.9 18 17.1 18 10.6.1 16.9-8.1 16.9-17.7z"/><path d="m374.8 62.2v-42.2h18.5v36.3c0 8.7 4.1 13.2 11.2 13.2 7 0 11.5-4.5 11.5-13.2v-36.3h18.5v65.1h-18.5v-9.2c-4.3 5.5-9.7 10.4-19.1 10.4-13.9 0-22.1-9.2-22.1-24.1z"/><path d="m438.6 20h18.5v13.1c3.8-9 9.8-14.8 20.8-14.3v19.3h-1c-12.3 0-19.8 7.4-19.8 23v24.1h-18.5z"/><path d="m476.7 52.9v-.2c0-18.6 14.2-33.9 34.1-33.9 12.3 0 19.9 4.1 26 10.9l-11.3 12.2c-4.1-4.4-8.3-7.2-14.8-7.2-9.2 0-15.8 8.1-15.8 17.7v.2c0 10 6.4 18 16.5 18 6.2 0 10.5-2.7 14.9-6.9l10.8 10.9c-6.3 6.9-13.6 11.9-26.6 11.9-19.5.1-33.8-15-33.8-33.6z"/><path d="m532.7 52.9v-.2c0-18.6 13.2-33.9 32.2-33.9 21.7 0 31.7 16.9 31.7 35.4 0 1.5-.1 3.2-.2 4.9h-45.4c1.8 8.4 7.7 12.8 15.9 12.8 6.2 0 10.7-1.9 15.8-6.7l10.6 9.4c-6.1 7.5-14.8 12.2-26.6 12.2-19.6-.2-34-14-34-33.9zm45.9-5.5c-1.1-8.3-6-13.9-13.7-13.9s-12.6 5.5-14.1 13.9z"/><path d="m0 0h85v85h-85z"/><g fill="#fff"><path d="m8.1 22.8v-12.3h4.7v12.1c0 3.5 1.7 5.3 4.6 5.3s4.6-1.7 4.6-5.1v-12.3h4.7v12.1c0 6.5-3.6 9.7-9.4 9.7-5.7 0-9.2-3.2-9.2-9.5z"/><path d="m29.2 10.5h8.8c5.1 0 8.2 3 8.2 7.4v.1c0 5-3.9 7.5-8.7 7.5h-3.6v6.4h-4.7zm8.5 10.8c2.4 0 3.7-1.4 3.7-3.2v-.1c0-2.1-1.5-3.2-3.8-3.2h-3.6v6.6h3.7z"/><path d="m8.1 69.1h32.1v5.3h-32.1z"/></g></svg>