<svg enable-background="new 0 0 70 70" height="70" viewBox="0 0 70 70" width="70" xmlns="http://www.w3.org/2000/svg" xmlns:xlink="http://www.w3.org/1999/xlink"><linearGradient id="a"><stop offset="0" stop-color="#ff8200"/><stop offset=".9731" stop-color="#905cfb"/></linearGradient><linearGradient id="b" gradientTransform="matrix(1 0 0 -1 0 65.395)" gradientUnits="userSpaceOnUse" x1="64.9131" x2="17.5131" xlink:href="#a" y1="54.3846" y2="47.2746"/><linearGradient id="c"><stop offset="0" stop-color="#0cb0f2"/><stop offset=".9731" stop-color="#905cfb"/></linearGradient><linearGradient id="d" gradientTransform="matrix(1 0 0 -1 0 65.395)" gradientUnits="userSpaceOnUse" x1="15.6745" x2="20.0928" xlink:href="#c" y1="30.5931" y2="55.2747"/><linearGradient id="e" gradientTransform="matrix(1 0 0 -1 0 65.395)" gradientUnits="userSpaceOnUse" x1="58.3352" x2="26.9777" xlink:href="#c" y1="11.7285" y2="27.0426"/><linearGradient id="f" gradientTransform="matrix(1 0 0 -1 0 65.395)" gradientUnits="userSpaceOnUse" x1="60.6778" x2="7.3522" xlink:href="#c" y1="9.337" y2="28.5084"/><linearGradient id="g" gradientTransform="matrix(1 0 0 -1 0 65.395)" gradientUnits="userSpaceOnUse" x1="64.194" x2="18.5236" xlink:href="#a" y1="59.46" y2="22.651"/><linearGradient id="h" gradientTransform="matrix(1 0 0 -1 0 65.395)" gradientUnits="userSpaceOnUse" x1="30.4483" x2="2.2652" xlink:href="#c" y1="16.1521" y2="26.1676"/><path d="m60.5 24-50.9 2.9-.3-19.5 45.9-7.2z" fill="url(#b)"/><path d="m20.3 43.2 16.4-20.8-17.8-12.2c-3.1-2.8-7.8-4-12.6-2-2.4 1-4.3 2.9-5.3 5.3-2.1 5-.8 9.9 2.4 12.9z" fill="url(#d)"/><path d="m20.3 43.2 25.2 24.9 15.7-29.3-24.5-16.4z" fill="url(#e)"/><path d="m53.9 36.6-41.9-2c-1.6-.3-3.4-.2-5.3.6-1.8.8-3.2 2.1-3.9 3.9-2.1 4.9.4 9.6 4.5 11.2l37.5 17.7c.5.3 3 1 3 1 2 .6 4.2.9 6.2.9 2.5 0 5.3-.7 8.1-2.1 2.6-1.3 4.2-3.4 5.6-6 1.7-3 2.2-5.8 2.2-8.6-.1-8.7-7.3-16-16-16.6z" fill="url(#f)"/><path d="m52.1 1.1c-.7.3-1.4.7-2 1.1l-23.2 17.5 11.5 16.8 25.2-14.1c1.9-.9 3.4-2.5 4.3-4.3 5.6-10.8-4.8-21.6-15.8-17z" fill="url(#g)"/><path d="m14.5 49.8 23.9-13.3-11.5-16.8-22 16.5z" fill="#905cfb"/><path d="m20.4 56.4v-21.4l-8.4-.4c-1.6-.3-3.4-.2-5.3.6-1.8.8-3.2 2.1-3.9 3.9-2.1 4.9.4 9.6 4.5 11.2h.1z" fill="url(#h)"/><path d="m13.4 13.4h43.2v43.2h-43.2z"/><g fill="#fff"><path d="m17.5 29.4v-10.4h4v10.3c0 3 1.5 4.5 3.9 4.5s3.9-1.5 3.9-4.4v-10.4h4v10.2c0 5.5-3.1 8.2-8 8.2-4.8.1-7.8-2.7-7.8-8z"/><path d="m35.4 19h7.4c4.3 0 6.9 2.6 6.9 6.3v.1c0 4.2-3.3 6.4-7.3 6.4h-3v5.4h-4zm7.2 9.2c2 0 3.2-1.2 3.2-2.7v-.1c0-1.8-1.2-2.7-3.2-2.7h-3.1v5.5z"/><path d="m17.5 48.5h16.2v2.7h-16.2z"/></g></svg>