<?xml version="1.0" encoding="utf-8"?>
<!-- Generator: Adobe Illustrator 19.1.0, SVG Export Plug-In . SVG Version: 6.00 Build 0)  -->
<svg version="1.1" id="Layer_1" xmlns="http://www.w3.org/2000/svg" xmlns:xlink="http://www.w3.org/1999/xlink" x="0px" y="0px"
	 width="596.6px" height="104.6px" viewBox="0 0 596.6 104.6" style="enable-background:new 0 0 596.6 104.6;" xml:space="preserve"
	>
<g>
	<g>
		<path d="M106.3,48.7V0.1H125v48.1c0,13.9,6.9,21,18.3,21s18.3-6.9,18.3-20.4V0.1h18.7v48
			c0,25.8-14.5,38.4-37.3,38.4S106.3,73.7,106.3,48.7z"/>
		<path d="M183.6,20h18.5v9.4c4.5-6.1,10.7-10.6,20.3-10.6c15.2,0,29.6,11.9,29.6,33.7v0.2
			c0,21.7-14.2,33.7-29.6,33.7c-9.8,0-15.9-4.5-20.3-9.7v27.9h-18.5V20z M233.5,52.7v-0.2c0-10.8-7.3-18-15.9-18s-15.8,7.2-15.8,18
			v0.2c0,10.8,7.2,18,15.8,18S233.5,63.6,233.5,52.7z"/>
		<path d="M249.1,76.5l7.9-12.2c7,5.1,14.5,7.8,20.5,7.8c5.3,0,7.8-1.9,7.8-4.9V67c0-4-6.3-5.3-13.5-7.5
			c-9.1-2.7-19.4-6.9-19.4-19.6v-0.2c0-13.2,10.7-20.7,23.8-20.7c8.3,0,17.3,2.8,24.3,7.5l-7,12.8c-6.4-3.8-12.9-6.1-17.6-6.1
			c-4.5,0-6.8,1.9-6.8,4.5V38c0,3.6,6.2,5.3,13.2,7.8c9.1,3,19.7,7.4,19.7,19.3v0.2c0,14.5-10.8,21-24.9,21
			C267.9,86.3,257.7,83.3,249.1,76.5z"/>
		<path d="M302.7,52.9v-0.2c0-18.7,15.1-33.9,35.4-33.9c20.2,0,35.1,14.9,35.1,33.7v0.2
			c0,18.7-15.1,33.9-35.4,33.9C317.6,86.6,302.7,71.6,302.7,52.9z M354.9,52.9v-0.2c0-9.6-6.9-18-17.1-18
			c-10.6,0-16.9,8.1-16.9,17.7v0.2c0,9.6,6.9,18,17.1,18C348.6,70.7,354.9,62.5,354.9,52.9z"/>
		<path d="M374.8,62.2V20h18.5v36.3c0,8.7,4.1,13.2,11.2,13.2c7,0,11.5-4.5,11.5-13.2V20h18.5v65.1H416v-9.2
			c-4.3,5.5-9.7,10.4-19.1,10.4C383,86.3,374.8,77.1,374.8,62.2z"/>
		<path d="M438.6,20h18.5v13.1c3.8-9,9.8-14.8,20.8-14.3v19.3h-1c-12.3,0-19.8,7.4-19.8,23v24.1h-18.5V20z"/>
		<path d="M476.7,52.9v-0.2c0-18.6,14.2-33.9,34.1-33.9c12.3,0,19.9,4.1,26,10.9l-11.3,12.2
			c-4.1-4.4-8.3-7.2-14.8-7.2c-9.2,0-15.8,8.1-15.8,17.7v0.2c0,10,6.4,18,16.5,18c6.2,0,10.5-2.7,14.9-6.9l10.8,10.9
			c-6.3,6.9-13.6,11.9-26.6,11.9C491,86.6,476.7,71.5,476.7,52.9z"/>
		<path d="M532.7,52.9v-0.2c0-18.6,13.2-33.9,32.2-33.9c21.7,0,31.7,16.9,31.7,35.4c0,1.5-0.1,3.2-0.2,4.9
			H551c1.8,8.4,7.7,12.8,15.9,12.8c6.2,0,10.7-1.9,15.8-6.7l10.6,9.4c-6.1,7.5-14.8,12.2-26.6,12.2
			C547.1,86.6,532.7,72.8,532.7,52.9z M578.6,47.4c-1.1-8.3-6-13.9-13.7-13.9c-7.7,0-12.6,5.5-14.1,13.9H578.6z"/>
	</g>
	<g>
		<rect x="0" y="0" style="fill:#000000;" width="85" height="85"/>
		<g>
			<path style="fill:#FFFFFF;" d="M8.1,22.8V10.5h4.7v12.1c0,3.5,1.7,5.3,4.6,5.3s4.6-1.7,4.6-5.1V10.5h4.7v12.1
				c0,6.5-3.6,9.7-9.4,9.7C11.6,32.3,8.1,29.1,8.1,22.8z"/>
			<path style="fill:#FFFFFF;" d="M29.2,10.5H38c5.1,0,8.2,3,8.2,7.4V18c0,5-3.9,7.5-8.7,7.5h-3.6v6.4h-4.7V10.5z M37.7,21.3
				c2.4,0,3.7-1.4,3.7-3.2V18c0-2.1-1.5-3.2-3.8-3.2h-3.6v6.6H37.7z"/>
		</g>
		<rect x="8.1" y="69.1" style="fill:#FFFFFF;" width="32.1" height="5.3"/>
	</g>
</g>
</svg>
