<svg xmlns="http://www.w3.org/2000/svg" width="639" height="106" fill="none" viewBox="0 0 639 106">
  <path fill="#000" d="M0 1H85V86H0V1Z"/>
  <path fill="#fff" d="M10.5288 69.9795H42.4574V75.3009H10.5288V69.9795Z"/>
  <path fill="#fff" d="M10.5713 29.7775V11.4434H17.6665V29.593C17.6665 34.8151 20.2776 37.5113 24.5773 37.5113C28.877 37.5113 31.5022 34.9002 31.4881 29.82V11.4576H38.5833V29.5504C38.5833 39.2567 33.1342 44.0247 24.5205 44.0247C15.9069 44.0247 10.5713 39.2141 10.5713 29.7775V29.7775Z"/>
  <path fill="#fff" d="M44.9976 11.458H58.0955C65.7441 11.458 70.3702 15.9848 70.3702 22.5408V22.6259C70.3702 30.0475 64.5947 33.8932 57.4143 33.8932H52.0503V43.5143H44.9551L44.9976 11.458ZM57.6414 27.621C61.1606 27.621 63.2324 25.5208 63.2324 22.7678V22.6685C63.2324 19.5182 61.0329 17.8153 57.5562 17.8153H52.0503V27.621H57.6414Z"/>
  <path fill="#000" d="M116.901 49.4462V0.81543H135.632V48.9495C135.632 62.8136 142.571 69.9798 153.995 69.9798C165.418 69.9798 172.343 63.0549 172.343 49.5597V0.81543H191.06V48.836C191.06 74.6059 176.586 87.2496 153.739 87.2496C130.893 87.2496 116.901 74.4782 116.901 49.4462Z"/>
  <path fill="#000" d="M198.042 20.7526H216.49V30.1041C220.988 24.0306 227.189 19.5322 236.796 19.5322C251.98 19.5322 266.454 31.4522 266.454 53.2062V53.4475C266.454 75.2157 252.264 87.1215 236.782 87.1215C232.876 87.1973 229.006 86.3576 225.482 84.6697C221.958 82.9818 218.879 80.4925 216.49 77.401V105.356H198.042V20.7526ZM248.007 53.3907V53.1495C248.007 42.3363 240.713 35.1559 232.071 35.1559C223.429 35.1559 216.334 42.3931 216.334 53.2062V53.4475C216.334 64.2748 223.429 71.441 232.128 71.441C240.826 71.441 248.007 64.3883 248.007 53.4475V53.3907Z"/>
  <path fill="#000" d="M268.271 77.2733L276.175 65.1262C283.27 70.2206 290.635 72.9026 296.708 72.9026C302.058 72.9026 304.499 70.9585 304.499 68.0352V67.794C304.499 63.7781 298.17 62.4442 291.004 60.2589C281.879 57.5769 271.549 53.3339 271.549 40.6902V40.449C271.549 27.1951 282.248 19.7734 295.374 19.7734C304.033 19.8986 312.472 22.5145 319.683 27.3086L312.587 40.08C306.145 36.3053 299.702 34.0065 294.963 34.0065C290.464 34.0065 288.166 35.9506 288.166 38.5049V38.7461C288.166 42.3931 294.367 44.0959 301.405 46.5225C310.53 49.5592 321.102 53.9299 321.102 65.8499V66.0912C321.102 80.5654 310.289 87.1214 296.183 87.1214C286.043 87.032 276.222 83.5668 268.271 77.2733V77.2733Z"/>
  <path fill="#000" d="M324.834 53.6887V53.4475C324.834 34.7302 339.918 19.5322 360.211 19.5322C380.503 19.5322 395.346 34.489 395.346 53.2062V53.4475C395.346 72.1647 380.276 87.3627 359.97 87.3627C339.663 87.3627 324.834 72.4201 324.834 53.6887V53.6887ZM377.112 53.6887V53.4475C377.112 43.8405 370.187 35.4539 359.97 35.4539C349.398 35.4539 343.069 43.5993 343.069 53.2062V53.4475C343.069 63.0544 350.008 71.441 360.211 71.441C370.797 71.441 377.112 63.2957 377.112 53.6887Z"/>
  <path fill="#000" d="M401.164 62.927V20.7529H419.612V57.0947C419.612 65.8503 423.741 70.3486 430.794 70.3486C437.846 70.3486 442.345 65.8503 442.345 57.0947V20.7529H460.792V85.9014H442.345V76.6634C438.088 82.1409 432.61 87.1218 423.259 87.1218C409.324 87.1218 401.164 77.8838 401.164 62.927Z"/>
  <path fill="#000" d="M471.591 20.7531H490.039V33.8793C493.814 24.8825 499.887 19.0502 510.828 19.5327V38.8601H509.849C497.574 38.8601 489.982 46.2818 489.982 61.8345V85.9583H471.535L471.591 20.7531Z"/>
  <path fill="#000" d="M513.198 53.6892V53.4479C513.136 48.9565 513.979 44.4987 515.677 40.34C517.374 36.1814 519.892 32.4071 523.079 29.2422C526.267 26.0773 530.059 23.5866 534.229 21.9184C538.4 20.2503 542.864 19.4389 547.354 19.5327C559.629 19.5327 567.292 23.6621 573.366 30.4735L562.013 42.6348C557.87 38.2499 553.74 35.4544 547.184 35.4544C537.932 35.4544 531.376 43.5997 531.376 53.2067V53.4479C531.376 63.3813 537.818 71.4415 547.908 71.4415C554.109 71.4415 558.366 68.7736 562.865 64.5165L573.735 75.429C567.42 82.3539 560.126 87.3348 547.113 87.3348C542.658 87.4225 538.231 86.6142 534.094 84.9579C529.957 83.3015 526.196 80.8308 523.032 77.6925C519.869 74.5543 517.368 70.8124 515.679 66.689C513.989 62.5656 513.146 58.1449 513.198 53.6892V53.6892Z"/>
  <path fill="#000" d="M574.572 53.6887V53.4475C574.572 34.8579 587.826 19.5322 606.784 19.5322C628.552 19.5322 638.514 36.4331 638.514 54.9091C638.514 56.3281 638.4 58.0736 638.273 59.7764H592.934C594.751 68.163 600.597 72.5478 608.856 72.5478C615.057 72.5478 619.556 70.6038 624.664 65.8641L635.236 75.2298C629.163 82.765 620.407 87.3769 608.615 87.3769C589.046 87.3627 574.572 73.6263 574.572 53.6887V53.6887ZM620.52 48.2254C619.428 39.9523 614.575 34.3613 606.784 34.3613C598.994 34.3613 594.155 39.8388 592.693 48.2254H620.52Z"/>
</svg>
