<svg xmlns="http://www.w3.org/2000/svg" width="70" height="70" fill="none" viewBox="0 0 70 70">
  <defs>
    <linearGradient id="a" x1="65.0075" x2="17.5538" y1="11.0166" y2="18.1312" gradientUnits="userSpaceOnUse">
      <stop offset="0" stop-color="#FF8200"/>
      <stop offset="0.9731" stop-color="#905CFB"/>
    </linearGradient>
    <linearGradient id="b" x1="15.7142" x2="20.1415" y1="34.846" y2="10.1259" gradientUnits="userSpaceOnUse">
      <stop offset="0" stop-color="#0CB0F2"/>
      <stop offset="0.9731" stop-color="#905CFB"/>
    </linearGradient>
    <linearGradient id="c" x1="58.4222" x2="27.0241" y1="53.7406" y2="38.414" gradientUnits="userSpaceOnUse">
      <stop offset="0" stop-color="#0CB0F2"/>
      <stop offset="0.9731" stop-color="#905CFB"/>
    </linearGradient>
    <linearGradient id="d" x1="60.7676" x2="7.37684" y1="56.136" y2="36.9504" gradientUnits="userSpaceOnUse">
      <stop offset="0" stop-color="#0CB0F2"/>
      <stop offset="0.9731" stop-color="#905CFB"/>
    </linearGradient>
    <linearGradient id="e" x1="64.2876" x2="18.5492" y1="5.93305" y2="42.7792" gradientUnits="userSpaceOnUse">
      <stop offset="0" stop-color="#FF8200"/>
      <stop offset="0.9731" stop-color="#905CFB"/>
    </linearGradient>
    <linearGradient id="f" x1="30.5045" x2="2.287" y1="49.3101" y2="39.2872" gradientUnits="userSpaceOnUse">
      <stop offset="0" stop-color="#0CB0F2"/>
      <stop offset="0.9731" stop-color="#905CFB"/>
    </linearGradient>
  </defs>
  <path fill="url(#a)" d="M60.5895 24.0269L9.63285 26.9315L9.33252 7.40043L55.2836 0.188965L60.5895 24.0269Z"/>
  <path fill="url(#b)" d="M20.3448 43.2575L36.7631 22.4244L18.9433 10.2049C15.8398 7.40049 11.1346 6.19858 6.32926 8.20176C3.92659 9.20336 2.02447 11.1064 1.02336 13.5102C-1.07898 18.5182 0.22247 23.426 3.42603 26.4308L20.3448 43.2575Z"/>
  <path fill="url(#c)" d="M20.3447 43.2575L45.5728 68.1971L61.2902 38.8504L36.763 22.4243L20.3447 43.2575Z"/>
  <path fill="url(#d)" d="M53.9823 36.647L12.0357 34.6438C10.4339 34.3434 8.63189 34.4435 6.72977 35.2448C4.92777 36.0461 3.52621 37.3481 2.82544 39.151C0.7231 44.0588 3.22588 48.7663 7.33044 50.3689L44.8722 68.0971C45.3727 68.3975 47.8755 69.0986 47.8755 69.0986C49.8777 69.6996 52.0802 70.0001 54.0824 70.0001C56.5852 70.0001 59.3883 69.299 62.1914 67.8967C64.7943 66.5947 66.3961 64.4913 67.7976 61.8872C69.4995 58.8824 70.0001 56.0779 70.0001 53.2735C69.9 44.5596 62.692 37.248 53.9823 36.647Z"/>
  <path fill="url(#e)" d="M52.1802 1.09035C51.4794 1.39083 50.7786 1.79146 50.178 2.1921L26.9521 19.72L38.4649 36.5467L63.693 22.4243C65.5951 21.5228 67.0968 19.9203 67.9978 18.1174C73.604 7.30022 63.1924 -3.51698 52.1802 1.09035Z"/>
  <path fill="#905CFB" d="M14.5384 49.8679L38.465 36.5467L26.9522 19.72L4.92773 36.2463L14.5384 49.8679Z"/>
  <path fill="url(#f)" d="M20.445 56.4786V35.0445L12.0357 34.6438C10.4339 34.3434 8.63189 34.4435 6.72977 35.2448C4.92777 36.0461 3.52621 37.3481 2.82544 39.151C0.7231 44.0588 3.22588 48.7663 7.33044 50.3689H7.43055L20.445 56.4786Z"/>
  <g>
    <path fill="#000000" d="M56 14H14V56H56V14Z"/>
    <path fill="#FFFFFF" d="M34.4167 48.6499H18.6667V51.3332H34.4167V48.6499Z"/>
    <path fill="#FFFFFF" d="M19.0004 27.9904L19 19L22.4618 19.0001L22.4622 27.9004C22.4623 30.4635 23.7433 31.7895 25.856 31.7895C27.9688 31.7896 29.2503 30.5086 29.2502 28.0131L29.2498 19.0002L32.7111 19.0003L32.7114 27.8781C32.7116 32.644 30.0373 34.9808 25.8112 34.9807C21.5856 34.9806 19.0006 32.6212 19.0004 27.9904Z"/>
    <path fill="#FFFFFF" d="M35.9077 19.0005L42.3361 19.0006C46.0894 19.0007 48.3599 21.2262 48.36 24.4398V24.4848C48.3601 28.1262 45.5282 30.0138 41.9994 30.0138L39.3694 30.0137L39.3696 34.7346L35.9084 34.7345L35.9077 19.0005ZM42.1113 26.9351C43.8425 26.9352 44.8538 25.9008 44.8537 24.5523V24.5072C44.8537 22.9561 43.7747 22.1243 42.0441 22.1242L39.3691 22.1242L39.3693 26.9351L42.1113 26.9351Z"/>
  </g>
</svg>
