<svg xmlns="http://www.w3.org/2000/svg" width="636" height="109" fill="none" viewBox="0 0 636 109">
  <path fill="#000" d="M0 4H85V89H0V4Z"/>
  <path fill="#fff" d="M10.543 72.9795H42.4715V78.3009H10.543V72.9795Z"/>
  <path fill="#fff" d="M19.1282 20.9426H9.37939V14.4434H35.9156V20.9426H26.1667V46.4713H19.1282V20.9426Z"/>
  <path fill="#fff" d="M38.5692 30.5498V30.4646C38.5281 28.2666 38.9332 26.083 39.7598 24.0459C40.5864 22.0087 41.8175 20.1604 43.3787 18.6125C44.9398 17.0646 46.7986 15.8493 48.8427 15.0401C50.8868 14.2308 53.0738 13.8445 55.2714 13.9043C57.6051 13.7851 59.9375 14.1623 62.1146 15.0111C64.2917 15.86 66.2639 17.161 67.901 18.8284L63.4168 23.9938C61.2613 21.7612 58.3168 20.4622 55.2147 20.3752C49.8223 20.3752 45.9341 24.8594 45.9341 30.3085V30.4079C45.9341 35.8996 49.723 40.4689 55.2147 40.4689C58.8758 40.4689 61.1179 39.0499 63.6438 36.7226L68.128 41.2494C66.509 43.127 64.4855 44.6132 62.2096 45.5963C59.9336 46.5794 57.4645 47.0339 54.9876 46.9256C52.8256 46.9599 50.6788 46.5602 48.6741 45.7499C46.6694 44.9396 44.8476 43.7354 43.3167 42.2084C41.7858 40.6815 40.5768 38.8629 39.7613 36.8603C38.9459 34.8577 38.5405 32.7118 38.5692 30.5498"/>
  <path fill="#000" d="M136.867 21.2556H110.998V4H181.425V21.2556H155.57V89.0151H136.867V21.2556Z"/>
  <path fill="#000" d="M167.461 56.8302V56.589C167.461 38.0137 180.687 22.7021 199.645 22.7021C221.385 22.7021 231.333 39.5888 231.333 58.0506C231.333 59.4697 231.219 61.2009 231.092 62.9038H185.796C187.612 71.2903 193.444 75.6752 201.703 75.6752C207.904 75.6752 212.388 73.7311 217.497 68.9915L228.055 78.343C221.981 85.8782 213.24 90.4901 201.462 90.4901C181.907 90.4759 167.461 76.7537 167.461 56.8302V56.8302ZM213.368 51.3669C212.275 43.1081 207.408 37.517 199.645 37.517C191.883 37.517 187.016 42.9945 185.554 51.3669H213.368Z"/>
  <path fill="#000" d="M235.519 70.3119V70.0707C235.519 55.8802 246.318 49.31 261.743 49.31C267.161 49.2624 272.545 50.1653 277.651 51.9778V50.8852C277.651 43.2365 272.925 38.9794 263.687 38.9794C257.524 38.9867 251.419 40.1815 245.708 42.4986L241.096 28.4216C249.01 24.7863 257.648 23.0005 266.355 23.1996C276.444 23.1996 283.724 25.8674 288.336 30.4793C293.203 35.3324 295.431 42.4986 295.431 51.2541V89.015H277.537V81.9197C273.095 86.9432 266.852 90.2354 257.855 90.2354C245.594 90.2354 235.519 83.1969 235.519 70.3119V70.3119ZM277.892 66.0548V62.8194C274.183 61.1823 270.168 60.355 266.114 60.3928C258.224 60.3928 253.342 63.5431 253.342 69.3754V69.6166C253.342 74.5975 257.472 77.5065 263.418 77.5065C272.074 77.4781 277.892 72.7527 277.892 66.069V66.0548Z"/>
  <path fill="#000" d="M302.711 23.9225H321.159V33.1463C325.416 27.683 330.993 22.7021 340.344 22.7021C348.858 22.7021 355.272 26.4768 358.678 33.0328C364.354 26.3491 371.194 22.7021 380.049 22.7021C393.785 22.7021 402.044 30.961 402.044 46.6273V89.0142H383.597V52.7008C383.597 43.9595 379.708 39.4611 372.784 39.4611C365.859 39.4611 361.616 43.9595 361.616 52.7008V89.0142H343.168V52.7008C343.168 43.9595 339.28 39.4611 332.355 39.4611C325.43 39.4611 321.187 43.9595 321.187 52.7008V89.0142H302.739L302.711 23.9225Z"/>
  <path fill="#000" d="M408.26 46.7552V46.5139C408.26 22.3901 426.48 2.52344 452.591 2.52344C468.626 2.52344 478.219 7.85906 486.109 15.6354L474.203 29.3576C467.647 23.4118 460.977 19.7649 452.477 19.7649C438.145 19.7649 427.814 31.6707 427.814 46.2443V46.4855C427.814 61.0592 437.889 73.2062 452.477 73.2062C462.184 73.2062 468.087 69.318 474.813 63.2729L486.719 75.2922C477.978 84.6437 468.271 90.476 451.867 90.476C426.849 90.476 408.26 71.1628 408.26 46.7552V46.7552Z"/>
  <path fill="#000" d="M492.21 0.380859H511.651V16.7567H492.21V0.380859ZM492.707 23.937H511.155V89.0146H492.707V23.937Z"/>
  <path fill="#000" d="M528.609 70.5527V39.7168H520.833V23.9228H528.609V7.27734H547.057V23.9228H562.354V39.7168H547.071V67.5159C547.071 71.7731 548.887 73.8449 553.017 73.8449C556.201 73.8613 559.336 73.0652 562.127 71.5318V86.3467C557.72 88.9487 552.668 90.2523 547.553 90.1072C536.258 90.1072 528.609 85.623 528.609 70.5527Z"/>
  <path fill="#000" d="M616.505 23.9229H635.704L610.672 90.6181C605.706 103.844 600.356 108.824 589.302 108.824C583.524 108.914 577.839 107.358 572.912 104.34L579.099 90.9729C581.477 92.4758 584.195 93.3543 587.003 93.5271C590.153 93.5271 591.856 92.548 593.431 89.27L567.888 23.9938H587.443L602.314 68.2539L616.505 23.9229Z"/>
</svg>
