<svg xmlns="http://www.w3.org/2000/svg" width="70" height="70" fill="none" viewBox="0 0 70 70">
  <defs>
    <linearGradient id="b" x1="8.38973" x2="66.8555" y1="70.427" y2="43.3207" gradientUnits="userSpaceOnUse">
      <stop offset=".1" stop-color="#3BEA62"/>
      <stop offset=".59" stop-color="#6B57FF"/>
    </linearGradient>
    <linearGradient id="c" x1="65.5511" x2="1.46222" y1="65.2701" y2="1.18121" gradientUnits="userSpaceOnUse">
      <stop offset=".26" stop-color="#6B57FF"/>
      <stop offset=".65" stop-color="#07C3F2"/>
    </linearGradient>
    <clipPath id="a">
      <path fill="#fff" d="M0 0h70v70H0z"/>
    </clipPath>
  </defs>
  <g clip-path="url(#a)">
    <path fill="#3BEA62" d="M6.5625 52.0079v13.4079c0 2.5197 2.0638 4.5513 4.5835 4.511l12.0782-.1928c1.292-.0205 2.5129-.594 3.3537-1.575l35.7727-41.7356c.7007-.8176 1.0862-1.8594 1.0862-2.936V11.0742c0-2.4917-2.02-4.5117-4.5116-4.5117H46.8907c-1.3009 0-2.5389.56191-3.3954 1.5408L7.6788 49.0364c-.71981.8224-1.1163 1.8778-1.1163 2.9709v.0006Z"/>
    <path fill="url(#b)" d="M6.5625 53.608v11.8801c0 2.4916 2.02 4.5116 4.5117 4.5116h13.7435c.2188 0 .4375-.0157.6542-.0478l40.6706-5.9589C68.358 63.6683 70 61.768 70 59.5292V42.6884c0-2.4923-2.0207-4.5123-4.5131-4.5116l-20.2389.0047c-.4655 0-.9283.0725-1.3713.214L9.70225 49.3096c-1.8696.5975-3.13902 2.3352-3.13902 4.2977l-.00073.0007Z"/>
    <path fill="url(#c)" d="M0 4.51235V41.8388c0 1.8136 1.08622 3.4508 2.75691 4.1563L43.6859 63.2734c.5667.2392 1.1765.3602 1.7917.3547l20.0468-.164c2.4773-.0205 4.4748-2.0344 4.4748-4.5117V39.6309c0-.8812-.2577-1.7425-.7417-2.4787L46.1701 2.03298C45.3361.763564 43.9191 0 42.4001 0H4.51167C2.02 0 0 2.02 0 4.51166v.00069Z"/>
    <path fill="#000" d="M56.8745 13.125H13.125v43.7495h43.7495V13.125Z"/>
    <path fill="#fff" d="M32.8605 31.1266c.7266 1.2933 1.7267 2.3098 3.0009 3.0481v-.0027c1.2742.7389 2.6968 1.1081 4.2676 1.1081 1.3289 0 2.5478-.2461 3.658-.7383 1.1094-.4922 2.0343-1.1819 2.7726-2.0692.7382-.8873 1.2325-1.9052 1.4827-3.0543h-3.3531c-.2187.5941-.5447 1.1163-.9788 1.5654-.4334.4498-.955.7957-1.5648 1.0377-.6097.2427-1.2742.3637-1.9933.3637-.9693 0-1.845-.242-2.6264-.7267-.7813-.4846-1.3931-1.1504-1.8347-1.9988-.4416-.8476-.6623-1.8033-.6623-2.8662 0-1.063.2207-2.018.6623-2.8663.4416-.8477 1.0534-1.5142 1.8347-1.9988.7821-.4847 1.6571-.7267 2.6264-.7267.7191 0 1.3836.1217 1.9933.3637.6091.2427 1.1314.5886 1.5648 1.0377.4341.4498.7601.9713.9788 1.5654h3.3531c-.2502-1.1491-.7445-2.167-1.4827-3.0543-.739-.8873-1.6632-1.577-2.7726-2.0692-1.1102-.4922-2.3291-.7383-3.658-.7383-1.5715 0-2.994.3699-4.2676 1.1081-1.2735.7383-2.2743 1.7548-3.0009 3.0481-.7267 1.2934-1.0903 2.7371-1.0903 4.3319 0 1.5948.3636 3.0386 1.0903 4.3319Z"/>
    <path fill="#fff" d="M17.5016 18.5876h13.1652v2.884h-4.971v13.5289h-3.2006V21.4716H17.501l.0006-2.884Z"/>
    <path fill="#fff" d="M36.0935 48.1252H18.5937v3.2812h17.4998v-3.2812Z"/>
  </g>
</svg>
