<svg xmlns="http://www.w3.org/2000/svg" width="128" height="128" fill="none" viewBox="0 0 128 128">
  <defs>
    <linearGradient id="a" x1="15.3413" x2="122.251" y1="128.786" y2="79.2188" gradientUnits="userSpaceOnUse">
      <stop offset=".1" stop-color="#3BEA62"/>
      <stop offset=".59" stop-color="#6B57FF"/>
    </linearGradient>
    <linearGradient id="b" x1="119.866" x2="2.67375" y1="119.352" y2="2.16" gradientUnits="userSpaceOnUse">
      <stop offset=".26" stop-color="#6B57FF"/>
      <stop offset=".65" stop-color="#07C3F2"/>
    </linearGradient>
  </defs>
  <path fill="#3BEA62" d="M12 95.1v24.518c0 4.607 3.7738 8.322 8.3813 8.248l22.0862-.352c2.3625-.038 4.595-1.086 6.1325-2.88l65.414-76.3165c1.281-1.495 1.986-3.4 1.986-5.3688V20.25c0-4.5563-3.694-8.25-8.25-8.25H85.7438c-2.3788 0-4.6425 1.0275-6.2088 2.8175l-65.4937 74.85C12.725 91.1713 12 93.1012 12 95.1Z"/>
  <path fill="url(#a)" d="M12 98.03v21.724c0 4.556 3.6937 8.25 8.25 8.25h25.1312c.4 0 .8-.029 1.1963-.088l74.3705-10.896c4.051-.594 7.053-4.069 7.053-8.162V78.0625c0-4.5575-3.695-8.2512-8.252-8.25l-37.009.0088c-.8513 0-1.6975.1325-2.5075.3912L17.7412 90.17c-3.4187 1.0925-5.7399 4.27-5.7399 7.8588L12 98.03Z"/>
  <path fill="url(#b)" d="M0 8.25v68.255c0 3.3162 1.98625 6.31 5.04125 7.6L79.8838 115.7c1.0362.437 2.1512.659 3.2762.649l36.657-.3c4.53-.038 8.183-3.72 8.183-8.25V72.4675c0-1.6113-.471-3.1863-1.356-4.5325L84.4262 3.71875C82.9 1.3975 80.31 0 77.5325 0H8.25C3.69375 0 0 3.69375 0 8.25Z"/>
  <path fill="#000" d="M104 24H24v80h80V24Z"/>
  <path fill="#fff" d="M66 88H34v6h32v-6Z"/>
  <path fill="#fff" d="M32.0032 33.9844H56.077v5.2737h-9.09v24.7388h-5.8525V39.2581H32.002v-5.2737h.0012Z"/>
  <path fill="#fff" d="M65.575 62.485c-2.33-1.35-4.1588-3.2087-5.4875-5.5737-1.3288-2.365-1.9937-5.005-1.9937-7.9213 0-2.9162.6649-5.5563 1.9937-7.9213 1.3287-2.365 3.1587-4.2237 5.4875-5.5737 2.3287-1.35 4.93-2.0262 7.8037-2.0262 2.43 0 4.6588.4499 6.6888 1.3499 2.0287.9 3.7187 2.1613 5.07 3.7838 1.35 1.6225 2.2537 3.4838 2.7112 5.585h-6.1312c-.4-1.0862-.9963-2.04-1.79-2.8625-.7925-.8212-1.7475-1.4537-2.8613-1.8975-1.115-.4425-2.33-.665-3.645-.665-1.7725 0-3.3724.4425-4.8024 1.3288-1.4288.8862-2.5476 2.105-3.3551 3.655-.8075 1.5512-1.2112 3.2974-1.2112 5.2412 0 1.9437.4037 3.6912 1.2112 5.2412.8075 1.5513 1.9263 2.7688 3.3551 3.6551 1.4287.8862 3.0299 1.3287 4.8024 1.3287 1.315 0 2.53-.2212 3.645-.665 1.115-.4425 2.0688-1.075 2.8613-1.8975.7937-.8212 1.39-1.7763 1.79-2.8625h6.1312c-.4575 2.1012-1.3612 3.9625-2.7112 5.585-1.35 1.6225-3.0413 2.8838-5.07 3.7837-2.03.9-4.2588 1.3501-6.6888 1.3501-2.8725 0-5.4737-.6751-7.8037-2.0263v.005Z"/>
</svg>
