<svg enable-background="new 0 0 599.6 108.5" height="108.5" viewBox="0 0 599.6 108.5" width="599.6" xmlns="http://www.w3.org/2000/svg"><path d="m130.3 20.9h-25.9v-17.3h70.5v17.3h-25.9v67.8h-18.7z"/><path d="m155.5 56.5v-.2c0-18.6 13.2-33.9 32.2-33.9 21.7 0 31.7 16.9 31.7 35.4 0 1.5-.1 3.2-.2 4.9h-45.3c1.8 8.4 7.7 12.8 15.9 12.8 6.2 0 10.7-1.9 15.8-6.7l10.6 9.4c-6.1 7.5-14.8 12.2-26.6 12.2-19.6-.2-34.1-14-34.1-33.9zm46-5.5c-1.1-8.3-6-13.9-13.7-13.9s-12.6 5.5-14.1 13.9z"/><path d="m220.7 70v-.2c0-14.2 10.8-20.8 26.2-20.8 6.6 0 11.3 1.1 15.9 2.7v-1.1c0-7.7-4.7-11.9-14-11.9-7 0-12 1.3-18 3.5l-4.6-14.1c7.2-3.2 14.2-5.2 25.3-5.2 10.1 0 17.4 2.7 22 7.3 4.9 4.9 7 12 7 20.8v37.8h-17.9v-7c-4.5 5-10.7 8.3-19.7 8.3-12.2-.2-22.2-7.2-22.2-20.1zm42.4-4.3v-3.3c-3.2-1.5-7.3-2.4-11.8-2.4-7.9 0-12.8 3.2-12.8 9v.2c0 5 4.1 7.9 10.1 7.9 8.6.1 14.5-4.7 14.5-11.4z"/><path d="m284.3 23.6h18.5v9.2c4.3-5.5 9.8-10.4 19.2-10.4 8.5 0 14.9 3.8 18.3 10.3 5.7-6.7 12.5-10.3 21.4-10.3 13.7 0 22 8.3 22 23.9v42.4h-18.5v-36.3c0-8.7-3.9-13.2-10.8-13.2s-11.2 4.5-11.2 13.2v36.3h-18.5v-36.3c0-8.7-3.9-13.2-10.8-13.2s-11.2 4.5-11.2 13.2v36.3h-18.5v-65.1z"/><path d="m385.8 46.4v-.2c0-24.2 18.2-44 44.3-44 16 0 25.6 5.3 33.5 13.1l-11.8 13.7c-6.6-6-13.2-9.6-21.7-9.6-14.3 0-24.7 11.9-24.7 26.5v.2c0 14.6 10.1 26.7 24.7 26.7 9.7 0 15.7-3.9 22.4-10l11.9 12c-8.7 9.4-18.5 15.2-34.9 15.2-25.1.2-43.7-19.2-43.7-43.6z"/><path d="m466.2 0h19.4v16.4h-19.4zm.5 23.6h18.5v65.1h-18.5z"/><path d="m496.1 70.2v-30.8h-7.8v-15.8h7.8v-16.7h18.5v16.6h15.3v15.8h-15.3v27.8c0 4.3 1.8 6.3 6 6.3 3.4 0 6.4-.9 9.1-2.3v14.9c-3.9 2.3-8.4 3.8-14.6 3.8-11.3 0-19-4.5-19-19.6z"/><path d="m580.4 23.6h19.2l-25 66.7c-5 13.2-10.3 18.2-21.4 18.2-6.7 0-11.7-1.7-16.4-4.5l6.2-13.4c2.4 1.5 5.5 2.6 7.9 2.6 3.2 0 4.9-1 6.4-4.3l-25.5-65.4h19.6l14.8 44.3z"/><path d="m0 3.7h85v85h-85z"/><g fill="#fff"><path d="m14.4 18.6h-6.5v-4.3h17.6v4.3h-6.5v16.9h-4.6z"/><path d="m25.8 25c0-6.1 4.6-11.1 11.1-11.1 4 0 6.4 1.3 8.4 3.3l-3 3.4c-1.6-1.5-3.3-2.4-5.4-2.4-3.6 0-6.2 3-6.2 6.6v.1c0 3.6 2.5 6.7 6.2 6.7 2.4 0 3.9-1 5.6-2.5l3 3c-2.2 2.3-4.6 3.8-8.7 3.8-6.4 0-11-4.8-11-10.9"/><path d="m7.9 72.8h31.9v5.3h-31.9z"/></g></svg>