<svg enable-background="new 0 0 70 70" height="70" viewBox="0 0 70 70" width="70" xmlns="http://www.w3.org/2000/svg" xmlns:xlink="http://www.w3.org/1999/xlink"><linearGradient id="a"><stop offset="0" stop-color="#905cfb"/><stop offset=".06772543" stop-color="#776cf9"/><stop offset=".1729" stop-color="#5681f7"/><stop offset=".2865" stop-color="#3b92f5"/><stop offset=".4097" stop-color="#269ff4"/><stop offset=".5474" stop-color="#17a9f3"/><stop offset=".7111" stop-color="#0faef2"/><stop offset=".9677" stop-color="#0cb0f2"/></linearGradient><linearGradient id="b" gradientUnits="userSpaceOnUse" x1="1.7738" x2="40.1662" xlink:href="#a" y1="31.2729" y2="31.2729"/><linearGradient id="c" gradientUnits="userSpaceOnUse" x1="5.3113" x2="69.2278" xlink:href="#a" y1="9.6691" y2="43.8664"/><linearGradient id="d" gradientUnits="userSpaceOnUse" x1="-19.2836" x2="55.9833" y1="70.8198" y2="33.1863"><stop offset="0" stop-color="#3bea62"/><stop offset=".117" stop-color="#31de80"/><stop offset=".3025" stop-color="#24cea8"/><stop offset=".4844" stop-color="#1ac1c9"/><stop offset=".6592" stop-color="#12b7df"/><stop offset=".8238" stop-color="#0eb2ed"/><stop offset=".9677" stop-color="#0cb0f2"/></linearGradient><linearGradient id="e" gradientUnits="userSpaceOnUse" x1="38.9439" x2="5.4232" y1="5.8503" y2="77.5093"><stop offset="0" stop-color="#3bea62"/><stop offset=".0939775" stop-color="#2fdb87"/><stop offset=".196" stop-color="#24cea8"/><stop offset=".3063" stop-color="#1bc3c3"/><stop offset=".4259" stop-color="#14bad8"/><stop offset=".5596" stop-color="#10b5e7"/><stop offset=".7185" stop-color="#0db1ef"/><stop offset=".9677" stop-color="#0cb0f2"/></linearGradient><path d="m39.7 47.9-6.1-34c-.4-2.4-1.2-4.8-2.7-7.1-2-3.2-5.2-5.4-8.8-6.3-14.2-3.4-24.7 10.8-18.5 23.4l14.8 31.7c.4 1 1 2 1.7 2.9 1.2 1.6 2.8 2.8 4.7 3.4 9.6 3 17.3-5.5 14.9-14z" fill="url(#b)"/><path d="m67.4 26.5c-1.4-2.2-3.4-3.9-5.7-4.9l-36.2-19.9c-1-.5-2.1-1-3.3-1.3-15.5-3.6-26.6 13.4-16.7 26.6 1.5 2 3.6 3.6 6 4.5l36.5 16.4c.8.5 1.6.8 2.5 1.1 14 4.4 24.6-10.4 16.9-22.5z" fill="url(#c)"/><path d="m67.4 26.5c-1.8-2.8-4.6-4.8-7.9-5.6-3.5-.8-6.8-.5-9.6.7l-38.5 14.5s-.2.1-.6.4c-9.9 3.9-14.8 16.8-6.8 27.5 1.8 2.4 4.3 4.2 7.1 5 5.3 1.6 10.1 1 14-1.1h.1l37.6-20.1s0 0 .1-.1c6.6-3.8 9.7-13.1 4.5-21.2z" fill="url(#d)"/><path d="m50.3 12.8c1.2-2.7 1.1-6-.9-9-1.1-1.8-2.9-3-4.9-3.5-4.5-1.1-8.3 1-10.1 4.2l-30.9 37.5v.1c-4.4 5.8-5.1 14.4.5 21.9 1.8 2.4 4.3 4.2 7.1 5 10.5 3.3 19.3-2.5 22.1-10.8z" fill="url(#e)"/><path d="m13.4 13.4h43.2v43.2h-43.2z"/><g fill="#fff"><path d="m17.5 48.5h16.2v2.7h-16.2z"/><path d="m22.9 22.7h-5.4v-3.6h14.8v3.6h-5.5v14.3h-3.9z"/><path d="m32.5 28.1c0-5.1 3.8-9.3 9.3-9.3 3.4 0 5.4 1.1 7.1 2.8l-2.5 2.9c-1.4-1.3-2.8-2-4.6-2-3 0-5.2 2.5-5.2 5.6v-.1c0 3.1 2.1 5.6 5.2 5.6 2 0 3.3-.8 4.7-2.1l2.5 2.5c-1.8 2-3.9 3.2-7.3 3.2-5.3.1-9.2-4-9.2-9.1"/></g></svg>