<svg xmlns="http://www.w3.org/2000/svg" width="273" height="64" fill="none" viewBox="0 0 273 64">
  <defs>
    <linearGradient id="a" x1="7.67061" x2="61.125" y1="64.3921" y2="39.6093" gradientUnits="userSpaceOnUse">
      <stop offset=".1" stop-color="#3BEA62"/>
      <stop offset=".59" stop-color="#6B57FF"/>
    </linearGradient>
    <linearGradient id="b" x1="59.9324" x2="1.33688" y1="59.6755" y2="1.07996" gradientUnits="userSpaceOnUse">
      <stop offset=".26" stop-color="#6B57FF"/>
      <stop offset=".65" stop-color="#07C3F2"/>
    </linearGradient>
  </defs>
  <path fill="#000" d="M106.84 17.02H83v4.82h9.29v25.15h5.31V21.84h9.25v-4.82h-.01Zm15.01 8.99c-1.68-.97-3.6-1.46-5.76-1.46-2.16 0-4.03.5-5.77 1.49-1.73.99-3.1 2.36-4.1 4.1-1 1.74-1.5 3.69-1.5 5.84s.5 4.17 1.49 5.93c.99 1.75 2.35 3.12 4.07 4.11 1.72.99 3.66 1.48 5.81 1.48 1.7 0 3.25-.26 4.64-.79 1.4-.53 2.59-1.28 3.57-2.25s1.73-2.13 2.25-3.49h-5.5c-.56.74-1.25 1.32-2.1 1.73-.84.41-1.79.62-2.85.62-1.2 0-2.27-.29-3.22-.88-.95-.58-1.69-1.4-2.23-2.45-.43-.83-.68-1.76-.78-2.77h17.29V36c0-2.23-.47-4.21-1.4-5.94-.93-1.73-2.24-3.08-3.93-4.06l.02.01Zm-11.87 7.83c.13-.72.34-1.4.67-2.02.54-1.02 1.28-1.82 2.23-2.4.95-.58 2.02-.87 3.22-.87 1.2 0 2.26.3 3.18.9.92.6 1.63 1.43 2.13 2.49.28.59.47 1.22.59 1.89h-12.02v.01Zm37.4-5.46c-.71-1.09-1.62-1.97-2.73-2.63-1.36-.8-2.95-1.2-4.76-1.2-1.96 0-3.7.49-5.23 1.47-1.53.98-2.74 2.34-3.61 4.09-.87 1.75-1.31 3.72-1.31 5.92 0 2.2.44 4.17 1.31 5.92.87 1.75 2.08 3.11 3.62 4.09s3.28 1.47 5.22 1.47c1.81 0 3.4-.4 4.76-1.2 1.11-.65 2.02-1.54 2.73-2.63v3.31h4.97V25.07h-4.97v3.31Zm-.81 11.27c-.53 1.05-1.26 1.87-2.21 2.46-.94.59-2.03.89-3.25.89-1.22 0-2.27-.29-3.21-.88-.94-.58-1.67-1.4-2.19-2.46s-.78-2.27-.78-3.64.26-2.58.78-3.63c.52-1.05 1.25-1.87 2.19-2.46.94-.59 2.01-.89 3.21-.89 1.2 0 2.31.3 3.25.89.94.59 1.68 1.41 2.21 2.46s.79 2.26.79 3.63-.26 2.58-.79 3.63Zm40.08-14.04c-1.18-.71-2.54-1.06-4.1-1.06-1.68 0-3.15.4-4.41 1.2-1.14.73-2.03 1.74-2.7 3.01l-.06-.15c-.61-1.3-1.49-2.3-2.62-3.01-1.13-.71-2.48-1.06-4.03-1.06-1.55 0-2.96.39-4.12 1.17-.98.66-1.76 1.57-2.37 2.71v-3.36h-4.9v21.92h5.05V34.27c0-1.07.19-2 .58-2.8.39-.8.93-1.41 1.65-1.84.71-.43 1.55-.64 2.5-.64.88 0 1.64.19 2.28.58.63.39 1.12.93 1.46 1.65.33.71.5 1.56.5 2.55V47h4.94V34.29c0-1.07.2-2 .59-2.8.39-.8.95-1.41 1.67-1.84.72-.43 1.55-.64 2.49-.64.88 0 1.64.19 2.27.58.63.39 1.11.93 1.44 1.65.33.71.5 1.56.5 2.55v13.23h5.05V33.19c0-1.73-.32-3.24-.95-4.54-.64-1.3-1.54-2.3-2.72-3.01l.01-.03Zm17.72-2.89c1.49-.92 3.16-1.38 5-1.38 1.36 0 2.61.23 3.78.68 1.16.46 2.16 1.11 3 1.97.83.86 1.46 1.86 1.87 3h5.61c-.48-2.05-1.39-3.88-2.73-5.47-1.34-1.59-3-2.83-5-3.7-2-.88-4.19-1.32-6.57-1.32-2.85 0-5.43.67-7.74 2.02-2.3 1.35-4.12 3.2-5.44 5.56-1.32 2.36-1.98 5-1.98 7.91s.66 5.55 1.98 7.91c1.32 2.36 3.13 4.22 5.44 5.56 2.3 1.35 4.88 2.02 7.74 2.02 2.38 0 4.57-.44 6.57-1.32 2-.88 3.66-2.11 5-3.7 1.34-1.59 2.24-3.41 2.73-5.47h-5.61c-.41 1.14-1.04 2.14-1.87 3-.83.86-1.83 1.51-3 1.97-1.16.46-2.42.68-3.78.68-1.84 0-3.51-.46-5-1.38-1.49-.92-2.66-2.19-3.5-3.81-.84-1.62-1.26-3.44-1.26-5.47s.42-3.85 1.26-5.47c.84-1.62 2.01-2.89 3.5-3.81v.02Zm22.51.03h5.76v-5.01h-5.76v5.01Zm.36 24.23h5.05V25.06h-5.05v21.92Zm16.8-27.27h-4.71v3.55c0 .53-.17.96-.49 1.29-.33.34-.76.5-1.31.5h-2.4l-.02 4.39h3.85l.02 11.71c0 1.11.26 2.11.78 3 .52.88 1.25 1.58 2.18 2.08.93.5 1.99.75 3.16.75h4.73v-4.39h-3.72c-.6 0-1.1-.2-1.49-.59-.39-.39-.59-.89-.59-1.49l-.02-11.06h5.82l.02-4.39h-5.82v-5.35h.01Zm23.49 5.35v10.85c0 1.03-.21 1.94-.63 2.75-.42.81-1.02 1.43-1.79 1.88-.77.45-1.66.67-2.65.67-.93 0-1.73-.2-2.4-.59-.67-.39-1.18-.96-1.54-1.7-.36-.74-.54-1.64-.54-2.7V25.05h-5.03v11.92c0 1.8.33 3.34.98 4.63.66 1.29 1.58 2.27 2.76 2.94 1.18.67 2.56 1.01 4.13 1.01 1.68 0 3.15-.39 4.4-1.16.95-.59 1.73-1.37 2.34-2.34l-.04 3.15c0 .9-.18 1.66-.55 2.29-.36.63-.88 1.11-1.56 1.43-.68.32-1.49.49-2.45.49h-7.88v4.39h8.2c1.88 0 3.52-.34 4.92-1.02 1.4-.68 2.48-1.64 3.23-2.88.76-1.24 1.13-2.7 1.13-4.39V25.03h-5.05l.02.03Z"/>
  <path fill="#3BEA62" d="M6 47.5501v12.2586c0 2.3038 1.8869 4.1612 4.1906 4.1244l11.043-.1763c1.1812-.0187 2.2975-.5431 3.0662-1.44l32.7065-38.1583c.6406-.7475.9931-1.7.9931-2.6843V10.125c0-2.27815-1.8469-4.125-4.125-4.125H42.8715c-1.1894 0-2.3213.51375-3.1044 1.40874L7.02062 44.8333C6.3625 45.5851 6 46.5501 6 47.5495v.0006Z"/>
  <path fill="url(#a)" d="M6 49.0148v10.8618c0 2.2781 1.84685 4.1249 4.125 4.1249h12.5655c.2 0 .3999-.0144.5981-.0437l37.1845-5.4481C62.4987 58.2128 64 56.4754 64 54.4285V39.0312c0-2.2787-1.8475-4.1256-4.1262-4.1249l-18.5042.0043c-.4256 0-.8487.0663-1.2537.1956L8.87063 45.0849c-1.70935.5462-2.86996 2.135-2.86996 3.9293L6 49.0148Z"/>
  <path fill="url(#b)" d="M0 4.12558V38.2527c0 1.6581.993118 3.1549 2.5206 3.7999l37.4208 15.7973c.5181.2188 1.0756.3294 1.6381.3244l18.3286-.15c2.2649-.0187 4.0912-1.86 4.0912-4.1249V36.2339c0-.8056-.2356-1.5931-.6781-2.2662L42.2126 1.85873C41.4502.698116 40.1546 0 38.7658 0H4.12495C1.84685 0 0 1.84685 0 4.12495v.00063Z"/>
  <path fill="#000" d="M51.9995 12H12v39.9995h39.9995V12Z"/>
  <path fill="#fff" d="M30.043 28.4555c.6643 1.1825 1.5787 2.1118 2.7437 2.7868v-.0025c1.165.6756 2.4656 1.0131 3.9018 1.0131 1.215 0 2.3294-.225 3.3444-.675 1.0144-.45 1.86-1.0806 2.5349-1.8918.675-.8113 1.1269-1.7419 1.3557-2.7925h-3.0657c-.2.5431-.498 1.0206-.8949 1.4313-.3963.4112-.8732.7275-1.4307.9487-.5574.2219-1.1649.3325-1.8224.3325-.8863 0-1.6869-.2213-2.4013-.6644-.7143-.4431-1.2737-1.0518-1.6774-1.8275-.4038-.7749-.6056-1.6487-.6056-2.6205 0-.9719.2018-1.845.6056-2.6206.4037-.775.9631-1.3844 1.6774-1.8275.715-.4431 1.515-.6644 2.4013-.6644.6575 0 1.265.1113 1.8224.3325.5569.2219 1.0344.5381 1.4307.9488.3969.4112.6949.8881.8949 1.4312h3.0657c-.2288-1.0506-.6807-1.9812-1.3557-2.7925-.6756-.8112-1.5205-1.4418-2.5349-1.8918-1.015-.45-2.1294-.675-3.3444-.675-1.4368 0-2.7374.3381-3.9018 1.0131-1.1644.675-2.0794 1.6043-2.7437 2.7868-.6644 1.1825-.9968 2.5025-.9968 3.9606s.3324 2.7781.9968 3.9606Z"/>
  <path fill="#fff" d="M16.0006 16.9912h12.0367v2.6369h-4.5449v12.3692h-2.9262V19.6281H16l.0006-2.6369Z"/>
  <path fill="#fff" d="M32.9988 43.9971H16.999v2.9999h15.9998v-2.9999Z"/>
</svg>
