<?xml version="1.0" encoding="utf-8"?>
<!-- Generator: Adobe Illustrator 19.1.0, SVG Export Plug-In . SVG Version: 6.00 Build 0)  -->
<svg version="1.1" id="Layer_1" xmlns="http://www.w3.org/2000/svg" xmlns:xlink="http://www.w3.org/1999/xlink" x="0px" y="0px"
	 width="599.6px" height="108.5px" viewBox="0 0 599.6 108.5" style="enable-background:new 0 0 599.6 108.5;" xml:space="preserve"
	>
<g>
	<g>
		<path d="M130.3,20.9h-25.9V3.6h70.5v17.3H149v67.8h-18.7V20.9z"/>
		<path d="M155.5,56.5v-0.2c0-18.6,13.2-33.9,32.2-33.9c21.7,0,31.7,16.9,31.7,35.4c0,1.5-0.1,3.2-0.2,4.9
			h-45.3c1.8,8.4,7.7,12.8,15.9,12.8c6.2,0,10.7-1.9,15.8-6.7l10.6,9.4c-6.1,7.5-14.8,12.2-26.6,12.2
			C170,90.2,155.5,76.4,155.5,56.5z M201.5,51c-1.1-8.3-6-13.9-13.7-13.9c-7.7,0-12.6,5.5-14.1,13.9H201.5z"/>
		<path d="M220.7,70v-0.2c0-14.2,10.8-20.8,26.2-20.8c6.6,0,11.3,1.1,15.9,2.7v-1.1c0-7.7-4.7-11.9-14-11.9
			c-7,0-12,1.3-18,3.5l-4.6-14.1c7.2-3.2,14.2-5.2,25.3-5.2c10.1,0,17.4,2.7,22,7.3c4.9,4.9,7,12,7,20.8v37.8h-17.9v-7
			c-4.5,5-10.7,8.3-19.7,8.3C230.7,89.9,220.7,82.9,220.7,70z M263.1,65.7v-3.3c-3.2-1.5-7.3-2.4-11.8-2.4c-7.9,0-12.8,3.2-12.8,9
			v0.2c0,5,4.1,7.9,10.1,7.9C257.2,77.2,263.1,72.4,263.1,65.7z"/>
		<path d="M284.3,23.6h18.5v9.2c4.3-5.5,9.8-10.4,19.2-10.4c8.5,0,14.9,3.8,18.3,10.3
			c5.7-6.7,12.5-10.3,21.4-10.3c13.7,0,22,8.3,22,23.9v42.4h-18.5V52.4c0-8.7-3.9-13.2-10.8-13.2s-11.2,4.5-11.2,13.2v36.3h-18.5
			V52.4c0-8.7-3.9-13.2-10.8-13.2s-11.2,4.5-11.2,13.2v36.3h-18.5V23.6z"/>
		<path d="M385.8,46.4v-0.2c0-24.2,18.2-44,44.3-44c16,0,25.6,5.3,33.5,13.1L451.8,29
			c-6.6-6-13.2-9.6-21.7-9.6c-14.3,0-24.7,11.9-24.7,26.5v0.2c0,14.6,10.1,26.7,24.7,26.7c9.7,0,15.7-3.9,22.4-10l11.9,12
			c-8.7,9.4-18.5,15.2-34.9,15.2C404.4,90.2,385.8,70.8,385.8,46.4z"/>
		<path d="M466.2,0h19.4v16.4h-19.4V0z M466.7,23.6h18.5v65.1h-18.5V23.6z"/>
		<path d="M496.1,70.2V39.4h-7.8V23.6h7.8V6.9h18.5v16.6h15.3v15.8h-15.3v27.8c0,4.3,1.8,6.3,6,6.3
			c3.4,0,6.4-0.9,9.1-2.3V86c-3.9,2.3-8.4,3.8-14.6,3.8C503.8,89.8,496.1,85.3,496.1,70.2z"/>
		<path d="M580.4,23.6h19.2l-25,66.7c-5,13.2-10.3,18.2-21.4,18.2c-6.7,0-11.7-1.7-16.4-4.5l6.2-13.4
			c2.4,1.5,5.5,2.6,7.9,2.6c3.2,0,4.9-1,6.4-4.3l-25.5-65.4h19.6l14.8,44.3L580.4,23.6z"/>
	</g>
	<g>
		<rect x="0" y="3.7" style="fill:#000000;" width="85" height="85"/>
		<polygon style="fill:#FFFFFF;" points="14.4,18.6 7.9,18.6 7.9,14.3 25.5,14.3 25.5,18.6 19,18.6 19,35.5 14.4,35.5 		"/>
		<path style="fill:#FFFFFF;" d="M25.8,25L25.8,25c0-6.1,4.6-11.1,11.1-11.1c4,0,6.4,1.3,8.4,3.3l-3,3.4c-1.6-1.5-3.3-2.4-5.4-2.4
			c-3.6,0-6.2,3-6.2,6.6v0.1c0,3.6,2.5,6.7,6.2,6.7c2.4,0,3.9-1,5.6-2.5l3,3c-2.2,2.3-4.6,3.8-8.7,3.8C30.4,35.9,25.8,31.1,25.8,25"
			/>
		<rect x="7.9" y="72.8" style="fill:#FFFFFF;" width="31.9" height="5.3"/>
	</g>
</g>
</svg>
