<svg xmlns="http://www.w3.org/2000/svg" width="128" height="128" fill="none" viewBox="0 0 128 128">
  <defs>
    <linearGradient id="a" x1="119.865" x2="2.67374" y1="119.351" y2="2.15875" gradientUnits="userSpaceOnUse">
      <stop offset=".29" stop-color="#6B57FF"/>
      <stop offset=".89" stop-color="#07C3F2"/>
    </linearGradient>
    <linearGradient id="b" x1="15.3413" x2="122.251" y1="128.785" y2="79.2188" gradientUnits="userSpaceOnUse">
      <stop offset=".3" stop-color="#FF45ED"/>
      <stop offset=".84" stop-color="#6B57FF"/>
    </linearGradient>
  </defs>
  <path fill="url(#a)" d="M0 8.25v68.255c0 3.3162 1.98625 6.31 5.04125 7.6L79.8838 115.7c1.0362.437 2.1512.659 3.2762.649l36.657-.3c4.53-.038 8.183-3.72 8.183-8.25V72.4675c0-1.6113-.471-3.1863-1.356-4.5325L84.4262 3.71875C82.9 1.3975 80.31 0 77.5325 0H8.25C3.69375 0 0 3.69375 0 8.25Z"/>
  <path fill="url(#b)" d="M12 98.03v21.724c0 4.556 3.6937 8.25 8.25 8.25h25.1312c.4 0 .8-.029 1.1963-.088l74.3705-10.896c4.051-.594 7.053-4.069 7.053-8.162V78.0625c0-4.5575-3.695-8.2512-8.252-8.25l-37.009.0088c-.8513 0-1.6975.1325-2.5075.3912L17.7412 90.17c-3.4187 1.0925-5.7399 4.27-5.7399 7.8588L12 98.03Z"/>
  <path fill="#FF45ED" d="M12 95.1v24.518c0 4.607 3.7738 8.322 8.3813 8.248l21.6174.134c2.3625-.038 5.0638-1.572 6.6013-3.366l65.414-76.3165c1.281-1.495 1.986-3.4 1.986-5.3688V20.25c0-4.5563-3.694-8.25-8.25-8.25H85.7438c-2.3788 0-4.6425 1.0275-6.2088 2.8175l-65.4937 74.85C12.725 91.1713 12 93.1012 12 95.1Z"/>
  <path fill="#000" d="M104 24H24v80h80V24Z"/>
  <path fill="#fff" d="M66 88H34v6h32v-6Z"/>
  <path fill="#fff" d="M34.0254 33.9844h11.4262c2.8438 0 5.3913.6425 7.6425 1.9287 2.2513 1.2863 4.0125 3.0688 5.2838 5.3488 1.2725 2.28 1.9075 4.855 1.9075 7.7287 0 2.8738-.6363 5.4488-1.9075 7.7288-1.2725 2.28-3.0338 4.0625-5.2838 5.3487-2.2512 1.2863-4.7987 1.9288-7.6425 1.9288H34.0254V33.9844Zm16.0562 23.7525c1.3438-.8 2.38-1.9475 3.1088-3.4413.7287-1.4937 1.0937-3.2612 1.0937-5.3062 0-2.045-.365-3.8125-1.0937-5.3063-.7288-1.4937-1.765-2.64-3.1088-3.4412-1.3437-.8-2.9087-1.2-4.695-1.2h-5.51v19.8937h5.51c1.7863 0 3.3513-.4 4.695-1.2v.0013Z"/>
  <path fill="#fff" d="M65.4095 33.9844h12.8837c2.115 0 3.9688.3862 5.5625 1.1575 1.5938.7712 2.8225 1.8575 3.6875 3.2587.865 1.4013 1.2975 3.0225 1.2975 4.8663 0 1.8437-.44 3.5162-1.3188 4.9312-.8787 1.415-2.1262 2.5113-3.7412 3.2913-1.615.7787-3.5012 1.1687-5.66 1.1687h-6.86v11.34h-5.8525V33.9856l.0013-.0012Zm15.0812 13.26c.7362-.365 1.3038-.8863 1.7038-1.565.4-.6788.5999-1.475.5999-2.39s-.1999-1.6825-.5999-2.3475-.9688-1.1788-1.7038-1.5438c-.7363-.365-1.5975-.5462-2.5837-.5462h-6.6463v8.94h6.6463c.9862 0 1.8474-.1825 2.5837-.5463v-.0012Z"/>
</svg>
