<svg xmlns="http://www.w3.org/2000/svg" width="244" height="64" fill="none" viewBox="0 0 244 64">
  <defs>
    <linearGradient id="a" x1="59.9384" x2="1.34273" y1="59.6756" y2="1.07937" gradientUnits="userSpaceOnUse">
      <stop offset=".29" stop-color="#6B57FF"/>
      <stop offset=".89" stop-color="#07C3F2"/>
    </linearGradient>
    <linearGradient id="b" x1="7.67649" x2="61.1315" y1="64.3925" y2="39.6094" gradientUnits="userSpaceOnUse">
      <stop offset=".3" stop-color="#FF45ED"/>
      <stop offset=".84" stop-color="#6B57FF"/>
    </linearGradient>
  </defs>
  <path fill="#000" d="M100.626 28.32c-.7101-1.07-1.6101-1.95-2.7101-2.59-1.36-.8-2.95-1.2-4.76-1.2-1.96 0-3.7.49-5.23 1.47-1.53.98-2.74 2.34-3.61 4.09-.87 1.75-1.31 3.72-1.31 5.92 0 2.2.44 4.17 1.31 5.92.87 1.75 2.08 3.11 3.62 4.09s3.28 1.47 5.22 1.47c1.81 0 3.4-.4 4.76-1.2 1.1-.65 2-1.52 2.7101-2.59v3.28h5.05V17.02h-5.05v11.32-.02Zm-.7901 11.31c-.53 1.05-1.26 1.87-2.21 2.46-.94.59-2.03.89-3.25.89-1.22 0-2.27-.29-3.21-.88-.94-.58-1.67-1.4-2.19-2.46s-.78-2.27-.78-3.64.26-2.58.78-3.63c.52-1.05 1.25-1.87 2.19-2.46.94-.59 2.01-.89 3.21-.89 1.2 0 2.31.3 3.25.89.94.59 1.68 1.41 2.21 2.46.5301 1.05.7901 2.26.7901 3.63s-.26 2.58-.7901 3.63Zm26.9101-13.6c-1.75-1-3.71-1.5-5.86-1.5-2.15 0-4.13.5-5.9 1.5-1.76 1-3.14 2.37-4.14 4.12-1 1.75-1.5 3.7-1.5 5.85 0 2.15.5 4.11 1.51 5.85 1.01 1.75 2.39 3.12 4.14 4.12 1.75 1 3.71 1.5 5.86 1.5 2.15 0 4.13-.5 5.89-1.5 1.76-1 3.13-2.37 4.14-4.12 1.01-1.75 1.51-3.7 1.51-5.85 0-2.15-.5-4.11-1.51-5.85-1.01-1.75-2.39-3.12-4.14-4.12Zm-.39 13.59c-.52 1.06-1.26 1.88-2.21 2.46-.95.58-2.05.88-3.27.88-1.22 0-2.32-.29-3.26-.88-.95-.58-1.68-1.41-2.2-2.46-.52-1.06-.78-2.26-.78-3.62 0-1.36.26-2.58.78-3.64s1.25-1.88 2.2-2.46c.95-.58 2.04-.88 3.26-.88 1.22 0 2.31.3 3.26.89.95.59 1.69 1.41 2.21 2.46.53 1.05.79 2.26.79 3.63s-.26 2.56-.78 3.62Zm15.88-19.92h-4.71v3.55c0 .53-.16.96-.49 1.29-.33.33-.76.5-1.31.5h-2.4l-.02 4.39h3.85l.02 11.71c0 1.11.26 2.11.78 3 .52.88 1.25 1.58 2.18 2.08.93.5 1.99.75 3.16.75h4.73v-4.39h-3.72c-.6 0-1.09-.2-1.49-.59-.39-.39-.59-.89-.59-1.49l-.02-11.06h5.82l.02-4.39h-5.82V19.7h.01Zm27.47-1.57c-1.56-.76-3.36-1.13-5.42-1.13h-12.71v29.96h5.33v-11.6h7.21c2.1 0 3.93-.39 5.51-1.16 1.58-.77 2.8-1.85 3.66-3.24.86-1.39 1.29-3 1.29-4.83s-.42-3.41-1.27-4.79c-.85-1.38-2.05-2.45-3.61-3.21h.01Zm-1.26 10.52c-.42.71-1.01 1.25-1.78 1.64-.76.39-1.67.58-2.71.58h-7.06v-9.35h7.06c1.04 0 1.94.19 2.71.57.76.38 1.35.92 1.78 1.62.42.7.63 1.52.63 2.46s-.21 1.79-.63 2.49v-.01Zm24.4-2.66c-1.68-.97-3.6-1.46-5.76-1.46-2.16 0-4.03.5-5.77 1.49-1.73.99-3.1 2.36-4.1 4.1-1 1.74-1.5 3.69-1.5 5.84s.5 4.17 1.49 5.93c.99 1.75 2.35 3.12 4.07 4.11 1.72.98 3.66 1.48 5.81 1.48 1.7 0 3.25-.26 4.64-.79 1.4-.53 2.59-1.28 3.57-2.25s1.73-2.13 2.25-3.49h-5.5c-.56.74-1.26 1.32-2.1 1.73-.84.41-1.79.62-2.85.62-1.2 0-2.27-.29-3.22-.88-.95-.58-1.69-1.4-2.23-2.45-.43-.83-.68-1.76-.78-2.77h17.29v-1.22c0-2.23-.47-4.21-1.4-5.94-.93-1.73-2.24-3.08-3.93-4.06l.02.01Zm-11.87 7.83c.13-.72.34-1.4.67-2.02.54-1.02 1.28-1.82 2.23-2.4.95-.58 2.02-.87 3.22-.87 1.2 0 2.26.3 3.18.9.92.6 1.63 1.43 2.13 2.49.28.59.47 1.22.59 1.89h-12.02v.01Zm34.14-8.35c-1.33-.63-2.88-.94-4.67-.94s-3.24.3-4.57.89c-1.33.59-2.4 1.41-3.19 2.44s-1.27 2.2-1.42 3.5h4.99c.07-.51.28-.97.63-1.38.35-.41.82-.73 1.42-.97s1.29-.36 2.08-.36 1.49.13 2.08.4c.58.26 1.03.64 1.35 1.13.31.49.47 1.07.47 1.74v.44c-.06.29-.15.54-.3.72-.23.29-.54.45-.92.49l-5.42.62c-1.37.14-2.6.54-3.68 1.19-1.08.65-1.93 1.47-2.55 2.47-.61 1-.92 2.1-.92 3.3 0 1.2.32 2.3.95 3.26.63.96 1.51 1.72 2.62 2.26 1.11.54 2.38.81 3.79.81 1.58 0 2.94-.35 4.08-1.04 1.01-.62 1.8-1.49 2.39-2.6v3.13h4.99V32.44c0-1.61-.37-3.02-1.1-4.22-.73-1.2-1.77-2.11-3.09-2.74l-.01-.01Zm-.84 13.3c0 .96-.2 1.79-.6 2.51-.4.72-.97 1.28-1.71 1.67-.74.39-1.59.59-2.55.59-.74 0-1.4-.12-1.97-.36-.57-.24-1.01-.59-1.33-1.05-.31-.46-.47-.98-.47-1.56 0-.58.14-1.09.41-1.55.27-.46.65-.85 1.13-1.15.48-.3 1.04-.48 1.67-.56l5.42-.63v2.09Zm20.38-3.49 8.88-10.23h-5.86l-8.56 9.76V17h-5.05v29.96h5.05V36.09l8.67 10.87h6.14l-9.27-11.69v.01Z"/>
  <path fill="url(#a)" d="M.00586 4.125v34.1275c0 1.6581.993124 3.155 2.52062 3.8L39.9477 57.85c.5182.2187 1.0757.3294 1.6382.3244l18.3287-.15c2.265-.0188 4.0913-1.86 4.0913-4.125V36.2337c0-.8056-.2357-1.5931-.6782-2.2662L42.219 1.85938C41.4559.69875 40.1609 0 38.7721 0H4.13086c-2.27813 0-4.125 1.84687-4.125 4.125Z"/>
  <path fill="url(#b)" d="M6.00586 49.015v10.8619c0 2.2781 1.84687 4.125 4.12504 4.125h12.5656c.2 0 .4-.0144.5981-.0438l37.185-5.4481c2.0256-.2969 3.5269-2.0344 3.5269-4.0812V39.0312c0-2.2787-1.8475-4.1256-4.1263-4.1249l-18.5043.0043c-.4257 0-.8488.0663-1.2538.1957L8.87648 45.085c-1.70937.5463-2.87 2.135-2.87 3.9294l-.00062.0006Z"/>
  <path fill="#FF45ED" d="M6.00586 47.55v12.2588c0 2.3037 1.88687 4.1612 4.19064 4.1243L21.0052 64c1.1813-.0188 2.5319-.7862 3.3007-1.6831l32.7068-38.1581c.6407-.7475.9932-1.7001.9932-2.6844V10.125c0-2.27813-1.8469-4.125-4.125-4.125H42.8777c-1.1893 0-2.3212.51375-3.1043 1.40875L7.02648 44.8338c-.65812.7518-1.02062 1.7168-1.02062 2.7162Z"/>
  <path fill="#000" d="M52.0059 12h-40v40h40V12Z"/>
  <path fill="#fff" fill-rule="evenodd" d="M17.0127 16.9922h5.7131c1.4219 0 2.6956.3212 3.8213.9644 1.1256.6431 2.0062 1.5343 2.6418 2.6743.6363 1.14.9538 2.4275.9538 3.8644 0 1.4369-.3181 2.7244-.9538 3.8644-.6362 1.14-1.5168 2.0312-2.6418 2.6744-1.1257.6431-2.3994.9643-3.8213.9643h-5.7131V16.9922Zm8.0281 11.8762c.6719-.4 1.19-.9737 1.5544-1.7206.3644-.7469.5469-1.6306.5469-2.6531 0-1.0225-.1825-1.9063-.5469-2.6531-.3644-.7469-.8825-1.32-1.5544-1.7207-.6719-.4-1.4544-.6-2.3475-.6h-2.755v9.9469h2.755c.8931 0 1.6756-.1994 2.3475-.5994Z" clip-rule="evenodd"/>
  <path fill="#fff" d="M33 43.9984H17v3h16v-3Z"/>
  <path fill="#fff" fill-rule="evenodd" d="M39.1464 16.9922h-6.4418l-.0007 15.0069h2.9263v-5.67h3.43c1.0794 0 2.0225-.195 2.83-.5844.8075-.39 1.4312-.9381 1.8706-1.6456.4394-.7075.6594-1.5438.6594-2.4657 0-.9218-.2163-1.7325-.6488-2.4331-.4325-.7006-1.0468-1.2437-1.8437-1.6294-.7969-.3856-1.7238-.5787-2.7813-.5787Zm1.9507 5.8475c-.2.3394-.4838.6-.8519.7825-.3681.1819-.7988.2737-1.2919.2737h-3.3231v-4.47h3.3231c.4931 0 .9238.0907 1.2919.2732.3675.1825.6519.4393.8519.7718.2.3325.3.7163.3 1.1738 0 .4575-.1.8556-.3 1.195Z" clip-rule="evenodd"/>
</svg>
