<svg enable-background="new 0 0 70 70" height="70" viewBox="0 0 70 70" width="70" xmlns="http://www.w3.org/2000/svg" xmlns:xlink="http://www.w3.org/1999/xlink"><linearGradient id="a" gradientUnits="userSpaceOnUse" x1="10.8792" x2="47.0487" y1="26.7934" y2="63.7165"><stop offset=".09677419" stop-color="#e343e6"/><stop offset=".1083" stop-color="#d948e8"/><stop offset=".165" stop-color="#ac5def"/><stop offset=".2221" stop-color="#876ff5"/><stop offset=".279" stop-color="#6b7df9"/><stop offset=".3355" stop-color="#5687fc"/><stop offset=".3915" stop-color="#4a8dfe"/><stop offset=".4462" stop-color="#468fff"/><stop offset=".9355" stop-color="#00caff"/></linearGradient><linearGradient id="b" gradientUnits="userSpaceOnUse" x1="9.6599" x2="32.8432" y1="55.7461" y2="36.4268"><stop offset=".09677419" stop-color="#e343e6"/><stop offset=".1179" stop-color="#de45e7"/><stop offset=".2894" stop-color="#b951f0"/><stop offset=".4616" stop-color="#9d5af6"/><stop offset=".6325" stop-color="#8861fb"/><stop offset=".8019" stop-color="#7c65fe"/><stop offset=".9677" stop-color="#7866ff"/></linearGradient><linearGradient id="c" gradientUnits="userSpaceOnUse" x1="39.8553" x2="56.3556" y1="16.927" y2="50.6528"><stop offset=".1989" stop-color="#e343e6"/><stop offset=".3097" stop-color="#da46e8"/><stop offset=".4907" stop-color="#c24eee"/><stop offset=".7182" stop-color="#9a5bf7"/><stop offset=".8871" stop-color="#7866ff"/></linearGradient><linearGradient id="d" gradientUnits="userSpaceOnUse" x1="19.8748" x2="61.3281" y1="18.3053" y2="8.256"><stop offset=".09677419" stop-color="#e343e6"/><stop offset=".1748" stop-color="#da48e7"/><stop offset=".3025" stop-color="#c157ea"/><stop offset=".4641" stop-color="#996fee"/><stop offset=".653" stop-color="#6290f4"/><stop offset=".8627" stop-color="#1cb9fc"/><stop offset=".9409" stop-color="#00caff"/></linearGradient><path d="m44.3 20.9-39.1 9.4-5.2 10.5 14.1 29.2 35.2-6.1z" fill="url(#a)"/><path d="m65.8 31.5-27.6-17.5-38.2 8.1v18.7l62.6 12.5z" fill="url(#b)"/><path d="m70 31.3-30.4-31.3-23.8 7.2 7.8 23.7 39 22.4z" fill="url(#c)"/><path d="m64.5 19.6-2.7-19.6h-10.5-11.7l-23.8 7.2 7.8 23.7z" fill="url(#d)"/><path d="m13.4 13.4h43.2v43.2h-43.2z"/><g fill="#fff"><path d="m17.4 48.5h16.2v2.7h-16.2z"/><path d="m17.5 19.1h7c5.6 0 9.5 3.9 9.5 8.9v.1c0 5-3.9 8.9-9.5 8.9h-7zm3.9 3.6v10.8h3c3.2 0 5.4-2.2 5.4-5.3v-.1c0-3.2-2.2-5.4-5.4-5.4z"/><path d="m35.6 19.1h7.3c4.3 0 6.9 2.5 6.9 6.2v.1c0 4.1-3.2 6.3-7.2 6.3h-3v5.3h-3.9v-17.9zm7 9c2 0 3.1-1.2 3.1-2.7v-.1c0-1.8-1.2-2.7-3.2-2.7h-3v5.5z"/></g></svg>