<svg xmlns="http://www.w3.org/2000/svg" width="587" height="91" fill="none" viewBox="0 0 587 91">
  <path fill="#000" d="M0 4H85V89H0V4Z"/>
  <path fill="#fff" d="M10.543 73.2065H42.4715V78.528H10.543V73.2065Z"/>
  <path fill="#fff" d="M10.5713 14.6851H23.0589C33.12 14.6851 40.0875 21.5816 40.0875 30.6068V30.6919C40.0875 39.7029 33.1341 46.6988 23.0589 46.6988H10.5713V14.6851ZM17.6665 21.0424V40.3414H23.1157C24.3953 40.4168 25.6764 40.2217 26.8756 39.7689C28.0747 39.316 29.165 38.6156 30.0754 37.7133C30.9858 36.8109 31.6959 35.7268 32.1593 34.5317C32.6228 33.3366 32.8292 32.0573 32.7652 30.7771V30.6919C32.8304 29.4075 32.6254 28.1237 32.1635 26.9235C31.7016 25.7232 30.9931 24.6332 30.0837 23.7239C29.1744 22.8145 28.0843 22.106 26.8841 21.6441C25.6839 21.1822 24.4001 20.9772 23.1157 21.0424H17.6665Z"/>
  <path fill="#fff" d="M45.2247 14.6851H58.3509C66.0137 14.6851 70.6398 19.226 70.6398 25.782V25.9239C70.6398 33.3597 64.8643 37.2763 57.6555 37.2763H52.2915V46.9116H45.1963L45.2247 14.6851ZM57.8826 30.8764C61.416 30.8764 63.5588 28.762 63.5588 26.0091V25.9239C63.5588 22.7594 61.3592 21.0566 57.8826 21.0566H52.2915V30.8764H57.8826Z"/>
  <path fill="#000" d="M315.553 4.07031H350.362C370.683 4.07031 383.001 16.118 383.001 33.5155V33.7568C383.001 53.4815 367.661 63.6987 348.546 63.6987H334.356V89.2416H315.553V4.07031ZM349.142 47.0249C358.522 47.0249 364 41.4338 364 34.1257V33.8845C364 25.4837 358.153 20.9854 348.787 20.9854H334.299V47.0249H349.142Z"/>
  <path fill="#000" d="M383.483 57.0008V56.7595C383.483 38.1416 396.751 22.8159 415.738 22.8159C437.52 22.8159 447.51 39.731 447.51 58.2212C447.51 59.6402 447.383 61.3856 447.255 63.0885H401.845C403.676 71.4893 409.522 75.8599 417.795 75.8599C423.997 75.8599 428.509 73.9158 433.618 69.162L444.204 78.5277C438.116 86.0771 429.361 90.7032 417.554 90.7032C397.971 90.7174 383.483 77.0094 383.483 57.0008V57.0008ZM429.488 51.5374C428.396 43.2502 423.528 37.6592 415.738 37.6592C407.947 37.6592 403.08 43.1367 401.618 51.5374H429.488Z"/>
  <path fill="#000" d="M453.073 57.0008V56.7595C453.073 38.1416 466.327 22.8159 485.314 22.8159C507.096 22.8159 517.087 39.731 517.087 58.2212C517.087 59.6402 516.959 61.3856 516.845 63.0885H471.436C473.252 71.4893 479.099 75.8599 487.372 75.8599C493.587 75.8599 498.085 73.9158 503.194 69.162L513.78 78.5277C507.692 86.0771 498.937 90.7032 487.13 90.7032C467.505 90.7174 453.073 77.0094 453.073 57.0008V57.0008ZM499.065 51.5374C497.972 43.2502 493.105 37.6592 485.314 37.6592C477.523 37.6592 472.656 43.1367 471.209 51.5374H499.065Z"/>
  <path fill="#000" d="M523.131 0.380859H541.579V47.7629L563.29 24.0222H585.442L560.623 49.707L586.293 89.2558H564.88L548.206 62.4784L541.636 69.4175V89.2842H523.188L523.131 0.380859Z"/>
  <path fill="#000" d="M114.729 56.7596V56.5184C114.729 34.736 128.92 22.816 144.43 22.816C148.343 22.7363 152.219 23.5755 155.749 25.2661C159.278 26.9568 162.361 29.4518 164.751 32.5507V0.380859H183.199V89.2132H164.751V79.8475C160.253 85.9352 154.051 90.4336 144.43 90.4336C129.218 90.4762 114.729 78.542 114.729 56.7596V56.7596ZM165.006 56.7596V56.5184C165.006 45.6911 157.826 38.5107 149.184 38.5107C140.542 38.5107 133.234 45.6059 133.234 56.5184V56.7596C133.234 67.6011 140.542 74.7815 149.184 74.7815C157.826 74.7815 165.006 67.6011 165.006 56.7596V56.7596Z"/>
  <path fill="#000" d="M190.606 57.0008V56.7595C190.606 38.0281 205.705 22.8159 226.082 22.8159C246.46 22.8159 261.26 37.7727 261.26 56.5183V56.7595C261.26 75.5052 246.162 90.7173 225.784 90.7173C205.407 90.7173 190.606 75.7464 190.606 57.0008V57.0008ZM242.94 57.0008V56.7595C242.94 47.2093 236.001 38.6951 225.784 38.6951C215.198 38.6951 208.869 46.8546 208.869 56.4615V56.7028C208.869 66.3239 215.808 74.7247 226.025 74.7247C236.611 74.7814 242.94 66.6219 242.94 57.0008Z"/>
  <path fill="#000" d="M271.676 70.7659V39.8448H263.886V24.0224H271.676V7.34863H290.124V24.0224H305.464V39.8448H290.124V67.7149C290.124 71.9721 291.955 74.0439 296.098 74.0439C299.287 74.059 302.426 73.263 305.223 71.7308V86.5741C300.807 89.1791 295.746 90.4873 290.621 90.3487C279.268 90.3487 271.676 85.8503 271.676 70.7659V70.7659Z"/>
</svg>
