<svg xmlns="http://www.w3.org/2000/svg" width="64" height="64" fill="none" viewBox="0 0 64 64">
  <defs>
    <linearGradient id="a" x1="59.9325" x2="1.33687" y1="59.6756" y2="1.07937" gradientUnits="userSpaceOnUse">
      <stop offset=".29" stop-color="#6B57FF"/>
      <stop offset=".89" stop-color="#07C3F2"/>
    </linearGradient>
    <linearGradient id="b" x1="7.67063" x2="61.1256" y1="64.3925" y2="39.6094" gradientUnits="userSpaceOnUse">
      <stop offset=".3" stop-color="#FF45ED"/>
      <stop offset=".84" stop-color="#6B57FF"/>
    </linearGradient>
  </defs>
  <path fill="url(#a)" d="M0 4.125v34.1275c0 1.6581.993125 3.155 2.52063 3.8L39.9419 57.85c.5181.2187 1.0756.3294 1.6381.3244l18.3287-.15c2.265-.0188 4.0913-1.86 4.0913-4.125V36.2337c0-.8056-.2356-1.5931-.6781-2.2662L42.2131 1.85938C41.45.69875 40.155 0 38.7663 0H4.125C1.84687 0 0 1.84687 0 4.125Z"/>
  <path fill="url(#b)" d="M6 49.015v10.8619c0 2.2781 1.84687 4.125 4.125 4.125h12.5656c.2 0 .4-.0144.5981-.0438L60.4738 58.51c2.0256-.2969 3.5268-2.0344 3.5268-4.0812V39.0312c0-2.2787-1.8475-4.1256-4.1262-4.1249l-18.5044.0043c-.4256 0-.8488.0663-1.2538.1957L8.87062 45.085c-1.70937.5463-2.86999 2.135-2.86999 3.9294L6 49.015Z"/>
  <path fill="#FF45ED" d="M6 47.55v12.2588c0 2.3037 1.88688 4.1612 4.1906 4.1243L20.9994 64c1.1812-.0188 2.5318-.7862 3.3006-1.6831l32.7069-38.1581c.6406-.7475.9931-1.7001.9931-2.6844V10.125C58 7.84687 56.1531 6 53.875 6H42.8719c-1.1894 0-2.3213.51375-3.1044 1.40875L7.02063 44.8338C6.3625 45.5856 6 46.5506 6 47.55Z"/>
  <path fill="#000" d="M52 12H12v40h40V12Z"/>
  <path fill="#fff" d="M33 44H17v3h16v-3Z"/>
  <path fill="#fff" d="M17.0117 16.9922h5.7131c1.4219 0 2.6957.3212 3.8213.9644 1.1256.6431 2.0062 1.5343 2.6419 2.6743.6362 1.14.9537 2.4275.9537 3.8644 0 1.4369-.3181 2.7244-.9537 3.8644-.6363 1.14-1.5169 2.0312-2.6419 2.6744-1.1256.6431-2.3994.9643-3.8213.9643h-5.7131V16.9922Zm8.0281 11.8762c.6719-.4 1.19-.9737 1.5544-1.7206.3644-.7469.5469-1.6306.5469-2.6531 0-1.0225-.1825-1.9063-.5469-2.6531-.3644-.7469-.8825-1.32-1.5544-1.7207-.6718-.4-1.4543-.6-2.3475-.6h-2.755v9.9469h2.755c.8932 0 1.6757-.2 2.3475-.6v.0006Z"/>
  <path fill="#fff" d="M32.7038 16.9922h6.4418c1.0575 0 1.9844.1931 2.7813.5787.7969.3857 1.4112.9288 1.8437 1.6294.4325.7006.6488 1.5113.6488 2.4331 0 .9219-.22 1.7582-.6594 2.4657s-1.0631 1.2556-1.8706 1.6456c-.8075.3894-1.7506.5844-2.83.5844h-3.43v5.67h-2.9263V16.9928l.0007-.0006Zm7.5406 6.63c.3681-.1825.6518-.4431.8518-.7825.2-.3394.3-.7375.3-1.195s-.1-.8413-.3-1.1738c-.2-.3325-.4843-.5893-.8518-.7718-.3682-.1825-.7988-.2732-1.2919-.2732h-3.3231v4.47h3.3231c.4931 0 .9237-.0912 1.2919-.2731v-.0006Z"/>
</svg>
