<svg xmlns="http://www.w3.org/2000/svg" width="70" height="70" fill="none" viewBox="0 0 70 70">
  <defs>
    <linearGradient id="a" x1="7.04515" x2="40.6577" y1="35.8287" y2="70.1416" gradientUnits="userSpaceOnUse">
      <stop offset="0.09677" stop-color="#FF45ED"/>
      <stop offset="0.11279" stop-color="#F846EE"/>
      <stop offset="0.28355" stop-color="#AC4FF7"/>
      <stop offset="0.40559" stop-color="#7D55FD"/>
      <stop offset="0.46631" stop-color="#6B57FF"/>
      <stop offset="0.47984" stop-color="#655DFE"/>
      <stop offset="0.57179" stop-color="#4482FA"/>
      <stop offset="0.66409" stop-color="#299EF6"/>
      <stop offset="0.75577" stop-color="#16B3F4"/>
      <stop offset="0.84656" stop-color="#0BBFF2"/>
      <stop offset="0.93548" stop-color="#07C3F2"/>
    </linearGradient>
    <linearGradient id="b" x1="9.56323" x2="34.1086" y1="55.8265" y2="35.372" gradientUnits="userSpaceOnUse">
      <stop offset="0.0431" stop-color="#FF45ED"/>
      <stop offset="0.04638" stop-color="#FE45ED"/>
      <stop offset="0.20095" stop-color="#D14BF3"/>
      <stop offset="0.35681" stop-color="#AC4FF7"/>
      <stop offset="0.51187" stop-color="#9053FB"/>
      <stop offset="0.66587" stop-color="#7B55FD"/>
      <stop offset="0.8184" stop-color="#6F57FF"/>
      <stop offset="0.96774" stop-color="#6B57FF"/>
    </linearGradient>
    <linearGradient id="c" x1="39.8553" x2="56.3555" y1="16.927" y2="50.6527" gradientUnits="userSpaceOnUse">
      <stop offset="0.19892" stop-color="#FF45ED"/>
      <stop offset="0.28615" stop-color="#F646EE"/>
      <stop offset="0.42879" stop-color="#DD49F1"/>
      <stop offset="0.6091" stop-color="#B64EF6"/>
      <stop offset="0.81806" stop-color="#7F55FD"/>
      <stop offset="0.8871" stop-color="#6B57FF"/>
    </linearGradient>
    <linearGradient id="d" x1="19.8747" x2="61.328" y1="18.3053" y2="8.256" gradientUnits="userSpaceOnUse">
      <stop offset="0.09677" stop-color="#FF45ED"/>
      <stop offset="0.16991" stop-color="#F64AED"/>
      <stop offset="0.28959" stop-color="#DD56EE"/>
      <stop offset="0.44095" stop-color="#B56AEE"/>
      <stop offset="0.61804" stop-color="#7E87F0"/>
      <stop offset="0.81441" stop-color="#38AAF1"/>
      <stop offset="0.94086" stop-color="#07C3F2"/>
    </linearGradient>
  </defs>
  <path fill="url(#a)" d="M47.6963 50.342L0 40.8083L14.0848 70L49.2718 63.8662L47.6963 50.342Z"/>
  <path fill="url(#b)" d="M70 31.3298L50.6805 11.4088L0.00328125 22.0914L0 40.8082L62.6101 53.3229L70 31.3298Z"/>
  <path fill="url(#c)" d="M69.9999 31.3299L39.6167 0L15.8063 7.20945L23.6036 30.9208L62.61 53.323L69.9999 31.3299Z"/>
  <path fill="url(#d)" d="M64.5356 19.5754L61.7804 0H51.3373H39.6167L15.8063 7.20945L23.6036 30.9208L64.5356 19.5754Z"/>
  <g>
    <path fill="#000000" d="M56 14H14V56H56V14Z"/>
    <path fill="#FFFFFF" d="M34.4166 48.65H18.6666V51.3333H34.4166V48.65Z"/>
    <path fill="#FFFFFF" d="M19 19H25.1321C30.0736 19 33.4878 22.3918 33.4878 26.8167V26.8617C33.4878 31.2866 30.0736 34.7233 25.1321 34.7233H19V19ZM22.4592 22.1223V31.6011H25.1321C27.9623 31.6011 29.8715 29.6918 29.8715 26.9066V26.8617C29.9036 26.2309 29.803 25.6003 29.5762 25.0107C29.3494 24.4212 29.0014 23.8858 28.5547 23.4391C28.1081 22.9924 27.5727 22.6445 26.9831 22.4176C26.3935 22.1908 25.763 22.0902 25.1321 22.1223H22.4592Z"/>
    <path fill="#FFFFFF" d="M36.0267 19H42.4699C46.2312 19 48.5066 21.2303 48.5066 24.4511V24.4961C48.5066 28.1454 45.6681 30.0379 42.1315 30.0379H39.4958V34.7682H36.0267V19ZM42.2441 26.9517C43.9789 26.9517 44.9924 25.9157 44.9924 24.5637V24.5187C44.9924 22.9646 43.9114 22.1312 42.1765 22.1312H39.4958V26.9517H42.2441Z"/>
  </g>
</svg>
