<?xml version="1.0" encoding="utf-8"?>
<!-- Generator: Adobe Illustrator 19.1.0, SVG Export Plug-In . SVG Version: 6.00 Build 0)  -->
<svg version="1.1" xmlns="http://www.w3.org/2000/svg" xmlns:xlink="http://www.w3.org/1999/xlink" x="0px" y="0px"
	 width="548.3px" height="90.2px" viewBox="0 0 548.3 90.2" style="enable-background:new 0 0 548.3 90.2;" xml:space="preserve">
<g>
	<g>
		<rect x="0" y="3.7" style="fill:#000000;" width="85" height="85"/>
		<g>
			<path style="fill:#FFFFFF;" d="M8.1,14.4h8.3C23,14.4,27.6,19,27.6,25V25c0,6-4.6,10.6-11.3,10.6H8.1V14.4z M12.7,18.7v12.8h3.6
				c3.8,0,6.4-2.6,6.4-6.3V25c0-3.8-2.6-6.4-6.4-6.4H12.7z"/>
			<path style="fill:#FFFFFF;" d="M29.5,14.4h8.7c5.1,0,8.1,3,8.1,7.4v0.1c0,4.9-3.8,7.5-8.6,7.5h-3.6v6.4h-4.7V14.4z M37.9,25.1
				c2.3,0,3.7-1.4,3.7-3.2v-0.1c0-2.1-1.5-3.2-3.8-3.2h-3.6v6.5H37.9z"/>
		</g>
		<rect x="8" y="72.8" style="fill:#FFFFFF;" width="31.9" height="5.3"/>
	</g>
	<g>
		<path d="M104.6,56.3V56c0-21.7,14.2-33.7,29.6-33.7c9.8,0,15.9,4.5,20.3,9.7V0H173v88.7h-18.5v-9.4
			c-4.5,6.1-10.7,10.6-20.3,10.6C119.1,89.9,104.6,78,104.6,56.3z M154.8,56.3V56c0-10.8-7.2-18-15.8-18s-15.9,7-15.9,18v0.2
			c0,10.8,7.3,18,15.9,18S154.8,67.1,154.8,56.3z"/>
		<path d="M175.2,56.5v-0.2c0-18.7,15.1-33.9,35.4-33.9c20.2,0,35.1,14.9,35.1,33.7v0.2
			c0,18.7-15.1,33.9-35.4,33.9C190.1,90.2,175.2,75.2,175.2,56.5z M227.4,56.5v-0.2c0-9.6-6.9-18-17.1-18
			c-10.6,0-16.9,8.1-16.9,17.7v0.2c0,9.6,6.9,18,17.1,18C221.1,74.2,227.4,66.1,227.4,56.5z"/>
		<path d="M250.9,70.2V39.4h-7.8V23.6h7.8V6.9h18.5v16.6h15.3v15.8h-15.3v27.8c0,4.3,1.8,6.3,6,6.3
			c3.4,0,6.4-0.9,9.1-2.3V86c-3.9,2.3-8.4,3.8-14.6,3.8C258.5,89.8,250.9,85.3,250.9,70.2z"/>
		<path d="M287.8,3.6h34.8c20.3,0,32.6,12,32.6,29.4v0.2c0,19.7-15.3,29.9-34.4,29.9h-14.2v25.5h-18.7V3.6z
			 M321.4,46.5c9.4,0,14.8-5.6,14.8-12.9v-0.2c0-8.4-5.8-12.9-15.2-12.9h-14.5v26H321.4z"/>
		<path d="M353.3,56.5v-0.2c0-18.6,13.2-33.9,32.2-33.9c21.7,0,31.7,16.9,31.7,35.4c0,1.5-0.1,3.2-0.2,4.9
			h-45.3c1.8,8.4,7.7,12.8,15.9,12.8c6.2,0,10.7-1.9,15.8-6.7l10.6,9.4c-6.1,7.5-14.8,12.2-26.6,12.2
			C367.8,90.2,353.3,76.4,353.3,56.5z M399.2,51c-1.1-8.3-6-13.9-13.7-13.9c-7.7,0-12.6,5.5-14.1,13.9H399.2z"/>
		<path d="M419,56.5v-0.2c0-18.6,13.2-33.9,32.2-33.9c21.7,0,31.7,16.9,31.7,35.4c0,1.5-0.1,3.2-0.2,4.9
			h-45.3c1.8,8.4,7.7,12.8,15.9,12.8c6.2,0,10.7-1.9,15.8-6.7l10.6,9.4c-6.1,7.5-14.8,12.2-26.6,12.2C433.5,90.2,419,76.4,419,56.5z
			 M465,51c-1.1-8.3-6-13.9-13.7-13.9c-7.7,0-12.6,5.5-14.1,13.9H465z"/>
		<path d="M485.3,0h18.5v47.3l21.6-23.7h22.1l-24.8,25.6l25.6,39.5h-21.4L510.3,62l-6.6,6.9v19.8h-18.5V0z"/>
	</g>
</g>
</svg>
