<svg xmlns="http://www.w3.org/2000/svg" width="50" height="56" fill="none" viewBox="0 0 50 56">
  <defs>
    <radialGradient id="a" cx="0" cy="0" r="1" gradientTransform="matrix(42.1315 0 0 42.1318 16.1306 14.4412)" gradientUnits="userSpaceOnUse">
      <stop stop-color="#5383EC"/>
      <stop offset=".86699" stop-color="#7F52FF"/>
    </radialGradient>
    <linearGradient id="b" x1="37.1719" x2="10.9733" y1=".376638" y2="30.0353" gradientUnits="userSpaceOnUse">
      <stop stop-color="#33C3FF"/>
      <stop offset=".87843" stop-color="#5383EC"/>
    </linearGradient>
  </defs>
  <path fill="#6075F2" d="M49.25 14v28L25 56 .75 42V14L25 0l24.25 14Z"/>
  <path fill="#6B57FF" d="M34.5 22.5v11L25 39v17l24.25-14V14L34.5 22.5Z"/>
  <path fill="url(#a)" d="m25 39-9.5-5.5v-11L.75 14v28L25 56V39Z"/>
  <path fill="url(#b)" d="M15.5 22.5 25 17l9.5 5.5L49.25 14 25 0 .75 14l14.75 8.5Z"/>
  <path fill="#000" d="m25 17 9.5263 5.5v11L25 39l-9.5263-5.5v-11L25 17Z"/>
</svg>
