<svg xmlns="http://www.w3.org/2000/svg" width="162" height="64" fill="none" viewBox="0 0 162 64">
  <defs>
    <linearGradient id="a" x1="59.6841" x2="1.08781" y1="4.0675" y2="62.6638" gradientUnits="userSpaceOnUse">
      <stop offset=".25" stop-color="#7256FF"/>
      <stop offset=".73" stop-color="#00C4F4"/>
    </linearGradient>
    <linearGradient id="b" x1="64.399" x2="39.6152" y1="56.3294" y2="2.87437" gradientUnits="userSpaceOnUse">
      <stop offset=".3" stop-color="#F0EB18"/>
      <stop offset=".58" stop-color="#7256FF"/>
    </linearGradient>
  </defs>
  <path fill="#000" d="M102.838 29.24H89.3378V17h-5.33v29.96h5.33V34.05h13.5002v12.91h5.31V17h-5.31v12.24Zm25.74 8.82c0 .98-.21 1.85-.62 2.61-.41.76-.99 1.34-1.72 1.75-.74.41-1.59.62-2.56.62s-1.82-.21-2.56-.62c-.74-.41-1.31-1-1.72-1.75-.41-.76-.62-1.63-.62-2.61V25.05h-5.03v13.78c0 1.73.41 3.24 1.23 4.55.82 1.31 1.98 2.32 3.48 3.03s3.24 1.07 5.22 1.07c1.98 0 3.72-.36 5.22-1.07 1.5-.71 2.66-1.72 3.48-3.03.82-1.31 1.23-2.82 1.23-4.55V25.05h-5.03v13.01Zm31.2-7.97c-.87-1.75-2.07-3.11-3.61-4.09-1.53-.98-3.27-1.47-5.21-1.47-1.81 0-3.4.4-4.77 1.2-1.11.65-2.01 1.52-2.72 2.6V17h-5.05v29.96h5.05v-3.29c.71 1.08 1.61 1.96 2.72 2.6 1.37.8 2.95 1.2 4.75 1.2 1.95 0 3.7-.49 5.23-1.47 1.53-.98 2.74-2.34 3.61-4.09.87-1.75 1.3-3.72 1.3-5.92 0-2.2-.43-4.17-1.3-5.92v.02Zm-4.65 9.54c-.52 1.05-1.25 1.87-2.19 2.46-.94.59-2.01.89-3.21.89-1.2 0-2.31-.29-3.25-.88-.94-.58-1.68-1.41-2.2-2.46-.53-1.06-.79-2.27-.79-3.64s.26-2.58.79-3.63c.53-1.05 1.26-1.87 2.2-2.46.94-.59 2.03-.89 3.25-.89 1.22 0 2.27.3 3.21.89.94.59 1.67 1.41 2.19 2.46s.78 2.26.78 3.63-.26 2.58-.78 3.63Z"/>
  <path fill="url(#a)" d="M4.13281 64H38.2603c1.6581 0 3.155-.9931 3.8-2.5206l15.7975-37.4213c.2188-.5181.3294-1.0756.3244-1.6381l-.15-18.32875C58.0141 1.82625 56.1728 0 53.9078 0H36.2422c-.8056 0-1.5931.235625-2.2663.678125L1.86719 21.7869C.706563 22.55.007813 23.845.007813 25.2337V59.875C.007813 62.1531 1.85469 64 4.13281 64Z"/>
  <path fill="url(#b)" d="M49.0209 58h10.8618c2.2782 0 4.125-1.8469 4.125-4.125V41.3094c0-.2-.0143-.4-.0437-.5981L58.5159 3.52688C58.2196 1.50125 56.4821 0 54.4346 0H39.0371c-2.2787 0-4.1256 1.8475-4.125 4.12625l.0044 18.50435c0 .4256.0662.8488.1956 1.2538L45.0909 55.13c.5462 1.7094 2.135 2.87 3.9293 2.87h.0007Z"/>
  <path fill="#F0EB18" d="M47.5578 58h12.2588c2.3037 0 4.1612-1.8869 4.1243-4.1906L64.0078 43c-.0187-1.1812-.7862-2.5312-1.6831-3.3L24.1666 6.99312C23.4191 6.3525 22.4666 6 21.4822 6H10.1328c-2.27811 0-4.12499 1.84687-4.12499 4.125v11.0031c0 1.1894.51375 2.3213 1.40875 3.1044L44.8416 56.9794C45.5934 57.6375 46.5584 58 47.5578 58Z"/>
  <path fill="#000" d="M52.0078 12h-40v40h40V12Z"/>
  <path fill="#fff" fill-rule="evenodd" d="M43.3952 18.9009c-.4068-.6006-.9768-1.0681-1.7093-1.4043-.7332-.3357-1.5669-.5044-2.5032-.5044h-6.5168v15.0062h6.6456c.9862 0 1.865-.1768 2.6369-.5306.7718-.3537 1.3718-.845 1.8006-1.4737.4287-.6288.6431-1.3469.6431-2.1544 0-.7431-.1712-1.4075-.5144-1.9938-.3431-.5862-.8218-1.0418-1.4362-1.3668-.2558-.1353-.5264-.2425-.8119-.3215.2162-.0644.4227-.1464.6194-.246.5575-.2819.9894-.6807 1.2969-1.195.3068-.5144.4606-1.1075.4606-1.7794 0-.7569-.2038-1.4363-.6113-2.0363Zm-2.6256 3.4188c-.1862.3075-.4487.5431-.7881.7075-.3394.165-.7306.2469-1.1738.2469h-3.2906v-3.9982h3.2906c.4432 0 .8344.0819 1.1738.2463.3394.1644.6025.395.7881.6912.1856.2963.2788.6444.2788 1.045 0 .4007-.0932.7538-.2788 1.0613Zm-1.8331 7.3962h-3.4194v-4.2243h3.4194c.4856 0 .9144.0893 1.2862.2681.3719.1787.6594.4325.8632.7612.2037.3288.3056.6932.3056 1.115 0 .4219-.1019.7882-.3056 1.0988-.2038.3112-.4919.5525-.8632.7237-.3718.1719-.8006.2575-1.2862.2575Z" clip-rule="evenodd"/>
  <path fill="#fff" d="M17.0059 16.9928h2.9262v6.0344h6.4419v-6.0344h2.9262v15.0063H26.374v-6.335h-6.4419v6.335h-2.9262V16.9928Z"/>
  <path fill="#fff" d="M33.0083 43.9991h-16v3h16v-3Z"/>
</svg>
