<svg xmlns="http://www.w3.org/2000/svg" width="335" height="91" fill="none" viewBox="0 0 335 91">
  <path fill="#000" d="M0 4H85V89H0V4Z"/>
  <path fill="#fff" d="M10.543 73.0791H42.4715V78.4005H10.543V73.0791Z"/>
  <path fill="#fff" d="M10.5713 14.5718H17.6665V27.2581H30.665V14.5718H37.7602V46.5997H30.665V33.7289H17.6665V46.5997H10.5713V14.5718Z"/>
  <path fill="#fff" d="M44.5435 14.5716H59.4293C62.4858 14.3716 65.4968 15.3923 67.8016 17.4097C68.5206 18.1199 69.0866 18.9697 69.4649 19.9068C69.8431 20.8439 70.0256 21.8485 70.0012 22.8588V22.9581C70.0375 24.3987 69.6545 25.8187 68.8987 27.0456C68.1429 28.2725 67.0469 29.2534 65.744 29.8689C69.4619 31.288 71.7466 33.4449 71.7466 37.7446V37.844C71.7466 43.7046 66.9786 46.6279 59.7415 46.6279H44.5435V14.5716ZM62.9911 24.0508C62.9911 21.9506 61.345 20.7586 58.365 20.7586H51.4116V27.5417H57.9109C61.0328 27.5417 62.9911 26.5341 62.9911 24.1501V24.0508ZM59.557 33.4023H51.4116V40.4976H59.784C62.9059 40.4976 64.7791 39.3907 64.7791 37.0067V36.8506C64.7791 34.6937 63.1755 33.374 59.557 33.374V33.4023Z"/>
  <path fill="#fff" d="M116.915 4.45361H135.604V38.085H170.087V4.45361H188.79V89.4404H170.087V55.3832H135.604V89.4404H116.915V4.45361Z"/>
  <path fill="#fff" d="M197.715 66.4943V24.3628H216.163V60.662C216.163 69.4034 220.292 73.9017 227.331 73.9017C234.369 73.9017 238.868 69.4034 238.868 60.662V24.3628H257.315V89.4403H238.868V80.2165C234.611 85.6799 229.161 90.6465 219.81 90.6465C205.846 90.6465 197.715 81.4227 197.715 66.4943Z"/>
  <path fill="#fff" d="M285.03 80.9403V89.4545H266.582V0.806641H285.03V33.7144C289.528 27.6408 295.715 23.1425 305.308 23.1425C320.492 23.1425 334.938 35.0483 334.938 56.7739V57.0293C334.938 78.7549 320.747 90.6466 305.308 90.6466C301.405 90.7252 297.537 89.8881 294.016 88.2025C290.494 86.517 287.417 84.0297 285.03 80.9403V80.9403ZM316.476 57.0293V56.7739C316.476 45.9749 309.196 38.8087 300.568 38.8087C291.94 38.8087 284.788 45.9749 284.788 56.7739V57.0293C284.788 67.8283 291.884 74.9945 300.568 74.9945C309.253 74.9945 316.476 67.956 316.476 57.0293V57.0293Z"/>
</svg>
