<?xml version="1.0" encoding="utf-8"?>
<!-- Generator: Adobe Illustrator 19.1.0, SVG Export Plug-In . SVG Version: 6.00 Build 0)  -->
<svg version="1.1" xmlns="http://www.w3.org/2000/svg" xmlns:xlink="http://www.w3.org/1999/xlink" x="0px" y="0px"
	 width="317.5px" height="89.9px" viewBox="0 0 317.5 89.9" style="enable-background:new 0 0 317.5 89.9;" xml:space="preserve">
<g>
	<g>
		<g>
			<rect x="0" y="3.7" style="fill:#000000;" width="85" height="85"/>
			<rect x="8" y="72.8" style="fill:#FFFFFF;" width="31.9" height="5.3"/>
		</g>
		<g>
			<path style="fill:#FFFFFF;" d="M8,14.3h4.7v8.4h8.6v-8.4H26v21.2h-4.7V27h-8.6v8.5H8V14.3z"/>
			<path style="fill:#FFFFFF;" d="M29.4,14.3h9.9c2.4,0,4.3,0.7,5.6,1.9c1,1,1.5,2.2,1.5,3.6v0.1c0,2.4-1.3,3.7-2.8,4.6
				c2.5,0.9,4,2.4,4,5.2v0.1c0,3.9-3.2,5.8-8,5.8H29.4V14.3z M41.7,20.6c0-1.4-1.1-2.2-3.1-2.2H34v4.5h4.3
				C40.3,22.9,41.7,22.2,41.7,20.6L41.7,20.6z M39.4,26.8H34v4.7h5.6c2.1,0,3.3-0.7,3.3-2.3v-0.1C42.8,27.7,41.8,26.8,39.4,26.8z"/>
		</g>
	</g>
	<g>
		<path d="M106.2,3.6h18.7v33.7h34.5V3.6h18.7v85.1h-18.7V54.6h-34.5v34.1h-18.7V3.6z"/>
		<path d="M183.3,65.7V23.6h18.5v36.3c0,8.7,4.1,13.2,11.2,13.2c7,0,11.5-4.5,11.5-13.2V23.6h18.5v65.1h-18.5
			v-9.2c-4.3,5.5-9.7,10.4-19.1,10.4C191.4,89.9,183.3,80.7,183.3,65.7z"/>
		<path d="M267.6,80.2v8.5h-18.5V0h18.5v32.9c4.5-6.1,10.7-10.6,20.3-10.6c15.2,0,29.6,11.9,29.6,33.7v0.2
			c0,21.7-14.2,33.7-29.6,33.7C278,89.9,272,85.4,267.6,80.2z M299,56.3V56c0-10.8-7.3-18-15.9-18s-15.8,7.2-15.8,18v0.2
			c0,10.8,7.2,18,15.8,18S299,67.2,299,56.3z"/>
	</g>
</g>
</svg>
