<svg xmlns="http://www.w3.org/2000/svg" width="64" height="64" fill="none" viewBox="0 0 64 64">
  <defs>
    <linearGradient id="a" x1="59.6756" x2="1.07937" y1="4.0675" y2="62.6631" gradientUnits="userSpaceOnUse">
      <stop offset=".25" stop-color="#7256FF"/>
      <stop offset=".73" stop-color="#00C4F4"/>
    </linearGradient>
    <linearGradient id="b" x1="64.3905" x2="39.6074" y1="56.3294" y2="2.87438" gradientUnits="userSpaceOnUse">
      <stop offset=".3" stop-color="#F0EB18"/>
      <stop offset=".58" stop-color="#7256FF"/>
    </linearGradient>
  </defs>
  <path fill="url(#a)" d="M4.125 64h34.1275c1.6581 0 3.155-.9931 3.8-2.5206L57.85 24.0581c.2187-.5181.3294-1.0756.3244-1.6381l-.15-18.32875C58.0063 1.82625 56.165 0 53.9 0H36.2344c-.8057 0-1.5932.235625-2.2663.678125L1.85938 21.7869C.69875 22.55 0 23.845 0 25.2337V59.875C0 62.1531 1.84687 64 4.125 64Z"/>
  <path fill="url(#b)" d="M49.0131 58h10.8618c2.2781 0 4.125-1.8469 4.125-4.125V41.3094c0-.2-.0144-.4-.0437-.5981L58.508 3.52688C58.2112 1.50125 56.4737 0 54.4268 0H39.0293c-2.2788 0-4.1256 1.8475-4.125 4.12625l.0044 18.50435c0 .4256.0662.8488.1956 1.2538L45.083 55.13c.5463 1.7094 2.135 2.87 3.9294 2.87h.0007Z"/>
  <path fill="#F0EB18" d="M47.5494 58h12.2587c2.3038 0 4.1613-1.8869 4.1244-4.1906L63.9994 43c-.0188-1.1812-.7863-2.5312-1.6832-3.3L24.1581 6.99312C23.4106 6.3525 22.4581 6 21.4737 6H10.125C7.84687 6 6 7.84687 6 10.125v11.0031c0 1.1894.51375 2.3213 1.40875 3.1044L44.8337 56.9794C45.5856 57.6375 46.5506 58 47.55 58h-.0006Z"/>
  <path fill="#000" d="M52 12H12v40h40V12Z"/>
  <path fill="#fff" d="M33 44H17v3h16v-3Z"/>
  <path fill="#fff" d="M16.998 16.9922h2.9263v6.0344h6.4419v-6.0344h2.9262v15.0062h-2.9262v-6.335h-6.4419v6.335H16.998V16.9922Z"/>
  <path fill="#fff" d="M41.6782 17.4966c.7325.3362 1.3025.8037 1.7094 1.4043.4075.6.6112 1.2794.6112 2.0363 0 .6719-.1537 1.265-.4606 1.7794-.3075.5143-.7394.9131-1.2969 1.195-.5575.2825-1.1937.4231-1.9081.4231v-.3431c.7863 0 1.4863.1625 2.1006.4875.6144.325 1.0932.7806 1.4363 1.3668.3431.5863.5144 1.2507.5144 1.9938 0 .8075-.2144 1.5256-.6432 2.1544-.4287.6287-1.0287 1.12-1.8006 1.4737-.7719.3538-1.6506.5306-2.6369.5306h-6.6456V16.9922h6.5169c.9362 0 1.77.1681 2.5031.5037v.0007Zm-1.7044 5.5306c.3394-.1644.6019-.4.7882-.7075.1856-.3075.2787-.6606.2787-1.0613 0-.4006-.0931-.7487-.2787-1.045-.1857-.2962-.4488-.5268-.7882-.6912-.3393-.1644-.7306-.2463-1.1737-.2463h-3.2906v3.9982h3.2906c.4431 0 .8344-.0819 1.1737-.2469Zm-4.4643 6.6887h3.4193c.4857 0 .9144-.0856 1.2863-.2575.3712-.1712.6594-.4125.8631-.7237.2038-.3106.3056-.6769.3056-1.0988 0-.4218-.1018-.7862-.3056-1.115-.2037-.3287-.4912-.5825-.8631-.7612-.3719-.1788-.8006-.2681-1.2863-.2681h-3.4193v4.2243Z"/>
</svg>
