<svg xmlns="http://www.w3.org/2000/svg" width="70" height="70" fill="none" viewBox="0 0 70 70">
  <defs>
    <linearGradient id="a" x1="29.7361" x2="37.755" y1="21.0739" y2="40.9611" gradientUnits="userSpaceOnUse">
      <stop offset="0.14568" stop-color="#07C3F2"/>
      <stop offset="1" stop-color="#6B57FF"/>
    </linearGradient>
    <linearGradient id="b" x1="24.8475" x2="33.1878" y1="59.9994" y2="17.3351" gradientUnits="userSpaceOnUse">
      <stop offset="0.09201" stop-color="#FCF84A"/>
      <stop offset="0.45605" stop-color="#6B57FF"/>
      <stop offset="0.76072" stop-color="#6B57FF"/>
      <stop offset="0.83292" stop-color="#5074FC"/>
      <stop offset="0.98884" stop-color="#0CBDF3"/>
      <stop offset="1" stop-color="#07C3F2"/>
    </linearGradient>
    <linearGradient id="c" x1="64.2147" x2="2.57588" y1="49.2038" y2="56.5877" gradientUnits="userSpaceOnUse">
      <stop offset="0" stop-color="#FCF84A"/>
      <stop offset="0.5" stop-color="#6B57FF"/>
      <stop offset="1" stop-color="#07C3F2"/>
    </linearGradient>
  </defs>
  <path fill="#FCF84A" d="M67.7891 55.6449L56.2218 67.8677C55.5899 68.5352 54.828 69.0663 53.9831 69.4281C53.1381 69.7899 52.228 69.9749 51.3089 69.9716C50.3897 69.9684 49.481 69.7769 48.6386 69.409C47.7963 69.0412 47.0382 68.5047 46.4111 67.8327V67.8327C45.3712 66.7184 44.741 65.2836 44.6239 63.764C44.5068 62.2443 44.9097 60.7299 45.7666 59.4694L55.2256 45.5531C56.4113 43.8098 58.2307 42.5982 60.2965 42.1764C62.3622 41.7547 64.511 42.1562 66.2851 43.2953V43.2953C67.2851 43.937 68.1312 44.7914 68.7631 45.7976C69.395 46.8038 69.7971 47.937 69.9408 49.1165C70.0844 50.2959 69.966 51.4926 69.5941 52.621C69.2222 53.7495 68.6059 54.782 67.7891 55.6449V55.6449Z"/>
  <path fill="#07C3F2" d="M56.8217 25.8661L10.373 25.0308C8.12865 24.9909 5.9556 24.2359 4.17008 22.8755C2.38456 21.5152 1.07975 19.6206 0.445532 17.4674V17.4674C0.00482237 15.968 -0.0968959 14.3893 0.147745 12.8458C0.392385 11.3022 0.97726 9.83242 1.86001 8.54278C2.74276 7.25314 3.90128 6.17597 5.25168 5.38929C6.60207 4.6026 8.11052 4.12609 9.66779 3.99427L55.9565 0.0545818C59.0016 -0.205321 62.0404 0.62107 64.5345 2.38733C67.0285 4.15359 68.8169 6.7457 69.5826 9.70436V9.70436C70.0808 11.6348 70.126 13.6544 69.7145 15.6052C69.303 17.556 68.446 19.3852 67.2105 20.95C65.975 22.5148 64.3944 23.7727 62.5922 24.6255C60.7901 25.4783 58.8151 25.9029 56.8217 25.8661Z"/>
  <path fill="url(#a)" d="M6.06621 66.9948C4.33163 65.7156 2.89931 64.0708 1.87055 62.1769C0.841792 60.283 0.241722 58.1862 0.112779 56.0348C-0.0161632 53.8834 0.329172 51.7299 1.12436 49.7267C1.91955 47.7235 3.14517 45.9194 4.71454 44.4422L48.1769 3.51876C50.396 1.42985 53.281 0.190966 56.3239 0.0203179C59.3668 -0.15033 62.3723 0.758201 64.811 2.58589V2.58589C66.2672 3.67678 67.4765 5.06286 68.3599 6.65342C69.2433 8.24398 69.7808 10.0032 69.9373 11.8158C70.0938 13.6285 69.8657 15.4538 69.268 17.1722C68.6703 18.8906 67.7165 20.4635 66.4689 21.7878L25.5407 65.2421C23.07 67.8644 19.7243 69.4907 16.136 69.8136C12.5477 70.1366 8.96537 69.1338 6.06621 66.9948V66.9948Z"/>
  <path fill="url(#b)" d="M46.4138 67.887L2.86665 21.6663C1.89139 20.6314 1.13585 19.4097 0.645594 18.0749C0.155338 16.7401 -0.0594761 15.3198 0.0141082 13.8997C0.0876925 12.4796 0.44815 11.0891 1.07374 9.81207C1.69933 8.53506 2.5771 7.39798 3.65409 6.46942V6.46942C4.75404 5.52086 6.03806 4.8097 7.42568 4.38051C8.81329 3.95133 10.2746 3.81337 11.718 3.97529C13.1615 4.1372 14.5559 4.5955 15.8139 5.32146C17.072 6.04741 18.1665 7.02539 19.0289 8.19408L56.7205 59.2958C57.6557 60.5636 58.1154 62.12 58.019 63.6926C57.9227 65.2651 57.2764 66.7537 56.1933 67.8979V67.8979C55.5639 68.5628 54.8053 69.0921 53.9641 69.4536C53.1229 69.8151 52.2168 70.001 51.3012 70C50.3856 69.999 49.4799 69.811 48.6395 69.4477C47.7991 69.0844 47.0418 68.5533 46.4138 67.887Z"/>
  <path fill="url(#c)" d="M63.855 58.0482L18.4397 69.4215C16.136 69.9995 13.7268 70.0128 11.4168 69.4603C9.10687 68.9078 6.96444 67.8058 5.17158 66.248C3.37872 64.6902 1.98842 62.7226 1.11884 60.5124C0.249259 58.3022 -0.0739124 55.9148 0.17679 53.553V53.5529C0.574122 49.8393 2.36501 46.4145 5.18824 43.9693C8.01146 41.5242 11.6569 40.2406 15.3893 40.3776L62.178 42.0806C64.2734 42.1561 66.2581 43.0402 67.7158 44.5474C69.1735 46.0546 69.9909 48.0677 69.9964 50.1645C70.0002 51.9757 69.3976 53.736 68.2845 55.1648C67.1714 56.5936 65.6121 57.6087 63.855 58.0482V58.0482Z"/>
  <g>
    <path fill="#000000" d="M56 14H14V56H56V14Z"/>
    <path fill="#FFFFFF" d="M34.4167 48.65H18.6667V51.3334H34.4167V48.65Z"/>
    <path fill="#FFFFFF" d="M19 19H22.4604V25.2242H28.8422V19H32.3032V34.73H28.8422V28.4157H22.4604V34.73H19V19Z"/>
    <path fill="#FFFFFF" d="M35.6866 19H42.9895C44.7873 19 46.203 19.494 47.1021 20.3932C47.4561 20.7407 47.7346 21.1575 47.9202 21.6176C48.1058 22.0777 48.1945 22.5711 48.1807 23.067V23.112C48.1997 23.8167 48.0147 24.5118 47.648 25.1138C47.2812 25.7158 46.7484 26.1991 46.1135 26.5054C47.9337 27.202 49.0574 28.2582 49.0574 30.3704V30.4154C49.0574 33.2918 46.7201 34.73 43.1696 34.73H35.6866V19ZM44.7428 23.6516C44.7428 22.6179 43.9337 22.0333 42.473 22.0333H39.057V25.3593H42.2485C43.7762 25.3593 44.7428 24.8647 44.7428 23.6966V23.6516ZM43.0571 28.2356H39.057V31.6961H43.1696C44.6978 31.6961 45.6189 31.157 45.6189 29.9884V29.9433C45.6189 28.8872 44.8323 28.2356 43.0571 28.2356Z"/>
  </g>
</svg>
