<svg xmlns="http://www.w3.org/2000/svg" width="128" height="128" fill="none" viewBox="0 0 128 128">
  <defs>
    <linearGradient id="a" x1="119.351" x2="2.15875" y1="8.135" y2="125.326" gradientUnits="userSpaceOnUse">
      <stop offset=".25" stop-color="#7256FF"/>
      <stop offset=".73" stop-color="#00C4F4"/>
    </linearGradient>
    <linearGradient id="b" x1="128.781" x2="79.2149" y1="112.659" y2="5.74875" gradientUnits="userSpaceOnUse">
      <stop offset=".3" stop-color="#F0EB18"/>
      <stop offset=".58" stop-color="#7256FF"/>
    </linearGradient>
  </defs>
  <path fill="url(#a)" d="M8.25 128h68.255c3.3162 0 6.31-1.986 7.6-5.041L115.7 48.1162c.437-1.0362.659-2.1512.649-3.2762l-.3-36.6575C116.013 3.6525 112.33 0 107.8 0H72.4688c-1.6113 0-3.1863.47125-4.5326 1.35625L3.71875 43.5737C1.3975 45.1 0 47.69 0 50.4675V119.75c0 4.556 3.69375 8.25 8.25 8.25Z"/>
  <path fill="url(#b)" d="M98.0261 116H119.75c4.556 0 8.25-3.694 8.25-8.25V82.6188c0-.4-.029-.8-.088-1.1963L117.016 7.05375C116.422 3.0025 112.947 0 108.854 0H78.0586c-4.5575 0-8.2513 3.695-8.25 8.2525l.0087 37.0087c0 .8513.1325 1.6975.3913 2.5075L90.1661 110.26c1.0925 3.419 4.27 5.74 7.8587 5.74h.0013Z"/>
  <path fill="#F0EB18" d="M95.1007 116h24.5173c4.608 0 8.323-3.774 8.249-8.381L128.001 86c-.038-2.3625-1.573-5.0625-3.367-6.6L48.3182 13.9862C46.8232 12.705 44.9182 12 42.9495 12H20.252c-4.5563 0-8.25 3.6937-8.25 8.25v22.0062c0 2.3788 1.0275 4.6426 2.8175 6.2088l74.8499 65.494c1.5038 1.316 3.4338 2.041 5.4326 2.041h-.0013Z"/>
  <path fill="#000" d="M104 24H24v80h80V24Z"/>
  <path fill="#fff" d="M66 88H34v6h32v-6Z"/>
  <path fill="#fff" d="M33.9941 33.9844h5.8525v12.0687h12.8838V33.9844h5.8525v30.0125h-5.8525v-12.67H39.8466v12.67h-5.8525V33.9844Z"/>
  <path fill="#fff" d="M83.3545 34.9931c1.465.6725 2.605 1.6075 3.4187 2.8088.815 1.2 1.2225 2.5587 1.2225 4.0725 0 1.3437-.3075 2.53-.9213 3.5587-.615 1.0288-1.4787 1.8263-2.5937 2.39-1.115.565-2.3875.8463-3.8162.8463v-.6863c1.5725 0 2.9724.325 4.2012.975 1.2287.65 2.1862 1.5613 2.8725 2.7338.6862 1.1725 1.0288 2.5012 1.0288 3.9875 0 1.615-.4288 3.0512-1.2863 4.3087-.8575 1.2575-2.0575 2.24-3.6013 2.9475-1.5437.7075-3.3012 1.0613-5.2737 1.0613H65.3145V33.9844h13.0337c1.8725 0 3.54.3362 5.0063 1.0075v.0012Zm-3.4088 11.0613c.6788-.3288 1.2037-.8 1.5762-1.415.3713-.615.5576-1.3213.5576-2.1225 0-.8013-.1863-1.4975-.5576-2.09-.3712-.5925-.8974-1.0538-1.5762-1.3825-.6787-.3288-1.4613-.4925-2.3475-.4925H71.017v7.9962h6.5812c.8862 0 1.6688-.1637 2.3475-.4937ZM71.017 59.4319h6.8387c.9712 0 1.8287-.1713 2.5725-.515.7425-.3425 1.3187-.825 1.7262-1.4475.4075-.6213.6113-1.3538.6113-2.1975 0-.8438-.2038-1.5725-.6113-2.23s-.9825-1.165-1.7262-1.5225c-.7438-.3575-1.6013-.5363-2.5725-.5363H71.017v8.4488Z"/>
</svg>
