<svg enable-background="new 0 0 70 70" height="70" viewBox="0 0 70 70" width="70" xmlns="http://www.w3.org/2000/svg" xmlns:xlink="http://www.w3.org/1999/xlink"><linearGradient id="a" gradientTransform="matrix(1 0 0 -1 0 69.89)" gradientUnits="userSpaceOnUse" x1="40.4146" x2="39.5851" y1="69.0005" y2="30.5662"><stop offset=".3276" stop-color="#00b8f1"/><stop offset=".9731" stop-color="#9758fb"/></linearGradient><linearGradient id="b" gradientUnits="userSpaceOnUse" x1="58.3447" x2="11.9323" y1="64.0171" y2="13.6356"><stop offset="0" stop-color="#ffee45"/><stop offset="1" stop-color="#9758fb"/></linearGradient><linearGradient id="c" gradientTransform="matrix(1 0 0 -1 0 69.89)" gradientUnits="userSpaceOnUse" x1="31.0246" x2="21.3924" y1="60.4011" y2="39.8081"><stop offset=".3276" stop-color="#00b8f1"/><stop offset=".7903" stop-color="#9758fb"/></linearGradient><linearGradient id="d" gradientTransform="matrix(1 0 0 -1 0 69.89)" gradientUnits="userSpaceOnUse" x1="-3.2594" x2="68.8162" y1="17.7658" y2="17.7658"><stop offset="0" stop-color="#00b8f1"/><stop offset=".3065" stop-color="#9758fb"/><stop offset=".9892" stop-color="#ffee45"/></linearGradient><path d="m61.3.9c-1.7-.8-3.6-1-5.5-.8-.3 0-45.3 3.8-45.3 3.8l31.8 37.5 5.8.3 18.2-19.7c6.1-6.1 4.8-17-5-21.1z" fill="url(#a)"/><path d="m53.6 47.2-1.3 2-16-19.5-15.5 10.4 25.7 27.9c.5.5 1.2.9 1.9 1.3 1.4.7 3 .9 4.6.4 1.5-.4 2.6-1.2 3.5-2.1.1-.1 10.8-10.7 10.8-10.7z" fill="url(#b)"/><path d="m45.7 41.6-26.1-33.2c-1.1-1.6-2.8-2.9-5-3.8-1.7-.7-3.7-.9-5.5-.5-9.6 2.1-11.8 12.6-5.6 18.2l18.1 18.6z" fill="url(#c)"/><path d="m63.2 40.5c-3.4-1-5.3-.7-9.8-.8l-38-5.4-10.9 10.4c-6.9 6.8-5.8 18.7 4.4 23.8 2.6 1.3 5.5 1.7 8.2 1.3 19.3-3.6 43.5-9.4 43.7-9.4.4-.1.9-.2 1.3-.3 6.3-1.9 8.9-7.8 7.4-12.8-.8-2.8-3-5.8-6.3-6.8z" fill="url(#d)"/><path d="m13.4 13.4h43.2v43.2h-43.2z"/><g fill="#fff"><path d="m17.4 19.1h4v7.2h7.4v-7.2h4v18.1h-4v-7.3h-7.4v7.3h-4z"/><path d="m35.7 19.1h8.4c2.1 0 3.7.6 4.7 1.6.8.8 1.2 1.8 1.2 3.1v.1c0 2-1.1 3.2-2.4 3.9 2.1.8 3.4 2 3.4 4.5v.1c0 3.3-2.7 5-6.8 5h-8.6v-18.3zm10.5 5.3c0-1.2-.9-1.9-2.6-1.9h-3.9v3.8h3.7c1.7.1 2.8-.5 2.8-1.9zm-2 5.3h-4.6v4h4.7c1.8 0 2.8-.6 2.8-2v-.1c.1-1.1-.8-1.9-2.9-1.9z"/><path d="m17.5 48.5h16.2v2.7h-16.2z"/></g></svg>