<svg xmlns="http://www.w3.org/2000/svg" width="128" height="128" fill="none" viewBox="0 0 128 128">
  <defs>
    <linearGradient id="a" x1="8.135" x2="125.327" y1="8.64626" y2="125.839" gradientUnits="userSpaceOnUse">
      <stop offset=".25" stop-color="#007EFF"/>
      <stop offset=".73" stop-color="#FF0A67"/>
    </linearGradient>
    <linearGradient id="b" x1="112.659" x2="5.74875" y1="-.781246" y2="48.785" gradientUnits="userSpaceOnUse">
      <stop offset=".3" stop-color="#FFB700"/>
      <stop offset=".58" stop-color="#007EFF"/>
    </linearGradient>
  </defs>
  <path fill="url(#a)" d="M128 119.748V51.4925c0-3.3162-1.986-6.31-5.041-7.6l-74.8428-31.595c-1.0362-.4375-2.1512-.6587-3.2762-.6487l-36.6575.3C3.6525 11.985 0 15.6675 0 20.1975v35.3313c0 1.6112.47125 3.1862 1.35625 4.5325L43.5737 124.28c1.525 2.321 4.1163 3.718 6.8938 3.718H119.75c4.556 0 8.25-3.694 8.25-8.25Z"/>
  <path fill="url(#b)" d="M116 29.975V8.25c0-4.55625-3.694-8.25-8.25-8.25H82.6188c-.4 0-.8.02875-1.1963.0875L7.05375 10.9838C3.0025 11.5775 0 15.0525 0 19.1462v30.795c0 4.5575 3.695 8.2513 8.2525 8.25l37.0087-.0087c.8513 0 1.6975-.1325 2.5075-.3913L110.26 37.8338c3.419-1.0925 5.74-4.27 5.74-7.8588Z"/>
  <path fill="#FFB700" d="M116 32.9V8.3825C116 3.775 112.226.06 107.619.13375L86 0c-2.3625.0375-5.0625 1.5725-6.6 3.36625L13.9862 79.6825C12.705 81.1775 12 83.0825 12 85.0512V107.75c0 4.556 3.6937 8.25 8.25 8.25h22.0062c2.3788 0 4.6426-1.027 6.2088-2.817l65.494-74.8505C115.275 36.8288 116 34.8988 116 32.9Z"/>
  <path fill="#000" d="M104 24H24v80h80V24Z"/>
  <path fill="#fff" d="M66 88H34v6h32v-6Z"/>
  <path fill="#fff" d="M33.9941 33.9844h12.8838c2.1012 0 3.9512.3862 5.5525 1.1575 1.6.7712 2.8325 1.8575 3.6975 3.2587.865 1.4013 1.2975 3.0225 1.2975 4.8663 0 1.8437-.44 3.4975-1.3188 4.92-.8787 1.4225-2.13 2.5225-3.7512 3.3012-1.6225.7788-3.505 1.1688-5.6488 1.1688h-6.86v11.34h-5.8525V33.9844Zm15.0813 13.2587c.7362-.365 1.3037-.8862 1.7037-1.565.4-.6787.6-1.4687.6-2.3687 0-.9-.2-1.7038-.6-2.3688-.4-.665-.9687-1.1787-1.7037-1.5437-.7363-.365-1.5975-.5463-2.5838-.5463h-6.6462v8.94h6.6462c.9863 0 1.8475-.1825 2.5838-.5462v-.0013Zm-5.2625 3.5275h6.3887l7.8675 13.2275h-6.71l-7.5462-13.2275Z"/>
  <path fill="#fff" d="M63.2344 33.9844h20.28v5.295H69.0869v7.6962h13.57v5.295h-13.57v11.7263h-5.8525V33.9844Z"/>
</svg>
