<svg xmlns="http://www.w3.org/2000/svg" width="705" height="91" fill="none" viewBox="0 0 705 91">
  <path fill="#fff" d="M116.873 4.06689H155.676C166.468 4.06689 174.834 7.10011 180.41 12.677C185.136 17.4024 187.69 24.0755 187.69 32.0789V32.3237C187.69 46.021 180.293 54.6737 169.501 58.6328L190.234 88.9437H168.405L150.217 61.7831H135.551V88.9437H116.873V4.06689ZM154.463 45.2973C163.552 45.2973 168.767 40.4442 168.767 33.2922V33.0474C168.767 25.044 163.19 20.9252 154.101 20.9252H135.551V45.2973H154.463Z"/>
  <path fill="#fff" d="M200.536 0.427246H219.938V16.796H200.536V0.427246ZM201.026 23.948H219.449V88.9439H201.079L201.026 23.948Z"/>
  <path fill="#fff" d="M229.112 56.5683V56.3235C229.112 34.6228 243.299 22.7453 258.699 22.7453C268.522 22.7453 274.578 27.226 278.92 32.441V0.427246H297.343V88.9439H278.952V79.6101C274.461 85.6659 268.309 90.1572 258.731 90.1572C243.544 90.1359 229.112 78.2691 229.112 56.5683ZM279.133 56.5683V56.3235C279.133 45.5317 271.981 38.3797 263.371 38.3797C254.761 38.3797 247.545 45.4359 247.545 56.3235V56.5683C247.545 67.3602 254.825 74.5122 263.424 74.5122C272.024 74.5122 279.186 67.3602 279.186 56.5683H279.133Z"/>
  <path fill="#fff" d="M307.082 56.8124V56.5676C307.082 37.9852 320.279 22.7446 339.212 22.7446C360.913 22.7446 370.854 39.5923 370.854 58.0257C370.854 59.4731 370.736 61.2186 370.609 62.8682H325.387C327.207 71.2441 333.029 75.6396 341.266 75.6396C347.45 75.6396 351.909 73.692 357.028 68.9666L367.576 78.3003C361.52 85.8248 352.793 90.4332 341.032 90.4332C321.503 90.4013 307.082 76.6933 307.082 56.8124ZM352.91 51.3526C351.845 43.1044 346.971 37.5169 339.212 37.5169C331.454 37.5169 326.601 42.9767 325.142 51.3526H352.91Z"/>
  <path fill="#fff" d="M380.996 23.9476H399.419V37.049C403.176 28.077 409.242 22.2554 420.151 22.745V42.0192H419.183C406.943 42.0192 399.419 49.416 399.419 64.9333V88.9436H380.996V23.9476Z"/>
  <path fill="#fff" d="M432.146 4.06689H496.769V21.0955H450.813V39.1883H491.309V56.0785H450.813V88.9437H432.146V4.06689Z"/>
  <path fill="#fff" d="M505.677 0.427246H524.1V88.9439H505.677V0.427246Z"/>
  <path fill="#fff" d="M533.679 56.8124V56.5676C533.679 37.9001 548.706 22.7446 568.96 22.7446C589.213 22.7446 603.996 37.6446 603.996 56.3228V56.5676C603.996 75.2352 588.968 90.4013 568.715 90.4013C548.462 90.4013 533.679 75.48 533.679 56.8124ZM585.829 56.8124V56.5676C585.829 46.9891 578.922 38.6238 568.736 38.6238C558.189 38.6238 551.889 46.7443 551.889 56.3228V56.5676C551.889 66.1462 558.796 74.5115 568.981 74.5115C579.507 74.5115 585.807 66.391 585.807 56.8124H585.829Z"/>
  <path fill="#fff" d="M605.773 23.9475H624.441L634.871 63.3261L647.121 23.7134H662.979L675.367 63.5283L686.01 24.0007H704.316L684.094 89.4756H667.491L654.997 49.5329L642.225 89.4224H625.782L605.773 23.9475Z"/>
  <path fill="#000" d="M85 4H0V89H85V4Z"/>
  <path fill="#fff" d="M42.4999 73.1069H10.5713V78.4284H42.4999V73.1069Z"/>
  <path fill="#fff" d="M10.5713 14.5713H25.1839C29.2389 14.5713 32.3891 15.7101 34.4964 17.7641C35.4168 18.7368 36.133 19.8839 36.6028 21.1379C37.0726 22.3918 37.2864 23.7272 37.2317 25.0651V25.2141C37.334 27.3873 36.7197 29.534 35.4834 31.3241C34.247 33.1143 32.4569 34.4488 30.3883 35.1226L38.2427 46.4999H29.9732L23.1299 36.304H17.6062V46.4999H10.5713V14.5713ZM24.7263 30.0886C28.1426 30.0886 30.1116 28.2686 30.1116 25.576V25.4802C30.1116 22.4683 27.983 20.9144 24.5879 20.9144H17.6062V30.0886H24.7263Z"/>
  <path fill="#fff" d="M43.5645 14.5713H67.9259V20.957H50.6207V27.7684H65.9144V34.1541H50.6207V46.4999H43.5645V14.5713Z"/>
</svg>
