<svg xmlns="http://www.w3.org/2000/svg" width="278" height="64" fill="none" viewBox="0 0 278 64">
  <defs>
    <linearGradient id="a" x1="4.0675" x2="62.6637" y1="4.32704" y2="62.9233" gradientUnits="userSpaceOnUse">
      <stop offset=".25" stop-color="#007EFF"/>
      <stop offset=".73" stop-color="#FF0A67"/>
    </linearGradient>
    <linearGradient id="b" x1="56.3294" x2="2.87438" y1="-.390623" y2="24.3925" gradientUnits="userSpaceOnUse">
      <stop offset=".3" stop-color="#FFB700"/>
      <stop offset=".58" stop-color="#007EFF"/>
    </linearGradient>
  </defs>
  <path fill="url(#a)" d="M64 59.8777V25.7502c0-1.6582-.9931-3.155-2.5206-3.8L24.0581 6.15266c-.5181-.21875-1.0756-.32937-1.6381-.32437l-18.32875.15C1.82625 5.99641 0 7.83766 0 10.1027v17.6656c0 .8056.235625 1.5931.678125 2.2662L21.7869 62.1439c.7625 1.1606 2.0581 1.8588 3.4468 1.8588H59.875c2.2781 0 4.125-1.8469 4.125-4.125Z"/>
  <path fill="url(#b)" d="M58 14.9875V4.125C58 1.84687 56.1531 0 53.875 0H41.3094c-.2 0-.4.014375-.5981.04375L3.52688 5.49187C1.50125 5.78875 0 7.52625 0 9.57312V24.9706c0 2.2788 1.8475 4.1256 4.12625 4.125l18.50435-.0044c.4256 0 .8488-.0662 1.2538-.1956L55.13 18.9169c1.7094-.5463 2.87-2.135 2.87-3.9294Z"/>
  <path fill="#FFB700" d="M58 16.45V4.19125C58 1.8875 56.1131.03 53.8094.066875L43 0c-1.1812.01875-2.5312.78625-3.3 1.68312L6.99312 39.8412C6.3525 40.5887 6 41.5412 6 42.5256V53.875C6 56.1531 7.84687 58 10.125 58h11.0031c1.1894 0 2.3213-.5138 3.1044-1.4088l32.7469-37.425C57.6375 18.4144 58 17.4494 58 16.45Z"/>
  <path fill="#000" d="M52 12H12v40h40V12Z"/>
  <path fill="#fff" fill-rule="evenodd" d="M16.9961 16.9922h6.4419c1.0506 0 1.9756.1931 2.7762.5787.8.3857 1.4163.9288 1.8488 1.6294.4325.7006.6487 1.5113.6487 2.4331 0 .9219-.22 1.7488-.6594 2.46-.4393.7113-1.065 1.2613-1.8756 1.6507-.223.107-.4559.1994-.6987.2771l3.5556 5.9779h-3.355l-3.2351-5.6707h-2.5212v5.67h-2.9262V16.9922Zm7.5406 6.6294c.3681-.1825.6519-.4432.8519-.7825.2-.3394.3-.7344.3-1.1844 0-.45-.1-.8519-.3-1.1844-.2-.3325-.4844-.5894-.8519-.7719-.3681-.1825-.7987-.2731-1.2919-.2731h-3.3231v4.47h3.3231c.4932 0 .9238-.0919 1.2919-.2737Z" clip-rule="evenodd"/>
  <path fill="#fff" d="M32.999 43.9985h-16v3h16v-3Z"/>
  <path fill="#fff" d="M41.7559 16.9922h-10.14v15.0062h2.9263v-5.8631h6.785v-2.6475h-6.785v-3.8481h7.2137v-2.6475Z"/>
  <path fill="#fff" d="M102.05 34.21c1.58-.77 2.8-1.85 3.66-3.24.86-1.39 1.29-3 1.29-4.83s-.42-3.41-1.27-4.79c-.85-1.38-2.05-2.45-3.61-3.21-1.56-.76-3.36-1.13-5.42-1.13H84v29.96h5.33v-11.6h5.49l6.73 11.6h6.12l-7.29-12.13c.58-.17 1.15-.37 1.68-.63h-.01Zm-2.95-3.92c-.76.38-1.67.58-2.71.58h-7.06v-9.35h7.06c1.04 0 1.94.19 2.71.57.76.38 1.35.92 1.78 1.62.42.7.63 1.52.63 2.46s-.21 1.79-.63 2.49c-.42.71-1.01 1.25-1.78 1.64v-.01Zm11.68-7.55h5.76v-5.01h-5.76v5.01Zm.37 24.22h5.05V25.05h-5.05v21.92-.01Zm26.32-18.64c-.71-1.08-1.61-1.95-2.71-2.59-1.36-.8-2.95-1.2-4.76-1.2-1.95 0-3.7.49-5.23 1.47-1.53.98-2.74 2.34-3.61 4.09-.87 1.75-1.3 3.72-1.3 5.92 0 2.2.43 4.17 1.3 5.92.87 1.75 2.08 3.11 3.62 4.09s3.28 1.47 5.22 1.47c1.81 0 3.4-.4 4.76-1.2 1.1-.65 2-1.52 2.71-2.59v3.28h5.05V17h-5.05v11.32Zm-.79 11.31c-.53 1.05-1.26 1.87-2.2 2.46-.94.59-2.03.89-3.25.89-1.22 0-2.27-.29-3.21-.88-.94-.58-1.67-1.41-2.19-2.46s-.78-2.27-.78-3.64.26-2.58.78-3.63c.52-1.05 1.25-1.87 2.19-2.46.94-.59 2.01-.89 3.21-.89 1.2 0 2.31.3 3.25.89.94.59 1.68 1.41 2.2 2.46.53 1.05.79 2.26.79 3.63s-.26 2.58-.79 3.63Zm26.71-13.64c-1.68-.97-3.6-1.46-5.76-1.46-2.16 0-4.03.5-5.77 1.49-1.73.99-3.1 2.36-4.1 4.1-1 1.74-1.5 3.69-1.5 5.84s.5 4.17 1.49 5.93c.99 1.75 2.35 3.12 4.07 4.11 1.72.98 3.66 1.48 5.81 1.48 1.7 0 3.25-.26 4.64-.79 1.39-.53 2.59-1.28 3.57-2.25s1.73-2.13 2.25-3.49h-5.5c-.56.74-1.26 1.32-2.1 1.73-.84.41-1.79.62-2.85.62-1.2 0-2.27-.29-3.22-.88-.95-.58-1.69-1.4-2.23-2.45-.43-.83-.68-1.76-.78-2.77h17.29v-1.22c0-2.23-.47-4.21-1.4-5.94-.93-1.73-2.24-3.08-3.93-4.06l.02.01Zm-11.88 7.83c.13-.72.34-1.4.67-2.02.54-1.02 1.28-1.82 2.23-2.4.95-.58 2.02-.87 3.22-.87 1.2 0 2.26.3 3.18.9.92.6 1.63 1.43 2.13 2.49.28.59.47 1.22.59 1.89h-12.02v.01Zm27.99-7.71c-.83.57-1.53 1.33-2.1 2.26v-3.32h-5.01v21.92h5.05V35.14c0-1.06.22-1.97.67-2.74.45-.77 1.09-1.36 1.93-1.78.83-.41 1.82-.62 2.94-.62h1.41v-5.09h-.81c-1.55 0-2.92.4-4.09 1.21l.01-.01Zm8.06 20.85h5.33V34.97h13.83v-4.84h-13.83v-8.29h14.68V17h-20.01v29.96Zm23.25 0h5.05V17h-5.05v29.96Zm26.15-20.93c-1.75-1-3.71-1.5-5.86-1.5-2.15 0-4.13.5-5.9 1.5-1.76 1-3.14 2.37-4.14 4.12-1 1.75-1.5 3.7-1.5 5.85 0 2.15.5 4.11 1.51 5.85 1.01 1.74 2.39 3.12 4.14 4.12 1.75 1 3.71 1.5 5.86 1.5 2.15 0 4.13-.5 5.88-1.5s3.14-2.37 4.14-4.12c1-1.75 1.51-3.7 1.51-5.85 0-2.15-.5-4.11-1.51-5.85-1.01-1.75-2.39-3.12-4.14-4.12h.01Zm-.4 13.59c-.52 1.06-1.26 1.88-2.21 2.46-.96.58-2.05.88-3.27.88-1.22 0-2.32-.29-3.26-.88-.95-.58-1.68-1.41-2.2-2.46-.52-1.05-.78-2.26-.78-3.62 0-1.36.26-2.58.78-3.64s1.26-1.88 2.2-2.46c.95-.58 2.04-.88 3.26-.88 1.22 0 2.31.3 3.26.89.95.59 1.69 1.41 2.21 2.46.53 1.05.79 2.26.79 3.63s-.26 2.56-.78 3.62Zm36.23-14.57-4.32 13.78-.45 2.03-.49-2.03-4.62-13.78h-4.62l-4.58 13.78-.45 2.03-.47-2.03-4.43-13.78h-5.22l7.26 21.92h5.09l4.73-14.36.36-1.67.41 1.69 4.62 14.34h5.01l7.26-21.92h-5.09Z"/>
</svg>
