<svg id="Layer_1" data-name="Layer 1" xmlns="http://www.w3.org/2000/svg" xmlns:xlink="http://www.w3.org/1999/xlink" width="70" height="70" viewBox="0 0 70 70">
  <defs>
    <linearGradient id="linear-gradient" x1="25.06755" y1="1.45989" x2="43.18286" y2="66.67501" gradientUnits="userSpaceOnUse">
      <stop offset="0.28495" stop-color="#00cdd7"/>
      <stop offset="0.94086" stop-color="#2086d7"/>
    </linearGradient>
    <linearGradient id="linear-gradient-2" x1="30.71988" y1="9.7343" x2="61.36497" y2="54.67127" gradientUnits="userSpaceOnUse">
      <stop offset="0.13978" stop-color="#fff045"/>
      <stop offset="0.36559" stop-color="#00cdd7"/>
    </linearGradient>
    <linearGradient id="linear-gradient-3" x1="61.08194" y1="15.2899" x2="65.10653" y2="29.54363" xlink:href="#linear-gradient"/>
  </defs>
  <title>webStormEAP</title>
  <g>
    <polygon points="9.433 63.263 0 7.337 17.451 0.092 28.592 6.718 38.797 1.206 60.068 9.374 48.136 70 9.433 63.263" fill="url(#linear-gradient)"/>
    <polygon points="70 23.705 60.97 1.389 44.574 0 19.275 24.309 26.085 55.641 38.797 64.559 70 46.044 62.347 31.692 70 23.705" fill="url(#linear-gradient-2)"/>
    <polygon points="55.976 20.376 62.347 31.692 70 23.705 64.377 9.81 55.976 20.376" fill="url(#linear-gradient-3)"/>
  </g>
  <g>
    <rect x="14" y="14" width="42" height="42"/>
    <rect x="17.98999" y="48.125" width="15.75" height="2.625" fill="#fff"/>
    <path d="M38.60581,34.3317l2.22964-2.72132a7.78721,7.78721,0,0,0,5.11541,2.12207c1.54551,0,2.47517-.6239,2.47517-1.65v-.04926c0-.97279-.58759-1.47355-3.45322-2.22059-3.4531-.89891-5.68287-1.8758-5.68287-5.34417v-.05333c0-3.16876,2.49937-5.27031,6.00087-5.2703a9.79618,9.79618,0,0,1,6.36712,2.22468l-1.96,2.89784a7.933,7.933,0,0,0-4.45536-1.72392c-1.44491,0-2.20556.67316-2.20556,1.52278v.04926c0,1.14928.73658,1.52691,3.69875,2.29859,3.47729.92353,5.43734,2.2,5.43733,5.24566v.04923c0,3.47248-2.5959,5.41808-6.29465,5.41808a10.78844,10.78844,0,0,1-7.27259-2.79526" fill="#fff"/>
    <polygon points="35.199 19.431 32.608 29.593 29.64 19.431 26.69 19.431 23.721 29.593 21.13 19.431 17.071 19.431 22.045 36.857 25.314 36.857 28.165 26.775 30.98 36.857 34.289 36.857 39.259 19.431 35.199 19.431" fill="#fff"/>
  </g>
  <g>
    <rect x="37" y="53" width="33" height="17" fill="#d99e2b"/>
    <g>
      <path d="M40.05563,66.966h7.19661V65.24271H41.745V62.2975h4.82041V60.57425H41.745V57.72294h5.43874V55.99969H40.05563Z"/>
      <path d="M48.15627,66.966h1.86832l1.06757-2.6268h4.9082l1.05281,2.6268h1.9277l-4.5671-10.95841h-1.6904Zm3.60316-4.321,1.77945-4.35241L55.33309,62.645Z"/>
      <path d="M59.87536,66.966h1.62869V63.44109h1.84026a3.50288,3.50288,0,0,0,3.70715-3.74426v-.03124a3.3623,3.3623,0,0,0-3.52185-3.6659H59.87536Zm1.62869-5.26364V57.75418h1.89333a1.80657,1.80657,0,0,1,1.99894,1.95836V59.744a1.86935,1.86935,0,0,1-1.99894,1.95836Z"/>
    </g>
  </g>
  <g>
    <rect x="37" y="53" width="33" height="17" fill="#d99e2b"/>
    <g>
      <path d="M40.05563,66.966h7.19661V65.24271H41.745V62.2975h4.82041V60.57425H41.745V57.72294h5.43874V55.99969H40.05563Z"/>
      <path d="M48.15627,66.966h1.86832l1.06757-2.6268h4.9082l1.05281,2.6268h1.9277l-4.5671-10.95841h-1.6904Zm3.60316-4.321,1.77945-4.35241L55.33309,62.645Z"/>
      <path d="M59.87536,66.966h1.62869V63.44109h1.84026a3.50285,3.50285,0,0,0,3.70715-3.74426v-.03124a3.36233,3.36233,0,0,0-3.52185-3.6659H59.87536Zm1.62869-5.26364V57.75418h1.89333a1.80658,1.80658,0,0,1,1.99894,1.95836V59.744a1.86938,1.86938,0,0,1-1.99894,1.95836Z"/>
    </g>
  </g>
</svg>
