<svg xmlns="http://www.w3.org/2000/svg" width="70" height="70" fill="none" viewBox="0 0 70 70">
  <defs>
    <linearGradient id="a" x1="25.0676" x2="43.1829" y1="1.45995" y2="66.6751" gradientUnits="userSpaceOnUse">
      <stop offset="0.2849" stop-color="#07C3F2"/>
      <stop offset="0.9409" stop-color="#087CFA"/>
    </linearGradient>
    <linearGradient id="b" x1="30.7197" x2="61.3649" y1="9.7343" y2="54.6713" gradientUnits="userSpaceOnUse">
      <stop offset="0.1398" stop-color="#FCF84A"/>
      <stop offset="0.3656" stop-color="#07C3F2"/>
    </linearGradient>
    <linearGradient id="c" x1="61.0818" x2="65.1064" y1="15.2899" y2="29.5436" gradientUnits="userSpaceOnUse">
      <stop offset="0.2849" stop-color="#07C3F2"/>
      <stop offset="0.9409" stop-color="#087CFA"/>
    </linearGradient>
  </defs>
  <path fill="url(#a)" d="M9.40625 63.2918L0 7.36466L17.4271 0.072998L28.5833 6.70841L38.7917 1.23966L60.0833 9.40633L48.125 70.0001L9.40625 63.2918Z"/>
  <path fill="url(#b)" d="M69.9999 23.6979L60.9582 1.38542L44.552 0L19.2499 24.2813L26.104 55.6354L38.7915 64.5313L69.9999 46.0104L62.3436 31.7188L69.9999 23.6979Z"/>
  <path fill="url(#c)" d="M55.9999 20.3438L62.3436 31.7188L69.9999 23.6979L64.3853 9.84375L55.9999 20.3438Z"/>
  <g>
    <path fill="#000000" d="M56 14H14V56H56V14Z"/>
    <path fill="#FFFFFF" d="M34.4166 48.6499H18.6666V51.3332H34.4166V48.6499Z"/>
    <path fill="#FFFFFF" d="M34.16 19.25L31.78 28.42L29.12 19.25H26.46L23.8 28.42L21.42 19.25H17.78L22.26 35H25.2L27.79 25.9L30.31 35H33.32L37.8 19.25H34.16Z"/>
    <path fill="#FFFFFF" d="M38.5 32.76L40.53 30.31C41.93 31.5 43.47 32.2 45.22 32.2C46.62 32.2 47.53 31.64 47.53 30.73V30.66C47.53 29.75 46.97 29.33 44.38 28.63C41.23 27.79 39.13 26.95 39.13 23.8V23.73C39.13 20.86 41.44 18.97 44.66 18.97C46.97 18.97 48.93 19.67 50.54 21L48.72 23.59C47.32 22.61 45.92 22.05 44.59 22.05C43.26 22.05 42.56 22.68 42.56 23.45V23.52C42.56 24.57 43.26 24.92 45.99 25.62C49.21 26.46 51.03 27.58 51.03 30.38V30.45C51.03 33.6 48.65 35.35 45.22 35.35C42.77 35.28 40.39 34.44 38.5 32.76Z"/>
  </g>
  <g>
    <rect x="37" y="53" width="33" height="17" fill="#d99e2b"/>
    <path fill="#000000" d="M40.05563,66.966h7.19661V65.24271H41.745V62.2975h4.82041V60.57425H41.745V57.72294h5.43874V55.99969H40.05563Z"/>
    <path fill="#000000" d="M48.15627,66.966h1.86832l1.06757-2.6268h4.9082l1.05281,2.6268h1.9277l-4.5671-10.95841h-1.6904Zm3.60316-4.321,1.77945-4.35241L55.33309,62.645Z"/>
    <path fill="#000000" d="M59.87536,66.966h1.62869V63.44109h1.84026a3.50285,3.50285,0,0,0,3.70715-3.74426v-.03124a3.36233,3.36233,0,0,0-3.52185-3.6659H59.87536Zm1.62869-5.26364V57.75418h1.89333a1.80658,1.80658,0,0,1,1.99894,1.95836V59.744a1.86938,1.86938,0,0,1-1.99894,1.95836Z"/>
  </g>
</svg>
