<svg xmlns="http://www.w3.org/2000/svg" width="292" height="64" fill="none" viewBox="0 0 292 64">
  <defs>
    <linearGradient id="a" x1="7.61555" x2="61.2417" y1="64.7192" y2="39.8564" gradientUnits="userSpaceOnUse">
      <stop offset=".22" stop-color="#F0EB18"/>
      <stop offset=".59" stop-color="#00C4F4"/>
    </linearGradient>
    <linearGradient id="b" x1="60.0127" x2="1.30731" y1="59.7777" y2="1.07287" gradientUnits="userSpaceOnUse">
      <stop offset=".19" stop-color="#00C4F4"/>
      <stop offset=".83" stop-color="#007DFE"/>
    </linearGradient>
  </defs>
  <path fill="#fff" d="m120.464 16.99-6.76 23.18-6.85-23.18h-5.65l-6.6996 23.18-6.98-23.18h-5.54l9.27 29.96h5.88l6.8296-23.07 6.76 23.07h5.91l9.25-29.96h-5.42Zm22.25 8.99c-1.68-.97-3.6-1.46-5.76-1.46-2.16 0-4.03.5-5.77 1.49-1.73.99-3.1 2.36-4.1 4.1-1 1.74-1.5 3.69-1.5 5.84s.5 4.17 1.49 5.93c.99 1.75 2.35 3.12 4.07 4.11 1.72.98 3.66 1.48 5.81 1.48 1.7 0 3.25-.26 4.64-.79 1.39-.53 2.59-1.28 3.57-2.25s1.73-2.13 2.25-3.49h-5.5c-.56.74-1.26 1.32-2.1 1.73-.84.41-1.79.62-2.85.62-1.2 0-2.27-.29-3.22-.88-.95-.58-1.69-1.4-2.23-2.45-.43-.83-.68-1.76-.78-2.77h17.29v-1.22c0-2.23-.47-4.21-1.4-5.94-.93-1.73-2.24-3.08-3.93-4.06l.02.01Zm-11.88 7.83c.13-.72.34-1.4.67-2.02.54-1.02 1.28-1.82 2.23-2.4.95-.58 2.02-.87 3.22-.87 1.2 0 2.26.3 3.18.9.92.6 1.63 1.43 2.13 2.49.28.59.47 1.22.59 1.89h-12.02v.01Zm38.64-7.82c-1.53-.98-3.27-1.47-5.21-1.47-1.81 0-3.4.4-4.77 1.2-1.11.65-2.01 1.52-2.72 2.6V16.98h-5.05v29.96h5.05v-3.29c.71 1.08 1.61 1.96 2.72 2.6 1.37.8 2.95 1.2 4.75 1.2 1.96 0 3.7-.49 5.23-1.47 1.53-.98 2.74-2.34 3.61-4.09.87-1.75 1.31-3.72 1.31-5.92 0-2.2-.44-4.17-1.31-5.92-.87-1.75-2.07-3.11-3.61-4.09v.03Zm-1.05 13.63c-.52 1.05-1.25 1.87-2.19 2.46-.94.59-2.01.89-3.21.89-1.2 0-2.31-.29-3.25-.88-.94-.58-1.68-1.41-2.21-2.46-.53-1.06-.79-2.27-.79-3.64s.26-2.58.79-3.63c.53-1.05 1.26-1.87 2.21-2.46.94-.59 2.03-.89 3.25-.89 1.22 0 2.27.3 3.21.89.94.59 1.67 1.41 2.19 2.46s.78 2.26.78 3.63-.26 2.58-.78 3.63Zm26.99-8.25c-1.14-.83-2.44-1.4-3.9-1.73l-5.05-1.13c-1.01-.27-1.81-.7-2.4-1.27-.59-.58-.88-1.32-.88-2.21 0-.8.21-1.5.62-2.1.41-.6.99-1.06 1.73-1.39.74-.33 1.6-.49 2.57-.49.97 0 1.85.17 2.6.51.75.34 1.33.83 1.73 1.46.41.63.61 1.33.61 2.12h5.35c-.01-1.68-.46-3.18-1.33-4.48-.87-1.3-2.09-2.33-3.66-3.06-1.57-.73-3.36-1.1-5.37-1.1-2.01 0-3.73.38-5.29 1.13-1.56.76-2.77 1.8-3.64 3.12-.87 1.33-1.31 2.83-1.31 4.52 0 1.38.29 2.63.88 3.75.58 1.11 1.41 2.05 2.46 2.8s2.29 1.3 3.7 1.63l5.22 1.18c1.1.27 1.96.75 2.59 1.42.63.68.94 1.54.94 2.58 0 .84-.22 1.59-.67 2.24-.45.65-1.08 1.16-1.91 1.52-.82.36-1.77.55-2.86.55-1.09 0-2.12-.2-2.99-.6-.87-.4-1.54-.95-2.02-1.66s-.73-1.52-.73-2.45h-5.35c.01 1.83.49 3.44 1.42 4.84.93 1.4 2.23 2.49 3.88 3.26 1.65.77 3.55 1.17 5.69 1.17 2.14 0 4.02-.4 5.68-1.19 1.66-.79 2.95-1.88 3.87-3.26.92-1.38 1.38-2.94 1.38-4.67 0-1.43-.32-2.74-.95-3.94-.63-1.2-1.52-2.21-2.66-3.04l.05-.03Zm14.74-11.68h-4.71v3.55c0 .53-.16.96-.49 1.29-.33.33-.76.5-1.31.5h-2.4l-.02 4.39h3.85l.02 11.71c0 1.11.26 2.11.78 3 .52.89 1.25 1.58 2.18 2.08.93.5 1.99.75 3.16.75h4.73v-4.39h-3.72c-.6 0-1.09-.2-1.49-.59-.39-.39-.59-.89-.59-1.49l-.02-11.06h5.82l.02-4.39h-5.82v-5.35h.01Zm24.53 6.33c-1.75-1-3.71-1.5-5.86-1.5-2.15 0-4.13.5-5.9 1.5-1.76 1-3.14 2.37-4.14 4.12-1 1.75-1.5 3.7-1.5 5.85 0 2.15.5 4.11 1.51 5.85 1.01 1.74 2.39 3.12 4.14 4.12 1.75 1 3.71 1.5 5.86 1.5 2.15 0 4.13-.5 5.88-1.5s3.14-2.37 4.14-4.12c1-1.75 1.51-3.7 1.51-5.85 0-2.15-.5-4.11-1.51-5.85-1.01-1.75-2.39-3.12-4.14-4.12h.01Zm-.4 13.59c-.52 1.06-1.26 1.88-2.21 2.46-.96.58-2.05.88-3.27.88-1.22 0-2.32-.29-3.26-.88-.95-.58-1.68-1.41-2.2-2.46-.52-1.05-.78-2.26-.78-3.62 0-1.36.26-2.58.78-3.64s1.26-1.88 2.2-2.46c.95-.58 2.04-.88 3.26-.88 1.22 0 2.31.3 3.26.89.95.59 1.69 1.41 2.21 2.46.53 1.05.79 2.26.79 3.63s-.26 2.56-.78 3.62Zm16.8-13.52c-.83.57-1.53 1.33-2.1 2.26v-3.32h-5.01v21.92h5.05V35.12c0-1.06.22-1.97.67-2.74.45-.77 1.09-1.36 1.93-1.78.83-.41 1.82-.62 2.94-.62h1.41v-5.09h-.81c-1.55 0-2.92.4-4.09 1.21l.01-.01Zm39.79 2.5c-.64-1.3-1.54-2.3-2.72-3.01-1.18-.71-2.54-1.06-4.1-1.06-1.68 0-3.15.4-4.41 1.2-1.14.73-2.03 1.74-2.7 3.01l-.06-.15c-.61-1.3-1.49-2.3-2.62-3.01-1.13-.71-2.48-1.06-4.03-1.06-1.55 0-2.96.39-4.12 1.17-.98.66-1.76 1.57-2.37 2.71v-3.36h-4.9v21.92h5.05V34.24c0-1.07.19-2 .58-2.8.39-.8.93-1.41 1.65-1.84.71-.43 1.55-.64 2.5-.64.88 0 1.64.19 2.28.58.63.38 1.12.93 1.46 1.65.33.71.5 1.56.5 2.55v13.23h4.94V34.26c0-1.07.2-2 .59-2.8.39-.8.95-1.41 1.67-1.84.72-.43 1.55-.64 2.49-.64.88 0 1.64.19 2.27.58.63.38 1.11.93 1.44 1.65.33.71.5 1.56.5 2.55v13.23h5.05V33.16c0-1.73-.32-3.24-.95-4.54l.01-.03Z"/>
  <path fill="#F0EB18" d="m5.8125 48.0551.00175 11.8755c0 2.2493 1.82341 4.0721 4.07272 4.0721H21.3936c1.1886 0 2.3185-.5196 3.0924-1.422l32.7098-38.1614c.6324-.7383.9803-1.6786.9803-2.6508V9.89304c0-2.24931-1.8234-4.07273-4.0727-4.07273H42.595c-1.1886 0-2.3185.51957-3.0923 1.42197L6.79286 45.4037c-.63301.7384-.98036 1.6786-.98036 2.6514Z"/>
  <path fill="url(#a)" d="M5.8125 49.4825v10.4466c0 2.2493 1.82342 4.0727 4.07273 4.0727H22.9779c.1926 0 .3851-.014.576-.0407l36.9437-5.2771c2.0067-.2868 3.4967-2.005 3.4967-4.032V38.979c0-2.2499-1.824-4.0733-4.0739-4.0727l-18.5385.0046c-.4375 0-.8721.0704-1.2869.2089L8.59708 45.6193c-1.66283.5544-2.78458 2.1108-2.78458 3.8638v-.0006Z"/>
  <path fill="url(#b)" d="M-.00586 4.07273V38.041c0 1.6291.971055 3.1017 2.46807 3.7434L39.9528 57.8525c.5068.217 1.0531.3293 1.6047.3293h18.3639c2.2493 0 4.0727-1.8234 4.0727-4.0727v-17.966c0-.8046-.2385-1.5913-.6854-2.2609L41.9054 1.81353C41.1502.681309 39.8795.001745 38.5181.001745L4.06687 0C1.81756 0-.00586 1.82342-.00586 4.07273Z"/>
  <path fill="#000" d="M51.9941 12h-40v40h40V12Z"/>
  <path fill="#fff" d="m21.2318 27.961-2.4223-10.9532h-3.0322l3.6224 15.0044h3.3226l2.5614-10.8998 2.5291 10.8998h3.333L34.79 17.0078h-2.969L29.4739 27.961 26.773 17.0078h-2.958L21.2318 27.961Z"/>
  <path fill="#fff" d="M38.2165 31.6804c.8429.3927 1.8075.5896 2.8938.5896s2.0514-.1998 2.8943-.6005c.8429-.4008 1.4968-.9503 1.9613-1.6507.4714-.7074.7074-1.5049.7074-2.3903 0-.7222-.1608-1.3865-.4823-1.9934-.3215-.6149-.7717-1.1294-1.3504-1.5434-.5719-.422-1.2253-.7073-1.9613-.8572l-2.551-.5575c-.4645-.1137-.8325-.3066-1.1041-.5787-.2647-.2722-.3968-.615-.3968-1.0289 0-.364.0965-.6815.2894-.9537.1929-.2785.4611-.4932.8038-.643.3497-.1568.7539-.236 1.2109-.236.4571 0 .8607.0815 1.2109.2463.3572.1567.6322.3818.8251.6752.1929.2854.2894.6109.2894.9755h2.9259c-.0075-.8572-.236-1.614-.6862-2.272-.4432-.6648-1.0644-1.1833-1.8648-1.5542-.8004-.3715-1.7254-.5575-2.733-.5575s-1.9079.1929-2.7008.5788c-.7929.3789-1.4107.9106-1.854 1.5967-.4427.6792-.6643 1.4469-.6643 2.3041 0 .7073.1464 1.3441.4392 1.9079.2934.5644.704 1.0398 1.2328 1.4256.5288.379 1.1506.6471 1.8648.8038l2.6475.5897c.5075.1223.9037.3393 1.1896.654.2928.3146.4392.7113.4392 1.1896 0 .3859-.1073.7286-.3215 1.0289-.2073.3003-.5035.5357-.8894.7074-.3789.1648-.8003.2463-1.3291.2463-.5288 0-.9968-.0925-1.4038-.2785-.4071-.186-.7252-.4432-.9537-.7716-.2285-.3279-.3428-.7114-.3428-1.1466h-2.9368c.0144.9215.2572 1.7362.7286 2.4436.4789.7073 1.1363 1.2579 1.9722 1.6507Z"/>
  <path fill="#fff" d="M16.9873 44h16v3h-16v-3Z"/>
</svg>
