<svg xmlns="http://www.w3.org/2000/svg" width="702" height="90" fill="none" viewBox="0 0 702 90">
  <path fill="#000" d="M111.537 4.05667H131.403L148.914 61.2727L167.859 3.81543H183.837L202.781 61.2727L220.278 4.05667H239.705L210.87 89.1995H194.693L175.621 33.8567L156.549 89.1995H140.386L111.537 4.05667Z"/>
  <path fill="#000" d="M231.588 56.5608V56.3195C231.588 37.8719 244.742 22.6455 263.573 22.6455C285.171 22.6455 295.076 39.4328 295.076 57.7669C295.076 59.186 294.948 60.903 294.835 62.6059H249.808C251.625 70.9215 257.415 75.278 265.617 75.278C271.775 75.278 276.245 73.3339 281.311 68.6368L291.812 77.9316C285.781 85.41 277.083 89.9935 265.375 89.9935C245.949 89.9935 231.588 76.3565 231.588 56.5608V56.5608ZM277.21 51.1258C276.118 42.9237 271.293 37.3752 263.573 37.3752C255.854 37.3752 251.015 42.8102 249.567 51.1258H277.21Z"/>
  <path fill="#000" d="M320.094 80.103V88.5463H301.746V0.380859H320.094V33.1467C324.564 27.1157 330.708 22.6457 340.244 22.6457C355.343 22.6457 369.704 34.4806 369.704 56.0785V56.3197C369.704 77.9318 355.584 89.7525 340.244 89.7525C336.366 89.8266 332.524 88.9927 329.025 87.3172C325.526 85.6417 322.468 83.1712 320.094 80.103V80.103ZM351.313 56.3197V56.0785C351.313 45.3363 344.076 38.2127 335.505 38.2127C326.934 38.2127 319.924 45.3363 319.924 56.0785V56.3197C319.924 67.0761 327.019 74.1713 335.533 74.1713C344.047 74.1713 351.355 67.1896 351.355 56.3197H351.313Z"/>
  <path fill="#000" d="M370.399 76.2428L381.383 63.0883C388.975 69.3604 396.992 73.3338 406.599 73.3338C414.205 73.3338 418.789 70.3254 418.789 65.3729V65.1317C418.789 60.4204 415.951 58.0364 401.76 54.3895C384.76 50.0472 373.848 45.336 373.848 28.5628V28.3216C373.848 12.9959 386.151 2.84968 403.421 2.84968C414.81 2.67249 425.905 6.47116 434.796 13.5919L425.132 27.5979C417.654 22.4042 410.289 19.2681 403.179 19.2681C396.07 19.2681 392.295 22.5319 392.295 26.6329V26.8742C392.295 32.4226 395.914 34.239 410.516 37.9711C427.658 42.4411 437.322 48.5998 437.322 63.3295V63.5707C437.322 80.3439 424.55 89.7522 406.301 89.7522C393.081 89.8137 380.3 85.0046 370.399 76.2428V76.2428Z"/>
  <path fill="#000" d="M445.339 70.1983V39.5469H437.605V23.8522H445.339V7.32031H463.688V23.8522H478.857V39.5469H463.688V67.1899C463.688 71.4471 465.49 73.4621 469.591 73.4621C472.755 73.4751 475.87 72.6841 478.644 71.1633V85.893C474.269 88.4813 469.252 89.78 464.17 89.6393C452.945 89.6393 445.339 85.1693 445.339 70.1983V70.1983Z"/>
  <path fill="#000" d="M481.298 56.5608V56.3195C481.298 37.73 496.255 22.6455 516.419 22.6455C536.584 22.6455 551.299 37.4887 551.299 56.0783V56.3195C551.299 74.909 536.328 89.9935 516.178 89.9935C496.028 89.9935 481.298 75.1503 481.298 56.5608ZM533.192 56.5608V56.3195C533.192 46.7835 526.31 38.4537 516.164 38.4537C505.663 38.4537 499.377 46.5423 499.377 56.0783V56.3195C499.377 65.8555 506.259 74.1853 516.405 74.1853C526.92 74.1711 533.192 66.0968 533.192 56.5608Z"/>
  <path fill="#000" d="M556.806 23.8521H575.154V36.8932C578.886 27.9532 584.931 22.1634 595.787 22.7027V41.8456H594.822C582.632 41.8456 575.154 49.1963 575.154 64.6497V88.5465H556.806V23.8521Z"/>
  <path fill="#000" d="M602.314 23.8522H620.663V33.0193C624.92 27.5843 630.44 22.6318 639.735 22.6318C648.178 22.6318 654.578 26.3781 657.955 32.8916C663.631 26.2504 670.386 22.6318 679.241 22.6318C692.878 22.6318 701.08 30.8481 701.08 46.4151V88.5466H682.718V52.4602C682.718 43.7756 678.844 39.3056 671.976 39.3056C665.107 39.3056 660.864 43.7756 660.864 52.4602V88.5466H642.516V52.4602C642.516 43.7756 638.656 39.3056 631.774 39.3056C624.892 39.3056 620.677 43.7756 620.677 52.4602V88.5466H602.314V23.8522Z"/>
  <path fill="#000" d="M0 4H85V89H0V4Z"/>
  <path fill="#fff" d="M10.543 72.9795H42.4715V78.3009H10.543V72.9795Z"/>
  <path fill="#fff" d="M40.7688 14.5293L36.015 33.1614L30.58 14.5293H25.1734L19.7243 33.1614L14.9847 14.5293H7.53467L16.6591 46.4721H22.6475L27.8696 27.9819L33.035 46.4721H39.0943L48.2046 14.5293H40.7688Z"/>
  <path fill="#fff" d="M49.5386 41.9168L53.6964 36.9359C56.3082 39.3479 59.7069 40.7296 63.2608 40.8241C66.0989 40.8241 67.8869 39.6747 67.8869 37.8016V37.7164C67.8869 35.9284 66.78 35.006 61.4302 33.6438C54.9735 31.9977 50.8157 30.2097 50.8157 23.8523V23.753C50.8157 17.9491 55.4844 14.1035 62.0262 14.1035C66.3446 14.0271 70.5529 15.4684 73.9178 18.1761L70.2567 23.4834C67.8644 21.6118 64.9589 20.513 61.9269 20.3331C59.2307 20.3331 57.8116 21.5677 57.8116 23.1712V23.2705C57.8116 25.3707 59.2307 26.1086 64.7224 27.5277C71.2216 29.2305 74.8828 31.5578 74.8828 37.1346V37.234C74.8828 43.5913 70.0296 47.1673 63.1189 47.1673C58.1165 47.1857 53.2825 45.3622 49.5386 42.0445"/>
</svg>
