<svg xmlns="http://www.w3.org/2000/svg" width="128" height="128" fill="none" viewBox="0 0 128 128">
  <defs>
    <linearGradient id="a" x1="15.3413" x2="122.251" y1="128.785" y2="79.2188" gradientUnits="userSpaceOnUse">
      <stop offset=".22" stop-color="#F0EB18"/>
      <stop offset=".59" stop-color="#00C4F4"/>
    </linearGradient>
    <linearGradient id="b" x1="119.865" x2="2.67374" y1="119.351" y2="2.15875" gradientUnits="userSpaceOnUse">
      <stop offset=".19" stop-color="#00C4F4"/>
      <stop offset=".83" stop-color="#007DFE"/>
    </linearGradient>
  </defs>
  <path fill="#F0EB18" d="M12 95.0987v24.5173c0 4.608 3.7738 8.323 8.3813 8.249l22.0862-.353c2.3625-.037 4.595-1.086 6.1325-2.88l65.414-76.3158c1.281-1.495 1.986-3.4 1.986-5.3687V20.25c0-4.5563-3.694-8.25-8.25-8.25H85.7438c-2.3788 0-4.6425 1.0275-6.2088 2.8175L14.0413 89.6663C12.725 91.17 12 93.1 12 95.0987Z"/>
  <path fill="url(#a)" d="M12 98.03v21.724c0 4.556 3.6937 8.25 8.25 8.25h25.1312c.4 0 .8-.029 1.1963-.088l74.3705-10.896c4.051-.594 7.053-4.069 7.053-8.162V78.0625c0-4.5575-3.695-8.2512-8.252-8.25l-37.009.0088c-.8513 0-1.6975.1325-2.5075.3912L17.7412 90.17c-3.4187 1.0925-5.7399 4.27-5.7399 7.8588L12 98.03Z"/>
  <path fill="url(#b)" d="M0 8.25v68.255c0 3.3162 1.98625 6.31 5.04125 7.6L79.8838 115.7c1.0362.437 2.1512.659 3.2762.649l36.657-.3c4.53-.038 8.183-3.72 8.183-8.25V72.4675c0-1.6113-.471-3.1863-1.356-4.5325L84.4262 3.71875C82.9 1.3975 80.31 0 77.5325 0H8.25C3.69375 0 0 3.69375 0 8.25Z"/>
  <path fill="#000" d="M104 24H24v80h80V24Z"/>
  <path fill="#fff" d="M66 88H34v6h32v-6Z"/>
  <path fill="#fff" d="m38.1007 33.9922 4.845 21.9087 5.1663-21.9087h5.9162l5.4025 21.9087 4.695-21.9087h5.9388l-7.2888 30.0125h-6.6675l-5.0587-21.8025-5.1238 21.8025h-6.6462l-7.2463-30.0125h6.0675Z"/>
  <path fill="#fff" d="M77.32 63.3366c-1.68-.7863-2.9937-1.8863-3.945-3.3013-.95-1.415-1.44-3.0437-1.4688-4.8875H77.78c0 .8713.2287 1.6363.6862 2.2938s1.0938 1.1725 1.9075 1.5437c.815.3713 1.75.5575 2.8088.5575 1.0587 0 1.9037-.1675 2.6687-.5037.7638-.3363 1.3575-.8038 1.7788-1.4038.4212-.6.6325-1.2862.6325-2.0575 0-.9575-.29-1.75-.8688-2.38-.5787-.6287-1.375-1.065-2.39-1.3075l-5.295-1.1787c-1.4287-.3138-2.6724-.8538-3.7299-1.6188s-1.8801-1.7112-2.4651-2.84c-.5862-1.1287-.8787-2.4012-.8787-3.8162 0-1.715.4425-3.255 1.3287-4.62.8863-1.365 2.1226-2.43 3.7088-3.1938 1.5863-.765 3.3875-1.1462 5.4025-1.1462 2.015 0 3.8663.3712 5.4663 1.115 1.6.7437 2.8475 1.7762 3.7412 3.0975.8925 1.3225 1.3462 2.84 1.3612 4.555h-5.8524c0-.7288-.1925-1.3825-.5788-1.9613-.3862-.5787-.9325-1.0287-1.64-1.35-.7075-.3212-1.5188-.4825-2.4338-.4825-.915 0-1.7187.1538-2.4112.4613-.6937.3075-1.2325.7362-1.6188 1.2862-.3862.55-.5787 1.19-.5787 1.9188 0 .8287.2675 1.515.8037 2.0575.5363.5437 1.2675.9287 2.1975 1.1575l5.1026 1.115c1.4712.3 2.7824.8687 3.9337 1.7037 1.15.8363 2.0475 1.865 2.69 3.0875.6425 1.2225.965 2.555.965 3.9975 0 1.7725-.4688 3.3625-1.4038 4.77-.9362 1.4075-2.2474 2.5113-3.9337 3.3125-1.6862.8-3.6163 1.2-5.7875 1.2-2.1713 0-4.0988-.3937-5.7775-1.1787v-.0025Z"/>
  <path fill="#FDB60D" d="M112.377 128H47.623A15.622 15.622 0 0 1 32 112.377V95.623A15.623 15.623 0 0 1 47.623 80h64.754A15.622 15.622 0 0 1 128 95.623v16.754A15.62 15.62 0 0 1 112.377 128Z"/>
  <path fill="#000" d="M49.825 93.512h16.477v4.277H54.6v4.431h10.3v4.275H54.6v4.588h11.86v4.275H49.825V93.512Zm28.398-.154h4.431l9.362 22h-5.024l-1.997-4.899h-9.237l-1.997 4.899h-4.899l9.36-22Zm5.057 12.857-2.904-7.085-2.901 7.085h5.805Zm12.107-12.703h8.926c5.211 0 8.363 3.09 8.363 7.552v.063c0 5.055-3.932 7.678-8.83 7.678h-3.652v6.553h-4.807V93.512ZM104 104.53a3.382 3.382 0 0 0 3.807-3.308v-.063c0-2.152-1.497-3.308-3.901-3.308h-3.712v6.679H104Z"/>
</svg>
