<svg xmlns="http://www.w3.org/2000/svg" width="64" height="64" fill="none" viewBox="0 0 64 64">
  <defs>
    <linearGradient id="a" x1="7.67063" x2="61.1256" y1="64.3925" y2="39.6094" gradientUnits="userSpaceOnUse">
      <stop offset=".22" stop-color="#F0EB18"/>
      <stop offset=".59" stop-color="#00C4F4"/>
    </linearGradient>
    <linearGradient id="b" x1="59.9325" x2="1.33687" y1="59.6756" y2="1.07937" gradientUnits="userSpaceOnUse">
      <stop offset=".19" stop-color="#00C4F4"/>
      <stop offset=".83" stop-color="#007DFE"/>
    </linearGradient>
  </defs>
  <path fill="#F0EB18" d="M6 47.5494v12.2587c0 2.3038 1.88688 4.1613 4.1906 4.1244l11.0431-.1763c1.1813-.0187 2.2975-.5431 3.0663-1.44l32.7069-38.1581c.6406-.7475.9931-1.7.9931-2.6844V10.125C58 7.84687 56.1531 6 53.875 6H42.8719c-1.1894 0-2.3213.51375-3.1044 1.40875L7.02063 44.8331C6.3625 45.585 6 46.55 6 47.5494Z"/>
  <path fill="url(#a)" d="M6 49.015v10.8619c0 2.2781 1.84687 4.125 4.125 4.125h12.5656c.2 0 .4-.0144.5981-.0438L60.4738 58.51c2.0256-.2969 3.5268-2.0344 3.5268-4.0812V39.0312c0-2.2787-1.8475-4.1256-4.1262-4.1249l-18.5044.0043c-.4256 0-.8488.0663-1.2538.1957L8.87062 45.085c-1.70937.5463-2.86999 2.135-2.86999 3.9294L6 49.015Z"/>
  <path fill="url(#b)" d="M0 4.125v34.1275c0 1.6581.993125 3.155 2.52063 3.8L39.9419 57.85c.5181.2187 1.0756.3294 1.6381.3244l18.3287-.15c2.265-.0188 4.0913-1.86 4.0913-4.125V36.2337c0-.8056-.2356-1.5931-.6781-2.2662L42.2131 1.85938C41.45.69875 40.155 0 38.7663 0H4.125C1.84687 0 0 1.84687 0 4.125Z"/>
  <path fill="#000" d="M52 12H12v40h40V12Z"/>
  <path fill="#fff" d="M33 44H17v3h16v-3Z"/>
  <path fill="#fff" d="m19.0513 16.9922 2.4225 10.9544 2.5832-10.9544h2.9581l2.7012 10.9544 2.3475-10.9544h2.9694l-3.6444 15.0062h-3.3337l-2.5294-10.9012-2.5619 10.9012h-3.3231l-3.6231-15.0062h3.0337Z"/>
  <path fill="#fff" d="M38.662 31.6644c-.84-.3931-1.4969-.9431-1.9725-1.6506-.475-.7075-.72-1.5219-.7344-2.4438h2.9369c0 .4356.1143.8181.3431 1.1469.2287.3287.5469.5862.9537.7719.4075.1856.875.2787 1.4044.2787.5294 0 .9519-.0837 1.3344-.2519.3819-.1681.6787-.4018.8894-.7018.2106-.3.3162-.6432.3162-1.0288 0-.4788-.145-.875-.4344-1.19-.2893-.3144-.6875-.5325-1.195-.6538l-2.6475-.5893c-.7143-.1569-1.3362-.4269-1.865-.8094-.5287-.3825-.94-.8556-1.2325-1.42-.2931-.5644-.4393-1.2006-.4393-1.9081 0-.8575.2212-1.6275.6643-2.31.4432-.6825 1.0613-1.215 1.8544-1.5969.7931-.3825 1.6938-.5731 2.7013-.5731 1.0075 0 1.9331.1856 2.7331.5575.8.3719 1.4237.8881 1.8706 1.5487.4463.6613.6731 1.42.6806 2.2775h-2.9262c0-.3643-.0963-.6912-.2894-.9806s-.4662-.5144-.82-.675c-.3537-.1606-.7594-.2412-1.2169-.2412-.4575 0-.8593.0768-1.2056.2306-.3469.1537-.6162.3681-.8094.6431-.1931.275-.2893.595-.2893.9594 0 .4144.1337.7575.4018 1.0287.2682.2719.6338.4644 1.0988.5788l2.5512.5575c.7357.15 1.3913.4344 1.9669.8519.575.4181 1.0238.9325 1.345 1.5437.3213.6113.4825 1.2775.4825 1.9988 0 .8862-.2344 1.6812-.7019 2.385-.4681.7037-1.1237 1.2556-1.9668 1.6562-.8432.4-1.8082.6-2.8938.6-1.0856 0-2.0494-.1969-2.8887-.5894v-.0012Z"/>
  <path fill="#FDB60D" d="M56.1887 64H23.8113c-2.0716 0-4.0585-.8229-5.5234-2.2878C16.823 60.2473 16 58.2604 16 56.1887v-8.3774c0-1.0258.202-2.0416.5946-2.9893.3926-.9477.968-1.8088 1.6933-2.5342a7.812297 7.812297 0 0 1 2.5342-1.6932C21.7698 40.202 22.7855 40 23.8113 40h32.3774c2.0717 0 4.0585.8229 5.5234 2.2878C63.177 43.7527 64 45.7396 64 47.8113v8.3774c0 2.0717-.823 4.0586-2.2879 5.5235S58.2604 64 56.1887 64Z"/>
  <path fill="#000" d="M24.9121 46.7578h8.2388v2.1384h-5.8515v2.2157h5.1495v2.1374h-5.1495v2.2939h5.9297v2.1375h-8.317V46.7578Z"/>
  <path fill="#000" d="M39.1118 46.6797h2.2157l4.6812 11h-2.5123l-.9986-2.4494h-4.6182l-.9986 2.4494h-2.4494l4.6802-11Zm2.5286 6.4285-1.4517-3.5424-1.4507 3.5424h2.9024Z"/>
  <path fill="#000" d="M47.6934 46.7578h4.4627c2.6058 0 4.1814 1.5452 4.1814 3.776v.0315c0 2.5275-1.9657 3.839-4.415 3.839H50.097v3.2762h-2.4036V46.7578Zm4.3063 5.5082c.2362.03.476.0098.7038-.0593s.4384-.1856.6182-.3417c.1797-.1561.3244-.3484.4246-.5643.1003-.216.1538-.4506.1571-.6886v-.0315c0-1.0759-.7487-1.6538-1.9505-1.6538H50.097v3.3392h1.9027Z"/>
</svg>
