<svg height="70" viewBox="0 0 70 70" width="70" xmlns="http://www.w3.org/2000/svg" xmlns:xlink="http://www.w3.org/1999/xlink"><linearGradient id="a" gradientUnits="userSpaceOnUse" x1="25.06755" x2="43.18286" y1="1.45989" y2="66.67501"><stop offset=".28495" stop-color="#00cdd7"/><stop offset=".94086" stop-color="#2086d7"/></linearGradient><linearGradient id="b" gradientUnits="userSpaceOnUse" x1="30.71988" x2="61.36497" y1="9.7343" y2="54.67127"><stop offset=".13978" stop-color="#fff045"/><stop offset=".36559" stop-color="#00cdd7"/></linearGradient><linearGradient id="c" x1="61.08194" x2="65.10653" xlink:href="#a" y1="15.2899" y2="29.54363"/><path d="m9.433 63.263-9.433-55.926 17.451-7.245 11.141 6.626 10.205-5.512 21.271 8.168-11.932 60.626z" fill="url(#a)"/><path d="m70 23.705-9.03-22.316-16.396-1.389-25.299 24.309 6.81 31.332 12.712 8.918 31.203-18.515-7.653-14.352z" fill="url(#b)"/><path d="m55.976 20.376 6.371 11.316 7.653-7.987-5.623-13.895z" fill="url(#c)"/><path d="m14 14h42v42h-42z"/><g fill="#fff"><path d="m17.98999 48.125h15.75v2.625h-15.75z"/><path d="m38.60581 34.3317 2.22964-2.72132a7.78721 7.78721 0 0 0 5.11541 2.12207c1.54551 0 2.47517-.6239 2.47517-1.65v-.04926c0-.97279-.58759-1.47355-3.45322-2.22059-3.4531-.89891-5.68287-1.8758-5.68287-5.34417v-.05333c0-3.16876 2.49937-5.27031 6.00087-5.2703a9.79618 9.79618 0 0 1 6.36712 2.22468l-1.96 2.89784a7.933 7.933 0 0 0 -4.45536-1.72392c-1.44491 0-2.20556.67316-2.20556 1.52278v.04926c0 1.14928.73658 1.52691 3.69875 2.29859 3.47729.92353 5.43734 2.2 5.43733 5.24566v.04923c0 3.47248-2.5959 5.41808-6.29465 5.41808a10.78844 10.78844 0 0 1 -7.27259-2.79526"/><path d="m35.199 19.431-2.591 10.162-2.968-10.162h-2.95l-2.969 10.162-2.591-10.162h-4.059l4.974 17.426h3.269l2.851-10.082 2.815 10.082h3.309l4.97-17.426z"/></g><path d="m37 53h33v17h-33z" fill="#d99e2b"/><path d="m40.05563 66.966h7.19661v-1.72329h-5.50724v-2.94521h4.82041v-1.72325h-4.82041v-2.85131h5.43874v-1.72325h-7.12811z"/><path d="m48.15627 66.966h1.86832l1.06757-2.6268h4.9082l1.05281 2.6268h1.9277l-4.5671-10.95841h-1.6904zm3.60316-4.321 1.77945-4.35241 1.79421 4.35241z"/><path d="m59.87536 66.966h1.62869v-3.52491h1.84026a3.50288 3.50288 0 0 0 3.70715-3.74426v-.03124a3.3623 3.3623 0 0 0 -3.52185-3.6659h-3.65425zm1.62869-5.26364v-3.94818h1.89333a1.80657 1.80657 0 0 1 1.99894 1.95836v.03146a1.86935 1.86935 0 0 1 -1.99894 1.95836z"/><path d="m37 53h33v17h-33z" fill="#d99e2b"/><path d="m40.05563 66.966h7.19661v-1.72329h-5.50724v-2.94521h4.82041v-1.72325h-4.82041v-2.85131h5.43874v-1.72325h-7.12811z"/><path d="m48.15627 66.966h1.86832l1.06757-2.6268h4.9082l1.05281 2.6268h1.9277l-4.5671-10.95841h-1.6904zm3.60316-4.321 1.77945-4.35241 1.79421 4.35241z"/><path d="m59.87536 66.966h1.62869v-3.52491h1.84026a3.50285 3.50285 0 0 0 3.70715-3.74426v-.03124a3.36233 3.36233 0 0 0 -3.52185-3.6659h-3.65425zm1.62869-5.26364v-3.94818h1.89333a1.80658 1.80658 0 0 1 1.99894 1.95836v.03146a1.86938 1.86938 0 0 1 -1.99894 1.95836z"/></svg>