<svg enable-background="new 0 0 70 70" height="70" viewBox="0 0 70 70" width="70" xmlns="http://www.w3.org/2000/svg" xmlns:xlink="http://www.w3.org/1999/xlink"><linearGradient id="a"><stop offset=".2849" stop-color="#00cdd7"/><stop offset=".9409" stop-color="#2086d7"/></linearGradient><linearGradient id="b" gradientUnits="userSpaceOnUse" x1="25.0676" x2="43.1829" xlink:href="#a" y1="1.4599" y2="66.675"/><linearGradient id="c" gradientUnits="userSpaceOnUse" x1="30.7199" x2="61.365" y1="9.7343" y2="54.6713"><stop offset=".1398" stop-color="#fff045"/><stop offset=".3656" stop-color="#00cdd7"/></linearGradient><linearGradient id="d" gradientUnits="userSpaceOnUse" x1="61.0819" x2="65.1065" xlink:href="#a" y1="15.2899" y2="29.5436"/><path d="m9.4 63.3-9.4-56 17.5-7.2 11.1 6.6 10.2-5.5 21.3 8.2-12 60.6z" fill="url(#b)"/><path d="m70 23.7-9-22.3-16.4-1.4-25.3 24.3 6.8 31.3 12.7 9 31.2-18.6-7.7-14.3z" fill="url(#c)"/><path d="m56 20.4 6.3 11.3 7.7-8-5.6-13.9z" fill="url(#d)"/><path d="m13.4 13.4h43.2v43.2h-43.2z"/><g fill="#fff"><path d="m17.5 48.5h16.2v2.7h-16.2z"/><path d="m38.7 34.3 2.3-2.8c1.6 1.3 3.3 2.2 5.3 2.2 1.6 0 2.5-.6 2.5-1.7v-.1c0-1-.6-1.5-3.6-2.3-3.6-.9-5.8-1.9-5.8-5.5v-.1c0-3.3 2.6-5.4 6.2-5.4 2.6 0 4.8.8 6.6 2.3l-2 3c-1.6-1.1-3.1-1.8-4.6-1.8s-2.3.7-2.3 1.6v.1c0 1.2.8 1.6 3.8 2.4 3.6 1 5.6 2.3 5.6 5.4v.1c0 3.6-2.7 5.6-6.5 5.6-2.7-.1-5.4-1.1-7.5-3"/><path d="m35.2 19-2.7 10.4-3-10.4h-3l-3.1 10.4-2.7-10.4h-4.1l5.1 17.9h3.3l3-10.4 2.9 10.4h3.4l5.1-17.9z"/></g></svg>