<svg xmlns="http://www.w3.org/2000/svg" width="32" height="32" fill="none" viewBox="0 0 32 32">
  <defs>
    <linearGradient id="a" x1="-.051205" x2="32.0263" y1="16" y2="16" gradientUnits="userSpaceOnUse">
      <stop stop-color="#FB43FF"/>
      <stop offset=".97" stop-color="#FB406D"/>
    </linearGradient>
  </defs>
  <path fill="url(#a)" d="M.653164 25.6221c-.048437-.0357-.064375-.101-.038125-.155l3.817781-7.8628-4.403714-5.259c-.044374-.0528-.037187-.1319.015938-.1759L12.8893 1.46603c2.2853-1.90498 5.594-1.95873 7.9418-.13031 2.3469 1.82842 3.0969 5.04402 1.7984 7.71806l-1.3996 2.88342c.5459-.1831 1.0862-.3497 1.6206-.4994l6.3368-1.82027c.0691-.02.1409.0225.1566.09281l2.6527 11.79236c.0163.0728-.0331.1441-.1075.1535-.8409.1059-5.4287.765-11.1405 3.1646-6.4715 2.7181-10.7421 6.5812-11.34707 7.1462-.04469.0419-.11032.0435-.15938.0072L.653164 25.6221Z"/>
</svg>
