<svg xmlns="http://www.w3.org/2000/svg" width="628" height="91" fill="none" viewBox="0 0 628 91">
  <path fill="#000" d="M0 4H85V89H0V4Z"/>
  <path fill="#fff" d="M10.543 72.9795H42.4715V78.3009H10.543V72.9795Z"/>
  <path fill="#fff" d="M19.767 33.8417L7.46387 14.4434H15.6943L23.343 27.2999L31.1194 14.4434H39.1228L26.8197 33.6998V46.4713H19.767V33.8417Z"/>
  <path fill="#fff" d="M53.2142 20.9426H43.4653V14.4434H70.0015V20.9426H60.2527V46.4713H53.2142V20.9426Z"/>
  <path fill="#fff" d="M143.621 55.1563L110.983 3.71582H132.808L153.072 37.773L173.691 3.71582H194.977L162.339 54.8015V88.6316H143.621V55.1563Z"/>
  <path fill="#fff" d="M176.799 56.4903V56.2491C176.799 37.5602 191.841 22.3906 212.091 22.3906C232.34 22.3906 247.155 37.2764 247.155 55.9937V56.2491C247.155 74.9238 232.113 90.0934 211.849 90.0934C191.585 90.0934 176.799 75.165 176.799 56.4903V56.4903ZM228.963 56.4903V56.2491C228.963 46.6563 222.038 38.284 211.849 38.284C201.292 38.284 194.991 46.4151 194.991 55.9937V56.2491C195.048 65.8277 201.902 74.1717 212.076 74.1717C222.648 74.1717 228.963 66.0689 228.963 56.4903Z"/>
  <path fill="#fff" d="M253.371 65.6567V23.6104H271.818V59.8812C271.818 68.6225 275.933 73.1067 282.972 73.1067C290.01 73.1067 294.495 68.6225 294.495 59.8812V23.6104H312.942V88.6311H294.495V79.4073C290.237 84.8706 284.788 89.8515 275.451 89.8515C261.502 89.8515 253.371 80.6277 253.371 65.6567V65.6567Z"/>
  <path fill="#fff" d="M344.346 20.9431H318.505V3.71582H388.875V20.9431H363.035V88.6316H344.346V20.9431Z"/>
  <path fill="#fff" d="M390.791 23.6106H409.239V36.7084C412.999 27.7258 419.073 21.9077 429.985 22.3902V41.6892H429.02C416.76 41.6892 409.239 49.0825 409.239 64.6069V88.6313H390.791V23.6106Z"/>
  <path fill="#fff" d="M430.794 69.9146V69.6592C430.794 55.4687 441.593 48.9269 456.99 48.9269C462.403 48.8791 467.782 49.7821 472.883 51.5947V50.502C472.883 42.9527 468.157 38.6956 458.99 38.6956C452.836 38.7016 446.741 39.8965 441.039 42.2148L436.428 28.1378C444.335 24.5126 452.962 22.7318 461.658 22.9299C471.733 22.9299 479.013 25.5977 483.625 30.1955C488.478 35.0486 490.649 42.2148 490.649 50.9419V88.6318H472.769V81.5366C468.271 86.5175 462.084 89.7955 453.116 89.7955C440.855 89.8522 430.794 82.8138 430.794 69.9146V69.9146ZM473.181 65.6575V62.3937C469.458 60.7546 465.428 59.9321 461.36 59.9813C453.47 59.9813 448.589 63.1316 448.589 68.9497V69.1909C448.589 74.1717 452.718 77.0808 458.664 77.0808C467.306 77.1092 473.181 72.3837 473.181 65.6575V65.6575Z"/>
  <path fill="#fff" d="M497.305 56.4902V56.249C497.241 51.7682 498.08 47.3204 499.771 43.1706C501.463 39.0209 503.972 35.254 507.15 32.0946C510.328 28.9351 514.11 26.4477 518.269 24.7806C522.429 23.1134 526.881 22.3006 531.362 22.3905C543.622 22.3905 551.228 26.5199 557.33 33.3172L546.049 45.45C541.92 41.0794 537.79 38.3548 531.248 38.3548C522.024 38.3548 515.468 46.486 515.468 56.0645V56.3199C515.468 66.2533 521.897 74.2709 531.972 74.2709C538.159 74.2709 542.402 71.6031 546.886 67.346L557.685 78.2726C551.385 85.1834 544.105 90.1642 531.121 90.1642C526.669 90.2465 522.247 89.4328 518.116 87.7714C513.986 86.1101 510.231 83.635 507.076 80.4935C503.922 77.352 501.431 73.6081 499.752 69.4845C498.073 65.361 497.241 60.9419 497.305 56.4902V56.4902Z"/>
  <path fill="#fff" d="M564.255 0.0683594H582.703V47.2091L604.301 23.6104H626.438L601.69 49.1532L627.233 88.5744H605.947L589.245 61.9388L582.703 68.8638V88.6311H564.255V0.0683594Z"/>
</svg>
