<svg xmlns="http://www.w3.org/2000/svg" width="128" height="128" fill="none" viewBox="0 0 128 128">
  <defs>
    <linearGradient id="a" x1="-.204823" x2="128.106" y1="64.0004" y2="64.0004" gradientUnits="userSpaceOnUse">
      <stop stop-color="#FB43FF"/>
      <stop offset=".97" stop-color="#FB406D"/>
    </linearGradient>
  </defs>
  <path fill="url(#a)" d="M2.61268 102.489c-.19375-.142-.2575-.404-.1525-.62L17.7314 70.4179.116427 49.3817c-.1775-.2113-.14875-.5275.06375-.7038L51.5577 5.86418c9.1412-7.62 22.3762-7.835 31.7675-.52125 9.3875 7.31377 12.3875 20.17627 7.1937 30.87247l-5.5987 11.5338c2.1837-.7325 4.345-1.3988 6.4825-1.9975l25.3473-7.2813c.276-.08.564.09.626.3713l10.612 47.17c.065.2912-.133.5762-.43.6137-3.364.4238-21.715 3.06-44.5628 12.6588-25.8863 10.8728-42.9688 26.3248-45.3888 28.5848-.1787.168-.4412.174-.6375.029L2.61268 102.489Z"/>
  <path fill="#000" d="M104 24H24v80h80V24Z"/>
  <path fill="#fff" d="M66 88H34v6h32v-6Z"/>
  <path fill="#fff" d="M42.9333 52.7419 31.957 33.9844h6.3025l6.7963 11.9837.7937 1.715.7938-1.7362 6.6237-11.9625h6.195l-10.805 18.715v11.2975h-5.7237v-11.255Z"/>
  <path fill="#fff" d="M60.5755 33.9844h24.0737v5.2737h-9.09v24.7388h-5.8525V39.2581h-9.1325v-5.2737h.0013Z"/>
</svg>
