<?xml version="1.0" encoding="utf-8"?>
<!-- Generator: Adobe Illustrator 19.1.0, SVG Export Plug-In . SVG Version: 6.00 Build 0)  -->
<svg version="1.1" id="Layer_1" xmlns="http://www.w3.org/2000/svg" xmlns:xlink="http://www.w3.org/1999/xlink" x="0px" y="0px"
	 width="589px" height="90.2px" viewBox="0 0 589 90.2" style="enable-background:new 0 0 589 90.2;" xml:space="preserve">
<g>
	<g>
		<path d="M136.2,55.2L103.5,3.6h21.9l20.3,34.1l20.7-34.1h21.3l-32.7,51.2v33.9h-18.7V55.2z"/>
		<path d="M166.4,56.5v-0.2c0-18.7,15.1-33.9,35.4-33.9c20.2,0,35.1,14.9,35.1,33.7v0.2
			c0,18.7-15.1,33.9-35.4,33.9C181.4,90.2,166.4,75.2,166.4,56.5z M218.7,56.5v-0.2c0-9.6-6.9-18-17.1-18
			c-10.6,0-16.9,8.1-16.9,17.7v0.2c0,9.6,6.9,18,17.1,18C212.4,74.2,218.7,66.1,218.7,56.5z"/>
		<path d="M239.6,65.7V23.6H258v36.3c0,8.7,4.1,13.2,11.2,13.2c7,0,11.5-4.5,11.5-13.2V23.6h18.5v65.1h-18.5
			v-9.2c-4.3,5.5-9.7,10.4-19.1,10.4C247.7,89.9,239.6,80.7,239.6,65.7z"/>
		<path d="M325.3,20.9h-25.9V3.6h70.5v17.3h-25.9v67.8h-18.7V20.9z"/>
		<path d="M365.9,23.6h18.5v13.1c3.8-9,9.8-14.8,20.8-14.3v19.3h-1c-12.3,0-19.8,7.4-19.8,23v24.1h-18.5V23.6
			z"/>
		<path d="M401.2,70v-0.2c0-14.2,10.8-20.8,26.2-20.8c6.6,0,11.3,1.1,15.9,2.7v-1.1c0-7.7-4.7-11.9-14-11.9
			c-7,0-12,1.3-18,3.5l-4.6-14.1c7.2-3.2,14.2-5.2,25.3-5.2c10.1,0,17.4,2.7,22,7.3c4.9,4.9,7,12,7,20.8v37.8h-17.9v-7
			c-4.5,5-10.7,8.3-19.7,8.3C411.2,89.9,401.2,82.9,401.2,70z M443.6,65.7v-3.3c-3.2-1.5-7.3-2.4-11.8-2.4c-7.9,0-12.8,3.2-12.8,9
			v0.2c0,5,4.1,7.9,10.1,7.9C437.7,77.2,443.6,72.4,443.6,65.7z"/>
		<path d="M463.6,56.5v-0.2c0-18.6,14.2-33.9,34.1-33.9c12.3,0,19.9,4.1,26,10.9l-11.3,12.2
			c-4.1-4.4-8.3-7.2-14.8-7.2c-9.2,0-15.8,8.1-15.8,17.7v0.2c0,10,6.4,18,16.5,18c6.2,0,10.5-2.7,14.9-6.9l10.8,10.9
			c-6.3,6.9-13.6,11.9-26.6,11.9C477.9,90.2,463.6,75.1,463.6,56.5z"/>
		<path d="M525.9,0h18.5v47.3L566,23.6h22.1l-24.8,25.6L589,88.7h-21.4L551,62l-6.6,6.9v19.8h-18.5V0z"/>
	</g>
	<g>
		<rect x="0" y="3.7" style="fill:#000000;" width="85" height="85"/>
		<rect x="8" y="72.8" style="fill:#FFFFFF;" width="31.9" height="5.3"/>
		<g>
			<polygon style="fill:#FFFFFF;" points="15.3,27.2 7.2,14.3 12.6,14.3 17.7,22.8 22.8,14.3 28.1,14.3 20,27.1 20,35.5 15.3,35.5 
							"/>
			<polygon style="fill:#FFFFFF;" points="36.9,18.6 30.5,18.6 30.5,14.3 48,14.3 48,18.6 41.6,18.6 41.6,35.5 36.9,35.5 			"/>
		</g>
	</g>
</g>
</svg>
