<svg xmlns="http://www.w3.org/2000/svg" width="261" height="64" fill="none" viewBox="0 0 261 64">
  <defs>
    <linearGradient id="a" x1="-.102411" x2="64.0532" y1="32.0002" y2="32.0002" gradientUnits="userSpaceOnUse">
      <stop stop-color="#FB43FF"/>
      <stop offset=".97" stop-color="#FB406D"/>
    </linearGradient>
  </defs>
  <path fill="#fff" d="m103.392 17.01-6.8898 12.22-.83 1.73-.83-1.69-7.06-12.26h-5.79l11.02 18.62v11.34h5.2V35.58L109.062 17h-5.67v.01Zm20.52 9.03c-1.75-1-3.71-1.5-5.86-1.5-2.15 0-4.13.5-5.9 1.5-1.76 1-3.14 2.37-4.14 4.12-1 1.75-1.5 3.7-1.5 5.85 0 2.15.5 4.11 1.51 5.85 1.01 1.74 2.39 3.12 4.14 4.12 1.75 1 3.71 1.5 5.86 1.5 2.15 0 4.13-.5 5.88-1.5s3.14-2.37 4.14-4.12c1-1.75 1.51-3.7 1.51-5.85 0-2.15-.5-4.11-1.51-5.85-1.01-1.75-2.39-3.12-4.14-4.12h.01Zm-.39 13.59c-.52 1.06-1.26 1.88-2.21 2.46-.96.58-2.05.88-3.27.88-1.22 0-2.32-.29-3.26-.88-.95-.58-1.68-1.41-2.2-2.46-.52-1.05-.78-2.26-.78-3.62 0-1.36.26-2.58.78-3.64s1.26-1.88 2.2-2.46c.95-.58 2.04-.88 3.26-.88 1.22 0 2.31.3 3.26.89.95.59 1.69 1.41 2.21 2.46.53 1.05.79 2.26.79 3.63s-.26 2.56-.78 3.62Zm24.03-1.88c0 1.03-.21 1.94-.63 2.75-.42.81-1.02 1.43-1.79 1.88-.77.45-1.66.67-2.65.67-.94 0-1.74-.2-2.41-.59-.67-.39-1.17-.96-1.53-1.7-.36-.74-.54-1.64-.54-2.7V25.05h-5.03v13.78c0 1.8.33 3.35.98 4.64.66 1.3 1.58 2.29 2.76 2.97 1.18.68 2.56 1.03 4.13 1.03 1.68 0 3.15-.39 4.4-1.18 1.01-.63 1.82-1.5 2.45-2.56v3.23h4.9V25.04h-5.05v12.69l.01.02Zm28.32-20.74h-23.84v4.82h9.29v25.15h5.31V21.83h9.25v-4.82h-.01Zm6.49 9.11c-.83.57-1.53 1.33-2.1 2.26v-3.32h-5.01v21.92h5.05V35.15c0-1.06.22-1.97.67-2.74.45-.77 1.09-1.36 1.93-1.78.83-.41 1.82-.62 2.94-.62h1.41v-5.09h-.81c-1.56 0-2.92.4-4.09 1.21l.01-.01Zm23.92 2.25c-.71-1.09-1.62-1.97-2.73-2.63-1.36-.8-2.95-1.2-4.76-1.2-1.96 0-3.7.49-5.23 1.47-1.53.98-2.74 2.34-3.61 4.09-.87 1.75-1.31 3.72-1.31 5.92 0 2.2.44 4.17 1.31 5.92.87 1.75 2.08 3.11 3.62 4.09s3.28 1.47 5.22 1.47c1.81 0 3.4-.4 4.76-1.2 1.11-.65 2.02-1.54 2.73-2.63v3.31h4.97V25.06h-4.97v3.31Zm-.82 11.27c-.53 1.05-1.26 1.87-2.21 2.46-.94.59-2.03.89-3.25.89-1.22 0-2.27-.29-3.21-.88-.94-.59-1.67-1.41-2.19-2.46-.52-1.06-.78-2.27-.78-3.64s.26-2.58.78-3.63c.52-1.05 1.25-1.87 2.19-2.46.94-.59 2.01-.89 3.21-.89 1.2 0 2.31.3 3.25.89.94.59 1.68 1.41 2.21 2.46s.79 2.26.79 3.63-.26 2.58-.79 3.63Zm17.85-9.72c.93-.6 1.99-.9 3.16-.9.8 0 1.55.15 2.25.45.7.3 1.31.72 1.83 1.25.52.54.93 1.17 1.23 1.92h5.37c-.39-1.6-1.08-3.01-2.09-4.23-1.01-1.22-2.25-2.17-3.73-2.85-1.48-.68-3.11-1.02-4.88-1.02-2.14 0-4.08.5-5.81 1.5-1.73 1-3.1 2.37-4.09 4.12-.99 1.75-1.49 3.7-1.49 5.85 0 2.15.5 4.11 1.49 5.85.99 1.75 2.35 3.12 4.09 4.12 1.73 1 3.67 1.5 5.81 1.5 1.77 0 3.4-.34 4.88-1.02 1.48-.68 2.73-1.63 3.73-2.85 1-1.22 1.7-2.63 2.09-4.23h-5.37c-.3.74-.71 1.38-1.23 1.92s-1.13.95-1.83 1.25c-.7.3-1.45.45-2.25.45-1.17 0-2.22-.3-3.16-.91-.94-.61-1.67-1.44-2.19-2.5-.53-1.06-.79-2.26-.79-3.58 0-1.32.26-2.54.79-3.61.53-1.06 1.26-1.89 2.19-2.49v.01Zm27.95 5.37 8.88-10.23h-5.86l-8.56 9.76V17.01h-5.05v29.96h5.05V36.1l8.67 10.87h6.14l-9.27-11.69v.01Z"/>
  <path fill="url(#a)" d="M1.30634 51.2446c-.09688-.0713-.12875-.2019-.07625-.31L8.86571 35.209.058214 24.6908c-.08875-.1056-.074375-.2637.031875-.3518L25.7788 2.93209C30.3495-.877908 36.967-.985408 41.6626 2.67147c4.6937 3.65687 6.1937 10.08813 3.5969 15.43623l-2.7994 5.7669c1.0919-.3663 2.1725-.6994 3.2412-.9988l12.6738-3.6406c.1381-.04.2819.045.3131.1856l5.3056 23.585c.0325.1457-.0662.2882-.215.3069-1.6818.2119-10.8575 1.53-22.2812 6.3294-12.9431 5.4362-21.4844 13.1625-22.6944 14.2925-.0894.0837-.2206.0869-.3187.0144L1.30634 51.2446Z"/>
  <path fill="#000" d="M52 12H12v40h40V12Z"/>
  <path fill="#fff" d="m21.4666 26.3709-5.4881-9.3787h3.1513l3.3981 5.9919.3969.8575.3968-.8682 3.3119-5.9812h3.0975l-5.4025 9.3575v5.6487h-2.8619v-5.6275Z"/>
  <path fill="#fff" d="M33 43.9984H17v3h16v-3Z"/>
  <path fill="#fff" d="M42.3248 16.9922H30.2879l-.0006 2.6369h4.5662v12.3693h2.9263V19.6291h4.545v-2.6369Z"/>
</svg>
