<svg width="130" height="40" viewBox="0 0 130 40" fill="none" xmlns="http://www.w3.org/2000/svg">
<path d="M30.5901 25.706C30.4987 25.6146 24.6005 19.9447 24.6005 19.9447C24.6005 19.9447 29.0813 15.1894 30.2701 14.0006C30.6358 13.6348 30.9559 13.269 31.1845 12.8117C32.8305 10.0225 31.8703 6.456 29.0813 4.80992C27.0238 3.62108 24.4633 3.80398 22.6344 5.17571C22.3143 5.40434 22.04 5.63296 21.7657 5.90731C21.6285 6.09021 15.4102 11.76 10.015 16.6983L20.1196 23.0997L9.51201 35.0338C8.87189 35.4911 8.23178 35.7654 7.54594 35.9026C7.68311 35.9026 8.08739 35.9483 8.22456 35.9026C10.3278 35.5825 27.9839 32.519 28.8527 32.3361C29.9043 32.1532 30.8645 31.513 31.4588 30.5528C32.4647 28.9068 32.0075 26.8491 30.5901 25.706Z" fill="url(#paint0_linear_3338_905)"/>
<path d="M20.9884 17.9329C20.8055 16.6983 20.1654 15.6924 19.2509 14.9608C18.2907 14.2292 10.8837 6.54746 10.0607 5.67869C8.78043 4.44413 6.95153 3.75826 5.07691 4.07833C1.87633 4.53558 -0.364079 7.5534 0.13887 10.7541C0.367482 12.3545 1.28193 13.7262 2.47072 14.595C3.65951 15.5095 12.9869 21.9109 13.5813 22.3681C14.5415 23.0997 15.8217 23.5113 17.1019 23.2826C19.6167 22.8254 21.3999 20.4477 20.9884 17.9329Z" fill="url(#paint1_linear_3338_905)"/>
<path d="M10.5179 34.9882C10.5636 34.9882 21.1713 23.0541 21.1713 23.0541L10.4722 16.2869C6.67722 19.7619 3.15658 22.9169 2.33357 23.6942C1.83062 24.1515 1.32768 24.7459 0.961895 25.3861C-1.00418 28.7697 0.138889 33.0678 3.52236 35.0339C4.89404 35.8112 8.00317 36.7715 10.5179 34.9882Z" fill="url(#paint2_linear_3338_905)"/>
<path d="M25.8807 10.114H6.12856V29.867H25.8807V10.114Z" fill="black"/>
<path d="M15.3642 26.1633H7.95712V27.3976H15.3642V26.1633Z" fill="white"/>
<path d="M10.8834 17.6586L7.77425 12.7203H9.87748L11.7978 15.9668L13.8096 12.7203H15.8671L12.7123 17.6129V20.905H10.8834V17.6586Z" fill="white"/>
<path d="M19.0223 14.3664H16.5076V12.7203H23.3202V14.3664H20.8055V20.905H19.0223V14.3664Z" fill="white"/>
<path d="M49.4658 13L46.5298 18.4399L46.1837 19.2512L45.8375 18.4638L42.8299 13H39.5L44.6321 21.9353V27.1486H47.6875V21.9115L52.748 13H49.4658Z" fill="currentColor"/>
<path d="M59.4197 17.2709C58.5723 16.7937 57.6294 16.567 56.5911 16.567C55.5408 16.567 54.5979 16.8056 53.7505 17.2709C52.9031 17.7481 52.2347 18.3923 51.7454 19.2154C51.2561 20.0386 51.0174 20.9571 51.0174 21.9831C51.0174 22.9971 51.2561 23.9276 51.7454 24.7508C52.2347 25.5739 52.9031 26.2301 53.7505 26.6953C54.5979 27.1725 55.5527 27.3992 56.5911 27.3992C57.6294 27.3992 58.5723 27.1606 59.4197 26.6953C60.2671 26.2181 60.9354 25.5739 61.4128 24.7508C61.8902 23.9276 62.1409 23.0091 62.1409 21.9831C62.1409 20.9571 61.9022 20.0386 61.4128 19.2154C60.9354 18.3803 60.2671 17.7361 59.4197 17.2709ZM58.7632 23.4385C58.5484 23.868 58.25 24.202 57.88 24.4287C57.4981 24.6673 57.0685 24.7866 56.5911 24.7866C56.1017 24.7866 55.6601 24.6673 55.2782 24.4287C54.8963 24.1901 54.5979 23.8561 54.395 23.4385C54.1802 23.0091 54.0847 22.5319 54.0847 21.9831C54.0847 21.4343 54.1921 20.9452 54.395 20.5157C54.6098 20.0863 54.8963 19.7642 55.2782 19.5256C55.6601 19.287 56.0898 19.1677 56.5911 19.1677C57.0804 19.1677 57.5101 19.287 57.88 19.5256C58.262 19.7642 58.5484 20.0863 58.7632 20.5157C58.9781 20.9452 59.0855 21.4343 59.0855 21.9831C59.0855 22.5199 58.9781 23.0091 58.7632 23.4385Z" fill="currentColor"/>
<path d="M70.3403 22.6988C70.3403 23.1044 70.2567 23.4742 70.0896 23.7963C69.9226 24.1184 69.6958 24.369 69.3855 24.536C69.0871 24.7149 68.729 24.7984 68.3352 24.7984C67.9652 24.7984 67.643 24.7149 67.3804 24.5598C67.1059 24.4048 66.903 24.1781 66.7478 23.8679C66.6046 23.5697 66.5211 23.2118 66.5211 22.8062V16.8055H63.5731V23.3192C63.5731 24.1662 63.7282 24.8939 64.0386 25.5023C64.3489 26.1107 64.7905 26.5879 65.3514 26.91C65.9124 27.2321 66.5569 27.3991 67.3088 27.3991C68.0846 27.3991 68.7529 27.2202 69.3258 26.8623C69.7674 26.5879 70.1255 26.2181 70.4119 25.7647V27.1605H73.2883V16.8055H70.3403V22.6988Z" fill="currentColor"/>
<path d="M74.7921 15.8035H78.9813V27.1486H82.1083V15.8035H86.2856V13H74.7921V15.8035Z" fill="currentColor"/>
<path d="M90.5822 17.3305C90.248 17.5691 89.9496 17.8793 89.7109 18.2491V16.8056H86.7868V27.1606H89.7348V21.7683C89.7348 21.3389 89.8303 20.9691 90.0212 20.6589C90.2122 20.3368 90.4748 20.0982 90.8209 19.9431C91.167 19.7761 91.5728 19.7045 92.0502 19.7045L92.8976 19.7164V16.734H92.5037C91.7757 16.734 91.1312 16.9368 90.5822 17.3305Z" fill="currentColor"/>
<path d="M101.622 18.1894C101.312 17.7361 100.93 17.3782 100.464 17.1038C99.8438 16.734 99.1158 16.5551 98.2923 16.5551C97.4091 16.5551 96.6094 16.7936 95.9053 17.2589C95.2011 17.7242 94.6401 18.3684 94.2463 19.1915C93.8405 20.0147 93.6495 20.9452 93.6495 21.9711C93.6495 22.9971 93.8524 23.9276 94.2582 24.7508C94.664 25.5739 95.213 26.2181 95.9172 26.6834C96.6214 27.1486 97.421 27.3872 98.3042 27.3872C99.1277 27.3872 99.8558 27.2083 100.476 26.8385C100.942 26.5641 101.324 26.2062 101.634 25.7529V27.1367H104.57V16.8056H101.634V18.1894H101.622ZM101.312 23.4385C101.097 23.868 100.799 24.1901 100.429 24.4287C100.047 24.6673 99.6171 24.7865 99.1397 24.7865C98.6503 24.7865 98.2087 24.6673 97.8387 24.4287C97.4687 24.1901 97.1704 23.868 96.9675 23.4385C96.7526 23.009 96.6572 22.5199 96.6572 21.9711C96.6572 21.4224 96.7646 20.9333 96.9675 20.5038C97.1823 20.0743 97.4687 19.7522 97.8387 19.5136C98.2087 19.275 98.6503 19.1557 99.1397 19.1557C99.629 19.1557 100.059 19.275 100.429 19.5136C100.811 19.7522 101.097 20.0743 101.312 20.5038C101.527 20.9333 101.634 21.4224 101.634 21.9711C101.622 22.5318 101.527 23.021 101.312 23.4385Z" fill="currentColor"/>
<path d="M110.383 19.5137C110.764 19.2751 111.194 19.1558 111.66 19.1558C111.994 19.1558 112.304 19.2154 112.614 19.3347C112.925 19.454 113.187 19.621 113.414 19.8477C113.641 20.0743 113.808 20.3368 113.915 20.635H116.875C116.78 19.8358 116.493 19.12 116.016 18.5116C115.538 17.8912 114.918 17.414 114.166 17.08C113.402 16.734 112.567 16.567 111.648 16.567C110.621 16.567 109.678 16.8056 108.831 17.2709C107.984 17.7481 107.327 18.3923 106.838 19.2154C106.348 20.0386 106.11 20.9571 106.11 21.9831C106.11 22.9971 106.348 23.9276 106.838 24.7508C107.327 25.5739 107.984 26.2301 108.831 26.6953C109.678 27.1725 110.609 27.3992 111.648 27.3992C112.555 27.3992 113.378 27.2322 114.142 26.8862C114.906 26.5402 115.527 26.0631 116.016 25.4427C116.505 24.8224 116.792 24.1185 116.887 23.3192H113.927C113.832 23.6175 113.665 23.8799 113.426 24.1066C113.199 24.3333 112.925 24.5003 112.626 24.6196C112.316 24.7389 112.006 24.7985 111.672 24.7985C111.194 24.7985 110.776 24.6792 110.394 24.4287C110.013 24.1901 109.714 23.8441 109.499 23.4147C109.284 22.9852 109.177 22.4961 109.177 21.9712C109.177 21.4343 109.284 20.9452 109.499 20.5157C109.702 20.0982 110.001 19.7642 110.383 19.5137Z" fill="currentColor"/>
<path d="M124.454 21.649L128.321 16.8056H124.991L121.411 21.2434V13H118.463V27.1486H121.411V22.2694L125.015 27.1486H128.5L124.454 21.649Z" fill="currentColor"/>
<defs>
<linearGradient id="paint0_linear_3338_905" x1="3.24025" y1="29.0223" x2="29.3129" y2="17.1378" gradientUnits="userSpaceOnUse">
<stop stop-color="#905CFB"/>
<stop offset="0.1649" stop-color="#6677F8"/>
<stop offset="0.3776" stop-color="#3596F5"/>
<stop offset="0.5401" stop-color="#17A9F3"/>
<stop offset="0.6317" stop-color="#0CB0F2"/>
</linearGradient>
<linearGradient id="paint1_linear_3338_905" x1="13.8602" y1="16.8496" x2="0.489466" y2="5.04045" gradientUnits="userSpaceOnUse">
<stop stop-color="#905CFB"/>
<stop offset="0.0717604" stop-color="#A554E6"/>
<stop offset="0.2523" stop-color="#D641B5"/>
<stop offset="0.3901" stop-color="#F43597"/>
<stop offset="0.4677" stop-color="#FF318C"/>
</linearGradient>
<linearGradient id="paint2_linear_3338_905" x1="2.28003" y1="30.8206" x2="33.8475" y2="10.9307" gradientUnits="userSpaceOnUse">
<stop stop-color="#905CFB"/>
<stop offset="0.1649" stop-color="#6677F8"/>
<stop offset="0.3776" stop-color="#3596F5"/>
<stop offset="0.5401" stop-color="#17A9F3"/>
<stop offset="0.6317" stop-color="#0CB0F2"/>
</linearGradient>
</defs>
</svg>
