<svg enable-background="new 0 0 70 70" height="70" viewBox="0 0 70 70" width="70" xmlns="http://www.w3.org/2000/svg" xmlns:xlink="http://www.w3.org/1999/xlink"><linearGradient id="a"><stop offset="0" stop-color="#905cfb"/><stop offset=".1649" stop-color="#6677f8"/><stop offset=".3776" stop-color="#3596f5"/><stop offset=".5401" stop-color="#17a9f3"/><stop offset=".6317" stop-color="#0cb0f2"/></linearGradient><linearGradient id="b" gradientTransform="matrix(1 0 0 -1 0 71.0471)" gradientUnits="userSpaceOnUse" x1="7.083" x2="64.1058" xlink:href="#a" y1="16.2945" y2="42.2878"/><linearGradient id="c" gradientTransform="matrix(1 0 0 -1 0 71.0471)" gradientUnits="userSpaceOnUse" x1="30.31" x2="1.0679" y1="42.9162" y2="68.7442"><stop offset="0" stop-color="#905cfb"/><stop offset=".07176042" stop-color="#a554e6"/><stop offset=".2523" stop-color="#d641b5"/><stop offset=".3901" stop-color="#f43597"/><stop offset=".4677" stop-color="#ff318c"/></linearGradient><linearGradient id="d" gradientTransform="matrix(1 0 0 -1 0 71.0471)" gradientUnits="userSpaceOnUse" x1="4.9829" x2="74.0226" xlink:href="#a" y1="12.3617" y2="55.8638"/><path d="m66.9 47.5c-.2-.2-13.1-12.6-13.1-12.6s9.8-10.4 12.4-13c.8-.8 1.5-1.6 2-2.6 3.6-6.1 1.5-13.9-4.6-17.5-4.5-2.6-10.1-2.2-14.1.8-.7.5-1.3 1-1.9 1.6-.3.4-13.9 12.8-25.7 23.6l22.1 14-23.2 26.1c-1.4 1-2.8 1.6-4.3 1.9.3 0 .5 0 .8-.1 4.6-.7 43.9-7.3 45.8-7.7 2.3-.4 4.4-1.8 5.7-3.9 2.2-3.6 1.2-8.1-1.9-10.6z" fill="url(#b)"/><path d="m45.9 30.5c-.4-2.7-1.8-4.9-3.8-6.5-2.1-1.6-18.3-18.4-20.1-20.3-2.8-2.7-6.8-4.2-10.9-3.5-7 1-11.9 7.6-10.8 14.6.5 3.5 2.5 6.5 5.1 8.4 2.6 2 23 16 24.3 17 2.1 1.6 4.9 2.5 7.7 2 5.5-1 9.4-6.2 8.5-11.7z" fill="url(#c)"/><path d="m23 67.8c.1 0 23.3-26.1 23.3-26.1l-23.4-14.8c-8.3 7.6-16 14.5-17.8 16.2-1.1 1-2.2 2.3-3 3.7-4.3 7.4-1.8 16.8 5.6 21.1 3 1.7 9.8 3.8 15.3-.1z" fill="url(#d)"/><path d="m13.4 13.4h43.2v43.2h-43.2z"/><g fill="#fff"><path d="m17.4 48.5h16.2v2.7h-16.2z"/><path d="m23.8 29.9-6.8-10.8h4.6l4.2 7.1 4.4-7.1h4.5l-6.9 10.7v7.2h-4z"/><path d="m41.6 22.7h-5.5v-3.6h14.9v3.6h-5.5v14.3h-3.9z"/></g></svg>