<svg xmlns="http://www.w3.org/2000/svg" width="566" height="64" fill="none" viewBox="0 0 566 64">
  <defs>
    <linearGradient id="b" x1=".850001" x2="62.62" y1="62.72" y2="1.81" gradientUnits="userSpaceOnUse">
      <stop stop-color="#FF9419"/>
      <stop offset=".43" stop-color="#FF021D"/>
      <stop offset=".99" stop-color="#E600FF"/>
    </linearGradient>
    <clipPath id="a">
      <path fill="#fff" d="M0 0h566v64H0z"/>
    </clipPath>
  </defs>
  <g clip-path="url(#a)">
    <path fill="#000" d="M86.51 40.5766c0 .8471-.18 1.5945-.54 2.2522-.36.6577-.86 1.1659-1.52 1.5247s-1.4.5381-2.25.5381H78v6.1088h5.1c1.92 0 3.64-.4285 5.17-1.2855 1.53-.8571 2.73-2.0429 3.6-3.5477.87-1.5048 1.31-3.1989 1.31-5.0923V20.9948h-6.66v19.5818h-.01Zm17.93-1.8236h13.95v-5.6105h-13.95v-6.3678h15.42v-5.7799H97.95v29.9956h22.34v-5.7799h-15.85V38.753Zm17.94-11.8089h8.92v24.0363h6.66V26.9441h8.88v-5.9493h-24.47v5.9592l.01-.0099Zm47.23 9.0086c-.52-.279-1.09-.4883-1.68-.6477.45-.1296.88-.289 1.28-.4883 1.1-.568 1.97-1.3653 2.59-2.3917.62-1.0264.94-2.2023.94-3.5377 0-1.5247-.42-2.8899-1.25-4.0957-.83-1.1959-2-2.1326-3.5-2.8103-1.5-.6676-3.22-1.0065-5.14-1.0065h-13.37v29.9957h13.63c2.02 0 3.82-.3488 5.41-1.0563 1.58-.7076 2.81-1.6842 3.69-2.9498.87-1.2556 1.31-2.6906 1.31-4.305 0-1.4848-.34-2.8102-1.03-3.9861s-1.64-2.0828-2.87-2.7305l-.01.0099Zm-13.67-9.9254h5.91c.82 0 1.54.1494 2.17.4384.63.289 1.12.7076 1.47 1.2557.35.5381.53 1.1759.53 1.9033 0 .7275-.18 1.4151-.53 1.9831-.35.5681-.84.9966-1.47 1.3055-.63.3089-1.35.4584-2.17.4584h-5.91v-7.3544.01Zm10.18 18.1468c-.38.568-.92 1.0065-1.61 1.3154-.7.309-1.49.4585-2.4.4585h-6.17v-7.6933h6.17c.89 0 1.68.1694 2.38.4983.69.3288 1.24.7872 1.62 1.3852.38.5979.58 1.2755.58 2.0429 0 .7673-.19 1.425-.57 1.993Zm29.73-5.3115c1.67-.7972 2.96-1.9233 3.88-3.3683.92-1.445 1.38-3.1191 1.38-5.0325 0-1.9133-.45-3.5277-1.35-4.9627-.9-1.435-2.18-2.5412-3.83-3.3284-1.65-.7873-3.56-1.1759-5.74-1.1759h-13.18v29.9956h6.67v-10.922h4.34l6.11 10.922h7.61l-6.88-11.7292c.34-.1196.68-.2491 1-.3986h-.01Zm-2.16-6.1287c-.37.6278-.9 1.1161-1.59 1.445-.69.3388-1.5.5082-2.43.5082h-6V26.386h6c.93 0 1.74.1694 2.43.4983.69.3288 1.22.8171 1.59 1.435.37.6178.56 1.3553.56 2.1924 0 .837-.19 1.5745-.56 2.2023v.0199Zm20.67-11.7391-10.75 29.9956h6.77l2.13-6.617h11.16l2.28 6.617h6.64l-11-29.9956h-7.23Zm-.34 18.3561 3.46-10.5832.41-1.9233.41 1.9233 3.7 10.5832h-7.98Zm20.79 11.6395h6.88V20.9948h-6.88v29.9956Zm31.14-9.7062-12.94-20.2894h-6.49v29.9956h6.08V30.701l12.88 20.2894h6.56V20.9948h-6.08v20.2894h-.01Zm28.93-6.4974c-1.18-.8471-2.52-1.4051-4.04-1.6941l-5.12-1.0464c-.8-.1893-1.44-.5182-1.91-.9965-.47-.4784-.71-1.0763-.71-1.7838 0-.6478.17-1.2058.52-1.6842.34-.4783.83-.847 1.45-1.1161.62-.269 1.34-.3986 2.16-.3986.82 0 1.56.1395 2.19.4186.63.279 1.12.6676 1.47 1.1759.35.5082.53 1.0762.53 1.724h6.67c-.04-1.744-.53-3.2886-1.45-4.6239-.92-1.3454-2.21-2.3917-3.85-3.1491-1.64-.7574-3.52-1.136-5.62-1.136s-3.96.3886-5.59 1.1759c-1.63.7872-2.91 1.8735-3.82 3.2686-.91 1.3951-1.37 2.9796-1.37 4.7634 0 1.445.29 2.7505.88 3.9064.59 1.166 1.42 2.1326 2.49 2.9 1.08.7673 2.32 1.3054 3.74 1.6044l5.42 1.1161c.89.2093 1.59.5979 2.11 1.156.52.558.77 1.2456.77 2.0827 0 .6677-.19 1.2756-.57 1.8037-.38.5282-.91.9368-1.59 1.2258-.68.289-1.48.4285-2.4.4285-.92 0-1.79-.1595-2.54-.4783-.75-.3189-1.33-.7773-1.74-1.3753-.42-.5879-.62-1.2755-.62-2.0429h-6.67c.03 1.8735.53 3.5178 1.52 4.9528.98 1.4251 2.33 2.5412 4.05 3.3384 1.72.7972 3.69 1.1958 5.91 1.1958s4.22-.4085 5.94-1.2257c1.73-.8171 3.07-1.9432 4.04-3.3782.97-1.435 1.45-3.0594 1.45-4.8731 0-1.4848-.33-2.8501-.98-4.1057-.65-1.2457-1.57-2.292-2.74-3.1391l.02.01Zm37.6 7.8228-.49 1.6741-.49-1.6741-9.23-21.6148h-6.86v29.9956h5.29V29.6945l-.06-.9866 9.29 22.2825h3.96l9.31-22.432-.04 1.1361v21.2959h5.29V20.9948h-6.94l-9.01 21.6148h-.02Zm38.29-10.2444c-.72-1.0962-1.62-1.9731-2.74-2.6308-1.37-.7973-2.96-1.1959-4.78-1.1959-1.96 0-3.72.4883-5.26 1.4649-1.54.9766-2.75 2.3419-3.62 4.0958-.87 1.7539-1.31 3.727-1.31 5.9293 0 2.2024.44 4.1755 1.31 5.9195.87 1.7539 2.09 3.1091 3.63 4.0957 1.55.9766 3.3 1.4649 5.25 1.4649 1.82 0 3.42-.3986 4.78-1.1958 1.12-.6577 2.02-1.5347 2.74-2.6309v3.3185h4.99V29.0467h-4.99v3.3185Zm-.81 11.2808c-.53 1.0463-1.27 1.8734-2.21 2.4614-.95.5979-2.04.8869-3.27.8869s-2.28-.289-3.23-.8769c-.95-.588-1.68-1.4051-2.2-2.4615-.52-1.0563-.78-2.2721-.78-3.6473s.26-2.581.78-3.6274c.52-1.0463 1.26-1.8734 2.2-2.4614.95-.588 2.02-.8869 3.23-.8869s2.32.2989 3.27.8869c.95.588 1.68 1.4151 2.21 2.4614.53 1.0464.8 2.2622.8 3.6274 0 1.3653-.27 2.581-.8 3.6274v.01Zm17.95-13.5429c-.84.578-1.54 1.3353-2.11 2.2621v-3.3284h-5.03v21.9436h5.07V39.1317c0-1.0564.23-1.9732.68-2.7405.45-.7673 1.1-1.3653 1.94-1.7738.84-.4086 1.82-.6179 2.96-.6179h1.42v-5.1022h-.82c-1.56 0-2.93.3986-4.11 1.2058Zm27.36-1.0564h-5.89l-8.6 9.7661v-17.818h-5.07v29.9956h5.07V40.1083l8.71 10.8821h6.17l-9.31-11.6993 8.92-10.2444Zm17.2.9468c-1.69-.9667-3.62-1.455-5.78-1.455s-4.05.4983-5.79 1.4849c-1.74.9965-3.11 2.3617-4.12 4.1057-1 1.7439-1.5 3.6971-1.5 5.8496s.5 4.1755 1.49 5.9394c1 1.7539 2.36 3.1291 4.08 4.1156 1.73.9866 3.67 1.4749 5.84 1.4749 1.71 0 3.26-.2591 4.67-.7873 1.41-.5281 2.6-1.2755 3.59-2.2521.99-.9667 1.74-2.1326 2.26-3.4879h-5.53c-.56.7474-1.26 1.3254-2.11 1.734-.85.4086-1.8.6178-2.86.6178-1.2 0-2.28-.289-3.24-.8769-.96-.588-1.7-1.4051-2.24-2.4515-.43-.8371-.68-1.7638-.78-2.7703h17.37v-1.2258c0-2.2322-.47-4.2054-1.41-5.9493-.94-1.734-2.25-3.0892-3.95-4.0559l.01-.0099Zm-11.92 7.8427c.13-.7175.34-1.3952.67-2.023.54-1.0264 1.28-1.8236 2.24-2.4016.95-.578 2.03-.867 3.24-.867 1.21 0 2.27.2989 3.19.8969.92.5979 1.64 1.435 2.14 2.4913.28.5879.47 1.2257.59 1.8934h-12.07v.01Zm27.31-14.1408h-4.73v3.5576c0 .5282-.17.9567-.49 1.2955-.33.3388-.77.5082-1.31.5082h-2.41l-.02 4.3947h3.87l.02 11.7193c0 1.1161.26 2.1126.78 2.9995.52.8869 1.25 1.5745 2.19 2.0728.94.4983 2 .7474 3.17.7474h4.75v-4.3947h-3.74c-.6 0-1.1-.1993-1.49-.588-.39-.3886-.59-.8869-.59-1.4848l-.02-11.0814h5.85l.02-4.3948h-5.85v-5.3513Zm26.79 6.308c-1.54-.9766-3.29-1.4649-5.26-1.4649-1.81 0-3.4.3986-4.77 1.1959-1.18.6876-2.11 1.6243-2.84 2.7803v-3.468h-4.97v28.7999h5.07V47.7019c.71 1.0862 1.61 1.9631 2.72 2.6109 1.37.7972 2.96 1.1958 4.78 1.1958 1.95 0 3.7-.4883 5.25-1.4649 1.55-.9766 2.76-2.3418 3.63-4.0957.87-1.7539 1.31-3.7271 1.31-5.9195 0-2.1923-.44-4.1754-1.31-5.9293-.87-1.744-2.08-3.1092-3.62-4.0958h.01ZM473.6 43.646c-.52 1.0463-1.26 1.8734-2.2 2.4614-.95.5979-2.02.8869-3.23.8869s-2.32-.289-3.27-.8769c-.95-.588-1.68-1.4051-2.21-2.4615-.53-1.0563-.8-2.2721-.8-3.6473s.27-2.581.8-3.6274c.53-1.0463 1.27-1.8734 2.21-2.4614.95-.588 2.04-.8869 3.27-.8869s2.28.2989 3.23.8869c.95.588 1.68 1.4151 2.2 2.4614.52 1.0464.79 2.2622.79 3.6274 0 1.3653-.26 2.581-.79 3.6274v.01Zm9.8 7.3444h5.07V20.9948h-5.07v29.9956Zm26.7-18.6252c-.72-1.0962-1.62-1.9731-2.74-2.6308-1.37-.7973-2.96-1.1959-4.78-1.1959-1.96 0-3.72.4883-5.26 1.4649-1.54.9766-2.75 2.3419-3.62 4.0958-.87 1.7539-1.31 3.727-1.31 5.9293 0 2.2024.44 4.1755 1.31 5.9195.87 1.7539 2.09 3.1091 3.63 4.0957 1.55.9766 3.3 1.4649 5.25 1.4649 1.82 0 3.42-.3986 4.78-1.1958 1.12-.6577 2.02-1.5347 2.74-2.6309v3.3185h4.99V29.0467h-4.99v3.3185Zm-.81 11.2808c-.53 1.0463-1.27 1.8734-2.21 2.4614-.95.5979-2.04.8869-3.27.8869s-2.28-.289-3.23-.8769c-.95-.588-1.68-1.4051-2.2-2.4615-.52-1.0563-.78-2.2721-.78-3.6473s.26-2.581.78-3.6274c.52-1.0463 1.26-1.8734 2.2-2.4614.95-.588 2.02-.8869 3.23-.8869s2.32.2989 3.27.8869c.95.588 1.68 1.4151 2.21 2.4614.53 1.0464.8 2.2622.8 3.6274 0 1.3653-.27 2.581-.8 3.6274v.01Zm17.92-9.7362c.94-.5979 2-.8968 3.17-.8968.8 0 1.56.1494 2.26.4484.7.299 1.31.7175 1.84 1.2556.52.5382.94 1.1759 1.24 1.9134h5.4c-.39-1.5945-1.09-3.0096-2.1-4.2353-1.01-1.2257-2.26-2.1724-3.75-2.8501-1.49-.6776-3.12-1.0164-4.9-1.0164-2.15 0-4.1.4982-5.84 1.4948-1.74.9965-3.11 2.3717-4.11 4.1256-1 1.7539-1.49 3.7071-1.49 5.8596 0 2.1525.5 4.1057 1.49 5.8596.99 1.7539 2.37 3.1291 4.11 4.1257 1.74.9965 3.69 1.4948 5.84 1.4948 1.78 0 3.41-.3388 4.9-1.0165 1.49-.6776 2.74-1.6243 3.75-2.8501 1.01-1.2157 1.71-2.6308 2.1-4.2352h-5.4c-.3.7474-.71 1.3851-1.24 1.9133-.52.5381-1.14.9567-1.84 1.2556-.7.299-1.46.4485-2.26.4485-1.18 0-2.23-.299-3.17-.9069-.94-.6079-1.67-1.4449-2.2-2.5112-.53-1.0663-.8-2.2622-.8-3.5875 0-1.3254.27-2.5412.8-3.6075s1.26-1.8934 2.2-2.4913v.0099Zm38.64 6.0889c0-2.2323-.47-4.2054-1.41-5.9494-.94-1.7339-2.25-3.0892-3.95-4.0558-1.69-.9667-3.62-1.455-5.78-1.455s-4.05.4983-5.79 1.4849c-1.74.9965-3.11 2.3617-4.12 4.1057-1 1.7439-1.5 3.6971-1.5 5.8496s.5 4.1755 1.49 5.9394c1 1.7539 2.36 3.1291 4.08 4.1156 1.73.9866 3.67 1.4749 5.84 1.4749 1.71 0 3.26-.2591 4.67-.7873 1.41-.5281 2.6-1.2755 3.59-2.2521.99-.9667 1.74-2.1326 2.26-3.4879h-5.53c-.56.7474-1.26 1.3254-2.11 1.734-.85.4086-1.8.6178-2.86.6178-1.2 0-2.28-.289-3.24-.8769-.96-.588-1.7-1.4051-2.24-2.4515-.43-.8371-.68-1.7638-.78-2.7703h17.37v-1.2258l.01-.0099Zm-17.28-2.1625c.13-.7175.34-1.3952.67-2.023.54-1.0264 1.28-1.8236 2.24-2.4016.95-.578 2.03-.867 3.24-.867 1.21 0 2.27.2989 3.19.8969.92.5979 1.64 1.435 2.14 2.4913.28.5879.47 1.2257.59 1.8934h-12.07v.01Z"/>
    <path fill="url(#b)" d="M20.34 3.66 3.66 20.34C1.32 22.68 0 25.86 0 29.18V59c0 2.76 2.24 5 5 5h29.82c3.32 0 6.49-1.32 8.84-3.66l16.68-16.68c2.34-2.34 3.66-5.52 3.66-8.84V5c0-2.76-2.24-5-5-5H29.18c-3.32 0-6.49 1.32-8.84 3.66Z"/>
    <path fill="#000" d="M48 16H8v40h40V16Z"/>
    <path fill="#fff" d="M30 47H13v4h17v-4Z"/>
  </g>
</svg>
