<svg xmlns="http://www.w3.org/2000/svg" width="64" height="64" fill="none" viewBox="0 0 64 64">
  <defs>
    <linearGradient id="a" x1="32" x2="32" y1="63.4837" y2=".168752" gradientUnits="userSpaceOnUse">
      <stop stop-color="#00DFE3"/>
      <stop offset=".24" stop-color="#1E6296"/>
      <stop offset=".61"/>
    </linearGradient>
    <linearGradient id="b" x1="33.9577" x2="33.9577" y1="57.9938" y2="16.2288" gradientUnits="userSpaceOnUse">
      <stop stop-color="#A8E5E7"/>
      <stop offset="1" stop-color="#fff"/>
    </linearGradient>
    <linearGradient id="c" x1="33.9577" x2="33.9577" y1="57.9938" y2="16.2288" gradientUnits="userSpaceOnUse">
      <stop stop-color="#A8E5E7"/>
      <stop offset="1" stop-color="#fff"/>
    </linearGradient>
    <linearGradient id="d" x1="33.9577" x2="33.9577" y1="57.9938" y2="16.2288" gradientUnits="userSpaceOnUse">
      <stop stop-color="#A8E5E7"/>
      <stop offset="1" stop-color="#fff"/>
    </linearGradient>
  </defs>
  <path fill="url(#a)" d="M14.5506 0H49.4494A14.5506 14.5506 0 0 1 64 14.5506V49.4494A14.5506 14.5506 0 0 1 49.4494 64H14.5506A14.5506 14.5506 0 0 1 0 49.4494V14.5506A14.5506 14.5506 0 0 1 14.5506 0Z"/>
  <path fill="url(#b)" d="M44.6514 19.9832c.855 0 1.6276.215 2.3164.6425.6875.4275 1.2483.9861 1.6758 1.6748.4285.6887.6416 1.4616.6416 2.3164-.0001.8547-.2144 1.6282-.6416 2.3155-.3362.5411-.7529 1.0002-1.2491 1.3789.3725.33.6919.713.9619 1.1455.4288.6887.6426 1.4614.6426 2.3164-.0001.8548-.2152 1.6268-.6426 2.3154-.2612.42-.5712.7918-.9287 1.1143.4813.3762.8884.826 1.2159 1.3535.4286.69.6416 1.4615.6416 2.3164-.0001.8527-.2135 1.6232-.6387 2.3105v-.0029c-.3362.5412-.7538 1.0002-1.25 1.3789.3725.33.6929.7121.9629 1.1446.4287.69.6426 1.4614.6426 2.3164 0 .855-.2151 1.6276-.6426 2.3164-.4275.6899-.9862 1.2473-1.6748 1.6748-.6888.4287-1.4615.6425-2.3164.6426-.855 0-1.6277-.2151-2.3164-.6426-.4213-.2613-.7935-.5727-1.1172-.9326-.3175.3475-.6818.6502-1.0918.9052-.6887.4287-1.4615.6426-2.3164.6426-.8547-.0001-1.6269-.2153-2.3155-.6426-.5412-.335-.9989-.7527-1.3789-1.249-.3837.5088-.8491.9361-1.4004 1.2774-.6887.4287-1.4614.6425-2.3164.6425-.8547 0-1.6268-.2152-2.3154-.6425-.4212-.2613-.7944-.5727-1.1182-.9327-.3174.3475-.6809.6503-1.0908.9053-.6887.4287-1.4614.6426-2.3164.6426-.855 0-1.6276-.2151-2.3164-.6426-.6899-.4275-1.2473-.9861-1.6748-1.6748-.4287-.6875-.6426-1.4614-.6426-2.3164 0-.855.2151-1.6277.6426-2.3164.4275-.6874.9861-1.2474 1.6748-1.6748.6875-.4288 1.4614-.6426 2.3164-.6426.855 0 1.6277.2151 2.3164.6426.4211.2624.7935.5737 1.1172.9336.3175-.3475.6806-.6493 1.0918-.9043.6874-.4287 1.4606-.6425 2.3154-.6426.855 0 1.6277.2151 2.3164.6426.54.3362.999.7538 1.3789 1.25.3825-.5088.8492-.9371 1.4004-1.2783.6873-.4285 1.4608-.6425 2.3155-.6426.8548 0 1.6277.2152 2.3164.6426.4212.2625.7944.5745 1.1181.9345.2025-.2212.4231-.4246.6631-.6084-.3723-.3298-.692-.711-.9619-1.1445-.4287-.6875-.6426-1.4614-.6426-2.3164 0-.855.2151-1.6277.6426-2.3164.2612-.4199.5713-.7909.9287-1.1133-.2387-.185-.4582-.3888-.6582-.6113-.3174.3474-.6809.6503-1.0908.9053-.6887.4286-1.4615.6425-2.3164.6425-.8549 0-1.6277-.2151-2.3164-.6425-.5411-.335-.998-.753-1.3779-1.2491-.3838.5088-.8492.9361-1.4004 1.2774-.6888.4287-1.4614.6426-2.3164.6426-.855-.0001-1.6277-.2151-2.3164-.6426-.4212-.2613-.7935-.5727-1.1172-.9326-.3175.3475-.6818.6502-1.0918.9052-.6886.4286-1.4608.6425-2.3155.6426-.8549 0-1.6277-.2152-2.3164-.6426-.6898-.4274-1.2473-.9862-1.6748-1.6748-.4287-.6874-.6425-1.4614-.6426-2.3164 0-.855.2151-1.6276.6426-2.3164.4275-.6874.9861-1.2473 1.6748-1.6748.6875-.4287 1.4615-.6426 2.3164-.6426.8548.0001 1.6269.2153 2.3155.6426.4212.2625.7944.5736 1.1181.9336.3175-.3474.6797-.6503 1.0909-.9053.6874-.4287 1.4614-.6425 2.3164-.6425.8549 0 1.6276.215 2.3164.6425.54.3363.9989.7538 1.3789 1.25.3824-.5085.8483-.9361 1.3994-1.2773.6874-.4287 1.4615-.6426 2.3164-.6426.855 0 1.6277.2151 2.3164.6426.4211.2624.7935.5737 1.1172.9336.2025-.2225.4241-.4247.664-.6084-.3725-.33-.6928-.7118-.9628-1.1455-.4285-.6885-.6416-1.4608-.6416-2.3155 0-.8548.2142-1.6277.6416-2.3164.4275-.6875.987-1.2473 1.6757-1.6748.6874-.4286 1.4607-.6425 2.3155-.6425Z"/>
  <path fill="url(#c)" d="M16.1377 34.239c.855 0 1.6277.2151 2.3164.6426.6874.4275 1.2474.9861 1.6748 1.6748.4288.69.6426 1.4614.6426 2.3164 0 .855-.2151 1.6277-.6426 2.3164-.4275.6899-.9862 1.2474-1.6748 1.6748-.6887.4288-1.4614.6426-2.3164.6426-.855 0-1.6277-.2151-2.3164-.6426-.6899-.4274-1.2473-.9862-1.6748-1.6748-.4287-.6875-.6426-1.4614-.6426-2.3164 0-.855.2151-1.6277.6426-2.3164.4274-.6874.9861-1.2473 1.6748-1.6748.6875-.4288 1.4614-.6426 2.3164-.6426Z"/>
  <path fill="url(#d)" d="M23.2666 12.8513c.855 0 1.6277.2151 2.3164.6426.4211.2624.7935.5737 1.1172.9336.3175-.3475.6806-.6493 1.0918-.9043.6874-.4286 1.4606-.6425 2.3154-.6426.855 0 1.6277.2151 2.3164.6426.54.3362.9989.7537 1.3789 1.25.3825-.5088.8492-.9371 1.4004-1.2783.6874-.4286 1.4616-.6416 2.3164-.6416.8547 0 1.627.2143 2.3155.6416.6875.4275 1.2482.987 1.6757 1.6758.4285.6885.6416 1.4608.6416 2.3154 0 .8548-.2142 1.6277-.6416 2.3164-.4275.69-.987 1.2483-1.6757 1.6758-.6885.4285-1.4608.6415-2.3155.6416-.8548 0-1.6277-.2143-2.3164-.6416-.5412-.335-.9989-.7529-1.3789-1.2491-.3837.5088-.8491.9362-1.4004 1.2774-.6887.4287-1.4615.6426-2.3164.6426-.8547-.0001-1.6268-.2153-2.3154-.6426-.4213-.2613-.7944-.5726-1.1182-.9326-.3174.3474-.6808.6503-1.0908.9052-.6887.4288-1.4614.6426-2.3164.6426-.855 0-1.6277-.2151-2.3164-.6426v-.0029c-.6899-.4275-1.2473-.9861-1.6748-1.6748-.4288-.6875-.6426-1.4614-.6426-2.3164 0-.8549.2151-1.6277.6426-2.3164.4275-.6874.9861-1.2474 1.6748-1.6748.6875-.4288 1.4614-.6426 2.3164-.6426Z"/>
</svg>
