<svg height="70" viewBox="0 0 70 70" width="70" xmlns="http://www.w3.org/2000/svg" xmlns:xlink="http://www.w3.org/1999/xlink"><linearGradient id="a" gradientUnits="userSpaceOnUse" x1="52.98971" x2="-13.62198" y1="93.04294" y2="7.72011"><stop offset=".0914" stop-color="#0b8fff"/><stop offset=".2077" stop-color="#0d94f6"/><stop offset=".39603" stop-color="#11a3de"/><stop offset=".63282" stop-color="#18bbb7"/><stop offset=".87097" stop-color="#21d789"/></linearGradient><linearGradient id="b" x1="89.30273" x2="22.69106" xlink:href="#a" y1="64.6933" y2="-20.62952"/><linearGradient id="c" gradientUnits="userSpaceOnUse" x1="39.29329" x2="63.14902" y1="52.75833" y2="-11.39423"><stop offset=".12297" stop-color="#21d789"/><stop offset=".13191" stop-color="#27d788"/><stop offset=".21553" stop-color="#59d87b"/><stop offset=".30328" stop-color="#85d970"/><stop offset=".39353" stop-color="#abda67"/><stop offset=".487" stop-color="#cadb5f"/><stop offset=".58469" stop-color="#e1db59"/><stop offset=".68842" stop-color="#f2dc55"/><stop offset=".80231" stop-color="#fcdc53"/><stop offset=".94595" stop-color="#ffdc52"/></linearGradient><path d="m0 70h70l-35.156-35.094-34.844-34.906z" fill="url(#a)"/><path d="m70 70-35.156-35.094 35.156-34.906z" fill="url(#b)"/><path d="m50.884 50.884-16.04-15.978 35.156-34.906z" fill="url(#c)"/><path d="m37 53h33v17h-33z" fill="#d99e2b"/><path d="m40.05563 66.966h7.19661v-1.72329h-5.50724v-2.94521h4.82041v-1.72325h-4.82041v-2.85131h5.43874v-1.72325h-7.12811z"/><path d="m48.15627 66.966h1.86832l1.06757-2.6268h4.9082l1.05281 2.6268h1.9277l-4.5671-10.95841h-1.6904zm3.60316-4.321 1.77945-4.35241 1.79421 4.35241z"/><path d="m59.87536 66.966h1.62869v-3.52491h1.84026a3.50288 3.50288 0 0 0 3.70715-3.74426v-.03124a3.3623 3.3623 0 0 0 -3.52185-3.6659h-3.65425zm1.62869-5.26364v-3.94818h1.89333a1.80657 1.80657 0 0 1 1.99894 1.95836v.03146a1.86935 1.86935 0 0 1 -1.99894 1.95836z"/></svg>