<svg id="Layer_1" data-name="Layer 1" xmlns="http://www.w3.org/2000/svg" viewBox="0 0 718 151">
  <title>mps_text_full</title>
  <g>
    <g id="_Group_" data-name="&lt;Group&gt;">
      <path id="_Compound_Path_" data-name="&lt;Compound Path&gt;" d="M0,1.998H33.17189L69.94058,61.14654,106.70928,1.998h33.17189V141.87918H109.30711V50.55607L69.94058,110.30532h-.799L30.17415,51.15674v90.72243H0Z"/>
      <path id="_Compound_Path_2" data-name="&lt;Compound Path&gt;" d="M149.86373,1.998h57.1514c33.37184,0,53.5546,19.78365,53.5546,48.359v.39831c0,32.37368-25.17845,49.15878-56.55153,49.15878H180.63775v41.96517h-30.774Zm55.15344,70.53887c15.387,0,24.37943-9.19157,24.37943-21.18093V50.956c0-13.78817-9.59229-21.18254-24.9793-21.18254H180.63775V72.53683Z"/>
      <path id="_Compound_Path_3" data-name="&lt;Compound Path&gt;" d="M259.07913,121.49646l18.18479-21.78161c12.58922,10.39131,25.77832,16.98586,41.7652,16.98586,12.58842,0,20.18195-4.9949,20.18195-13.1891v-.39991c0-7.79429-4.79574-11.79021-28.17539-17.78408-28.17619-7.19522-46.361-14.9879-46.361-42.76339v-.40152C264.6747,16.7851,285.0574,0,313.6327,0c20.38271,0,37.76848,6.39379,51.95655,17.78408l-15.98688,23.1805c-12.38927-8.59251-24.57938-13.78817-36.368-13.78817-11.791,0-17.98564,5.39481-17.98564,12.18851v.40152c0,9.19157,5.99468,12.18851,30.17415,18.38315,28.37615,7.39438,44.363,17.58654,44.363,41.96517v.39991c0,27.77548-21.18253,43.36245-51.35748,43.36245A89.01108,89.01108,0,0,1,259.07913,121.49646Z"/>
    </g>
    <g>
      <path d="M402.19219,6.61241h8.957l9.92765,15.971,9.92852-15.971h8.95614V44.38171h-8.25526V19.7235L421.07685,35.85669h-.216l-10.521-15.971v24.496h-8.1477Z"/>
      <path d="M440.77427,30.08312v-.10756c0-8.25526,5.88112-15.05412,14.29772-15.05412,9.65875,0,14.0826,7.49973,14.0826,15.70121,0,.648-.05378,1.40262-.10756,2.15815H448.92111a6.70818,6.70818,0,0,0,7.06863,5.666,9.477,9.477,0,0,0,7.014-2.96832l4.69449,4.155a14.46365,14.46365,0,0,1-11.8169,5.39537C447.19494,45.02881,440.77427,38.9317,440.77427,30.08312Zm20.39484-2.42792c-.48576-3.6692-2.6439-6.15089-6.09711-6.15089-3.39856,0-5.61136,2.42792-6.25845,6.15089Z"/>
      <path d="M471.69268,36.18024V22.47583h-3.45321V15.461h3.45321V8.06881h8.20148V15.461h6.798v7.01485h-6.798V34.83139c0,1.88838.80931,2.80611,2.6439,2.80611a8.3476,8.3476,0,0,0,4.04653-1.02529v6.58287a12.0983,12.0983,0,0,1-6.47444,1.67239C475.09211,44.86747,471.69268,42.87066,471.69268,36.18024Z"/>
      <path d="M487.2872,36.07267v-.10843c0-6.31223,4.80205-9.22591,11.65469-9.22591a20.54671,20.54671,0,0,1,7.06863,1.18663v-.48576c0-3.39943-2.10437-5.28781-6.20554-5.28781a21.2875,21.2875,0,0,0-7.98549,1.56483l-2.04972-6.25845a25.50509,25.50509,0,0,1,11.22271-2.32036c4.4785,0,7.71572,1.18663,9.76631,3.23722,2.15815,2.15815,3.12879,5.34159,3.12879,9.22677V44.38171h-7.93084V41.25205a11.11872,11.11872,0,0,1-8.741,3.6692C491.7657,44.92125,487.2872,41.79159,487.2872,36.07267Zm18.83087-1.88838V32.727a12.7218,12.7218,0,0,0-5.234-1.07907c-3.507,0-5.66514,1.40262-5.66514,3.99275v.10843c0,2.21193,1.8346,3.507,4.4785,3.507C503.528,39.25612,506.11808,37.15175,506.11808,34.1843Z"/>
    </g>
    <g>
      <path d="M402.19219,54.13944h15.43145c9.01078,0,14.4608,5.34159,14.4608,13.05731v.10756c0,8.741-6.79886,13.2733-15.2701,13.2733h-6.3131V91.90875h-8.309ZM417.0841,73.1863c4.155,0,6.58287-2.48256,6.58287-5.71978V67.359c0-3.723-2.59012-5.71978-6.74421-5.71978h-6.42153V73.1863Z"/>
      <path d="M432.94926,62.988h8.20148v5.82734c1.67239-3.99275,4.37007-6.58287,9.22591-6.36688v8.57881h-.43111c-5.45,0-8.7948,3.29187-8.7948,10.19829V91.90875h-8.20148Z"/>
      <path d="M449.6775,77.61015v-.10756c0-8.30991,6.69043-15.05412,15.70121-15.05412,8.95614,0,15.59279,6.63665,15.59279,14.94569v.10843c0,8.309-6.69043,15.05325-15.70121,15.05325C456.31415,92.55584,449.6775,85.91919,449.6775,77.61015Zm23.20095,0v-.10756a7.6842,7.6842,0,0,0-7.60816-7.98549c-4.69362,0-7.49973,3.61455-7.49973,7.87706v.10843a7.6842,7.6842,0,0,0,7.60816,7.98549C470.07234,85.48808,472.87845,81.87267,472.87845,77.61015Z"/>
      <path d="M483.13138,97.62853l2.80611-6.15176a18.86633,18.86633,0,0,0,9.76631,2.6439c5.61136,0,8.25526-2.69768,8.25526-7.87706V84.84012c-2.42792,2.91367-5.07182,4.69449-9.44276,4.69449-6.74421,0-12.84132-4.90961-12.84132-13.48929v-.10756c0-8.63346,6.20467-13.48929,12.84132-13.48929a11.70772,11.70772,0,0,1,9.33433,4.31629V62.988h8.20148V85.37966c0,5.18025-1.24041,8.957-3.6692,11.38492-2.69768,2.69768-6.85177,3.88519-12.46313,3.88519A27.44727,27.44727,0,0,1,483.13138,97.62853Zm20.82768-21.58321v-.10756c0-3.939-3.07588-6.69043-7.06863-6.69043s-7.014,2.75146-7.014,6.69043v.10756c0,3.99275,3.02123,6.69043,7.014,6.69043S503.95906,79.98429,503.95906,76.04532Z"/>
      <path d="M513.78,62.988h8.20148v5.82734c1.67239-3.99275,4.37007-6.58287,9.22591-6.36688v8.57881h-.43111c-5.45,0-8.7948,3.29187-8.7948,10.19829V91.90875H513.78Z"/>
      <path d="M529.42919,83.59971v-.10843c0-6.31223,4.80205-9.22591,11.65469-9.22591A20.54671,20.54671,0,0,1,548.1525,75.452v-.48576c0-3.39943-2.10437-5.28781-6.20554-5.28781a21.2875,21.2875,0,0,0-7.98549,1.56483l-2.04972-6.25845a25.50509,25.50509,0,0,1,11.22271-2.32036c4.4785,0,7.71572,1.18663,9.76631,3.23722,2.15815,2.15815,3.12879,5.34159,3.12879,9.22677V91.90875h-7.93084V88.77908a11.11872,11.11872,0,0,1-8.741,3.6692C533.90769,92.44828,529.42919,89.31862,529.42919,83.59971Zm18.83087-1.88838V80.25406a12.7218,12.7218,0,0,0-5.234-1.07907c-3.507,0-5.66514,1.40262-5.66514,3.99275v.10843c0,2.21193,1.8346,3.507,4.4785,3.507C545.66994,86.78315,548.26006,84.67878,548.26006,81.71133Z"/>
      <path d="M557.64991,62.988h8.20148v4.10117c1.88838-2.42878,4.37007-4.64071,8.525-4.64071,3.77676,0,6.63665,1.67239,8.14683,4.58606a11.91049,11.91049,0,0,1,9.49654-4.58606c6.09711,0,9.76631,3.6692,9.76631,10.62939V91.90875h-8.20148V75.77555c0-3.88432-1.72617-5.88112-4.80205-5.88112s-4.96426,1.99681-4.96426,5.88112V91.90875h-8.20148V75.77555c0-3.88432-1.72617-5.88112-4.80205-5.88112-3.075,0-4.96339,1.99681-4.96339,5.88112V91.90875h-8.20148Z"/>
      <path d="M603.40818,62.988h8.20148v4.10117c1.88838-2.42878,4.37007-4.64071,8.525-4.64071,3.77676,0,6.63665,1.67239,8.14683,4.58606a11.91049,11.91049,0,0,1,9.49654-4.58606c6.09711,0,9.76631,3.6692,9.76631,10.62939V91.90875h-8.20148V75.77555c0-3.88432-1.72617-5.88112-4.80205-5.88112s-4.96426,1.99681-4.96426,5.88112V91.90875H621.3751V75.77555c0-3.88432-1.72617-5.88112-4.80205-5.88112-3.075,0-4.96339,1.99681-4.96339,5.88112V91.90875h-8.20148Z"/>
      <path d="M649.27314,52.52083h8.63346v7.28375h-8.63346Zm.216,10.46719h8.20148V91.90875h-8.20148Z"/>
      <path d="M659.84962,62.988h8.20148v4.10117c1.88838-2.42878,4.31629-4.64071,8.47125-4.64071,6.20467,0,9.82009,4.10117,9.82009,10.73782V91.90875H678.141V75.77555c0-3.88432-1.8346-5.88112-4.96426-5.88112s-5.1256,1.99681-5.1256,5.88112V91.90875h-8.20148Z"/>
      <path d="M688.93256,97.62853l2.80611-6.15176a18.86633,18.86633,0,0,0,9.76631,2.6439c5.61136,0,8.25526-2.69768,8.25526-7.87706V84.84012c-2.42792,2.91367-5.07182,4.69449-9.44276,4.69449-6.74421,0-12.84132-4.90961-12.84132-13.48929v-.10756c0-8.63346,6.20467-13.48929,12.84132-13.48929a11.70772,11.70772,0,0,1,9.33433,4.31629V62.988h8.20148V85.37966c0,5.18025-1.24041,8.957-3.6692,11.38492-2.69768,2.69768-6.85177,3.88519-12.46313,3.88519A27.44727,27.44727,0,0,1,688.93256,97.62853Zm20.82768-21.58321v-.10756c0-3.939-3.07588-6.69043-7.06863-6.69043s-7.014,2.75146-7.014,6.69043v.10756c0,3.99275,3.02123,6.69043,7.014,6.69043S709.76024,79.98429,709.76024,76.04532Z"/>
    </g>
    <g>
      <path d="M400.40993,136.63632l4.91048-5.88112c3.39943,2.80611,6.9602,4.58606,11.27649,4.58606,3.39943,0,5.45-1.34884,5.45-3.56077v-.10756c0-2.10437-1.29506-3.18344-7.60816-4.80205-7.60816-1.943-12.51777-4.04739-12.51777-11.54713v-.10756c0-6.85264,5.5038-11.38492,13.21952-11.38492a21.864,21.864,0,0,1,14.02882,4.80205l-4.31716,6.25845c-3.34478-2.31949-6.63665-3.723-9.82009-3.723s-4.85583,1.45727-4.85583,3.29187v.10756c0,2.48256,1.61861,3.29187,8.1477,4.96426,7.66194,1.99594,11.97824,4.74827,11.97824,11.33114v.10756c0,7.49973-5.71978,11.70847-13.86662,11.70847A24.032,24.032,0,0,1,400.40993,136.63632Z"/>
      <path d="M448.48768,113.21939h8.525l-11.11428,29.62248c-2.21279,5.88112-4.58693,8.09305-9.49654,8.09305a13.58542,13.58542,0,0,1-7.28461-1.99594l2.75233-5.93577a7.44817,7.44817,0,0,0,3.507,1.13372,2.7402,2.7402,0,0,0,2.85989-1.88925l-11.33114-29.02829h8.68724l6.58287,19.694Z"/>
      <path d="M453.83187,138.30958l3.507-5.39624a16.35189,16.35189,0,0,0,9.11921,3.45321c2.37414,0,3.45321-.86309,3.45321-2.15815v-.10756c0-1.78082-2.80611-2.37414-5.98955-3.34565-4.04653-1.18663-8.63259-3.075-8.63259-8.68724v-.10756c0-5.88112,4.74827-9.17213,10.57561-9.17213a20.01513,20.01513,0,0,1,10.79074,3.34478l-3.12966,5.66514c-2.859-1.67239-5.71892-2.69768-7.82328-2.69768-1.99681,0-3.02123.864-3.02123,1.99681v.10756c0,1.61861,2.75146,2.37414,5.88112,3.45321,4.04653,1.34884,8.741,3.29187,8.741,8.57881v.10843c0,6.42066-4.80205,9.33433-11.06137,9.33433A20.26245,20.26245,0,0,1,453.83187,138.30958Z"/>
      <path d="M480.75753,133.93864V120.23423h-3.45321v-7.01485h3.45321v-7.39217H488.959v7.39217h6.798v7.01485h-6.798V132.5898c0,1.88838.80931,2.80611,2.6439,2.80611a8.3476,8.3476,0,0,0,4.04653-1.02529v6.58287a12.0983,12.0983,0,0,1-6.47444,1.67239C484.157,142.62587,480.75753,140.62907,480.75753,133.93864Z"/>
      <path d="M495.54362,127.84153V127.734c0-8.25526,5.88112-15.05412,14.29772-15.05412,9.65875,0,14.0826,7.49973,14.0826,15.70121,0,.648-.05378,1.40262-.10756,2.15815H503.69045a6.70818,6.70818,0,0,0,7.06863,5.666,9.477,9.477,0,0,0,7.014-2.96832l4.69449,4.155a14.46365,14.46365,0,0,1-11.8169,5.39537C501.96428,142.78721,495.54362,136.6901,495.54362,127.84153Zm20.39484-2.42792c-.48576-3.6692-2.6439-6.15089-6.09711-6.15089-3.39856,0-5.61136,2.42792-6.25845,6.15089Z"/>
      <path d="M525.167,113.21939h8.20148v4.10117c1.88838-2.42878,4.37007-4.64071,8.525-4.64071,3.77676,0,6.63665,1.67239,8.14683,4.58606a11.91049,11.91049,0,0,1,9.49654-4.58606c6.09711,0,9.76631,3.6692,9.76631,10.62939v18.83087h-8.20148V126.00693c0-3.88432-1.72617-5.88112-4.80205-5.88112s-4.96426,1.99681-4.96426,5.88112v16.13319h-8.20148V126.00693c0-3.88432-1.72617-5.88112-4.80205-5.88112-3.075,0-4.96339,1.99681-4.96339,5.88112v16.13319H525.167Z"/>
    </g>
  </g>
</svg>
