<svg id="Layer_1" data-name="Layer 1" xmlns="http://www.w3.org/2000/svg" xmlns:xlink="http://www.w3.org/1999/xlink" width="70" height="70" viewBox="0 0 70 70">
  <defs>
    <linearGradient id="linear-gradient" x1="52.98971" y1="93.04294" x2="-13.62198" y2="7.72011" gradientUnits="userSpaceOnUse">
      <stop offset="0.0914" stop-color="#0b8fff"/>
      <stop offset="0.2077" stop-color="#0d94f6"/>
      <stop offset="0.39603" stop-color="#11a3de"/>
      <stop offset="0.63282" stop-color="#18bbb7"/>
      <stop offset="0.87097" stop-color="#21d789"/>
    </linearGradient>
    <linearGradient id="linear-gradient-2" x1="89.30273" y1="64.6933" x2="22.69106" y2="-20.62952" xlink:href="#linear-gradient"/>
    <linearGradient id="linear-gradient-3" x1="39.29329" y1="52.75833" x2="63.14902" y2="-11.39423" gradientUnits="userSpaceOnUse">
      <stop offset="0.12297" stop-color="#21d789"/>
      <stop offset="0.13191" stop-color="#27d788"/>
      <stop offset="0.21553" stop-color="#59d87b"/>
      <stop offset="0.30328" stop-color="#85d970"/>
      <stop offset="0.39353" stop-color="#abda67"/>
      <stop offset="0.487" stop-color="#cadb5f"/>
      <stop offset="0.58469" stop-color="#e1db59"/>
      <stop offset="0.68842" stop-color="#f2dc55"/>
      <stop offset="0.80231" stop-color="#fcdc53"/>
      <stop offset="0.94595" stop-color="#ffdc52"/>
    </linearGradient>
  </defs>
  <title>mpsEAP</title>
  <g>
    <polygon points="0 70 70 70 34.844 34.906 0 0 0 70" fill="url(#linear-gradient)"/>
    <polygon id="_Path_" data-name="&lt;Path&gt;" points="70 70 34.844 34.906 70 0 70 70" fill="url(#linear-gradient-2)"/>
    <polygon id="_Path_2" data-name="&lt;Path&gt;" points="50.884 50.884 34.844 34.906 70 0 50.884 50.884" fill="url(#linear-gradient-3)"/>
  </g>
  <g>
    <rect x="37" y="53" width="33" height="17" fill="#d99e2b"/>
    <g>
      <path d="M40.05563,66.966h7.19661V65.24271H41.745V62.2975h4.82041V60.57425H41.745V57.72294h5.43874V55.99969H40.05563Z"/>
      <path d="M48.15627,66.966h1.86832l1.06757-2.6268h4.9082l1.05281,2.6268h1.9277l-4.5671-10.95841h-1.6904Zm3.60316-4.321,1.77945-4.35241L55.33309,62.645Z"/>
      <path d="M59.87536,66.966h1.62869V63.44109h1.84026a3.50288,3.50288,0,0,0,3.70715-3.74426v-.03124a3.3623,3.3623,0,0,0-3.52185-3.6659H59.87536Zm1.62869-5.26364V57.75418h1.89333a1.80657,1.80657,0,0,1,1.99894,1.95836V59.744a1.86935,1.86935,0,0,1-1.99894,1.95836Z"/>
    </g>
  </g>
</svg>
