<svg height="151" viewBox="0 0 903 151" width="903" xmlns="http://www.w3.org/2000/svg" xmlns:xlink="http://www.w3.org/1999/xlink"><linearGradient id="a" gradientUnits="userSpaceOnUse" x1="105.97886" x2="-27.24385" y1="187.79332" y2="17.1485"><stop offset=".0914" stop-color="#0b8fff"/><stop offset=".2077" stop-color="#0d94f6"/><stop offset=".39603" stop-color="#11a3de"/><stop offset=".63282" stop-color="#18bbb7"/><stop offset=".87097" stop-color="#21d789"/></linearGradient><linearGradient id="b" x1="178.60455" x2="45.38182" xlink:href="#a" y1="131.09432" y2="-39.55053"/><linearGradient id="c" gradientUnits="userSpaceOnUse" x1="78.58615" x2="126.29738" y1="107.22451" y2="-21.08"><stop offset=".12297" stop-color="#21d789"/><stop offset=".13191" stop-color="#27d788"/><stop offset=".21553" stop-color="#59d87b"/><stop offset=".30328" stop-color="#85d970"/><stop offset=".39353" stop-color="#abda67"/><stop offset=".487" stop-color="#cadb5f"/><stop offset=".58469" stop-color="#e1db59"/><stop offset=".68842" stop-color="#f2dc55"/><stop offset=".80231" stop-color="#fcdc53"/><stop offset=".94595" stop-color="#ffdc52"/></linearGradient><path d="m184.8349 1.998h33.17189l36.76869 59.14858 36.7687-59.14858h33.17189v139.88118h-30.57407v-91.32311l-39.36652 59.74925h-.799l-38.96748-59.14858v90.72243h-30.1741z"/><path d="m334.69863 1.998h57.15137c33.37184 0 53.5546 19.78365 53.5546 48.359v.39831c0 32.37368-25.17845 49.15878-56.55153 49.15878h-23.38042v41.96517h-30.774zm55.15344 70.53887c15.387 0 24.37943-9.19157 24.37943-21.18093v-.39994c0-13.78817-9.59229-21.18254-24.9793-21.18254h-23.77955v42.76337z"/><path d="m443.914 121.49646 18.18479-21.78161c12.58922 10.39131 25.77832 16.98586 41.7652 16.98586 12.58842 0 20.18195-4.9949 20.18195-13.1891v-.39991c0-7.79429-4.79574-11.79021-28.17539-17.78408-28.17619-7.19522-46.361-14.9879-46.361-42.76339v-.40152c.00005-25.37761 20.38275-42.16271 48.95805-42.16271 20.38271 0 37.76848 6.39379 51.95655 17.78408l-15.98688 23.1805c-12.38927-8.59251-24.57938-13.78817-36.368-13.78817-11.791 0-17.98564 5.39481-17.98564 12.18851v.40152c0 9.19157 5.99468 12.18851 30.17415 18.38315 28.37615 7.39438 44.363 17.58654 44.363 41.96517v.39991c0 27.77548-21.18253 43.36245-51.35748 43.36245a89.01108 89.01108 0 0 1 -59.3493-22.38066z"/><path d="m587.02709 6.61241h8.957l9.92765 15.971 9.92852-15.971h8.95614v37.7693h-8.25526v-24.65821l-10.62939 16.13319h-.216l-10.521-15.971v24.496h-8.1477z"/><path d="m625.60918 30.08312v-.10756c0-8.25526 5.88112-15.05412 14.29772-15.05412 9.65875 0 14.0826 7.49973 14.0826 15.70121 0 .648-.05378 1.40262-.10756 2.15815h-20.12594a6.70818 6.70818 0 0 0 7.06863 5.666 9.477 9.477 0 0 0 7.014-2.96832l4.69449 4.155a14.46365 14.46365 0 0 1 -11.8169 5.39537c-8.68638-.00004-15.10704-6.09715-15.10704-14.94573zm20.39482-2.42791c-.48576-3.6692-2.6439-6.15089-6.09711-6.15089-3.39856 0-5.61136 2.42792-6.25845 6.15089z"/><path d="m656.52758 36.18024v-13.70441h-3.45321v-7.01483h3.45321v-7.39219h8.20148v7.39219h6.798v7.01485h-6.798v12.35554c0 1.88838.80931 2.80611 2.6439 2.80611a8.3476 8.3476 0 0 0 4.04653-1.02529v6.58287a12.0983 12.0983 0 0 1 -6.47444 1.67239c-5.01805 0-8.41747-1.99681-8.41747-8.68723z"/><path d="m672.1221 36.07267v-.10843c0-6.31223 4.80205-9.22591 11.65469-9.22591a20.54671 20.54671 0 0 1 7.06863 1.18663v-.48576c0-3.39943-2.10437-5.28781-6.20554-5.28781a21.2875 21.2875 0 0 0 -7.98549 1.56483l-2.04972-6.25845a25.50509 25.50509 0 0 1 11.22271-2.32036c4.4785 0 7.71572 1.18663 9.76631 3.23722 2.15815 2.15815 3.12879 5.34159 3.12879 9.22677v16.78031h-7.93084v-3.12966a11.11872 11.11872 0 0 1 -8.741 3.6692c-5.45004 0-9.92854-3.12966-9.92854-8.84858zm18.8309-1.88837v-1.4573a12.7218 12.7218 0 0 0 -5.234-1.07907c-3.507 0-5.66514 1.40262-5.66514 3.99275v.10843c0 2.21193 1.8346 3.507 4.4785 3.507 3.83049.00001 6.42064-2.10436 6.42064-5.07181z"/><path d="m587.02709 54.13944h15.43145c9.01078 0 14.4608 5.34159 14.4608 13.05731v.10756c0 8.741-6.79886 13.2733-15.2701 13.2733h-6.3131v11.33114h-8.309zm14.89191 19.04686c4.155 0 6.58287-2.48256 6.58287-5.71978v-.10752c0-3.723-2.59012-5.71978-6.74421-5.71978h-6.42153v11.54708z"/><path d="m617.78416 62.988h8.20148v5.82734c1.67239-3.99275 4.37007-6.58287 9.22591-6.36688v8.57881h-.43111c-5.45 0-8.7948 3.29187-8.7948 10.19829v10.68319h-8.20148z"/><path d="m634.5124 77.61015v-.10756c0-8.30991 6.69043-15.05412 15.70121-15.05412 8.95614 0 15.59279 6.63665 15.59279 14.94569v.10843c0 8.309-6.69043 15.05325-15.70121 15.05325-8.95619 0-15.59279-6.63665-15.59279-14.94569zm23.20095 0v-.10756a7.6842 7.6842 0 0 0 -7.60816-7.98549c-4.69362 0-7.49973 3.61455-7.49973 7.87706v.10843a7.6842 7.6842 0 0 0 7.60816 7.98549c4.69362 0 7.49973-3.61541 7.49973-7.87793z"/><path d="m667.96628 97.62853 2.80611-6.15176a18.86633 18.86633 0 0 0 9.76631 2.6439c5.61136 0 8.25526-2.69768 8.25526-7.87706v-1.40349c-2.42792 2.91367-5.07182 4.69449-9.44276 4.69449-6.74421 0-12.84132-4.90961-12.84132-13.48929v-.10756c0-8.63346 6.20467-13.48929 12.84132-13.48929a11.70772 11.70772 0 0 1 9.33433 4.31629v-3.77676h8.20147v22.39166c0 5.18025-1.24041 8.957-3.6692 11.38492-2.69768 2.69768-6.85177 3.88519-12.46313 3.88519a27.44727 27.44727 0 0 1 -12.78839-3.02124zm20.82772-21.58321v-.10756c0-3.939-3.07588-6.69043-7.06863-6.69043s-7.014 2.75146-7.014 6.69043v.10756c0 3.99275 3.02123 6.69043 7.014 6.69043s7.06863-2.75146 7.06863-6.69043z"/><path d="m698.61492 62.988h8.20148v5.82734c1.67239-3.99275 4.37007-6.58287 9.22591-6.36688v8.57881h-.43111c-5.45 0-8.7948 3.29187-8.7948 10.19829v10.68319h-8.20148z"/><path d="m714.26409 83.59971v-.10843c0-6.31223 4.80205-9.22591 11.65469-9.22591a20.54671 20.54671 0 0 1 7.06862 1.18663v-.48576c0-3.39943-2.10437-5.28781-6.20554-5.28781a21.2875 21.2875 0 0 0 -7.98549 1.56483l-2.04972-6.25845a25.50509 25.50509 0 0 1 11.22271-2.32036c4.4785 0 7.71572 1.18663 9.76631 3.23722 2.15815 2.15815 3.12879 5.34159 3.12879 9.22677v16.78031h-7.93084v-3.12967a11.11872 11.11872 0 0 1 -8.741 3.6692c-5.45003 0-9.92853-3.12966-9.92853-8.84857zm18.83091-1.88838v-1.45727a12.7218 12.7218 0 0 0 -5.234-1.07907c-3.507 0-5.66514 1.40262-5.66514 3.99275v.10843c0 2.21193 1.8346 3.507 4.4785 3.507 3.83048-.00002 6.42064-2.10439 6.42064-5.07184z"/><path d="m742.48481 62.988h8.20148v4.10117c1.88838-2.42878 4.37007-4.64071 8.525-4.64071 3.77676 0 6.63665 1.67239 8.14683 4.58606a11.91049 11.91049 0 0 1 9.49654-4.58606c6.09711 0 9.76631 3.6692 9.76631 10.62939v18.8309h-8.20148v-16.1332c0-3.88432-1.72617-5.88112-4.80205-5.88112s-4.96426 1.99681-4.96426 5.88112v16.1332h-8.20148v-16.1332c0-3.88432-1.72617-5.88112-4.80205-5.88112-3.075 0-4.96339 1.99681-4.96339 5.88112v16.1332h-8.20148z"/><path d="m788.24308 62.988h8.20148v4.10117c1.88838-2.42878 4.37007-4.64071 8.525-4.64071 3.77676 0 6.63665 1.67239 8.14683 4.58606a11.91049 11.91049 0 0 1 9.49654-4.58606c6.09711 0 9.76631 3.6692 9.76631 10.62939v18.8309h-8.20148v-16.1332c0-3.88432-1.72617-5.88112-4.80205-5.88112s-4.96426 1.99681-4.96426 5.88112v16.1332h-8.20145v-16.1332c0-3.88432-1.72617-5.88112-4.80205-5.88112-3.075 0-4.96339 1.99681-4.96339 5.88112v16.1332h-8.20148z"/><path d="m834.108 52.52083h8.63346v7.28375h-8.63346zm.216 10.46719h8.20148v28.92073h-8.20148z"/><path d="m844.68452 62.988h8.20148v4.10117c1.88838-2.42878 4.31629-4.64071 8.47125-4.64071 6.20467 0 9.82009 4.10117 9.82009 10.73782v18.72247h-8.20148v-16.1332c0-3.88432-1.8346-5.88112-4.96426-5.88112s-5.1256 1.99681-5.1256 5.88112v16.1332h-8.20148z"/><path d="m873.76746 97.62853 2.80611-6.15176a18.86633 18.86633 0 0 0 9.76631 2.6439c5.61136 0 8.25526-2.69768 8.25526-7.87706v-1.40349c-2.42792 2.91367-5.07182 4.69449-9.44276 4.69449-6.74421 0-12.84132-4.90961-12.84132-13.48929v-.10756c0-8.63346 6.20467-13.48929 12.84132-13.48929a11.70772 11.70772 0 0 1 9.33433 4.31629v-3.77676h8.20148v22.39166c0 5.18025-1.24041 8.957-3.6692 11.38492-2.69768 2.69768-6.85177 3.88519-12.46313 3.88519a27.44727 27.44727 0 0 1 -12.7884-3.02124zm20.82768-21.58321v-.10756c0-3.939-3.07588-6.69043-7.06863-6.69043s-7.014 2.75146-7.014 6.69043v.10756c0 3.99275 3.02123 6.69043 7.014 6.69043s7.06863-2.75146 7.06863-6.69043z"/><path d="m585.24483 136.63632 4.91048-5.88112c3.39943 2.80611 6.9602 4.58606 11.27649 4.58606 3.39943 0 5.45-1.34884 5.45-3.56077v-.10756c0-2.10437-1.29506-3.18344-7.60816-4.80205-7.60816-1.943-12.51777-4.04739-12.51777-11.54713v-.10756c0-6.85264 5.5038-11.38492 13.21952-11.38492a21.864 21.864 0 0 1 14.02882 4.80205l-4.31716 6.25845c-3.34478-2.31949-6.63665-3.723-9.82009-3.723s-4.85583 1.45727-4.85583 3.29187v.10756c0 2.48256 1.61861 3.29187 8.1477 4.96426 7.66194 1.99594 11.97824 4.74827 11.97824 11.33114v.10756c0 7.49973-5.71978 11.70847-13.86662 11.70847a24.032 24.032 0 0 1 -16.02562-6.04331z"/><path d="m633.32259 113.21939h8.525l-11.11428 29.62248c-2.21279 5.88112-4.58693 8.09305-9.49654 8.09305a13.58542 13.58542 0 0 1 -7.28461-1.99594l2.75233-5.93577a7.44817 7.44817 0 0 0 3.507 1.13372 2.7402 2.7402 0 0 0 2.85989-1.88925l-11.33114-29.02829h8.68724l6.58287 19.694z"/><path d="m638.66678 138.30958 3.507-5.39624a16.35189 16.35189 0 0 0 9.11921 3.45321c2.37414 0 3.45321-.86309 3.45321-2.15815v-.10756c0-1.78082-2.80611-2.37414-5.98955-3.34565-4.04653-1.18663-8.63259-3.075-8.63259-8.68724v-.10756c0-5.88112 4.74827-9.17213 10.57561-9.17213a20.01513 20.01513 0 0 1 10.79074 3.34478l-3.12966 5.66514c-2.859-1.67239-5.71892-2.69768-7.82328-2.69768-1.99681 0-3.02123.864-3.02123 1.99681v.10756c0 1.61861 2.75146 2.37414 5.88112 3.45321 4.04653 1.34884 8.741 3.29187 8.741 8.57881v.10843c0 6.42066-4.80205 9.33433-11.06137 9.33433a20.26245 20.26245 0 0 1 -12.41021-4.37007z"/><path d="m665.59244 133.93864v-13.70441h-3.45321v-7.01485h3.45321v-7.39217h8.20148v7.39217h6.798v7.01485h-6.798v12.35557c0 1.88838.80931 2.80611 2.6439 2.80611a8.3476 8.3476 0 0 0 4.04653-1.02529v6.58287a12.0983 12.0983 0 0 1 -6.47444 1.67239c-5.01805-.00001-8.41747-1.99681-8.41747-8.68724z"/><path d="m680.37852 127.84153v-.10753c0-8.25526 5.88112-15.05412 14.29772-15.05412 9.65875 0 14.0826 7.49973 14.0826 15.70121 0 .648-.05378 1.40262-.10756 2.15815h-20.12593a6.70818 6.70818 0 0 0 7.06863 5.666 9.477 9.477 0 0 0 7.014-2.96832l4.69449 4.155a14.46365 14.46365 0 0 1 -11.8169 5.39537c-8.68639-.00008-15.10705-6.09719-15.10705-14.94576zm20.39484-2.42792c-.48576-3.6692-2.6439-6.15089-6.09711-6.15089-3.39856 0-5.61136 2.42792-6.25845 6.15089z"/><path d="m710.00186 113.21939h8.20148v4.10117c1.88838-2.42878 4.37007-4.64071 8.525-4.64071 3.77676 0 6.63665 1.67239 8.14683 4.58606a11.91049 11.91049 0 0 1 9.49654-4.58606c6.09711 0 9.76631 3.6692 9.76631 10.62939v18.83087h-8.20148v-16.13318c0-3.88432-1.72617-5.88112-4.80205-5.88112s-4.96426 1.99681-4.96426 5.88112v16.13319h-8.20148v-16.13319c0-3.88432-1.72617-5.88112-4.80205-5.88112-3.075 0-4.96339 1.99681-4.96339 5.88112v16.13319h-8.20148z"/><path d="m0 141.708h139.999l-70.311-70.189-69.688-69.81z" fill="url(#a)"/><path d="m139.999 141.708-70.311-70.189 70.311-69.811z" fill="url(#b)"/><path d="m101.767 103.475-32.079-31.956 70.311-69.811z" fill="url(#c)"/></svg>