<svg enable-background="new 0 0 140 140" height="140" viewBox="0 0 140 140" width="140" xmlns="http://www.w3.org/2000/svg"><path d="m0 0v140h140v-140zm11.375 72.625 8.75-9.625c3.5 4.375 7 6.125 11.375 6.125 5.25 0 8.75-3.5 8.75-10.5v-41.125h14v41.125c0 7.875-1.75 13.125-6.125 16.625-3.5 4.375-9.625 7-16.625 7-9.625 0-15.75-4.375-20.125-9.625zm67.375 49.875h-61.25v-8.75h61.25zm20.125-42h-30.625v-63h29.75c7 0 13.125 1.75 16.625 5.25 2.625 2.625 4.375 6.125 4.375 10.5 0 7-3.5 11.375-8.75 14 7.875 3.5 12.25 7.875 12.25 15.75 0 11.375-9.625 17.5-23.625 17.5z"/><path d="m105 35.875c0-4.375-3.5-6.125-8.75-6.125h-14v13.125h13.125c6.125 0 9.625-1.75 9.625-7z"/><path d="m98 55.125h-15.75v14h16.625c6.125 0 9.625-1.75 9.625-7 0-4.375-2.625-7-10.5-7z"/></svg>