<svg xmlns="http://www.w3.org/2000/svg" width="300" height="87" fill="none" viewBox="0 0 300 87">
  <defs>
    <linearGradient id="a" x1=".850001" x2="62.62" y1="62.72" y2="1.81" gradientUnits="userSpaceOnUse">
      <stop stop-color="#FF9419"/>
      <stop offset=".43" stop-color="#FF021D"/>
      <stop offset=".99" stop-color="#E600FF"/>
    </linearGradient>
  </defs>
  <path fill="#000" fill-rule="evenodd" d="M85.9459 42.8363c.3585-.6572.5377-1.4041.5377-2.2505v-19.568h6.6322v20.0659c0 1.892-.4381 3.5849-1.3045 5.0886-.8664 1.5037-2.0614 2.6888-3.585 3.5452-1.5236.8564-3.2364 1.2846-5.1484 1.2846h-5.0787v-6.1044h4.1924c.8465 0 1.5834-.1793 2.2406-.5378.6573-.3585 1.1552-.8663 1.5137-1.5236Zm32.2851-4.0729h-13.892v6.453h15.784v5.7757H97.8759V21.0178h21.8181v5.7758h-15.355v6.3633h13.892v5.6065Zm12.856-11.8005h-8.883l-.01.01v-5.9551h24.368v5.9451h-8.843v24.0193h-6.632V26.9629Zm36.467 8.355c.587.1593 1.155.3684 1.673.6472l.01-.0099c1.224.6473 2.171 1.5535 2.858 2.7285.687 1.1751 1.025 2.4996 1.025 3.9833 0 1.6133-.438 3.0473-1.304 4.302-.877 1.2647-2.101 2.2406-3.675 2.9476-1.583.7071-3.376 1.0556-5.387 1.0556h-13.573V20.9979h13.314c1.912 0 3.625.3386 5.118 1.0058 1.494.6772 2.659 1.6132 3.486 2.8082.826 1.205 1.245 2.5692 1.245 4.0929 0 1.3344-.319 2.5094-.936 3.5351-.618 1.0257-1.484 1.8224-2.58 2.39-.398.1992-.826.3585-1.274.488Zm-6.045-9.2712h-5.885v7.3393h5.885c.817 0 1.534-.1494 2.161-.4581s1.115-.7369 1.464-1.3045c.348-.5677.528-1.2548.528-1.9817 0-.727-.18-1.3643-.528-1.9021-.349-.5477-.837-.9659-1.464-1.2547-.627-.2888-1.344-.4382-2.161-.4382Zm2.649 19.4485c.687-.3087 1.225-.7469 1.603-1.3145.379-.5676.568-1.2249.568-1.9917 0-.7667-.199-1.4439-.578-2.0414-.378-.5975-.926-1.0556-1.613-1.3842-.697-.3286-1.484-.4979-2.37-.4979h-6.144v7.6878h6.144c.906 0 1.693-.1494 2.39-.4581Zm35.063-9.9881c-.916 1.4439-2.201 2.5692-3.864 3.3659h.01c-.319.1493-.657.2788-.996.3983l6.851 11.7208h-7.578l-6.084-10.9142h-4.322v10.9142h-6.642V21.0178h13.125c2.171 0 4.073.3884 5.716 1.1751 1.643.7867 2.917 1.8921 3.814 3.3261.896 1.4339 1.344 3.0472 1.344 4.9592 0 1.9119-.458 3.5849-1.374 5.0289Zm-7.598-1.3145c.687-.3286 1.215-.8166 1.583-1.444v-.0199c.369-.6274.558-1.3643.558-2.2008 0-.8364-.189-1.5734-.558-2.1908-.368-.6174-.896-1.1053-1.583-1.434-.687-.3286-1.494-.4979-2.42-.4979h-5.975v8.2952h5.975c.926 0 1.733-.1692 2.42-.5078Zm11.472 16.7995L213.8 21.0178h7.19l10.964 29.9743h-6.613l-2.27-6.6122h-11.114l-2.121 6.6122h-6.741Zm13.812-22.2068-3.446 10.5756h7.947l-3.685-10.5756-.408-1.922-.408 1.922Zm24.099 22.2068h-6.852V21.0178h6.852v29.9743Zm11.272-29.9743 12.896 20.275v-20.275h6.055v29.9743h-6.533L251.87 30.7172v20.2749h-6.055V21.0178h6.463ZM293.974 34.8c1.165.8465 2.081 1.8921 2.728 3.1369l-.02-.01c.647 1.2548.976 2.619.976 4.1028 0 1.8124-.478 3.4356-1.444 4.8696-.966 1.434-2.3 2.5593-4.023 3.3758-1.713.8166-3.704 1.2249-5.915 1.2249s-4.173-.3983-5.886-1.195c-1.712-.7966-3.057-1.912-4.033-3.336-.985-1.434-1.483-3.0771-1.513-4.9492h6.642c0 .7667.199 1.4539.617 2.0414.409.5975.986 1.0556 1.733 1.3742.747.3187 1.613.478 2.529.478.917 0 1.713-.1394 2.39-.4282.678-.2888 1.205-.6971 1.584-1.2248.378-.5278.567-1.1353.567-1.8025 0-.8365-.249-1.5236-.766-2.0813-.518-.5576-1.215-.946-2.102-1.1551l-5.397-1.1153c-1.414-.2988-2.649-.8365-3.724-1.6033-1.066-.7668-1.892-1.7327-2.48-2.8979-.587-1.1551-.876-2.4596-.876-3.9036 0-1.7825.458-3.3659 1.364-4.76.906-1.3942 2.181-2.4796 3.804-3.2663 1.623-.7867 3.475-1.1751 5.567-1.1751 2.091 0 3.963.3784 5.596 1.1352 1.633.7569 2.918 1.8025 3.834 3.1468.916 1.3344 1.404 2.878 1.444 4.6207h-6.642c0-.6473-.179-1.2149-.528-1.7228-.348-.5079-.836-.8963-1.464-1.1751-.627-.2788-1.364-.4182-2.181-.4182-.816 0-1.533.1294-2.151.3983-.617.2689-1.105.6373-1.443 1.1153-.349.478-.518 1.0357-.518 1.683 0 .707.239 1.3045.707 1.7825.468.478 1.105.8066 1.902.9958l5.098 1.0456c1.514.2888 2.858.8465 4.024 1.6929ZM84.4492 73.8699c.68.1501 1.29.4201 1.82.8101v-.01c.54.39.95.86 1.25 1.42.3.56.45 1.17.45 1.84 0 .7999-.22 1.5299-.65 2.18-.43.65-1.03 1.16-1.81 1.53-.78.37-1.66.56-2.66.56-1 0-1.89-.19-2.66-.55-.78-.3701-1.38-.88-1.82-1.5301-.44-.6499-.67-1.41-.67-2.2599h2.5c0 .4399.11.82.34 1.15.23.33.55.59.95.78.41.1899.89.28 1.4.28.51 0 .96-.0901 1.34-.26.38-.17.67-.4.89-.71.22-.31.32-.66.32-1.0501 0-.4899-.15-.8899-.44-1.2099-.29-.32-.7-.5401-1.21-.67l-2.44-.5501c-.66-.1499-1.24-.4099-1.73-.7599-.49-.35-.88-.79-1.15-1.3101-.27-.5199-.41-1.0999-.41-1.75 0-.7799.2-1.4899.61-2.1099.41-.62.98-1.11 1.7-1.4601.72-.3499 1.53-.5299 2.47-.5299.94 0 1.78.18 2.51.52.73.34 1.3.82 1.71 1.43.41.61.62 1.3099.62 2.1h-2.5c0-.37-.1-.7001-.29-.99-.19-.29-.46-.52-.81-.68-.35-.16-.77-.24-1.22-.24-.45 0-.85.08-1.2.23-.35.15-.62.37-.81.65-.19.28-.29.61-.29.98 0 .4199.14.77.41 1.04.27.27.65.47 1.12.6l2.36.5299Zm7.94 8.1001h-2.36V71.71h2.36v10.26Zm.16-11.34h-2.69v-2.34h2.69v2.34Zm4.65 11.34h-2.36V67.95h2.36v14.02Zm3.8098-10.26 2.67 7.26 2.57-7.26h2.44l-3.91 10.25h-2.33l-3.9498-10.25h2.5098Zm13.28-.2301c1 0 1.9.23 2.69.6801v-.01c.79.46 1.4 1.09 1.84 1.8999.44.8101.66 1.7401.66 2.7801v.57h-8.07c.04.4699.14.91.34 1.3.25.49.59.88 1.04 1.15.45.27.95.41 1.51.41.49 0 .94-.1 1.33-.29.39-.19.72-.46.98-.81h2.57c-.24.63-.59 1.18-1.05 1.63-.46.45-1.02.8-1.67 1.05-.65.25-1.38.37-2.17.37-1.01 0-1.92-.2301-2.72-.69-.8-.46-1.44-1.1-1.9-1.92-.47-.82-.7-1.77-.7-2.77s.23-1.92.7-2.73c.47-.82 1.11-1.4601 1.92-1.92.81-.4701 1.7-.7001 2.7-.7001Zm-2.55 3.39c-.15.3001-.24.6201-.3.9501h5.61c-.06-.32-.14-.62-.27-.89-.24-.5-.57-.89-1-1.17-.43-.2801-.93-.42-1.49-.42-.56 0-1.07.1399-1.51.41-.44.27-.79.6399-1.04 1.1199Zm11.95-1.5999c.27-.44.59-.7901.98-1.06l.01.01c.55-.38 1.18-.57 1.91-.57h.38v2.38h-.66c-.53 0-.99.1-1.38.29-.39.19-.69.47-.9.83-.21.36-.32.79-.32 1.28v5.54h-2.36V71.72h2.34v1.55Zm21.05 1.2099c-.4.6501-.97 1.16-1.71 1.5201h-.01c-.24.12-.51.2099-.78.29l3.41 5.67h-2.86l-3.15-5.43h-2.57v5.43h-2.49V67.95h5.95c.96 0 1.8.18 2.53.5299.73.3501 1.29.8501 1.69 1.5.4.64.6 1.3801.6 2.2401 0 .86-.21 1.61-.61 2.2599Zm-4.36-.0399c.49 0 .91-.09 1.27-.27v.01c.36-.18.63-.44.83-.77.2-.33.3-.73.3-1.17 0-.44-.1-.82-.3-1.15-.2-.33-.47-.58-.83-.76-.36-.18-.78-.27-1.27-.27h-3.3v4.38h3.3Zm11.66-2.9601c1 0 1.9.23 2.69.6801v-.01c.79.46 1.4 1.09 1.84 1.8999.44.8101.66 1.7401.66 2.7801v.57h-8.07c.04.4699.14.91.34 1.3.25.49.59.88 1.04 1.15.45.27.95.41 1.51.41.49 0 .94-.1 1.33-.29.39-.19.72-.46.98-.81h2.57c-.24.63-.59 1.18-1.05 1.63-.46.45-1.02.8-1.67 1.05-.65.25-1.38.37-2.17.37-1.01 0-1.92-.2301-2.72-.69-.8-.46-1.44-1.1-1.9-1.92-.47-.82-.7-1.77-.7-2.77s.23-1.92.7-2.73c.47-.82 1.11-1.4601 1.92-1.92.81-.4701 1.7-.7001 2.7-.7001Zm-2.56 3.39c-.15.3001-.24.6201-.3.9501h5.61c-.06-.32-.14-.62-.27-.89-.24-.5-.57-.89-1-1.17-.43-.2801-.93-.42-1.49-.42-.56 0-1.07.1399-1.51.41-.44.27-.79.6399-1.04 1.1199Zm14.95 1.0501c.54.09 1.01.28 1.42.57v.03c.41.29.72.65.94 1.08.22.43.33.9.33 1.4 0 .62-.19 1.18-.56 1.68-.37.5-.87.89-1.52 1.16-.65.27-1.32.41-2.15.41-.83 0-1.57-.14-2.23-.4-.66-.26-1.19-.64-1.58-1.1201-.4-.4899-.61-1.0399-.65-1.6699h2.36c.04.27.15.5.33.7.18.2.42.35.72.45.3.11.65.1599 1.04.1599.37 0 .7-.0499.99-.1599.3-.11.53-.26.69-.45.17-.19.25-.42.25-.67 0-.19-.05-.3601-.14-.51-.09-.16-.22-.29-.38-.3901-.17-.1099-.36-.1799-.57-.21l-2.27-.3799c-.55-.09-1.02-.27-1.43-.5501-.41-.2799-.73-.6299-.95-1.0399-.23-.41-.34-.8701-.34-1.36 0-.61.16-1.15.49-1.63.33-.48.79-.84 1.4-1.12.61-.28 1.31-.41 2.09-.41.78 0 1.47.1299 2.09.3799.62.25 1.11.61 1.47 1.0801.37.47.57 1.01.62 1.64h-2.35c-.04-.26-.15-.48-.31-.68-.16-.2001-.38-.34-.64-.45-.27-.11-.54-.1601-.88-.1601-.34 0-.63.0501-.89.1501-.26.11-.46.25-.6.4399-.14.1901-.21.4001-.21.6401 0 .18.04.34.13.47.09.13.22.24.39.33.17.09.39.1499.65.2l2.25.39Zm9.25-4.4401c1 0 1.9.23 2.69.6801v-.01c.79.46 1.4 1.09 1.84 1.8999.44.8101.66 1.7401.66 2.7801v.57h-8.07c.04.4699.14.91.34 1.3.25.49.59.88 1.04 1.15.45.27.95.41 1.51.41.49 0 .94-.1 1.33-.29.39-.19.72-.46.98-.81h2.57c-.24.63-.59 1.18-1.05 1.63-.46.45-1.02.8-1.67 1.05-.65.25-1.38.37-2.17.37-1.01 0-1.92-.2301-2.72-.69-.8-.46-1.44-1.1-1.9-1.92-.47-.82-.7-1.77-.7-2.77s.23-1.92.7-2.73c.47-.82 1.11-1.4601 1.92-1.92.81-.4701 1.7-.7001 2.7-.7001Zm-2.56 3.39c-.15.3001-.24.6201-.3.9501h5.61c-.06-.32-.14-.62-.27-.89-.24-.5-.57-.89-1-1.17-.43-.2801-.93-.42-1.49-.42-.56 0-1.07.1399-1.51.41-.44.27-.79.6399-1.04 1.1199Zm11.96 7.1001h-2.36V67.95h2.36v14.02Zm4.8 0h-2.36V67.95h2.36v14.02Zm7.2-10.4901c1 0 1.9.23 2.69.6801v-.01c.79.46 1.4 1.09 1.84 1.8999.44.8101.66 1.7401.66 2.7801v.57h-8.07c.04.4699.14.91.34 1.3.25.49.59.88 1.04 1.15.45.27.95.41 1.51.41.49 0 .94-.1 1.33-.29.39-.19.72-.46.98-.81h2.57c-.24.63-.59 1.18-1.05 1.63-.46.45-1.02.8-1.67 1.05-.65.25-1.38.37-2.17.37-1.01 0-1.92-.2301-2.72-.69-.8-.46-1.44-1.1-1.9-1.92-.47-.82-.7-1.77-.7-2.77s.23-1.92.7-2.73c.47-.82 1.11-1.4601 1.92-1.92.81-.4701 1.7-.7001 2.7-.7001Zm-2.55 3.39c-.15.3001-.24.6201-.3.9501h5.61c-.06-.32-.14-.62-.27-.89-.24-.5-.57-.89-1-1.17-.43-.2801-.93-.42-1.49-.42-.56 0-1.07.1399-1.51.41-.44.27-.79.6399-1.04 1.1199Zm12.93-2.6599c.55-.38 1.18-.5701 1.91-.5701l.01.0101h.38v2.38h-.66c-.53 0-.99.1-1.38.29-.39.19-.69.47-.9.83-.21.36-.32.79-.32 1.28v5.54h-2.36V71.72h2.34v1.55c.27-.44.59-.7901.98-1.06Z" clip-rule="evenodd"/>
  <path fill="url(#a)" d="M20.34 3.66 3.66 20.34C1.32 22.68 0 25.86 0 29.18V59c0 2.76 2.24 5 5 5h29.82c3.32 0 6.49-1.32 8.84-3.66l16.68-16.68c2.34-2.34 3.66-5.52 3.66-8.84V5c0-2.76-2.24-5-5-5H29.18c-3.32 0-6.49 1.32-8.84 3.66Z"/>
  <path fill="#000" d="M48 16H8v40h40V16Z"/>
  <path fill="#fff" d="M30 47H13v4h17v-4Z"/>
</svg>
