<svg enable-background="new 0 0 120.1 130.2" height="130.2" viewBox="0 0 120.1 130.2" width="120.1" xmlns="http://www.w3.org/2000/svg" xmlns:xlink="http://www.w3.org/1999/xlink"><linearGradient id="a" gradientUnits="userSpaceOnUse" x1="31.8412" x2="110.2402" y1="120.5578" y2="73.24"><stop offset="0" stop-color="#fcee39"/><stop offset="1" stop-color="#f37b3d"/></linearGradient><linearGradient id="b" gradientUnits="userSpaceOnUse" x1="48.3607" x2="119.9179" y1="6.9083" y2="69.5546"><stop offset="0" stop-color="#ef5a6b"/><stop offset=".57" stop-color="#f26f4e"/><stop offset="1" stop-color="#f37b3d"/></linearGradient><linearGradient id="c" gradientUnits="userSpaceOnUse" x1="52.9467" x2="10.5379" y1="63.6407" y2="37.1562"><stop offset="0" stop-color="#7c59a4"/><stop offset=".3852" stop-color="#af4c92"/><stop offset=".7654" stop-color="#dc4183"/><stop offset=".957" stop-color="#ed3d7d"/></linearGradient><linearGradient id="d" gradientUnits="userSpaceOnUse" x1="52.1736" x2="10.7706" y1="3.7019" y2="37.8971"><stop offset="0" stop-color="#ef5a6b"/><stop offset=".364" stop-color="#ee4e72"/><stop offset="1" stop-color="#ed3d7d"/></linearGradient><path d="m118.6 71.8c.9-.8 1.4-1.9 1.5-3.2.1-2.6-1.8-4.7-4.4-4.9-1.2-.1-2.4.4-3.3 1.1l-83.8 45.9c-1.9.8-3.6 2.2-4.7 4.1-2.9 4.8-1.3 11 3.6 13.9 3.4 2 7.5 1.8 10.7-.2.2-.2.5-.3.7-.5l78-54.8c.4-.3 1.5-1.1 1.7-1.4z" fill="url(#a)"/><path d="m118.8 65.1-63.8-62.6c-1.4-1.5-3.4-2.5-5.7-2.5-4.3 0-7.7 3.5-7.7 7.7 0 2.1.8 3.9 2.1 5.3.4.4.8.7 1.2 1l67.4 57.7c.8.7 1.8 1.2 3 1.3 2.6.1 4.7-1.8 4.9-4.4 0-1.3-.5-2.6-1.4-3.5z" fill="url(#b)"/><path d="m57.1 59.5c-.1 0-39.4-31-40.2-31.5-.6-.3-1.2-.6-1.8-.9-5.8-2.2-12.2.8-14.4 6.6-1.9 5.1.2 10.7 4.6 13.4.7.4 1.3.7 2 .9.4.2 45.4 18.8 45.4 18.8 1.8.8 3.9.3 5.1-1.2 1.5-1.9 1.2-4.6-.7-6.1z" fill="url(#c)"/><path d="m49.3 0c-1.7 0-3.3.6-4.6 1.5l-39.8 26.8c-.1.1-.2.1-.2.2h-.1c-1.7 1.2-3.1 3-3.9 5.1-2.2 5.8.8 12.3 6.6 14.4 3.6 1.4 7.5.7 10.4-1.4.7-.5 1.3-1 1.8-1.6l34.6-31.2c1.8-1.4 3-3.6 3-6.1 0-4.2-3.5-7.7-7.8-7.7z" fill="url(#d)"/><path d="m34.6 37.4h51v51h-51z"/><g fill="#fff"><path d="m39 78.8h19.1v3.2h-19.1z"/><path d="m38.8 50.8 1.5-1.4c.4.5.8.8 1.3.8.6 0 .9-.4.9-1.2v-5.3h2.3v5.3c0 1-.3 1.8-.8 2.3s-1.3.8-2.3.8c-1.5.1-2.3-.5-2.9-1.3z"/><path d="m45.3 43.8h6.7v1.9h-4.4v1.3h4v1.8h-4v1.3h4.5v2h-6.7z"/><path d="m55 45.8h-2.5v-2h7.3v2h-2.5v6.3h-2.3z"/><path d="m39 54h4.3c1 0 1.8.3 2.3.7.3.3.5.8.5 1.4 0 1-.5 1.5-1.3 1.9 1 .3 1.6.9 1.6 2 0 1.4-1.2 2.3-3.1 2.3h-4.3zm4.8 2.6c0-.5-.4-.7-1-.7h-1.5v1.5h1.4c.7-.1 1.1-.3 1.1-.8zm-.8 2.4h-1.8v1.5h1.8c.7 0 1.1-.3 1.1-.8s-.4-.7-1.1-.7z"/><path d="m46.8 54h3.9c1.3 0 2.1.3 2.7.9.5.5.7 1.1.7 1.9 0 1.3-.7 2.1-1.7 2.6l2 2.9h-2.6l-1.7-2.5h-1v2.5h-2.3zm3.8 4c.8 0 1.2-.4 1.2-1 0-.7-.5-1-1.2-1h-1.5v2z"/><path d="m56.8 54h2.2l3.5 8.4h-2.5l-.6-1.5h-3.2l-.6 1.5h-2.4zm2 5-.9-2.3-.9 2.3z"/><path d="m62.8 54h2.3v8.3h-2.3z"/><path d="m65.7 54h2.1l3.4 4.4v-4.4h2.3v8.3h-2l-3.5-4.5v4.6h-2.3z"/><path d="m73.7 61.1 1.3-1.5c.8.7 1.7 1 2.7 1 .6 0 1-.2 1-.6s-.3-.5-1.4-.8c-1.8-.4-3.1-.9-3.1-2.6 0-1.5 1.2-2.7 3.2-2.7 1.4 0 2.5.4 3.4 1.1l-1.2 1.6c-.8-.5-1.6-.8-2.3-.8-.6 0-.8.2-.8.5 0 .4.3.5 1.4.8 1.9.4 3.1 1 3.1 2.6 0 1.7-1.3 2.7-3.4 2.7-1.5.1-2.9-.4-3.9-1.3z"/></g></svg>