<svg height="205.3117" viewBox="0 0 379.82105 205.3117" width="379.82105" xmlns="http://www.w3.org/2000/svg" xmlns:xlink="http://www.w3.org/1999/xlink"><linearGradient id="a" gradientUnits="userSpaceOnUse" x1="80.32563" x2="366.18463" y1="176.65399" y2="13.83864"><stop offset="0" stop-color="#00adee"/><stop offset="1" stop-color="#9f76a6"/></linearGradient><linearGradient id="b" gradientUnits="userSpaceOnUse" x1="119.82958" x2="351.23705" y1="55.1783" y2="15.21097"><stop offset="0" stop-color="#ec037c"/><stop offset="1" stop-color="#9f76a6"/></linearGradient><linearGradient id="c" gradientUnits="userSpaceOnUse" x1="110.2519" x2="185.52246" y1="49.32088" y2="179.88498"><stop offset="0" stop-color="#ec037c"/><stop offset="1" stop-color="#5c2d90"/></linearGradient><linearGradient id="d" gradientUnits="userSpaceOnUse" x1="7.54068" x2="187.55245" y1="62.40535" y2="181.19854"><stop offset="0" stop-color="#44c7f4"/><stop offset="1" stop-color="#5c2d90"/></linearGradient><path d="m379.821 14.10919a14.10952 14.10952 0 0 0 -21.49527-12.02167l-.00053-.00083-329.09686 190.16554a6.848 6.848 0 1 0 6.02466 12.29642l.00015-.00008q.13167-.06811.26013-.14134l336.06925-177.46885a14.07246 14.07246 0 0 0 1.6777-.91151l.04838-.02629-.00211-.00337a14.09461 14.09461 0 0 0 6.5145-11.88802z" fill="url(#a)"/><path d="m379.821 14.10919a14.10917 14.10917 0 0 0 -14.10912-14.10919 14.2553 14.2553 0 0 0 -1.5206.08275l-.01476-.08275-246.665 35.39087a20.021 20.021 0 1 0 7.41234 39.01165l242.68136-46.31427a14.048 14.048 0 0 0 1.51-.28574l.02971-.00562-.00022-.00119a14.11339 14.11339 0 0 0 10.67629-13.68651z" fill="url(#b)"/><path d="m210.74054 179.23371a25.12894 25.12894 0 0 0 -4.46634-13.74056l-68.92549-117.34215a20.025 20.025 0 0 0 -37.82355 13.084 19.87193 19.87193 0 0 0 1.31346 3.24816c.5887 1.15178 61.21838 124.75569 61.21838 124.75569a25.1462 25.1462 0 0 0 2.31359 4.43239 25.25027 25.25027 0 0 0 46.37-14.43755z" fill="url(#c)"/><path d="m210.74054 179.23371a25.21742 25.21742 0 0 0 -11.12361-20.32492 25.22935 25.22935 0 0 0 -3.9353-2.1738l-182.36901-106.18176a8.8405 8.8405 0 0 0 -9.05243 15.18734s164.87971 133.37143 165.82931 134.10414a25.24811 25.24811 0 0 0 40.651-20.611z" fill="url(#d)"/><path d="m99.65001 73.35217h102.04725v102.04726h-102.04725z"/><g fill="#fff"><path d="m108.45221 156.26556h38.26771v6.37796h-38.26771z"/><path d="m108.022 100.222 2.97-2.80379a3.36694 3.36694 0 0 0 2.61369 1.5444c1.14048 0 1.87717-.78406 1.87717-2.32848v-10.526h4.58579v10.54974a6.17917 6.17917 0 0 1 -1.63951 4.68086 6.267 6.267 0 0 1 -4.562 1.687 6.79234 6.79234 0 0 1 -5.84514-2.80373z"/><path d="m121.13741 86.10809h13.37713v3.8968h-8.81509v2.54241h7.98347v3.63533h-7.98347v2.63743h8.9339v3.92053h-13.49594z"/><path d="m140.54054 90.14745h-4.966v-4.03936h14.56524v4.03936h-4.98973v12.59314h-4.60951z"/><path d="m108.44969 106.62809h8.53a6.229 6.229 0 0 1 4.53832 1.47323 3.743 3.743 0 0 1 1.06927 2.70869v.04756a3.84969 3.84969 0 0 1 -2.56622 3.7066c2.01973.66533 3.30275 1.80581 3.30275 4.0631v.04756c0 2.85125-2.32857 4.58577-6.29649 4.58577h-8.57759zm9.59924 5.13238c0-.92673-.73652-1.42567-2.09092-1.42567h-3.01765v2.92253h2.89881c1.40186 0 2.20975-.47522 2.20975-1.44941zm-1.59187 4.72833h-3.5167v3.06509h3.56414c1.42558 0 2.20975-.5465 2.20975-1.52068v-.04747c.00001-.90289-.71279-1.49694-2.25719-1.49694z"/><path d="m124.01249 106.62809h7.86479c2.54232 0 4.30067.66533 5.41741 1.78207a5.19321 5.19321 0 0 1 1.473 3.873v.04754a5.26947 5.26947 0 0 1 -3.4214 5.13229l3.9679 5.79762h-5.29857l-3.35021-5.03726h-2.04341v5.03726h-4.60951zm7.67461 7.98363c1.54442 0 2.47113-.76034 2.47113-1.97217v-.04747c0-1.33067-.97418-1.99591-2.49487-1.99591h-3.04136v4.01555z"/><path d="m144.16088 106.50934h4.44323l7.08082 16.75125h-4.94228l-1.18809-2.99381h-6.439l-1.18811 2.99381h-4.82345zm4.03927 10.16957-1.85326-4.70461-1.87717 4.70461z"/><path d="m156.23073 106.62809h4.60951v16.6325h-4.60951z"/><path d="m161.98054 106.62809h4.30065l6.843 8.79152v-8.79152h4.56207v16.6325h-4.01555l-7.12811-9.12409v9.12409h-4.562z"/><path d="m177.97519 120.78946 2.56606-3.06509a8.61665 8.61665 0 0 0 5.39367 1.99591c1.2593 0 1.92463-.42768 1.92463-1.14057v-.04745c0-.71289-.5465-1.06929-2.82744-1.61579-3.5404-.8078-6.27293-1.8058-6.27293-5.20357v-.04754c0-3.08884 2.44741-5.3224 6.43921-5.3224a10.46826 10.46826 0 0 1 6.843 2.20975l-2.30467 3.25519a8.16478 8.16478 0 0 0 -4.65714-1.63942c-1.11674 0-1.66325.4514-1.66325 1.0692v.04754c0 .76036.57024 1.093 2.89881 1.6157 3.80164.83162 6.17783 2.06719 6.17783 5.17984v.04754c0 3.39777-2.68506 5.41741-6.72433 5.41741a11.66153 11.66153 0 0 1 -7.79345-2.75625z"/></g><g fill="#231f20"><path d="m227.05858 145.7456v-.04883a8.46479 8.46479 0 0 1 8.49707-8.68848 8.7467 8.7467 0 0 1 6.55273 2.66406l-1.2959 1.39258a7.30363 7.30363 0 0 0 -5.28125-2.30469 6.58726 6.58726 0 0 0 -6.50391 6.88867v.04785a6.62883 6.62883 0 0 0 6.50391 6.93652 7.29368 7.29368 0 0 0 5.4248-2.42383l1.248 1.22461a8.75024 8.75024 0 0 1 -6.7207 2.95215 8.38027 8.38027 0 0 1 -8.42475-8.64061z"/><path d="m243.18651 145.7456v-.04883a8.56941 8.56941 0 1 1 17.1377-.04785v.04785a8.56942 8.56942 0 1 1 -17.1377.04883zm15.16992 0v-.04883a6.68 6.68 0 0 0 -6.625-6.93652 6.6002 6.6002 0 0 0 -6.57617 6.88867v.04785a6.67983 6.67983 0 0 0 6.624 6.93652 6.60014 6.60014 0 0 0 6.57717-6.88769z"/><path d="m263.13085 137.29638h1.77637l10.585 13.46484v-13.46484h1.84766v16.80176h-1.51172l-10.84868-13.77734v13.77734h-1.84863z"/><path d="m279.7871 151.6499 1.17578-1.39258a8.00152 8.00152 0 0 0 5.76074 2.376c2.25586 0 3.74414-1.19922 3.74414-2.85547v-.04785c0-1.56055-.83984-2.44824-4.36816-3.19238-3.86426-.84082-5.64062-2.08887-5.64062-4.84863v-.04785c0-2.64062 2.32813-4.585 5.52051-4.585a8.76511 8.76511 0 0 1 5.9043 2.06445l-1.10449 1.46387a7.3811 7.3811 0 0 0 -4.84766-1.82422c-2.18457 0-3.57715 1.2002-3.57715 2.71289v.04785c0 1.584.86426 2.47168 4.56055 3.26367 3.74512.81641 5.47266 2.18457 5.47266 4.75293v.04785c0 2.87988-2.40039 4.75293-5.73633 4.75293a9.83122 9.83122 0 0 1 -6.86427-2.68846z"/><path d="m294.7871 147.06494v-9.76855h1.89648v9.64844c0 3.625 1.91992 5.665 5.13574 5.665 3.09668 0 5.06445-1.87207 5.06445-5.54492v-9.76855h1.89648v9.625c0 4.89648-2.80859 7.44043-7.00879 7.44043-4.15233.00002-6.98436-2.54392-6.98436-7.29685z"/><path d="m312.06639 137.29638h1.89648v15.0498h9.457v1.752h-11.35348z"/><path d="m327.76268 139.04834h-5.66406v-1.752h13.22559v1.752h-5.665v15.0498h-1.89648z"/><path d="m337.74608 137.29638h1.89648v16.80176h-1.89648z"/><path d="m343.36132 137.29638h1.77637l10.585 13.46484v-13.46484h1.84766v16.80176h-1.51172l-10.84868-13.77734v13.77734h-1.84863z"/><path d="m360.37694 145.7456v-.04883a8.4312 8.4312 0 0 1 8.4248-8.68848 8.8533 8.8533 0 0 1 6.26465 2.23242l-1.22363 1.44043a7.14643 7.14643 0 0 0 -5.11328-1.9209c-3.71973 0-6.38379 3.14453-6.38379 6.88867v.04785c0 4.00879 2.56836 6.98535 6.64844 6.98535a7.911 7.911 0 0 0 4.84863-1.68066v-4.17578h-5.11328v-1.7041h6.9375v6.69629a10.18631 10.18631 0 0 1 -6.74512 2.56836c-5.28027.00001-8.54492-3.84081-8.54492-8.64062z"/><path d="m227.80272 159.29638h6.28906c3.792 0 6.28809 2.0166 6.28809 5.32813v.04883c0 3.624-3.02441 5.49609-6.60059 5.49609h-4.08008v5.92871h-1.89648zm6.04883 9.14453c2.78418 0 4.6084-1.48828 4.6084-3.69629v-.04785c0-2.40039-1.7998-3.64844-4.5127-3.64844h-4.248v7.39258z"/><path d="m247.17186 159.17627h1.77637l7.65625 16.92188h-2.04l-1.96777-4.44043h-9.14551l-1.99219 4.44043h-1.94336zm4.68066 10.77734-3.81641-8.56934-3.84082 8.56934z"/><path d="m258.71483 159.29638h7.22461a6.62071 6.62071 0 0 1 4.77637 1.68066 4.638 4.638 0 0 1 1.29688 3.31152v.04785c0 2.78516-1.9209 4.417-4.56055 4.89648l5.16016 6.86523h-2.32812l-4.87207-6.5293h-4.80078v6.5293h-1.89648zm7.05664 8.56836c2.52051 0 4.32031-1.2959 4.32031-3.45605v-.04785c0-2.06445-1.584-3.3125-4.2959-3.3125h-5.18457v6.81641z"/><path d="m279.13866 161.04834h-5.66406v-1.752h13.22559v1.752h-5.665v15.0498h-1.89648z"/><path d="m288.95409 159.29638h1.77637l10.585 13.46484v-13.46484h1.84766v16.80176h-1.51172l-10.84868-13.77734v13.77734h-1.84863z"/><path d="m306.71386 159.29638h12.14551v1.72852h-10.249v5.73633h9.16895v1.72754h-9.16895v5.88086h10.36914v1.72852h-12.26565z"/><path d="m321.59374 159.29638h7.22461a6.62071 6.62071 0 0 1 4.77637 1.68066 4.638 4.638 0 0 1 1.29688 3.31152v.04785c0 2.78516-1.9209 4.417-4.56055 4.89648l5.16016 6.86523h-2.32812l-4.87207-6.5293h-4.80078v6.5293h-1.89648zm7.05664 8.56836c2.52051 0 4.32031-1.2959 4.32031-3.45605v-.04785c0-2.06445-1.584-3.3125-4.2959-3.3125h-5.18457v6.81641z"/></g></svg>