<svg xmlns="http://www.w3.org/2000/svg" width="299" height="83" fill="none" viewBox="0 0 299 83">
  <path fill="#000" fill-rule="evenodd" d="M85.948 42.836c.358-.657.537-1.404.537-2.25V21.018h6.633v20.066c0 1.892-.439 3.585-1.305 5.088a9.36 9.36 0 0 1-3.585 3.546c-1.523.856-3.236 1.284-5.148 1.284H78v-6.104h4.192c.847 0 1.584-.18 2.241-.538a3.718 3.718 0 0 0 1.514-1.524Zm32.284-4.073h-13.891v6.453h15.783v5.776H97.878V21.018h21.818v5.776h-15.355v6.363h13.891v5.606Zm12.856-11.8h-8.882l-.01.01v-5.955h24.367v5.945h-8.842v24.02h-6.633v-24.02Zm36.467 8.355a7.85 7.85 0 0 1 1.673.647l.01-.01a7.05 7.05 0 0 1 2.858 2.729c.688 1.175 1.026 2.5 1.026 3.983 0 1.613-.438 3.047-1.304 4.302-.877 1.265-2.102 2.24-3.675 2.948-1.583.707-3.376 1.055-5.387 1.055h-13.574V20.998h13.315c1.912 0 3.624.338 5.118 1.006 1.494.677 2.659 1.613 3.486 2.808.826 1.205 1.244 2.57 1.244 4.093 0 1.334-.318 2.51-.936 3.535-.617 1.026-1.484 1.822-2.579 2.39a7.47 7.47 0 0 1-1.275.488Zm-6.044-9.271h-5.886v7.339h5.886c.816 0 1.533-.15 2.161-.458.627-.309 1.115-.737 1.464-1.305.348-.567.527-1.254.527-1.981 0-.727-.179-1.365-.527-1.902a3.353 3.353 0 0 0-1.464-1.255c-.628-.289-1.345-.438-2.161-.438Zm2.649 19.448c.687-.308 1.225-.747 1.603-1.314.378-.568.568-1.225.568-1.992 0-.767-.2-1.444-.578-2.041-.378-.598-.926-1.056-1.613-1.385-.697-.328-1.484-.497-2.37-.497h-6.145v7.687h6.145c.906 0 1.693-.15 2.39-.458Zm35.063-9.988c-.917 1.444-2.201 2.57-3.864 3.366h.01c-.319.15-.657.279-.996.398l6.851 11.721h-7.578l-6.084-10.914h-4.322v10.914h-6.642V21.018h13.124c2.171 0 4.073.388 5.716 1.175 1.644.787 2.918 1.892 3.815 3.326.896 1.434 1.344 3.047 1.344 4.96 0 1.911-.458 3.584-1.374 5.028Zm-7.599-1.314a3.596 3.596 0 0 0 1.584-1.444v-.02c.368-.628.558-1.365.558-2.201 0-.836-.19-1.573-.558-2.19a3.634 3.634 0 0 0-1.584-1.435c-.687-.328-1.493-.498-2.419-.498h-5.975V34.7h5.975c.926 0 1.732-.169 2.419-.507Zm11.472 16.8 10.705-29.975h7.19l10.964 29.974h-6.612l-2.27-6.612h-11.114l-2.121 6.612h-6.742Zm13.812-22.208-3.445 10.576h7.947l-3.685-10.576-.408-1.922-.409 1.922Zm24.099 22.207h-6.851V21.018h6.851v29.974Zm11.273-29.974 12.896 20.275V21.018h6.055v29.974h-6.533l-12.826-20.275v20.275h-6.055V21.018h6.463ZM293.975 34.8c1.165.847 2.082 1.892 2.729 3.137l-.02-.01c.647 1.255.976 2.619.976 4.103 0 1.812-.478 3.435-1.444 4.87-.966 1.433-2.3 2.559-4.023 3.375-1.713.817-3.705 1.225-5.915 1.225-2.211 0-4.173-.398-5.886-1.195s-3.057-1.912-4.033-3.336c-.986-1.434-1.484-3.077-1.513-4.95h6.642c0 .767.199 1.455.617 2.042.408.598.986 1.056 1.733 1.374.747.32 1.613.478 2.529.478.916 0 1.713-.139 2.39-.428s1.205-.697 1.584-1.225a3.033 3.033 0 0 0 .567-1.802c0-.837-.249-1.524-.767-2.081-.517-.558-1.215-.946-2.101-1.156l-5.397-1.115c-1.414-.299-2.649-.836-3.725-1.603a7.908 7.908 0 0 1-2.479-2.898c-.588-1.155-.877-2.46-.877-3.904 0-1.782.459-3.366 1.365-4.76.906-1.394 2.181-2.48 3.804-3.266 1.623-.787 3.475-1.175 5.566-1.175 2.092 0 3.964.378 5.597 1.135 1.633.757 2.918 1.803 3.834 3.147.916 1.334 1.404 2.878 1.444 4.62h-6.642c0-.647-.18-1.214-.528-1.722-.349-.508-.837-.896-1.464-1.175s-1.364-.418-2.181-.418c-.816 0-1.533.129-2.151.398-.617.269-1.105.637-1.444 1.115-.348.478-.518 1.036-.518 1.683 0 .707.239 1.305.708 1.783.468.478 1.105.806 1.902.996l5.098 1.045c1.514.289 2.858.847 4.023 1.693ZM77.801 82.03l5.09-14.02h2.68l5.25 14.02H88.3l-1.19-3.36h-5.63l-1.1 3.36H77.8ZM84 71.08l-1.89 5.62h4.33l-2.01-5.62-.22-.87-.21.87ZM98.41 79c.2-.38.3-.81.3-1.29h-.01v-5.94h2.36v10.25h-2.29v-1.51c-.3.5-.68.9-1.15 1.2-.59.37-1.27.55-2.06.55-.73 0-1.38-.16-1.93-.48a3.28 3.28 0 0 1-1.29-1.39c-.31-.6-.46-1.33-.46-2.17v-6.45h2.35v6.09c0 .49.08.91.25 1.26.17.35.41.62.72.8.31.19.69.28 1.13.28.47 0 .88-.11 1.24-.32.36-.21.64-.5.84-.88Zm6.13-9.73h2.2v2.5h2.71v2.05h-2.71V79c0 .28.09.51.28.7.19.19.42.28.7.28h1.74v2.05h-2.21c-.55 0-1.04-.12-1.48-.35-.44-.23-.78-.56-1.02-.97-.25-.41-.38-.88-.38-1.4v-5.48h-1.79v-2.05h1.12c.25 0 .46-.08.61-.24.15-.16.23-.36.23-.61v-1.66Zm12.03 2.26c.73 0 1.38.16 1.93.48l.01.02c.55.32.98.78 1.29 1.39.31.61.46 1.33.46 2.17v6.45h-2.35v-6.09c0-.49-.08-.91-.25-1.26-.17-.35-.41-.62-.72-.8-.31-.19-.69-.28-1.12-.28-.47 0-.88.11-1.24.32-.36.21-.64.51-.84.88-.2.37-.3.8-.3 1.29v5.94h-2.36V68.02h2.31v3.17l-.03 1.89v.26c.3-.53.68-.95 1.17-1.26.58-.37 1.26-.55 2.04-.55Zm10.85 0c1 0 1.92.23 2.74.7.82.47 1.47 1.11 1.94 1.93.47.82.71 1.73.71 2.74 0 1.01-.24 1.92-.71 2.74-.47.82-1.12 1.46-1.94 1.93-.82.47-1.74.7-2.75.7s-1.92-.23-2.74-.7a5.136 5.136 0 0 1-1.94-1.93c-.47-.82-.71-1.73-.71-2.74 0-1.01.23-1.92.7-2.74.47-.82 1.11-1.46 1.94-1.93.83-.47 1.76-.7 2.76-.7Zm1.52 8.21c.45-.27.8-.66 1.04-1.15v.01c.25-.49.37-1.05.37-1.69 0-.64-.12-1.21-.37-1.7s-.59-.87-1.04-1.15c-.45-.28-.95-.42-1.53-.42-.58 0-1.09.14-1.53.41-.44.27-.79.66-1.03 1.15-.25.49-.37 1.07-.37 1.7 0 .63.13 1.2.37 1.69s.59.88 1.03 1.15c.45.27.96.41 1.53.41.57 0 1.08-.14 1.53-.41Zm8.06-6.41c.27-.44.59-.79.98-1.06l.01.01c.55-.38 1.18-.57 1.91-.57h.38v2.38h-.66c-.53 0-.99.1-1.38.29-.39.19-.69.47-.9.83-.21.36-.32.79-.32 1.28v5.54h-2.36V71.78H137v1.55Zm7.28-2.64h-2.69v-2.34h2.69v2.34Zm-.16 11.33h-2.36V71.77h2.36v10.25Zm6.9-8.26h-5.03v-1.98h7.85v1.94l-5.3 6.33h5.28v1.98h-8.09v-1.94l5.29-6.33Zm8.91-2.23c1 0 1.9.23 2.69.68v-.01c.79.46 1.4 1.09 1.84 1.9.44.81.66 1.74.66 2.78v.57h-8.07c.04.47.14.91.34 1.3.25.49.6.88 1.04 1.15.45.27.95.41 1.51.41.49 0 .94-.1 1.33-.29.39-.19.72-.46.98-.81h2.57a4.49 4.49 0 0 1-1.05 1.63c-.46.45-1.02.8-1.67 1.05-.65.25-1.38.37-2.17.37-1.01 0-1.92-.23-2.72-.69-.8-.46-1.43-1.1-1.9-1.92-.47-.82-.7-1.77-.7-2.77s.23-1.91.7-2.73c.47-.82 1.11-1.46 1.92-1.92.81-.47 1.7-.7 2.7-.7Zm-2.56 3.4c-.15.3-.24.62-.3.95h5.611c-.06-.32-.14-.62-.27-.89a2.8 2.8 0 0 0-1-1.17c-.43-.28-.93-.42-1.49-.42-.56 0-1.07.14-1.51.41-.44.27-.79.64-1.04 1.12Zm17.25-1.635a3.77 3.77 0 0 0-1.26-1.195c-.64-.37-1.38-.56-2.23-.56-.91 0-1.73.23-2.45.69-.72.46-1.28 1.09-1.69 1.91-.41.82-.61 1.74-.61 2.77s.2 1.95.61 2.77c.41.82.97 1.46 1.69 1.91.72.46 1.53.69 2.44.69.85 0 1.59-.19 2.23-.56.52-.3.93-.71 1.27-1.21v1.53h2.36V68.02h-2.36v5.275Zm-1.39 6.455c.44-.28.78-.66 1.03-1.15v.01c.25-.49.37-1.06.37-1.7 0-.64-.12-1.21-.37-1.7s-.59-.87-1.03-1.15c-.44-.28-.96-.42-1.52-.42s-1.06.14-1.5.42c-.44.28-.79.66-1.03 1.15-.25.49-.37 1.06-.37 1.7 0 .64.13 1.21.37 1.7.25.49.59.88 1.03 1.15.44.27.93.41 1.5.41s1.08-.14 1.52-.42Zm22.53-5.21c-.4.65-.97 1.16-1.71 1.52l-.01.01c-.24.12-.51.21-.78.29l3.41 5.67h-2.86l-3.15-5.43h-2.57v5.43h-2.49V68.01h5.95c.96 0 1.8.18 2.53.53.73.35 1.29.85 1.69 1.5.4.65.6 1.38.6 2.24 0 .86-.21 1.61-.61 2.26Zm-4.36-.04c.49 0 .91-.09 1.27-.27v.02c.36-.18.63-.44.83-.77.2-.33.3-.73.3-1.17 0-.44-.1-.82-.3-1.15-.2-.33-.47-.58-.83-.76-.36-.18-.78-.27-1.27-.27h-3.3v4.37h3.3Zm11.65-2.97c1 0 1.9.23 2.69.68v-.01c.79.46 1.4 1.09 1.84 1.9.44.81.66 1.74.66 2.78v.57h-8.07c.04.47.14.91.34 1.3.25.49.6.88 1.04 1.15.45.27.95.41 1.51.41.49 0 .94-.1 1.33-.29.39-.19.72-.46.98-.81h2.57a4.49 4.49 0 0 1-1.05 1.63c-.46.45-1.02.8-1.67 1.05-.65.25-1.38.37-2.17.37-1.01 0-1.92-.23-2.72-.69-.8-.46-1.43-1.1-1.9-1.92-.47-.82-.7-1.77-.7-2.77s.23-1.91.7-2.73c.47-.82 1.11-1.46 1.92-1.92.81-.47 1.7-.7 2.7-.7Zm-2.55 3.4c-.15.3-.24.62-.3.95h5.611c-.06-.32-.14-.62-.27-.89a2.8 2.8 0 0 0-1-1.17c-.43-.28-.93-.42-1.49-.42-.56 0-1.07.14-1.51.41-.44.27-.79.64-1.04 1.12Zm14.94 1.05c.54.09 1.01.28 1.42.57v.02c.41.29.72.65.94 1.08.22.43.33.9.33 1.4 0 .62-.19 1.18-.56 1.68-.37.5-.88.89-1.52 1.16-.65.27-1.32.41-2.15.41-.83 0-1.57-.14-2.23-.4-.66-.26-1.18-.63-1.58-1.12-.4-.49-.61-1.04-.65-1.67h2.36c.04.27.15.51.33.7.18.2.42.35.72.45.3.11.65.16 1.04.16.37 0 .7-.05.99-.16.3-.11.53-.26.69-.45a.98.98 0 0 0 .25-.67c0-.19-.05-.36-.14-.51-.09-.16-.21-.28-.38-.39a1.4 1.4 0 0 0-.57-.21l-2.27-.38c-.55-.09-1.02-.27-1.43-.55-.41-.28-.73-.63-.95-1.04-.23-.41-.34-.87-.34-1.36 0-.61.16-1.15.49-1.63.33-.48.8-.85 1.4-1.12.61-.27 1.31-.41 2.09-.41.78 0 1.47.13 2.09.38.62.25 1.11.61 1.47 1.08.37.47.57 1.01.62 1.64h-2.35c-.04-.26-.15-.49-.31-.68a1.68 1.68 0 0 0-.64-.45c-.27-.11-.54-.16-.88-.16-.34 0-.63.06-.89.16-.26.11-.46.25-.6.44-.14.19-.21.4-.21.64 0 .18.04.34.13.47.09.13.22.24.39.33.17.09.39.15.65.2l2.25.39Zm9.25-4.45c1 0 1.9.23 2.69.68v-.01c.79.46 1.4 1.09 1.84 1.9.44.81.66 1.74.66 2.78v.57h-8.07c.04.47.14.91.34 1.3.25.49.6.88 1.04 1.15.45.27.95.41 1.51.41.49 0 .94-.1 1.33-.29.39-.19.72-.46.98-.81h2.57a4.49 4.49 0 0 1-1.05 1.63c-.46.45-1.02.8-1.67 1.05-.65.25-1.38.37-2.17.37-1.01 0-1.92-.23-2.72-.69-.8-.46-1.43-1.1-1.9-1.92-.47-.82-.7-1.77-.7-2.77s.23-1.91.7-2.73c.47-.82 1.11-1.46 1.92-1.92.81-.47 1.7-.7 2.7-.7Zm-2.55 3.4c-.15.3-.24.62-.3.95h5.611c-.06-.32-.14-.62-.27-.89a2.8 2.8 0 0 0-1-1.17c-.43-.28-.93-.42-1.49-.42-.56 0-1.07.14-1.51.41-.44.27-.79.64-1.04 1.12Zm11.95 7.09h-2.36V68h2.36v14.02Zm4.8 0h-2.36V68h2.36v14.02Zm7.2-10.49c1 0 1.9.23 2.69.68v-.01c.79.46 1.4 1.09 1.84 1.9.44.81.66 1.74.66 2.78v.57h-8.07c.04.47.14.91.34 1.3.25.49.6.88 1.04 1.15.45.27.95.41 1.51.41.49 0 .94-.1 1.33-.29.39-.19.72-.46.98-.81h2.57a4.49 4.49 0 0 1-1.05 1.63c-.46.45-1.02.8-1.67 1.05-.65.25-1.38.37-2.17.37-1.01 0-1.92-.23-2.72-.69-.8-.46-1.43-1.1-1.9-1.92-.47-.82-.7-1.77-.7-2.77s.23-1.91.7-2.73c.47-.82 1.11-1.46 1.92-1.92.81-.47 1.7-.7 2.7-.7Zm-2.55 3.4c-.15.3-.24.62-.3.95h5.611c-.06-.32-.14-.62-.27-.89a2.8 2.8 0 0 0-1-1.17c-.43-.28-.93-.42-1.49-.42-.56 0-1.07.14-1.51.41-.44.27-.79.64-1.04 1.12Zm12.93-2.66c.55-.38 1.18-.57 1.91-.57l.01.01h.38v2.38h-.66c-.53 0-.99.1-1.38.29-.39.19-.69.47-.9.83-.21.36-.32.79-.32 1.28v5.54h-2.36V71.78h2.34v1.55c.27-.44.59-.79.98-1.06Z" clip-rule="evenodd"/>
  <path fill="url(#a)" d="M20.34 3.66 3.66 20.34A12.504 12.504 0 0 0 0 29.18V59c0 2.76 2.24 5 5 5h29.82c3.32 0 6.49-1.32 8.84-3.66l16.68-16.68c2.34-2.34 3.66-5.52 3.66-8.84V5c0-2.76-2.24-5-5-5H29.18c-3.32 0-6.49 1.32-8.84 3.66Z"/>
  <path fill="#000" d="M48 16H8v40h40V16Z"/>
  <path fill="#fff" d="M30 47H13v4h17v-4Z"/>
  <defs>
    <linearGradient id="a" x1=".85" x2="62.62" y1="62.72" y2="1.81" gradientUnits="userSpaceOnUse">
      <stop stop-color="#FF9419"/>
      <stop offset=".43" stop-color="#FF021D"/>
      <stop offset=".99" stop-color="#E600FF"/>
    </linearGradient>
  </defs>
</svg>
