<svg height="119.08912" viewBox="0 0 142.71072 119.08912" width="142.71072" xmlns="http://www.w3.org/2000/svg"><path d="m126.50243 51.40766a15.99767 15.99767 0 0 0 -7.5 2.2l-62.24858 35.43925 14.84858-24.43925a.84539.84539 0 0 1 .2-.6 4.262 4.262 0 0 0 .473-2.0376l3.927 2.4376c.1.1.2.1.3.2a4.3435 4.3435 0 0 0 5.8-1.6 4.176 4.176 0 0 0 -1-5.4l-62.6-54.5a11.2967 11.2967 0 0 0 -7.3-3.1 10.99729 10.99729 0 0 0 -11.3963 10.58324q-.00216.05837-.0037.11676a11.123 11.123 0 0 0 5.8 10l60.4511 37.52434a4.20217 4.20217 0 0 0 -1.6511 1.37563l-35.86178 45.52808a7.9082 7.9082 0 0 0 1.932 13.20581c.04529.0213.0918.039.13739.05939.1192.05023.23718.10229.35931.14667a7.9696 7.9696 0 0 0 7.21045-.73279l94.62262-36.50713a.30971.30971 0 0 0 .2-.1 15.6466 15.6466 0 0 0 9.5-14.9 15.48544 15.48544 0 0 0 -16.04342-14.90654q-.07833.00288-.15657.00654z" fill="#fff"/><path d="m45.50243 35.70766h51v51h-51z"/><g fill="#fff"><path d="m49.90243 77.10766h19.1v3.2h-19.1z"/><path d="m49.70243 49.10766 1.5-1.4a1.70272 1.70272 0 0 0 1.3.8q.9 0 .9-1.2v-5.3h2.3v5.3a2.79543 2.79543 0 0 1 -3.1 3.1 3.12825 3.12825 0 0 1 -2.9-1.3z"/><path d="m56.30243 42.00766h6.7v2h-4.4v1.3h4v1.8h-4v1.3h4.4v2h-6.7z"/><path d="m66.00243 44.10766h-2.5v-2h7.3v2h-2.5v6.3h-2.3z"/><path d="m49.90243 52.30766h4.3a3.70232 3.70232 0 0 1 2.3.7 1.9782 1.9782 0 0 1 .5 1.4 1.95538 1.95538 0 0 1 -1.3 1.9 2.034 2.034 0 0 1 1.7 2c0 1.4-1.2 2.3-3.1 2.3h-4.3v-8.3zm4.8 2.6c0-.5-.4-.7-1-.7h-1.5v1.5h1.4c.7-.09999 1.1-.3 1.1-.8zm-.8 2.3h-1.8v1.5h1.8c.7 0 1.1-.3 1.1-.8 0-.4-.3-.7-1.1-.69999z"/><path d="m57.70243 52.30766h3.9a3.371 3.371 0 0 1 2.7.9 2.48949 2.48949 0 0 1 .7 1.9 2.76053 2.76053 0 0 1 -1.7 2.6l2 2.9h-2.6l-1.7-2.5h-1v2.5h-2.3zm3.8 4c.8 0 1.2-.4 1.2-1 0-.7-.5-1-1.2-1h-1.5v2z"/><path d="m67.80243 52.20766h2.2l3.5 8.4h-2.5l-.6-1.5h-3.2l-.6 1.5h-2.4zm2 5.1-.9-2.3-.9 2.4h1.8z"/><path d="m73.80243 52.30766h2.3v8.3h-2.3z"/><path d="m76.70243 52.30766h2.2l3.4 4.4v-4.4h2.3v8.3h-2l-3.6-4.5v4.6h-2.3z"/><path d="m84.70243 59.40766 1.3-1.5a3.94222 3.94222 0 0 0 2.7 1c.6 0 1-.2 1-.6s-.3-.5-1.4-.8c-1.8-.4-3.1-.9-3.1-2.6 0-1.5 1.2-2.7 3.2-2.7a5.33071 5.33071 0 0 1 3.4 1.1l-1.2 1.6a4.55349 4.55349 0 0 0 -2.3-.8c-.6 0-.8.2-.8.5 0 .4.3.5 1.4.8 1.9.4 3.1 1 3.1 2.6 0 1.7-1.3 2.7-3.4 2.7a5.29339 5.29339 0 0 1 -3.9-1.3z"/></g></svg>