<svg height="135.70408" viewBox="0 0 118.03199 135.70408" width="118.03199" xmlns="http://www.w3.org/2000/svg"><path d="m116 12.3a7.50853 7.50853 0 0 0 2-5.2 7.21446 7.21446 0 0 0 -3.49457-5.98322c-.064-.03992-.13257-.07281-.19788-.11078-.10571-.05939-.20844-.12335-.31726-.17743a7.39086 7.39086 0 0 0 -3.59029-.82857 6.49552 6.49552 0 0 0 -3.1.8l-85.5 42a6.65387 6.65387 0 0 0 -3.6 6.2 6.40531 6.40531 0 0 0 1.3 3.4l20.2464 25.1012-1.2554 1.4339c-4.75553-2.40887-9.556-4.81066-14.291-7.1351-5.4-2.7-17.8-9-17.8-9a4.78065 4.78065 0 0 0 -2.9-.3 4.51484 4.51484 0 0 0 -3.4 5.5 5.05487 5.05487 0 0 0 1.9 2.8.09793.09793 0 0 1 .1.1h.1a25.3499 25.3499 0 0 1 2.1 1.5q1.95 1.35 3.9 2.7c2.5 1.8 5 3.5 7.5 5.3l13.293 9.3833-26.193 29.9167a9.12893 9.12893 0 0 0 -2.8 6.7 9.38894 9.38894 0 0 0 9.5 9.3 9.01292 9.01292 0 0 0 7.1-3.4l26.79124-32.34359c.86957.61371 1.7392 1.23486 2.60876 1.84357 5.1 3.6 10.1 7.2 15.2 10.8s10.1 7.3 15.2 10.8c.6.4 1.2.9 1.9 1.3a.79929.79929 0 0 0 .25031.1532 11.59931 11.59931 0 0 0 1.993 1.0791c.18518.08435.37073.16772.561.24292l.01117.00409a11.59947 11.59947 0 0 0 15.88452-10.87929 1.07834 1.07834 0 0 1 -.2-.7 10.01585 10.01585 0 0 0 -4.279-8.45282l-30.2049-29.0377zm-81.7121 37.86429 49.0484-22.44977-33.08874 37.79273z" fill="#cdcdcd" transform="translate(.03199 .00234)"/><path d="m25.93199 50.60234h51v51h-51z"/><g fill="#fff"><path d="m30.33199 92.10234h19.1v3.2h-19.1z"/><g transform="translate(.03199 .00234)"><path d="m30.1 64.1 1.5-1.4a1.70271 1.70271 0 0 0 1.3.8q.9 0 .9-1.2v-5.3h2.3v5.3a2.79543 2.79543 0 0 1 -3.1 3.1 3.12827 3.12827 0 0 1 -2.9-1.3z"/><path d="m36.7 57h6.7v2h-4.4v1.3h4v1.8h-4v1.3h4.5v2h-6.7v-8.4z"/><path d="m46.4 59h-2.5v-2h7.3v2h-2.5v6.3h-2.3z"/><path d="m30.3 67.3h4.3a3.70235 3.70235 0 0 1 2.3.7 1.97824 1.97824 0 0 1 .5 1.4 1.95538 1.95538 0 0 1 -1.3 1.9 2.034 2.034 0 0 1 1.7 2c0 1.4-1.2 2.3-3.1 2.3h-4.3v-8.3zm4.8 2.5c0-.5-.4-.7-1-.7h-1.5v1.5h1.4c.7 0 1.1-.2 1.1-.8zm-.8 2.4h-1.8v1.5h1.8c.7 0 1.1-.3 1.1-.8.1-.4-.3-.7-1.1-.7z"/><path d="m38.1 67.3h3.9a3.371 3.371 0 0 1 2.7.9 2.48948 2.48948 0 0 1 .7 1.9 2.76053 2.76053 0 0 1 -1.7 2.6l2 2.9h-2.6l-1.7-2.5h-1v2.5h-2.3zm3.8 4c.8 0 1.2-.4 1.2-1 0-.7-.5-1-1.2-1h-1.5v2z"/><path d="m48.2 67.2h2.2l3.5 8.4h-2.5l-.6-1.5h-3.2l-.6 1.5h-2.4zm2 5.1-.9-2.3-.9 2.4h1.8z"/><path d="m54.2 67.3h2.3v8.3h-2.3z"/><path d="m57.1 67.3h2.2l3.4 4.4v-4.4h2.3v8.3h-2l-3.6-4.6v4.6h-2.3z"/><path d="m65.1 74.4 1.3-1.5a3.94221 3.94221 0 0 0 2.7 1c.6 0 1-.2 1-.6s-.3-.5-1.4-.8c-1.8-.4-3.1-.9-3.1-2.6 0-1.5 1.2-2.7 3.2-2.7a5.33072 5.33072 0 0 1 3.4 1.1l-1.2 1.6a4.55347 4.55347 0 0 0 -2.3-.8c-.6 0-.8.2-.8.5 0 .4.3.5 1.4.8 1.9.4 3.1 1 3.1 2.6 0 1.7-1.3 2.7-3.4 2.7a5.75042 5.75042 0 0 1 -3.9-1.3z"/></g></g></svg>