<svg xmlns="http://www.w3.org/2000/svg" width="300" height="87" fill="none" viewBox="0 0 300 87">
  <defs>
    <linearGradient id="a" x1=".850001" x2="62.62" y1="62.72" y2="1.81" gradientUnits="userSpaceOnUse">
      <stop stop-color="#FF9419"/>
      <stop offset=".43" stop-color="#FF021D"/>
      <stop offset=".99" stop-color="#E600FF"/>
    </linearGradient>
  </defs>
  <path fill="#000" fill-rule="evenodd" d="M85.9467 42.8363c.3585-.6572.5377-1.4041.5377-2.2505v-19.568h6.6322v20.0659c0 1.892-.4382 3.5849-1.3045 5.0886-.8664 1.5037-2.0614 2.6888-3.585 3.5452-1.5236.8564-3.2364 1.2846-5.1484 1.2846H78v-6.1044h4.1924c.8465 0 1.5834-.1793 2.2406-.5378.6573-.3585 1.1552-.8663 1.5137-1.5236Zm32.2843-4.0729H104.34v6.453h15.783v5.7757H97.8766V21.0178h21.8184v5.7758H104.34v6.3633h13.891v5.6065Zm12.856-11.8005h-8.882l-.01.01v-5.9551h24.367v5.9451h-8.842v24.0193h-6.633V26.9629Zm36.467 8.355c.588.1593 1.156.3684 1.673.6472l.01-.0099c1.225.6473 2.171 1.5535 2.858 2.7285.688 1.1751 1.026 2.4996 1.026 3.9833 0 1.6133-.438 3.0473-1.304 4.302-.877 1.2647-2.102 2.2406-3.675 2.9476-1.583.7071-3.376 1.0556-5.387 1.0556h-13.574V20.9979h13.315c1.912 0 3.624.3386 5.118 1.0058 1.494.6772 2.659 1.6132 3.486 2.8082.826 1.205 1.244 2.5692 1.244 4.0929 0 1.3344-.318 2.5094-.936 3.5351-.617 1.0257-1.483 1.8224-2.579 2.39-.398.1992-.826.3585-1.275.488Zm-6.044-9.2712h-5.886v7.3393h5.886c.816 0 1.533-.1494 2.161-.4581.627-.3087 1.115-.7369 1.464-1.3045.348-.5677.527-1.2548.527-1.9817 0-.727-.179-1.3643-.527-1.9021-.349-.5477-.837-.9659-1.464-1.2547-.628-.2888-1.345-.4382-2.161-.4382Zm2.649 19.4485c.687-.3087 1.225-.7469 1.603-1.3145.378-.5676.568-1.2249.568-1.9917 0-.7667-.2-1.4439-.578-2.0414-.378-.5975-.926-1.0556-1.613-1.3842-.697-.3286-1.484-.4979-2.37-.4979h-6.145v7.6878h6.145c.906 0 1.693-.1494 2.39-.4581Zm35.063-9.9881c-.917 1.4439-2.201 2.5692-3.864 3.3659h.01c-.319.1493-.657.2788-.996.3983l6.851 11.7208h-7.578l-6.084-10.9142h-4.322v10.9142h-6.642V21.0178h13.124c2.171 0 4.073.3884 5.717 1.1751 1.643.7867 2.917 1.8921 3.814 3.3261.896 1.4339 1.344 3.0472 1.344 4.9592 0 1.9119-.458 3.5849-1.374 5.0289Zm-7.598-1.3145c.687-.3286 1.214-.8166 1.583-1.444v-.0199c.368-.6274.558-1.3643.558-2.2008 0-.8364-.19-1.5734-.558-2.1908-.369-.6174-.896-1.1053-1.583-1.434-.688-.3286-1.494-.4979-2.42-.4979h-5.975v8.2952h5.975c.926 0 1.732-.1692 2.42-.5078Zm11.471 16.7995 10.706-29.9743h7.189l10.964 29.9743h-6.612l-2.27-6.6122h-11.114l-2.121 6.6122h-6.742Zm13.812-22.2068-3.445 10.5756h7.947l-3.685-10.5756-.408-1.922-.409 1.922Zm24.099 22.2068h-6.851V21.0178h6.851v29.9743Zm11.273-29.9743 12.896 20.275v-20.275h6.055v29.9743h-6.533l-12.826-20.2749v20.2749h-6.055V21.0178h6.463ZM293.974 34.8c1.165.8465 2.082 1.8921 2.729 3.1369l-.02-.01c.647 1.2548.976 2.619.976 4.1028 0 1.8124-.478 3.4356-1.444 4.8696-.966 1.434-2.3 2.5593-4.023 3.3758-1.713.8166-3.705 1.2249-5.915 1.2249-2.211 0-4.173-.3983-5.886-1.195-1.713-.7966-3.057-1.912-4.033-3.336-.986-1.434-1.484-3.0771-1.513-4.9492h6.642c0 .7667.199 1.4539.617 2.0414.408.5975.986 1.0556 1.733 1.3742.747.3187 1.613.478 2.529.478.916 0 1.713-.1394 2.39-.4282.677-.2888 1.205-.6971 1.584-1.2248.378-.5278.567-1.1353.567-1.8025 0-.8365-.249-1.5236-.767-2.0813-.517-.5576-1.215-.946-2.101-1.1551l-5.397-1.1153c-1.414-.2988-2.649-.8365-3.725-1.6033-1.065-.7668-1.892-1.7327-2.479-2.8979-.588-1.1551-.876-2.4596-.876-3.9036 0-1.7825.458-3.3659 1.364-4.76.906-1.3942 2.181-2.4796 3.804-3.2663 1.623-.7867 3.475-1.1751 5.566-1.1751 2.092 0 3.964.3784 5.597 1.1352 1.633.7569 2.918 1.8025 3.834 3.1468.916 1.3344 1.404 2.878 1.444 4.6207h-6.642c0-.6473-.179-1.2149-.528-1.7228-.349-.5079-.837-.8963-1.464-1.1751-.627-.2788-1.364-.4182-2.181-.4182-.816 0-1.533.1294-2.151.3983-.617.2689-1.105.6373-1.444 1.1153-.348.478-.518 1.0357-.518 1.683 0 .707.239 1.3045.708 1.7825.468.478 1.105.8066 1.902.9958l5.098 1.0456c1.514.2888 2.858.8465 4.023 1.6929ZM83.95 68c.96 0 1.8.18 2.53.53l-.01-.01c.73.35 1.29.85 1.69 1.5.4.64.6 1.38.6 2.24 0 .86-.21 1.61-.61 2.26-.4.65-.97 1.16-1.71 1.52-.74.36-1.6.54-2.58.54h-3.37v5.43H78V68h5.95Zm1.11 6.22c.36-.18.63-.44.83-.77v.01c.2-.33.3-.73.3-1.17 0-.44-.1-.82-.3-1.15-.2-.33-.47-.58-.83-.76-.36-.18-.78-.27-1.27-.27h-3.3v4.38h3.3c.49 0 .91-.09 1.27-.27Zm7.55 7.8h-2.36V68.01h2.36v14.01Zm6.59-10.49c.83 0 1.56.15 2.18.44l.01.02c.62.29 1.11.72 1.45 1.28.35.56.52 1.22.52 1.97v6.8h-2.33v-1.49c-.28.52-.64.95-1.12 1.24-.53.33-1.17.49-1.91.49-.66 0-1.25-.13-1.77-.38-.52-.26-.93-.61-1.23-1.06-.3-.45-.45-.97-.45-1.53s.14-1.07.43-1.54.68-.86 1.19-1.16c.51-.31 1.08-.49 1.72-.56l2.53-.29c.18-.02.32-.1.43-.23.07-.09.11-.21.14-.34v-.2c0-.32-.07-.59-.22-.82-.15-.23-.36-.41-.63-.53-.27-.13-.6-.19-.97-.19s-.69.06-.97.17c-.28.12-.5.27-.67.46-.17.19-.27.41-.3.65H94.9c.08-.61.3-1.16.67-1.64.37-.48.87-.86 1.49-1.14.63-.28 1.31-.42 2.14-.42Zm1.51 7.83c.19-.34.28-.73.28-1.18v-.98l-2.53.3c-.29.03-.55.12-.78.26-.23.14-.4.32-.53.54-.13.22-.19.46-.19.73 0 .27.07.52.22.73.15.21.35.38.62.49.27.11.57.17.92.17.45 0 .84-.1 1.19-.28.35-.18.61-.44.8-.78Zm5.83-10.1h2.2v2.5h2.71v2.05h-2.71v5.18c0 .28.09.51.28.7.19.19.42.28.7.28h1.74v2.05h-2.21c-.55 0-1.04-.12-1.48-.35-.44-.23-.77-.56-1.02-.97-.25-.41-.38-.88-.38-1.4v-5.48h-1.79v-2.05h1.12c.25 0 .46-.08.61-.24.15-.16.23-.36.23-.61v-1.66Zm8.89 12.76h-2.36V71.77h2.36v10.25Zm.16-11.33h-2.69v-2.34h2.69v2.34Zm7.79.84c.73 0 1.38.16 1.93.48.55.32.98.78 1.29 1.39.31.61.46 1.33.46 2.17v6.45h-2.35v-6.09c0-.49-.08-.91-.25-1.26-.17-.35-.41-.62-.72-.8-.31-.19-.69-.28-1.12-.28-.47 0-.88.11-1.24.32-.36.21-.64.5-.84.88-.2.38-.3.81-.3 1.29v5.94h-2.36V71.77h2.29v1.5c.3-.49.68-.89 1.15-1.19.59-.37 1.27-.55 2.06-.55Zm12.4 7.46c.2-.38.3-.81.3-1.29h-.01v-5.94h2.36v10.25h-2.29V80.5c-.3.5-.68.9-1.15 1.2-.59.37-1.27.55-2.06.55-.73 0-1.38-.16-1.93-.48-.55-.32-.98-.78-1.29-1.39-.31-.61-.46-1.33-.46-2.17v-6.45h2.35v6.09c0 .49.08.91.25 1.26.17.35.41.62.72.8.31.19.69.28 1.13.28.47 0 .88-.11 1.24-.32.36-.21.64-.5.84-.88Zm16.92-7.47c.73 0 1.37.17 1.92.5h-.01c.55.33.97.8 1.27 1.41.3.61.45 1.31.45 2.12v6.47h-2.36v-6.19c0-.46-.08-.86-.24-1.19-.16-.33-.39-.59-.68-.77-.29-.18-.65-.27-1.06-.27-.44 0-.83.1-1.17.3-.34.2-.6.49-.78.86-.18.37-.27.81-.27 1.31v5.95h-2.31v-6.19c0-.46-.08-.86-.24-1.19-.16-.33-.38-.59-.68-.77-.3-.18-.66-.27-1.07-.27-.45 0-.84.1-1.17.3-.33.2-.59.49-.77.86-.18.37-.27.81-.27 1.31v5.95h-2.36V71.77h2.29v1.57c.29-.54.65-.96 1.11-1.27.55-.37 1.2-.55 1.93-.55s1.36.17 1.89.5c.53.33.94.8 1.23 1.41.005.01.007.0225.01.035.003.0125.005.025.01.035.32-.6.73-1.08 1.27-1.42.58-.37 1.27-.56 2.06-.56Zm22.2 3.01c-.4.65-.97 1.16-1.71 1.52h-.01c-.24.12-.51.21-.78.29l3.41 5.67h-2.86l-3.15-5.43h-2.57v5.43h-2.49V68h5.95c.96 0 1.8.18 2.53.53.73.35 1.29.85 1.69 1.5.4.64.6 1.38.6 2.24 0 .86-.21 1.61-.61 2.26Zm-4.36-.04c.49 0 .91-.09 1.27-.27v.01c.36-.18.63-.44.83-.77.2-.33.3-.73.3-1.17 0-.44-.1-.82-.3-1.15-.2-.33-.47-.58-.83-.76-.36-.18-.78-.27-1.27-.27h-3.3v4.38h3.3Zm11.65-2.96c1 0 1.9.23 2.69.68v-.01c.79.46 1.4 1.09 1.84 1.9.44.81.66 1.74.66 2.78v.57h-8.07c.04.47.14.91.34 1.3.25.49.59.88 1.04 1.15.45.27.95.41 1.51.41.49 0 .94-.1 1.33-.29.39-.19.72-.46.98-.81h2.57c-.24.63-.59 1.18-1.05 1.63-.46.45-1.02.8-1.67 1.05-.65.25-1.38.37-2.17.37-1.01 0-1.92-.23-2.72-.69-.8-.46-1.44-1.1-1.9-1.92-.47-.82-.7-1.77-.7-2.77s.23-1.92.7-2.73c.47-.82 1.11-1.46 1.92-1.92.81-.47 1.7-.7 2.7-.7Zm-2.55 3.39c-.15.3-.24.62-.3.95h5.61c-.06-.32-.14-.62-.27-.89-.24-.5-.57-.89-1-1.17-.43-.28-.93-.42-1.49-.42-.56 0-1.07.14-1.51.41-.44.27-.79.64-1.04 1.12Zm14.94 1.05c.54.09 1.01.28 1.42.57v.03c.41.29.72.65.94 1.08.22.43.33.9.33 1.4 0 .62-.19 1.18-.56 1.68-.37.5-.87.89-1.52 1.16-.65.27-1.32.41-2.15.41-.83 0-1.57-.14-2.23-.4-.66-.26-1.19-.64-1.58-1.12-.4-.49-.61-1.04-.65-1.67h2.36c.04.27.15.5.33.7.18.2.42.35.72.45.3.11.65.16 1.04.16.37 0 .7-.05.99-.16.3-.11.53-.26.69-.45.17-.19.25-.42.25-.67 0-.19-.05-.36-.14-.51-.09-.16-.22-.29-.38-.39-.17-.11-.36-.18-.57-.21l-2.27-.38c-.55-.09-1.02-.27-1.43-.55-.41-.28-.73-.63-.95-1.04-.23-.41-.34-.87-.34-1.36 0-.61.16-1.15.49-1.63.33-.48.79-.84 1.4-1.12.61-.28 1.31-.41 2.09-.41.78 0 1.47.13 2.09.38.62.25 1.11.61 1.47 1.08.37.47.57 1.01.62 1.64h-2.35c-.04-.26-.15-.48-.31-.68-.16-.2-.38-.34-.64-.45-.27-.11-.54-.16-.88-.16-.34 0-.63.05-.89.15-.26.11-.46.25-.6.44-.14.19-.21.4-.21.64 0 .18.04.34.13.47.09.13.22.24.39.33.17.09.39.15.65.2l2.25.39Zm9.25-4.44c1 0 1.9.23 2.69.68v-.01c.79.46 1.4 1.09 1.84 1.9.44.81.66 1.74.66 2.78v.57h-8.07c.04.47.14.91.34 1.3.25.49.59.88 1.04 1.15.45.27.95.41 1.51.41.49 0 .94-.1 1.33-.29.39-.19.72-.46.98-.81h2.57c-.24.63-.59 1.18-1.05 1.63-.46.45-1.02.8-1.67 1.05-.65.25-1.38.37-2.17.37-1.01 0-1.92-.23-2.72-.69-.8-.46-1.44-1.1-1.9-1.92-.47-.82-.7-1.77-.7-2.77s.23-1.92.7-2.73c.47-.82 1.11-1.46 1.92-1.92.81-.47 1.7-.7 2.7-.7Zm-2.55 3.39c-.15.3-.24.62-.3.95h5.61c-.06-.32-.14-.62-.27-.89-.24-.5-.57-.89-1-1.17-.43-.28-.93-.42-1.49-.42-.56 0-1.07.14-1.51.41-.44.27-.79.64-1.04 1.12Zm11.96 7.1h-2.36V68.01h2.36v14.01Zm4.8 0h-2.36V68.01h2.36v14.01Zm7.2-10.49c1 0 1.9.23 2.69.68v-.01c.79.46 1.4 1.09 1.84 1.9.44.81.66 1.74.66 2.78v.57h-8.07c.04.47.14.91.34 1.3.25.49.59.88 1.04 1.15.45.27.95.41 1.51.41.49 0 .94-.1 1.33-.29.39-.19.72-.46.98-.81h2.57c-.24.63-.59 1.18-1.05 1.63-.46.45-1.02.8-1.67 1.05-.65.25-1.38.37-2.17.37-1.01 0-1.92-.23-2.72-.69-.8-.46-1.44-1.1-1.9-1.92-.47-.82-.7-1.77-.7-2.77s.23-1.92.7-2.73c.47-.82 1.11-1.46 1.92-1.92.81-.47 1.7-.7 2.7-.7Zm-2.56 3.39c-.15.3-.24.62-.3.95h5.61c-.06-.32-.14-.62-.27-.89-.24-.5-.57-.89-1-1.17-.43-.28-.93-.42-1.49-.42-.56 0-1.07.14-1.51.41-.44.27-.79.64-1.04 1.12Zm12.93-2.65c.55-.38 1.18-.57 1.91-.57l.01.01h.38v2.38h-.66c-.53 0-.99.1-1.38.29-.39.19-.69.47-.9.83-.21.36-.32.79-.32 1.28v5.54h-2.36V71.78h2.34v1.55c.27-.44.59-.79.98-1.06Z" clip-rule="evenodd"/>
  <path fill="url(#a)" d="M20.34 3.66 3.66 20.34C1.32 22.68 0 25.86 0 29.18V59c0 2.76 2.24 5 5 5h29.82c3.32 0 6.49-1.32 8.84-3.66l16.68-16.68c2.34-2.34 3.66-5.52 3.66-8.84V5c0-2.76-2.24-5-5-5H29.18c-3.32 0-6.49 1.32-8.84 3.66Z"/>
  <path fill="#000" d="M48 16H8v40h40V16Z"/>
  <path fill="#fff" d="M30 47H13v4h17v-4Z"/>
</svg>
