<svg xmlns="http://www.w3.org/2000/svg" width="150" height="150" fill="none" viewBox="0 0 150 150">
  <defs>
    <linearGradient id="a" x1="17.1441" x2="67.2737" y1="46.163" y2="70.543" gradientUnits="userSpaceOnUse">
      <stop offset=".172099" stop-color="#FE2857"/>
      <stop offset="1" stop-color="#293896"/>
    </linearGradient>
    <linearGradient id="b" x1="62.6388" x2="139.18" y1="10.1947" y2="79.3047" gradientUnits="userSpaceOnUse">
      <stop offset=".092202" stop-color="#FF318C"/>
      <stop offset=".324332" stop-color="#FE2857"/>
      <stop offset="1" stop-color="#FDB60D"/>
    </linearGradient>
    <linearGradient id="c" x1="144.498" x2="42.9381" y1="80.1738" y2="140.614" gradientUnits="userSpaceOnUse">
      <stop offset=".01428" stop-color="#FDB60D"/>
      <stop offset="1" stop-color="#FCF84A"/>
    </linearGradient>
    <linearGradient id="d" x1="12.2372" x2="64.9986" y1="47.0772" y2="9.92135" gradientUnits="userSpaceOnUse">
      <stop stop-color="#FE2857"/>
      <stop offset="1" stop-color="#FF318C"/>
    </linearGradient>
  </defs>
  <path fill="url(#a)" d="m66.0563 68.7131.0059-.0127-41.3482-35.036-.0039.007c-2.6171-2.2268-6.0009-3.5767-9.7037-3.5767C6.71861 30.0947 0 36.8249 0 45.127c0 6.6297 4.2898 12.2455 10.2363 14.2437l-.0042.0075.1447.044c.1289.0419.259.0801.3894.1185l52.175 15.8822.0061-.0132c.3736.1261.7666.2102 1.1826.2102 2.0564 0 3.7233-1.6698 3.7233-3.7296 0-1.3507-.7237-2.5228-1.7969-3.1772Z"/>
  <path fill="url(#b)" d="m147.788 77.0249.003-.003L71.1665 3.21011C69.1921 1.22731 66.4619 0 63.4453 0 57.422 0 52.5391 4.89135 52.5391 10.9251c0 3.3222 1.4854 6.2923 3.8213 8.296l-.005.0055.1468.1237a.86593.86593 0 0 0 .0099.0083L137.914 87.943c1.278 1.0737 2.925 1.7219 4.724 1.7219 4.066 0 7.362-3.3016 7.362-7.3745 0-2.0636-.848-3.927-2.212-5.2655Z"/>
  <path fill="url(#c)" d="M150 82.2905c0-4.0728-3.296-7.3745-7.362-7.3745-1.61 0-3.095.5241-4.307 1.4029l-.007-.0091-92.7173 45.2972.0068.011c-4.869 2.478-8.2123 7.53-8.2123 13.375 0 8.288 6.7072 15.007 14.9809 15.007 3.2568 0 6.2619-1.052 8.7196-2.82l.0061.01 85.7352-58.8425-.004-.0056c1.909-1.3324 3.161-3.544 3.161-6.0514Z"/>
  <path fill="url(#d)" d="M74.3516 10.9251C74.3516 4.89135 69.4687 0 63.4454 0c-2.1762 0-4.1986.645635-5.9005 1.74576l-.0062-.00829L7.00038 32.4125l.00786.0105C2.80195 35.0862 0 39.7734 0 45.1266 0 53.4288 6.71861 60.159 15.0064 60.159c3.8006 0 7.2608-1.4268 9.9049-3.76l.0095.0128 45.2467-36.8951c.1237-.0973.246-.1955.3653-.2979l.0036-.0029-.0001-.0002c2.3323-2.0037 3.8153-4.9713 3.8153-8.2906Z"/>
  <path fill="#000" d="M105 45H45v60h60V45Z"/>
  <path fill="#fff" d="M74.25 93.75h-22.5v3.75h22.5v-3.75Z"/>
  <path fill="#fff" d="m50.5863 60.4659 1.6727-1.5789c.455.5486.8832.8697 1.472.8697.6423 0 1.0572-.4415 1.0572-1.3113v-5.9278h2.5827v5.9412c-.0001 1.1775-.2945 2.0072-.9234 2.6361-.6156.6155-1.4988.95-2.5693.95-1.6326 0-2.6229-.6824-3.2919-1.579Z"/>
  <path fill="#fff" d="M58.5274 52.5176h7.5339v2.1945h-4.9646v1.4318h4.4962v2.0473h-4.4962v1.4853h5.0314v2.2079l-7.6008-.0001.0001-9.3667Z"/>
  <path fill="#fff" d="M69.7317 54.7924h-2.7968l.0001-2.2748h8.2029v2.2748h-2.8101l-.0001 7.0919h-2.596v-7.0919Z"/>
  <path fill="#fff" d="M51.6312 65.5791h4.4163c1.1775 0 2.0072.2944 2.5559.8297.3747.3881.6022.8831.6022 1.5254v.0268c0 1.0838-.6156 1.7261-1.4453 2.0874 1.1375.3747 1.86 1.017 1.86 2.2882v.0268c0 1.6057-1.3114 2.5825-3.5461 2.5825l-4.4431-.0001.0001-9.3667Zm5.0184 2.8904c0-.5219-.4148-.8029-1.1775-.8029h-1.3118v1.6458h1.2448c.7895 0 1.2445-.2676 1.2445-.8162v-.0267Zm-.8965 2.6628h-1.5929v1.7261h1.6196c.8029 0 1.2445-.3078 1.2445-.8564v-.0267c0-.5085-.4014-.843-1.2712-.843Z"/>
  <path fill="#fff" d="M60.4522 65.5791h4.1489c1.4319 0 2.4221.3747 3.0511 1.0036.5486.5487.8296 1.2578.8295 2.1811v.0268c0 1.4452-.7627 2.3952-1.9269 2.8903l2.2347 3.265h-2.9841l-1.8868-2.8368h-.8704v2.8368l-2.5961-.0001.0001-9.3667Zm4.0418 4.4961c.8698 0 1.3917-.4282 1.3917-1.1107v-.0267c0-.7494-.5486-1.124-1.4051-1.124h-1.4324v2.2614h1.4458Z"/>
  <path fill="#fff" d="M72.0908 65.5127h2.5024l3.9877 9.4336h-2.7834l-.6691-1.686H71.502l-.6692 1.686h-2.7165l3.9745-9.4336Zm2.2748 5.7271-1.0437-2.6495-1.0572 2.6495h2.1009Z"/>
  <path fill="#fff" d="m78.9615 65.5527 2.596.0001-.0001 9.3667h-2.596l.0001-9.3668Z"/>
  <path fill="#fff" d="M82.5645 65.5527h2.4221l3.3693 4.9511v-4.951h2.5693v9.3667h-2.2616l-3.5298-5.1383v5.1383h-2.5693v-9.3668Z"/>
  <path fill="#fff" d="m91.3672 73.5272 1.4452-1.7261c.9367.736 1.9537 1.124 3.0376 1.1241.7092 0 1.084-.2409 1.084-.6424v-.0267c0-.4015-.3078-.6022-1.5924-.9099-1.9939-.455-3.5329-1.017-3.5328-2.9305v-.0268c0-1.7395 1.3783-2.9973 3.6265-2.9973 1.5924 0 2.8369.4282 3.8539 1.2445l-1.298 1.8331c-.8564-.6155-1.7931-.9232-2.6228-.9232-.629 0-.9368.2542-.9368.6021v.0268c0 .4282.3212.6155 1.6326.9099 2.141.4683 3.4793 1.1642 3.4793 2.9171v.0267c-.0001 1.9135-1.5123 3.0509-3.7871 3.0509-1.6594 0-3.225-.5219-4.3892-1.5523Z"/>
</svg>
