<svg height="241.62176" viewBox="0 0 374.4521 241.62176" width="374.4521" xmlns="http://www.w3.org/2000/svg" xmlns:xlink="http://www.w3.org/1999/xlink"><linearGradient id="a" gradientUnits="userSpaceOnUse" x1="98.67866" x2="240.70342" y1="13.69011" y2="108.80761"><stop offset="0" stop-color="#aa4a9b"/><stop offset="1" stop-color="#f05922"/></linearGradient><linearGradient id="b" gradientUnits="userSpaceOnUse" x1="140.77934" x2="368.23541" y1="241.99714" y2="120.54002"><stop offset="0" stop-color="#ffe42e"/><stop offset="1" stop-color="#ed417c"/></linearGradient><linearGradient id="c" gradientUnits="userSpaceOnUse" x1="148.05324" x2="229.72629" y1="232.26373" y2="112.67105"><stop offset="0" stop-color="#ffe42e"/><stop offset="1" stop-color="#f05922"/></linearGradient><g fill="#231f20"><path d="m8.59277 134.64961h1.77637l7.65625 16.92139h-2.04l-1.96826-4.44043h-9.14457l-1.99219 4.44043h-1.94437zm4.68018 10.77686-3.81595-8.56886-3.8403 8.56885z"/><path d="m19.27246 144.53828v-9.76855h1.896v9.64844c0 3.62451 1.92041 5.66455 5.13672 5.66455 3.09619 0 5.064-1.87207 5.064-5.54443v-9.76855h1.89648v9.62451c0 4.89648-2.80811 7.44092-7.00879 7.44092-4.15238-.00002-6.98441-2.54445-6.98441-7.29689z"/><path d="m40.92041 136.52168h-5.66455v-1.752h13.22514v1.752h-5.66459v15.04932h-1.896z"/><path d="m50.73535 134.76972h1.89648v7.46436h9.69678v-7.46436h1.896v16.80128h-1.896v-7.56055h-9.69677v7.56055h-1.89649z"/><path d="m67.03174 143.21845v-.04834a8.56917 8.56917 0 1 1 17.13721-.04785v.04785a8.56917 8.56917 0 1 1 -17.13721.04834zm15.16895 0v-.04834a6.67993 6.67993 0 0 0 -6.62451-6.93652 6.6003 6.6003 0 0 0 -6.57666 6.88867v.04785a6.68032 6.68032 0 0 0 6.625 6.93652 6.59978 6.59978 0 0 0 6.57616-6.88818z"/><path d="m86.9751 134.76972h7.2251a6.62425 6.62425 0 0 1 4.77637 1.68018 4.64051 4.64051 0 0 1 1.2959 3.312v.04785c0 2.78467-1.91992 4.4165-4.56055 4.89648l5.16064 6.86475h-2.32813l-4.87256-6.52881h-4.80029v6.52883h-1.89648zm7.05664 8.56836c2.52051 0 4.3208-1.2959 4.3208-3.45605v-.04785c0-2.06445-1.58447-3.3125-4.29639-3.3125h-5.18457v6.81641z"/><path d="m103.29541 134.76972h1.896v16.80128h-1.896z"/><path d="m108.14258 150.299 10.873-13.8252h-10.5127v-1.7041h13.10552v1.272l-10.89746 13.8252h10.89746v1.7041h-13.46582z"/><path d="m124.34277 134.76972h12.14551v1.728h-10.249v5.73633h9.16895v1.728h-9.16895v5.88095h10.36912v1.728h-12.26563z"/><path d="m139.22266 134.76972h5.833c5.28027 0 8.92871 3.624 8.92871 8.35254v.04785c0 4.72852-3.64844 8.40088-8.92871 8.40088h-5.833zm1.89648 1.752v13.29728h3.93652c4.248 0 6.96-2.88037 6.96-6.60059v-.04834c0-3.72021-2.71191-6.64844-6.96-6.64844z"/><path d="m38.56738 156.76972h7.22462a6.62468 6.62468 0 0 1 4.77686 1.68018 4.64051 4.64051 0 0 1 1.2959 3.312v.04785c0 2.78467-1.91992 4.4165-4.56055 4.89648l5.16064 6.86475h-2.32813l-4.87256-6.52881h-4.80029v6.52883h-1.89649zm7.05664 8.56836c2.52051 0 4.3208-1.2959 4.3208-3.45605v-.04785c0-2.06445-1.58447-3.3125-4.29639-3.3125h-5.18456v6.81641z"/><path d="m54.71924 156.76972h12.14551v1.728h-10.249v5.73633h9.16846v1.728h-9.16849v5.88095h10.36866v1.728h-12.26514z"/><path d="m68.49512 171.12275 1.17627-1.39209a8.00042 8.00042 0 0 0 5.76025 2.376c2.25635 0 3.74463-1.19971 3.74463-2.856v-.04785c0-1.56055-.84033-2.44824-4.36865-3.19238-3.86426-.84033-5.64014-2.08838-5.64014-4.84863v-.0478c0-2.64014 2.32813-4.58447 5.52051-4.58447a8.76511 8.76511 0 0 1 5.9043 2.06445l-1.104 1.46387a7.38007 7.38007 0 0 0 -4.84863-1.82422c-2.18408 0-3.57617 1.2002-3.57617 2.7124v.04785c0 1.584.86426 2.47217 4.56055 3.26416 3.74414.81641 5.47217 2.18457 5.47217 4.75244v.04834c0 2.87988-2.3999 4.75244-5.73633 4.75244a9.83106 9.83106 0 0 1 -6.86476-2.68851z"/><path d="m83.75928 156.76972h12.14551v1.728h-10.249v5.73633h9.16846v1.728h-9.16849v5.88095h10.36865v1.728h-12.26513z"/><path d="m98.63916 156.76972h1.89648v15.04928h9.45654v1.752h-11.353z"/><path d="m112.19873 156.76972h1.89648v15.04928h9.45654v1.752h-11.353z"/><path d="m125.75879 156.76972h12.14551v1.728h-10.249v5.73633h9.16895v1.728h-9.16895v5.88095h10.36914v1.728h-12.26565z"/><path d="m140.63867 156.76972h7.22461a6.62262 6.62262 0 0 1 4.77637 1.68018 4.63917 4.63917 0 0 1 1.29688 3.312v.04785c0 2.78467-1.9209 4.4165-4.56055 4.89648l5.16016 6.86475h-2.32814l-4.87207-6.52881h-4.80078v6.52883h-1.89648zm7.05664 8.56836c2.52051 0 4.32031-1.2959 4.32031-3.45605v-.04785c0-2.06445-1.584-3.3125-4.2959-3.3125h-5.18457v6.81641z"/></g><path d="m251.67871 115.17938-125.24387-109.00653a22.03746 22.03746 0 1 0 -25.63119 35.32915l140.87795 87.448c.20351.13825.413.27053.63171.393a8.51308 8.51308 0 0 0 9.36541-14.16357z" fill="url(#a)"/><path d="m374.42755 132.60712a31.11278 31.11278 0 0 0 -47.23809-25.36312l-180.55221 103.76883s-.1212.05985-.29733.16752a15.78367 15.78367 0 1 0 12.30073 29.07044l196.25435-77.52153a3.96138 3.96138 0 0 0 .48406-.20628 31.11741 31.11741 0 0 0 19.04849-29.91586z" fill="url(#b)"/><path d="m226.19225 127.94417a8.51262 8.51262 0 0 0 -14.45515-8.9136l-72.31492 97.84668s-.06724.11971-.15262.31078a15.78081 15.78081 0 1 0 27.34233 15.64857l59.08672-104.06731a8.59711 8.59711 0 0 0 .49364-.82512z" fill="url(#c)"/><path d="m180.11802 71.33545h102.04725v102.04726h-102.04725z"/><g fill="#fff"><path d="m188.92022 154.24884h38.26771v6.37796h-38.26771z"/><path d="m188.49 98.20528 2.97-2.80379a3.36694 3.36694 0 0 0 2.61369 1.5444c1.14048 0 1.87717-.78406 1.87717-2.32848v-10.526h4.58579v10.54974a6.17917 6.17917 0 0 1 -1.63951 4.68086 6.267 6.267 0 0 1 -4.562 1.687 6.79234 6.79234 0 0 1 -5.84514-2.80373z"/><path d="m201.60542 84.09137h13.37713v3.8968h-8.81509v2.54241h7.98347v3.63533h-7.98347v2.63743h8.9339v3.92053h-13.49594z"/><path d="m221.00855 88.13073h-4.966v-4.03936h14.56524v4.03936h-4.98973v12.59314h-4.60951z"/><path d="m188.9177 104.61137h8.53a6.229 6.229 0 0 1 4.53832 1.47323 3.743 3.743 0 0 1 1.06927 2.70869v.04756a3.84969 3.84969 0 0 1 -2.56622 3.7066c2.01973.66533 3.30275 1.80581 3.30275 4.0631v.04756c0 2.85125-2.32857 4.58577-6.29649 4.58577h-8.57763zm9.59924 5.13238c0-.92673-.73652-1.42567-2.09092-1.42567h-3.01765v2.92253h2.89881c1.40186 0 2.20975-.47522 2.20975-1.44941zm-1.59187 4.72833h-3.5167v3.06509h3.56414c1.42558 0 2.20975-.5465 2.20975-1.52068v-.04749c.00001-.90287-.71279-1.49692-2.25719-1.49692z"/><path d="m204.4805 104.61137h7.86479c2.54232 0 4.30067.66533 5.41741 1.78207a5.19321 5.19321 0 0 1 1.473 3.873v.04754a5.26947 5.26947 0 0 1 -3.4214 5.13229l3.9679 5.79762h-5.29857l-3.35021-5.03726h-2.04342v5.03726h-4.6095zm7.67461 7.98363c1.54442 0 2.47113-.76034 2.47113-1.97217v-.04747c0-1.33067-.97418-1.99591-2.49487-1.99591h-3.04137v4.01555z"/><path d="m224.62889 104.49262h4.44323l7.08082 16.75125h-4.94228l-1.18809-2.99381h-6.439l-1.18811 2.99381h-4.82346zm4.03927 10.16957-1.85326-4.70461-1.87717 4.70461z"/><path d="m236.69874 104.61137h4.60951v16.6325h-4.60951z"/><path d="m242.44855 104.61137h4.30065l6.843 8.79152v-8.79152h4.56207v16.6325h-4.01557l-7.12811-9.12409v9.12409h-4.562z"/><path d="m258.4432 118.77274 2.56606-3.06509a8.61665 8.61665 0 0 0 5.39367 1.99591c1.2593 0 1.92463-.42768 1.92463-1.14057v-.04745c0-.71289-.5465-1.06929-2.82744-1.61579-3.5404-.8078-6.27293-1.8058-6.27293-5.20357v-.04754c0-3.08884 2.44741-5.3224 6.43921-5.3224a10.46826 10.46826 0 0 1 6.843 2.20975l-2.30467 3.25519a8.16478 8.16478 0 0 0 -4.65714-1.63942c-1.11674 0-1.66325.4514-1.66325 1.0692v.04754c0 .76036.57024 1.093 2.89881 1.6157 3.80164.83162 6.17783 2.06719 6.17783 5.17984v.04754c0 3.39777-2.68506 5.41741-6.72433 5.41741a11.66153 11.66153 0 0 1 -7.79345-2.75625z"/></g></svg>