<svg height="271.46488" viewBox="0 0 295.63201 271.46488" width="295.63201" xmlns="http://www.w3.org/2000/svg" xmlns:xlink="http://www.w3.org/1999/xlink"><linearGradient id="a" gradientUnits="userSpaceOnUse" x1="20.04663" x2="217.32663" y1="256.86302" y2="7.02302"><stop offset="0" stop-color="#aa62a6"/><stop offset=".55339" stop-color="#c55597"/><stop offset="1" stop-color="#d64c8d"/></linearGradient><linearGradient id="b" gradientUnits="userSpaceOnUse" x1="57.80188" x2="217.64188" y1="94.82929" y2="16.34929"><stop offset="0" stop-color="#ed417c"/><stop offset=".22496" stop-color="#e74480"/><stop offset="1" stop-color="#d64c8d"/></linearGradient><linearGradient id="c" gradientUnits="userSpaceOnUse" x1="41.46774" x2="181.14774" y1="93.07899" y2="242.11899"><stop offset="0" stop-color="#ed417c"/><stop offset=".02053" stop-color="#ed427a"/><stop offset=".67096" stop-color="#f16b4e"/><stop offset="1" stop-color="#f37b3d"/></linearGradient><linearGradient id="d" gradientUnits="userSpaceOnUse" x1="15.91011" x2="191.59011" y1="136.91478" y2="243.47478"><stop offset="0" stop-color="#39bfef"/><stop offset=".24745" stop-color="#6eacbd"/><stop offset=".60872" stop-color="#b59278"/><stop offset=".86897" stop-color="#e2814d"/><stop offset="1" stop-color="#f37b3d"/></linearGradient><g fill="#231f20"><path d="m178.92107 110.21056v-.04785a8.432 8.432 0 0 1 8.4248-8.68945 8.8533 8.8533 0 0 1 6.26465 2.23242l-1.22363 1.44043a7.15015 7.15015 0 0 0 -5.11328-1.91992c-3.71973 0-6.38379 3.14355-6.38379 6.88867v.04785c0 4.00781 2.56836 6.98438 6.64844 6.98438a7.911 7.911 0 0 0 4.84863-1.68066v-4.17578h-5.11328v-1.7041h6.9375v6.69629a10.1814 10.1814 0 0 1 -6.74512 2.56836c-5.28027-.00002-8.54492-3.84084-8.54492-8.64064z"/><path d="m196.53728 110.21056v-.04785a8.56942 8.56942 0 1 1 17.1377-.04785v.04785a8.56941 8.56941 0 1 1 -17.1377.04785zm15.16992 0v-.04785a6.68 6.68 0 0 0 -6.625-6.93652 6.6002 6.6002 0 0 0 -6.57617 6.88867v.04785a6.67983 6.67983 0 0 0 6.624 6.93652 6.6004 6.6004 0 0 0 6.57717-6.88867z"/><path d="m216.48064 101.76134h1.89648v15.0498h9.457v1.752h-11.35348z"/><path d="m230.04021 101.76134h5.833c5.28027 0 8.92871 3.625 8.92871 8.35352v.04785c0 4.72852-3.64844 8.40039-8.92871 8.40039h-5.833zm1.89648 1.75293v13.29688h3.93652c4.248 0 6.96-2.88086 6.96-6.60059v-.04785c0-3.7207-2.71191-6.64844-6.96-6.64844z"/><path d="m179.66521 123.76134h7.22461a6.62071 6.62071 0 0 1 4.77637 1.68066 4.63867 4.63867 0 0 1 1.29688 3.3125v.04785c0 2.78418-1.9209 4.416-4.56055 4.89648l5.16016 6.86426h-2.32812l-4.87207-6.52832h-4.80078v6.52832h-1.89648zm7.05664 8.56934c2.52051 0 4.32031-1.29687 4.32031-3.457v-.04785c0-2.06348-1.584-3.31152-4.2959-3.31152h-5.18457v6.81641z"/><path d="m195.81658 123.76134h12.14551v1.72852h-10.249v5.73633h9.16891v1.72852h-9.16895v5.87988h10.36915v1.72852h-12.26562z"/><path d="m209.59392 138.11485 1.17578-1.39258a7.99853 7.99853 0 0 0 5.76074 2.377c2.25586 0 3.74414-1.2002 3.74414-2.85645v-.04785c0-1.56055-.83984-2.44824-4.36816-3.19238-3.86426-.83984-5.64062-2.08789-5.64062-4.84863v-.04785c0-2.64062 2.32813-4.584 5.52051-4.584a8.76442 8.76442 0 0 1 5.9043 2.06348l-1.10449 1.46484a7.376 7.376 0 0 0 -4.84766-1.82422c-2.18457 0-3.57617 1.19922-3.57617 2.71191v.04785c0 1.584.86328 2.47266 4.55957 3.26465 3.74512.81543 5.47266 2.18359 5.47266 4.752v.04785c0 2.88086-2.40039 4.75293-5.73633 4.75293a9.83122 9.83122 0 0 1 -6.86427-2.68855z"/><path d="m224.85661 123.76134h12.14551v1.72852h-10.249v5.73633h9.16888v1.72852h-9.1689v5.87988h10.36914v1.72852h-12.26563z"/><path d="m239.7365 123.76134h1.8965v15.0498h9.457v1.752h-11.3535z"/><path d="m253.297 123.76134h1.89648v15.0498h9.457v1.752h-11.35348z"/><path d="m266.85661 123.76134h12.14551v1.72852h-10.249v5.73633h9.16888v1.72852h-9.1689v5.87988h10.36914v1.72852h-12.26563z"/><path d="m281.7365 123.76134h7.22461a6.62071 6.62071 0 0 1 4.77637 1.68066 4.63867 4.63867 0 0 1 1.29688 3.3125v.04785c0 2.78418-1.9209 4.416-4.56055 4.89648l5.16016 6.86426h-2.32812l-4.87207-6.52832h-4.80078v6.52832h-1.8965zm7.05664 8.56934c2.52051 0 4.32031-1.29687 4.32031-3.457v-.04785c0-2.06348-1.584-3.31152-4.2959-3.31152h-5.18455v6.81641z"/></g><path d="m231.92048 24.51887a14.5421 14.5421 0 1 0 -21.1812-19.931l-.02-.01749-205.20091 234.81418a18.83242 18.83242 0 1 0 27.84383 25.31425l.004-.0007z" fill="url(#a)"/><path d="m235.87377 14.023a14.53871 14.53871 0 0 0 -21.33031-12.334c-.061.01775-.09352.02909-.09352.02909l-170.95284 84.09222a11.91247 11.91247 0 1 0 10.33523 21.45313l.02663-.00141 172.80738-79.19903a14.53843 14.53843 0 0 0 9.20743-14.04z" fill="url(#b)"/><path d="m186.33864 213.645-129.30697-124.47805a11.92477 11.92477 0 0 0 -17.8991 15.74244c.00984.05027.01582.07787.01582.07787l112.5479 139.57655a23.306 23.306 0 1 0 34.64235-30.91881z" fill="url(#c)"/><path d="m180.7147 209.73416c7.63378 3.786-.07-.0356 0 0z" fill="#39bfef"/><path d="m193.63734 229.25872c.13988-7.445-3.61318-14.90748-12.92265-19.52455-11.039-5.61656-22.15824-11.0809-33.235-16.62275q-16.43988-8.22511-32.87729-16.45515-16.46631-8.245-32.92919-16.49689-16.63361-8.3377-33.2579-16.69377c-10.81336-5.43489-35.59447-17.91519-35.59447-17.91519a9.15455 9.15455 0 0 0 -8.80708 15.9627c.06267.04491.12542.08965.18923.133.03542.0254.07128.0501.10688.07506 0 0 2.74922 1.86425 4.23817 2.97958 2.52677 1.89272 5.176 3.64157 7.75731 5.45941q7.459 5.25261 14.913 10.51233 15.33516 10.81938 30.657 21.65757 15.03694 10.63455 30.06606 21.2799 15.178 10.747 30.35153 21.50016c10.12808 7.177 20.12783 14.59063 30.405 21.55157 1.2415.84085 2.40666 1.86882 3.701 2.62415.26565.155.53082.30322.79572.44815l-.04641.07611a23.30152 23.30152 0 0 0 36.53152-19.33937c-.00257-.40695-.01918-.81036-.04243-1.21202z" fill="url(#d)"/><path d="m51.84766 101.28295h102.04725v102.04726h-102.04725z"/><g fill="#fff"><path d="m60.64986 184.19634h38.26771v6.37796h-38.26771z"/><path d="m60.21966 128.15278 2.97-2.80379a3.36694 3.36694 0 0 0 2.61369 1.5444c1.14048 0 1.87717-.78406 1.87717-2.32848v-10.526h4.58578v10.54978a6.17917 6.17917 0 0 1 -1.63951 4.68086 6.267 6.267 0 0 1 -4.562 1.687 6.79234 6.79234 0 0 1 -5.84513-2.80377z"/><path d="m73.335 114.03887h13.37718v3.8968h-8.81509v2.54241h7.98347v3.63533h-7.98347v2.63743h8.93391v3.92053h-13.496z"/><path d="m92.73819 118.07823h-4.966v-4.03936h14.56524v4.03936h-4.98973v12.59314h-4.60951z"/><path d="m60.64734 134.55887h8.53a6.229 6.229 0 0 1 4.53832 1.47323 3.743 3.743 0 0 1 1.06927 2.70869v.04756a3.84969 3.84969 0 0 1 -2.56622 3.7066c2.01973.66533 3.30275 1.80581 3.30275 4.0631v.04756c0 2.85125-2.32857 4.58577-6.29649 4.58577h-8.57763zm9.59924 5.13238c0-.92673-.73652-1.42567-2.09092-1.42567h-3.01766v2.92253h2.89881c1.40186 0 2.20975-.47522 2.20975-1.44941zm-1.59187 4.72833h-3.51671v3.06509h3.56414c1.42558 0 2.20975-.5465 2.20975-1.52068v-.04747c.00002-.90289-.71278-1.49694-2.25718-1.49694z"/><path d="m76.21013 134.55887h7.86479c2.54232 0 4.30067.66533 5.41741 1.78207a5.19321 5.19321 0 0 1 1.473 3.873v.04754a5.26947 5.26947 0 0 1 -3.4214 5.13229l3.9679 5.79762h-5.29852l-3.35021-5.03726h-2.04345v5.03726h-4.60952zm7.67461 7.98363c1.54442 0 2.47113-.76034 2.47113-1.97217v-.04747c0-1.33067-.97418-1.99591-2.49487-1.99591h-3.04135v4.01555z"/><path d="m96.35853 134.44012h4.44323l7.08082 16.75125h-4.94228l-1.18809-2.99381h-6.439l-1.18821 2.99381h-4.82339zm4.03927 10.16957-1.85326-4.70461-1.87717 4.70461z"/><path d="m108.42837 134.55887h4.60951v16.6325h-4.60951z"/><path d="m114.17818 134.55887h4.30065l6.843 8.79152v-8.79152h4.56207v16.6325h-4.01555l-7.12811-9.12409v9.12409h-4.562z"/><path d="m130.17284 148.72024 2.56606-3.06509a8.61665 8.61665 0 0 0 5.39367 1.99591c1.2593 0 1.92463-.42768 1.92463-1.14057v-.04749c0-.71289-.5465-1.06929-2.82744-1.61579-3.5404-.8078-6.27293-1.8058-6.27293-5.20357v-.04754c0-3.08884 2.44741-5.3224 6.43921-5.3224a10.46826 10.46826 0 0 1 6.843 2.20975l-2.30467 3.25519a8.16478 8.16478 0 0 0 -4.65714-1.63942c-1.11674 0-1.66325.4514-1.66325 1.0692v.04754c0 .76036.57024 1.093 2.89881 1.6157 3.80164.83162 6.17783 2.06719 6.17783 5.17984v.04754c0 3.39777-2.68506 5.41741-6.72433 5.41741a11.66153 11.66153 0 0 1 -7.79345-2.75621z"/></g></svg>