<svg enable-background="new 0 0 142.7 119" height="119" viewBox="0 0 142.7 119" width="142.7" xmlns="http://www.w3.org/2000/svg" xmlns:xlink="http://www.w3.org/1999/xlink"><linearGradient id="a" gradientUnits="userSpaceOnUse" x1="4.7875" x2="75.7999" y1="6.8451" y2="54.4038"><stop offset="0" stop-color="#aa4a9b"/><stop offset="1" stop-color="#f05922"/></linearGradient><linearGradient id="b" gradientUnits="userSpaceOnUse" x1="28.3538" x2="139.5938" y1="119.6551" y2="60.2551"><stop offset="0" stop-color="#ffe42e"/><stop offset="1" stop-color="#ed417c"/></linearGradient><linearGradient id="c" gradientUnits="userSpaceOnUse" x1="31.6974" x2="72.0174" y1="114.3816" y2="55.3416"><stop offset="0" stop-color="#ffe42e"/><stop offset="1" stop-color="#f05922"/></linearGradient><path d="m81.3 57.6-62.6-54.5c-1.9-1.8-4.5-3-7.3-3.1-6.2-.2-11.2 4.6-11.4 10.7-.1 4.3 2.3 8.1 5.8 10l70.4 43.7c.1.1.2.1.3.2 2.1 1.1 4.6.4 5.8-1.6 1.1-1.8.6-4.1-1-5.4z" fill="url(#a)"/><path d="m142.7 66.3c-.3-8.6-7.6-15.3-16.2-14.9-2.7.1-5.3.9-7.5 2.2l-88 50.1s-.1 0-.1.1c-3 1.2-5 4.2-4.9 7.6.2 4.4 3.8 7.8 8.2 7.6 1 0 2-.3 2.9-.7l95.9-37s.1 0 .2-.1c5.7-2.4 9.7-8.2 9.5-14.9z" fill="url(#b)"/><path d="m71.8 64c1.1-2.1.3-4.7-1.8-5.7-1.9-1-4.2-.4-5.4 1.3l-37.1 47.1s0 .1-.1.2c-1.8 2.7-1.8 6.3.3 9 2.6 3.5 7.5 4.2 11 1.7 1-.8 1.8-1.8 2.4-2.8l30.5-50.2c0-.3.1-.5.2-.6z" fill="url(#c)"/><path d="m45.5 35.7h51v51h-51z"/><g fill="#fff"><path d="m49.9 77.1h19.1v3.2h-19.1z"/><path d="m49.7 49.1 1.5-1.4c.4.5.8.8 1.3.8.6 0 .9-.4.9-1.2v-5.3h2.3v5.3c0 1-.3 1.8-.8 2.3s-1.3.8-2.3.8c-1.4.1-2.3-.5-2.9-1.3z"/><path d="m56.3 42h6.7v2h-4.4v1.3h4v1.8h-4v1.3h4.4v2h-6.7z"/><path d="m66 44.1h-2.5v-2h7.3v2h-2.5v6.3h-2.3z"/><path d="m49.9 52.3h4.3c1 0 1.8.3 2.3.7.3.3.5.8.5 1.4 0 1-.5 1.5-1.3 1.9 1 .3 1.7.9 1.7 2 0 1.4-1.2 2.3-3.1 2.3h-4.3v-8.3zm4.8 2.6c0-.5-.4-.7-1-.7h-1.5v1.5h1.4c.7-.1 1.1-.3 1.1-.8zm-.8 2.3h-1.8v1.5h1.8c.7 0 1.1-.3 1.1-.8 0-.4-.3-.7-1.1-.7z"/><path d="m57.7 52.3h3.9c1.3 0 2.2.3 2.7.9.5.5.7 1.1.7 1.9 0 1.3-.7 2.1-1.7 2.6l2 2.9h-2.6l-1.7-2.5h-1v2.5h-2.3zm3.8 4c.8 0 1.2-.4 1.2-1 0-.7-.5-1-1.2-1h-1.5v2z"/><path d="m67.8 52.2h2.2l3.5 8.4h-2.5l-.6-1.5h-3.2l-.6 1.5h-2.4zm2 5.1-.9-2.3-.9 2.4h1.8z"/><path d="m73.8 52.3h2.3v8.3h-2.3z"/><path d="m76.7 52.3h2.2l3.4 4.4v-4.4h2.3v8.3h-2l-3.6-4.5v4.6h-2.3z"/><path d="m84.7 59.4 1.3-1.5c.8.7 1.7 1 2.7 1 .6 0 1-.2 1-.6s-.3-.5-1.4-.8c-1.8-.4-3.1-.9-3.1-2.6 0-1.5 1.2-2.7 3.2-2.7 1.4 0 2.5.4 3.4 1.1l-1.2 1.6c-.8-.5-1.6-.8-2.3-.8-.6 0-.8.2-.8.5 0 .4.3.5 1.4.8 1.9.4 3.1 1 3.1 2.6 0 1.7-1.3 2.7-3.4 2.7-1.5.1-2.9-.4-3.9-1.3z"/></g></svg>