<svg xmlns="http://www.w3.org/2000/svg" xmlns:xlink="http://www.w3.org/1999/xlink" width="314.59872" height="260.43244" viewBox="0 0 314.59872 260.43244">
  <defs>
    <linearGradient id="linear-gradient" x1="138.025" y1="241.11559" x2="294.82302" y2="146.48009" gradientUnits="userSpaceOnUse">
      <stop offset="0" stop-color="#fcee39"/>
      <stop offset="1" stop-color="#f37b3d"/>
    </linearGradient>
    <linearGradient id="linear-gradient-2" x1="171.06405" y1="13.81662" x2="314.17836" y2="139.10915" gradientUnits="userSpaceOnUse">
      <stop offset="0" stop-color="#ef5a6b"/>
      <stop offset="0.57001" stop-color="#f26f4e"/>
      <stop offset="1" stop-color="#f37b3d"/>
    </linearGradient>
    <linearGradient id="linear-gradient-3" x1="180.23609" y1="127.28148" x2="95.41855" y2="74.31243" gradientUnits="userSpaceOnUse">
      <stop offset="0" stop-color="#7c59a4"/>
      <stop offset="0.38524" stop-color="#af4c92"/>
      <stop offset="0.76544" stop-color="#dc4183"/>
      <stop offset="0.95699" stop-color="#ed3d7d"/>
    </linearGradient>
    <linearGradient id="linear-gradient-4" x1="178.68994" y1="7.40385" x2="95.88388" y2="75.79427" gradientUnits="userSpaceOnUse">
      <stop offset="0" stop-color="#ef5a6b"/>
      <stop offset="0.36402" stop-color="#ee4e72"/>
      <stop offset="1" stop-color="#ed3d7d"/>
    </linearGradient>
  </defs>
  <g>
    <path d="M2.376,138.67438H8.66455c3.79248,0,6.28857,2.0166,6.28857,5.3291v.04785c0,3.624-3.02393,5.49609-6.60059,5.49609H4.27246v5.92871H2.376Zm6.04883,9.14551c2.78418,0,4.6084-1.48828,4.6084-3.69629v-.04883c0-2.39941-1.80029-3.64746-4.5127-3.64746h-4.248v7.39258Z" fill="#231f20"/>
    <path d="M17.208,138.67438h1.89648v15.0498H28.561v1.752H17.208Z" fill="#231f20"/>
    <path d="M36.98438,138.55426h1.77588L46.417,155.47614h-2.04l-1.96826-4.44043H33.26416L31.272,155.47614H29.32764Zm4.68018,10.77734-3.81592-8.56836-3.84033,8.56836Z" fill="#231f20"/>
    <path d="M50.832,140.42731H45.16748v-1.75293h13.2251v1.75293H52.728v15.04883H50.832Z" fill="#231f20"/>
    <path d="M60.81592,138.67438h1.896v16.80176h-1.896Z" fill="#231f20"/>
    <path d="M66.43115,138.67438h1.77637l10.585,13.46582V138.67438h1.84814v16.80176H79.12842L68.27979,141.69879v13.77734H66.43115Z" fill="#231f20"/>
    <path d="M83.92725,148.44391v-9.76953h1.89648v9.64941c0,3.624,1.91992,5.66406,5.13574,5.66406,3.09668,0,5.06445-1.87207,5.06445-5.54395v-9.76953h1.89648v9.625c0,4.89648-2.80859,7.44043-7.00879,7.44043C86.75928,155.73981,83.92725,153.19586,83.92725,148.44391Z" fill="#231f20"/>
    <path d="M101.20654,138.67438h1.91992l6.12109,9.16895,6.12012-9.16895h1.9209v16.80176h-1.89648V141.86676l-6.12109,9.001h-.0957l-6.12012-8.97656v13.585h-1.84863Z" fill="#231f20"/>
    <path d="M2.61572,160.67438H9.84033a6.62277,6.62277,0,0,1,4.77686,1.68066,4.64,4.64,0,0,1,1.2959,3.3125v.04785c0,2.78418-1.91992,4.416-4.56055,4.89648l5.16064,6.86426H14.18506L9.3125,170.94782H4.51221v6.52832H2.61572Zm7.05664,8.56934c2.52051,0,4.3208-1.29687,4.3208-3.457v-.04785c0-2.06348-1.58447-3.31152-4.29639-3.31152H4.51221v6.81641Z" fill="#231f20"/>
    <path d="M18.76758,160.67438H30.91309v1.72852h-10.249v5.73633h9.16846v1.72852H20.66406v5.87988H31.03271v1.72852H18.76758Z" fill="#231f20"/>
    <path d="M32.54346,175.02789l1.17627-1.39258a7.99742,7.99742,0,0,0,5.76025,2.377c2.25635,0,3.74463-1.2002,3.74463-2.85645V173.108c0-1.56055-.84033-2.44824-4.36865-3.19238-3.86426-.83984-5.64014-2.08789-5.64014-4.84863v-.04785c0-2.64062,2.32813-4.584,5.52051-4.584a8.76442,8.76442,0,0,1,5.9043,2.06348l-1.104,1.46484a7.37753,7.37753,0,0,0-4.84863-1.82422c-2.18408,0-3.57617,1.19922-3.57617,2.71191v.04785c0,1.584.86426,2.47266,4.56055,3.26465,3.74414.81543,5.47217,2.18359,5.47217,4.752v.04785c0,2.88086-2.3999,4.75293-5.73633,4.75293A9.83322,9.83322,0,0,1,32.54346,175.02789Z" fill="#231f20"/>
    <path d="M47.80762,160.67438H59.95313v1.72852H49.7041v5.73633h9.16846v1.72852H49.7041v5.87988H60.07275v1.72852H47.80762Z" fill="#231f20"/>
    <path d="M62.6875,160.67438H64.584v15.0498h9.45654v1.752H62.6875Z" fill="#231f20"/>
    <path d="M76.24707,160.67438h1.89648v15.0498H87.6001v1.752h-11.353Z" fill="#231f20"/>
    <path d="M89.80713,160.67438h12.14551v1.72852h-10.249v5.73633h9.16895v1.72852H91.70361v5.87988h10.36914v1.72852H89.80713Z" fill="#231f20"/>
    <path d="M104.687,160.67438h7.22461A6.62071,6.62071,0,0,1,116.688,162.355a4.63867,4.63867,0,0,1,1.29688,3.3125v.04785c0,2.78418-1.9209,4.416-4.56055,4.89648l5.16016,6.86426h-2.32812l-4.87207-6.52832H106.5835v6.52832H104.687Zm7.05664,8.56934c2.52051,0,4.32031-1.29687,4.32031-3.457v-.04785c0-2.06348-1.584-3.31152-4.2959-3.31152H106.5835v6.81641Z" fill="#231f20"/>
  </g>
  <rect x="152.38203" y="157.69982" width="38.43976" height="6.40663" fill="#fff"/>
  <rect x="152.38203" y="157.69982" width="38.43976" height="6.40663" fill="#fff"/>
  <g>
    <path id="_Path_" data-name="&lt;Path&gt;" d="M311.64255,143.61975a9.27729,9.27729,0,0,0-12.38841-13.80916l-.01048-.01179L131.6402,221.52413a20.26984,20.26984,0,1,0,18.98167,35.65507h0l.001-.00065c.49207-.31724.97268-.653,1.43855-1.01441l155.905-109.68956c.94143-.64655,3.08222-2.2999,3.64189-2.81734l.04158-.0293Z" fill="url(#linear-gradient)"/>
    <path id="_Path_2" data-name="&lt;Path&gt;" d="M311.85259,130.29056l.01539-.01588L184.35918,5.0433A15.45033,15.45033,0,0,0,157.4893,15.484v.00016a15.41285,15.41285,0,0,0,4.27962,10.64l-.007.00671.05926.05075a15.64713,15.64713,0,0,0,2.3518,2.01394L298.91658,143.5878l.02685-.02766a9.25681,9.25681,0,0,0,12.90917-13.26958Z" fill="url(#linear-gradient-2)"/>
    <path id="_Path_3" data-name="&lt;Path&gt;" d="M188.51552,119.08609c-.18481-.146-78.68493-62.16065-80.30436-63.13087l-.07235-.0568-.00753.01228A22.34779,22.34779,0,0,0,85.0039,94.15633l-.00442.0072.06924.029A22.43327,22.43327,0,0,0,88.88117,96.056c.80685.30153,90.7655,37.62035,90.7655,37.62035l.00868-.01555a8.5905,8.5905,0,0,0,8.86018-14.57472Z" fill="url(#linear-gradient-3)"/>
    <path id="_Path_4" data-name="&lt;Path&gt;" d="M172.97355,0A15.36155,15.36155,0,0,0,163.862,3.00559L84.084,56.67528c-.1542.10542-.313.20314-.46473.31249l-.1064.0717.00557.00786a22.35509,22.35509,0,0,0,26.20651,36.22392l.00065.00082.01244-.01129a22.30153,22.30153,0,0,0,3.58984-3.23526l69.191-62.35781-.02357-.03225a15.46581,15.46581,0,0,0,5.96245-12.1712v-.00016A15.52974,15.52974,0,0,0,172.97355,0Z" fill="url(#linear-gradient-4)"/>
    <g id="_Group_" data-name="&lt;Group&gt;">
      <rect id="_Path_5" data-name="&lt;Path&gt;" x="143.51308" y="74.8253" width="101.91515" height="101.91512"/>
      <rect id="_Path_6" data-name="&lt;Path&gt;" x="152.30382" y="157.63128" width="38.21817" height="6.3697" fill="#fff"/>
      <g id="_Group_2" data-name="&lt;Group&gt;">
        <path id="_Compound_Path_" data-name="&lt;Compound Path&gt;" d="M151.87428,101.66026l2.96616-2.80015a3.36258,3.36258,0,0,0,2.6103,1.5424c1.139,0,1.87474-.783,1.87474-2.32546l0-10.51241h4.57985l0,10.53612a6.17116,6.17116,0,0,1-1.6374,4.6748,6.25892,6.25892,0,0,1-4.55614,1.68479A6.78354,6.78354,0,0,1,151.87428,101.66026Z" fill="#fff"/>
        <path id="_Compound_Path_2" data-name="&lt;Compound Path&gt;" d="M164.97272,87.56465l13.35981,0v3.89176h-8.80367v2.53912H177.502v3.63063h-7.97313v2.634l8.92234,0v3.91545l-13.47848,0Z" fill="#fff"/>
        <path id="_Compound_Path_3" data-name="&lt;Compound Path&gt;" d="M184.35073,91.59882h-4.95957V87.56468l14.54638,0v4.03413h-4.98327l0,12.57684h-4.60354Z" fill="#fff"/>
        <path id="_Compound_Path_4" data-name="&lt;Compound Path&gt;" d="M152.30139,108.05806h8.51892a6.22093,6.22093,0,0,1,4.53244,1.47133,3.73813,3.73813,0,0,1,1.06788,2.70519v.04749a3.84471,3.84471,0,0,1-2.56291,3.70179c2.01711.66448,3.29847,1.80348,3.29847,4.05785v.04749c0,2.84756-2.32556,4.57983-6.28835,4.57982h-8.56649Zm9.5868,5.12575c0-.92553-.73557-1.42383-2.08821-1.42383h-3.01374v2.91875h2.89506c1.4,0,2.20689-.4746,2.20689-1.44753Zm-1.58981,4.7222h-3.51214v3.06113h3.55953c1.42374,0,2.20689-.54579,2.20689-1.5187v-.0474C162.55266,118.4993,161.84078,117.906,160.29838,117.906Z" fill="#fff"/>
        <path id="_Compound_Path_5" data-name="&lt;Compound Path&gt;" d="M167.844,108.05809h7.85461c2.539,0,4.2951.66448,5.41039,1.77977a5.18648,5.18648,0,0,1,1.47113,3.868v.04748a5.26264,5.26264,0,0,1-3.417,5.12563l3.96276,5.79012h-5.29171l-3.34587-5.03075h-2.0408v5.03074H167.844Zm7.66466,7.97331c1.54242,0,2.46793-.75935,2.46793-1.96961v-.0474c0-1.32894-.97291-1.99333-2.49164-1.99333h-3.03741v4.01035Z" fill="#fff"/>
        <path id="_Compound_Path_6" data-name="&lt;Compound Path&gt;" d="M187.96636,107.93953h4.43747l7.07163,16.72957h-4.93588l-1.18655-2.98994h-6.43071l-1.18658,2.98994h-4.8172Zm4.034,10.15641-1.85085-4.69852-1.87474,4.69851Z" fill="#fff"/>
        <path id="_Compound_Path_7" data-name="&lt;Compound Path&gt;" d="M200.02057,108.05814h4.60354l0,16.611h-4.60354Z" fill="#fff"/>
        <path id="_Compound_Path_8" data-name="&lt;Compound Path&gt;" d="M205.76294,108.05815H210.058l6.83411,8.78015,0-8.78014h4.55616l0,16.611h-4.01035l-7.11886-9.11229,0,9.11228h-4.55614Z" fill="#fff"/>
        <path id="_Compound_Path_9" data-name="&lt;Compound Path&gt;" d="M221.73687,122.20121l2.56275-3.06112a8.6055,8.6055,0,0,0,5.38668,1.99334c1.25767,0,1.92214-.42712,1.92214-1.13909V119.947c0-.712-.54579-1.06791-2.82378-1.6137-3.53582-.80676-6.2648-1.80347-6.2648-5.19684v-.04748c0-3.08484,2.44425-5.31551,6.43089-5.3155a10.45472,10.45472,0,0,1,6.83413,2.2069l-2.30169,3.251a8.15421,8.15421,0,0,0-4.65111-1.63731c-1.11529,0-1.6611.45082-1.6611,1.06781v.04748c0,.75937.5695,1.0916,2.89505,1.61361,3.79671.83055,6.16983,2.06453,6.16983,5.17315v.04748c0,3.39337-2.68159,5.41039-6.71564,5.41038A11.64644,11.64644,0,0,1,221.73687,122.20121Z" fill="#fff"/>
      </g>
    </g>
  </g>
</svg>
