<svg fill="none" height="131" viewBox="0 0 121 131" width="121" xmlns="http://www.w3.org/2000/svg"
     xmlns:xlink="http://www.w3.org/1999/xlink">
  <path d="m120.214 68.6c.008-1.3047-.494-2.5609-1.4-3.5l-63.6089-62.41264c-.9055-1.03515-2.0665-1.814746-3.3673-2.261-.0347-.012-.0682-.02612-.103-.03766-.1934-.06323-.3913-.11511-.591-.16327-.0669-.0163-.1318-.0368-.1994-.05133-.1875-.04-.3791-.06738-.5712-.09363-.0788-.0108-.1553-.0274-.2349-.03589-.2738-.0293234-.5489-.04420406-.8242-.04458-.4058.00291665-.8106.037734-1.2109.10413-.0235.00391-.047.00671-.0704.0108-1.1102.183328-2.1661.610095-3.092 1.24969-.0734.04773-.155.08575-.2267.13538l-39.80004 26.8c-.08221.0822-.15106.1063-.17773.1644l-.05009.0356h-.07218c-1.69597 1.2236-3.01238 2.9009-3.797995 4.839-.7856139 1.9382-1.008569 4.0587-.643252 6.1178l.00854.0445c.05176.2859.11011.5696.18372.8498.03052.119.06964.235.104.3528.054.181.10278.3634.16571.5412.837517 2.4331 2.490707 4.5016 4.679277 5.8549.62663.382 1.29849.6844 2 .9.4.2 45.40004 18.8 45.40004 18.8.9576.4341 2.0413.5015 3.0453.1894 1.0041-.3121 1.8586-.982 2.4013-1.8825.5428-.9005.7361-1.969.5431-3.0025-.1929-1.0336-.7586-1.9604-1.5897-2.6044-.0653 0-16.839-13.2133-28.6993-22.5261l21.105-19.0311 57.9182 49.5828-78.8239 43.1744c-1.9705.82-3.6203 2.259-4.7 4.1-.688 1.146-1.1408 2.417-1.3321 3.74s-.1172 2.671.2179 3.965.9246 2.508 1.734 3.572c.8093 1.063 1.8224 1.955 2.9802 2.623 1.6302.952 3.4908 1.436 5.378 1.401 1.8873-.035 3.7285-.589 5.322-1.601.2-.2.5-.3.7-.5l77.9999-54.8c.552-.3925 1.081-.8152 1.586-1.2663.497-.4102.906-.9173 1.2-1.4905.295-.5731.47-1.2003.514-1.8432z"
        fill="#cdcdcd"/>
  <path d="m34.6141 37.3999h51v51h-51z" fill="#000"/>

  <path d="m39.0141 78.8h19.1v3.2001h-19.1z" fill="#fff"/>
  <path d="m38.8141 50.7999 1.5-1.3999c.1394.2253.3296.4149.5553.5538s.4807.2232.7447.2462c.6 0 .9-.4.9-1.2v-5.3h2.3v5.3c.0487.4188.0021.8433-.1364 1.2416-.1386.3983-.3654.7602-.6636 1.0583-.2982.2982-.66.5251-1.0584.6637-.3983.1385-.8228.1851-1.2416.1363-.5564.0736-1.1223-.009-1.6344-.2386-.5122-.2296-.9504-.597-1.2656-1.0614z"
        fill="#fff"/>
  <path d="m45.3141 43.7999h6.7v1.9001h-4.4v1.3h4v1.7999h-4v1.3h4.5v2h-6.7z" fill="#fff"/>
  <path d="m55.0141 45.7999h-2.5v-2h7.3v2h-2.5v6.3h-2.3z" fill="#fff"/>
  <path d="m39.0141 53.9999h4.3c.8231-.029 1.6325.2174 2.3.7001.3423.3839.5216.886.5 1.3999.0121.4135-.1072.8202-.3408 1.1616s-.5694.6-.9592.7385c.4634.0836.8808.3322 1.175.7.2941.3677.4451.8295.425 1.3 0 1.4-1.2 2.2999-3.1 2.2999h-4.3zm4.8 2.6c0-.5-.4-.6999-1-.6999h-1.5v1.5h1.4c.7-.1 1.1-.3001 1.1-.8001zm-.8 2.4001h-1.8v1.5h1.8c.7 0 1.1-.3 1.1-.8s-.4-.7-1.1-.7z"
        fill="#fff"/>
  <path d="m46.8141 53.9999h3.9c.4879-.0465.9801.0095 1.4451.1645s.8924.4056 1.2549.7356c.2432.2499.4313.5482.5519.8756.1205.3273.171.6763.1481 1.0243.0102.554-.1464 1.0982-.4496 1.5619s-.7389.8254-1.2504 1.0382l2 2.8999h-2.6l-1.7-2.5h-1v2.5h-2.3zm3.8 4c.8 0 1.2-.4 1.2-1 0-.7-.5-1-1.2-1h-1.5v2z"
        fill="#fff"/>
  <path d="m56.8141 54h2.2l3.5 8.4h-2.5l-.6-1.5h-3.2l-.6 1.5h-2.4zm2 5-.9-2.3-.9 2.3z" fill="#fff"/>
  <path d="m62.8141 54h2.3v8.2999h-2.3z" fill="#fff"/>
  <path d="m65.7141 54h2.1l3.4 4.4v-4.4h2.3v8.2999h-2l-3.5-4.5v4.6001h-2.3z" fill="#fff"/>
  <path d="m73.7141 61.0999 1.3-1.5c.7417.6619 1.7061 1.0191 2.7 1 .6 0 1-.1999 1-.5999s-.3-.5-1.4-.8c-1.8-.4-3.1-.9001-3.1-2.6001 0-1.5 1.2-2.6999 3.2-2.6999 1.2261-.0355 2.4269.353 3.4 1.0999l-1.2 1.6c-.6799-.4705-1.475-.747-2.3-.8-.6 0-.8.2-.8.5 0 .4.3.5 1.4.8 1.9.4 3.1 1.0001 3.1 2.6001 0 1.7-1.3 2.7-3.4 2.7-.704.0543-1.4116-.0327-2.0814-.256-.6698-.2232-1.2881-.5782-1.8186-1.0441z"
        fill="#fff"/>
</svg>
