<svg xmlns="http://www.w3.org/2000/svg" width="300" height="87" fill="none" viewBox="0 0 300 87">
  <defs>
    <linearGradient id="a" x1=".850001" x2="62.62" y1="62.72" y2="1.81" gradientUnits="userSpaceOnUse">
      <stop stop-color="#FF9419"/>
      <stop offset=".43" stop-color="#FF021D"/>
      <stop offset=".99" stop-color="#E600FF"/>
    </linearGradient>
  </defs>
  <path fill="#000" fill-rule="evenodd" d="M85.9459 42.8363c.3585-.6572.5377-1.4041.5377-2.2505v-19.568h6.6322v20.0659c0 1.892-.4381 3.5849-1.3045 5.0886-.8664 1.5037-2.0614 2.6888-3.585 3.5452-1.5236.8564-3.2364 1.2846-5.1484 1.2846h-5.0787v-6.1044h4.1924c.8465 0 1.5834-.1793 2.2406-.5378.6573-.3585 1.1552-.8663 1.5137-1.5236Zm32.2851-4.0729h-13.892v6.453h15.784v5.7757H97.8759V21.0178h21.8181v5.7758h-15.355v6.3633h13.892v5.6065Zm12.856-11.8005h-8.883l-.01.01v-5.9551h24.368v5.9451h-8.843v24.0193h-6.632V26.9629Zm36.467 8.355c.587.1593 1.155.3684 1.673.6472l.01-.0099c1.224.6473 2.171 1.5535 2.858 2.7285.687 1.1751 1.025 2.4996 1.025 3.9833 0 1.6133-.438 3.0473-1.304 4.302-.877 1.2647-2.101 2.2406-3.675 2.9476-1.583.7071-3.376 1.0556-5.387 1.0556h-13.573V20.9979h13.314c1.912 0 3.625.3386 5.118 1.0058 1.494.6772 2.659 1.6132 3.486 2.8082.826 1.205 1.245 2.5692 1.245 4.0929 0 1.3344-.319 2.5094-.936 3.5351-.618 1.0257-1.484 1.8224-2.58 2.39-.398.1992-.826.3585-1.274.488Zm-6.045-9.2712h-5.885v7.3393h5.885c.817 0 1.534-.1494 2.161-.4581s1.115-.7369 1.464-1.3045c.348-.5677.528-1.2548.528-1.9817 0-.727-.18-1.3643-.528-1.9021-.349-.5477-.837-.9659-1.464-1.2547-.627-.2888-1.344-.4382-2.161-.4382Zm2.649 19.4485c.687-.3087 1.225-.7469 1.603-1.3145.379-.5676.568-1.2249.568-1.9917 0-.7667-.199-1.4439-.578-2.0414-.378-.5975-.926-1.0556-1.613-1.3842-.697-.3286-1.484-.4979-2.37-.4979h-6.144v7.6878h6.144c.906 0 1.693-.1494 2.39-.4581Zm35.063-9.9881c-.916 1.4439-2.201 2.5692-3.864 3.3659h.01c-.319.1493-.657.2788-.996.3983l6.851 11.7208h-7.578l-6.084-10.9142h-4.322v10.9142h-6.642V21.0178h13.125c2.171 0 4.073.3884 5.716 1.1751 1.643.7867 2.917 1.8921 3.814 3.3261.896 1.4339 1.344 3.0472 1.344 4.9592 0 1.9119-.458 3.5849-1.374 5.0289Zm-7.598-1.3145c.687-.3286 1.215-.8166 1.583-1.444v-.0199c.369-.6274.558-1.3643.558-2.2008 0-.8364-.189-1.5734-.558-2.1908-.368-.6174-.896-1.1053-1.583-1.434-.687-.3286-1.494-.4979-2.42-.4979h-5.975v8.2952h5.975c.926 0 1.733-.1692 2.42-.5078Zm11.472 16.7995L213.8 21.0178h7.19l10.964 29.9743h-6.613l-2.27-6.6122h-11.114l-2.121 6.6122h-6.741Zm13.812-22.2068-3.446 10.5756h7.947l-3.685-10.5756-.408-1.922-.408 1.922Zm24.099 22.2068h-6.852V21.0178h6.852v29.9743Zm11.272-29.9743 12.896 20.275v-20.275h6.055v29.9743h-6.533L251.87 30.7172v20.2749h-6.055V21.0178h6.463ZM293.974 34.8c1.165.8465 2.081 1.8921 2.728 3.1369l-.02-.01c.647 1.2548.976 2.619.976 4.1028 0 1.8124-.478 3.4356-1.444 4.8696-.966 1.434-2.3 2.5593-4.023 3.3758-1.713.8166-3.704 1.2249-5.915 1.2249s-4.173-.3983-5.886-1.195c-1.712-.7966-3.057-1.912-4.033-3.336-.985-1.434-1.483-3.0771-1.513-4.9492h6.642c0 .7667.199 1.4539.617 2.0414.409.5975.986 1.0556 1.733 1.3742.747.3187 1.613.478 2.529.478.917 0 1.713-.1394 2.39-.4282.678-.2888 1.205-.6971 1.584-1.2248.378-.5278.567-1.1353.567-1.8025 0-.8365-.249-1.5236-.766-2.0813-.518-.5576-1.215-.946-2.102-1.1551l-5.397-1.1153c-1.414-.2988-2.649-.8365-3.724-1.6033-1.066-.7668-1.892-1.7327-2.48-2.8979-.587-1.1551-.876-2.4596-.876-3.9036 0-1.7825.458-3.3659 1.364-4.76.906-1.3942 2.181-2.4796 3.804-3.2663 1.623-.7867 3.475-1.1751 5.567-1.1751 2.091 0 3.963.3784 5.596 1.1352 1.633.7569 2.918 1.8025 3.834 3.1468.916 1.3344 1.404 2.878 1.444 4.6207h-6.642c0-.6473-.179-1.2149-.528-1.7228-.348-.5079-.836-.8963-1.464-1.1751-.627-.2788-1.364-.4182-2.181-.4182-.816 0-1.533.1294-2.151.3983-.617.2689-1.105.6373-1.443 1.1153-.349.478-.518 1.0357-.518 1.683 0 .707.239 1.3045.707 1.7825.468.478 1.105.8066 1.902.9958l5.098 1.0456c1.514.2888 2.858.8465 4.024 1.6929ZM89.0992 76.6199h-3.36v-2h5.81V75.7c0 1.22-.29 2.3299-.88 3.32-.59.99-1.4 1.7599-2.43 2.3299-1.03.57-2.11.8501-3.45.8501-1.34 0-2.54-.32-3.62-.95-1.08-.6301-1.92-1.5-2.54-2.6-.62-1.11-.93-2.34-.93-3.7 0-1.36.31-2.59.93-3.7.61-1.1 1.46-1.9701 2.54-2.6001 1.08-.6299 2.29-.9499 3.62-.9499 1.06 0 2.04.1899 2.94.57.9.38 1.66.91 2.29 1.59.63.68 1.07 1.4699 1.33 2.3699h-2.67c-.23-.47-.53-.8699-.91-1.2099-.38-.34-.82-.6001-1.33-.78-.51-.18-1.05-.27-1.64-.27-.86 0-1.64.22-2.34.6499-.7.43-1.25 1.02-1.64 1.78-.39.7601-.59 1.6101-.59 2.5601 0 .95.2 1.8.59 2.56.4.7599.94 1.3499 1.64 1.7799.7.44 1.48.6501 2.34.6501.8 0 1.52-.1501 2.17-.45.65-.3 1.16-.72 1.54-1.26.34-.49.53-1.0301.59-1.6201Zm9.28-5.1499c1 0 1.9198.23 2.7398.7.82.4699 1.47 1.1099 1.94 1.93.47.82.71 1.73.71 2.74 0 1.0099-.24 1.92-.71 2.74-.47.82-1.12 1.46-1.94 1.93-.82.47-1.7398.6999-2.7498.6999s-1.92-.2299-2.74-.6999c-.82-.47-1.47-1.11-1.94-1.93-.47-.82-.71-1.7301-.71-2.74 0-1.01.23-1.92.7-2.74.47-.8201 1.12-1.4601 1.94-1.93.83-.47 1.76-.7 2.76-.7Zm1.52 8.21c.4498-.27.7998-.66 1.0398-1.1501v.0101c.25-.4901.37-1.0501.37-1.6901 0-.64-.12-1.21-.37-1.7-.25-.4899-.6-.87-1.0398-1.1499-.45-.28-.95-.4201-1.53-.4201-.58 0-1.09.1401-1.53.4101-.44.2699-.78.6599-1.03 1.1499-.25.4901-.37 1.07-.37 1.7001 0 .63.13 1.1999.37 1.6899.24.4901.58.8801 1.03 1.1501.45.27.96.41 1.53.41.57 0 1.08-.14 1.53-.41Zm8.1098 2.2799h-2.36V67.95h2.36v14.0099Zm10.14-8.735c-.328-.4932-.745-.898-1.26-1.1949-.64-.37-1.38-.56-2.23-.56-.91 0-1.73.23-2.45.69-.72.4599-1.28 1.09-1.69 1.91-.41.8199-.61 1.74-.61 2.77 0 1.0299.2 1.95.61 2.77.41.82.97 1.46 1.69 1.91.72.4599 1.53.6899 2.44.6899.85 0 1.59-.1899 2.23-.5599.52-.3.93-.7101 1.27-1.2101V81.97h2.36V67.96h-2.36v5.2649Zm-1.39 6.4551c.44-.28.78-.66 1.03-1.1501v.0101c.25-.4901.37-1.0601.37-1.7 0-.64-.12-1.21-.37-1.7001-.25-.49-.59-.8699-1.03-1.1499-.44-.2801-.96-.42-1.52-.42s-1.06.1399-1.5.42c-.44.28-.78.6599-1.03 1.1499-.25.4901-.37 1.0601-.37 1.7001 0 .6399.12 1.2099.37 1.7.25.49.59.8799 1.03 1.1499.44.27.93.41 1.5.41s1.08-.14 1.52-.4199Zm22.52-5.21c-.4.65-.97 1.16-1.71 1.52h-.01c-.24.12-.51.2099-.78.2899l3.41 5.6701h-2.86l-3.15-5.43h-2.57v5.43h-2.49V67.9399h5.95c.96 0 1.8.1801 2.53.5301.73.35 1.29.85 1.69 1.5.4.64.6 1.38.6 2.24 0 .86-.21 1.61-.61 2.26Zm-4.36-.04c.49 0 .91-.09 1.27-.27v.01c.36-.18.63-.4401.83-.7701.2-.3299.3-.73.3-1.17 0-.4399-.1-.8199-.3-1.15-.2-.3299-.47-.5799-.83-.7599-.36-.1801-.78-.2701-1.27-.2701h-3.3V74.43h3.3Zm11.66-2.96c1 0 1.9.23 2.69.6799v-.01c.79.46 1.4 1.09 1.84 1.9001.44.81.66 1.7399.66 2.78v.5699h-8.07c.04.4701.14.91.34 1.3.25.4901.59.8801 1.04 1.1501.45.27.95.41 1.51.41.49 0 .94-.1001 1.33-.2901.39-.1899.72-.4599.98-.8099h2.57c-.24.63-.59 1.1799-1.05 1.6299-.46.45-1.02.8001-1.67 1.0501-.65.25-1.38.37-2.17.37-1.01 0-1.92-.23-2.72-.69-.8-.46-1.44-1.1-1.9-1.92-.47-.82-.7-1.77-.7-2.77s.23-1.92.7-2.73c.47-.82 1.11-1.46 1.92-1.92.81-.47 1.7-.7 2.7-.7Zm-2.56 3.39c-.15.3-.24.6199-.3.95h5.61c-.06-.32-.14-.6201-.27-.89-.24-.5-.57-.8901-1-1.17-.43-.28-.93-.4201-1.49-.4201-.56 0-1.07.1401-1.51.4101-.44.2699-.79.64-1.04 1.12Zm14.95 1.06c.54.09 1.01.28 1.42.57v.03c.41.29.72.6499.94 1.0799.22.43.33.9001.33 1.4001 0 .6199-.19 1.18-.56 1.68-.37.5-.87.89-1.52 1.16-.65.27-1.32.41-2.15.41-.83 0-1.57-.1401-2.23-.4001-.66-.2599-1.19-.64-1.58-1.12-.4-.49-.61-1.0399-.65-1.6699h2.36c.04.27.15.5.33.7.18.2.42.35.72.4499.3.1101.65.16 1.04.16.37 0 .7-.0499.99-.16.3-.11.53-.2599.69-.4499.17-.19.25-.42.25-.67 0-.19-.05-.36-.14-.51-.09-.16-.22-.2901-.38-.3901-.17-.11-.36-.18-.57-.21l-2.27-.38c-.55-.09-1.02-.27-1.43-.55-.41-.2799-.73-.6299-.95-1.0399-.23-.41-.34-.8701-.34-1.3601 0-.6099.16-1.1499.49-1.6299.33-.48.79-.84 1.4-1.1201.61-.28 1.31-.4099 2.09-.4099.78 0 1.47.1299 2.09.3799.62.25 1.11.61 1.47 1.0801.37.47.57 1.0099.62 1.64h-2.35c-.04-.26-.15-.48-.31-.68-.16-.2001-.38-.34-.64-.45-.27-.11-.54-.1601-.88-.1601-.34 0-.63.0501-.89.1501-.26.11-.46.25-.6.4399-.14.19-.21.4001-.21.6401 0 .1799.04.3399.13.47.09.13.22.24.39.3299.17.09.39.15.65.2001l2.25.39Zm9.25-4.45c1 0 1.9.23 2.69.6799v-.01c.79.46 1.4 1.09 1.84 1.9001.44.81.66 1.7399.66 2.78v.5699h-8.07c.04.4701.14.91.34 1.3.25.4901.59.8801 1.04 1.1501.45.27.95.41 1.51.41.49 0 .94-.1001 1.33-.2901.39-.1899.72-.4599.98-.8099h2.57c-.24.63-.59 1.1799-1.05 1.6299-.46.45-1.02.8001-1.67 1.0501-.65.25-1.38.37-2.17.37-1.01 0-1.92-.23-2.72-.69-.8-.46-1.44-1.1-1.9-1.92-.47-.82-.7-1.77-.7-2.77s.23-1.92.7-2.73c.47-.82 1.11-1.46 1.92-1.92.81-.47 1.7-.7 2.7-.7Zm-2.56 3.39c-.15.3-.24.6199-.3.95h5.61c-.06-.32-.14-.6201-.27-.89-.24-.5-.57-.8901-1-1.17-.43-.28-.93-.4201-1.49-.4201-.56 0-1.07.1401-1.51.4101-.44.2699-.79.64-1.04 1.12Zm11.96 7.0999h-2.36V67.95h2.36v14.0099Zm4.8 0h-2.36V67.95h2.36v14.0099Zm7.2-10.4899c1 0 1.9.23 2.69.6799v-.01c.79.46 1.4 1.09 1.84 1.9001.44.81.66 1.7399.66 2.78v.5699h-8.07c.04.4701.14.91.34 1.3.25.4901.59.8801 1.04 1.1501.45.27.95.41 1.51.41.49 0 .94-.1001 1.33-.2901.39-.1899.72-.4599.98-.8099h2.57c-.24.63-.59 1.1799-1.05 1.6299-.46.45-1.02.8001-1.67 1.0501-.65.25-1.38.37-2.17.37-1.01 0-1.92-.23-2.72-.69-.8-.46-1.44-1.1-1.9-1.92-.47-.82-.7-1.77-.7-2.77s.23-1.92.7-2.73c.47-.82 1.11-1.46 1.92-1.92.81-.47 1.7-.7 2.7-.7Zm-2.55 3.39c-.15.3-.24.6199-.3.95h5.61c-.06-.32-.14-.6201-.27-.89-.24-.5-.57-.8901-1-1.17-.43-.28-.93-.4201-1.49-.4201-.56 0-1.07.1401-1.51.4101-.44.2699-.79.64-1.04 1.12Zm12.93-2.65c.55-.38 1.18-.5701 1.91-.5701l.01.01h.38V74.03h-.66c-.53 0-.99.1-1.38.29-.39.1899-.69.47-.9.8299-.21.36-.32.79-.32 1.2801v5.54h-2.36V71.72h2.34v1.55c.27-.44.59-.7901.98-1.06Z" clip-rule="evenodd"/>
  <path fill="url(#a)" d="M20.34 3.66 3.66 20.34C1.32 22.68 0 25.86 0 29.18V59c0 2.76 2.24 5 5 5h29.82c3.32 0 6.49-1.32 8.84-3.66l16.68-16.68c2.34-2.34 3.66-5.52 3.66-8.84V5c0-2.76-2.24-5-5-5H29.18c-3.32 0-6.49 1.32-8.84 3.66Z"/>
  <path fill="#000" d="M48 16H8v40h40V16Z"/>
  <path fill="#fff" d="M30 47H13v4h17v-4Z"/>
</svg>
