<svg enable-background="new 0 0 117.9 135.7" height="135.7" viewBox="0 0 117.9 135.7" width="117.9" xmlns="http://www.w3.org/2000/svg" xmlns:xlink="http://www.w3.org/1999/xlink"><linearGradient id="a" gradientUnits="userSpaceOnUse" x1="10.0233" x2="108.6633" y1="128.4315" y2="3.5115"><stop offset="0" stop-color="#ab63a7"/><stop offset=".6405" stop-color="#ca5595"/><stop offset="1" stop-color="#d64d8e"/></linearGradient><linearGradient id="b" gradientUnits="userSpaceOnUse" x1="28.9009" x2="108.8209" y1="47.4146" y2="8.1746"><stop offset="0" stop-color="#ed427c"/><stop offset=".4285" stop-color="#e14885"/><stop offset="1" stop-color="#d64d8e"/></linearGradient><linearGradient id="c" gradientUnits="userSpaceOnUse" x1="20.7339" x2="90.5739" y1="46.5395" y2="121.0595"><stop offset="0" stop-color="#ed427c"/><stop offset=".1083" stop-color="#ee4c77"/><stop offset=".5366" stop-color="#f1685f"/><stop offset=".8448" stop-color="#f27748"/><stop offset="1" stop-color="#f37c3d"/></linearGradient><linearGradient id="d" gradientUnits="userSpaceOnUse" x1="7.9551" x2="95.7951" y1="68.4574" y2="121.7374"><stop offset="0" stop-color="#3fbfef"/><stop offset=".3287" stop-color="#a1aba8"/><stop offset=".6528" stop-color="#d0936f"/><stop offset=".8837" stop-color="#e9834c"/><stop offset="1" stop-color="#f37c3d"/></linearGradient><path d="m116 12.3c1.3-1.4 2-3.2 2-5.2-.1-4-3.5-7.2-7.5-7-2 .1-3.8.9-5 2.3l-102.7 117.3c-1.8 1.7-2.8 4.1-2.8 6.7.1 5.2 4.3 9.4 9.5 9.3 2.9 0 5.4-1.3 7.1-3.4z" fill="url(#a)"/><path d="m117.9 7c-.1-4-3.5-7.1-7.5-7-1.1 0-2.2.3-3.1.8l-85.5 42c-2.2 1-3.7 3.2-3.5 5.8.2 3.3 3 5.8 6.3 5.6.9-.1 1.7-.3 2.4-.7l86.3-39.5c2.8-1.1 4.7-3.8 4.6-7z" fill="url(#b)"/><path d="m93.2 106.8-64.7-62.2c-1.2-1.2-2.9-2-4.7-1.9-3.3.2-5.8 3-5.6 6.3.1 1.3.6 2.5 1.3 3.4l56.3 69.8c2.1 2.9 5.6 4.7 9.4 4.7 6.4 0 11.6-5.3 11.6-11.7 0-3.3-1.4-6.3-3.6-8.4z" fill="url(#c)"/><path d="m90.4 104.9c3.8 1.9-.1-.1 0 0z" fill="#3fbfef"/><path d="m96.8 114.6c.1-3.7-1.8-7.5-6.5-9.8-5.5-2.8-11.1-5.5-16.6-8.3-5.5-2.7-11-5.5-16.4-8.2-5.5-2.7-11-5.5-16.5-8.2-5.5-2.8-11.1-5.6-16.6-8.3-5.4-2.7-17.8-9-17.8-9-.9-.4-1.9-.5-2.9-.3-2.5.6-4 3-3.4 5.5.3 1.2 1 2.1 1.9 2.8 0 0 .1 0 .1.1h.1s1.4.9 2.1 1.5l3.9 2.7c2.5 1.8 5 3.5 7.5 5.3 5.1 3.6 10.2 7.2 15.3 10.8 5 3.5 10 7.1 15 10.6 5.1 3.6 10.1 7.2 15.2 10.8s10.1 7.3 15.2 10.8c.6.4 1.2.9 1.9 1.3.1.1.3.2.4.2 1.9 1.3 4.2 2.1 6.7 2.1 6.4 0 11.6-5.3 11.6-11.7-.2-.3-.2-.5-.2-.7z" fill="url(#d)"/><path d="m25.9 50.6h51v51h-51z"/><g fill="#fff"><path d="m30.3 92.1h19.1v3.2h-19.1z"/><path d="m30.1 64.1 1.5-1.4c.4.5.8.8 1.3.8.6 0 .9-.4.9-1.2v-5.3h2.3v5.3c0 1-.3 1.8-.8 2.3s-1.3.8-2.3.8c-1.4.1-2.3-.5-2.9-1.3z"/><path d="m36.7 57h6.7v2h-4.4v1.3h4v1.8h-4v1.3h4.5v2h-6.7v-8.4z"/><path d="m46.4 59h-2.5v-2h7.3v2h-2.5v6.3h-2.3z"/><path d="m30.3 67.3h4.3c1 0 1.8.3 2.3.7.3.3.5.8.5 1.4 0 1-.5 1.5-1.3 1.9 1 .3 1.7.9 1.7 2 0 1.4-1.2 2.3-3.1 2.3h-4.3v-8.3zm4.8 2.5c0-.5-.4-.7-1-.7h-1.5v1.5h1.4c.7 0 1.1-.2 1.1-.8zm-.8 2.4h-1.8v1.5h1.8c.7 0 1.1-.3 1.1-.8.1-.4-.3-.7-1.1-.7z"/><path d="m38.1 67.3h3.9c1.3 0 2.2.3 2.7.9.5.5.7 1.1.7 1.9 0 1.3-.7 2.1-1.7 2.6l2 2.9h-2.6l-1.7-2.5h-1v2.5h-2.3zm3.8 4c.8 0 1.2-.4 1.2-1 0-.7-.5-1-1.2-1h-1.5v2z"/><path d="m48.2 67.2h2.2l3.5 8.4h-2.5l-.6-1.5h-3.2l-.6 1.5h-2.4zm2 5.1-.9-2.3-.9 2.4h1.8z"/><path d="m54.2 67.3h2.3v8.3h-2.3z"/><path d="m57.1 67.3h2.2l3.4 4.4v-4.4h2.3v8.3h-2l-3.6-4.6v4.6h-2.3z"/><path d="m65.1 74.4 1.3-1.5c.8.7 1.7 1 2.7 1 .6 0 1-.2 1-.6s-.3-.5-1.4-.8c-1.8-.4-3.1-.9-3.1-2.6 0-1.5 1.2-2.7 3.2-2.7 1.4 0 2.5.4 3.4 1.1l-1.2 1.6c-.8-.5-1.6-.8-2.3-.8-.6 0-.8.2-.8.5 0 .4.3.5 1.4.8 1.9.4 3.1 1 3.1 2.6 0 1.7-1.3 2.7-3.4 2.7-1.5 0-2.9-.4-3.9-1.3z"/></g></svg>