<svg xmlns="http://www.w3.org/2000/svg" width="50" height="48" fill="none" viewBox="0 0 50 48">
  <path fill="#000" d="M26.3044 28.4796c1.3425-.8774 3.1528-.5171 4.044.8047.8909 1.3219.5258 3.1048-.8164 3.9824-1.3426.8774-3.1539.5173-4.045-.8047-.891-1.322-.525-3.1049.8174-3.9824Z"/>
  <path fill="#000" d="M16.6338 28.1327c1.0926-.6562.5309 1.2572 1.8496 2.7735.0283.0328.147.1494.1807.1777 1.5398 1.2984 3.4837.7456 2.8174 1.8213-.1725.2783-2.1971 1.5167-4.3028-.5362-2.0838-2.0723-.8284-4.0647-.5449-4.2363Z"/>
  <path fill="#000" d="M16.3035 19.4797c1.3426-.8774 3.1548-.5174 4.0459.8047.8908 1.3219.5239 3.105-.8183 3.9824-1.3425.8772-3.1528.517-4.044-.8047-.8908-1.3219-.5256-3.1048.8164-3.9824Z"/>
  <path fill="#000" d="M22.5977 2.55489c7.122-3.526714 20.1577-3.437306 24.1426.48632 3.93 3.86991 4.4057 16.46739.8847 23.63089-.0332.1412-.0782.2814-.1484.4189-.5219 1.0217-1.6697 3.2807-2.2109 4.1104l-.2149.3174c-1.0863 1.5577-2.4301 2.6697-4.3349 2.7324l-.1377-.002c-1.4517-.0765-3.5445-1.9901-4.462-1.6338-1.6221.7641-.9262 3.272-4.3505 5.6621l-.2334.1514c-2.4544 1.4467-6.017-.3285-6.625-.0146-2.0857 1.3241-2.0629 3.5038-2.7149 5.6679-.2024.6723-1.2605 2.7949-4.7803 3.9024-.2217.0698-.4588-.1069-.4394-.336.055-.6399.4873-1.785 1.0674-3.0058.7656-1.6111 1.7774-3.8027 1.1181-3.878-.6591-.0742-.5886 1.7674-1.6982 2.8604-1.3789 1.3577-2.3326 1.4964-3.2275 1.5654-.1136.0085-.224-.055-.2725-.1543l-.0166-.0439c-.8761-3.2102 4.2763-6.0055 2.1328-6.7852-.7365-.2664-1.8922 4.3406-5.3486 3.3975l-.3408-.1094c-.1145-.0417-.2038-.145-.1973-.2646.1433-2.6086 3.9934-4.0166 3.4277-5.4424-.2211-.5551-.958.1715-1.6846.7715-2.50612 2.0694-5.76148 1.3832-6.25679.4882l-.03906-.0869c-.45716-1.3196 5.95785-3.1924 5.30565-3.7646-1.01548-.8863-2.32897.5107-4.28319 1.0185-1.63416.4247-2.73748.0344-3.69043-.4091l-.39941-.1905c-.28132-.1358-.38733-.4785-.23242-.7441.67332-1.1534 2.33689-1.4513 3.54296-1.7725.45221-.1206 2.68087-.7489 2.32325-1.124-.70039-.7319-2.24371.2759-4.65039.6621-1.84928.2968-2.38974.6446-3.091801.6299l-.061523-.0049c-.299437-.0451-.485585-.3677-.359375-.6494.354928-.7919 1.181549-2.2908 2.665039-3.2187l.30566-.1778c2.24205-1.2065 5.68032.0775 7.51363-2.6338l.1719-.2744c.3337-.5751-1.48967-3.9606.086-6.3076l.163-.2236c2.7437-3.4674 4.7826-2.2751 5.669-4.0977l.083-.1865c.3729-.9326-1.8584-3.0738-1.8203-4.6172.0428-1.70933 1.3639-2.79233 2.8633-3.78027l.6504-.41895c.8361-.53193 2.2002-1.16959 3.2675-1.67187l.9395-.44922Zm13.2099-.15723c-4.4001-.068-9.0314.75915-12.1484 2.30273-1.2543.6212-3.0103 1.37446-3.9844 1.99415-.9124.58044-1.5398 1.0023-1.9697 1.44042-.3283.33473-.413.55051-.4316.73047.0113.03766.038.12036.0996.25489.1332.29095.3262.61846.5918 1.06148.226.3768.5613.9264.792 1.4522.1702.3882.6515 1.5273.1621 2.749-.4008 1.0004-1.0285 1.7072-1.8213 2.1953-.6204.382-1.3864.6269-1.6983.7422-.6928.2562-1.5062.5871-2.5771 1.9404-.2724.3443-.3956.941-.21 2.042.0904.5367.2102.972.3379 1.5235.0539.2324.1265.5563.1602.875.0172.1631.0324.3982.0097.664-.0213.2494-.0884.6857-.3535 1.1426-.462.7961-1.0076 1.3991-1.5918 1.8574-.7204.5653-2.71621 1.019-.7392 2.2598 1.8931 1.1881 3.6839 2.7987 5.2226 4.4131 1.1816 1.2397 2.539 2.7816 3.458 4.2295 1.5299 2.4102 2.3042.2104 3.0596-.6455.3906-.4426.8664-.8585 1.4492-1.2285l.0889-.0577.0947-.0488c.4436-.2291.8583-.281 1.0889-.2969.2504-.017.4738-.0022.6338.0147.3135.0329.6364.1002.8818.1543.5713.126 1.0478.25 1.6299.3467 1.2103.201 1.9398.0974 2.3525-.1905 1.2492-.8718 1.6951-1.6914 2.0371-2.456.139-.3106.4301-1.0455.7217-1.5576.3697-.649.9507-1.3843 1.9434-1.8516l.0752-.0352.0781-.0302c1.1474-.4456 2.2297-.0546 2.6416.1045.5334.2061 1.0856.5087 1.4746.7197.4528.2456.7851.4252 1.082.5508.1381.0583.2223.083.2608.0937.8566-.0531 1.6304-.5491 2.5508-1.9599.4413-.6767 1.4729-2.6938 2.0449-3.8135l.0527-.2217.1192-.2422c1.5343-3.1215 2.2686-7.6375 2.1084-11.9053-.0793-2.1104-.3754-4.06814-.8496-5.67477-.4864-1.64768-1.1016-2.72358-1.6758-3.28906-.5745-.56569-1.6806-1.16455-3.3887-1.62012-1.6628-.44345-3.6879-.69582-5.8643-.72949Z"/>
</svg>
