<svg xmlns="http://www.w3.org/2000/svg" width="50" height="48" fill="none" viewBox="0 0 50 48">
  <path fill="#fff" d="M22.5968 2.55562c7.1219-3.527128 20.1587-3.438589 24.1435.48535 3.93 3.86995 4.4058 16.46723.8848 23.63083-.0333.1414-.0782.2813-.1485.419-.5218 1.0217-1.6707 3.2817-2.2119 4.1113-1.1235 1.7221-2.5171 2.9819-4.5488 3.0488-1.4539.0477-3.6527-2.0035-4.5996-1.6357-1.6227.7639-.9258 3.2727-4.3506 5.6631-2.4554 1.7138-6.2318-.1884-6.8594.1357-2.0853 1.3241-2.0619 3.504-2.7138 5.668-.2022.6719-1.2603 2.7946-4.7803 3.9023-.2218.0699-.4586-.106-.4395-.3349.055-.6401.4872-1.7857 1.0674-3.0069.7656-1.611 1.7775-3.8028 1.1182-3.8779-.6595-.0748-.5883 1.7682-1.6983 2.8613-1.3789 1.3579-2.3325 1.4964-3.2275 1.5655-.1298.0099-.255-.0751-.2891-.1993-.8759-3.2101 4.276-6.0043 2.1329-6.7841-.7603-.2766-1.9671 4.642-5.6905 3.2881-.1143-.0417-.2026-.1453-.1963-.2647.1432-2.6087 3.9934-4.0166 3.4278-5.4424-.2209-.5564-.9587.1712-1.6856.7715-2.58677 2.1359-5.97083 1.3352-6.2949.4004-.45749-1.3199 5.9602-3.1927 5.3057-3.7647-1.01556-.8869-2.32878.5117-4.28324 1.0196-1.86776.4854-3.04179-.0941-4.09082-.6006-.28135-.1358-.38739-.4785-.23242-.7441.6733-1.1534 2.33687-1.4514 3.54297-1.7725.45104-.1203 2.68235-.7489 2.32421-1.124-.70039-.7321-2.24439.2759-4.65136.6621-1.84939.2968-2.38962.6456-3.0918.6308-.334376-.0072-.554497-.3549-.419921-.6552.378728-.845 1.293971-2.494 2.970701-3.3965 2.31434-1.2455 5.90286.1633 7.68558-2.9082.3445-.5937-1.60996-4.1817.249-6.5313 2.8324-3.5796 4.9142-2.1931 5.7519-4.2842.3726-.9327-1.8587-3.0738-1.8203-4.61714.0488-1.95382 1.7676-3.08841 3.5137-4.19922 1.1151-.70936 3.1684-1.60623 4.2061-2.12012Zm8.2949 27.67678c-.9902-1.4685-3.0026-1.8692-4.4942-.8945-1.4916.9749-1.898 2.9568-.9082 4.4257.9901 1.4689 3.0024 1.8694 4.4942.8946 1.4916-.9751 1.8983-2.9569.9082-4.4258Zm-11.7363-.2178c-1.3184-1.5159-.7582-3.4293-1.8497-2.7744-.2826.1697-1.5396 2.1639.545 4.2373 2.1043 2.0514 4.1271.8165 4.3017.5371.6659-1.0754-1.2767-.5237-2.8164-1.8223-.0335-.0281-.1525-.1451-.1806-.1777Zm.8671-10.4853c-.9902-1.4685-3.0025-1.8693-4.4941-.8946-1.4916.975-1.898 2.9569-.9082 4.4258.9901 1.4689 3.0024 1.8694 4.4941.8945 1.4916-.975 1.8983-2.9569.9082-4.4257Z"/>
</svg>
