<svg xmlns="http://www.w3.org/2000/svg" width="64" height="64" fill="none" viewBox="0 0 64 64">
  <defs>
    <linearGradient id="b" x1="64.3912" x2="39.6074" y1="56.3294" y2="2.875" gradientUnits="userSpaceOnUse">
      <stop offset=".1" stop-color="#7256FF"/>
      <stop offset=".59" stop-color="#FF2D90"/>
    </linearGradient>
    <linearGradient id="c" x1="59.6763" x2="1.08001" y1="4.0675" y2="62.6638" gradientUnits="userSpaceOnUse">
      <stop offset=".21" stop-color="#FF2D90"/>
      <stop offset=".7" stop-color="#FF8200"/>
    </linearGradient>
    <clipPath id="a">
      <path fill="#fff" d="M0 0h64v64H0z"/>
    </clipPath>
  </defs>
  <g clip-path="url(#a)">
    <path fill="#7256FF" d="M47.55 58h12.2588c2.3037 0 4.1612-1.8869 4.1243-4.1906l-.1762-11.0431c-.0188-1.1813-.5431-2.2975-1.44-3.0663L24.1588 6.99312C23.4113 6.3525 22.4588 6 21.4744 6H10.125C7.84688 6 6 7.84687 6 10.125v11.0031c0 1.1894.51375 2.3213 1.40875 3.1044L44.8338 56.9794C45.5856 57.6375 46.5506 58 47.55 58Z"/>
    <path fill="url(#b)" d="M49.0131 58h10.8618c2.2781 0 4.125-1.8469 4.125-4.125V41.3094c0-.2-.0144-.4-.0437-.5981L58.508 3.52688C58.2112 1.50125 56.4737 0 54.4268 0H39.0293c-2.2788 0-4.1256 1.8475-4.125 4.12625l.0044 18.50435c0 .4256.0662.8488.1956 1.2538L45.083 55.13c.5463 1.7094 2.135 2.87 3.9294 2.87h.0007Z"/>
    <path fill="url(#c)" d="M4.125 64h34.1275c1.6581 0 3.155-.9931 3.8-2.5206L57.85 24.0581c.2188-.5181.3294-1.0756.3244-1.6381l-.15-18.32875C58.0056 1.82625 56.1644 0 53.8994 0H36.2338c-.8057 0-1.5932.235625-2.2663.678125L1.85938 21.7869C.69875 22.55 0 23.845 0 25.2337V59.875C0 62.1531 1.84688 64 4.125 64Z"/>
    <path fill="#000" d="M52 12H12v40h40V12Z"/>
    <path fill="#fff" fill-rule="evenodd" d="M19.943 31.2445c-1.1681-.675-2.0868-1.6044-2.755-2.7869-.6681-1.1825-1.0025-2.5025-1.0025-3.9606 0-1.4582.3338-2.7782 1.0025-3.9607.6682-1.1825 1.5863-2.1118 2.755-2.7868 1.1682-.675 2.4744-1.0132 3.9175-1.0132 1.4432 0 2.7388.3375 3.9069 1.0132 1.1681.675 2.085 1.6043 2.7494 2.7868.6644 1.1825.9969 2.5025.9969 3.9607 0 1.4581-.3325 2.7781-.9969 3.9606s-1.5813 2.1119-2.7494 2.7869c-.7626.4406-1.5824.7377-2.4594.8909v.0678c0 .2213.0432.4125.1288.5731.0856.1607.2087.2825.37.3644.1606.0819.3519.1231.5737.1231h1.8332v2.165h-2.4119c-.6506 0-1.22-.1268-1.7094-.3806l-.0006.0013c-.4894-.2538-.865-.6132-1.1256-1.0775-.2613-.4644-.3913-1.0113-.3913-1.64l-.0009-.1697c-.9418-.1436-1.8212-.4495-2.631-.9178Zm6.3082-2.2294c.7075-.4463 1.2612-1.065 1.6612-1.8544.4-.7894.6-1.6775.6-2.6637 0-.9863-.2-1.8738-.6-2.6638-.4-.7894-.9537-1.4075-1.6612-1.8544-.7075-.4462-1.5044-.67-2.39-.67-.8857 0-1.6844.2232-2.3957.67-.7112.4469-1.2687 1.065-1.6718 1.8544-.4038.7894-.6057 1.6775-.6057 2.6638 0 .9862.2019 1.8743.6057 2.6637.4037.7894.9612 1.4081 1.6718 1.8544.7113.4469 1.5094.67 2.3957.67.8862 0 1.6831-.2231 2.39-.67Z" clip-rule="evenodd"/>
    <path fill="#fff" d="M32.9937 44.0001h-16v3h16v-3Z"/>
    <path fill="#fff" fill-rule="evenodd" d="M39.7887 16.9938h-5.7132v15.0063h5.7132c1.4218 0 2.6956-.3213 3.8212-.9644 1.125-.6431 2.0056-1.5344 2.6419-2.6744.6356-1.14.9537-2.4275.9537-3.8643 0-1.4369-.3181-2.7244-.9537-3.8644-.6356-1.14-1.5163-2.0313-2.6419-2.6744-1.1256-.6431-2.3994-.9644-3.8212-.9644Zm3.87 10.1557c-.3644.7468-.8825 1.3206-1.5544 1.7206-.6719.4-1.4544.5994-2.3475.5994h-2.755v-9.9469h2.755c.8931 0 1.6756.2 2.3475.6.6719.4006 1.19.9737 1.5544 1.7206.3643.7469.5468 1.6306.5468 2.6531 0 1.0225-.1825 1.9063-.5468 2.6532Z" clip-rule="evenodd"/>
  </g>
</svg>
