<svg xmlns="http://www.w3.org/2000/svg" width="566" height="92" fill="none" viewBox="0 0 566 92">
  <path fill="#000" d="M362.427 70.3973V70.154C362.427 55.9093 373.272 49.3352 388.745 49.3352C394.181 49.2866 399.583 50.1931 404.705 52.0132V50.9168C404.705 43.2463 399.954 38.9852 390.694 38.9852C384.512 38.9918 378.39 40.1907 372.662 42.5163L368.032 28.3933C375.974 24.7501 384.639 22.9597 393.374 23.1575C403.487 23.1575 410.797 25.8355 415.427 30.463C420.3 35.3324 422.493 42.5163 422.493 51.2832V89.1478H404.583V82.0856C400.075 87.0781 393.862 90.3658 384.846 90.3658C372.54 90.3658 362.427 83.3036 362.427 70.3973ZM404.949 66.1362V62.8498C401.226 61.2102 397.198 60.3799 393.131 60.4138C385.211 60.4138 380.338 63.5799 380.338 69.424V69.6674C380.338 74.6598 384.48 77.5812 390.45 77.5812C399.101 77.5812 404.949 72.8334 404.949 66.1362ZM434.78 23.8889H453.299V33.1411C457.564 27.6619 463.046 22.6708 472.427 22.6708C486.438 22.6708 494.602 31.9244 494.602 46.8991V89.1478H476.082V52.7432C476.082 43.9777 471.94 39.4732 464.873 39.4732C457.807 39.4732 453.299 43.9777 453.299 52.7432V89.1478H434.78V23.8889ZM505.227 70.3973V70.154C505.227 55.9093 516.071 49.3352 531.544 49.3352C536.98 49.2865 542.382 50.193 547.505 52.0132V50.9168C547.505 43.2463 542.754 38.9852 533.494 38.9852C527.312 38.9918 521.19 40.1907 515.462 42.5163L510.831 28.3933C518.773 24.7501 527.439 22.9598 536.173 23.1575C546.287 23.1575 553.596 25.8355 558.227 30.463C563.1 35.3324 565.293 42.5163 565.293 51.2832V89.1478H547.383V82.0856C542.875 87.0781 536.662 90.3658 527.646 90.3658C515.34 90.3658 505.227 83.3036 505.227 70.3973ZM547.748 66.1362V62.8498C544.026 61.2101 539.997 60.3797 535.93 60.4138C528.011 60.4138 523.138 63.5799 523.138 69.424V69.6674C523.138 74.6598 527.28 77.5812 533.25 77.5812C541.9 77.5812 547.748 72.8334 547.748 66.1362ZM191.082 91.7042L181.7 83.3036C174.135 88.1332 165.334 90.6704 156.358 90.6092C130.042 90.6092 111.157 71.007 111.157 46.7774V46.5341C111.157 22.3058 130.285 2.45896 156.602 2.45896C182.919 2.45896 201.804 22.0625 201.804 46.2907V46.5341C201.786 55.2631 199.155 63.7869 194.25 71.007L203.022 78.4342L191.082 91.7042ZM167.811 71.007L153.921 59.1971L165.862 45.8041L179.873 58.4657C181.422 54.7649 182.21 50.7895 182.188 46.7774V46.5341C182.188 31.9244 171.466 19.7481 156.358 19.7481C141.251 19.7481 130.773 31.6811 130.773 46.2907V46.534C130.773 61.1451 141.494 73.32 156.602 73.32C160.465 73.4028 164.297 72.6121 167.811 71.007V71.007ZM207.332 56.8826V56.6393C207.332 37.8902 222.44 22.6708 242.786 22.6708C263.011 22.6708 277.997 37.6469 277.997 56.3959V56.6392C277.997 75.3897 262.889 90.6091 242.542 90.6091C222.318 90.6092 207.332 75.6331 207.332 56.8826V56.8826ZM259.721 56.8826V56.6393C259.721 47.0207 252.777 38.6202 242.542 38.6202C231.943 38.6202 225.607 46.7774 225.607 56.3959V56.6393C225.607 66.2578 232.552 74.6598 242.786 74.6598C253.386 74.6598 259.721 66.5012 259.721 56.8826V56.8826ZM284.011 56.6393V56.3959C284.011 34.6024 298.266 22.6709 313.74 22.6709C323.608 22.6709 329.7 27.1753 334.087 32.4111V0.267578H352.606V89.1478H334.087V79.7725C329.578 85.86 323.365 90.3658 313.74 90.3658C298.51 90.3658 284.011 78.4343 284.011 56.6393V56.6393ZM334.33 56.6393V56.3959C334.33 45.5607 327.142 38.3769 318.491 38.3769C309.841 38.3769 302.531 45.439 302.531 56.3959V56.6393C302.531 67.4759 309.841 74.6598 318.491 74.6598C327.142 74.6598 334.33 67.4759 334.33 56.6393V56.6393Z"/>
  <path fill="#000" d="M85 4H0V89H85V4Z"/>
  <path fill="#fff" d="M42.5 73.0625H10.625V78.3749H42.5V73.0625Z"/>
  <path fill="#fff" d="M38.2451 47.3055L34.7478 44.1739C31.9277 45.9746 28.6465 46.9206 25.3006 46.8975C15.4898 46.8975 8.44922 39.5891 8.44922 30.557V30.4663C8.44922 21.4328 15.5805 14.0352 25.3913 14.0352C35.2021 14.0352 42.2427 21.3422 42.2427 30.3757V30.4663C42.2361 33.7203 41.2552 36.8977 39.4264 39.5891L42.6969 42.3581L38.2451 47.3055ZM29.5703 39.5891L24.3921 35.1856L28.8432 30.193L34.0668 34.9136C34.6444 33.5342 34.9379 32.0524 34.9299 30.5569V30.4662C34.9741 29.1729 34.7579 27.8839 34.2942 26.6758C33.8304 25.4676 33.1286 24.365 32.2304 23.4335C31.3321 22.5019 30.2558 21.7604 29.0654 21.2529C27.875 20.7455 26.5947 20.4825 25.3006 20.4795C19.6681 20.4795 15.7619 24.9283 15.7619 30.3756V30.4662C15.7178 31.7595 15.9341 33.0484 16.3979 34.2564C16.8617 35.4645 17.5635 36.5669 18.4618 37.4984C19.36 38.4298 20.4363 39.1712 21.6267 39.6786C22.8171 40.1859 24.0973 40.4488 25.3913 40.4516C26.8315 40.4828 28.2601 40.1879 29.5703 39.5891V39.5891Z"/>
  <path fill="#fff" d="M47.6748 14.5791H59.6543C69.6472 14.5791 76.551 21.4329 76.551 30.3757V30.4664C76.551 39.4079 69.6472 46.3523 59.6543 46.3523H47.6748V14.5791ZM54.6693 20.889V40.0424H59.6543C65.3775 40.0424 69.2383 36.1856 69.2383 30.557V30.4664C69.3028 29.1911 69.0989 27.9164 68.64 26.7248C68.1811 25.5332 67.4773 24.4511 66.574 23.5485C65.6708 22.6459 64.5882 21.9428 63.3963 21.4847C62.2043 21.0266 60.9296 20.8237 59.6543 20.889L54.6693 20.889Z"/>
</svg>
