<svg xmlns="http://www.w3.org/2000/svg" width="64" height="64" fill="none" viewBox="0 0 64 64">
  <defs>
    <linearGradient id="a" x1="64.3912" x2="39.6074" y1="56.3294" y2="2.875" gradientUnits="userSpaceOnUse">
      <stop offset=".1" stop-color="#7256FF"/>
      <stop offset=".59" stop-color="#FF2D90"/>
    </linearGradient>
    <linearGradient id="b" x1="59.6763" x2="1.08" y1="4.0675" y2="62.6638" gradientUnits="userSpaceOnUse">
      <stop offset=".21" stop-color="#FF2D90"/>
      <stop offset=".7" stop-color="#FF8200"/>
    </linearGradient>
  </defs>
  <path fill="#7256FF" d="M47.55 58h12.2588c2.3037 0 4.1612-1.8869 4.1243-4.1906l-.1762-11.0431c-.0188-1.1813-.5431-2.2975-1.44-3.0663L24.1588 6.99312C23.4113 6.3525 22.4587 6 21.4744 6H10.125C7.84687 6 6 7.84687 6 10.125v11.0031c0 1.1894.51375 2.3213 1.40875 3.1044L44.8338 56.9794C45.5856 57.6375 46.5506 58 47.55 58Z"/>
  <path fill="url(#a)" d="M49.0131 58h10.8618c2.2781 0 4.125-1.8469 4.125-4.125V41.3094c0-.2-.0144-.4-.0437-.5981L58.508 3.52688C58.2112 1.50125 56.4737 0 54.4268 0H39.0293c-2.2788 0-4.1256 1.8475-4.125 4.12625l.0044 18.50435c0 .4256.0662.8488.1956 1.2538L45.083 55.13c.5463 1.7094 2.135 2.87 3.9294 2.87h.0007Z"/>
  <path fill="url(#b)" d="M4.125 64h34.1275c1.6581 0 3.155-.9931 3.8-2.5206L57.85 24.0581c.2187-.5181.3294-1.0756.3244-1.6381l-.15-18.32875C58.0056 1.82625 56.1644 0 53.8994 0H36.2337c-.8056 0-1.5931.235625-2.2662.678125L1.85938 21.7869C.69875 22.55 0 23.845 0 25.2337V59.875C0 62.1531 1.84687 64 4.125 64Z"/>
  <path fill="#000" d="M52 12H12v40h40V12Z"/>
  <path fill="#fff" d="M33 44H17v3h16v-3Z"/>
  <path fill="#fff" d="M19.9489 31.2425c-1.1681-.675-2.0869-1.6044-2.755-2.7869-.6681-1.1825-1.0025-2.5025-1.0025-3.9606s.3338-2.7781 1.0025-3.9606c.6681-1.1825 1.5863-2.1119 2.755-2.7869 1.1681-.675 2.4744-1.0131 3.9175-1.0131 1.4431 0 2.7388.3375 3.9069 1.0131 1.1681.675 2.085 1.6044 2.7494 2.7869.6643 1.1825.9968 2.5025.9968 3.9606s-.3325 2.7781-.9968 3.9606c-.6644 1.1825-1.5813 2.1119-2.7494 2.7869-1.1681.675-2.4706 1.0131-3.9069 1.0131-1.4362 0-2.7494-.3375-3.9175-1.0131Zm6.3081-2.2294c.7075-.4462 1.2613-1.065 1.6613-1.8543.4-.7894.6-1.6775.6-2.6638 0-.9862-.2-1.8738-.6-2.6638-.4-.7893-.9538-1.4074-1.6613-1.8543-.7075-.4463-1.5043-.67-2.39-.67-.8856 0-1.6843.2231-2.3956.67-.7112.4469-1.2687 1.065-1.6719 1.8543-.4037.7894-.6056 1.6776-.6056 2.6638 0 .9863.2019 1.8744.6056 2.6638.4038.7893.9613 1.4081 1.6719 1.8543.7113.4469 1.5094.67 2.3956.67.8863 0 1.6832-.2231 2.39-.67Zm-2.1593 6.0344c-.4894-.2538-.865-.6131-1.1257-1.0775-.2612-.4644-.3912-1.0113-.3912-1.64l-.0106-1.94h2.7437v1.8113c0 .2212.0431.4124.1288.5731.0856.1606.2087.2825.37.3644.1606.0818.3518.1231.5737.1231h1.8331v2.165h-2.4118c-.6507 0-1.22-.1269-1.7094-.3806l-.0006.0012Z"/>
  <path fill="#fff" d="M34.082 16.9922h5.7132c1.4218 0 2.6956.3212 3.8212.9644 1.1256.6431 2.0063 1.5343 2.6419 2.6743.6356 1.14.9537 2.4275.9537 3.8644 0 1.4369-.3181 2.7244-.9537 3.8644-.6363 1.14-1.5169 2.0312-2.6419 2.6744-1.1256.6431-2.3994.9643-3.8212.9643H34.082V16.9922Zm8.0288 11.8762c.6719-.4 1.19-.9737 1.5544-1.7206.3643-.7469.5468-1.6306.5468-2.6531 0-1.0225-.1825-1.9063-.5468-2.6531-.3644-.7469-.8825-1.32-1.5544-1.7207-.6719-.4-1.4544-.6-2.3475-.6h-2.755v9.9469h2.755c.8931 0 1.6756-.2 2.3475-.6v.0006Z"/>
</svg>
