<svg xmlns="http://www.w3.org/2000/svg" width="128" height="128" fill="none" viewBox="0 0 128 128">
  <defs>
    <linearGradient id="a" x1="128.782" x2="79.2148" y1="112.659" y2="5.75" gradientUnits="userSpaceOnUse">
      <stop offset=".1" stop-color="#7256FF"/>
      <stop offset=".59" stop-color="#FF2D90"/>
    </linearGradient>
    <linearGradient id="b" x1="119.353" x2="2.16" y1="8.13501" y2="125.328" gradientUnits="userSpaceOnUse">
      <stop offset=".21" stop-color="#FF2D90"/>
      <stop offset=".7" stop-color="#FF8200"/>
    </linearGradient>
  </defs>
  <path fill="#7256FF" d="M95.1 116h24.518c4.607 0 8.322-3.774 8.248-8.381l-.352-22.0865c-.038-2.3625-1.086-4.595-2.88-6.1325L48.3175 13.9862C46.8225 12.705 44.9175 12 42.9487 12H20.25C15.6937 12 12 15.6937 12 20.25v22.0062c0 2.3788 1.0275 4.6426 2.8175 6.2088l74.85 65.494C91.1713 115.275 93.1012 116 95.1 116Z"/>
  <path fill="url(#a)" d="M98.0261 116H119.75c4.556 0 8.25-3.694 8.25-8.25V82.6188c0-.4-.029-.8-.088-1.1963L117.016 7.05375C116.422 3.0025 112.947 0 108.854 0H78.0586c-4.5575 0-8.2513 3.695-8.25 8.2525l.0087 37.0087c0 .8513.1325 1.6975.3913 2.5075L90.1661 110.26c1.0925 3.419 4.27 5.74 7.8587 5.74h.0013Z"/>
  <path fill="url(#b)" d="M8.25 128h68.255c3.3162 0 6.31-1.986 7.6-5.041L115.7 48.1162c.437-1.0362.659-2.1512.649-3.2762l-.3-36.6575c-.038-4.53-3.72-8.1825-8.25-8.1825H72.4675c-1.6113 0-3.1863.47125-4.5325 1.35625L3.71875 43.5737C1.3975 45.1 0 47.69 0 50.4675V119.75c0 4.556 3.69375 8.25 8.25 8.25Z"/>
  <path fill="#000" d="M104 24H24v80h80V24Z"/>
  <path fill="#fff" d="M66 88H34v6h32v-6Z"/>
  <path fill="#fff" d="M39.8978 62.485c-2.3362-1.35-4.1737-3.2087-5.51-5.5737-1.3362-2.365-2.005-5.005-2.005-7.9213 0-2.9162.6675-5.5563 2.005-7.9213 1.3363-2.365 3.1725-4.2237 5.51-5.5737 2.3363-1.35 4.9488-2.0262 7.835-2.0262 2.8863 0 5.4775.6749 7.8138 2.0262 2.3362 1.35 4.17 3.2087 5.4987 5.5737 1.3288 2.365 1.9938 5.0051 1.9938 7.9213 0 2.9163-.665 5.5563-1.9938 7.9213-1.3287 2.365-3.1625 4.2237-5.4987 5.5737-2.3363 1.35-4.9413 2.0262-7.8138 2.0262-2.8725 0-5.4987-.6749-7.835-2.0262Zm12.6163-4.4588c1.415-.8925 2.5225-2.1299 3.3225-3.7087.8-1.5787 1.2-3.355 1.2-5.3275 0-1.9725-.4-3.7475-1.2-5.3275-.8-1.5788-1.9075-2.815-3.3225-3.7087-1.415-.8925-3.0088-1.34-4.78-1.34-1.7713 0-3.3688.4462-4.7913 1.34-1.4225.8937-2.5375 2.1299-3.3437 3.7087-.8075 1.5787-1.2113 3.355-1.2113 5.3275 0 1.9725.4038 3.7488 1.2113 5.3275.8075 1.5788 1.9225 2.8162 3.3437 3.7087 1.4225.8938 3.0188 1.34 4.7913 1.34 1.7725 0 3.3662-.4462 4.78-1.34ZM48.1953 70.095c-.9787-.5075-1.73-1.2263-2.2512-2.155-.5225-.9288-.7825-2.0225-.7825-3.28l-.0213-3.88h5.4875v3.6225c0 .4425.0863.825.2575 1.1462.1713.3213.4175.5651.74.7288.3213.1638.7038.2462 1.1475.2462h3.6663v4.33h-4.8238c-1.3012 0-2.44-.2537-3.4187-.7612l-.0013.0025Z"/>
  <path fill="#fff" d="M68.1621 33.9844h11.4263c2.8437 0 5.3912.6425 7.6425 1.9287 2.2512 1.2863 4.0125 3.0688 5.2837 5.3488 1.2713 2.28 1.9075 4.855 1.9075 7.7287 0 2.8738-.6362 5.4488-1.9075 7.7288-1.2725 2.28-3.0337 4.0625-5.2837 5.3487-2.2513 1.2863-4.7988 1.9288-7.6425 1.9288H68.1621V33.9844Zm16.0575 23.7525c1.3438-.8 2.38-1.9475 3.1088-3.4413.7287-1.4937 1.0937-3.2612 1.0937-5.3062 0-2.045-.365-3.8125-1.0937-5.3063-.7288-1.4937-1.765-2.64-3.1088-3.4412-1.3437-.8-2.9087-1.2-4.695-1.2h-5.51v19.8937h5.51c1.7863 0 3.3513-.4 4.695-1.2v.0013Z"/>
</svg>
