<svg xmlns="http://www.w3.org/2000/svg" width="70" height="70"><defs><linearGradient id="a" gradientUnits="userSpaceOnUse" x1="-7.922" y1="314.094" x2="318.248" y2="267.207" gradientTransform="scale(.175)"><stop offset=".176" stop-color="#fc7a26"/><stop offset=".634" stop-color="#ff318c"/></linearGradient><linearGradient id="b" gradientUnits="userSpaceOnUse" x1="-55.552" y1="-4.894" x2="408.575" y2="339.825" gradientTransform="scale(.175)"><stop offset="0" stop-color="#ff318c"/><stop offset=".399" stop-color="#b544c6"/><stop offset=".874" stop-color="#ff318c"/></linearGradient><linearGradient id="c" gradientUnits="userSpaceOnUse" x1="-109.388" y1="147.927" x2="405.021" y2="27.358" gradientTransform="scale(.175)"><stop offset="0" stop-color="#ff318c"/><stop offset=".2" stop-color="#d73bab"/><stop offset=".515" stop-color="#9d4ad8"/><stop offset=".748" stop-color="#7953f4"/><stop offset=".872" stop-color="#6b57ff"/></linearGradient></defs><path d="M46.984 30.496L13.312 37.54c-.87.145-1.742.29-2.613.582-2.683.797-5.004 2.395-6.746 4.645-10.086 13.07.727 30.207 16.18 26.793l37.008-5.371c3.922-.872 7.257-3.196 9.507-6.536 9.579-14.304-2.832-32.093-19.664-27.156zm0 0" fill="url(#a)"/><path d="M28.477 4.43C24.344.652 18.247-1.16 11.352.797a14.33 14.33 0 00-7.184 5.012c-6.895 8.93-4.57 19.675 2.324 25.195l36.863 30.785c3.7 2.469 8.489 3.559 13.786 2.398 3.918-.87 7.257-3.195 9.507-6.535 5.66-8.496 3.63-18.297-2.539-23.742zm0 0" fill="url(#b)"/><path d="M16.07.074c-1.812.145-3.41.363-4.715.797-2.832.8-5.37 2.543-7.187 4.938-10.738 13.941.8 32.093 17.2 28.46l44.12-16.624c1.305-.29 2.395-1.016 3.117-2.18 2.758-4.137-.07-9.149-4.57-9.149L17.883 0c-.653 0-1.23 0-1.813.074zm0 0" fill="url(#c)"/><path d="M56.777 13.215H13.238V56.78h43.54zm0 0"/><path d="M35.008 48.574H18.684v2.758h16.324zm-2.176-13.14l-1.812-1.598c-1.38.871-3.047 1.379-4.864 1.379-5.004 0-8.633-3.774-8.633-8.348v-.074c0-4.648 3.63-8.422 8.707-8.422 5.079 0 8.637 3.774 8.637 8.348v.074c0 1.742-.512 3.34-1.453 4.648l1.668 1.45zm-4.426-3.922l-2.683-2.25 2.25-2.543 2.683 2.398c.29-.656.438-1.453.438-2.25v-.074c0-2.758-2.035-5.156-4.938-5.156-2.902 0-4.86 2.25-4.86 5.082v.074c0 2.758 2.032 5.156 4.934 5.156.797 0 1.524-.144 2.176-.437zm9.29-12.852h6.167c5.153 0 8.637 3.485 8.637 8.133v.074c0 4.574-3.559 8.13-8.637 8.13h-6.168zm3.554 3.195v9.875h2.54c2.901 0 4.937-1.96 4.937-4.863v-.074c0-2.906-1.961-4.938-4.938-4.938zm0 0" fill="#edeaea"/></svg>
