<svg xmlns="http://www.w3.org/2000/svg" width="70" height="70" fill="none" viewBox="0 0 70 70">
  <defs>
    <linearGradient id="a" x1="-1.35474" x2="55.7103" y1="54.9709" y2="46.7715" gradientUnits="userSpaceOnUse">
      <stop offset="0.176" stop-color="#FC7A26"/>
      <stop offset="0.634" stop-color="#FF318C"/>
    </linearGradient>
    <linearGradient id="b" x1="-9.74175" x2="71.4932" y1="-0.856424" y2="59.5117" gradientUnits="userSpaceOnUse">
      <stop stop-color="#FF318C"/>
      <stop offset="0.399" stop-color="#B544C6"/>
      <stop offset="0.874" stop-color="#FF318C"/>
    </linearGradient>
    <linearGradient id="c" x1="-19.2103" x2="71.0984" y1="25.8872" y2="4.64492" gradientUnits="userSpaceOnUse">
      <stop stop-color="#FF318C"/>
      <stop offset="0.2" stop-color="#D73BAB"/>
      <stop offset="0.515" stop-color="#9D4AD8"/>
      <stop offset="0.748" stop-color="#7953F4"/>
      <stop offset="0.872" stop-color="#6B57FF"/>
    </linearGradient>
  </defs>
  <path fill="url(#a)" d="M47.0024 30.496L13.3397 37.5413C12.4699 37.6863 11.5981 37.8313 10.7274 38.1234C8.04512 38.9205 5.72476 40.5188 3.98324 42.7692C-6.09998 55.8416 4.30519 72.9382 20.1588 69.5671L56 64.4243C61.2687 63.3383 64.4116 60.9985 66.661 57.6579C76.2374 43.3513 63.8298 25.5581 47.0024 30.496Z"/>
  <path fill="url(#b)" d="M28.4776 4.43003C24.3424 0.652025 18.2421 -1.15997 11.3433 0.797025C8.48266 1.6769 5.96923 3.42947 4.15541 5.80903C-2.74334 14.739 -0.417079 25.484 6.48068 31.004L43.3637 61.789C47.0658 64.258 51.8574 65.348 57.1573 64.187C61.0774 63.317 64.4182 60.992 66.6694 57.652C72.3325 49.156 70.3014 39.355 64.129 33.91L28.4776 4.43003Z"/>
  <path fill="url(#c)" d="M16.1281 0.074C14.3096 0.219 12.7059 0.437 11.3963 0.871C8.55417 1.671 6.00713 3.414 4.18365 5.809C-6.59261 19.75 4.9865 37.902 21.4449 34.269L65.7814 17.688C67.0799 17.1571 68.1257 16.629 68.8503 15.465C71.6181 11.328 69.0794 6.78882 64.5298 6.28L17.9475 0C17.2922 0 16.7131 0 16.1281 0.074Z"/>
  <path fill="#000" d="M56 14H14V56H56V14Z"/>
  <path fill="#fff" d="M34.4167 48.6499H18.6667V51.3332H34.4167V48.6499Z"/>
  <path fill="#fff" d="M32.7325 35.1917L31.0033 33.6423C29.6091 34.5332 27.9867 35.0012 26.3321 34.9899C21.4812 34.9899 18 31.3738 18 26.9048V26.8599C18 22.3902 21.5261 18.73 26.377 18.73C31.2279 18.73 34.7091 22.3454 34.7091 26.8151V26.8599C34.7059 28.4698 34.2209 30.0419 33.3166 31.3738L34.9337 32.7438L32.7325 35.1917ZM28.4433 31.3738L25.8829 29.195L28.0838 26.7247L30.6666 29.0604C30.9522 28.3779 31.0973 27.6447 31.0934 26.9048V26.8599C31.1154 26.2202 31.0087 25.5826 30.7795 24.985C30.5503 24.3873 30.2034 23.8418 29.7592 23.3809C29.3151 22.92 28.7829 22.553 28.1942 22.3018C27.6054 22.0506 26.9722 21.9203 26.3321 21.9186C23.5472 21.9186 21.6158 24.1198 21.6158 26.8151V26.8599C21.5937 27.4996 21.7005 28.1372 21.9297 28.7347C22.1589 29.3323 22.5059 29.8778 22.95 30.3386C23.3941 30.7995 23.9264 31.1664 24.5151 31.4175C25.1038 31.6687 25.737 31.7989 26.377 31.8006C27.0891 31.816 27.7955 31.6701 28.4433 31.3738V31.3738Z"/>
  <path fill="#fff" d="M37.395 18.999H43.3183C48.2592 18.999 51.6728 22.3902 51.6728 26.815V26.8599C51.6728 31.284 48.2592 34.72 43.3183 34.72H37.395V18.999ZM40.8535 22.1211V31.598H43.3183C46.1481 31.598 48.0571 29.6897 48.0571 26.9047V26.8599C48.0892 26.2291 47.9886 25.5986 47.7618 25.0091C47.535 24.4196 47.1871 23.8843 46.7404 23.4377C46.2938 22.9911 45.7585 22.6431 45.169 22.4163C44.5795 22.1896 43.949 22.089 43.3183 22.1211H40.8535Z"/>
</svg>
