<svg xmlns="http://www.w3.org/2000/svg" width="242" height="64" fill="none" viewBox="0 0 242 64">
  <defs>
    <linearGradient id="a" x1="64.3912" x2="39.6074" y1="56.3294" y2="2.875" gradientUnits="userSpaceOnUse">
      <stop offset=".1" stop-color="#7256FF"/>
      <stop offset=".59" stop-color="#FF2D90"/>
    </linearGradient>
    <linearGradient id="b" x1="59.6763" x2="1.08" y1="4.0675" y2="62.6638" gradientUnits="userSpaceOnUse">
      <stop offset=".21" stop-color="#FF2D90"/>
      <stop offset=".7" stop-color="#FF8200"/>
    </linearGradient>
  </defs>
  <path fill="#000" d="M105.962 18.52c-2.31-1.35-4.9-2.02-7.7698-2.02-2.87 0-5.44.67-7.75 2.02-2.31 1.35-4.13 3.2-5.46 5.56-1.33 2.36-1.99 5-1.99 7.91s.66 5.55 1.99 7.91c1.33 2.36 3.15 4.22 5.46 5.56 1.67.98 3.49 1.6 5.45 1.86v.5c0 1.21.26 2.27.77 3.17.51.9 1.24 1.59 2.19 2.09.95.5 2.0498.74 3.3098.74h4.54V49.8h-3.6c-.47 0-.87-.09-1.2-.26-.33-.17-.58-.42-.76-.76-.18-.34-.27-.74-.27-1.21v-.31c1.82-.3 3.51-.89 5.07-1.8 2.31-1.35 4.13-3.2 5.45-5.56 1.32-2.36 1.98-5 1.98-7.91s-.66-5.55-1.98-7.91c-1.32-2.36-3.14-4.22-5.45-5.56h.02Zm.7 19.01c-.84 1.65-2 2.94-3.48 3.86-1.48.93-3.13 1.39-4.9798 1.39-1.85 0-3.5-.46-4.99-1.39-1.48-.93-2.65-2.21-3.49-3.86-.84-1.65-1.26-3.49-1.26-5.53s.42-3.88 1.26-5.53c.84-1.65 2-2.94 3.49-3.86 1.48-.93 3.15-1.39 4.99-1.39 1.8398 0 3.4998.46 4.9798 1.39 1.48.93 2.64 2.21 3.48 3.86.84 1.65 1.26 3.49 1.26 5.53s-.42 3.88-1.26 5.53Zm26.91-11.48c-1.75-1-3.71-1.5-5.86-1.5-2.15 0-4.13.5-5.9 1.5-1.76 1-3.14 2.37-4.14 4.12-1 1.75-1.5 3.7-1.5 5.85 0 2.15.5 4.11 1.51 5.85 1.01 1.75 2.39 3.12 4.14 4.12 1.75 1 3.71 1.5 5.86 1.5 2.15 0 4.13-.5 5.89-1.5 1.75-1 3.13-2.37 4.14-4.12 1.01-1.75 1.51-3.7 1.51-5.85 0-2.15-.5-4.11-1.51-5.85-1.01-1.74-2.39-3.12-4.14-4.12Zm-.4 13.59c-.52 1.06-1.26 1.88-2.21 2.46-.95.58-2.05.88-3.27.88-1.22 0-2.32-.29-3.26-.88-.95-.58-1.68-1.41-2.2-2.46-.52-1.06-.78-2.26-.78-3.62 0-1.36.26-2.58.78-3.64s1.25-1.88 2.2-2.46c.95-.58 2.04-.88 3.26-.88 1.22 0 2.31.3 3.26.89.95.59 1.69 1.41 2.21 2.46.53 1.05.79 2.26.79 3.63s-.26 2.56-.78 3.62Zm26.17-11.3c-.71-1.08-1.61-1.95-2.71-2.59-1.36-.8-2.95-1.2-4.76-1.2-1.95 0-3.7.49-5.23 1.47-1.53.98-2.74 2.34-3.61 4.09-.87 1.75-1.3 3.72-1.3 5.92 0 2.2.43 4.17 1.3 5.92.87 1.75 2.08 3.11 3.62 4.09s3.28 1.47 5.22 1.47c1.81 0 3.4-.4 4.76-1.2 1.1-.65 2-1.52 2.71-2.59V47h5.05V17.04h-5.05v11.32-.02Zm-.79 11.31c-.53 1.05-1.26 1.87-2.2 2.46-.94.59-2.03.89-3.25.89-1.22 0-2.27-.29-3.21-.88-.94-.58-1.67-1.4-2.19-2.46s-.78-2.27-.78-3.64.26-2.58.78-3.63c.52-1.05 1.25-1.87 2.19-2.46.94-.59 2.01-.89 3.21-.89 1.2 0 2.31.3 3.25.89.94.59 1.68 1.41 2.2 2.46.53 1.05.79 2.26.79 3.63s-.26 2.58-.79 3.63Zm27.35-11.28c-.71-1.09-1.62-1.97-2.73-2.63-1.36-.8-2.95-1.2-4.76-1.2-1.96 0-3.7.49-5.23 1.47-1.53.98-2.74 2.34-3.61 4.09-.87 1.75-1.31 3.72-1.31 5.92 0 2.2.44 4.17 1.31 5.92.87 1.75 2.08 3.11 3.62 4.09s3.28 1.47 5.22 1.47c1.81 0 3.4-.4 4.76-1.2 1.11-.65 2.02-1.54 2.73-2.63v3.31h4.97V25.06h-4.97v3.31Zm-.81 11.28c-.53 1.05-1.26 1.87-2.21 2.46-.94.59-2.03.89-3.25.89-1.22 0-2.27-.29-3.21-.88-.94-.58-1.67-1.4-2.19-2.46s-.78-2.27-.78-3.64.26-2.58.78-3.63c.52-1.05 1.25-1.87 2.19-2.46.94-.59 2.01-.89 3.21-.89 1.2 0 2.31.3 3.25.89.94.59 1.68 1.41 2.21 2.46s.79 2.26.79 3.63-.26 2.58-.79 3.63Zm26.65-14.08c-1.18-.68-2.56-1.03-4.13-1.03-1.68 0-3.15.39-4.4 1.18-1.01.63-1.82 1.49-2.45 2.55v-3.21h-4.9v21.92h5.05V34.29c0-1.03.21-1.94.63-2.75.42-.81 1.02-1.43 1.79-1.88.77-.45 1.66-.67 2.65-.67.93 0 1.73.2 2.4.59.67.39 1.18.96 1.54 1.7.36.74.54 1.64.54 2.7v13.01h5.03V33.21c0-1.8-.33-3.35-.98-4.64-.66-1.3-1.58-2.29-2.76-2.97l-.01-.03Zm25.05-.51v3.31c-.71-1.09-1.62-1.97-2.73-2.63-1.36-.8-2.95-1.2-4.76-1.2-1.95 0-3.7.49-5.23 1.47-1.53.98-2.74 2.34-3.61 4.09-.87 1.75-1.3 3.72-1.3 5.92 0 2.2.43 4.17 1.3 5.92.87 1.75 2.08 3.11 3.62 4.09s3.28 1.47 5.22 1.47c1.81 0 3.4-.4 4.76-1.2 1.11-.65 2.02-1.54 2.73-2.63v3.31h4.96V25.06h-4.96Zm-.81 14.59c-.53 1.05-1.26 1.87-2.2 2.46-.94.59-2.03.89-3.25.89-1.22 0-2.27-.29-3.21-.88-.94-.58-1.67-1.4-2.19-2.46s-.78-2.27-.78-3.64.26-2.58.78-3.63c.52-1.05 1.25-1.87 2.19-2.46.94-.59 2.01-.89 3.21-.89 1.2 0 2.31.3 3.25.89.94.59 1.68 1.41 2.2 2.46.53 1.05.79 2.26.79 3.63s-.26 2.58-.79 3.63Z"/>
  <path fill="#7256FF" d="M47.55 58h12.2588c2.3037 0 4.1612-1.8869 4.1243-4.1906l-.1762-11.0431c-.0188-1.1813-.5431-2.2975-1.44-3.0663L24.1588 6.99312C23.4113 6.3525 22.4587 6 21.4744 6H10.125C7.84687 6 6 7.84687 6 10.125v11.0031c0 1.1894.51375 2.3213 1.40875 3.1044L44.8338 56.9794C45.5856 57.6375 46.5506 58 47.55 58Z"/>
  <path fill="url(#a)" d="M49.0131 58h10.8618c2.2781 0 4.125-1.8469 4.125-4.125V41.3094c0-.2-.0144-.4-.0437-.5981L58.508 3.52688C58.2112 1.50125 56.4737 0 54.4268 0H39.0293c-2.2788 0-4.1256 1.8475-4.125 4.12625l.0044 18.50435c0 .4256.0662.8488.1956 1.2538L45.083 55.13c.5463 1.7094 2.135 2.87 3.9294 2.87h.0007Z"/>
  <path fill="url(#b)" d="M4.125 64h34.1275c1.6581 0 3.155-.9931 3.8-2.5206L57.85 24.0581c.2187-.5181.3294-1.0756.3244-1.6381l-.15-18.32875C58.0056 1.82625 56.1644 0 53.8994 0H36.2337c-.8056 0-1.5931.235625-2.2662.678125L1.85938 21.7869C.69875 22.55 0 23.845 0 25.2337V59.875C0 62.1531 1.84687 64 4.125 64Z"/>
  <path fill="#000" d="M52 12H12v40h40V12Z"/>
  <path fill="#fff" fill-rule="evenodd" d="M19.943 31.2425c-1.1681-.675-2.0868-1.6044-2.755-2.7869-.6681-1.1825-1.0025-2.5025-1.0025-3.9606s.3338-2.7781 1.0025-3.9606c.6682-1.1825 1.5863-2.1119 2.755-2.7869 1.1682-.675 2.4744-1.0131 3.9175-1.0131 1.4432 0 2.7388.3375 3.9069 1.0131 1.1681.675 2.085 1.6044 2.7494 2.7869.6644 1.1825.9969 2.5025.9969 3.9606s-.3325 2.7781-.9969 3.9606-1.5813 2.1119-2.7494 2.7869c-.7626.4407-1.5824.7377-2.4594.8909v.0678c0 .2213.0432.4126.1288.5732.0856.1606.2087.2825.37.3643.1606.0819.3519.1232.5737.1232h1.8332v2.165h-2.4119c-.6506 0-1.22-.1269-1.7094-.3807l-.0006.0013c-.4894-.2538-.865-.6131-1.1256-1.0775-.2613-.4644-.3913-1.0112-.3913-1.64l-.0009-.1697c-.9418-.1436-1.8212-.4495-2.631-.9178Zm6.3082-2.2294c.7075-.4462 1.2612-1.065 1.6612-1.8543.4-.7894.6-1.6775.6-2.6638 0-.9862-.2-1.8737-.6-2.6638-.4-.7893-.9537-1.4075-1.6612-1.8543-.7075-.4463-1.5044-.67-2.39-.67-.8857 0-1.6844.2231-2.3957.67-.7112.4468-1.2687 1.065-1.6718 1.8543-.4038.7894-.6057 1.6776-.6057 2.6638 0 .9863.2019 1.8744.6057 2.6638.4037.7893.9612 1.4081 1.6718 1.8543.7113.4469 1.5094.67 2.3957.67.8862 0 1.6831-.2231 2.39-.67Z" clip-rule="evenodd"/>
  <path fill="#fff" d="M32.9937 43.9981h-16v3h16v-3Z"/>
  <path fill="#fff" fill-rule="evenodd" d="M39.7887 16.9919h-5.7132v15.0062h5.7132c1.4218 0 2.6956-.3212 3.8212-.9643 1.125-.6432 2.0056-1.5344 2.6419-2.6744.6356-1.14.9537-2.4275.9537-3.8644 0-1.4369-.3181-2.7244-.9537-3.8644-.6356-1.14-1.5163-2.0312-2.6419-2.6744-1.1256-.6431-2.3994-.9643-3.8212-.9643Zm3.87 10.1556c-.3644.7469-.8825 1.3206-1.5544 1.7206-.6719.4-1.4544.5994-2.3475.5994h-2.755v-9.9469h2.755c.8931 0 1.6756.2 2.3475.6.6719.4006 1.19.9738 1.5544 1.7206.3643.7469.5468 1.6307.5468 2.6532s-.1825 1.9062-.5468 2.6531Z" clip-rule="evenodd"/>
</svg>
