<svg fill="none" height="86" viewBox="0 0 532 86" width="532" xmlns="http://www.w3.org/2000/svg">
  <path
    d="m340.603 65.8937v-.2286c0-13.3843 10.189-19.5613 24.728-19.5613 5.107-.0457 10.183.806 14.996 2.5162v-1.0301c0-7.2072-4.465-11.2109-13.165-11.2109-5.808.0061-11.561 1.1327-16.943 3.3178l-4.35-13.2699c7.462-3.4232 15.604-5.1055 23.811-4.9196 9.502 0 16.371 2.5163 20.721 6.8642 4.579 4.5753 6.639 11.3253 6.639 19.5626v35.5775h-16.827v-6.6356c-4.236 4.6909-10.074 7.7801-18.546 7.7801-11.562 0-21.064-6.6357-21.064-18.7624zm39.953-4.0037v-3.0879c-3.498-1.5406-7.283-2.3208-11.104-2.2889-7.441 0-12.02 2.9749-12.02 8.466v.2286c0 4.691 3.892 7.4359 9.501 7.4359 8.128-.0001 13.623-4.4611 13.623-10.7537zm28.029-39.6955h17.4v8.6933c4.008-5.1482 9.158-9.8378 17.973-9.8378 13.165 0 20.836 8.6947 20.836 22.7648v39.6968h-17.401v-34.2056c0-8.2361-3.892-12.4685-10.532-12.4685-6.639 0-10.876 4.2324-10.876 12.4685v34.2056h-17.4zm66.192 43.6992v-.2286c0-13.3843 10.189-19.5613 24.728-19.5613 5.107-.0457 10.183.806 14.996 2.5162v-1.0301c0-7.2072-4.464-11.2109-13.165-11.2109-5.808.0062-11.561 1.1327-16.942 3.3178l-4.351-13.2699c7.462-3.4232 15.604-5.1054 23.811-4.9196 9.503 0 16.371 2.5163 20.722 6.8642 4.578 4.5753 6.638 11.3253 6.638 19.5626v35.5775h-16.828v-6.6356c-4.235 4.6909-10.073 7.7801-18.545 7.7801-11.562 0-21.064-6.6357-21.064-18.7624zm39.953-4.0037v-3.0879c-3.498-1.5407-7.283-2.3209-11.105-2.2889-7.441 0-12.019 2.9749-12.019 8.466v.2286c0 4.691 3.892 7.4359 9.501 7.4359 8.128-.0001 13.623-4.4611 13.623-10.7537zm-335.123 24.0236-8.815-7.8931c-7.108 4.5378-15.378 6.9218-23.811 6.8642-24.727 0-42.471-18.4181-42.471-41.1842v-.2286c0-22.7648 17.973-41.41288 42.7-41.41288s42.471 18.41938 42.471 41.18418v.2287c-.016 8.2017-2.488 16.2106-7.098 22.9947l8.243 6.9786zm-21.865-19.447-13.051-11.0966 11.219-12.584 13.165 11.8968c1.456-3.4773 2.196-7.2125 2.175-10.9823v-.2286c0-13.7272-10.074-25.1681-24.269-25.1681s-24.04 11.2122-24.04 24.9394v.2286c0 13.7285 10.074 25.1681 24.269 25.1681 3.629.0777 7.23-.6652 10.532-2.1733zm37.133-13.2713v-.2286c0-17.6166 14.196-31.9167 33.313-31.9167 19.003 0 33.084 14.0715 33.084 31.688v.2287c0 17.6178-14.195 31.918-33.313 31.918-19.003 0-33.084-14.0714-33.084-31.6893zm49.226 0v-.2286c0-9.0376-6.526-16.9307-16.142-16.9307-9.959 0-15.912 7.6645-15.912 16.7021v.2286c0 9.0376 6.525 16.932 16.141 16.932 9.96 0 15.913-7.6658 15.913-16.7033zm22.822-.2286v-.2286c0-20.4772 13.394-31.688 27.933-31.688 9.273 0 14.996 4.2323 19.118 9.1519v-30.202h17.4v83.5116h-17.4v-8.809c-4.236 5.7198-10.074 9.9535-19.118 9.9535-14.31 0-27.933-11.2109-27.933-31.6894zm47.28 0v-.2286c0-10.1808-6.754-16.9307-14.882-16.9307s-14.997 6.6356-14.997 16.9307v.2286c0 10.182 6.869 16.932 14.997 16.932s14.882-6.7499 14.882-16.932z"
    fill="#000000"/>
  <path d="m80 3.43923h-80v79.99997h80z" fill="#000000"/>
  <path d="m40 68.4393h-30v4.9999h30z" fill="#ffffff"/>
  <path
    d="m35.9953 44.1977-3.2916-2.9474c-2.6543 1.6948-5.7424 2.5851-8.8915 2.5634-9.2337 0-15.86011-6.8785-15.86011-15.3793v-.0853c0-8.5021 6.71181-15.4647 15.94551-15.4647 9.2336 0 15.8601 6.8772 15.8601 15.3794v.0853c-.0062 3.0625-.9294 6.053-2.6506 8.5861l3.0781 2.6061zm-8.1646-7.2625-4.8736-4.1444 4.1893-4.699 4.9163 4.443c.5436-1.2984.8199-2.693.8124-4.1005v-.0853c.0416-1.2173-.1619-2.4305-.5983-3.5675-.4365-1.1371-1.0971-2.1748-1.9425-3.0516s-1.8583-1.5747-2.9788-2.0523c-1.1204-.4776-2.3254-.7251-3.5433-.7279-5.3012 0-8.9776 4.1871-8.9776 9.314v.0853c-.0415 1.2172.1621 2.4303.5986 3.5672.4365 1.137 1.0971 2.1746 1.9425 3.0513.8454.8766 1.8583 1.5744 2.9787 2.0519s2.3253.7249 3.5432.7276c1.3555.0293 2.7-.2482 3.9331-.8118z"
    fill="#ffffff"/>
  <path
    d="m44.8703 13.3963h11.2748c9.4051 0 15.9028 6.4507 15.9028 14.8675v.0853c0 8.4155-6.4977 14.9514-15.9028 14.9514h-11.2748zm6.5831 5.9388v18.0267h4.6917c5.3865 0 9.0202-3.6299 9.0202-8.9274v-.0853c.0607-1.2003-.1311-2.4-.5631-3.5215-.4319-1.1215-1.0943-2.14-1.9444-2.9895s-1.869-1.5112-2.9908-1.9424c-1.1219-.4311-2.3217-.6221-3.5219-.5606z"
    fill="#ffffff"/>
</svg>
