<svg enable-background="new 0 0 610.6 108.5" height="108.5" viewBox="0 0 610.6 108.5" width="610.6" xmlns="http://www.w3.org/2000/svg"><path d="m0 3.3h85v85h-85z"/><g fill="#fff"><path d="m28.3 14h5l5.6 8.9 5.6-8.9h5v21.2h-4.6v-13.9l-6 9.1h-.1l-5.9-9v13.8h-4.6z"/><path d="m8 13.9h9.7c2.7 0 4.7.7 6.2 2.2 1.2 1.2 1.8 2.8 1.8 4.8v.1c0 1.7-.4 3.1-1.3 4.2-.8 1.1-1.9 1.9-3.3 2.4l5.2 7.6h-5.5l-4.4-6.5h-3.8v6.5h-4.6zm9.4 10.3c1.2 0 2-.3 2.7-.8.6-.5.9-1.3.9-2.2v-.1c0-1-.3-1.8-1-2.3-.6-.5-1.5-.8-2.7-.8h-4.6v6.1h4.7z"/><path d="m8 72.4h31.9v5.3h-31.9z"/></g><path d="m106.2 3.6h38.8c10.8 0 19.2 3 24.8 8.6 4.7 4.7 7.3 11.4 7.3 19.4v.4c0 13.7-7.4 22.4-18.2 26.4l20.8 30.4h-21.9l-18.2-27.2h-14.7v27.2h-18.7zm37.6 41.4c9.1 0 14.3-4.9 14.3-12v-.2c0-8-5.6-12.2-14.7-12.2h-18.6v24.4z"/><path d="m179.4 65.7v-42.1h18.5v36.3c0 8.7 4.1 13.2 11.2 13.2s11.5-4.5 11.5-13.2v-36.3h18.5v65.1h-18.5v-9.2c-4.3 5.5-9.7 10.4-19.1 10.4-13.9 0-22.1-9.2-22.1-24.2z"/><path d="m261.4 80.2v8.5h-18.4v-88.7h18.5v32.9c4.5-6.1 10.7-10.6 20.3-10.6 15.2 0 29.6 11.9 29.6 33.7v.2c0 21.7-14.2 33.7-29.6 33.7-9.9 0-16-4.5-20.4-9.7zm31.5-23.9v-.3c0-10.8-7.3-18-15.9-18s-15.8 7.2-15.8 18v.2c0 10.8 7.2 18 15.8 18s15.9-7 15.9-17.9z"/><path d="m352.2 23.6h19.2l-25 66.7c-5 13.2-10.3 18.2-21.4 18.2-6.7 0-11.7-1.7-16.4-4.5l6.2-13.4c2.4 1.5 5.5 2.6 7.9 2.6 3.2 0 4.9-1 6.4-4.3l-25.5-65.4h19.6l14.8 44.4z"/><path d="m372.8 3.6h20.2l22.4 36 22.4-36h20.2v85.1h-18.6v-55.5l-23.9 36.3h-.5l-23.7-36v55.2h-18.3v-85.1z"/><path d="m462.1 0h19.4v16.4h-19.4zm.5 23.6h18.5v65.1h-18.5z"/><path d="m485.1 23.6h18.5v9.2c4.3-5.5 9.7-10.4 19.1-10.4 14 0 22.1 9.2 22.1 24.2v42.2h-18.5v-36.4c0-8.7-4.1-13.2-11.2-13.2-7 0-11.5 4.5-11.5 13.2v36.3h-18.5z"/><path d="m546.7 56.5v-.2c0-18.6 13.2-33.9 32.2-33.9 21.7 0 31.7 16.9 31.7 35.4 0 1.5-.1 3.2-.2 4.9h-45.3c1.8 8.4 7.7 12.8 15.9 12.8 6.2 0 10.7-1.9 15.8-6.7l10.6 9.4c-6.1 7.5-14.8 12.2-26.6 12.2-19.6-.2-34.1-14-34.1-33.9zm45.9-5.5c-1.1-8.3-6-13.9-13.7-13.9s-12.6 5.5-14.1 13.9z"/></svg>