<svg enable-background="new 0 0 70 70" height="70" viewBox="0 0 70 70" width="70" xmlns="http://www.w3.org/2000/svg" xmlns:xlink="http://www.w3.org/1999/xlink"><linearGradient id="a" gradientUnits="userSpaceOnUse" x1="49.6092" x2="30.3463" y1="52.5543" y2="7.1627"><stop offset=".172" stop-color="#ff1f51"/><stop offset=".2798" stop-color="#ff3648"/><stop offset=".4681" stop-color="#ff593b"/><stop offset=".6464" stop-color="#ff7231"/><stop offset=".8088" stop-color="#ff812b"/><stop offset=".9409" stop-color="#ff8629"/></linearGradient><linearGradient id="b" gradientUnits="userSpaceOnUse" x1="33.2589" x2="25.1045" y1="12.8867" y2="33.4358"><stop offset=".02150538" stop-color="#9039d0"/><stop offset=".629" stop-color="#ff1f51"/></linearGradient><linearGradient id="c" gradientUnits="userSpaceOnUse" x1=".2898" x2="45.2838" y1="11.2244" y2="68.4203"><stop offset=".1075" stop-color="#9039d0"/><stop offset=".3871" stop-color="#ff1f51"/><stop offset=".629" stop-color="#ff1f51"/><stop offset=".6599" stop-color="#ff3648"/><stop offset=".7139" stop-color="#ff593b"/><stop offset=".765" stop-color="#ff7231"/><stop offset=".8116" stop-color="#ff812b"/><stop offset=".8495" stop-color="#ff8629"/></linearGradient><path d="m58.2 0-20 7.2-15.8-7.2-15.5 38.9 17.8-7.1-.3 19.7 38.1.7 7.5-38.5z" fill="url(#a)"/><path d="m50.8 22.7-25.2-16.5-20.3 12.5 44.5 17.2z" fill="url(#b)"/><path d="m29.1 68.2 26.2-3.5-8.3-16 5.5-6.7.6-4.1-27.5-31.8-25.6 6.3v36.7l14.8 20.9z" fill="url(#c)"/><path d="m13.4 13.4h43.2v43.2h-43.2z"/><g fill="#fff"><path d="m17.5 48.5h16.2v2.7h-16.2z"/><path d="m34.6 19h4.3l4.7 7.6 4.7-7.6h4.3v17.9h-4v-11.7l-5 7.7h-.1l-5-7.6v11.6h-3.9z"/><path d="m17.4 19h8.2c2.3 0 4 .6 5.2 1.8 1 1 1.5 2.4 1.5 4.1v.1c0 1.5-.4 2.6-1.1 3.5s-1.6 1.6-2.8 2l4.4 6.4h-4.6l-3.7-5.5h-3.3v5.5h-3.9v-17.9zm8 8.7c1 0 1.7-.2 2.2-.7s.8-1.1.8-1.8v-.1c0-.9-.3-1.5-.8-1.9s-1.3-.6-2.3-.6h-3.9v5.1z"/></g></svg>