<svg height="70" viewBox="0 0 70 70" width="70" xmlns="http://www.w3.org/2000/svg" xmlns:xlink="http://www.w3.org/1999/xlink"><linearGradient id="a" gradientUnits="userSpaceOnUse" x1="49.60917" x2="30.34633" y1="52.55431" y2="7.16267"><stop offset=".17204" stop-color="#ff1f51"/><stop offset=".2798" stop-color="#ff3648"/><stop offset=".46814" stop-color="#ff593b"/><stop offset=".64641" stop-color="#ff7231"/><stop offset=".80878" stop-color="#ff812b"/><stop offset=".94086" stop-color="#ff8629"/></linearGradient><linearGradient id="b" gradientUnits="userSpaceOnUse" x1="33.25895" x2="25.10455" y1="12.88671" y2="33.43579"><stop offset=".02151" stop-color="#9039d0"/><stop offset=".62903" stop-color="#ff1f51"/></linearGradient><linearGradient id="c" gradientUnits="userSpaceOnUse" x1=".28979" x2="45.28383" y1="11.22444" y2="68.42027"><stop offset=".10753" stop-color="#9039d0"/><stop offset=".3871" stop-color="#ff1f51"/><stop offset=".62903" stop-color="#ff1f51"/><stop offset=".65993" stop-color="#ff3648"/><stop offset=".71393" stop-color="#ff593b"/><stop offset=".76504" stop-color="#ff7231"/><stop offset=".81159" stop-color="#ff812b"/><stop offset=".84946" stop-color="#ff8629"/></linearGradient><path d="m58.215 0-20.032 7.177-15.78-7.177-15.469 38.915 17.776-7.112-.266 19.734 38.007.642 7.549-38.497z" fill="url(#a)"/><path d="m50.808 22.682-25.177-16.522-20.374 12.546 44.571 17.172z" fill="url(#b)"/><path d="m29.137 68.174 26.161-3.483-8.327-16.029 5.523-6.678.572-4.058-27.445-31.821-25.621 6.291.026 36.748 14.73 20.856 14.299-1.815.069-.009z" fill="url(#c)"/><path d="m14 14h42v42h-42z"/><g fill="#fff"><path d="m17.98999 48.125h15.75v2.625h-15.75z"/><path d="m34.612 19.443h4.139l4.589 7.38 4.586-7.38h4.138v17.452h-3.815v-11.391l-4.909 7.453h-.102l-4.86-7.38v11.318h-3.766z"/><path d="m17.93507 19.431h7.96741a6.87888 6.87888 0 0 1 5.07952 1.76746 5.38734 5.38734 0 0 1 1.49347 3.98339v.05047a5.4641 5.4641 0 0 1 -1.03357 3.44812 5.98367 5.98367 0 0 1 -2.70138 1.95465l4.25748 6.22421h-4.481l-3.60715-5.35293h-3.16194l.02172 5.35293h-3.83456zm7.71832 8.465a3.18417 3.18417 0 0 0 2.17883-.672 2.27669 2.27669 0 0 0 .75952-1.793v-.0492a2.2248 2.2248 0 0 0 -.79785-1.86778 3.52216 3.52216 0 0 0 -2.21524-.62217h-3.809v5.00415z"/></g><path d="m37 53h33v17h-33z" fill="#d99e2b"/><path d="m40.05563 66.966h7.19661v-1.72329h-5.50724v-2.94521h4.82041v-1.72325h-4.82041v-2.85131h5.43874v-1.72325h-7.12811z"/><path d="m48.15627 66.966h1.86832l1.06757-2.6268h4.9082l1.05281 2.6268h1.9277l-4.5671-10.95841h-1.6904zm3.60316-4.321 1.77945-4.35241 1.79421 4.35241z"/><path d="m59.87536 66.966h1.62869v-3.52491h1.84026a3.50288 3.50288 0 0 0 3.70715-3.74426v-.03124a3.3623 3.3623 0 0 0 -3.52185-3.6659h-3.65425zm1.62869-5.26364v-3.94818h1.89333a1.80657 1.80657 0 0 1 1.99894 1.95836v.03146a1.86935 1.86935 0 0 1 -1.99894 1.95836z"/><path d="m37 53h33v17h-33z" fill="#d99e2b"/><path d="m40.05563 66.966h7.19661v-1.72329h-5.50724v-2.94521h4.82041v-1.72325h-4.82041v-2.85131h5.43874v-1.72325h-7.12811z"/><path d="m48.15627 66.966h1.86832l1.06757-2.6268h4.9082l1.05281 2.6268h1.9277l-4.5671-10.95841h-1.6904zm3.60316-4.321 1.77945-4.35241 1.79421 4.35241z"/><path d="m59.87536 66.966h1.62869v-3.52491h1.84026a3.50285 3.50285 0 0 0 3.70715-3.74426v-.03124a3.36233 3.36233 0 0 0 -3.52185-3.6659h-3.65425zm1.62869-5.26364v-3.94818h1.89333a1.80658 1.80658 0 0 1 1.99894 1.95836v.03146a1.86938 1.86938 0 0 1 -1.99894 1.95836z"/></svg>