<svg xmlns="http://www.w3.org/2000/svg" width="128" height="128" fill="none" viewBox="0 0 128 128">
  <defs>
    <linearGradient id="a" x1="8.64825" x2="125.841" y1="119.866" y2="2.67489" gradientUnits="userSpaceOnUse">
      <stop offset=".29" stop-color="#FF2358"/>
      <stop offset=".75" stop-color="#7256FF"/>
    </linearGradient>
    <linearGradient id="b" x1="-.781244" x2="48.7866" y1="15.3413" y2="122.251" gradientUnits="userSpaceOnUse">
      <stop offset=".29" stop-color="#FF8100"/>
      <stop offset=".56" stop-color="#FF2358"/>
    </linearGradient>
  </defs>
  <path fill="url(#a)" d="M119.75 0H51.4953c-3.3162 0-6.3099 1.98625-7.5999 5.04125L12.2995 79.8838c-.4375 1.0362-.6588 2.1512-.6488 3.2762l.3 36.657c.0375 4.53 3.72 8.183 8.2499 8.183h35.3309c1.6113 0 3.1863-.471 4.5325-1.356l64.218-42.2178c2.321-1.525 3.718-4.1162 3.718-6.8937V8.25c0-4.55625-3.694-8.25-8.25-8.25Z"/>
  <path fill="url(#b)" d="M29.9747 12H8.25117C3.69371 12 0 15.6937 0 20.25v25.1312c0 .4.02875.8.0875 1.1963l10.8961 74.3705c.5938 4.051 4.0688 7.053 8.1625 7.053h30.7947c4.5574 0 8.2511-3.695 8.2499-8.252l-.0088-37.009c0-.8513-.1325-1.6975-.3912-2.5075L37.8334 17.7412c-1.0925-3.4187-4.27-5.7399-7.8587-5.7399V12Z"/>
  <path fill="#FF8100" d="M32.9016 12H8.38437C3.77692 12 .061952 15.7738.135702 20.3813L.001953 42c.0375 2.3625 1.572487 5.0625 3.366217 6.6l76.31673 65.414c1.495 1.281 3.4 1.986 5.3687 1.986h22.6984c4.556 0 8.25-3.694 8.25-8.25V85.7438c0-2.3788-1.027-4.6425-2.817-6.2088L38.3341 14.0413C36.8303 12.725 34.9004 12 32.9016 12Z"/>
  <path fill="#000" d="M104.001 24H24.002v80h79.999V24Z"/>
  <path fill="#fff" d="M65.9997 88H34v6h31.9997v-6Z"/>
  <path fill="#fff" d="M34.0254 33.9844H46.909c2.1012 0 3.9512.3862 5.5525 1.1575 1.5999.7712 2.8324 1.8575 3.6974 3.2587.865 1.4013 1.2975 3.0225 1.2975 4.8663 0 1.8437-.44 3.4975-1.3187 4.92-.8788 1.4225-2.13 2.5225-3.7512 3.3012-1.6225.7788-3.505 1.1688-5.6487 1.1688h-6.86v11.34h-5.8524V33.9844Zm15.0811 13.2587c.7362-.365 1.3037-.8862 1.7037-1.565.4-.6787.6-1.4687.6-2.3687 0-.9-.2-1.7038-.6-2.3688-.4-.665-.9687-1.1787-1.7037-1.5437-.7362-.365-1.5975-.5463-2.5837-.5463h-6.6462v8.94h6.6462c.9862 0 1.8475-.1825 2.5837-.5462v-.0013Zm-5.2625 3.5275h6.3887l7.8675 13.2275h-6.71L43.844 50.7706Z"/>
  <path fill="#fff" d="M63.2656 33.9844h8.1462l6.1737 19.7012.515 2.5725.45-2.5725 5.9599-19.7012h8.2749v30.0125h-5.7874V42.5806l.0862-1.565-6.9886 22.9813h-4.245l-6.9024-22.8313.0862 1.415v21.4163h-5.7662V33.9844h-.0025Z"/>
  <path fill="#FDB60D" d="M112.377 128H47.623A15.622 15.622 0 0 1 32 112.377V95.623A15.623 15.623 0 0 1 47.623 80h64.754A15.622 15.622 0 0 1 128 95.623v16.754A15.62 15.62 0 0 1 112.377 128Z"/>
  <path fill="#000" d="M49.825 93.512h16.477v4.277H54.6v4.431h10.3v4.275H54.6v4.588h11.86v4.275H49.825V93.512Zm28.398-.154h4.431l9.362 22h-5.024l-1.997-4.899h-9.237l-1.997 4.899h-4.899l9.36-22Zm5.057 12.857-2.904-7.085-2.901 7.085h5.805Zm12.107-12.703h8.926c5.211 0 8.363 3.09 8.363 7.552v.063c0 5.055-3.932 7.678-8.83 7.678h-3.652v6.553h-4.807V93.512ZM104 104.53a3.382 3.382 0 0 0 3.807-3.308v-.063c0-2.152-1.497-3.308-3.901-3.308h-3.712v6.679H104Z"/>
</svg>

