<svg xmlns="http://www.w3.org/2000/svg" width="281" height="64" fill="none" viewBox="0 0 281 64">
  <defs>
    <linearGradient id="a" x1="4.21657" x2="62.9214" y1="60.0186" y2="1.31316" gradientUnits="userSpaceOnUse">
      <stop offset=".29" stop-color="#FF2358"/>
      <stop offset=".75" stop-color="#7256FF"/>
    </linearGradient>
    <linearGradient id="b" x1="-.723242" x2="24.1396" y1="7.62395" y2="61.2495" gradientUnits="userSpaceOnUse">
      <stop offset=".29" stop-color="#FF8100"/>
      <stop offset=".56" stop-color="#FF2358"/>
    </linearGradient>
  </defs>
  <path fill="#fff" d="M102.038 34.21c1.58-.77 2.8-1.85 3.66-3.24.86-1.39 1.29-3 1.29-4.83s-.42-3.41-1.27-4.79c-.85-1.38-2.05-2.45-3.61-3.21-1.56-.76-3.3597-1.13-5.4197-1.13h-12.7v29.96h5.33v-11.6h5.49l6.7297 11.6h6.12l-7.29-12.13c.58-.17 1.15-.37 1.68-.63h-.01Zm-2.9497-3.92c-.76.39-1.67.58-2.71.58h-7.06v-9.35h7.06c1.04 0 1.94.19 2.71.57.76.38 1.3497.92 1.7797 1.62.42.7.63 1.52.63 2.46s-.21 1.79-.63 2.49c-.42.71-1.0097 1.25-1.7797 1.64v-.01Zm26.2897 7.45c0 1.03-.21 1.94-.63 2.75-.42.81-1.02 1.43-1.79 1.88-.77.45-1.66.67-2.65.67-.94 0-1.74-.2-2.41-.59-.66-.39-1.17-.96-1.53-1.7-.36-.74-.54-1.64-.54-2.7V25.04h-5.03v13.78c0 1.8.33 3.35.98 4.64.66 1.3 1.58 2.29 2.76 2.97 1.18.69 2.56 1.03 4.13 1.03 1.68 0 3.15-.39 4.4-1.18 1.01-.63 1.82-1.5 2.45-2.56v3.23h4.9V25.03h-5.05v12.69l.01.02ZM153.108 26c-1.53-.98-3.27-1.47-5.21-1.47-1.81 0-3.4.4-4.77 1.2-1.11.65-2.01 1.53-2.72 2.61V17h-5.05v29.96h5.05v-3.29c.71 1.08 1.61 1.96 2.72 2.61 1.37.8 2.95 1.2 4.75 1.2 1.95 0 3.7-.49 5.23-1.47 1.53-.98 2.74-2.34 3.61-4.09.87-1.75 1.3-3.72 1.3-5.92 0-2.2-.43-4.17-1.3-5.92-.87-1.75-2.07-3.11-3.61-4.09V26Zm-1.05 13.63c-.52 1.05-1.25 1.87-2.19 2.46-.94.59-2.01.89-3.21.89-1.2 0-2.31-.29-3.25-.88-.94-.58-1.68-1.4-2.2-2.46-.53-1.06-.79-2.27-.79-3.64s.26-2.58.79-3.63c.53-1.05 1.26-1.87 2.2-2.46.94-.59 2.03-.89 3.25-.89 1.22 0 2.27.3 3.21.89.94.59 1.67 1.41 2.19 2.46s.78 2.26.78 3.63-.26 2.58-.78 3.63Zm24.04-3.73c0 1.03-.21 1.94-.63 2.75-.42.81-1.02 1.43-1.79 1.88-.77.45-1.66.67-2.65.67-.93 0-1.73-.2-2.4-.59-.67-.39-1.18-.96-1.54-1.7-.36-.74-.54-1.64-.54-2.7V25.04h-5.03v11.92c0 1.8.33 3.34.98 4.63.66 1.29 1.58 2.27 2.76 2.94 1.18.67 2.56 1.01 4.13 1.01 1.68 0 3.15-.39 4.4-1.16.95-.59 1.73-1.37 2.34-2.34l-.04 3.15c0 .9-.18 1.66-.55 2.29-.36.63-.88 1.11-1.56 1.43-.68.32-1.49.49-2.45.49h-7.88v4.39h8.2c1.88 0 3.52-.34 4.92-1.02 1.4-.68 2.48-1.64 3.23-2.88.76-1.24 1.13-2.7 1.13-4.39V25.02h-5.05v10.85l.02.03Zm27.84 2.7-.49 1.67-.49-1.67-9.18-21.59h-6.83v29.96h5.27V25.7l-.06-.99 9.25 22.26h3.94l9.27-22.41-.04 1.13v21.27h5.26V17h-6.91l-8.97 21.59-.02.01Zm20.94-15.86h5.76v-5.01h-5.76v5.01Zm.36 24.22h5.05V25.04h-5.05v21.92Zm25.82-21.4c-1.18-.68-2.56-1.03-4.13-1.03-1.68 0-3.15.39-4.4 1.18-1 .63-1.82 1.49-2.45 2.55v-3.21h-4.9v21.92h5.05V34.28c0-1.03.21-1.94.63-2.75.42-.81 1.02-1.43 1.79-1.88.77-.45 1.65-.67 2.65-.67.93 0 1.73.2 2.4.59.67.39 1.18.96 1.54 1.7.36.74.54 1.64.54 2.7v13.01h5.03V33.2c0-1.8-.33-3.35-.98-4.64-.66-1.3-1.58-2.29-2.76-2.97l-.01-.03Zm29.66 10.43c0-2.23-.47-4.21-1.4-5.94-.93-1.73-2.24-3.08-3.93-4.06-1.68-.97-3.6-1.46-5.76-1.46-2.16 0-4.03.5-5.77 1.49-1.73.99-3.1 2.36-4.1 4.1-1 1.74-1.5 3.69-1.5 5.84s.5 4.17 1.49 5.93c.99 1.75 2.35 3.12 4.07 4.11 1.72.99 3.66 1.48 5.81 1.48 1.7 0 3.25-.26 4.64-.79 1.4-.53 2.59-1.28 3.57-2.25s1.73-2.13 2.25-3.49h-5.5c-.56.74-1.25 1.32-2.1 1.73-.84.41-1.79.62-2.85.62-1.2 0-2.27-.29-3.22-.88-.95-.58-1.69-1.4-2.23-2.45-.43-.83-.68-1.76-.78-2.77h17.29v-1.22l.02.01Zm-17.2-2.17c.13-.72.34-1.4.67-2.02.54-1.02 1.28-1.82 2.23-2.4.95-.58 2.02-.87 3.22-.87 1.2 0 2.26.3 3.18.9.92.6 1.63 1.43 2.13 2.49.28.59.47 1.22.59 1.89h-12.02v.01Z"/>
  <path fill="url(#a)" d="M59.9216 0H25.9533c-1.6291 0-3.1017.971054-3.7434 2.46807L6.14181 39.9587c-.21702.5068-.32931 1.0531-.32931 1.6046v18.364C5.8125 62.1766 7.63592 64 9.88523 64H27.8512c.8046 0 1.5913-.2385 2.2609-.6854l32.0687-21.4033c1.1322-.7552 1.8118-2.0265 1.8118-3.3874l.0017-34.45117C63.9943 1.82342 62.1709 0 59.9216 0Z"/>
  <path fill="url(#b)" d="M14.5134 5.82031H4.06687c-2.24931 0-4.07273 1.82342-4.07273 4.07273V22.9857c0 .1926.013964.3852.040728.576L5.31196 60.5054c.28683 2.0067 2.00494 3.4967 4.032 3.4967H25.017c2.2499 0 4.0733-1.824 4.0727-4.0739l-.0047-18.5384c0-.4376-.0704-.8722-.2088-1.287L18.3773 8.60489c-.5545-1.66283-2.1109-2.78458-3.8639-2.78458Z"/>
  <path fill="#FF8100" d="m15.9418 5.82031-11.87551.00175c-2.24873.00058-4.07215 1.824-4.07215 4.07273V21.4014c0 1.1887.519564 2.3185 1.42196 3.0924L39.577 57.2036c.7383.6324 1.6785.9803 2.6507.9803h11.8755c2.2493 0 4.0728-1.8234 4.0728-4.0727V42.6029c0-1.1887-.5196-2.3186-1.422-3.0924L18.5931 6.80126c-.7383-.63302-1.6785-.98037-2.6513-.98037v-.00058Z"/>
  <path fill="#000" d="M51.9941 12h-40v40h40V12Z"/>
  <path fill="#fff" fill-rule="evenodd" d="m41.8894 17-2.9783 9.8464-.225 1.2857-.2571-1.2857L35.3433 17h-4.0711v15h2.8819V21.2967l-.0431-.7071L37.5611 32h2.1214l3.4926-11.4856-.0425.7823V32h2.8928V17h-4.136Zm-15.6291 8.7536c.8145-.3925 1.439-.943 1.8752-1.6501.4425-.714.6641-1.5359.6641-2.4646 0-.9287-.2181-1.7317-.6538-2.4319-.4287-.7002-1.0429-1.2426-1.843-1.6283-.8001-.3857-1.7248-.5786-2.7751-.5786h-6.4393v14.9994h2.9249v-5.6679h2.5203l3.2337 5.6679h3.3537l-3.5747-6.0094c.0714-.0227.1441-.0435.2167-.0644.1715-.0491.343-.0983.4973-.1721Zm-6.2458-6.3216h3.3215c.493 0 .9212.0924 1.2857.2784.3713.1779.6572.4356.8569.7714.1997.3277.3002.7215.3002 1.1783 0 .4569-.0999.8466-.3002 1.1893-.1997.3363-.4856.5958-.8569.7823-.3645.1779-.7927.268-1.2857.268h-3.3215V19.432Zm-3.0262 24.5681h16v3h-16v-3Z" clip-rule="evenodd"/>
</svg>
