<?xml version="1.0" encoding="utf-8"?>
<!-- Generator: Adobe Illustrator 19.1.0, SVG Export Plug-In . SVG Version: 6.00 Build 0)  -->
<svg version="1.1" id="Layer_1" xmlns="http://www.w3.org/2000/svg" xmlns:xlink="http://www.w3.org/1999/xlink" x="0px" y="0px"
	 width="610.6px" height="108.5px" viewBox="0 0 610.6 108.5" style="enable-background:new 0 0 610.6 108.5;" xml:space="preserve"
	>
<g>
	<g>
		<rect y="3.3" style="fill:#000000;" width="85" height="85"/>
		<polygon style="fill:#FFFFFF;" points="28.3,14 33.3,14 38.9,22.9 44.5,14 49.5,14 49.5,35.2 44.9,35.2 44.9,21.3 38.9,30.4 
			38.8,30.4 32.9,21.4 32.9,35.2 28.3,35.2 		"/>
		<path style="fill:#FFFFFF;" d="M8,13.9h9.7c2.7,0,4.7,0.7,6.2,2.2c1.2,1.2,1.8,2.8,1.8,4.8V21c0,1.7-0.4,3.1-1.3,4.2
			c-0.8,1.1-1.9,1.9-3.3,2.4l5.2,7.6h-5.5l-4.4-6.5h-3.8l0,6.5H8V13.9z M17.4,24.2c1.2,0,2-0.3,2.7-0.8c0.6-0.5,0.9-1.3,0.9-2.2
			v-0.1c0-1-0.3-1.8-1-2.3c-0.6-0.5-1.5-0.8-2.7-0.8h-4.6v6.1H17.4z"/>
		<rect x="8" y="72.4" style="fill:#FFFFFF;" width="31.9" height="5.3"/>
	</g>
	<g>
		<path d="M106.2,3.6H145c10.8,0,19.2,3,24.8,8.6c4.7,4.7,7.3,11.4,7.3,19.4V32c0,13.7-7.4,22.4-18.2,26.4
			l20.8,30.4h-21.9l-18.2-27.2h-14.7v27.2h-18.7V3.6z M143.8,45c9.1,0,14.3-4.9,14.3-12v-0.2c0-8-5.6-12.2-14.7-12.2h-18.6V45H143.8
			z"/>
		<path d="M179.4,65.7V23.6h18.5v36.3c0,8.7,4.1,13.2,11.2,13.2s11.5-4.5,11.5-13.2V23.6h18.5v65.1h-18.5
			v-9.2c-4.3,5.5-9.7,10.4-19.1,10.4C187.6,89.9,179.4,80.7,179.4,65.7z"/>
		<path d="M261.4,80.2v8.5H243V0h18.5v32.9c4.5-6.1,10.7-10.6,20.3-10.6c15.2,0,29.6,11.9,29.6,33.7v0.2
			c0,21.7-14.2,33.7-29.6,33.7C271.9,89.9,265.8,85.4,261.4,80.2z M292.9,56.3V56c0-10.8-7.3-18-15.9-18s-15.8,7.2-15.8,18v0.2
			c0,10.8,7.2,18,15.8,18S292.9,67.2,292.9,56.3z"/>
		<path d="M352.2,23.6h19.2l-25,66.7c-5,13.2-10.3,18.2-21.4,18.2c-6.7,0-11.7-1.7-16.4-4.5l6.2-13.4
			c2.4,1.5,5.5,2.6,7.9,2.6c3.2,0,4.9-1,6.4-4.3l-25.5-65.4h19.6L338,67.9L352.2,23.6z"/>
		<path d="M372.8,3.6H393l22.4,36l22.4-36h20.2v85.1h-18.6V33.2l-23.9,36.3h-0.5l-23.7-36v55.2h-18.3V3.6z"/>
		<path d="M462.1,0h19.4v16.4h-19.4V0z M462.6,23.6h18.5v65.1h-18.5V23.6z"/>
		<path d="M485.1,23.6h18.5v9.2c4.3-5.5,9.7-10.4,19.1-10.4c14,0,22.1,9.2,22.1,24.2v42.2h-18.5V52.4
			c0-8.7-4.1-13.2-11.2-13.2c-7,0-11.5,4.5-11.5,13.2v36.3h-18.5V23.6z"/>
		<path d="M546.7,56.5v-0.2c0-18.6,13.2-33.9,32.2-33.9c21.7,0,31.7,16.9,31.7,35.4c0,1.5-0.1,3.2-0.2,4.9
			h-45.3c1.8,8.4,7.7,12.8,15.9,12.8c6.2,0,10.7-1.9,15.8-6.7l10.6,9.4c-6.1,7.5-14.8,12.2-26.6,12.2
			C561.2,90.2,546.7,76.4,546.7,56.5z M592.6,51c-1.1-8.3-6-13.9-13.7-13.9c-7.7,0-12.6,5.5-14.1,13.9H592.6z"/>
	</g>
</g>
</svg>
