<svg xmlns="http://www.w3.org/2000/svg" width="70" height="70" fill="none" viewBox="0 0 70 70">
  <defs>
    <linearGradient id="a" x1="44.877" x2="36.0318" y1="40.4873" y2="17.2684" gradientUnits="userSpaceOnUse">
      <stop offset="0" stop-color="#FE2857"/>
      <stop offset="0.0562257" stop-color="#FE3052"/>
      <stop offset="0.3252" stop-color="#FD533B"/>
      <stop offset="0.5796" stop-color="#FC6C2A"/>
      <stop offset="0.8114" stop-color="#FC7B20"/>
      <stop offset="1" stop-color="#FC801D"/>
    </linearGradient>
    <linearGradient id="b" x1="28.0205" x2="41.6869" y1="7.25156" y2="19.7791" gradientUnits="userSpaceOnUse">
      <stop offset="0" stop-color="#6B57FF"/>
      <stop offset="1" stop-color="#FE2857"/>
    </linearGradient>
    <linearGradient id="c" x1="0.305666" x2="45.2997" y1="11.212" y2="68.4078" gradientUnits="userSpaceOnUse">
      <stop offset="0.00149909" stop-color="#6B57FF"/>
      <stop offset="0.2967" stop-color="#FE2857"/>
      <stop offset="0.629" stop-color="#FE2857"/>
      <stop offset="0.6414" stop-color="#FE3052"/>
      <stop offset="0.7007" stop-color="#FD533B"/>
      <stop offset="0.7568" stop-color="#FC6C2A"/>
      <stop offset="0.8079" stop-color="#FC7B20"/>
      <stop offset="0.8495" stop-color="#FC801D"/>
    </linearGradient>
  </defs>
  <path fill="url(#a)" d="M58.1875 0L38.2083 7.14583L22.3854 0L17.2084 13.125H13.8542V51.7708L62.4166 52.2083L70 13.7083L58.1875 0Z"/>
  <path fill="url(#b)" d="M57.6042 25.1563L25.6667 6.125L57.6042 43.6771V25.1563Z"/>
  <path fill="url(#c)" d="M29.1666 68.1771L55.2708 64.6771L51.2604 56.875L48.8541 51.7709L51.2604 47.5782L55.2708 39.3751L25.5937 6.125L0 12.3958V49.1458L14.7292 70L29.0208 68.1771H29.0937H29.1666Z"/>
  <g>
    <path fill="#000000" d="M56 14H14V56H56V14Z"/>
    <path fill="#FFFFFF" d="M34.4166 48.6499H18.6666V51.3332H34.4166V48.6499Z"/>
    <path fill="#FFFFFF" d="M34.8601 19.25H38.6353L42.7601 25.8916L46.8848 19.25H50.66V34.98H47.1645V24.7031L42.7601 31.4145H42.6902L38.2857 24.773V34.98H34.8601V19.25Z"/>
    <path fill="#FFFFFF" d="M19.3399 19.25H26.5408C28.5682 19.25 30.0363 19.8093 31.1549 20.858C32.0638 21.7668 32.4832 22.9553 32.4832 24.4234V24.4933C32.4832 25.7517 32.2036 26.8004 31.5744 27.6393C30.9452 28.4084 30.1062 29.0376 29.1275 29.3871L32.9726 34.98H28.9178L25.6319 30.1561H22.7656V34.98H19.27V19.25H19.3399ZM26.331 26.8703C27.17 26.8703 27.8691 26.6606 28.2886 26.2411C28.7779 25.8216 28.9877 25.2624 28.9877 24.6332V24.5632C28.9877 23.7942 28.7779 23.2349 28.2886 22.8854C27.7992 22.5358 27.17 22.3261 26.2611 22.3261H22.8355V26.8703H26.331Z"/>
  </g>
  <g>
    <rect x="37" y="53" width="33" height="17" fill="#d99e2b"/>
    <path fill="#000000" d="M40.05563,66.966h7.19661V65.24271H41.745V62.2975h4.82041V60.57425H41.745V57.72294h5.43874V55.99969H40.05563Z"/>
    <path fill="#000000" d="M48.15627,66.966h1.86832l1.06757-2.6268h4.9082l1.05281,2.6268h1.9277l-4.5671-10.95841h-1.6904Zm3.60316-4.321,1.77945-4.35241L55.33309,62.645Z"/>
    <path fill="#000000" d="M59.87536,66.966h1.62869V63.44109h1.84026a3.50285,3.50285,0,0,0,3.70715-3.74426v-.03124a3.36233,3.36233,0,0,0-3.52185-3.6659H59.87536Zm1.62869-5.26364V57.75418h1.89333a1.80658,1.80658,0,0,1,1.99894,1.95836V59.744a1.86938,1.86938,0,0,1-1.99894,1.95836Z"/>
  </g>
</svg>
