<svg xmlns="http://www.w3.org/2000/svg" xmlns:xlink="http://www.w3.org/1999/xlink" width="70" height="70" viewBox="0 0 70 70">
  <defs>
    <linearGradient id="linear-gradient" x1="49.60917" y1="52.55431" x2="30.34633" y2="7.16267" gradientUnits="userSpaceOnUse">
      <stop offset="0.17204" stop-color="#ff1f51"/>
      <stop offset="0.2798" stop-color="#ff3648"/>
      <stop offset="0.46814" stop-color="#ff593b"/>
      <stop offset="0.64641" stop-color="#ff7231"/>
      <stop offset="0.80878" stop-color="#ff812b"/>
      <stop offset="0.94086" stop-color="#ff8629"/>
    </linearGradient>
    <linearGradient id="linear-gradient-2" x1="33.25895" y1="12.88671" x2="25.10455" y2="33.43579" gradientUnits="userSpaceOnUse">
      <stop offset="0.02151" stop-color="#9039d0"/>
      <stop offset="0.62903" stop-color="#ff1f51"/>
    </linearGradient>
    <linearGradient id="linear-gradient-3" x1="0.28979" y1="11.22444" x2="45.28383" y2="68.42027" gradientUnits="userSpaceOnUse">
      <stop offset="0.10753" stop-color="#9039d0"/>
      <stop offset="0.3871" stop-color="#ff1f51"/>
      <stop offset="0.62903" stop-color="#ff1f51"/>
      <stop offset="0.65993" stop-color="#ff3648"/>
      <stop offset="0.71393" stop-color="#ff593b"/>
      <stop offset="0.76504" stop-color="#ff7231"/>
      <stop offset="0.81159" stop-color="#ff812b"/>
      <stop offset="0.84946" stop-color="#ff8629"/>
    </linearGradient>
  </defs>
  <g>
    <polygon points="58.215 0 38.183 7.177 22.403 0 6.934 38.915 24.71 31.803 24.444 51.537 62.451 52.179 70 13.682 58.215 0" fill="url(#linear-gradient)"/>
    <polygon points="50.808 22.682 25.631 6.16 5.257 18.706 49.828 35.878 50.808 22.682" fill="url(#linear-gradient-2)"/>
    <polygon points="29.137 68.174 55.298 64.691 46.971 48.662 52.494 41.984 53.066 37.926 25.621 6.105 0 12.396 0.026 49.144 14.756 70 29.055 68.185 29.055 68.185 29.124 68.176 29.137 68.174 29.137 68.174" fill="url(#linear-gradient-3)"/>
  </g>
  <g>
    <rect x="14" y="14" width="42" height="42"/>
    <rect x="17.98999" y="48.125" width="15.75" height="2.625" fill="#fff"/>
    <polygon points="34.612 19.443 38.751 19.443 43.34 26.823 47.926 19.443 52.064 19.443 52.064 36.895 48.249 36.895 48.249 25.504 43.34 32.957 43.238 32.957 38.378 25.577 38.378 36.895 34.612 36.895 34.612 19.443" fill="#fff"/>
    <path d="M17.93507,19.431h7.96741A6.87888,6.87888,0,0,1,30.982,21.19846a5.38734,5.38734,0,0,1,1.49347,3.98339v.05047a5.4641,5.4641,0,0,1-1.03357,3.44812,5.98367,5.98367,0,0,1-2.70138,1.95465L32.998,36.8593H28.517l-3.60715-5.35293H21.74791l.02172,5.35293H17.93507Zm7.71832,8.465a3.18417,3.18417,0,0,0,2.17883-.672,2.27669,2.27669,0,0,0,.75952-1.793V25.3818a2.2248,2.2248,0,0,0-.79785-1.86778,3.52216,3.52216,0,0,0-2.21524-.62217h-3.809V27.896Z" fill="#fff"/>
  </g>
  <g>
    <rect x="37" y="53" width="33" height="17" fill="#d99e2b"/>
    <g>
      <path d="M40.05563,66.966h7.19661V65.24271H41.745V62.2975h4.82041V60.57425H41.745V57.72294h5.43874V55.99969H40.05563Z"/>
      <path d="M48.15627,66.966h1.86832l1.06757-2.6268h4.9082l1.05281,2.6268h1.9277l-4.5671-10.95841h-1.6904Zm3.60316-4.321,1.77945-4.35241L55.33309,62.645Z"/>
      <path d="M59.87536,66.966h1.62869V63.44109h1.84026a3.50288,3.50288,0,0,0,3.70715-3.74426v-.03124a3.3623,3.3623,0,0,0-3.52185-3.6659H59.87536Zm1.62869-5.26364V57.75418h1.89333a1.80657,1.80657,0,0,1,1.99894,1.95836V59.744a1.86935,1.86935,0,0,1-1.99894,1.95836Z"/>
    </g>
  </g>
  <g>
    <rect x="37" y="53" width="33" height="17" fill="#d99e2b"/>
    <g>
      <path d="M40.05563,66.966h7.19661V65.24271H41.745V62.2975h4.82041V60.57425H41.745V57.72294h5.43874V55.99969H40.05563Z"/>
      <path d="M48.15627,66.966h1.86832l1.06757-2.6268h4.9082l1.05281,2.6268h1.9277l-4.5671-10.95841h-1.6904Zm3.60316-4.321,1.77945-4.35241L55.33309,62.645Z"/>
      <path d="M59.87536,66.966h1.62869V63.44109h1.84026a3.50285,3.50285,0,0,0,3.70715-3.74426v-.03124a3.36233,3.36233,0,0,0-3.52185-3.6659H59.87536Zm1.62869-5.26364V57.75418h1.89333a1.80658,1.80658,0,0,1,1.99894,1.95836V59.744a1.86938,1.86938,0,0,1-1.99894,1.95836Z"/>
    </g>
  </g>
</svg>
