<svg xmlns="http://www.w3.org/2000/svg" width="659" height="109" fill="none" viewBox="0 0 659 109">
  <path fill="#000" d="M0 4H85V89H0V4Z"/>
  <path fill="#fff" d="M10.543 72.9795H42.4715V78.3009H10.543V72.9795Z"/>
  <path fill="#fff" d="M42.0884 14.5293H49.6803L58.0952 28.067L66.5102 14.5293H74.1021V46.5288H67.1062V25.6404L58.0952 39.3059H57.9108L48.9991 25.7823V46.5288H42.0884V14.5293Z"/>
  <path fill="#fff" d="M10.5713 14.5722H25.1449C26.8365 14.4589 28.5335 14.687 30.1352 15.2428C31.7368 15.7986 33.2103 16.6708 34.4681 17.8076C35.3943 18.7778 36.1145 19.9254 36.5852 21.1815C37.0559 22.4375 37.2674 23.7758 37.2068 25.1157V25.2151C37.3038 27.4743 36.6336 29.6998 35.3053 31.5298C34.0277 33.1714 32.3103 34.4164 30.3528 35.12L38.1576 46.4724H29.9413L23.3427 36.6668H17.5246V46.4866H10.5713V14.5722ZM24.7618 30.054C26.1856 30.1171 27.5835 29.6579 28.6925 28.7627C29.1542 28.3501 29.5204 27.8419 29.7655 27.2733C30.0106 26.7047 30.1287 26.0894 30.1116 25.4705V25.3854C30.1621 24.7416 30.0599 24.0951 29.8133 23.4984C29.5667 22.9016 29.1827 22.3715 28.6925 21.9513C27.5029 21.1336 26.0753 20.7342 24.6341 20.816H17.5672V29.9973L24.7618 30.054Z"/>
  <path fill="#000" d="M117.27 4.12695H156.123C166.922 4.12695 175.294 7.16371 180.885 12.7406C185.611 17.4802 188.165 24.093 188.165 32.1673V32.4086C188.165 46.1308 180.758 54.7444 169.959 58.7461L190.705 89.0995H168.866L150.66 61.9106H135.973V89.0995H117.27V4.12695ZM154.903 45.3929C164.013 45.3929 169.221 40.5397 169.221 33.3735V33.1323C169.221 25.1289 163.644 20.9994 154.534 20.9994H135.973V45.3929H154.903Z"/>
  <path fill="#000" d="M195.502 66.1535V24.0361H213.95V60.3212C213.95 69.0625 218.079 73.5609 225.117 73.5609C232.156 73.5609 236.654 69.0625 236.654 60.3212V24.0361H255.102V89.0995H236.654V79.8473C232.397 85.3106 226.948 90.2773 217.597 90.2773C203.633 90.3057 195.502 81.0819 195.502 66.1535Z"/>
  <path fill="#000" d="M283.639 80.5999V89.1142H265.191V0.480469H283.639V33.374C288.123 27.3147 294.324 22.8163 303.903 22.8163C319.086 22.8163 333.532 34.7221 333.532 56.4477V56.6889C333.532 78.4146 319.342 90.3062 303.903 90.3062C300.001 90.3837 296.136 89.5461 292.617 87.8605C289.098 86.1749 286.023 83.6882 283.639 80.5999V80.5999ZM315.07 56.6889V56.4477C315.07 45.6346 307.791 38.4826 299.177 38.4826C290.564 38.4826 283.397 45.5778 283.397 56.4477V56.6889C283.397 67.4879 290.564 74.6541 299.177 74.6541C307.791 74.6541 315.07 67.6156 315.07 56.6889V56.6889Z"/>
  <path fill="#000" d="M380.162 24.0361H399.39L374.387 90.7314C369.406 103.957 364.07 108.938 353.101 108.938C347.322 109.02 341.638 107.46 336.711 104.439L342.898 91.1003C345.276 92.5904 347.987 93.4635 350.788 93.6404C353.952 93.6404 355.641 92.6755 357.23 89.3833L331.688 24.1071H351.143L365.957 68.4098L380.162 24.0361Z"/>
  <path fill="#000" d="M405.138 4.12695H425.288L447.638 40.114L469.974 4.18372H490.124V89.0995H471.535V33.629L447.638 69.914H447.156L423.514 33.9837V89.0995H405.138V4.12695Z"/>
  <path fill="#000" d="M499.405 0.480469H518.832V16.8705H499.405V0.480469ZM499.901 24.0367H518.349V89.1H499.901V24.0367Z"/>
  <path fill="#000" d="M527.984 24.0368H546.432V33.2606C550.689 27.7973 556.138 22.8164 565.49 22.8164C579.453 22.8164 587.584 32.0402 587.584 46.9402V89.1001H569.137V52.8009C569.137 44.0595 565.007 39.5754 557.969 39.5754C550.93 39.5754 546.432 44.0595 546.432 52.8009V89.1001H527.984V24.0368Z"/>
  <path fill="#000" d="M594.282 56.9303V56.6891C594.282 38.1137 607.508 22.8164 626.452 22.8164C648.178 22.8164 658.125 39.6889 658.125 58.1365C658.125 59.5555 658.012 61.301 657.884 63.0038H612.616C614.433 71.3762 620.265 75.7753 628.51 75.7753C634.697 75.7753 639.195 73.8312 644.289 69.0915L654.819 78.4289C648.759 85.9498 640.018 90.5617 628.24 90.5617C608.728 90.5475 594.282 76.8395 594.282 56.9303V56.9303ZM640.16 51.467C639.067 43.2081 634.214 37.6313 626.452 37.6313C618.69 37.6313 613.823 43.0946 612.375 51.467H640.16Z"/>
</svg>
