<svg xmlns="http://www.w3.org/2000/svg" width="64" height="64" fill="none" viewBox="0 0 64 64">
  <defs>
    <linearGradient id="a" x1="4.32511" x2="62.9208" y1="59.9325" y2="1.33743" gradientUnits="userSpaceOnUse">
      <stop offset=".29" stop-color="#FF2358"/>
      <stop offset=".75" stop-color="#7256FF"/>
    </linearGradient>
    <linearGradient id="b" x1="-.390618" x2="24.393" y1="7.67061" y2="61.1249" gradientUnits="userSpaceOnUse">
      <stop offset=".29" stop-color="#FF8100"/>
      <stop offset=".56" stop-color="#FF2358"/>
    </linearGradient>
  </defs>
  <path fill="url(#a)" d="M59.8753 0H25.7484c-1.658 0-3.1549.993115-3.7999 2.5206L6.1507 39.9415c-.21874.5181-.32937 1.0756-.32437 1.6381l.15 18.3286c.01875 2.2649 1.85996 4.0912 4.12497 4.0912h17.6652c.8056 0 1.5931-.2357 2.2662-.6782l32.1088-21.1085c1.1606-.7625 1.8587-2.0581 1.8587-3.4468V4.12496C64.0002 1.84686 62.1534 0 59.8753 0Z"/>
  <path fill="url(#b)" d="M14.9872 6H4.12554C1.84684 6 0 7.84686 0 10.125v12.5655c0 .2.014375.4.04375.5981l5.44802 37.1846C5.78864 62.4988 7.5261 64 9.57294 64H24.9701c2.2787 0 4.1256-1.8474 4.125-4.1262l-.0044-18.5042c0-.4256-.0663-.8487-.1956-1.2537L18.9165 8.8706c-.5462-1.70936-2.135-2.86997-3.9293-2.86997V6Z"/>
  <path fill="#FF8100" d="M16.4497 6H4.19117C1.88746 6 .03 7.88686.066874 10.1906L0 20.9999c.01875 1.1812.786234 2.5312 1.68309 3.2999L39.8411 57.0064c.7475.6406 1.7.9931 2.6843.9931h11.3492c2.278 0 4.1249-1.8469 4.1249-4.125v-11.003c0-1.1894-.5138-2.3212-1.4087-3.1043L19.1659 7.02062C18.414 6.3625 17.449 6 16.4497 6Z"/>
  <path fill="#000" d="M51.9996 12H12v40h39.9996V12Z"/>
  <path fill="#fff" d="M32.9998 44H17v3h15.9998v-3Z"/>
  <path fill="#fff" d="M17.0117 16.9922h6.4418c1.0506 0 1.9756.1931 2.7763.5787.7999.3857 1.4162.9288 1.8487 1.6294.4325.7006.6487 1.5113.6487 2.4331 0 .9219-.22 1.7488-.6593 2.46-.4394.7113-1.065 1.2613-1.8756 1.6507-.8113.3893-1.7525.5843-2.8244.5843h-3.43v5.67h-2.9262V16.9922Zm7.5406 6.6294c.3681-.1825.6518-.4432.8518-.7825.2-.3394.3-.7344.3-1.1844 0-.45-.1-.8519-.3-1.1844-.2-.3325-.4843-.5894-.8518-.7719-.3682-.1825-.7988-.2731-1.2919-.2731h-3.3231v4.47h3.3231c.4931 0 .9237-.0912 1.2919-.2731v-.0006Zm-2.6313 1.7637h3.1944l3.9337 6.6138h-3.355l-3.7731-6.6138Z"/>
  <path fill="#fff" d="M31.6328 16.9922h4.0731l3.0868 9.8506.2575 1.2863.225-1.2863 2.98-9.8506h4.1375v15.0062h-2.8938V21.2903l.0432-.7825-3.4944 11.4906h-2.1224L34.474 20.5828l.0432.7075v10.7081h-2.8831V16.9922h-.0013Z"/>
</svg>
