<?xml version="1.0" encoding="utf-8"?>
<!-- Generator: Adobe Illustrator 19.1.0, SVG Export Plug-In . SVG Version: 6.00 Build 0)  -->
<svg version="1.1" id="Layer_1" xmlns="http://www.w3.org/2000/svg" xmlns:xlink="http://www.w3.org/1999/xlink" x="0px" y="0px"
	 width="819px" height="108.7px" viewBox="0 0 819 108.7" style="enable-background:new 0 0 819 108.7;" xml:space="preserve">
<g>
	<g>
		<rect x="0" y="3.9" style="fill:#000000;" width="85" height="85"/>
		<rect x="8" y="73" style="fill:#FFFFFF;" width="31.9" height="5.3"/>
		<path style="fill:#FFFFFF;" d="M8,14.6h8.7c5.1,0,8.1,3,8.1,7.3V22c0,4.9-3.8,7.5-8.6,7.5h-3.6v6.4H8V14.6z M16.3,25.3
			c2.3,0,3.7-1.4,3.7-3.2V22c0-2.1-1.5-3.2-3.8-3.2h-3.6v6.5H16.3z"/>
		<path style="fill:#FFFFFF;" d="M27.3,14.6h16v4.2H31.9v4.3h10v4.2h-10v4.5h11.5v4.2H27.3V14.6z"/>
	</g>
	<g>
		<g>
			<path d="M106.4,3.9h34.7c20.3,0,32.5,12,32.5,29.4v0.2c0,19.7-15.3,29.9-34.4,29.9h-14.2v25.5h-18.7V3.9z
				 M139.9,46.8c9.3,0,14.8-5.6,14.8-12.9v-0.2c0-8.4-5.8-12.9-15.2-12.9h-14.4v26H139.9z"/>
			<path d="M223,23.8h19.2l-25,66.7c-5,13.2-10.3,18.2-21.4,18.2c-6.7,0-11.7-1.7-16.4-4.5l6.2-13.4
				c2.4,1.5,5.5,2.5,7.9,2.5c3.2,0,4.9-1,6.4-4.2l-25.5-65.3h19.5l14.8,44.3L223,23.8z"/>
			<path d="M239.5,46.7v-0.2c0-24.2,18.2-44,44.3-44c16,0,25.6,5.3,33.5,13.1l-11.9,13.7
				c-6.6-5.9-13.2-9.6-21.7-9.6c-14.3,0-24.6,11.9-24.6,26.5v0.2c0,14.6,10.1,26.7,24.6,26.7c9.7,0,15.7-3.9,22.3-10l11.9,12
				c-8.7,9.3-18.5,15.2-34.8,15.2C258,90.4,239.5,71.1,239.5,46.7z"/>
			<path d="M319.7,0.3h18.5v32.8c4.3-5.5,9.7-10.4,19.1-10.4c14,0,22.1,9.2,22.1,24.2v42.1h-18.5V52.6
				c0-8.7-4.1-13.2-11.2-13.2s-11.5,4.5-11.5,13.2v36.3h-18.5V0.3z"/>
			<path d="M381.8,70.2V70c0-14.2,10.8-20.8,26.2-20.8c6.6,0,11.3,1.1,15.9,2.7v-1.1c0-7.6-4.7-11.9-14-11.9
				c-7,0-12,1.3-18,3.5l-4.6-14.1c7.2-3.2,14.2-5.2,25.3-5.2c10.1,0,17.4,2.7,22,7.3c4.9,4.9,7,12,7,20.8v37.8h-17.8v-7
				c-4.5,5-10.7,8.3-19.7,8.3C391.9,90.1,381.8,83.1,381.8,70.2z M424.2,66v-3.3c-3.2-1.5-7.3-2.4-11.8-2.4c-7.9,0-12.7,3.2-12.7,9
				v0.2c0,5,4.1,7.9,10.1,7.9C418.3,77.4,424.2,72.6,424.2,66z"/>
			<path d="M445.6,23.8h18.5v13.1c3.8-9,9.8-14.8,20.8-14.3v19.3h-1c-12.3,0-19.8,7.4-19.8,22.9v24h-18.5
				V23.8z"/>
			<path d="M488.5,23.8H507v9.2c4.3-5.5,9.8-10.4,19.2-10.4c8.5,0,14.9,3.8,18.3,10.3
				c5.7-6.7,12.5-10.3,21.4-10.3c13.7,0,22,8.3,22,23.9v42.4h-18.5V52.6c0-8.7-3.9-13.2-10.8-13.2c-6.9,0-11.2,4.5-11.2,13.2v36.3
				h-18.5V52.6c0-8.7-3.9-13.2-10.8-13.2c-6.9,0-11.2,4.5-11.2,13.2v36.3h-18.5V23.8z"/>
		</g>
		<g>
			<path d="M623.1,3.7h64.4v16.7h-45.7v17.3H682v16.7h-40.3v17.9h46.4v16.7h-65V3.7z"/>
			<path d="M686.6,56.5v-0.2c0-21.8,14.3-33.8,29.8-33.8c9.9,0,16,4.5,20.4,9.8V0h18.5v89.1h-18.5v-9.4
				c-4.5,6.1-10.7,10.6-20.4,10.6C701.1,90.3,686.6,78.3,686.6,56.5z M736.9,56.5v-0.2c0-10.9-7.2-18.1-15.9-18.1
				c-8.7,0-16,7.1-16,18.1v0.2c0,10.9,7.3,18.1,16,18.1C729.7,74.5,736.9,67.3,736.9,56.5z"/>
			<path d="M759.1,66V23.7h18.5v36.5c0,8.8,4.1,13.3,11.2,13.3s11.6-4.5,11.6-13.3V23.7H819v65.4h-18.5v-9.3
				c-4.3,5.5-9.8,10.5-19.2,10.5C767.3,90.3,759.1,81,759.1,66z"/>
		</g>
	</g>
</g>
</svg>
