<svg xmlns="http://www.w3.org/2000/svg" width="864" height="109" fill="none" viewBox="0 0 864 109">
  <path fill="#000" d="M660.767 6.92188H722.967V23.2719H678.787V40.2589H717.701V56.623H678.787V74.1055H723.562V90.4555H660.767V6.92188Z"/>
  <path fill="#000" d="M728.898 58.5911V58.3646C728.898 36.9893 742.672 25.2965 757.649 25.2965C761.449 25.2284 765.212 26.0583 768.631 27.7186C772.05 29.379 775.029 31.823 777.326 34.8517V3.34082H795.233V90.4559H777.326V81.2687C772.966 87.2284 766.949 91.6591 757.649 91.6591C742.913 91.6591 728.898 79.9522 728.898 58.5911V58.5911ZM777.552 58.5911V58.3646C777.552 47.7335 770.602 40.6981 762.236 40.6981C753.869 40.6981 746.806 47.6203 746.806 58.3646V58.5911C746.806 69.2221 753.884 76.2576 762.236 76.2576C770.587 76.2576 777.552 69.2221 777.552 58.5911Z"/>
  <path fill="#000" d="M804.307 67.9483V26.5H822.214V62.1727C822.214 70.7653 826.22 75.1819 833.057 75.1819C839.894 75.1819 844.254 70.7653 844.254 62.1727V26.5H862.162V90.4561H844.254V81.3822C840.121 86.7614 834.827 91.6594 825.753 91.6594C812.206 91.6594 804.307 82.5855 804.307 67.9483V67.9483Z"/>
  <path fill="#000" d="M117.791 3.62402H152.36C172.546 3.62402 184.748 15.5857 184.748 32.87V33.1106C184.748 52.6882 169.516 62.8379 150.548 62.8379H136.392V88.2194H117.791V3.62402ZM151.142 46.2756C160.457 46.2756 165.893 40.7265 165.893 33.5353V33.2947C165.893 24.9569 160.089 20.5544 150.788 20.5544H136.406V46.2756H151.142Z"/>
  <path fill="#000" d="M236.601 23.4424H255.697L230.74 89.7908C225.786 102.956 220.477 107.91 209.507 107.91C203.752 107.998 198.091 106.446 193.185 103.437L199.357 90.1447C201.719 91.6433 204.422 92.5199 207.213 92.6928C210.356 92.6928 212.041 91.716 213.612 88.446L188.273 23.4424H207.737L222.473 67.552L236.601 23.4424Z"/>
  <path fill="#000" d="M256.292 46.1624V45.9217C256.292 21.8568 274.425 2.16602 300.401 2.16602C316.355 2.16602 325.882 7.48861 333.766 15.2177L321.918 28.8781C315.392 22.961 308.739 19.3229 300.288 19.3229C286.019 19.3229 275.756 31.1713 275.756 45.6811V45.9217C275.756 60.4173 285.778 72.5064 300.288 72.5064C309.956 72.5064 315.859 68.6419 322.527 62.5973L334.361 74.559C325.669 83.8594 315.958 89.6633 299.679 89.6633C274.779 89.6633 256.292 70.4538 256.292 46.1624V46.1624Z"/>
  <path fill="#000" d="M340.505 0H358.907V32.6292C363.154 27.1792 368.576 22.2247 377.876 22.2247C391.777 22.2247 399.875 31.4118 399.875 46.2896V88.2192H381.472V52.0794C381.472 43.3735 377.367 38.9003 370.36 38.9003C363.352 38.9003 358.879 43.3735 358.879 52.0794V88.2192H340.477L340.505 0Z"/>
  <path fill="#000" d="M407.561 69.6045V69.3638C407.561 55.208 418.319 48.6963 433.664 48.6963C439.055 48.6484 444.412 49.5493 449.491 51.3576V50.2676C449.491 42.6517 444.777 38.4191 435.604 38.4191C429.469 38.4237 423.393 39.6159 417.711 41.9298L413.124 27.9155C420.991 24.2739 429.584 22.473 438.251 22.6495C448.287 22.6495 455.535 25.3108 460.136 29.9115C464.963 34.7386 467.143 41.8732 467.143 50.579V88.2194H449.377V81.2123C444.904 86.1668 438.746 89.4226 429.8 89.4226C417.598 89.4226 407.561 82.4155 407.561 69.6045ZM449.731 65.3577V62.1019C446.041 60.4689 442.045 59.6436 438.01 59.6812C430.154 59.6812 425.27 62.8238 425.27 68.6277V68.8684C425.27 73.8229 429.375 76.7248 435.292 76.7248C443.942 76.739 449.731 72.0251 449.731 65.3719V65.3577Z"/>
  <path fill="#000" d="M477.123 23.4425H495.525V36.4942C499.276 27.5477 505.321 21.7438 516.193 22.2251V41.4487H515.273C503.056 41.4487 495.568 48.8239 495.568 64.2821V88.2196H477.165L477.123 23.4425Z"/>
  <path fill="#000" d="M524.502 23.442H542.905V32.6292C547.152 27.1792 552.701 22.2246 562.001 22.2246C570.495 22.2246 576.865 25.9759 580.248 32.5018C585.91 25.8485 592.705 22.2246 601.482 22.2246C615.142 22.2246 623.353 30.4492 623.353 46.0347V88.2192H604.95V52.0793C604.95 43.3734 601.086 38.9002 594.206 38.9002C587.326 38.9002 583.079 43.3734 583.079 52.0793V88.2192H564.818V52.0793C564.818 43.3734 560.954 38.9002 554.074 38.9002C547.194 38.9002 542.948 43.3734 542.948 52.0793V88.2192H524.545L524.502 23.442Z"/>
  <path fill="#000" d="M0 4H85V89H0V4Z"/>
  <path fill="#fff" d="M11.2964 72.4355H43.147V77.744H11.2964V72.4355Z"/>
  <path fill="#fff" d="M11.3247 14.1562H24.3198C31.9073 14.1562 36.4938 18.6578 36.4938 25.1553V25.2544C36.4938 32.6155 30.8315 36.4234 23.6403 36.4234H18.2894V45.9644H11.3247V14.1562ZM23.8668 30.209C27.3633 30.209 29.4017 28.1139 29.4017 25.3818V25.2969C29.4017 22.1543 27.2217 20.4839 23.7394 20.4839H18.2894V30.209H23.8668Z"/>
  <path fill="#fff" d="M65.2583 14.2412V20.4273H48.2713V26.9956H63.3331V33.1817H48.243V39.7642H65.6405V45.9503H41.2783V14.2412H65.2583Z"/>
</svg>
