<svg height="70" viewBox="0 0 70 70" width="70" xmlns="http://www.w3.org/2000/svg" xmlns:xlink="http://www.w3.org/1999/xlink"><linearGradient id="a" gradientUnits="userSpaceOnUse" x1="24.99853" x2="66.65653" y1="27.04614" y2="27.04614"><stop offset="0" stop-color="#21d789"/><stop offset="1" stop-color="#07c3f2"/></linearGradient><linearGradient id="b" gradientUnits="userSpaceOnUse" x1="-24.55942" x2="61.21956" y1="59.08056" y2="-4.24126"><stop offset=".01075" stop-color="#fcf84a"/><stop offset=".11157" stop-color="#a7eb62"/><stop offset=".20564" stop-color="#5fe077"/><stop offset=".2727" stop-color="#32da84"/><stop offset=".30645" stop-color="#21d789"/><stop offset=".57683" stop-color="#21d789"/><stop offset=".59677" stop-color="#21d789"/><stop offset=".686" stop-color="#20d68c"/><stop offset=".7627" stop-color="#1ed497"/><stop offset=".83478" stop-color="#19d1a9"/><stop offset=".90403" stop-color="#13ccc2"/><stop offset=".97068" stop-color="#0bc6e1"/><stop offset="1" stop-color="#07c3f2"/></linearGradient><linearGradient id="c" gradientUnits="userSpaceOnUse" x1="9.33006" x2="23.63687" y1="77.65361" y2="32.75985"><stop offset="0" stop-color="#21d789"/><stop offset=".16381" stop-color="#24d788"/><stop offset=".30469" stop-color="#2fd886"/><stop offset=".43709" stop-color="#41da82"/><stop offset=".56442" stop-color="#5adc7d"/><stop offset=".68808" stop-color="#7ae077"/><stop offset=".80899" stop-color="#a1e36e"/><stop offset=".92544" stop-color="#cfe865"/><stop offset="1" stop-color="#f1eb5e"/></linearGradient><linearGradient id="d" gradientUnits="userSpaceOnUse" x1="28.2753" x2="59.40885" y1="38.62313" y2="-3.23585"><stop offset="0" stop-color="#21d789"/><stop offset=".06081" stop-color="#24d788"/><stop offset=".11308" stop-color="#2fd886"/><stop offset=".1622" stop-color="#41da82"/><stop offset=".20939" stop-color="#5add7d"/><stop offset=".25483" stop-color="#79e077"/><stop offset=".25806" stop-color="#7ce076"/><stop offset=".49857" stop-color="#8ce173"/><stop offset=".92473" stop-color="#b2e56b"/></linearGradient><linearGradient id="e" gradientUnits="userSpaceOnUse" x1="75.88927" x2="13.15793" y1="43.94956" y2="43.36871"><stop offset=".3871" stop-color="#fcf84a"/><stop offset=".53579" stop-color="#ecf451"/><stop offset=".82588" stop-color="#c2e964"/><stop offset=".92473" stop-color="#b2e56b"/></linearGradient><path d="m49.077 11.047 20.459 17.014-7.37 14.984-12.327-3.416h-10.67z" fill="url(#a)"/><path d="m28.476 22.095-3.963 20.95-.379 7.12-9.982 4.323-14.152 1.526 4.296-45.264 25.644-10.75 15.8 10.368z" fill="url(#b)"/><path d="m28.476 22.095 1.921 40.369-6.39 7.536-24.007-13.986 19.711-29.371z" fill="url(#c)"/><path d="m54.887 19.149h-24.255l21.43-19.149z" fill="url(#d)"/><path d="m70 62.626-21.354 7.247-28.429-8.01 8.259-39.768 3.293-2.946 17.308-1.623-1.568 17.382 13.773-5.34z" fill="url(#e)"/><path d="m14 14h42v42h-42z"/><path d="m17.98999 48.125h15.75v2.625h-15.75z" fill="#fff"/><path d="m37 53h33v17h-33z" fill="#d99e2b"/><path d="m40.05563 66.966h7.19661v-1.72329h-5.50724v-2.94521h4.82041v-1.72325h-4.82041v-2.85131h5.43874v-1.72325h-7.12811z"/><path d="m48.15627 66.966h1.86832l1.06757-2.6268h4.9082l1.05281 2.6268h1.9277l-4.5671-10.95841h-1.6904zm3.60316-4.321 1.77945-4.35241 1.79421 4.35241z"/><path d="m59.87536 66.966h1.62869v-3.52491h1.84026a3.50288 3.50288 0 0 0 3.70715-3.74426v-.03124a3.3623 3.3623 0 0 0 -3.52185-3.6659h-3.65425zm1.62869-5.26364v-3.94818h1.89333a1.80657 1.80657 0 0 1 1.99894 1.95836v.03146a1.86935 1.86935 0 0 1 -1.99894 1.95836z"/><g fill="#fff"><path d="m17.854 19.51484h7.11091c4.15105 0 6.6622 2.46144 6.6622 6.01593v.04971c0 4.02741-3.13257 6.116-7.03569 6.116h-2.90884v5.22052h-3.82858zm6.86171 8.77564c1.91459 0 3.03312-1.14339 3.03312-2.63542v-.04972c0-1.71511-1.1931-2.6348-3.10769-2.6348h-2.95856v5.31994z"/><path d="m33.66259 19.51484h13.12341v3.40507h-9.32065v3.52953h8.20253v3.40508h-8.20253v3.654h9.44515v3.40508h-13.24791z"/></g></svg>