<svg enable-background="new 0 0 819 108.7" height="108.7" viewBox="0 0 819 108.7" width="819" xmlns="http://www.w3.org/2000/svg"><path d="m0 3.9h85v85h-85z"/><g fill="#fff"><path d="m8 73h31.9v5.3h-31.9z"/><path d="m8 14.6h8.7c5.1 0 8.1 3 8.1 7.3v.1c0 4.9-3.8 7.5-8.6 7.5h-3.6v6.4h-4.6zm8.3 10.7c2.3 0 3.7-1.4 3.7-3.2v-.1c0-2.1-1.5-3.2-3.8-3.2h-3.6v6.5z"/><path d="m27.3 14.6h16v4.2h-11.4v4.3h10v4.2h-10v4.5h11.5v4.2h-16.1z"/></g><path d="m106.4 3.9h34.7c20.3 0 32.5 12 32.5 29.4v.2c0 19.7-15.3 29.9-34.4 29.9h-14.2v25.5h-18.7v-85zm33.5 42.9c9.3 0 14.8-5.6 14.8-12.9v-.2c0-8.4-5.8-12.9-15.2-12.9h-14.4v26z"/><path d="m223 23.8h19.2l-25 66.7c-5 13.2-10.3 18.2-21.4 18.2-6.7 0-11.7-1.7-16.4-4.5l6.2-13.4c2.4 1.5 5.5 2.5 7.9 2.5 3.2 0 4.9-1 6.4-4.2l-25.5-65.3h19.5l14.8 44.3z"/><path d="m239.5 46.7v-.2c0-24.2 18.2-44 44.3-44 16 0 25.6 5.3 33.5 13.1l-11.9 13.7c-6.6-5.9-13.2-9.6-21.7-9.6-14.3 0-24.6 11.9-24.6 26.5v.2c0 14.6 10.1 26.7 24.6 26.7 9.7 0 15.7-3.9 22.3-10l11.9 12c-8.7 9.3-18.5 15.2-34.8 15.2-25.1.1-43.6-19.2-43.6-43.6z"/><path d="m319.7.3h18.5v32.8c4.3-5.5 9.7-10.4 19.1-10.4 14 0 22.1 9.2 22.1 24.2v42.1h-18.5v-36.4c0-8.7-4.1-13.2-11.2-13.2s-11.5 4.5-11.5 13.2v36.3h-18.5z"/><path d="m381.8 70.2v-.2c0-14.2 10.8-20.8 26.2-20.8 6.6 0 11.3 1.1 15.9 2.7v-1.1c0-7.6-4.7-11.9-14-11.9-7 0-12 1.3-18 3.5l-4.6-14.1c7.2-3.2 14.2-5.2 25.3-5.2 10.1 0 17.4 2.7 22 7.3 4.9 4.9 7 12 7 20.8v37.8h-17.8v-7c-4.5 5-10.7 8.3-19.7 8.3-12.2-.2-22.3-7.2-22.3-20.1zm42.4-4.2v-3.3c-3.2-1.5-7.3-2.4-11.8-2.4-7.9 0-12.7 3.2-12.7 9v.2c0 5 4.1 7.9 10.1 7.9 8.5 0 14.4-4.8 14.4-11.4z"/><path d="m445.6 23.8h18.5v13.1c3.8-9 9.8-14.8 20.8-14.3v19.3h-1c-12.3 0-19.8 7.4-19.8 22.9v24h-18.5z"/><path d="m488.5 23.8h18.5v9.2c4.3-5.5 9.8-10.4 19.2-10.4 8.5 0 14.9 3.8 18.3 10.3 5.7-6.7 12.5-10.3 21.4-10.3 13.7 0 22 8.3 22 23.9v42.4h-18.5v-36.3c0-8.7-3.9-13.2-10.8-13.2s-11.2 4.5-11.2 13.2v36.3h-18.5v-36.3c0-8.7-3.9-13.2-10.8-13.2s-11.2 4.5-11.2 13.2v36.3h-18.5v-65.1z"/><path d="m623.1 3.7h64.4v16.7h-45.7v17.3h40.2v16.7h-40.3v17.9h46.4v16.7h-65z"/><path d="m686.6 56.5v-.2c0-21.8 14.3-33.8 29.8-33.8 9.9 0 16 4.5 20.4 9.8v-32.3h18.5v89.1h-18.5v-9.4c-4.5 6.1-10.7 10.6-20.4 10.6-15.3 0-29.8-12-29.8-33.8zm50.3 0v-.2c0-10.9-7.2-18.1-15.9-18.1s-16 7.1-16 18.1v.2c0 10.9 7.3 18.1 16 18.1 8.7-.1 15.9-7.3 15.9-18.1z"/><path d="m759.1 66v-42.3h18.5v36.5c0 8.8 4.1 13.3 11.2 13.3s11.6-4.5 11.6-13.3v-36.5h18.6v65.4h-18.5v-9.3c-4.3 5.5-9.8 10.5-19.2 10.5-14 0-22.2-9.3-22.2-24.3z"/></svg>