<svg xmlns="http://www.w3.org/2000/svg" width="146" height="48" fill="none" viewBox="0 0 146 48">
  <defs>
    <linearGradient id="a" x1="5.51834" x2="26.1201" y1="21.4563" y2="42.1597" gradientUnits="userSpaceOnUse">
      <stop stop-color="#7F52FF"/>
      <stop offset=".506725" stop-color="#C711E1"/>
      <stop offset="1" stop-color="#FF6D3F"/>
    </linearGradient>
  </defs>
  <path fill="#000" d="M118.788 16.54c2.15.0001 4.11.5002 5.859 1.5 1.75 1 3.131 2.3702 4.141 4.1202 1.01 1.7398 1.51 3.6998 1.51 5.8496 0 2.15-.51 4.1006-1.51 5.8506-1 1.7499-2.391 3.1201-4.141 4.1201-1.759.9998-3.739 1.5-5.889 1.5-2.15 0-4.111-.5-5.861-1.5-1.749-1-3.129-2.3803-4.139-4.1201-1.01-1.74-1.51-3.7006-1.51-5.8506 0-2.1499.5-4.0997 1.5-5.8496 1-1.75 2.38-3.1202 4.14-4.1202 1.77-1 3.75-1.5 5.9-1.5Zm-45.58-7.53023V22.5996L85.5781 9.00977h6.3907L78.8174 23.4502l13.4404 15.5195H85.668l-12.46-14.2998v14.2998h-5.2002V9.00977h5.2002Zm26.899 2.69043v5.3496h5.821l-.02 4.3906h-5.82l.019 11.0596c0 .6.201 1.1002.591 1.4902.39.3897.89.5898 1.49.5899h3.72v4.3896h-4.73c-1.17 0-2.2304-.25-3.1604-.75-.9299-.5-1.6598-1.2001-2.1797-2.0801-.5199-.8899-.7803-1.89-.7803-3l-.0195-11.7099h-3.8506l.0205-4.3897h2.3994c.55 0 .9806-.17 1.3106-.5.3299-.33.4902-.76.4902-1.29v-3.5498h4.6988Zm45.021 5.21h.81V22h-1.411c-1.119.0001-2.109.2102-2.939.6201-.84.42-1.48 1.0103-1.93 1.7803-.45.7699-.67 1.6795-.67 2.7392v11.8301h-5.05V17.0498h5.01v3.3203c.57-.9299 1.27-1.6898 2.1-2.2597 1.17-.81 2.53-1.21 4.09-1.21l-.01.0098Zm-26.36 4.1201c-1.22 0-2.31.2999-3.26.8799-.94.58-1.68 1.3999-2.2 2.4599-.52 1.0599-.781 2.2798-.781 3.6397s.261 2.5601.781 3.6201c.52 1.05 1.26 1.8699 2.2 2.4599.94.59 2.04.8799 3.26.8799 1.22 0 2.31-.2999 3.27-.8799.95-.5799 1.69-1.4 2.21-2.4599.52-1.06.779-2.2502.779-3.6201s-.259-2.58-.789-3.6299c-.52-1.05-1.261-1.87-2.211-2.46-.95-.5898-2.04-.8896-3.259-.8896ZM91.9775 9.00977h-.0087L91.9775 9v.00977Z"/>
  <path fill="url(#a)" d="m47.9995 31.9981-16.002 16.002L0 15.996 16.002 0l31.9975 31.9981Z"/>
  <path fill="#000" d="M32.0098 15.9922h-16.002v16.002h16.002v-16.002Z"/>
</svg>
