<svg xmlns="http://www.w3.org/2000/svg" width="146" height="48" fill="none" viewBox="0 0 146 48">
  <path fill="#000" d="M91.977 9.01h-6.4L73.207 22.6V9.01h-5.2v29.96h5.2v-14.3l12.46 14.3h6.59l-13.44-15.52L91.977 9v.01Zm8.14 2.69h-4.71v3.55c0 .53-.16.96-.49 1.29-.33.33-.76.5-1.31.5h-2.4l-.02 4.39h3.85l.02 11.71c0 1.11.26 2.11.78 3 .52.88 1.25 1.58 2.18 2.08.93.5 1.99.75 3.16.75h4.73v-4.39h-3.72c-.6 0-1.1-.2-1.49-.59-.39-.39-.59-.89-.59-1.49l-.02-11.06h5.82l.02-4.39h-5.82V11.7h.01Zm24.53 6.34c-1.75-1-3.71-1.5-5.86-1.5-2.15 0-4.13.5-5.9 1.5-1.76 1-3.14 2.37-4.14 4.12-1 1.75-1.5 3.7-1.5 5.85 0 2.15.5 4.11 1.51 5.85 1.01 1.74 2.39 3.12 4.14 4.12 1.75 1 3.71 1.5 5.86 1.5 2.15 0 4.13-.5 5.89-1.5 1.75-1 3.14-2.37 4.14-4.12 1-1.75 1.51-3.7 1.51-5.85 0-2.15-.5-4.11-1.51-5.85a10.99 10.99 0 0 0-4.14-4.12Zm-.4 13.59c-.52 1.06-1.26 1.88-2.21 2.46-.96.58-2.05.88-3.27.88-1.22 0-2.32-.29-3.26-.88-.94-.59-1.68-1.41-2.2-2.46-.52-1.06-.78-2.26-.78-3.62 0-1.36.26-2.58.78-3.64s1.26-1.88 2.2-2.46c.95-.58 2.04-.88 3.26-.88 1.22 0 2.31.3 3.26.89.95.59 1.69 1.41 2.21 2.46.53 1.05.79 2.26.79 3.63s-.26 2.56-.78 3.62Zm20.89-14.73c-1.56 0-2.92.4-4.09 1.21-.83.57-1.53 1.33-2.1 2.26v-3.32h-5.01v21.92h5.05V27.14c0-1.06.22-1.97.67-2.74.45-.77 1.09-1.36 1.93-1.78.83-.41 1.82-.62 2.94-.62h1.41v-5.09h-.81l.01-.01Z"/>
  <path fill="url(#a)" d="M48 31.998 31.996 48 0 15.996 16.002 0l31.997 31.998Z"/>
  <path fill="#000" d="M32.01 15.996H16.008v16.002H32.01V15.996Z"/>
  <defs>
    <linearGradient id="a" x1="1" x2="31" y1="17" y2="47" gradientUnits="userSpaceOnUse">
      <stop stop-color="#6B57FF"/>
      <stop offset=".499" stop-color="#FF45ED"/>
      <stop offset="1" stop-color="#DD1265"/>
    </linearGradient>
  </defs>
</svg>
