<svg xmlns="http://www.w3.org/2000/svg" width="561" height="64" fill="none" viewBox="0 0 561 64">
  <defs>
    <linearGradient id="a" x1=".850001" x2="62.62" y1="62.72" y2="1.81" gradientUnits="userSpaceOnUse">
      <stop stop-color="#FF9419"/>
      <stop offset=".43" stop-color="#FF021D"/>
      <stop offset=".99" stop-color="#E600FF"/>
    </linearGradient>
  </defs>
  <path fill="#000" d="M86.51 40.5988c0 .847-.18 1.5943-.54 2.252-.36.6577-.86 1.1659-1.52 1.5246s-1.4.5381-2.25.5381H78v6.1083h5.1c1.92 0 3.64-.4284 5.17-1.2854 1.53-.857 2.73-2.0428 3.6-3.5474.87-1.5047 1.31-3.1987 1.31-5.092V21.0182h-6.66v19.5806h-.01Zm17.93-1.8236h13.95v-5.6101h-13.95v-6.3674h15.42v-5.7795H97.95v29.9937h22.34v-5.7795h-15.85v-6.4572Zm17.94-11.8081h8.92v24.0348h6.66V26.9671h8.88v-5.9489h-24.47v5.9588l.01-.0099Zm47.23 9.0081c-.52-.2791-1.09-.4883-1.68-.6477.45-.1296.88-.289 1.28-.4883 1.1-.568 1.97-1.3652 2.59-2.3915.62-1.0264.94-2.2022.94-3.5375 0-1.5246-.42-2.8898-1.25-4.0955-.83-1.1958-2-2.1324-3.5-2.81-1.5-.6677-3.22-1.0065-5.14-1.0065h-13.37v29.9937h13.63c2.02 0 3.82-.3487 5.41-1.0562 1.58-.7075 2.81-1.684 3.69-2.9496.87-1.2555 1.31-2.6904 1.31-4.3047 0-1.4847-.34-2.81-1.03-3.9859-.69-1.1758-1.64-2.0826-2.87-2.7303l-.01.01Zm-13.67-9.9249h5.91c.82 0 1.54.1495 2.17.4385.63.289 1.12.7075 1.47 1.2555.35.5381.53 1.1759.53 1.9033s-.18 1.415-.53 1.983c-.35.5679-.84.9964-1.47 1.3053-.63.3089-1.35.4584-2.17.4584h-5.91v-7.3539.0099Zm10.18 18.1457c-.38.568-.92 1.0065-1.61 1.3154-.7.3089-1.49.4583-2.4.4583h-6.17V38.277h6.17c.89 0 1.68.1694 2.38.4982.69.3289 1.24.7872 1.62 1.3851.38.5979.58 1.2755.58 2.0428 0 .7673-.19 1.4249-.57 1.9929Zm29.73-5.3112c1.67-.7971 2.96-1.9231 3.88-3.368.92-1.4449 1.38-3.119 1.38-5.0322 0-1.9132-.45-3.5275-1.35-4.9624-.9-1.4349-2.18-2.541-3.83-3.3282-1.65-.7872-3.56-1.1758-5.74-1.1758h-13.18v29.9937h6.67V40.0906h4.34l6.11 10.9213h7.61l-6.88-11.7285c.34-.1195.68-.2491 1-.3986h-.01Zm-2.16-6.1282c-.37.6277-.9 1.116-1.59 1.4448-.69.3388-1.5.5082-2.43.5082h-6v-8.3005h6c.93 0 1.74.1694 2.43.4982.69.3288 1.22.8171 1.59 1.4349.37.6178.56 1.3552.56 2.1922 0 .8371-.19 1.5745-.56 2.2022v.02Zm20.67-11.7384-10.75 29.9937h6.77l2.13-6.6166h11.16l2.28 6.6166h6.64l-11-29.9937h-7.23Zm-.34 18.3549 3.46-10.5825.41-1.9232.41 1.9232 3.7 10.5825h-7.98Zm20.79 11.6388h6.88V21.0182h-6.88v29.9937Zm31.14-9.7056-12.94-20.2881h-6.49v29.9937h6.08V30.7238l12.88 20.2881h6.56V21.0182h-6.08v20.2881h-.01Zm28.93-6.497c-1.18-.847-2.52-1.405-4.04-1.694l-5.12-1.0463c-.8-.1893-1.44-.5182-1.91-.9965-.47-.4783-.71-1.0762-.71-1.7836 0-.6478.17-1.2058.52-1.6841.34-.4783.83-.847 1.45-1.116.62-.2691 1.34-.3986 2.16-.3986.82 0 1.56.1395 2.19.4185.63.279 1.12.6676 1.47 1.1758.35.5082.53 1.0762.53 1.7239h6.67c-.04-1.7438-.53-3.2883-1.45-4.6236-.92-1.3452-2.21-2.3915-3.85-3.1488-1.64-.7573-3.52-1.136-5.62-1.136s-3.96.3886-5.59 1.1758c-1.63.7872-2.91 1.8734-3.82 3.2685-.91 1.395-1.37 2.9794-1.37 4.7631 0 1.4449.29 2.7502.88 3.9061.59 1.1659 1.42 2.1325 2.49 2.8998 1.08.7672 2.32 1.3053 3.74 1.6043l5.42 1.116c.89.2093 1.59.5979 2.11 1.1559.52.558.77 1.2456.77 2.0826 0 .6677-.19 1.2755-.57 1.8036-.38.5282-.91.9367-1.59 1.2257-.68.289-1.48.4285-2.4.4285-.92 0-1.79-.1595-2.54-.4783-.75-.3189-1.33-.7773-1.74-1.3752-.42-.5879-.62-1.2754-.62-2.0427h-6.67c.03 1.8734.53 3.5175 1.52 4.9524.98 1.425 2.33 2.541 4.05 3.3382 1.72.7972 3.69 1.1958 5.91 1.1958s4.22-.4086 5.94-1.2257c1.73-.8171 3.07-1.9431 4.04-3.378.97-1.4349 1.45-3.0592 1.45-4.8727 0-1.4848-.33-2.8499-.98-4.1055-.65-1.2456-1.57-2.2919-2.74-3.1389l.02.01Zm20.53 16.2026h5.48V21.0182h-5.48v29.9937Zm30.33-28.0706c-2.24-1.2854-4.78-1.9231-7.62-1.9231h-11.29v29.9937h11.29c2.84 0 5.38-.6378 7.62-1.9232 2.24-1.2855 4-3.0691 5.26-5.3311 1.26-2.272 1.89-4.8528 1.89-7.7326 0-2.8798-.63-5.4607-1.89-7.7326-1.26-2.272-3.01-4.0457-5.26-5.3311v-.02Zm.52 18.5543c-.77 1.5545-1.86 2.7602-3.27 3.5972-1.41.847-3.05 1.2656-4.91 1.2656h-5.89V25.6617h5.89c1.86 0 3.5.4185 4.91 1.2655 1.41.847 2.5 2.0428 3.27 3.5973s1.15 3.388 1.15 5.4806c0 2.0925-.38 3.926-1.15 5.4805v.01Zm16.29-3.2585h14.66v-4.6236h-14.66v-7.8621h16.12v-4.7332h-21.35v29.9937h21.78v-4.7333h-16.55v-8.0415Zm50.96-2.8299c-1.15-.8271-2.45-1.405-3.91-1.7339l-5.07-1.136c-1.02-.269-1.82-.6975-2.41-1.2754-.59-.578-.88-1.3154-.88-2.2122 0-.7972.21-1.5047.62-2.1025.42-.5979 1-1.0663 1.74-1.3951.75-.3288 1.61-.4883 2.58-.4883s1.86.1694 2.61.5182c.75.3488 1.33.8271 1.74 1.4548.41.6278.61 1.3353.61 2.1225h5.38c-.01-1.684-.46-3.1787-1.33-4.4841-.87-1.3054-2.1-2.3317-3.68-3.0592-1.58-.7274-3.38-1.106-5.4-1.106-2.02 0-3.75.3786-5.31 1.1359-1.56.7574-2.78 1.8036-3.65 3.129-.87 1.3253-1.31 2.8399-1.31 4.5239 0 1.3851.29 2.6307.88 3.7467.59 1.1161 1.41 2.0528 2.47 2.8101 1.06.7573 2.3 1.2954 3.72 1.6242l5.25 1.1759c1.1.269 1.97.7473 2.6 1.4249.63.6776.95 1.5346.95 2.5809 0 .847-.23 1.5843-.68 2.242-.45.6477-1.09 1.1559-1.91 1.5246-.82.3687-1.78.5481-2.87.5481s-2.13-.1993-3-.5979c-.87-.3986-1.54-.9566-2.03-1.6641-.49-.7075-.73-1.5246-.73-2.4513h-5.38c.01 1.8235.49 3.4478 1.43 4.8428.94 1.405 2.24 2.4912 3.9 3.2684 1.66.7773 3.57 1.1659 5.72 1.1659s4.04-.3986 5.71-1.1858c1.67-.7872 2.97-1.8833 3.89-3.2684.92-1.3851 1.39-2.9396 1.39-4.6735 0-1.4249-.32-2.7402-.96-3.946-.64-1.2057-1.53-2.2121-2.68-3.0392v-.0199Zm23.63-5.3909c-1.69-.9666-3.62-1.4549-5.78-1.4549s-4.05.4983-5.79 1.4848c-1.74.9964-3.11 2.3616-4.12 4.1054-1 1.7438-1.5 3.6969-1.5 5.8493 0 2.1524.5 4.1752 1.49 5.9389 1 1.7538 2.36 3.129 4.08 4.1155 1.73.9865 3.67 1.4747 5.84 1.4747 1.71 0 3.26-.259 4.67-.7872 1.41-.5281 2.6-1.2755 3.59-2.252.99-.9666 1.74-2.1324 2.26-3.4876h-5.53c-.56.7473-1.26 1.3253-2.11 1.7338-.85.4086-1.8.6178-2.86.6178-1.2 0-2.28-.2889-3.24-.8769-.96-.5879-1.7-1.405-2.24-2.4513-.43-.837-.68-1.7637-.78-2.7702h17.37v-1.2256c0-2.2321-.47-4.2051-1.41-5.9489-.94-1.7339-2.25-3.0891-3.95-4.0557l.01-.0099Zm-11.93 7.8422c.13-.7175.34-1.3951.67-2.0228.54-1.0264 1.28-1.8236 2.24-2.4015.95-.578 2.03-.867 3.24-.867 1.21 0 2.27.299 3.19.8969.92.5978 1.64 1.4349 2.14 2.4911.28.5879.47 1.2257.59 1.8933h-12.07v.01Zm28.12-7.7326c-.84.5779-1.54 1.3353-2.11 2.262v-3.3282h-5.03v21.9422h5.07v-11.848c0-1.0563.23-1.973.68-2.7403.45-.7673 1.1-1.3652 1.94-1.7737.84-.4086 1.82-.6178 2.96-.6178h1.42v-5.1019h-.82c-1.56 0-2.93.3985-4.11 1.2057Zm17.76 14.4787-5.74-15.535h-5.4l8.49 21.9423h5.01l8.41-21.9423h-5.25l-5.53 15.535h.01Zm13.21 6.4073h5.07V29.0696h-5.07v21.9423Zm-.37-24.2541h5.78v-5.0122h-5.78v5.0122Zm17.32 7.1746c.94-.5979 2-.8968 3.17-.8968.8 0 1.56.1494 2.26.4484.7.2989 1.31.7174 1.84 1.2555.52.5381.94 1.1759 1.24 1.9133h5.4c-.39-1.5944-1.09-3.0094-2.1-4.235-1.01-1.2257-2.26-2.1723-3.75-2.8499-1.49-.6776-3.12-1.0164-4.9-1.0164-2.15 0-4.1.4982-5.84 1.4947-1.74.9964-3.11 2.3716-4.11 4.1254-1 1.7537-1.49 3.7068-1.49 5.8592 0 2.1524.5 4.1054 1.49 5.8592s2.37 3.1289 4.11 4.1254c1.74.9965 3.69 1.4947 5.84 1.4947 1.78 0 3.41-.3388 4.9-1.0164 1.49-.6776 2.74-1.6242 3.75-2.8499 1.01-1.2157 1.71-2.6307 2.1-4.235h-5.4c-.3.7474-.71 1.3851-1.24 1.9132-.52.5381-1.14.9566-1.84 1.2556-.7.2989-1.46.4484-2.26.4484-1.18 0-2.23-.2989-3.17-.9068-.94-.6078-1.67-1.4449-2.2-2.5111-.53-1.0662-.8-2.262-.8-3.5873s.27-2.541.8-3.6072c.53-1.0662 1.26-1.8933 2.2-2.4912v.01Zm33.29-3.9161c-1.69-.9666-3.62-1.4549-5.78-1.4549s-4.05.4983-5.79 1.4848c-1.74.9964-3.11 2.3616-4.12 4.1054-1 1.7438-1.5 3.6969-1.5 5.8493 0 2.1524.5 4.1752 1.49 5.9389 1 1.7538 2.36 3.129 4.08 4.1155 1.73.9865 3.67 1.4747 5.84 1.4747 1.71 0 3.26-.259 4.67-.7872 1.41-.5281 2.6-1.2755 3.59-2.252.99-.9666 1.74-2.1324 2.26-3.4876h-5.53c-.56.7473-1.26 1.3253-2.11 1.7338-.85.4086-1.8.6178-2.86.6178-1.2 0-2.28-.2889-3.24-.8769-.96-.5879-1.7-1.405-2.24-2.4513-.43-.837-.68-1.7637-.78-2.7702h17.37v-1.2256c0-2.2321-.47-4.2051-1.41-5.9489-.94-1.7339-2.25-3.0891-3.95-4.0557l.01-.0099Zm-11.93 7.8422c.13-.7175.34-1.3951.67-2.0228.54-1.0264 1.28-1.8236 2.24-2.4015.95-.578 2.03-.867 3.24-.867 1.21 0 2.27.299 3.19.8969.92.5978 1.64 1.4349 2.14 2.4911.28.5879.47 1.2257.59 1.8933h-12.07v.01Zm37.51 3.7367c-.47-.9167-1.14-1.694-2.01-2.3018-.87-.6178-1.89-1.0164-3.05-1.2257l-4.84-.837c-.56-.0996-1.02-.2391-1.39-.4285-.37-.1893-.64-.4185-.83-.7075-.19-.2889-.28-.6178-.28-1.0064 0-.5182.15-.9666.45-1.3751.3-.3986.73-.7075 1.28-.9367.55-.2192 1.19-.3288 1.9-.3288s1.31.1195 1.88.3388c.57.2291 1.02.548 1.38.9566.35.4085.57.8868.66 1.4448h5.05c-.1-1.3452-.54-2.5111-1.32-3.5175-.78-.9965-1.83-1.7737-3.16-2.3118-1.33-.5381-2.82-.8171-4.48-.8171-1.66 0-3.19.289-4.48.8669-1.3.578-2.3 1.3752-3 2.4015-.7 1.0164-1.05 2.1823-1.05 3.4777 0 1.0563.24 2.0328.72 2.9097.48.8868 1.16 1.6242 2.03 2.2221.87.5879 1.9.9865 3.07 1.1659l4.88.8171c.46.0697.86.2192 1.21.4384.35.2193.62.4983.82.8271.19.3288.29.6975.29 1.0961 0 .5381-.18 1.0164-.53 1.425-.35.4085-.84.7274-1.47.9566-.63.2292-1.34.3388-2.13.3388-.85 0-1.59-.1096-2.23-.3289-.64-.2192-1.15-.5381-1.55-.9566-.39-.4185-.63-.9167-.7-1.4947h-5.07c.09 1.3453.55 2.5311 1.39 3.5674.84 1.0363 1.97 1.8335 3.39 2.4015 1.42.568 3.02.847 4.79.847s3.23-.289 4.61-.8769c1.38-.5879 2.47-1.415 3.27-2.4713.8-1.0562 1.19-2.2619 1.19-3.5873 0-1.0761-.23-2.0626-.7-2.9894h.01Z"/>
  <path fill="url(#a)" d="M20.34 3.66 3.66 20.34C1.32 22.68 0 25.86 0 29.18V59c0 2.76 2.24 5 5 5h29.82c3.32 0 6.49-1.32 8.84-3.66l16.68-16.68c2.34-2.34 3.66-5.52 3.66-8.84V5c0-2.76-2.24-5-5-5H29.18c-3.32 0-6.49 1.32-8.84 3.66Z"/>
  <path fill="#000" d="M48 16H8v40h40V16Z"/>
  <path fill="#fff" d="M30 47H13v4h17v-4Z"/>
</svg>
