<svg enable-background="new 0 0 16 16" height="16" viewBox="0 0 16 16" width="16" xmlns="http://www.w3.org/2000/svg"><path d="m15 15.0001831h-8c0-.6368408 0-1.3631592 0-2h2v-1h-2c0-.000061 0-.0001221 0-.0001831v.0001831h-4v1h4v2h-6v-14h5.3848877c-.3486328.6646729-.7027588 1.2891846-.6565552 2.0357666-.1217041-.0118408-.2406006-.0294189-.367981-.0294189-1.1870117 0-2.0336914.6972656-2.0336914 1.7514648v.0166016c0 1.1538086.7553711 1.4775391 1.9257812 1.7763672.9711914.2490234 1.1704102.4150391 1.1704102.7387695v.0166016c0 .340332-.3154297.5478516-.8383789.5478516-.6640625 0-1.2119141-.2739258-1.7348633-.7055664l-.755371.9047851c.6972656.6225586 1.5854492.9291992 2.465332.9291992 1.253418 0 2.1333008-.6469727 2.1333008-1.8007812v-.0166016c0-1.0126953-.6640625-1.4360352-1.8427734-1.7431641-1.0043945-.2573242-1.253418-.3818359-1.253418-.7636719v-.0166015c0-.2822266.2573242-.5063477.7470703-.5063477s.9960938.2158203 1.5107422.5727539l.6640625-.9628906c-.5006714-.4019775-1.1029053-.6425781-1.7902222-.7093506-.0462036-.746582.3079224-1.3710937.6565552-2.0357666h3.6151123v2.0893555h-1.6933594v5.8100586h1.2783203v-1.7426758h.9716797c1.3027344 0 2.3496094-.6972656 2.3496094-2.0419922v-.0166016c0-1.1870117-.8388672-2.0087891-2.2246094-2.0087891h-.6816406c0-.6564331 0-1.4233398 0-2.0893555h5zm-4.4267578-10.7568359h-.9882813v1.7763672h1.0126953c.6396484 0 1.0136719-.3818359 1.0136719-.8798828v-.0166016c0-.5727539-.3984375-.8798828-1.0380859-.8798828z"/></svg>