<svg xmlns="http://www.w3.org/2000/svg" width="207" height="64" fill="none" viewBox="0 0 207 64">
  <defs>
    <linearGradient id="a" x1="29.5102" x2="35.8839" y1="1.16526" y2="61.531" gradientUnits="userSpaceOnUse">
      <stop stop-color="#FCF84A"/>
      <stop offset=".32" stop-color="#AAE681"/>
      <stop offset=".79" stop-color="#35CDD1"/>
      <stop offset="1" stop-color="#07C3F2"/>
    </linearGradient>
    <linearGradient id="b" x1="6.16426" x2="63.2668" y1="2.08829" y2="29.1794" gradientUnits="userSpaceOnUse">
      <stop stop-color="#3BEA62"/>
      <stop offset="1" stop-color="#087CFA"/>
    </linearGradient>
    <linearGradient id="c" x1="11.3811" x2="68.8791" y1="61.0737" y2="20.8287" gradientUnits="userSpaceOnUse">
      <stop stop-color="#009AE5"/>
      <stop offset=".18" stop-color="#048FDC"/>
      <stop offset=".49" stop-color="#1073C5"/>
      <stop offset=".89" stop-color="#2346A1"/>
      <stop offset="1" stop-color="#293896"/>
    </linearGradient>
  </defs>
  <path fill="#000" d="M100.621 31.4169c-1.1402-.83-2.4402-1.4-3.9002-1.73l-5.05-1.13c-1.01-.27-1.81-.7-2.4-1.27-.59-.58-.88-1.32-.88-2.21 0-.8.21-1.5.62-2.1.41-.6.99-1.06 1.73-1.39.74-.33 1.6-.49 2.57-.49.97 0 1.85.17 2.6.51.75.34 1.33.83 1.73 1.46.41.63.61 1.33.61 2.12h5.3502c-.01-1.68-.46-3.18-1.33-4.48-.87-1.3-2.09-2.33-3.6602-3.06-1.57-.73-3.36-1.1-5.37-1.1-2.01 0-3.73.38-5.29 1.13-1.56.76-2.77 1.8-3.64 3.12-.87 1.33-1.31 2.83-1.31 4.52 0 1.38.29 2.63.88 3.75.58 1.11 1.41 2.05 2.46 2.8s2.29 1.3 3.7 1.63l5.22 1.18c1.1.27 1.96.75 2.59 1.42.63.68.94 1.54.94 2.58 0 .84-.22 1.59-.67 2.24-.45.65-1.08 1.16-1.91 1.52-.82.36-1.77.55-2.86.55-1.09 0-2.12-.2-2.99-.6-.87-.4-1.54-.95-2.02-1.66s-.73-1.52-.73-2.45h-5.31c.01 1.83.49 3.44 1.42 4.84.93 1.4 2.23 2.49 3.88 3.26 1.65.77 3.55 1.17 5.69 1.17 2.14 0 4.02-.4 5.68-1.19 1.6602-.79 2.9502-1.88 3.8702-3.26.92-1.38 1.38-2.94 1.38-4.67 0-1.43-.32-2.74-.95-3.94-.63-1.2-1.52-2.21-2.66-3.04l.01-.03Zm25.47-5.39c-1.53-.98-3.28-1.47-5.23-1.47-1.8 0-3.38.4-4.75 1.2-1.17.68-2.1 1.62-2.82 2.78v-3.46h-4.94v28.76h5.05v-10.14c.71 1.08 1.6 1.96 2.71 2.6 1.36.8 2.95 1.2 4.76 1.2 1.94 0 3.68-.49 5.22-1.47 1.54-.98 2.75-2.34 3.62-4.09.87-1.75 1.3-3.72 1.3-5.92 0-2.2-.43-4.17-1.3-5.92-.87-1.75-2.07-3.11-3.61-4.09l-.01.02Zm-1.05 13.64c-.52 1.05-1.25 1.87-2.19 2.46-.94.59-2.01.89-3.21.89-1.2 0-2.31-.29-3.25-.88-.94-.58-1.68-1.41-2.2-2.46-.53-1.06-.79-2.27-.79-3.64s.26-2.58.79-3.63c.53-1.05 1.26-1.87 2.2-2.46.94-.59 2.03-.89 3.25-.89 1.22 0 2.27.3 3.21.89.94.59 1.67 1.41 2.19 2.46s.78 2.26.78 3.63-.26 2.58-.78 3.63Zm26.26-11.28c-.71-1.09-1.62-1.97-2.73-2.63-1.36-.8-2.95-1.2-4.76-1.2-1.95 0-3.7.49-5.23 1.47-1.53.98-2.74 2.34-3.61 4.09-.87 1.75-1.3 3.72-1.3 5.92 0 2.2.43 4.17 1.3 5.92.87 1.75 2.08 3.11 3.62 4.09s3.28 1.47 5.22 1.47c1.81 0 3.4-.4 4.76-1.2 1.11-.65 2.02-1.54 2.73-2.63v3.31h4.96v-21.92h-4.96v3.31Zm-.81 11.28c-.53 1.05-1.26 1.87-2.2 2.46-.94.59-2.03.89-3.25.89-1.22 0-2.27-.29-3.21-.88-.94-.58-1.67-1.41-2.19-2.46s-.78-2.27-.78-3.64.26-2.58.78-3.63c.52-1.05 1.25-1.87 2.19-2.46.94-.59 2.01-.89 3.21-.89 1.2 0 2.31.3 3.25.89.94.59 1.68 1.41 2.2 2.46.53 1.05.79 2.26.79 3.63s-.26 2.58-.79 3.63Zm17.85-9.73c.93-.6 1.99-.9 3.16-.9.8 0 1.55.15 2.25.45.7.3 1.31.72 1.83 1.25s.93 1.17 1.23 1.92h5.37c-.38-1.6-1.08-3.01-2.09-4.23-1.01-1.22-2.25-2.17-3.73-2.85-1.48-.68-3.11-1.02-4.88-1.02-2.14 0-4.08.5-5.81 1.5-1.73 1-3.1 2.37-4.09 4.12-.99 1.75-1.49 3.7-1.49 5.85 0 2.15.5 4.11 1.49 5.85.99 1.75 2.35 3.12 4.09 4.12 1.73 1 3.67 1.5 5.81 1.5 1.77 0 3.4-.34 4.88-1.02 1.48-.68 2.73-1.63 3.73-2.85 1-1.22 1.7-2.63 2.09-4.23h-5.37c-.3.74-.71 1.38-1.23 1.92s-1.13.95-1.83 1.25c-.7.3-1.45.45-2.25.45-1.17 0-2.22-.3-3.16-.91-.94-.61-1.67-1.44-2.19-2.5-.53-1.06-.79-2.26-.79-3.58 0-1.32.26-2.54.79-3.61.53-1.06 1.26-1.89 2.19-2.49v.01Zm38.46 6.08c0-2.23-.47-4.21-1.4-5.94-.93-1.73-2.24-3.08-3.93-4.06-1.69-.98-3.6-1.46-5.76-1.46-2.16 0-4.03.5-5.77 1.49-1.73.99-3.1 2.36-4.1 4.1-1 1.74-1.5 3.69-1.5 5.84s.5 4.17 1.49 5.93c.99 1.75 2.35 3.12 4.07 4.11 1.72.98 3.66 1.48 5.81 1.48 1.7 0 3.25-.26 4.64-.79 1.4-.53 2.59-1.28 3.57-2.25s1.73-2.13 2.25-3.49h-5.5c-.56.74-1.25 1.32-2.1 1.73-.85.41-1.79.62-2.85.62-1.2 0-2.27-.29-3.22-.88-.95-.58-1.69-1.4-2.23-2.45-.43-.83-.68-1.76-.78-2.77h17.29v-1.22l.02.01Zm-17.2-2.16c.13-.72.34-1.4.67-2.02.54-1.02 1.28-1.82 2.23-2.4.95-.58 2.02-.87 3.22-.87 1.2 0 2.26.3 3.18.9.92.6 1.63 1.43 2.13 2.49.28.59.47 1.22.59 1.89h-12.02v.01Z"/>
  <path fill="url(#a)" fill-rule="evenodd" d="M13.0159 63c21.7083-1.9022 40.7949-15.25 49.9918-35.0108C51.5236 11.5995 32.8407 2 13.0584 2c-1.7736 0-3.55518.08025-5.33679.23275C-1.47535 21.9935.504467 45.1334 13.0159 63Z" clip-rule="evenodd"/>
  <path fill="url(#b)" fill-rule="evenodd" d="M7.77734 2.23275S27.2635 9.06592 40.0156 28h23C51.5796 11.6103 32.8965 2 13.1222 2c-1.7736 0-3.55522.08025-5.33683.23275h-.00803Z" clip-rule="evenodd"/>
  <path fill="url(#c)" fill-rule="evenodd" d="M40.0156 28c-2.7847 18.4445-27 35-27 35 21.8448-2.0708 41.0599-15.1509 50-35h-23Z" clip-rule="evenodd"/>
</svg>
