<svg height="60" viewBox="0 0 60 60" width="60" xmlns="http://www.w3.org/2000/svg" xmlns:xlink="http://www.w3.org/1999/xlink"><linearGradient id="a" gradientTransform="matrix(1 0 0 -1 0 62)" gradientUnits="userSpaceOnUse" x1="27.04751" x2="33.31151" y1="62.8242" y2="3.44817"><stop offset="0" stop-color="#fcf84a"/><stop offset=".32" stop-color="#abe682"/><stop offset=".79" stop-color="#36cdd2"/><stop offset="1" stop-color="#07c3f2"/></linearGradient><linearGradient id="b" gradientTransform="matrix(1 0 0 -1 0 62)" gradientUnits="userSpaceOnUse" x1="4.0678" x2="60.24586" y1="61.89154" y2="35.24256"><stop offset="0" stop-color="#3bea62"/><stop offset="1" stop-color="#087cfa"/></linearGradient><linearGradient id="c" gradientTransform="matrix(1 0 0 -1 0 62)" gradientUnits="userSpaceOnUse" x1="9.21742" x2="65.77912" y1="3.87939" y2="43.47258"><stop offset="0" stop-color="#009ae5"/><stop offset=".18" stop-color="#0490dd"/><stop offset=".49" stop-color="#1073c6"/><stop offset=".89" stop-color="#2346a1"/><stop offset="1" stop-color="#293896"/></linearGradient><g fill-rule="evenodd"><path d="m10.8618 60a59.95462 59.95462 0 0 0 49.1382-34.4 60.00348 60.00348 0 0 0 -49.1382-25.6c-1.74408 0-3.49616.072-5.24824.232a59.99772 59.99772 0 0 0 5.24824 59.768z" fill="url(#a)"/><path d="m5.66956.232a70.65854 70.65854 0 0 1 31.56944 25.368h22.761a59.81147 59.81147 0 0 0 -49.0742-25.6q-2.61612 0-5.25624.232z" fill="url(#b)"/><path d="m37.247 25.6c-2.74414 18.104-26.3852 34.4-26.3852 34.4 21.48896-2.04 40.33781-14.92 49.1382-34.4z" fill="url(#c)"/></g></svg>