<svg xmlns="http://www.w3.org/2000/svg" width="70" height="70" fill="none" viewBox="0 0 70 70">
  <path fill="#1A1B1E" d="M29.2063 12.1426H15.873C13.4184 12.1426 11.4286 14.1324 11.4286 16.587V53.4124C11.4286 55.867 13.4184 57.8569 15.873 57.8569H29.2063C31.6609 57.8569 33.6508 55.867 33.6508 53.4124V16.587C33.6508 14.1324 31.6609 12.1426 29.2063 12.1426Z"/>
  <path fill="#515151" d="M33.6508 47.8254H11.4286V46.9365H33.6508V47.8254Z"/>
  <path fill="#515151" d="M33.6508 54.174H11.4286V53.2852H33.6508V54.174Z"/>
  <path fill="#515151" d="M33.6508 28.7776H11.4286V27.8887H33.6508V28.7776Z"/>
  <path fill="#515151" d="M33.6508 22.428H11.4286V21.5391H33.6508V22.428Z"/>
  <path fill="#FFFFFF" d="M14.4044 47.6977V21.7422H18.8844L21.5866 30.0977C21.8237 30.88 22.0251 31.6385 22.191 32.3733C22.3807 33.0844 22.5229 33.6296 22.6177 34.0089C22.6888 33.6296 22.8073 33.0844 22.9733 32.3733C23.1629 31.6385 23.3762 30.8681 23.6133 30.0622L26.2088 21.7422H30.6888V47.6977H27.311V35.7866C27.311 33.6059 27.394 31.4963 27.5599 29.4577C27.7496 27.3955 27.9748 25.44 28.2355 23.5911L24.1821 36.3555H20.911L16.8222 23.6622C17.0592 25.4163 17.2725 27.277 17.4622 29.2444C17.6755 31.2118 17.7821 33.3925 17.7821 35.7866V47.6977H14.4044Z"/>
  <path fill="#1A1B1E" d="M52.6984 12.1426H39.3651C36.9105 12.1426 34.9206 14.1324 34.9206 16.587V53.4124C34.9206 55.867 36.9105 57.8569 39.3651 57.8569H52.6984C55.153 57.8569 57.1428 55.867 57.1428 53.4124V16.587C57.1428 14.1324 55.153 12.1426 52.6984 12.1426Z"/>
  <path fill="#515151" d="M57.1428 47.8254H34.9206V46.9365H57.1428V47.8254Z"/>
  <path fill="#515151" d="M57.1428 54.174H34.9206V53.2852H57.1428V54.174Z"/>
  <path fill="#515151" d="M57.1428 28.7776H34.9206V27.8887H57.1428V28.7776Z"/>
  <path fill="#515151" d="M57.1428 22.428H34.9206V21.5391H57.1428V22.428Z"/>
  <path fill="#FFFFFF" d="M46.0387 47.9828C43.6446 47.9828 41.7483 47.3192 40.3498 45.9917C38.9513 44.6406 38.252 42.8036 38.252 40.4806V35.3606C38.252 33.0376 38.9513 31.2125 40.3498 29.8851C41.7483 28.534 43.6446 27.8584 46.0387 27.8584C48.4327 27.8584 50.3291 28.534 51.7275 29.8851C53.1261 31.2125 53.8253 33.0258 53.8253 35.3251V40.4806C53.8253 42.8036 53.1261 44.6406 51.7275 45.9917C50.3291 47.3192 48.4327 47.9828 46.0387 47.9828ZM46.0387 44.8895C47.3661 44.8895 48.4091 44.5221 49.1675 43.7873C49.9261 43.0287 50.3053 41.9265 50.3053 40.4806V35.3606C50.3053 33.9147 49.9261 32.8243 49.1675 32.0895C48.4091 31.331 47.3661 30.9517 46.0387 30.9517C44.7113 30.9517 43.6683 31.331 42.9098 32.0895C42.1513 32.8243 41.772 33.9147 41.772 35.3606V40.4806C41.772 41.9265 42.1513 43.0287 42.9098 43.7873C43.6683 44.5221 44.7113 44.8895 46.0387 44.8895Z"/>
</svg>
