<svg fill="none" height="70" viewBox="0 0 70 70" width="70" xmlns="http://www.w3.org/2000/svg">
  <rect x="9" y="9" width="52" height="52"  fill="#000"/>
  <path d="m16.892 24.4229c.4338 0 .7752-.1267 1.0242-.3799.2571-.2533.3856-.5924.3856-1.0172v-4.8164h-3.0968v-1.4094h4.6031v6.2258c0 .4248-.0683.8088-.2049 1.152-.1366.335-.3334.6209-.5904.8579-.2491.2369-.5543.4207-.9158.5514-.3535.1226-.7552.1839-1.205.1839-.4097 0-.7873-.0572-1.1327-.1716-.3374-.1226-.6306-.2941-.8797-.5147-.249-.2206-.4498-.4862-.6025-.7966-.1526-.3105-.245-.6618-.2771-1.054h1.5183c.0402.3595.1807.6495.4217.8701.2491.2125.5664.3187.952.3187zm7.3457 1.3358c-.4337 0-.8314-.0613-1.1929-.1838-.3535-.1307-.6547-.3105-.9037-.5392-.2491-.2288-.4419-.5066-.5784-.8334-.1366-.3268-.2049-.6904-.2049-1.0908v-1.7035c0-.4003.0683-.7639.2049-1.0907.1365-.3268.3293-.6046.5784-.8334.249-.2287.5502-.4044.9037-.5269.3615-.1226.7592-.1839 1.1929-.1839.4338 0 .8275.0654 1.1809.1961.3535.1226.6548.2982.9038.527s.4418.5066.5784.8334c.1365.3268.2048.6904.2048 1.0907v1.2255h-4.2536v.4412c0 .4494.1205.8007.3615 1.054.249.2533.5905.3799 1.0242.3799.3294 0 .6066-.049.8315-.147.233-.1063.3976-.2574.494-.4535h1.4822c-.0723.2778-.1928.5311-.3615.7598-.1687.2206-.3776.4126-.6266.576-.241.1553-.5182.2778-.8315.3677-.3052.0899-.6346.1348-.9881.1348zm1.3858-4.1423v-.1961c0-.4494-.1205-.7966-.3615-1.0417-.241-.2533-.5824-.3799-1.0243-.3799-.4337 0-.7752.1266-1.0242.3799-.241.2451-.3615.5882-.3615 1.0294v.2084zm2.5257-2.7207h1.8316v-2.0344h1.5062v2.0344h2.5185v1.3848h-2.5185v3.2722c0 .2125.0603.384.1808.5148.1285.1225.3053.1838.5302.1838h1.687v1.3849h-1.7955c-.6507 0-1.1648-.1879-1.5423-.5638-.3776-.3758-.5664-.8824-.5664-1.5197v-3.2722h-1.8316zm-13.619 19.6768v-8.824h2.7594c.8676 0 1.5505.2043 2.0485.6128.4981.4085.7471.9641.7471 1.6668 0 .5392-.1486.9763-.4458 1.3113-.2973.335-.6989.5229-1.205.5637v.1103c.5623.0409 1.0041.2411 1.3255.6006.3213.3594.482.8333.482 1.4216 0 .3922-.0683.7435-.2049 1.0539-.1285.3105-.3173.5761-.5663.7967-.241.2206-.5383.3921-.8917.5147-.3535.1144-.7511.1716-1.193.1716zm1.4701-3.9218v2.6472h1.2893c.4499 0 .7993-.1144 1.0484-.3432.249-.2369.3735-.5637.3735-.9804s-.1245-.7394-.3735-.9682c-.2491-.2369-.5985-.3554-1.0484-.3554zm0-3.6276v2.3653h1.2652c.3937 0 .707-.1062.9399-.3186.233-.2125.3495-.5025.3495-.8702 0-.3676-.1165-.6536-.3495-.8578-.2249-.2125-.5342-.3187-.9278-.3187zm5.7672.8089h1.4219v1.1642h.1085c.0803-.4085.2811-.723.6024-.9436.3214-.2288.7311-.3432 1.2291-.3432.715 0 1.2733.2247 1.675.6741.4016.4493.6025 1.0703.6025 1.8628v.4902h-1.5786v-.3554c0-.433-.1164-.768-.3494-1.0049-.233-.2452-.5543-.3677-.964-.3677-.3856 0-.6909.1225-.9158.3677-.2169.2451-.3253.58-.3253 1.0049v4.1914h-1.5063zm6.454 4.8531c0-.335.0603-.6332.1808-.8946.1205-.2696.2932-.4984.5181-.6863s.4941-.3309.8074-.429c.3213-.1062.6788-.1593 1.0724-.1593h1.6629v-.576c0-.3105-.1165-.5556-.3495-.7353-.2249-.1879-.5382-.2819-.9399-.2819-.3293 0-.6065.0613-.8314.1838-.2249.1226-.3695.2901-.4338.5025h-1.4821c.1044-.5883.4016-1.0499.8917-1.3849.49-.3431 1.1086-.5147 1.8556-.5147.4258 0 .8114.0531 1.1568.1593.3455.0981.6387.2451.8797.4412.241.1879.4257.4208.5543.6986.1365.2696.2048.5719.2048.9069v4.6571h-1.4219v-1.3236h-.0964c-.0803.4412-.3092.7925-.6868 1.0539-.3695.2615-.8314.3922-1.3857.3922-.6588 0-1.185-.1797-1.5786-.5392-.3856-.3677-.5784-.8579-.5784-1.4707zm2.6751.8089c.4579 0 .8314-.1103 1.1206-.3309.2973-.2288.4459-.5147.4459-.8579v-.7843h-1.6508c-.3374 0-.6025.0857-.7953.2573s-.2892.4126-.2892.7231.1004.5556.3012.7353c.2089.1716.4981.2574.8676.2574zm4.6948-.3187h2.3738v-3.9585h-2.0726v-1.3848h3.5186v5.3433h1.9159v1.3972h-5.7357zm1.94-7.1694c0-.2369.0763-.4289.229-.576.1606-.1552.3695-.2328.6266-.2328h.3133c.257 0 .4619.0776.6145.2328.1607.1471.241.3391.241.576 0 .2451-.0803.4412-.241.5883-.1607.147-.3695.2206-.6266.2206h-.3012c-.2571 0-.466-.0736-.6266-.2206-.1527-.1471-.229-.3432-.229-.5883zm4.9117 8.5666v-6.7405h1.4339v1.1642h.1085c.0723-.4085.2611-.723.5663-.9436.3053-.2288.6989-.3432 1.1809-.3432.6668 0 1.197.2206 1.5906.6618.3937.4412.5905 1.0376.5905 1.7893v4.412h-1.5063v-4.2282c0-.4085-.1084-.7271-.3253-.9559-.2169-.2369-.5142-.3554-.8917-.3554-.3856 0-.6909.1226-.9158.3677-.2169.2369-.3254.5637-.3254.9804v4.1914zm9.4785.1225c-.7792 0-1.4018-.1593-1.8677-.4779-.4579-.3269-.723-.7844-.7953-1.3727h1.5424c.0482.2125.1727.38.3735.5025.2009.1144.4499.1716.7471.1716h.482c.3776 0 .6668-.0735.8676-.2206.2089-.1552.3133-.3636.3133-.625 0-.4494-.3414-.7231-1.0242-.8211l-.9399-.1103c-.7551-.0981-1.3135-.3105-1.6749-.6373-.3615-.3268-.5423-.7966-.5423-1.4094 0-.6373.2169-1.1275.6507-1.4707.4418-.3431 1.0724-.5147 1.8918-.5147h.4941c.731 0 1.3174.1593 1.7593.478.4498.3104.7149.7476.7953 1.3113h-1.5424c-.0402-.1879-.1527-.335-.3374-.4412-.1767-.1144-.4017-.1716-.6748-.1716h-.4941c-.7069 0-1.0604.2533-1.0604.7599 0 .433.2973.6863.8917.7598l.9761.1348c.7872.0981 1.3697.3187 1.7472.6618.3776.335.5664.8089.5664 1.4216 0 .6618-.229 1.1725-.6869 1.532s-1.1166.5392-1.9762.5392zm-37.6204 12.8137v-8.8239h1.7834l.952 2.8065c.0321.0899.0602.1879.0843.2942.0241.1062.0442.2042.0603.2941.0241.1062.0442.2083.0602.3064h.0844c.016-.0981.0361-.2002.0602-.3064.0241-.0899.0482-.1879.0723-.2941.0241-.1063.0522-.2043.0844-.2942l.8676-2.8065h1.8075v8.8239h-1.3496v-5.7232c0-.188.004-.3718.012-.5515.0081-.1798.0201-.3432.0362-.4903.016-.1715.0321-.3349.0482-.4902h-.1085c-.0321.1471-.0683.2942-.1084.4412-.0322.1226-.0683.2574-.1085.4045-.0401.147-.0803.29-.1205.4289l-.6266 2.0957h-1.2532l-.6627-2.0957c-.0402-.1389-.0803-.2819-.1205-.4289-.0321-.1471-.0643-.286-.0964-.4167-.0321-.1471-.0643-.2942-.0964-.4412h-.1205c.0161.1552.0321.3186.0482.4902.0161.1471.0281.3146.0361.5025.0081.1797.0121.3635.0121.5515v5.7232zm8.5629-2.5491c0 .4085.1205.7313.3615.9682.249.2369.5864.3554 1.0121.3554.4258 0 .7592-.1185 1.0002-.3554.249-.2369.3735-.5597.3735-.9682v-1.6545c0-.4085-.1245-.7312-.3735-.9681-.241-.237-.5744-.3555-1.0002-.3555-.4177 0-.7511.1185-1.0001.3555-.249.2369-.3735.5596-.3735.9681zm-1.5063-1.6545c0-.4003.0683-.7639.2049-1.0907.1365-.3268.3293-.6046.5784-.8334.257-.2369.5623-.4167.9158-.5392.3534-.1307.7471-.1961 1.1808-.1961.4338 0 .8275.0654 1.1809.1961.3535.1225.6548.3023.9038.5392.257.2288.4539.5066.5904.8334.1366.3268.2049.6904.2049 1.0907v1.6545c0 .4004-.0683.768-.2049 1.103-.1365.3268-.3293.6087-.5784.8456-.249.2288-.5543.4085-.9158.5393-.3534.1225-.7471.1838-1.1809.1838-.4337 0-.8274-.0654-1.1808-.1961-.3535-.1307-.6588-.3105-.9158-.5392-.2491-.237-.4419-.5188-.5784-.8456-.1366-.3269-.2049-.6904-.2049-1.0908zm7.1168 4.2036v-6.7404h1.4339v1.1642h.1085c.0723-.4085.261-.723.5663-.9436.3053-.2288.6989-.3432 1.1809-.3432.6668 0 1.197.2206 1.5906.6618s.5904 1.0376.5904 1.7893v4.4119h-1.5062v-4.2281c0-.4085-.1085-.7271-.3254-.9559-.2169-.2369-.5141-.3554-.8917-.3554-.3855 0-.6908.1225-.9157.3677-.2169.2369-.3254.5637-.3254.9804v4.1913zm8.3579-2.5491c0 .4085.1205.7313.3615.9682.2491.2369.5865.3554 1.0122.3554.4258 0 .7592-.1185 1.0002-.3554.249-.2369.3735-.5597.3735-.9682v-1.6545c0-.4085-.1245-.7312-.3735-.9681-.241-.237-.5744-.3555-1.0002-.3555-.4177 0-.7511.1185-1.0001.3555-.2491.2369-.3736.5596-.3736.9681zm-1.5062-1.6545c0-.4003.0683-.7639.2048-1.0907.1366-.3268.3294-.6046.5784-.8334.2571-.2369.5624-.4167.9158-.5392.3535-.1307.7471-.1961 1.1809-.1961s.8274.0654 1.1809.1961c.3535.1225.6547.3023.9038.5392.257.2288.4538.5066.5904.8334s.2048.6904.2048 1.0907v1.6545c0 .4004-.0682.768-.2048 1.103-.1366.3268-.3294.6087-.5784.8456-.249.2288-.5543.4085-.9158.5393-.3535.1225-.7471.1838-1.1809.1838s-.8274-.0654-1.1809-.1961c-.3534-.1307-.6587-.3105-.9158-.5392-.249-.237-.4418-.5188-.5784-.8456-.1365-.3269-.2048-.6904-.2048-1.0908zm6.8999 4.51h5.9286v1.3849h-5.9286z"
        fill="#fff"/>
</svg>
