<svg xmlns="http://www.w3.org/2000/svg" width="64" height="64" fill="none" viewBox="0 0 64 64">
  <path fill="#1A1B1E" d="M24.889 0H6.222A6.222 6.222 0 0 0 0 6.222v51.556A6.222 6.222 0 0 0 6.222 64H24.89a6.222 6.222 0 0 0 6.222-6.222V6.222A6.222 6.222 0 0 0 24.89 0Z"/>
  <path fill="#515151" fill-rule="evenodd" d="M31.111 49.778H0v-.89h31.111v.89Zm0 8.888H0v-.889h31.111v.89Zm0-35.555H0v-.888h31.111v.889Zm0-8.889H0v-.889h31.111v.889Z" clip-rule="evenodd"/>
  <path fill="#fff" d="M4.166 49.778V13.44h6.272l3.783 11.698c.332 1.095.614 2.157.847 3.186.265.995.464 1.759.597 2.29.1-.531.265-1.294.498-2.29a99.14 99.14 0 0 1 .896-3.236l3.633-11.648h6.272v36.338h-4.728V33.103c0-3.053.116-6.007.348-8.86.265-2.888.58-5.626.946-8.214l-5.675 17.87h-4.58L7.552 16.13c.332 2.455.63 5.06.896 7.814.299 2.755.448 5.808.448 9.16v16.675h-4.73Z"/>
  <path fill="#1A1B1E" d="M57.778 0H39.11a6.222 6.222 0 0 0-6.222 6.222v51.556A6.222 6.222 0 0 0 39.11 64h18.667A6.222 6.222 0 0 0 64 57.778V6.222A6.222 6.222 0 0 0 57.778 0Z"/>
  <path fill="#515151" fill-rule="evenodd" d="M64 49.778H32.889v-.89H64v.89Zm0 8.888H32.889v-.889H64v.89Zm0-35.555H32.889v-.888H64v.889Zm0-8.889H32.889v-.889H64v.889Z" clip-rule="evenodd"/>
  <path fill="#fff" d="M48.454 50.176c-3.352 0-6.006-.929-7.964-2.787-1.958-1.892-2.937-4.464-2.937-7.716v-7.168c0-3.252.979-5.807 2.937-7.666 1.958-1.891 4.612-2.837 7.964-2.837 3.352 0 6.007.946 7.965 2.837 1.958 1.859 2.936 4.397 2.936 7.616v7.218c0 3.252-.978 5.824-2.936 7.716-1.958 1.858-4.613 2.787-7.965 2.787Zm0-4.33c1.858 0 3.319-.515 4.38-1.544 1.063-1.062 1.593-2.605 1.593-4.629v-7.168c0-2.024-.53-3.55-1.593-4.58-1.061-1.061-2.522-1.592-4.38-1.592s-3.318.53-4.38 1.593c-1.062 1.028-1.593 2.555-1.593 4.58v7.167c0 2.024.53 3.567 1.593 4.63 1.062 1.028 2.522 1.543 4.38 1.543Z"/>
</svg>
