<?xml version="1.0" encoding="utf-8"?>
<!-- Generator: Adobe Illustrator 17.0.2, SVG Export Plug-In . SVG Version: 6.00 Build 0)  -->
<svg version="1.1" id="Слой_1" xmlns="http://www.w3.org/2000/svg" xmlns:xlink="http://www.w3.org/1999/xlink" x="0px" y="0px"
	 width="554.144px" height="108.383px" viewBox="0 0 554.144 108.383" enable-background="new 0 0 554.144 108.383"
	 xml:space="preserve">
<g>
	<g>
		<rect x="0" y="3.664" fill="#000001" width="85.039" height="85.039"/>
		<rect x="7.973" y="72.76" fill="#FFFFFF" width="31.889" height="5.314"/>
	</g>
	<g>
		<path d="M105.817,46.414v-0.242c0-24.18,18.833-43.985,44.592-43.985c15.31,0,24.544,4.132,33.414,11.665l-11.786,14.216
			c-6.562-5.468-12.394-8.627-22.236-8.627c-13.608,0-24.422,12.029-24.422,26.488v0.243c0,15.553,10.692,26.975,25.759,26.975
			c6.805,0,12.88-1.701,17.619-5.104v-12.15h-18.833v-16.16h36.938V76.67c-8.748,7.412-20.777,13.486-36.33,13.486
			C124.042,90.156,105.817,71.567,105.817,46.414z"/>
		<path d="M189.528,56.5v-0.243c0-18.712,15.067-33.9,35.358-33.9c20.17,0,35.115,14.945,35.115,33.657v0.243
			c0,18.712-15.067,33.899-35.358,33.899C204.474,90.156,189.528,75.211,189.528,56.5z M241.776,56.5v-0.243
			c0-9.599-6.926-17.983-17.132-17.983c-10.571,0-16.889,8.141-16.889,17.74v0.243c0,9.599,6.926,17.983,17.132,17.983
			C235.457,74.24,241.776,66.099,241.776,56.5z"/>
		<path d="M263.52,101.578l6.318-13.852c6.683,3.767,13.366,5.954,21.992,5.954c12.637,0,18.591-6.075,18.591-17.74v-3.159
			c-5.468,6.562-11.422,10.571-21.264,10.571c-15.188,0-28.918-11.058-28.918-30.376v-0.244c0-19.44,13.973-30.376,28.918-30.376
			c10.085,0,16.039,4.253,21.021,9.721v-8.505h18.469v50.424c0,11.665-2.795,20.17-8.263,25.639
			c-6.075,6.074-15.431,8.748-28.067,8.748C281.746,108.383,271.782,105.953,263.52,101.578z M310.421,52.977v-0.244
			c0-8.869-6.926-15.066-15.917-15.066c-8.992,0-15.796,6.197-15.796,15.066v0.244c0,8.99,6.805,15.066,15.796,15.066
			C303.496,68.043,310.421,61.846,310.421,52.977z"/>
		<path d="M335.81,0h18.469v88.699H335.81V0z"/>
		<path d="M357.557,69.986v-0.242c0-14.217,10.814-20.777,26.245-20.777c6.562,0,11.301,1.094,15.918,2.673v-1.094
			c0-7.655-4.739-11.907-13.974-11.907c-7.047,0-12.029,1.336-17.982,3.523l-4.617-14.095c7.168-3.159,14.216-5.225,25.272-5.225
			c10.085,0,17.376,2.673,21.993,7.29c4.86,4.86,7.047,12.029,7.047,20.777v37.789h-17.861v-7.048
			c-4.495,4.981-10.692,8.263-19.684,8.263C367.642,89.914,357.557,82.867,357.557,69.986z M399.962,65.734v-3.281
			c-3.159-1.457-7.29-2.43-11.785-2.43c-7.898,0-12.759,3.159-12.759,8.991v0.243c0,4.982,4.132,7.898,10.085,7.898
			C394.13,77.156,399.962,72.417,399.962,65.734z"/>
		<path d="M423.166,23.572h18.469v9.234c4.253-5.469,9.721-10.45,19.076-10.45c13.974,0,22.114,9.234,22.114,24.18v42.163h-18.469
			v-36.33c0-8.749-4.132-13.244-11.179-13.244c-7.048,0-11.543,4.495-11.543,13.244v36.33h-18.469V23.572z"/>
		<path d="M485.737,56.257v-0.243c0-21.75,14.216-33.657,29.647-33.657c9.842,0,15.917,4.496,20.291,9.721V0h18.469v88.699h-18.469
			v-9.356c-4.496,6.075-10.692,10.571-20.291,10.571C500.196,89.914,485.737,78.006,485.737,56.257z M535.918,56.257v-0.243
			c0-10.814-7.169-17.982-15.796-17.982s-15.917,7.047-15.917,17.982v0.243c0,10.813,7.29,17.983,15.917,17.983
			S535.918,67.07,535.918,56.257z"/>
	</g>
</g>
<g>
	<path fill="#FFFFFF" d="M6.818,25.007l0-0.059c0-6.036,4.701-10.981,11.131-10.981c3.822,0,6.128,1.032,8.342,2.912l-2.943,3.549
		c-1.637-1.366-3.093-2.154-5.551-2.154c-3.397,0-6.097,3.003-6.097,6.612v0.062c0,3.882,2.67,6.732,6.431,6.732
		c1.698,0,3.214-0.425,4.397-1.274l0-3.033l-4.701,0l0-4.033l9.221,0l0,9.22c-2.183,1.852-5.187,3.369-9.069,3.369
		C11.367,35.928,6.818,31.287,6.818,25.007z"/>
	<path fill="#FFFFFF" d="M30.094,25.007v-0.059c0-6.036,4.762-10.981,11.314-10.981c6.551,0,11.252,4.883,11.252,10.919v0.062
		c0,6.036-4.762,10.981-11.314,10.981C34.795,35.928,30.094,31.043,30.094,25.007z M47.778,25.006v-0.059
		c0-3.64-2.67-6.673-6.431-6.673c-3.76,0-6.37,2.974-6.37,6.612v0.062c0,3.64,2.67,6.673,6.431,6.673
		C45.168,31.62,47.778,28.647,47.778,25.006z"/>
</g>
</svg>
