<svg xmlns="http://www.w3.org/2000/svg" width="70" height="70" fill="none" viewBox="0 0 70 70">
  <defs>
    <linearGradient id="a" x1="21.4105" x2="63.8821" y1="17.3596" y2="25.8437" gradientUnits="userSpaceOnUse">
      <stop offset="0.2421" stop-color="#3BEA62"/>
      <stop offset="0.8566" stop-color="#FCF84A"/>
    </linearGradient>
    <linearGradient id="b" x1="16.8619" x2="57.518" y1="4.91189" y2="66.8909" gradientUnits="userSpaceOnUse">
      <stop offset="0.0175975" stop-color="#3BEA62"/>
      <stop offset="0.786" stop-color="#087CFA"/>
    </linearGradient>
    <linearGradient id="c" x1="16.2951" x2="67.9264" y1="39.3502" y2="58.0409" gradientUnits="userSpaceOnUse">
      <stop offset="0.1209" stop-color="#1FAEB5"/>
      <stop offset="0.9746" stop-color="#087CFA"/>
    </linearGradient>
    <linearGradient id="d" x1="1.4348" x2="68.1101" y1="42.2516" y2="12.6329" gradientUnits="userSpaceOnUse">
      <stop offset="0.1209" stop-color="#1FAEB5"/>
      <stop offset="0.8556" stop-color="#FCF84A"/>
    </linearGradient>
  </defs>
  <path fill="url(#a)" d="M64.9765 8.29965C64.1745 7.86318 63.0808 7.49945 62.2058 7.35395C61.6225 7.35395 24.3642 0.224872 22.3956 0.0793808C21.4477 0.00663505 20.4269 0.0793808 19.4791 0.224872C2.19877 2.77097 -2.17598 23.7945 12.1149 32.5967C15.4689 34.6336 19.4791 35.3611 23.3434 34.4881C30.1243 33.0332 60.6018 25.5404 62.5704 25.1039C71.0283 23.2853 72.8511 12.4462 64.9765 8.29965Z"/>
  <path fill="url(#b)" d="M65.3411 40.6714C63.8829 38.9982 37.4885 9.09972 31.8742 4.22575C30.7805 3.28006 29.4681 2.40711 28.0099 1.60691C25.385 0.224739 22.3956 -0.284481 19.4791 0.151993C3.8758 2.5526 -1.22808 19.9388 8.46929 29.7595C9.49007 30.8507 38.5093 63.0043 38.8009 63.368C40.1134 64.9684 41.7174 66.4961 43.759 67.7328C47.113 69.8424 51.1961 70.4971 55.1333 69.6242C69.4242 66.4234 74.0177 50.3465 65.3411 40.6714Z"/>
  <path fill="url(#c)" d="M59.7998 36.4521C59.2165 36.1611 58.6332 35.8701 57.977 35.6519C57.4666 35.5064 18.2396 23.1396 17.3647 22.9214C15.9064 22.5576 14.3752 22.4849 12.917 22.7031C-1.08223 24.74 -4.65495 41.8353 6.93815 49.0371C9.63592 50.7103 45.436 68.6057 46.3839 68.9694C49.1545 69.9879 52.144 70.2061 55.0605 69.5514C71.8304 65.9141 75.2572 44.5269 59.7998 36.4521Z"/>
  <path fill="url(#d)" d="M64.9766 8.29953C63.6642 7.57207 62.133 7.35383 60.6018 7.57207C59.7998 7.71756 59.0707 7.86305 58.3416 8.15404C54.9147 9.5362 10.0005 23.2852 8.76099 23.8671C-1.66551 28.3774 -3.3425 42.6355 6.93817 49.0372C9.63594 50.7103 12.917 51.2923 16.1252 50.5648C17.3647 50.2738 18.6042 49.9101 19.625 49.4009C25.1663 46.782 64.612 24.5218 65.4141 24.0854C71.32 20.6663 71.8304 11.9368 64.9766 8.29953Z"/>
  <g>
    <path fill="#000000" d="M56 14H14V56H56V14Z"/>
    <path fill="#FFFFFF" d="M34.4167 48.65H18.6667V51.3334H34.4167V48.65Z"/>
    <g>
      <path fill="#FFFFFF" d="M36.0001 19.13H39.458V31.8553H46.3048V34.76H36.0001V19.13Z"/>
      <path fill="#FFFFFF" d="M18.67 19.13H24.7561C29.6664 19.13 33.0552 22.5188 33.0552 26.8758V26.945C33.0552 31.3712 29.6664 34.76 24.7561 34.76H18.67V19.13ZM22.128 22.2422V31.6478H24.7561C27.5916 31.6478 29.4589 29.7805 29.4589 27.0142V26.945C29.4589 24.1786 27.5916 22.2422 24.7561 22.2422H22.128V22.2422Z"/>
    </g>
  </g>
</svg>
