<svg xmlns="http://www.w3.org/2000/svg" width="254" height="64" fill="none" viewBox="0 0 254 64">
  <defs>
    <linearGradient id="a" x1="56.3293" x2="2.87497" y1="-.39187" y2="24.3916" gradientUnits="userSpaceOnUse">
      <stop offset=".1" stop-color="#3BEA62"/>
      <stop offset=".59" stop-color="#F0EB18"/>
    </linearGradient>
    <linearGradient id="b" x1="4.06745" x2="62.663" y1="4.32643" y2="62.922" gradientUnits="userSpaceOnUse">
      <stop offset=".26" stop-color="#F0EB18"/>
      <stop offset=".65" stop-color="#087CFA"/>
    </linearGradient>
  </defs>
  <path fill="#fff" d="M102.812 18.93c-2.23-1.28-4.7598-1.93-7.5898-1.93h-11.23v29.96h11.24c2.83 0 5.3498-.64 7.5898-1.93 2.23-1.28 3.98-3.06 5.23-5.33 1.26-2.27 1.88-4.84 1.88-7.73 0-2.89-.63-5.46-1.88-7.73-1.25-2.27-3-4.04-5.23-5.33l-.01.02Zm.51 18.53c-.76 1.56-1.85 2.75-3.25 3.6-1.3998.85-3.0398 1.26-4.8898 1.26h-5.86V21.64h5.86c1.85 0 3.49.42 4.8898 1.26 1.4.84 2.49 2.04 3.25 3.6.76 1.55 1.14 3.38 1.14 5.48 0 2.1-.38 3.92-1.14 5.48Zm27.4-9.1c-.71-1.09-1.62-1.97-2.73-2.63-1.36-.8-2.95-1.2-4.76-1.2-1.95 0-3.7.49-5.23 1.47-1.53.98-2.74 2.34-3.61 4.09-.87 1.75-1.3 3.72-1.3 5.92 0 2.2.43 4.17 1.3 5.92.87 1.75 2.08 3.11 3.62 4.09s3.28 1.47 5.22 1.47c1.81 0 3.4-.4 4.76-1.2 1.11-.65 2.02-1.54 2.73-2.63v3.31h4.96V25.05h-4.96v3.31Zm-.81 11.27c-.53 1.05-1.26 1.87-2.2 2.46-.94.59-2.03.89-3.25.89-1.22 0-2.27-.29-3.21-.88-.94-.58-1.67-1.41-2.19-2.46s-.78-2.27-.78-3.64.26-2.58.78-3.63c.52-1.05 1.25-1.87 2.19-2.46.94-.59 2.01-.89 3.21-.89 1.2 0 2.31.3 3.25.89.94.59 1.68 1.41 2.2 2.46.53 1.05.79 2.26.79 3.63s-.26 2.58-.79 3.63Zm17.62-19.93h-4.71v3.55c0 .53-.17.96-.49 1.29-.33.33-.76.5-1.31.5h-2.4l-.02 4.39h3.85l.02 11.71c0 1.11.26 2.11.78 3 .52.88 1.25 1.58 2.18 2.08.93.5 1.99.75 3.16.75h4.73v-4.39h-3.72c-.6 0-1.1-.2-1.49-.59-.39-.39-.59-.89-.59-1.49l-.02-11.06h5.82l.02-4.39h-5.82V19.7h.01Zm25.04 8.66c-.71-1.09-1.62-1.97-2.73-2.63-1.36-.8-2.95-1.2-4.76-1.2-1.96 0-3.7.49-5.23 1.47-1.53.98-2.74 2.34-3.61 4.09-.87 1.75-1.31 3.72-1.31 5.92 0 2.2.44 4.17 1.31 5.92.87 1.75 2.08 3.11 3.62 4.09s3.28 1.47 5.22 1.47c1.81 0 3.4-.4 4.76-1.2 1.11-.65 2.02-1.54 2.73-2.63v3.31h4.97V25.05h-4.97v3.31Zm-.82 11.27c-.53 1.05-1.26 1.87-2.21 2.46-.94.59-2.03.89-3.25.89-1.22 0-2.27-.29-3.21-.88-.94-.59-1.67-1.41-2.19-2.46-.52-1.06-.78-2.27-.78-3.64s.26-2.58.78-3.63c.52-1.05 1.25-1.87 2.19-2.46.94-.59 2.01-.89 3.21-.89 1.2 0 2.31.3 3.25.89.94.59 1.68 1.41 2.21 2.46s.79 2.26.79 3.63-.26 2.58-.79 3.63Zm10.76 7.33h5.05V17h-5.05v29.96Zm26.15-20.93c-1.75-1-3.71-1.5-5.86-1.5-2.15 0-4.13.5-5.9 1.5-1.76 1-3.14 2.37-4.14 4.12-1 1.75-1.5 3.7-1.5 5.85 0 2.15.5 4.11 1.51 5.85 1.01 1.74 2.39 3.12 4.14 4.12 1.75 1 3.71 1.5 5.86 1.5 2.15 0 4.13-.5 5.88-1.5s3.14-2.37 4.14-4.12c1-1.75 1.51-3.7 1.51-5.85 0-2.15-.5-4.11-1.51-5.85-1.01-1.75-2.39-3.12-4.14-4.12h.01Zm-.4 13.59c-.52 1.06-1.26 1.88-2.21 2.46-.96.58-2.05.88-3.27.88-1.22 0-2.32-.29-3.26-.88-.95-.58-1.68-1.41-2.2-2.46-.52-1.05-.78-2.26-.78-3.62 0-1.36.26-2.58.78-3.64s1.26-1.88 2.2-2.46c.95-.58 2.04-.88 3.26-.88 1.22 0 2.31.3 3.26.89.95.59 1.69 1.41 2.21 2.46.53 1.05.79 2.26.79 3.63s-.26 2.56-.78 3.62Zm16.8-13.51c-.83.57-1.53 1.33-2.1 2.26v-3.32h-5.01v21.92h5.05V35.14c0-1.06.22-1.97.67-2.74.45-.77 1.09-1.36 1.93-1.78.83-.41 1.82-.62 2.94-.62h1.41v-5.09h-.81c-1.56 0-2.92.4-4.09 1.21l.01-.01Zm28.49 9.87c0-2.23-.47-4.21-1.4-5.94-.93-1.73-2.24-3.08-3.93-4.06-1.69-.98-3.6-1.46-5.76-1.46-2.16 0-4.03.5-5.77 1.49-1.73.99-3.1 2.36-4.1 4.1-1 1.74-1.5 3.69-1.5 5.84s.5 4.17 1.49 5.93c.99 1.75 2.35 3.12 4.07 4.11 1.72.98 3.66 1.48 5.81 1.48 1.7 0 3.25-.26 4.64-.79 1.4-.53 2.59-1.28 3.57-2.25s1.73-2.13 2.25-3.49h-5.5c-.56.74-1.25 1.32-2.1 1.73-.85.41-1.79.62-2.85.62-1.2 0-2.27-.29-3.22-.88-.95-.58-1.69-1.4-2.23-2.45-.43-.83-.68-1.76-.78-2.77h17.29v-1.22l.02.01Zm-17.2-2.16c.13-.72.34-1.4.67-2.02.54-1.02 1.28-1.82 2.23-2.4.95-.58 2.02-.87 3.22-.87 1.2 0 2.26.3 3.18.9.92.6 1.63 1.43 2.13 2.49.28.59.47 1.22.59 1.89h-12.02v.01Z"/>
  <path fill="#3BEA62" d="M57.9994 16.446V4.18737c0-2.30372-1.8869-4.161205-4.1906-4.12433L42.7659.239292c-1.1813.01875-2.2975.543121-3.0663 1.439988L6.99315 39.8376C6.35253 40.5851 6 41.5375 6 42.5219v11.3492c0 2.2781 1.84685 4.125 4.125 4.125h11.003c1.1894 0 2.3212-.5137 3.1043-1.4087l32.7465-37.4246c.6581-.7519 1.0206-1.7168 1.0206-2.7162v-.0006Z"/>
  <path fill="url(#a)" d="M57.9999 14.9867V4.12495C57.9999 1.84685 56.1531 0 53.875 0H41.3095c-.2 0-.4.014372-.5981.043746L3.52681 5.49181C1.50121 5.78868 0 7.52616 0 9.57301V24.9703c0 2.2787 1.84751 4.1256 4.12623 4.125l18.50417-.0044c.4256 0 .8487-.0663 1.2537-.1956l31.2453-9.9786c1.7093-.5463 2.8699-2.135 2.8699-3.9294l.0006-.0006Z"/>
  <path fill="url(#b)" d="M63.9992 59.877V25.7499c0-1.6581-.9931-3.1549-2.5206-3.7999L24.0579 6.15266c-.5182-.21875-1.0757-.32937-1.6381-.32437l-18.32863.15C1.8262 5.99704 0 7.83826 0 10.1032v17.6654c0 .8057.235598 1.5932.678093 2.2663L21.7866 62.1439c.7625 1.1606 2.0581 1.8587 3.4468 1.8587h34.6409c2.2781 0 4.1249-1.8469 4.1249-4.125v-.0006Z"/>
  <path fill="#000" d="M51.9995 12H12v39.9995h39.9995V12Z"/>
  <path fill="#fff" fill-rule="evenodd" d="M16.9961 16.9922h5.7131c1.4218 0 2.6955.3212 3.8211.9643 1.1257.6432 2.0063 1.5344 2.6419 2.6744.6356 1.14.9537 2.4275.9537 3.8643 0 1.4369-.3181 2.7244-.9537 3.8643-.6362 1.14-1.5169 2.0313-2.6419 2.6744-1.1256.6431-2.3993.9644-3.8211.9644h-5.7131V16.9922Zm8.028 11.8761c.6719-.4 1.19-.9737 1.5544-1.7206.3644-.7469.5469-1.6306.5469-2.6531 0-1.0225-.1825-1.9062-.5469-2.6531-.3644-.7469-.8825-1.32-1.5544-1.7206-.6718-.4-1.4544-.6-2.3475-.6h-2.7549v9.9468h2.7549c.8931 0 1.6757-.1994 2.3475-.5994Z" clip-rule="evenodd"/>
  <path fill="#fff" d="M32.9988 43.998H16.999v3h15.9998v-3Z"/>
  <path fill="#fff" d="M35.6034 29.3614V16.9922h-2.9149v15.0061h10.0324v-2.6369h-7.1175Z"/>
</svg>
