<svg xmlns="http://www.w3.org/2000/svg" width="583" height="91" fill="none" viewBox="0 0 583 91">
  <path fill="#000" d="M149.868 3.92829H117.005V89.2749H149.868C176.348 89.2749 194.645 70.6212 194.645 46.6015V46.3555C194.645 22.3398 176.348 3.92829 149.868 3.92829ZM175.264 46.8476C175.264 61.9611 165.033 72.3278 149.868 72.3278H135.544V20.8754H149.868C165.033 20.8754 175.264 31.4842 175.264 46.6016V46.8476ZM227.238 23.1932C218.601 22.9962 210.034 24.7901 202.202 28.4361L206.774 42.5772C212.427 40.2528 218.478 39.053 224.59 39.0449C233.739 39.0449 238.43 43.3073 238.43 50.9911V52.0865C233.374 50.2649 228.035 49.3565 222.662 49.4036C207.377 49.4036 196.666 55.9919 196.666 70.256V70.4982C196.666 83.4208 206.655 90.4894 218.812 90.4894C227.718 90.4894 233.858 87.2032 238.311 82.2024V89.2749H256.004V51.3563C256.004 42.5772 253.837 35.3855 249.023 30.5078C244.451 25.8762 237.227 23.1932 227.238 23.1932H227.238ZM238.672 66.2316C238.672 72.935 232.893 77.6897 224.348 77.6897C218.45 77.6897 214.359 74.7647 214.359 69.7639V69.5218C214.359 63.6677 219.173 60.5006 226.996 60.5006C231.017 60.4679 234.999 61.2989 238.672 62.9374L238.672 66.2316ZM286.604 7.2224H268.308V23.9235H260.604V39.7751H268.308V70.7403C268.308 85.8616 275.892 90.3703 287.085 90.3703C292.161 90.51 297.173 89.1993 301.531 86.592V71.7167C298.769 73.2492 295.661 74.0473 292.502 74.0345C288.41 74.0345 286.604 71.9627 286.604 67.6922V39.7751H301.769V23.9235H286.604V7.2224ZM337.612 23.1932C328.975 22.9962 320.409 24.7902 312.577 28.4361L317.149 42.5772C322.802 40.2528 328.853 39.053 334.965 39.0449C344.113 39.0449 348.805 43.3073 348.805 50.9911V52.0865C343.749 50.2649 338.41 49.3564 333.036 49.4036C317.752 49.4036 307.04 55.9919 307.04 70.256V70.4982C307.04 83.4208 317.03 90.4894 329.187 90.4894C338.093 90.4894 344.233 87.2032 348.686 82.2024V89.2749H366.379V51.3563C366.379 42.5772 364.212 35.3855 359.398 30.5078C354.826 25.8762 347.602 23.1932 337.612 23.1932ZM349.047 66.2316C349.047 72.935 343.268 77.6897 334.723 77.6897C328.825 77.6897 324.734 74.7647 324.734 69.7639V69.5218C324.734 63.6677 329.548 60.5006 337.371 60.5006C341.392 60.4679 345.374 61.2989 349.047 62.9374V66.2316ZM375.611 89.2749H393.907V0.272949H375.611V89.2749ZM436.513 22.705C416.411 22.705 401.484 37.9455 401.484 56.7222V56.9643C401.484 75.741 416.288 90.7354 436.271 90.7354C456.373 90.7354 471.296 75.495 471.296 56.7222V56.4761C471.296 37.7033 456.493 22.705 436.513 22.705V22.705ZM453.242 56.9643C453.242 66.5968 446.983 74.7647 436.513 74.7647C426.4 74.7647 419.538 66.3507 419.538 56.7223V56.4762C419.538 46.8476 425.797 38.6757 436.271 38.6757C446.38 38.6757 453.242 47.0897 453.242 56.7223V56.9643ZM496.955 37.0922V23.9235H478.663V89.2749H496.956V65.1322C496.956 49.5266 504.421 42.0929 516.578 42.0929H517.542V22.705C506.707 22.2168 500.69 28.0669 496.956 37.0922H496.955ZM582.755 58.1828C582.755 39.6521 572.885 22.705 551.338 22.705C532.561 22.705 519.444 38.0685 519.444 56.7223V56.9643C519.444 76.9595 533.768 90.7355 553.144 90.7355C564.82 90.7355 573.488 86.1037 579.505 78.543L569.035 69.1567C563.979 73.9114 559.526 75.8601 553.386 75.8601C545.202 75.8601 539.423 71.4705 537.617 63.0605H582.513C582.636 61.3539 582.755 59.6473 582.755 58.1828V58.1828ZM537.375 51.4754C538.82 43.0653 543.757 37.5764 551.338 37.5764C559.041 37.5764 563.86 43.1884 564.943 51.4754H537.375Z"/>
  <path fill="#000" d="M85 4H0V89H85V4Z"/>
  <path fill="#fff" d="M42.5 73.0625H10.625V78.3749H42.5V73.0625Z"/>
  <path fill="#fff" d="M10.5952 14.5137H23.0648C33.1134 14.5137 40.0561 21.4109 40.0561 30.4088V30.5005C40.0561 39.4984 33.1134 46.4869 23.0648 46.4869H10.5952V14.5137ZM17.6294 20.8629V40.1381H23.0648C28.8201 40.1381 32.7024 36.2554 32.7024 30.5918V30.5005C32.7677 29.2176 32.5631 27.9353 32.1019 26.7365C31.6407 25.5376 30.933 24.4489 30.0247 23.5406C29.1164 22.6323 28.0277 21.9247 26.8288 21.4634C25.63 21.0022 24.3477 20.7976 23.0648 20.8629H17.6294Z"/>
  <path fill="#fff" d="M44.6094 14.542H51.6585V40.5887H65.6401V46.5021H44.6094V14.542Z"/>
</svg>
