<svg xmlns="http://www.w3.org/2000/svg" width="64" height="64" fill="none" viewBox="0 0 64 64">
  <defs>
    <linearGradient id="a" gradientUnits="userSpaceOnUse" x1="56.3294" x2="2.87438" y1="-.391251" y2="24.3925">
      <stop offset=".1" stop-color="#3bea62"/>
      <stop offset=".59" stop-color="#f0eb18"/>
    </linearGradient>
    <linearGradient id="b" gradientUnits="userSpaceOnUse" x1="4.0675" x2="62.6638" y1="4.32641" y2="62.9227">
      <stop offset=".26" stop-color="#f0eb18"/>
      <stop offset=".65" stop-color="#087cfa"/>
    </linearGradient>
  </defs>
  <path d="m58 16.4462v-12.25879c0-2.30375-1.8869-4.161245-4.1906-4.12437l-11.0431.17625c-1.1813.01875-2.2975.543125-3.0663 1.44l-32.70688 38.15811c-.64062.7475-.99312 1.7-.99312 2.6844v11.3494c0 2.2781 1.84687 4.125 4.125 4.125h11.0031c1.1894 0 2.3213-.5138 3.1044-1.4088l32.7469-37.425c.6581-.7519 1.0206-1.7169 1.0206-2.7162z"
        fill="#3bea62"/>
  <path d="m58 14.9875v-10.8625c0-2.27813-1.8469-4.125-4.125-4.125h-12.5656c-.2 0-.4.014375-.5981.04375l-37.18442 5.44813c-2.02563.29687-3.52688 2.03437-3.52688 4.08124v15.39748c0 2.2788 1.8475 4.1256 4.12625 4.125l18.50435-.0044c.4256 0 .8488-.0662 1.2538-.1956l31.2456-9.9787c1.7094-.5463 2.87-2.135 2.87-3.9294z"
        fill="url(#a)"/>
  <path d="m64 59.8777v-34.1275c0-1.6582-.9931-3.155-2.5206-3.8l-37.4213-15.79754c-.5181-.21875-1.0756-.32937-1.6381-.32437l-18.32875.15c-2.265.01812-4.09125 1.85937-4.09125 4.12441v17.6656c0 .8056.235625 1.5931.678125 2.2662l21.108775 32.1094c.7625 1.1606 2.0581 1.8588 3.4468 1.8588h34.6413c2.2781 0 4.125-1.8469 4.125-4.125z"
        fill="url(#b)"/>
  <path d="m52 12h-40v40h40z" fill="#000"/>
  <path d="m33 44h-16v3h16z" fill="#fff"/>
  <path d="m16.9961 16.9922h5.7131c1.4219 0 2.6956.3212 3.8213.9644 1.1256.6431 2.0062 1.5343 2.6418 2.6743.6357 1.14.9538 2.4275.9538 3.8644s-.3181 2.7244-.9538 3.8644c-.6362 1.14-1.5168 2.0312-2.6418 2.6744-1.1257.6431-2.3994.9643-3.8213.9643h-5.7131zm8.0281 11.8762c.6719-.4 1.19-.9737 1.5544-1.7206s.5469-1.6306.5469-2.6531-.1825-1.9063-.5469-2.6531c-.3644-.7469-.8825-1.32-1.5544-1.7207-.6719-.4-1.4544-.6-2.3475-.6h-2.755v9.9469h2.755c.8931 0 1.6756-.2 2.3475-.6z" fill="#fff"/>
  <path d="m35.6025 16.9922v12.3694h7.1175v2.6368h-10.0325v-15.0062h2.9156z" fill="#fff"/>
</svg>
