<svg width="105" height="105" fill="none" xmlns="http://www.w3.org/2000/svg"><path d="M94.083 15.377a13.217 13.217 0 00-3.814-1.305c-.803 0-52.1-9.832-54.81-10.033-1.305-.1-2.71 0-4.015.201C7.65 7.751 1.627 36.746 21.304 48.885c4.618 2.81 10.138 3.813 15.46 2.609 9.335-2.007 51.296-12.34 54.006-12.942 11.646-2.508 14.155-17.458 3.315-23.175h-.002z" fill="url(#paint0_linear)"/><path d="M94.934 59.771C92.918 57.477 56.437 16.48 48.677 9.796c-1.511-1.298-3.325-2.494-5.34-3.592A19.344 19.344 0 0031.546 4.21C9.979 7.502 2.925 31.34 16.328 44.81c1.41 1.494 41.52 45.586 41.923 46.086 1.815 2.194 4.032 4.29 6.854 5.984 4.634 2.893 10.278 3.79 15.72 2.595 19.752-4.39 26.102-26.436 14.109-39.704z" fill="url(#paint1_linear)"/><path d="M87.002 53.994c-.8-.399-1.6-.8-2.5-1.1-.7-.199-54.49-17.198-55.69-17.498a15.708 15.708 0 00-6.099-.3c-19.197 2.8-24.096 26.298-8.2 36.197 3.7 2.3 52.792 26.896 54.092 27.396a20.97 20.97 0 0011.897.8c22.997-5 27.696-34.396 6.5-45.495z" fill="url(#paint2_linear)"/><path d="M94.1 15.298C92.3 14.3 90.201 14 88.102 14.3c-1.1.2-2.1.4-3.1.8-4.7 1.9-66.289 20.798-67.988 21.597-14.297 6.199-16.598 25.797-2.5 34.596a16.766 16.766 0 0012.598 2.1c1.7-.4 3.4-.9 4.799-1.6 7.599-3.6 61.69-34.196 62.79-34.796 8.098-4.699 8.798-16.698-.6-21.698z" fill="url(#paint3_linear)"/><path d="M22.5 22.5h60v60h-60v-60z" fill="#000"/><path d="M29.98 71.16h22.5v3.75h-22.5v-3.75zM30 29.92h8.8c7.09 0 12 4.87 12 11.22v.07c0 6.35-4.9 11.28-12 11.28H30V29.92zm5 4.48V48h3.84a6.429 6.429 0 006.8-6.74v-.06a6.49 6.49 0 00-6.8-6.81L35 34.4zM54 29.94h5v18.39h9.87v4.17H54V29.94z" fill="#fff"/><defs><linearGradient id="paint0_linear" x1="34.103" y1="27.872" x2="92.585" y2="39.534" gradientUnits="userSpaceOnUse"><stop offset=".242" stop-color="#3BEA62"/><stop offset=".857" stop-color="#FCF84A"/></linearGradient><linearGradient id="paint1_linear" x1="27.928" y1="10.736" x2="83.501" y2="96.129" gradientUnits="userSpaceOnUse"><stop offset=".018" stop-color="#3BEA62"/><stop offset=".786" stop-color="#087CFA"/></linearGradient><linearGradient id="paint2_linear" x1="27.346" y1="57.978" x2="98.184" y2="83.562" gradientUnits="userSpaceOnUse"><stop offset=".121" stop-color="#1FAEB5"/><stop offset=".975" stop-color="#087CFA"/></linearGradient><linearGradient id="paint3_linear" x1="6.967" y1="61.965" x2="98.468" y2="21.413" gradientUnits="userSpaceOnUse"><stop offset=".121" stop-color="#1FAEB5"/><stop offset=".856" stop-color="#FCF84A"/></linearGradient></defs></svg>