<svg xmlns="http://www.w3.org/2000/svg" width="64" height="64" fill="none" viewBox="0 0 64 64">
  <defs>
    <linearGradient id="b" x1="56.3293" x2="2.87497" y1="-.39187" y2="24.3916" gradientUnits="userSpaceOnUse">
      <stop offset=".1" stop-color="#3BEA62"/>
      <stop offset=".59" stop-color="#F0EB18"/>
    </linearGradient>
    <linearGradient id="c" x1="4.06843" x2="62.664" y1="4.32252" y2="62.9181" gradientUnits="userSpaceOnUse">
      <stop offset=".26" stop-color="#F0EB18"/>
      <stop offset=".65" stop-color="#087CFA"/>
    </linearGradient>
    <clipPath id="a">
      <path fill="#fff" d="M0 0h64v64H0z"/>
    </clipPath>
  </defs>
  <g clip-path="url(#a)">
    <path fill="#3BEA62" d="M57.9994 16.4489V4.1903c0-2.30372-1.8869-4.161205-4.1906-4.12433L42.7659.242221c-1.1813.018749-2.2975.54312-3.0663 1.439988L6.99315 39.8405C6.35253 40.588 6 41.5405 6 42.5248v11.3493c0 2.2781 1.84685 4.1249 4.125 4.1249h11.003c1.1894 0 2.3212-.5137 3.1043-1.4087l32.7465-37.4246c.6581-.7518 1.0206-1.7168 1.0206-2.7162v-.0006Z"/>
    <path fill="url(#b)" d="M57.9999 14.9867V4.12495C57.9999 1.84685 56.1531 0 53.875 0H41.3095c-.2 0-.4.014372-.5981.043746L3.52681 5.49181C1.50121 5.78868 0 7.52616 0 9.57301V24.9703c0 2.2787 1.84751 4.1256 4.12623 4.125l18.50407-.0044c.4257 0 .8488-.0663 1.2538-.1956l31.2453-9.9786c1.7093-.5463 2.8699-2.135 2.8699-3.9294l.0006-.0006Z"/>
    <path fill="url(#c)" d="M64.0002 59.8731V25.746c0-1.6581-.9931-3.1549-2.5206-3.7999L24.0588 6.14876c-.5181-.21875-1.0756-.32938-1.6381-.32438l-18.32855.15C1.82717 5.99313.000977 7.83436.000977 10.0993v17.6654c0 .8057.235597 1.5931.678092 2.2663L21.7876 62.14c.7624 1.1606 2.0581 1.8587 3.4468 1.8587h34.6408c2.2781 0 4.125-1.8469 4.125-4.125v-.0006Z"/>
    <path fill="#000" d="M51.9995 11.999H12v39.9995h39.9995V11.999Z"/>
    <path fill="#fff" fill-rule="evenodd" d="M16.9971 16.9932h5.713c1.4219 0 2.6956.3212 3.8212.9643s2.0063 1.5344 2.6419 2.6744c.6356 1.14.9537 2.4274.9537 3.8643s-.3181 2.7243-.9537 3.8643c-.6362 1.14-1.5169 2.0312-2.6419 2.6744-1.1256.6431-2.3993.9643-3.8212.9643h-5.713v-15.006Zm8.028 11.8761c.6719-.4 1.19-.9738 1.5544-1.7206.3643-.7469.5468-1.6306.5468-2.6531 0-1.0225-.1825-1.9062-.5468-2.6531-.3644-.7469-.8825-1.32-1.5544-1.7206-.6719-.4-1.4544-.6-2.3475-.6h-2.7549v9.9467h2.7549c.8931 0 1.6756-.1993 2.3475-.5993Z" clip-rule="evenodd"/>
    <path fill="#fff" d="M32.9998 43.999H17v3h15.9998v-3Z"/>
    <path fill="#fff" d="M35.6044 29.3624V16.9932h-2.9149v15.006h10.0324v-2.6368h-7.1175Z"/>
  </g>
</svg>
