<svg height="112.5" viewBox="0 0 507 112.5" width="507" xmlns="http://www.w3.org/2000/svg" xmlns:xlink="http://www.w3.org/1999/xlink"><linearGradient id="a" gradientUnits="userSpaceOnUse" x1="28.15908" x2="79.71011" y1="29.62944" y2="81.18047"><stop offset=".17004" stop-color="#07c3f2"/><stop offset=".96993" stop-color="#087cfa"/></linearGradient><path d="m0 0h505.18242v112.5h-505.18242z" fill="none"/><path d="m100.98976 39.0158 1.53857-1.32227c1.16064 1.75391 2.34814 2.69922 4.31885 2.69922 2.13232 0 3.69775-1.53906 3.69775-4.53516v-12.65918h2.15967v12.63281c0 2.21387-.64795 3.88672-1.72754 4.9668-1.05273 1.02539-2.4834 1.56543-4.15723 1.56543-2.83398 0-4.64258-1.4043-5.83008-3.34766z"/><path d="m116.59766 35.15642v-.05469c0-4.02148 2.83447-7.26074 6.69433-7.26074 4.12988 0 6.50537 3.29394 6.50537 7.36914 0 .27051 0 .43262-.02734.6748h-11.06689c.29687 3.02344 2.4292 4.72461 4.9126 4.72461 1.9165 0 3.26611-.7832 4.3999-1.9707l1.2959 1.16016c-1.40381 1.56543-3.10449 2.61816-5.74951 2.61816-3.83301 0-6.96435-2.94238-6.96435-7.26074zm11.09424-.81055c-.21582-2.53711-1.67383-4.75-4.4541-4.75-2.4292 0-4.26465 2.02441-4.53467 4.75z"/><path d="m133.69922 38.3947v-8.4209h-1.94336v-1.83496h1.94336v-4.21094h2.07812v4.21094h4.42725v1.83496h-4.42725v8.15137c0 1.70117.94482 2.32227 2.34863 2.32227.70166 0 1.29541-.13574 2.02441-.48633v1.78125c-.729.37793-1.51172.59375-2.51025.59375-2.24023 0-3.94092-1.10645-3.94092-3.94141z"/><path d="m143.65967 23.19842h8.04394c2.15918 0 3.85986.62109 4.93945 1.67383.78271.80957 1.21484 1.80762 1.21484 3.02246v.05469c0 2.45605-1.51172 3.72461-2.99609 4.37305 2.24023.67383 4.04883 1.9707 4.04883 4.56152v.05371c0 3.23926-2.72656 5.15625-6.85644 5.15625h-8.39453v-18.8955zm12.03857 4.99316c0-1.86133-1.48437-3.07617-4.18359-3.07617h-5.74951v6.50488h5.5874c2.56445 0 4.3457-1.16113 4.3457-3.37402zm-3.96777 5.31836h-5.96533v6.66699h6.34326c2.86133 0 4.64258-1.26855 4.64258-3.37402v-.05469c0-2.05078-1.72754-3.23828-5.02051-3.23828z"/><path d="m162.89648 28.13884h2.07861v3.64355c1.02588-2.32129 3.05029-3.99512 5.69531-3.88769v2.24023h-.16211c-3.0498 0-5.5332 2.1875-5.5332 6.39844v5.56055h-2.07861v-13.95507z"/><path d="m172.37109 38.04509v-.05469c0-2.94141 2.42969-4.50781 5.96533-4.50781 1.78174 0 3.05029.24316 4.29199.59375v-.48633c0-2.50977-1.53857-3.80469-4.15674-3.80469-1.64648 0-2.94238.43164-4.23779 1.02539l-.62109-1.70117c1.53857-.70117 3.05029-1.16016 5.07471-1.16016 1.9707 0 3.48193.5127 4.50781 1.53906.94482.94434 1.43066 2.29394 1.43066 4.07519v8.53027h-1.99756v-2.10547c-.97168 1.26758-2.59131 2.40234-5.04785 2.40234-2.59082 0-5.20947-1.48437-5.20947-4.3457zm10.28418-1.08008v-1.34961c-1.02539-.29687-2.40234-.59375-4.10254-.59375-2.61865 0-4.07617 1.13281-4.07617 2.88769v.05371c0 1.75488 1.61963 2.78125 3.50928 2.78125 2.56396 0 4.66943-1.56641 4.66943-3.7793z"/><path d="m188.86229 22.79314h2.37549v2.29492h-2.37549zm.13477 5.3457h2.07861v13.95507h-2.07861z"/><path d="m195.60643 28.13884h2.07861v2.42871c.91748-1.51172 2.37549-2.72656 4.77783-2.72656 3.37402 0 5.34424 2.26758 5.34424 5.58789v8.66504h-2.07812v-8.15234c0-2.5918-1.40381-4.21094-3.86035-4.21094-2.40234 0-4.18359 1.75391-4.18359 4.37305v7.99023h-2.07861v-13.95507z"/><path d="m210.85887 40.31169 1.05273-1.48437c1.51172 1.13379 3.18506 1.78223 4.83154 1.78223 1.67383 0 2.88818-.86426 2.88818-2.21484v-.05273c0-1.4043-1.64648-1.94336-3.48193-2.45703-2.18652-.62109-4.61572-1.37695-4.61572-3.94141v-.05273c0-2.40234 1.99756-3.99609 4.75098-3.99609 1.70019 0 3.58984.59375 5.02051 1.53906l-.94482 1.56543c-1.29541-.83691-2.78027-1.34961-4.12988-1.34961-1.64648 0-2.69922.86426-2.69922 2.02441v.05469c0 1.32227 1.72754 1.83496 3.58984 2.40234 2.15967.64746 4.48096 1.48437 4.48096 3.99414v.05469c0 2.64453-2.18652 4.18359-4.9668 4.18359-1.99756 0-4.21094-.7832-5.77637-2.05176z"/><path d="m104.34673 49.43349h3.66956v32.94417h-3.66956z"/><path d="m114.61195 58.04604h3.5768v4.23568c1.57832-2.63553 4.08699-4.75337 8.22036-4.75337 5.80582 0 9.19573 3.9533 9.19573 9.74206v15.10726h-3.57543v-14.21306c0-4.51806-2.41591-7.34184-6.64204-7.34184-4.13337 0-7.19861 3.0591-7.19861 7.62422v13.93068h-3.5768v-24.33162z"/><path d="m142.15685 75.93002v-14.68369h-3.34353v-3.20029h3.34353v-7.34184h3.5768v7.34184h7.61741v3.20029h-7.61741v14.21306c0 2.96498 1.62607 4.04743 4.04061 4.04743 1.20727 0 2.22902-.23532 3.48404-.84714v3.10616c-1.25502.65888-2.60143 1.03539-4.32026 1.03539-3.85509 0-6.78119-1.92959-6.78119-6.87121z"/><path d="m155.16401 70.28245v-.09413c0-7.0124 4.87547-12.65997 11.51751-12.65997 7.10585 0 11.19284 5.7417 11.19284 12.84823 0 .47063 0 .75301-.04638 1.17658h-19.04216c.51156 5.27107 4.17975 8.23604 8.45363 8.23604 3.29715 0 5.61893-1.36483 7.56966-3.43561l2.23038 2.02371c-2.41591 2.72966-5.34201 4.56512-9.89281 4.56512-6.59566 0-11.98269-5.12988-11.98269-12.65997zm19.08854-1.41189c-.37241-4.42393-2.87972-8.28311-7.66379-8.28311-4.17975 0-7.33776 3.52973-7.80293 8.28311z"/><path d="m182.15097 48.0216h3.5768v34.35607h-3.5768z"/><path d="m192.04515 48.0216h3.5768v34.35607h-3.5768z"/><path d="m201.70605 48.72755h4.08699v4.00036h-4.08699zm.23191 9.31849h3.5768v24.33162h-3.5768z"/><path d="m208.95241 77.01247 2.64781-2.30609c1.99711 3.0591 4.04061 4.70631 7.43188 4.70631 3.6682 0 6.36239-2.6826 6.36239-7.9066v-22.0726h3.71594v22.02553c0 3.85917-1.11451 6.77709-2.97248 8.65961-1.81159 1.7884-4.27388 2.72966-7.15223 2.72966-4.87683 0-7.98846-2.44728-10.03332-5.83582z"/><path d="m247.08856 49.43349h3.6682v14.63663h18.76387v-14.63663h3.66956v32.94417h-3.66956v-14.82488h-18.76387v14.82488h-3.6682z"/><path d="m288.52186 52.8691h-10.96094v-3.43561h25.59144v3.43561h-10.96094v29.50857h-3.66956z"/><path d="m315.974 52.8691h-10.96094v-3.43561h25.59144v3.43561h-10.96094v29.50857h-3.66956z"/><path d="m334.97523 49.43349h12.16821c7.33776 0 12.16821 3.9533 12.16821 10.44801v.09413c0 7.10653-5.8522 10.77745-12.77253 10.77745h-7.89569v11.62459h-3.6682v-32.94417zm11.70304 17.93104c5.38839 0 8.91744-2.91791 8.91744-7.24772v-.09413c0-4.70631-3.48267-7.15359-8.73055-7.15359h-8.22173v14.49544z"/><path d="m373.85348 65.99971v-.09413c0-9.31849 6.87395-17.03684 16.44209-17.03684 5.89858 0 9.42763 2.11784 12.67977 5.224l-2.50867 2.72966c-2.74058-2.63553-5.80582-4.51806-10.21748-4.51806-7.19998 0-12.587 5.92995-12.587 13.50711v.09413c0 7.62422 5.43477 13.60124 12.587 13.60124 4.45804 0 7.38414-1.74133 10.49576-4.75337l2.41591 2.40022c-3.39127 3.48267-7.10585 5.78876-13.00443 5.78876-9.38262 0-16.30295-7.48303-16.30295-16.94272z"/><path d="m407.15782 48.0216h3.5768v34.35607h-3.5768z"/><path d="m416.82008 48.72755h4.08699v4.00036h-4.08699zm.23191 9.31849h3.5768v24.33162h-3.5768z"/><path d="m425.13457 70.28245v-.09413c0-7.0124 4.87547-12.65997 11.51751-12.65997 7.10585 0 11.19284 5.7417 11.19284 12.84823 0 .47063 0 .75301-.04638 1.17658h-19.04216c.51156 5.27107 4.17975 8.23604 8.45363 8.23604 3.29715 0 5.61893-1.36483 7.56966-3.43561l2.23038 2.02371c-2.41591 2.72966-5.34201 4.56512-9.89281 4.56512-6.59566 0-11.98269-5.12988-11.98269-12.65997zm19.08854-1.41189c-.37241-4.42393-2.87972-8.28311-7.66379-8.28311-4.17975 0-7.33776 3.52973-7.80293 8.28311z"/><path d="m451.79687 58.04604h3.5768v4.23568c1.57832-2.63553 4.08699-4.75337 8.22036-4.75337 5.80582 0 9.19573 3.9533 9.19573 9.74206v15.10726h-3.57543v-14.21306c0-4.51806-2.41591-7.34184-6.64204-7.34184-4.13337 0-7.19861 3.0591-7.19861 7.62422v13.93068h-3.5768v-24.33162z"/><path d="m479.34313 75.93002v-14.68369h-3.34353v-3.20029h3.34353v-7.34184h3.5768v7.34184h7.61741v3.20029h-7.61741v14.21306c0 2.96498 1.62607 4.04743 4.04061 4.04743 1.20727 0 2.22902-.23532 3.48267-.84714v3.10616c-1.25365.65888-2.60007 1.03539-4.3189 1.03539-3.85509 0-6.78119-1.92959-6.78119-6.87121z"/><path d="m22.47123 23.94158v22.63259h22.48741l.00006-11.8176 29.56163 19.18354-29.56182 19.18648.00006-11.8176h-22.48734v22.63259h60v-60z" fill="url(#a)"/></svg>