<?xml version="1.0" encoding="utf-8"?>
<!-- Generator: Adobe Illustrator 19.1.0, SVG Export Plug-In . SVG Version: 6.00 Build 0)  -->
<svg version="1.1" xmlns="http://www.w3.org/2000/svg" xmlns:xlink="http://www.w3.org/1999/xlink" x="0px" y="0px"
	 width="565.6px" height="90.2px" viewBox="0 0 565.6 90.2" style="enable-background:new 0 0 565.6 90.2;" xml:space="preserve">
<g>
	<g>
		<path d="M104.5,56.3V56c0-21.7,14.2-33.7,29.6-33.7c9.8,0,15.9,4.5,20.3,9.7V0h18.5v88.7h-18.5v-9.4
			c-4.5,6.1-10.7,10.6-20.3,10.6C119,89.9,104.5,78,104.5,56.3z M154.7,56.3V56c0-10.8-7.2-18-15.8-18s-15.9,7-15.9,18v0.2
			c0,10.8,7.3,18,15.9,18S154.7,67.1,154.7,56.3z"/>
		<path d="M176.1,56.5v-0.2c0-18.7,15.1-33.9,35.4-33.9c20.2,0,35.1,14.9,35.1,33.7v0.2
			c0,18.7-15.1,33.9-35.4,33.9C191,90.2,176.1,75.2,176.1,56.5z M228.3,56.5v-0.2c0-9.6-6.9-18-17.1-18c-10.6,0-16.9,8.1-16.9,17.7
			v0.2c0,9.6,6.9,18,17.1,18C222,74.2,228.3,66.1,228.3,56.5z"/>
		<path d="M252.8,70.2V39.4H245V23.6h7.8V6.9h18.5v16.6h15.3v15.8h-15.3v27.8c0,4.3,1.8,6.3,6,6.3
			c3.4,0,6.4-0.9,9.1-2.3V86c-3.9,2.3-8.4,3.8-14.6,3.8C260.4,89.8,252.8,85.3,252.8,70.2z"/>
		<path d="M307.5,20.9h-25.9V3.6h70.5v17.3h-25.9v67.8h-18.7V20.9z"/>
		<path d="M345.5,23.6h18.5v13.1c3.8-9,9.8-14.8,20.8-14.3v19.3h-1c-12.3,0-19.8,7.4-19.8,23v24.1h-18.5V23.6
			z"/>
		<path d="M381.5,70v-0.2c0-14.2,10.8-20.8,26.2-20.8c6.6,0,11.3,1.1,15.9,2.7v-1.1c0-7.7-4.7-11.9-14-11.9
			c-7,0-12,1.3-18,3.5l-4.6-14.1c7.2-3.2,14.2-5.2,25.3-5.2c10.1,0,17.4,2.7,22,7.3c4.9,4.9,7,12,7,20.8v37.8h-17.9v-7
			c-4.5,5-10.7,8.3-19.7,8.3C391.6,89.9,381.5,82.9,381.5,70z M423.9,65.7v-3.3c-3.2-1.5-7.3-2.4-11.8-2.4c-7.9,0-12.8,3.2-12.8,9
			v0.2c0,5,4.1,7.9,10.1,7.9C418.1,77.2,423.9,72.4,423.9,65.7z"/>
		<path d="M444.4,56.5v-0.2c0-18.6,14.2-33.9,34.1-33.9c12.3,0,19.9,4.1,26,10.9l-11.3,12.2
			c-4.1-4.4-8.3-7.2-14.8-7.2c-9.2,0-15.8,8.1-15.8,17.7v0.2c0,10,6.4,18,16.5,18c6.2,0,10.5-2.7,14.9-6.9l10.8,10.9
			c-6.3,6.9-13.6,11.9-26.6,11.9C458.7,90.2,444.4,75.1,444.4,56.5z"/>
		<path d="M501.7,56.5v-0.2c0-18.6,13.2-33.9,32.2-33.9c21.7,0,31.7,16.9,31.7,35.4c0,1.5-0.1,3.2-0.2,4.9
			H520c1.8,8.4,7.7,12.8,15.9,12.8c6.2,0,10.7-1.9,15.8-6.7l10.6,9.4c-6.1,7.5-14.8,12.2-26.6,12.2
			C516.2,90.2,501.7,76.4,501.7,56.5z M547.6,51c-1.1-8.3-6-13.9-13.7-13.9c-7.7,0-12.6,5.5-14.1,13.9H547.6z"/>
	</g>
	<g>
		<rect x="0" y="3.7" style="fill:#000000;" width="85" height="85"/>
		<rect x="8" y="73.4" style="fill:#FFFFFF;" width="31.9" height="5.3"/>
		<path style="fill:#FFFFFF;" d="M8,14.9h8.3c6.7,0,11.3,4.6,11.3,10.6v0.1c0,6-4.6,10.7-11.3,10.7H8V14.9z M12.7,19.1V32h3.6
			c3.8,0,6.4-2.6,6.4-6.4v-0.1c0-3.8-2.6-6.4-6.4-6.4H12.7z"/>
		<polygon style="fill:#FFFFFF;" points="36.1,19.2 29.7,19.2 29.7,14.9 47.3,14.9 47.3,19.2 40.8,19.2 40.8,36.2 36.1,36.2 		"/>
	</g>
</g>
</svg>
