<svg enable-background="new 0 0 565.6 90.2" height="90.2" viewBox="0 0 565.6 90.2" width="565.6" xmlns="http://www.w3.org/2000/svg"><path d="m104.5 56.3v-.3c0-21.7 14.2-33.7 29.6-33.7 9.8 0 15.9 4.5 20.3 9.7v-32h18.5v88.7h-18.5v-9.4c-4.5 6.1-10.7 10.6-20.3 10.6-15.1 0-29.6-11.9-29.6-33.6zm50.2 0v-.3c0-10.8-7.2-18-15.8-18s-15.9 7-15.9 18v.2c0 10.8 7.3 18 15.9 18s15.8-7.1 15.8-17.9z"/><path d="m176.1 56.5v-.2c0-18.7 15.1-33.9 35.4-33.9 20.2 0 35.1 14.9 35.1 33.7v.2c0 18.7-15.1 33.9-35.4 33.9-20.2 0-35.1-15-35.1-33.7zm52.2 0v-.2c0-9.6-6.9-18-17.1-18-10.6 0-16.9 8.1-16.9 17.7v.2c0 9.6 6.9 18 17.1 18 10.6 0 16.9-8.1 16.9-17.7z"/><path d="m252.8 70.2v-30.8h-7.8v-15.8h7.8v-16.7h18.5v16.6h15.3v15.8h-15.3v27.8c0 4.3 1.8 6.3 6 6.3 3.4 0 6.4-.9 9.1-2.3v14.9c-3.9 2.3-8.4 3.8-14.6 3.8-11.4 0-19-4.5-19-19.6z"/><path d="m307.5 20.9h-25.9v-17.3h70.5v17.3h-25.9v67.8h-18.7z"/><path d="m345.5 23.6h18.5v13.1c3.8-9 9.8-14.8 20.8-14.3v19.3h-1c-12.3 0-19.8 7.4-19.8 23v24.1h-18.5z"/><path d="m381.5 70v-.2c0-14.2 10.8-20.8 26.2-20.8 6.6 0 11.3 1.1 15.9 2.7v-1.1c0-7.7-4.7-11.9-14-11.9-7 0-12 1.3-18 3.5l-4.6-14.1c7.2-3.2 14.2-5.2 25.3-5.2 10.1 0 17.4 2.7 22 7.3 4.9 4.9 7 12 7 20.8v37.8h-17.9v-7c-4.5 5-10.7 8.3-19.7 8.3-12.1-.2-22.2-7.2-22.2-20.1zm42.4-4.3v-3.3c-3.2-1.5-7.3-2.4-11.8-2.4-7.9 0-12.8 3.2-12.8 9v.2c0 5 4.1 7.9 10.1 7.9 8.7.1 14.5-4.7 14.5-11.4z"/><path d="m444.4 56.5v-.2c0-18.6 14.2-33.9 34.1-33.9 12.3 0 19.9 4.1 26 10.9l-11.3 12.2c-4.1-4.4-8.3-7.2-14.8-7.2-9.2 0-15.8 8.1-15.8 17.7v.2c0 10 6.4 18 16.5 18 6.2 0 10.5-2.7 14.9-6.9l10.8 10.9c-6.3 6.9-13.6 11.9-26.6 11.9-19.5.1-33.8-15-33.8-33.6z"/><path d="m501.7 56.5v-.2c0-18.6 13.2-33.9 32.2-33.9 21.7 0 31.7 16.9 31.7 35.4 0 1.5-.1 3.2-.2 4.9h-45.4c1.8 8.4 7.7 12.8 15.9 12.8 6.2 0 10.7-1.9 15.8-6.7l10.6 9.4c-6.1 7.5-14.8 12.2-26.6 12.2-19.5-.2-34-14-34-33.9zm45.9-5.5c-1.1-8.3-6-13.9-13.7-13.9s-12.6 5.5-14.1 13.9z"/><path d="m0 3.7h85v85h-85z"/><g fill="#fff"><path d="m8 73.4h31.9v5.3h-31.9z"/><path d="m8 14.9h8.3c6.7 0 11.3 4.6 11.3 10.6v.1c0 6-4.6 10.7-11.3 10.7h-8.3zm4.7 4.2v12.9h3.6c3.8 0 6.4-2.6 6.4-6.4v-.1c0-3.8-2.6-6.4-6.4-6.4z"/><path d="m36.1 19.2h-6.4v-4.3h17.6v4.3h-6.5v17h-4.7z"/></g></svg>