<svg xmlns="http://www.w3.org/2000/svg" width="259" height="64" fill="none" viewBox="0 0 259 64">
  <defs>
    <linearGradient id="a" x1="-.390625" x2="24.3925" y1="7.67063" y2="61.1256" gradientUnits="userSpaceOnUse">
      <stop offset=".18" stop-color="#6B57FF"/>
      <stop offset=".54" stop-color="#FF2358"/>
    </linearGradient>
    <linearGradient id="b" x1="4.32509" x2="62.9207" y1="59.9325" y2="1.33625" gradientUnits="userSpaceOnUse">
      <stop offset=".12" stop-color="#FF2358"/>
      <stop offset=".92" stop-color="#FF45ED"/>
    </linearGradient>
  </defs>
  <path fill="#000" d="M100.62 28.33c-.71-1.07-1.61-1.95-2.71-2.59-1.36-.8-2.95-1.2-4.76-1.2-1.96 0-3.7.49-5.23 1.47-1.53.98-2.74 2.34-3.61 4.09-.87 1.75-1.31 3.72-1.31 5.92 0 2.2.44 4.17 1.31 5.92.87 1.75 2.08 3.11 3.62 4.09s3.28 1.47 5.22 1.47c1.81 0 3.4-.4 4.76-1.2 1.1-.65 2-1.52 2.71-2.59v3.28h5.05V17.03h-5.05v11.32-.02Zm-.79 11.31c-.53 1.05-1.26 1.87-2.21 2.46-.94.59-2.03.89-3.25.89-1.22 0-2.27-.29-3.21-.88-.94-.58-1.67-1.4-2.19-2.46s-.78-2.27-.78-3.64.26-2.58.78-3.63c.52-1.05 1.25-1.87 2.19-2.46.94-.59 2.01-.89 3.21-.89 1.2 0 2.31.3 3.25.89.94.59 1.68 1.41 2.21 2.46s.79 2.26.79 3.63-.26 2.58-.79 3.63Zm26.91-13.61c-1.75-1-3.71-1.5-5.86-1.5-2.15 0-4.13.5-5.9 1.5-1.76 1-3.14 2.37-4.14 4.12-1 1.75-1.5 3.7-1.5 5.85 0 2.15.5 4.11 1.51 5.85 1.01 1.75 2.39 3.12 4.14 4.12 1.75 1 3.71 1.5 5.86 1.5 2.15 0 4.13-.5 5.89-1.5 1.76-1 3.13-2.37 4.14-4.12 1.01-1.75 1.51-3.7 1.51-5.85 0-2.15-.5-4.11-1.51-5.85-1.01-1.75-2.39-3.12-4.14-4.12Zm-.39 13.59c-.52 1.06-1.26 1.88-2.21 2.46-.95.58-2.05.88-3.27.88-1.22 0-2.32-.29-3.26-.88-.95-.58-1.68-1.41-2.2-2.46-.52-1.06-.78-2.26-.78-3.62 0-1.36.26-2.58.78-3.64s1.25-1.88 2.2-2.46c.95-.58 2.04-.88 3.26-.88 1.22 0 2.31.3 3.26.89.95.59 1.69 1.41 2.21 2.46.53 1.05.79 2.26.79 3.63s-.26 2.56-.78 3.62Zm15.88-19.92h-4.71v3.55c0 .53-.16.96-.49 1.29-.33.33-.76.5-1.31.5h-2.4l-.02 4.39h3.85l.02 11.71c0 1.11.26 2.11.78 3 .52.88 1.25 1.58 2.18 2.08.93.5 1.99.75 3.16.75h4.73v-4.39h-3.72c-.6 0-1.09-.2-1.49-.59-.39-.39-.59-.89-.59-1.49l-.02-11.06h5.82l.02-4.39h-5.82V19.7h.01Zm30.18-2.7h-23.84v4.82h9.29v25.15h5.31V21.82h9.25V17h-.01Zm6.5 9.11c-.83.57-1.53 1.33-2.1 2.26v-3.32h-5.01v21.92h5.05V35.14c0-1.06.22-1.97.67-2.74.45-.77 1.09-1.36 1.93-1.78.83-.41 1.82-.62 2.94-.62h1.41v-5.09h-.81c-1.55 0-2.92.4-4.09 1.21l.01-.01Zm23.91 2.25c-.71-1.09-1.62-1.97-2.73-2.63-1.36-.8-2.95-1.2-4.76-1.2-1.95 0-3.7.49-5.23 1.47-1.53.98-2.74 2.34-3.61 4.09-.87 1.75-1.3 3.72-1.3 5.92 0 2.2.43 4.17 1.3 5.92.87 1.75 2.08 3.11 3.62 4.09s3.28 1.47 5.22 1.47c1.81 0 3.4-.4 4.76-1.2 1.11-.65 2.02-1.54 2.73-2.63v3.31h4.96V25.05h-4.96v3.31Zm-.81 11.28c-.53 1.05-1.26 1.87-2.2 2.46-.94.59-2.03.89-3.25.89-1.22 0-2.27-.29-3.21-.88-.94-.58-1.67-1.4-2.19-2.46s-.78-2.27-.78-3.64.26-2.58.78-3.63c.52-1.05 1.25-1.87 2.19-2.46.94-.59 2.01-.89 3.21-.89 1.2 0 2.31.3 3.25.89.94.59 1.68 1.41 2.2 2.46.53 1.05.79 2.26.79 3.63s-.26 2.58-.79 3.63Zm17.85-9.73c.93-.6 1.99-.9 3.16-.9.8 0 1.55.15 2.25.45.7.3 1.31.72 1.83 1.25.52.54.93 1.17 1.23 1.92h5.37c-.39-1.6-1.08-3.01-2.09-4.23-1.01-1.22-2.25-2.17-3.73-2.85-1.48-.68-3.11-1.02-4.88-1.02-2.14 0-4.08.5-5.81 1.5-1.73 1-3.1 2.37-4.09 4.12-.99 1.75-1.49 3.7-1.49 5.85 0 2.15.5 4.11 1.49 5.85.99 1.75 2.35 3.12 4.09 4.12 1.74 1 3.67 1.5 5.81 1.5 1.77 0 3.4-.34 4.88-1.02 1.48-.68 2.73-1.63 3.73-2.85 1.01-1.22 1.7-2.63 2.09-4.23h-5.37c-.3.74-.71 1.38-1.23 1.92s-1.13.95-1.83 1.25c-.7.3-1.45.45-2.25.45-1.17 0-2.22-.3-3.16-.91-.94-.61-1.67-1.44-2.19-2.5-.53-1.06-.79-2.26-.79-3.58 0-1.32.26-2.54.79-3.61.53-1.06 1.26-1.89 2.19-2.49v.01Zm38.46 6.08c0-2.23-.47-4.21-1.4-5.94-.93-1.73-2.24-3.08-3.93-4.06-1.68-.97-3.6-1.46-5.76-1.46-2.16 0-4.03.5-5.77 1.49-1.74.99-3.1 2.36-4.1 4.1-1 1.74-1.5 3.69-1.5 5.84s.5 4.17 1.49 5.93c.99 1.75 2.35 3.12 4.07 4.11 1.72.98 3.66 1.48 5.81 1.48 1.7 0 3.25-.26 4.64-.79 1.4-.53 2.59-1.28 3.57-2.25s1.73-2.13 2.25-3.49h-5.5c-.56.74-1.25 1.32-2.1 1.73-.84.41-1.79.62-2.85.62-1.2 0-2.27-.29-3.22-.88-.95-.58-1.69-1.4-2.23-2.45-.43-.83-.68-1.76-.78-2.77h17.29v-1.22l.02.01Zm-17.2-2.17c.13-.72.34-1.4.67-2.02.54-1.02 1.28-1.82 2.23-2.4.95-.58 2.02-.87 3.22-.87 1.2 0 2.26.3 3.18.9.92.6 1.63 1.43 2.13 2.49.28.59.47 1.22.59 1.89h-12.02v.01Z"/>
  <path fill="#6B57FF" d="M16.4501 6H4.19132C1.88757 6 .03007 7.88688.066946 10.1906l.17625 11.0431C.261946 22.415.786321 23.5312 1.6832 24.3l38.1587 32.7069c.7475.6406 1.7.9931 2.6844.9931h11.3494c2.2781 0 4.125-1.8469 4.125-4.125V42.8719c0-1.1894-.5138-2.3213-1.4088-3.1044L19.1663 7.02063C18.4144 6.3625 17.4494 6 16.4501 6Z"/>
  <path fill="url(#a)" d="M14.9875 6H4.125C1.84687 6 0 7.84687 0 10.125v12.5656c0 .2.014375.4.04375.5981l5.44813 37.1851c.29687 2.0256 2.03437 3.5268 4.08124 3.5268H24.9706c2.2788 0 4.1256-1.8475 4.125-4.1262L29.0912 41.37c0-.4256-.0662-.8488-.1956-1.2538L18.9169 8.87062c-.5463-1.70937-2.135-2.86999-3.9294-2.86999V6Z"/>
  <path fill="url(#b)" d="M59.8757 0H25.7482c-1.6581 0-3.155.993125-3.8 2.52063L6.15071 39.9419c-.21875.5181-.32938 1.0756-.32438 1.6381l.15 18.3287C5.99508 62.1737 7.83633 64 10.1013 64H27.767c.8056 0 1.5931-.2356 2.2662-.6781l32.1094-21.1088c1.1606-.7625 1.8587-2.0581 1.8587-3.4468V4.125C64.0007 1.84687 62.1538 0 59.8757 0Z"/>
  <path fill="#000" d="M52 12H12v40h40V12Z"/>
  <path fill="#fff" fill-rule="evenodd" d="M16.9902 16.9922h5.7132c1.4218 0 2.6956.3212 3.8212.9644 1.1256.6431 2.0063 1.5343 2.6425 2.6743.6356 1.14.9538 2.4275.9538 3.8644 0 1.4369-.3182 2.7244-.9538 3.8644-.6362 1.14-1.5169 2.0312-2.6425 2.6744-1.1256.6431-2.3994.9643-3.8212.9643h-5.7132V16.9922Zm8.0282 11.8762c.6718-.4 1.19-.9737 1.5543-1.7206.3644-.7469.5469-1.6306.5469-2.6531 0-1.0225-.1825-1.9063-.5469-2.6531-.3643-.7469-.8825-1.32-1.5543-1.7207-.6719-.4-1.4544-.6-2.3475-.6h-2.755v9.9469h2.755c.8931 0 1.6756-.1994 2.3475-.5994Z" clip-rule="evenodd"/>
  <path fill="#fff" d="M32.9932 43.9984h-16v3h16v-3Z"/>
  <path fill="#fff" d="M43.1646 16.9922H31.1277l-.0006 2.6369h4.5663v12.3693h2.9262V19.6291h4.545v-2.6369Z"/>
</svg>
