<svg xmlns="http://www.w3.org/2000/svg" width="128" height="128" fill="none" viewBox="0 0 128 128">
  <defs>
    <linearGradient id="a" x1="-.78125" x2="48.785" y1="15.3413" y2="122.251" gradientUnits="userSpaceOnUse">
      <stop offset=".18" stop-color="#6B57FF"/>
      <stop offset=".54" stop-color="#FF2358"/>
    </linearGradient>
    <linearGradient id="b" x1="8.64822" x2="125.839" y1="119.865" y2="2.6725" gradientUnits="userSpaceOnUse">
      <stop offset=".12" stop-color="#FF2358"/>
      <stop offset=".92" stop-color="#FF45ED"/>
    </linearGradient>
  </defs>
  <path fill="#6B57FF" d="M32.9001 12H8.38264c-4.6075 0-8.322498 3.7738-8.248748 8.3813l.3525 22.0862C.523892 44.83 1.57264 47.0625 3.36639 48.6l76.31751 65.414c1.495 1.281 3.4 1.986 5.3687 1.986h22.6984c4.557 0 8.25-3.694 8.25-8.25V85.7438c0-2.3788-1.027-4.6425-2.817-6.2088L38.3326 14.0413C36.8289 12.725 34.8989 12 32.9001 12Z"/>
  <path fill="url(#a)" d="M29.975 12H8.25C3.69375 12 0 15.6937 0 20.25v25.1312c0 .4.02875.8.0875 1.1963l10.8963 74.3705c.5937 4.051 4.0687 7.053 8.1624 7.053h30.795c4.5575 0 8.2513-3.695 8.25-8.252l-.0087-37.009c0-.8513-.1325-1.6975-.3913-2.5075L37.8338 17.7412c-1.0925-3.4187-4.27-5.7399-7.8588-5.7399V12Z"/>
  <path fill="url(#b)" d="M119.749 0H51.4945c-3.3163 0-6.31 1.98625-7.6 5.04125L12.2995 79.8838c-.4375 1.0362-.6588 2.1512-.6488 3.2762l.3 36.657c.0375 4.53 3.72 8.183 8.25 8.183H55.532c1.6112 0 3.1862-.471 4.5325-1.356l64.2185-42.2178c2.321-1.525 3.718-4.1162 3.718-6.8937V8.25c-.002-4.55625-3.695-8.25-8.252-8.25Z"/>
  <path fill="#000" d="M104 24H24v80h80V24Z"/>
  <path fill="#fff" d="M66 88H34v6h32v-6Z"/>
  <path fill="#fff" d="M33.9941 33.9844h11.4263c2.8437 0 5.3912.6425 7.6425 1.9287 2.2512 1.2863 4.0125 3.0688 5.285 5.3488 1.2712 2.28 1.9075 4.855 1.9075 7.7287 0 2.8738-.6363 5.4488-1.9075 7.7288-1.2725 2.28-3.0338 4.0625-5.285 5.3487-2.2513 1.2863-4.7988 1.9288-7.6425 1.9288H33.9941V33.9844Zm16.0563 23.7525c1.3437-.8 2.38-1.9475 3.1087-3.4413.7288-1.4937 1.0938-3.2612 1.0938-5.3062 0-2.045-.365-3.8125-1.0938-5.3063-.7287-1.4937-1.765-2.64-3.1087-3.4412-1.3438-.8-2.9088-1.2-4.695-1.2h-5.51v19.8937h5.51c1.7862 0 3.3512-.4 4.695-1.2v.0013Z"/>
  <path fill="#fff" d="M62.2688 33.9844h24.0738v5.2737h-9.09v24.7388h-5.8525V39.2581h-9.1325v-5.2737h.0012Z"/>
</svg>
