<svg enable-background="new 0 0 70 70" height="70" viewBox="0 0 70 70" width="70" xmlns="http://www.w3.org/2000/svg" xmlns:xlink="http://www.w3.org/1999/xlink"><linearGradient id="a" gradientUnits="userSpaceOnUse" x1="-1.3318" x2="67.0419" y1="43.7371" y2="26.0967"><stop offset=".1237" stop-color="#7866ff"/><stop offset=".5376" stop-color="#fe2eb6"/><stop offset=".8548" stop-color="#fd0486"/></linearGradient><linearGradient id="b" gradientUnits="userSpaceOnUse" x1="45.9148" x2="67.6577" y1="38.9098" y2="9.0989"><stop offset=".1237" stop-color="#ff0080"/><stop offset=".2587" stop-color="#fe0385"/><stop offset=".4109" stop-color="#fa0c92"/><stop offset=".5713" stop-color="#f41ba9"/><stop offset=".7363" stop-color="#eb2fc8"/><stop offset=".8656" stop-color="#e343e6"/></linearGradient><path d="m67.3 16-23.6-16-43.7 31.1 11.1 38.9 47.8-9.7z" fill="url(#a)"/><path d="m67.3 16-23.6-16-5.7 15.7v32.1h32z" fill="url(#b)"/><path d="m13.4 13.4h43.2v43.2h-43.2z"/><g fill="#fff"><path d="m17.4 48.5h16.2v2.7h-16.2z"/><path d="m17.4 19.1h6.9c5.6 0 9.5 3.8 9.5 8.9 0 5-3.9 8.9-9.5 8.9h-6.9zm4 3.6v10.7h3c3.2 0 5.4-2.2 5.4-5.3v-.1c0-3.2-2.2-5.4-5.4-5.4h-3z"/><path d="m40.3 22.7h-5.4v-3.6h14.7v3.6h-5.4v14.3h-3.9z"/></g></svg>