<svg xmlns="http://www.w3.org/2000/svg" width="70" height="70" fill="none" viewBox="0 0 70 70">
  <defs>
    <linearGradient id="a" x1="-1.33177" x2="67.0417" y1="43.7371" y2="26.0968" gradientUnits="userSpaceOnUse">
      <stop offset="0.12336" stop-color="#6B57FF"/>
      <stop offset="0.53763" stop-color="#FF45ED"/>
      <stop offset="0.85425" stop-color="#DD1265"/>
    </linearGradient>
    <linearGradient id="b" x1="45.9149" x2="67.6577" y1="38.9098" y2="9.09894" gradientUnits="userSpaceOnUse">
      <stop offset="0.19227" stop-color="#DD1265"/>
      <stop offset="0.29496" stop-color="#DE146A"/>
      <stop offset="0.41064" stop-color="#E21977"/>
      <stop offset="0.53264" stop-color="#E7218E"/>
      <stop offset="0.65903" stop-color="#EF2DAD"/>
      <stop offset="0.78757" stop-color="#F93CD5"/>
      <stop offset="0.85317" stop-color="#FF45ED"/>
    </linearGradient>
  </defs>
  <path fill="url(#a)" d="M67.3065 16.0267L43.7466 0L0 31.0707L11.0851 70L58.9005 60.3039L67.3065 16.0267Z"/>
  <path fill="url(#b)" d="M67.3066 16.0267L43.7468 0L37.9504 15.7199V47.7701H70L67.3066 16.0267Z"/>
  <g>
    <path fill="#000000" d="M56 14H14V56H56V14Z"/>
    <path fill="#FFFFFF" d="M34.4166 48.6499H18.6666V51.3332H34.4166V48.6499Z"/>
    <path fill="#FFFFFF" d="M19 19.0016H25.1337C30.0767 19.0016 33.4917 22.3943 33.4917 26.8204V26.8654C33.4917 31.2915 30.0767 34.7291 25.1337 34.7291H19V19.0016ZM22.4601 22.1248V31.6061H25.1338C27.9647 31.6061 29.8745 29.6962 29.8745 26.9103V26.8654C29.9066 26.2344 29.8059 25.6037 29.5791 25.0139C29.3522 24.4242 29.0041 23.8887 28.5573 23.4419C28.1105 22.9951 27.575 22.647 26.9853 22.4201C26.3956 22.1933 25.7648 22.0926 25.1338 22.1248H22.4601Z"/>
    <path fill="#FFFFFF" d="M39.9826 22.1738H35.1921V18.98L48.2367 18.9805V22.1738H43.4461V34.7235H39.9821L39.9826 22.1738Z"/>
  </g>
</svg>
