<svg xmlns="http://www.w3.org/2000/svg" width="617" height="91" fill="none" viewBox="0 0 617 91">
  <path fill="#000" d="M0 4H85V89H0V4Z"/>
  <path fill="#fff" d="M10.543 73.0078H42.4715V78.3292H10.543V73.0078Z"/>
  <path fill="#fff" d="M10.5713 14.4863H23.0589C33.12 14.4863 40.0875 21.3971 40.0875 30.408V30.5074C40.0875 39.5183 33.1341 46.5142 23.0589 46.5142H10.5713V14.4863ZM17.6665 20.8437V40.1143H23.1157C24.3953 40.1897 25.6764 39.9946 26.8756 39.5418C28.0747 39.0889 29.165 38.3885 30.0754 37.4861C30.9858 36.5838 31.6959 35.4997 32.1593 34.3046C32.6228 33.1095 32.8292 31.8302 32.7652 30.5499V30.4648C32.8302 29.1798 32.6252 27.8954 32.1634 26.6945C31.7017 25.4936 30.9934 24.4027 30.0843 23.4922C29.1752 22.5818 28.0853 21.8719 26.8851 21.4084C25.6848 20.9449 24.4008 20.738 23.1157 20.8011L17.6665 20.8437Z"/>
  <path fill="#fff" d="M53.2704 20.9431H43.5073V14.4438H70.0719V20.9431H60.323V46.5001H53.2704V20.9431Z"/>
  <path fill="#fff" d="M333.518 20.9715H307.592V3.6875H378.176V20.9715H352.25V88.8729H333.518V20.9715Z"/>
  <path fill="#fff" d="M380.702 23.6394H399.149V36.7939C402.91 27.783 408.998 21.9365 419.953 22.4332V41.7748H418.988C406.684 41.7748 399.121 49.1964 399.121 64.7775V88.9014H380.673L380.702 23.6394Z"/>
  <path fill="#fff" d="M422.791 70.1412V69.9141C422.791 55.7236 433.632 49.1109 449.085 49.1109C454.514 49.0606 459.909 49.9685 465.021 51.7929V50.686C465.021 43.0232 460.282 38.766 451.03 38.766C444.855 38.7699 438.74 39.9698 433.022 42.2994L428.396 28.109C436.328 24.4655 444.985 22.6749 453.712 22.8727C463.801 22.8727 471.109 25.5547 475.735 30.1808C480.603 35.0481 482.83 42.2285 482.83 50.984V88.8726H464.95V81.7773C460.438 86.7724 454.237 90.0504 445.226 90.0504C432.894 90.093 422.791 83.0403 422.791 70.1412V70.1412ZM465.263 65.884V62.5918C461.549 60.9512 457.53 60.1192 453.47 60.1511C445.552 60.1511 440.699 63.3155 440.699 69.162V69.4032C440.699 74.3983 444.843 77.3215 450.803 77.3215C459.43 77.3215 465.263 72.5677 465.263 65.8698V65.884Z"/>
  <path fill="#fff" d="M489.457 56.6319V56.3907C489.394 51.8932 490.236 47.4289 491.935 43.2642C493.635 39.0995 496.155 35.3197 499.347 32.1505C502.539 28.9812 506.336 26.4874 510.513 24.8178C514.689 23.1482 519.16 22.3371 523.657 22.4329C535.945 22.4329 543.608 26.5623 549.696 33.3879L538.344 45.5492C534.214 41.1643 530.071 38.3688 523.5 38.3688C514.248 38.3688 507.678 46.5283 507.678 56.1353V56.3907C507.678 66.324 514.135 74.3984 524.224 74.3984C530.44 74.3984 534.697 71.7164 539.195 67.4593L550.065 78.4285C543.736 85.3676 536.428 90.3485 523.401 90.3485C518.939 90.4344 514.505 89.6227 510.363 87.9616C506.221 86.3005 502.455 83.8238 499.289 80.6787C496.123 77.5337 493.621 73.7843 491.932 69.6535C490.243 65.5226 489.402 61.0944 489.457 56.6319V56.6319Z"/>
  <path fill="#fff" d="M552.038 56.6322V56.3909C552.038 37.7588 565.306 22.4331 584.293 22.4331C606.075 22.4331 616.051 39.3482 616.051 57.9093C616.051 59.3283 615.937 61.0738 615.81 62.7766H570.4C572.231 71.1774 578.063 75.5481 586.35 75.5481C592.551 75.5481 597.05 73.604 602.158 68.8502L612.759 78.2301C606.671 85.7652 597.901 90.3913 586.095 90.3913C566.526 90.3345 552.038 76.584 552.038 56.6322V56.6322ZM598.057 51.1546C596.95 42.9525 592.083 37.2763 584.293 37.2763C576.502 37.2763 571.635 42.7539 570.173 51.1546H598.057Z"/>
  <path fill="#fff" d="M114.729 56.3767V56.1355C114.729 34.3531 128.92 22.4331 144.43 22.4331C148.343 22.3534 152.219 23.1925 155.749 24.8832C159.278 26.5739 162.361 29.0689 164.751 32.1678V0.0405273H183.199V88.8729H164.751V79.5072C160.253 85.5949 154.051 90.0933 144.43 90.0933C129.218 90.0933 114.729 78.1733 114.729 56.3767V56.3767ZM165.006 56.3767V56.1355C165.006 45.3081 157.826 38.1278 149.184 38.1278C140.542 38.1278 133.234 45.223 133.234 56.1355V56.3767C133.234 67.2182 140.542 74.3986 149.184 74.3986C157.826 74.3986 165.006 67.2182 165.006 56.3767V56.3767Z"/>
  <path fill="#fff" d="M190.606 56.6322V56.3767C190.606 37.6453 205.705 22.4331 226.082 22.4331C246.46 22.4331 261.26 37.4041 261.26 56.1355V56.3767C261.26 75.1223 246.162 90.3345 225.784 90.3345C205.407 90.3345 190.606 75.3636 190.606 56.6322ZM242.94 56.6322V56.3767C242.94 46.7698 236.001 38.369 225.784 38.369C215.198 38.369 208.869 46.5285 208.869 56.1355V56.3767C208.869 65.9979 215.808 74.3986 226.025 74.3986C236.611 74.3986 242.94 66.2391 242.94 56.6322V56.6322Z"/>
  <path fill="#fff" d="M271.676 70.3825V39.4615H263.886V23.6391H271.676V6.97949H290.124V23.6391H305.464V39.4615H290.124V67.3316C290.124 71.5887 291.955 73.6605 296.098 73.6605C299.278 73.6665 302.408 72.8658 305.194 71.3333V86.2049C300.778 88.8099 295.718 90.1181 290.592 89.9796C279.268 89.9796 271.676 85.5238 271.676 70.3825Z"/>
</svg>
