<svg xmlns="http://www.w3.org/2000/svg" width="128" height="128" fill="none" viewBox="0 0 128 128">
<defs>
    <radialGradient id="a" cx="123.445" cy="3.3925" gradientUnits="userSpaceOnUse" r="168.026">
      <stop offset=".03" stop-color="#fe2857"/>
      <stop offset=".71" stop-color="#007eff"/>
    </radialGradient>
  </defs>
  <path fill="url(#a)"
        d="m119.75 0h-68.3325c-2.1875 0-4.2862.86875-5.8337 2.41625l-43.16755 43.16755c-1.5475 1.5475-2.41625 3.6449-2.41625 5.8337v68.3325c0 4.556 3.69375 8.25 8.25 8.25h68.3325c2.1887 0 4.2863-.869 5.8338-2.416l43.1647-43.1677c1.548-1.5475 2.416-3.6451 2.416-5.8326l.003-68.33245c0-4.55625-3.694-8.25-8.25-8.25z"/>
  <path fill="#000" d="m104 24h-80v80h80z"/>
  <path fill="#fff" d="m66 88h-32v6h32z"/>
  <path fill="#fff"
        d="m33.998 58.7669h5.96v-19.5513h-5.96v-5.2312h17.6863v5.2312h-5.96v19.5513h5.96v5.2312h-17.6863z"/>
  <path fill="#fff"
        d="m55.2852 58.5956h4.3087c.8713 0 1.6475-.185 2.3263-.5575.6787-.3712 1.2037-.8962 1.5762-1.5762.3713-.6788.5575-1.4538.5575-2.3263v-20.1512h5.8525v20.5587c0 1.8013-.415 3.4188-1.2437 4.855-.8288 1.4363-1.9725 2.5613-3.43 3.3763s-3.0938 1.2225-4.9088 1.2225h-5.0375v-5.4025z"/>
</svg>
