<svg height="64" viewBox="0 0 64 64" width="64" xmlns="http://www.w3.org/2000/svg" xmlns:xlink="http://www.w3.org/1999/xlink"><linearGradient id="a" gradientTransform="matrix(1 0 0 -1 0 66.27997)" gradientUnits="userSpaceOnUse" x1="6" x2="58" y1="34.27997" y2="34.27997"><stop offset="0" stop-color="#fe315d"/><stop offset=".0784" stop-color="#cb417e"/><stop offset=".1601" stop-color="#9e4e9b"/><stop offset=".2474" stop-color="#755bb4"/><stop offset=".3392" stop-color="#5365ca"/><stop offset=".4365" stop-color="#386ddb"/><stop offset=".5414" stop-color="#2374e9"/><stop offset=".6576" stop-color="#1478f3"/><stop offset=".794" stop-color="#0b7bf8"/><stop offset="1" stop-color="#087cfa"/></linearGradient><linearGradient id="b" gradientTransform="matrix(1 0 0 -1 0 66.27997)" gradientUnits="userSpaceOnUse" x1="6.06768" x2="30.56276" y1="25.27997" y2="25.27997"><stop offset=".2581" stop-color="#f97a12"/><stop offset=".4591" stop-color="#b07b58"/><stop offset=".7241" stop-color="#577bae"/><stop offset=".9105" stop-color="#1e7ce5"/><stop offset="1" stop-color="#087cfa"/></linearGradient><linearGradient id="c" x1="44.93399" x2="47.93399" xlink:href="#a" y1="27.07229" y2="63.82229"/><linearGradient id="d" gradientTransform="matrix(1 0 0 -1 0 66.27997)" gradientUnits="userSpaceOnUse" x1="17.86183" x2="38.45983" y1="62.07627" y2="-22.44269"><stop offset="0" stop-color="#fe315d"/><stop offset=".04023" stop-color="#f63462"/><stop offset=".1037" stop-color="#df3a71"/><stop offset=".1667" stop-color="#c24383"/><stop offset=".2912" stop-color="#ad4a91"/><stop offset=".5498" stop-color="#755bb4"/><stop offset=".9175" stop-color="#1d76ed"/><stop offset="1" stop-color="#087cfa"/></linearGradient><path d="m6 6h52v52h-52z" fill="url(#a)"/><path d="m6 24v34l24.6-26z" fill="url(#b)"/><path d="m40.734 6-5.334 6.4 8.4 27.2 14.2-16.852v-8.016l-10.684-8.732z" fill="url(#c)"/><path d="m6 58h7.89l16.91-6.2 17.2-26.4-17.02-19.4h-24.98v8.73 12.422l9.6 3.248z" fill="url(#d)"/><path d="m12 12h40v40h-40z"/><g fill="#fff"><path d="m15.79998 44.40002h15v2.59998h-15z"/><path d="m26.6 20.2v-3h-8.4v3h2.4v10.6h-2.4v3h8.4v-3h-2.4v-10.6z"/><path d="m34.4 34a5.45244 5.45244 0 0 1 -3.2-.8 6.25265 6.25265 0 0 1 -2.2-1.8l2.2-2.6a3.8015 3.8015 0 0 0 3 1.6 2.27106 2.27106 0 0 0 1.6-.6 2.98585 2.98585 0 0 0 .6-2v-10.6h3.8v10.8a10.13229 10.13229 0 0 1 -.4 2.6 2.9123 2.9123 0 0 1 -1.2 1.8 9.39415 9.39415 0 0 1 -1.8 1.2 4.33035 4.33035 0 0 1 -2.4.4"/></g></svg>