<svg height="70" viewBox="0 0 70 70" width="70" xmlns="http://www.w3.org/2000/svg" xmlns:xlink="http://www.w3.org/1999/xlink"><linearGradient id="a" gradientUnits="userSpaceOnUse" x1="6" x2="64" y1="35" y2="35"><stop offset="0" stop-color="#fe315d"/><stop offset=".0784" stop-color="#cb417e"/><stop offset=".16008" stop-color="#9e4e9b"/><stop offset=".24742" stop-color="#755bb4"/><stop offset=".33917" stop-color="#5365ca"/><stop offset=".43648" stop-color="#386ddb"/><stop offset=".54144" stop-color="#2374e9"/><stop offset=".65763" stop-color="#1478f3"/><stop offset=".794" stop-color="#0b7bf8"/><stop offset="1" stop-color="#087cfa"/></linearGradient><clipPath id="b"><path d="m6 6h58v58h-58z"/></clipPath><linearGradient id="c" gradientUnits="userSpaceOnUse" x1="12.58059" x2="24.98059" y1="25.54097" y2="67.54097"><stop offset=".25806" stop-color="#f97a12"/><stop offset=".45911" stop-color="#b07b58"/><stop offset=".7241" stop-color="#577bae"/><stop offset=".91053" stop-color="#1e7ce5"/><stop offset="1" stop-color="#087cfa"/></linearGradient><linearGradient id="d" gradientUnits="userSpaceOnUse" x1="21.83803" x2="73.70019" y1="29.05557" y2="57.75263"><stop offset="0" stop-color="#f97a12"/><stop offset=".0718" stop-color="#cb7a3e"/><stop offset=".15406" stop-color="#9e7b6a"/><stop offset=".24204" stop-color="#757b91"/><stop offset=".33443" stop-color="#537bb1"/><stop offset=".43243" stop-color="#387ccc"/><stop offset=".53813" stop-color="#237ce0"/><stop offset=".65516" stop-color="#147cef"/><stop offset=".79251" stop-color="#0b7cf7"/><stop offset="1" stop-color="#087cfa"/></linearGradient><linearGradient id="e" x1="61.16399" x2="47.46406" xlink:href="#a" y1="43.28504" y2="2.34834"/><linearGradient id="f" gradientUnits="userSpaceOnUse" x1="13.13666" x2="56.68467" y1="18.03792" y2="90.06868"><stop offset="0" stop-color="#fe315d"/><stop offset=".04023" stop-color="#f63462"/><stop offset=".10373" stop-color="#df3a71"/><stop offset=".16667" stop-color="#c24383"/><stop offset=".29121" stop-color="#ad4a91"/><stop offset=".5498" stop-color="#755bb4"/><stop offset=".91755" stop-color="#1d76ed"/><stop offset="1" stop-color="#087cfa"/></linearGradient><path d="m6 6h58v58h-58z" fill="url(#a)"/><g clip-path="url(#b)"><path d="m6 64h1.378l10.31-9.418 15.629-19.552-27.317-8.137z" fill="url(#c)"/><path d="m64 61.103v-47.297l-9.645-7.806h-10.231l-5.224 6.26 10.351 22.704-40.251 28.036 4.682 1h43.082z" fill="url(#d)"/><path d="m64 13.806-9.645-7.806h-10.231l-5.224 6.26 9.772 31.652 15.328-18.146z" fill="url(#e)"/><path d="m6 29.737 9.955 3.328-9.955 27.425v3.51h5.556l26.444-7 15.706-29.625-18.711-21.375h-28.995z" fill="url(#f)"/></g><path d="m14 14h42v42h-42z"/><g fill="#fff"><path d="m17.98999 48.125h15.75v2.625h-15.75z"/><path d="m29.269 22.649v-3.188h-8.696v3.188h2.435v11.014h-2.435v3.189h8.696v-3.189h-2.435v-11.014z"/><path d="m37.61656 37.10026a6.92231 6.92231 0 0 1 -3.41622-.77021 8.019 8.019 0 0 1 -2.27317-1.83831l2.41015-2.68347a6.88845 6.88845 0 0 0 1.503 1.27938 3.16575 3.16575 0 0 0 1.67677.46006 2.19777 2.19777 0 0 0 1.71424-.68364 3.2133 3.2133 0 0 0 .62161-2.19885v-11.205h3.92538v11.37878a7.814 7.814 0 0 1 -.42259 2.70867 5.29435 5.29435 0 0 1 -1.21736 1.93781 5.15053 5.15053 0 0 1 -1.95008 1.20509 7.66587 7.66587 0 0 1 -2.57169.40965"/></g><path d="m37 53h33v17h-33z" fill="#d99e2b"/><path d="m40.05563 66.966h7.19661v-1.72329h-5.50724v-2.94521h4.82041v-1.72325h-4.82041v-2.85131h5.43874v-1.72325h-7.12811z"/><path d="m48.15627 66.966h1.86832l1.06757-2.6268h4.9082l1.05281 2.6268h1.9277l-4.5671-10.95841h-1.6904zm3.60316-4.321 1.77945-4.35241 1.79421 4.35241z"/><path d="m59.87536 66.966h1.62869v-3.52491h1.84026a3.50285 3.50285 0 0 0 3.70715-3.74426v-.03124a3.36233 3.36233 0 0 0 -3.52185-3.6659h-3.65425zm1.62869-5.26364v-3.94818h1.89333a1.80658 1.80658 0 0 1 1.99894 1.95836v.03146a1.86938 1.86938 0 0 1 -1.99894 1.95836z"/></svg>