<svg xmlns="http://www.w3.org/2000/svg" width="70" height="70" fill="none" viewBox="0 0 70 70">
  <defs>
    <linearGradient id="a" x1="70.5058" x2="-11.4231" y1="70.4621" y2="-11.4662" gradientUnits="userSpaceOnUse">
      <stop offset="0.3475" stop-color="#087CFA"/>
      <stop offset="0.8562" stop-color="#FE2857"/>
      <stop offset="1" stop-color="#FE2857"/>
    </linearGradient>
  </defs>
  <path fill="url(#a)" d="M64 6H6V64H64V6Z"/>
  <path fill="#000000" d="M56 14H14V56H56V14Z"/>
  <path fill="#FFFFFF" d="M27.1366 22.1433V19.25H19.2733V22.1433H21.4666V32.1067H19.2733V34.9767H27.1366V32.1067H24.92V22.1433H27.1366Z"/>
  <path fill="#FFFFFF" d="M34.6967 35.21C33.46 35.21 32.4334 34.9767 31.6167 34.51C30.7767 34.0433 30.1 33.4833 29.5634 32.8533L31.7334 30.4267C32.1767 30.9167 32.6434 31.3133 33.0867 31.5933C33.5534 31.8733 34.0434 32.0133 34.6034 32.0133C35.2567 32.0133 35.77 31.8033 36.1434 31.3833C36.5167 30.9633 36.7034 30.31 36.7034 29.4V19.2733H40.25V29.5633C40.25 30.4967 40.1334 31.3133 39.8767 32.0133C39.62 32.7133 39.2467 33.2967 38.78 33.7633C38.29 34.2533 37.7067 34.6033 37.0067 34.86C36.3067 35.0933 35.5367 35.21 34.6967 35.21Z"/>
  <path fill="#FFFFFF" d="M34.4166 48.6499H18.6666V51.3332H34.4166V48.6499Z"/>
</svg>
