<svg xmlns="http://www.w3.org/2000/svg" width="64" height="64" fill="none" viewBox="0 0 64 64">
  <defs>
    <radialGradient id="a" cx="0" cy="0" r="1" gradientTransform="translate(61.7225 1.69625) scale(84.0131)" gradientUnits="userSpaceOnUse">
      <stop offset=".03" stop-color="#FE2857"/>
      <stop offset=".71" stop-color="#007EFF"/>
    </radialGradient>
  </defs>
  <path fill="url(#a)" d="M59.875 0H25.7087c-1.0937 0-2.1431.434375-2.9168 1.20812L1.20812 22.7919C.434375 23.5656 0 24.6144 0 25.7087V59.875C0 62.1531 1.84687 64 4.125 64h34.1662c1.0944 0 2.1432-.4344 2.9169-1.2081l21.5825-21.5838c.7738-.7737 1.2081-1.8225 1.2081-2.9162L64 4.12563C64 1.8475 62.1531.000625 59.875.000625V0Z"/>
  <path fill="#000" d="M52 12H12v40h40V12Z"/>
  <path fill="#fff" d="M33 44H17v3h16v-3Z"/>
  <path fill="#fff" d="M16.998 29.3834h2.98v-9.7756h-2.98v-2.6156h8.8432v2.6156h-2.98v9.7756h2.98v2.6157H16.998v-2.6157Z"/>
  <path fill="#fff" d="M27.6426 29.2978h2.1544c.4356 0 .8237-.0925 1.1631-.2787.3394-.1857.6019-.4482.7881-.7882.1856-.3393.2788-.7268.2788-1.1631V16.9922h2.9262v10.2794c0 .9006-.2075 1.7093-.6219 2.4275-.4143.7181-.9862 1.2806-1.715 1.6881-.7287.4075-1.5468.6112-2.4543.6112h-2.5188v-2.7012l-.0006.0006Z"/>
</svg>
