<svg xmlns="http://www.w3.org/2000/svg" width="752" height="163" fill="none" viewBox="0 0 752 163">
  <path fill="#000" d="M0 4H85.002V89.002H0V4Z"/>
  <path fill="#fff" d="M10.4585 72.8125H42.3343V78.1251H10.4585V72.8125Z"/>
  <path fill="#fff" d="M26.368 20.3378V14.5293H10.5293V20.3378H14.9636V40.3982H10.5293V46.2067H26.368V40.3982H21.9337V20.3378H26.368Z"/>
  <path fill="#fff" d="M41.5836 46.6601C39.4192 46.7248 37.274 46.2373 35.3501 45.2434C33.781 44.3873 32.3796 43.2546 31.2134 41.9L35.6052 37.0123C36.4002 37.9142 37.3211 38.6967 38.3394 39.3357C39.259 39.9 40.3207 40.19 41.3995 40.1716C41.9785 40.2043 42.5577 40.1096 43.0962 39.8942C43.6347 39.6788 44.1194 39.3479 44.5162 38.9249C45.3783 37.7808 45.7825 36.3562 45.6496 34.9298V14.501H52.7331V35.2556C52.7687 36.9311 52.5098 38.5999 51.968 40.1858C51.4868 41.511 50.7286 42.7185 49.7438 43.7275C48.7352 44.7131 47.5208 45.463 46.1879 45.9234C44.6828 46.4334 43.1017 46.6825 41.5128 46.6601"/>

  <path fill="#fff" d="M393.407 77.0342L405.08 64.0856C409.897 69.384 414.586 72.5858 420.494 72.5858C427.478 72.5858 431.828 68.3357 431.828 58.6171V4.1875H450.854V59.3255C450.854 69.3274 448.021 76.7934 442.906 81.851C437.792 86.9086 430.156 89.6712 420.99 89.6712C415.733 89.8075 410.515 88.7397 405.734 86.5494C400.953 84.3591 396.736 81.1044 393.407 77.0342V77.0342Z"/>
  <path fill="#fff" d="M482.588 4.1875H501.118V88.467H482.588V4.1875Z"/>
  <path fill="#fff" d="M509.817 4.1875H542.684C569.162 4.1875 587.466 22.3638 587.466 46.0935V46.3343C587.466 70.0499 569.162 88.467 542.684 88.467H509.817V4.1875ZM528.347 20.9187V71.7358H542.684C557.857 71.7358 568.086 61.493 568.086 46.5752V46.3343C568.086 31.4023 557.857 20.9187 542.684 20.9187H528.347Z"/>
  <path fill="#fff" d="M116.909 4.18778H135.454V88.4673H116.909V4.18778Z"/>
  <path fill="#fff" d="M143.94 23.9366H162.244V33.0885C166.494 27.6625 171.877 22.7324 181.142 22.7324C194.998 22.7324 203.059 31.8843 203.059 46.6888V88.4673H184.755V52.4689C184.755 43.7987 180.661 39.3503 173.676 39.3503C166.692 39.3503 162.244 43.7987 162.244 52.4689V88.4673H143.94V23.9366Z"/>
  <path fill="#fff" d="M214.166 70.1635V39.5911H206.459V23.9366H214.166V7.41785H232.469V23.9366H247.642V39.5911H232.469V67.1601C232.469 71.4102 234.269 73.4219 238.363 73.4219C241.518 73.4479 244.628 72.6729 247.401 71.1694V85.818C243.028 88.4171 238.008 89.7237 232.923 89.5865C221.759 89.5865 214.166 85.0955 214.166 70.1635Z"/>
  <path fill="#fff" d="M250.716 56.5632V56.3223C250.716 37.9052 263.835 22.7324 282.621 22.7324C304.169 22.7324 314.043 39.4636 314.043 57.7674C314.043 59.1841 313.93 60.8983 313.802 62.5842H268.893C270.692 70.886 276.472 75.2211 284.661 75.2211C290.809 75.2211 295.258 73.2944 300.244 68.6051L310.728 77.8704C304.707 85.3364 296.037 89.9123 284.349 89.9123C265.039 89.9123 250.716 76.312 250.716 56.5632ZM296.221 51.1514C295.144 42.9629 290.327 37.4236 282.621 37.4236C274.914 37.4236 270.097 42.8354 268.652 51.1514H296.221Z"/>
  <path fill="#fff" d="M319.186 0.575195H337.489V88.4106H319.186V0.575195Z"/>
  <path fill="#fff" d="M345.239 0.575195H363.542V88.4106H345.239V0.575195Z"/>
  <path fill="#fff" d="M370.81 0.575195H390.077V16.8247H370.81V0.575195ZM371.292 23.9366H389.596V88.4673H371.292V23.9366Z"/>
  <path fill="#fff" d="M593.629 4.18778H657.196V20.6782H612.046V37.7777H651.784V54.2823H612.046V71.9769H657.805V88.4673H593.629V4.18778Z"/>
  <path fill="#fff" d="M698.507 3.59276H715.607L751.732 88.4673H732.352L724.645 69.5685H689.001L681.294 88.4673H662.395L698.507 3.59276ZM718.015 53.1773L706.823 25.835L695.631 53.1631L718.015 53.1773Z"/>
  <path fill="#fff" d="M114.784 140.332V140.247C114.729 138.171 115.092 136.104 115.852 134.17C116.611 132.236 117.752 130.475 119.206 128.991C120.659 127.507 122.397 126.33 124.314 125.531C126.232 124.731 128.291 124.326 130.368 124.338C132.597 124.272 134.815 124.671 136.881 125.511C138.947 126.35 140.816 127.61 142.368 129.211L139.987 131.761C138.75 130.434 137.255 129.373 135.594 128.643C133.933 127.912 132.14 127.527 130.326 127.511C123.525 127.511 118.425 133.036 118.425 140.106V140.205C118.425 147.288 123.568 152.955 130.326 152.955C134.576 152.955 137.31 151.326 140.243 148.521L142.523 150.759C140.987 152.496 139.091 153.878 136.968 154.81C134.845 155.742 132.545 156.201 130.226 156.157C128.162 156.173 126.115 155.772 124.208 154.978C122.302 154.183 120.576 153.012 119.134 151.534C117.692 150.056 116.563 148.302 115.816 146.377C115.068 144.452 114.718 142.396 114.784 140.332Z"/>
  <path fill="#fff" d="M146.278 144.37V144.285C146.266 141.144 147.503 138.127 149.717 135.898C151.93 133.669 154.938 132.41 158.079 132.399C161.22 132.388 164.237 133.625 166.466 135.838C168.695 138.051 169.954 141.059 169.965 144.2V144.285C169.974 145.85 169.672 147.4 169.076 148.847C168.48 150.294 167.602 151.607 166.493 152.711C165.384 153.815 164.066 154.687 162.617 155.276C161.167 155.865 159.615 156.16 158.05 156.143C156.499 156.162 154.96 155.87 153.523 155.285C152.086 154.7 150.78 153.834 149.683 152.737C148.586 151.64 147.72 150.334 147.135 148.898C146.55 147.461 146.259 145.921 146.278 144.37ZM166.494 144.37V144.285C166.53 143.141 166.337 142.002 165.927 140.934C165.517 139.866 164.899 138.891 164.107 138.065C163.315 137.239 162.367 136.579 161.317 136.125C160.268 135.67 159.138 135.429 157.994 135.416C156.865 135.427 155.751 135.664 154.716 136.115C153.682 136.567 152.749 137.222 151.974 138.042C151.199 138.862 150.597 139.83 150.205 140.888C149.813 141.946 149.638 143.073 149.692 144.2V144.285C149.648 145.42 149.833 146.552 150.234 147.615C150.635 148.678 151.246 149.649 152.029 150.472C152.812 151.295 153.752 151.952 154.794 152.405C155.835 152.859 156.957 153.099 158.093 153.111C159.226 153.114 160.348 152.887 161.391 152.445C162.434 152.002 163.376 151.353 164.161 150.536C164.947 149.719 165.558 148.751 165.959 147.692C166.36 146.632 166.542 145.502 166.494 144.37Z"/>
  <path fill="#fff" d="M175.717 132.909H179.088V136.734C179.814 135.429 180.88 134.345 182.172 133.597C183.464 132.849 184.934 132.464 186.427 132.484C187.954 132.431 189.462 132.832 190.761 133.636C192.059 134.441 193.09 135.612 193.723 137.003C194.529 135.604 195.695 134.446 197.1 133.652C198.506 132.857 200.099 132.453 201.713 132.484C206.941 132.484 210.213 135.997 210.213 141.622V155.675H206.827V142.401C206.827 138.009 204.632 135.558 200.948 135.558C197.52 135.558 194.672 138.108 194.672 142.642V155.732H191.272V142.372C191.272 138.122 189.034 135.615 185.435 135.615C181.837 135.615 179.103 138.604 179.103 142.698V155.661H175.717V132.909Z"/>
  <path fill="#fff" d="M217.169 132.909H220.555V136.734C221.282 135.43 222.348 134.347 223.64 133.599C224.931 132.851 226.401 132.466 227.894 132.484C229.421 132.431 230.929 132.832 232.227 133.636C233.526 134.441 234.557 135.612 235.19 137.003C235.995 135.604 237.162 134.446 238.567 133.652C239.973 132.857 241.566 132.453 243.18 132.484C248.408 132.484 251.609 135.997 251.609 141.622V155.675H248.238V142.401C248.238 138.009 246.027 135.558 242.344 135.558C238.916 135.558 236.068 138.108 236.068 142.642V155.732H232.725V142.372C232.725 138.122 230.486 135.615 226.888 135.615C223.289 135.615 220.555 138.604 220.555 142.698V155.661H217.169V132.909Z"/>
  <path fill="#fff" d="M258.296 147.005V132.838H261.668V146.098C261.668 150.348 263.963 152.955 267.958 152.955C268.879 152.97 269.794 152.795 270.645 152.441C271.495 152.086 272.264 151.56 272.902 150.896C273.54 150.231 274.035 149.442 274.354 148.577C274.673 147.713 274.811 146.792 274.758 145.872V132.866H278.102V155.534H274.758V151.581C273.991 152.958 272.863 154.098 271.494 154.88C270.126 155.662 268.57 156.054 266.995 156.015C261.498 156.171 258.296 152.403 258.296 147.005Z"/>
  <path fill="#fff" d="M285.341 132.909H288.727V136.861C289.49 135.478 290.62 134.333 291.992 133.55C293.364 132.768 294.926 132.379 296.505 132.427C301.987 132.427 305.203 136.111 305.203 141.522V155.689H301.775V142.415C301.775 138.165 299.494 135.572 295.484 135.572C294.562 135.553 293.645 135.725 292.793 136.078C291.94 136.431 291.17 136.957 290.531 137.622C289.892 138.288 289.398 139.079 289.08 139.945C288.762 140.812 288.627 141.735 288.684 142.656V155.661H285.341V132.909Z"/>
  <path fill="#fff" d="M311.975 124.21H315.842V127.936H311.975V124.21ZM312.202 132.909H315.587V155.576H312.258L312.202 132.909Z"/>
  <path fill="#fff" d="M323.677 149.598V135.898H320.518V132.909H323.677V126.052H327.063V132.909H334.26V135.898H327.063V149.158C326.991 149.674 327.041 150.2 327.208 150.693C327.374 151.187 327.654 151.635 328.023 152.002C328.393 152.369 328.843 152.644 329.338 152.807C329.832 152.97 330.358 153.016 330.874 152.941C332.021 152.944 333.153 152.671 334.175 152.148V155.052C332.915 155.705 331.513 156.036 330.094 156.015C326.425 156.015 323.677 154.216 323.677 149.598Z"/>
  <path fill="#fff" d="M357.408 132.909H361.021L351.487 156.369C349.546 161.059 347.35 162.773 343.936 162.773C342.257 162.791 340.6 162.402 339.105 161.639L340.238 158.948C341.33 159.532 342.556 159.821 343.794 159.784C345.82 159.784 347.095 158.735 348.455 155.534L338.127 132.866H341.867L350.127 151.793L357.408 132.909Z"/>
  <path fill="#fff" d="M378.135 144.327V144.242C378.135 137.697 382.753 132.427 389.029 132.427C395.759 132.427 399.626 137.782 399.626 144.412C399.655 144.78 399.655 145.15 399.626 145.517H381.563C381.626 147.588 382.498 149.552 383.992 150.987C385.485 152.422 387.482 153.215 389.553 153.196C390.908 153.21 392.25 152.931 393.488 152.379C394.725 151.826 395.828 151.013 396.722 149.994L398.833 151.878C397.696 153.251 396.263 154.347 394.64 155.083C393.018 155.819 391.249 156.177 389.468 156.129C387.94 156.13 386.427 155.822 385.02 155.223C383.614 154.625 382.343 153.748 381.284 152.645C380.226 151.543 379.401 150.238 378.859 148.808C378.318 147.379 378.072 145.855 378.135 144.327ZM396.198 143.01C395.844 138.873 393.463 135.275 388.944 135.275C384.992 135.275 382.002 138.576 381.563 143.01H396.198Z"/>
  <path fill="#fff" d="M404.075 144.327V144.242C404.075 136.819 409.472 132.427 414.912 132.427C416.653 132.425 418.366 132.868 419.889 133.714C421.411 134.559 422.692 135.779 423.611 137.258V123.587H427.011V155.661H423.611V151.085C422.723 152.609 421.454 153.876 419.93 154.763C418.405 155.649 416.676 156.125 414.912 156.143C409.472 156.171 404.075 151.793 404.075 144.327ZM423.753 144.327V144.242C423.817 141.995 422.989 139.813 421.449 138.175C419.909 136.537 417.783 135.575 415.536 135.501C411.144 135.501 407.545 138.746 407.545 144.242V144.327C407.545 149.683 411.229 153.111 415.536 153.111C416.656 153.074 417.758 152.817 418.778 152.353C419.798 151.889 420.716 151.228 421.48 150.407C422.244 149.587 422.838 148.624 423.228 147.573C423.618 146.522 423.796 145.405 423.753 144.285V144.327Z"/>
  <path fill="#fff" d="M434.094 124.21H437.962V127.936H434.094V124.21ZM434.321 132.909H437.707V155.576H434.321V132.909Z"/>
  <path fill="#fff" d="M445.825 149.598V135.898H442.665V132.909H445.825V126.052H449.211V132.909H456.407V135.898H449.211V149.158C449.139 149.674 449.189 150.2 449.356 150.693C449.522 151.187 449.802 151.635 450.171 152.002C450.541 152.369 450.991 152.644 451.486 152.807C451.98 152.97 452.506 153.016 453.022 152.941C454.169 152.944 455.301 152.671 456.322 152.148V155.052C455.063 155.705 453.661 156.036 452.242 156.015C448.587 156.015 445.825 154.216 445.825 149.598Z"/>
  <path fill="#fff" d="M461.309 124.21H465.177V127.936H461.309V124.21ZM461.536 132.909H464.922V155.576H461.536V132.909Z"/>
  <path fill="#fff" d="M470.744 144.37V144.285C470.739 142.73 471.04 141.188 471.63 139.749C472.22 138.31 473.087 137.001 474.183 135.898C476.396 133.669 479.404 132.41 482.546 132.399C485.687 132.388 488.704 133.625 490.933 135.838C492.036 136.933 492.914 138.236 493.514 139.671C494.114 141.106 494.426 142.645 494.432 144.2V144.285C494.441 145.85 494.139 147.4 493.543 148.847C492.947 150.294 492.069 151.607 490.96 152.711C489.851 153.815 488.533 154.687 487.084 155.276C485.634 155.865 484.082 156.16 482.517 156.143C480.966 156.162 479.427 155.87 477.99 155.285C476.553 154.7 475.247 153.834 474.15 152.737C473.053 151.64 472.187 150.334 471.602 148.898C471.017 147.461 470.725 145.921 470.744 144.37ZM490.961 144.37V144.285C490.997 143.141 490.804 142.002 490.394 140.934C489.984 139.866 489.365 138.891 488.574 138.065C487.782 137.239 486.834 136.579 485.784 136.125C484.734 135.67 483.604 135.429 482.461 135.416C481.332 135.427 480.217 135.664 479.183 136.115C478.149 136.567 477.216 137.222 476.441 138.042C475.666 138.862 475.064 139.83 474.672 140.888C474.28 141.946 474.105 143.073 474.159 144.2V144.285C474.115 145.42 474.299 146.552 474.701 147.615C475.102 148.678 475.713 149.649 476.496 150.472C477.279 151.295 478.219 151.952 479.26 152.405C480.302 152.859 481.424 153.099 482.56 153.111C483.693 153.114 484.815 152.887 485.858 152.445C486.901 152.002 487.843 151.353 488.628 150.536C489.413 149.719 490.025 148.751 490.426 147.692C490.827 146.632 491.009 145.502 490.961 144.37Z"/>
  <path fill="#fff" d="M500.183 132.909H503.513V136.861C504.277 135.479 505.407 134.334 506.779 133.552C508.151 132.77 509.712 132.381 511.29 132.427C516.773 132.427 519.989 136.111 519.989 141.522V155.689H516.603V142.415C516.603 138.165 514.322 135.572 510.327 135.572C509.404 135.553 508.487 135.725 507.633 136.078C506.78 136.431 506.009 136.956 505.369 137.622C504.729 138.287 504.233 139.078 503.914 139.944C503.594 140.811 503.458 141.734 503.513 142.656V155.661H500.127L500.183 132.909Z"/>
</svg>
