<svg xmlns="http://www.w3.org/2000/svg" width="64" height="64" fill="none" viewBox="0 0 64 64">
  <defs>
    <radialGradient id="a" cx="0" cy="0" r="1" gradientTransform="translate(61.7225 1.69625) scale(84.0131)" gradientUnits="userSpaceOnUse">
      <stop offset=".03" stop-color="#FE2857"/>
      <stop offset=".71" stop-color="#007EFF"/>
    </radialGradient>
  </defs>
  <path fill="url(#a)" d="M59.875 0H25.7087c-1.0937 0-2.1431.434375-2.9168 1.20812L1.20812 22.7919C.434375 23.5656 0 24.6144 0 25.7087V59.875C0 62.1531 1.84687 64 4.125 64h34.1662c1.0944 0 2.1432-.4344 2.9169-1.2081l21.5825-21.5838c.7738-.7737 1.2081-1.8225 1.2081-2.9162L64 4.12563C64 1.8475 62.1531.000625 59.875.000625V0Z"/>
  <path fill="#000" d="M52 12H12v40h40V12Z"/>
  <path fill="#fff" d="M33 44H17v3h16v-3Z"/>
  <path fill="#fff" d="M16.998 29.3834h2.98v-9.7756h-2.98v-2.6156h8.8432v2.6156h-2.98v9.7756h2.98v2.6157H16.998v-2.6157Z"/>
  <path fill="#fff" d="M27.6426 29.2978h2.1544c.4356 0 .8237-.0925 1.1631-.2787.3394-.1857.6019-.4482.7881-.7882.1856-.3393.2788-.7268.2788-1.1631V16.9922h2.9262v10.2794c0 .9006-.2075 1.7093-.6219 2.4275-.4143.7181-.9862 1.2806-1.715 1.6881-.7287.4075-1.5468.6112-2.4543.6112h-2.5188v-2.7012l-.0006.0006Z"/>
  <path fill="#FDB60D" d="M56.1887 64H23.8113c-2.0716 0-4.0585-.8229-5.5234-2.2878C16.823 60.2473 16 58.2604 16 56.1887v-8.3774c0-1.0258.202-2.0416.5946-2.9893.3926-.9477.968-1.8088 1.6933-2.5342a7.812297 7.812297 0 0 1 2.5342-1.6932C21.7698 40.202 22.7855 40 23.8113 40h32.3774c2.0717 0 4.0585.8229 5.5234 2.2878C63.177 43.7527 64 45.7396 64 47.8113v8.3774c0 2.0717-.823 4.0586-2.2879 5.5235S58.2604 64 56.1887 64Z"/>
  <path fill="#000" d="M24.9121 46.7578h8.2388v2.1384h-5.8515v2.2157h5.1495v2.1374h-5.1495v2.2939h5.9297v2.1375h-8.317V46.7578Z"/>
  <path fill="#000" d="M39.1118 46.6797h2.2157l4.6812 11h-2.5123l-.9986-2.4494h-4.6182l-.9986 2.4494h-2.4494l4.6802-11Zm2.5286 6.4285-1.4517-3.5424-1.4507 3.5424h2.9024Z"/>
  <path fill="#000" d="M47.6934 46.7578h4.4627c2.6058 0 4.1814 1.5452 4.1814 3.776v.0315c0 2.5275-1.9657 3.839-4.415 3.839H50.097v3.2762h-2.4036V46.7578Zm4.3063 5.5082c.2362.03.476.0098.7038-.0593s.4384-.1856.6182-.3417c.1797-.1561.3244-.3484.4246-.5643.1003-.216.1538-.4506.1571-.6886v-.0315c0-1.0759-.7487-1.6538-1.9505-1.6538H50.097v3.3392h1.9027Z"/>
</svg>
