<?xml version="1.0" encoding="utf-8"?>
<!-- Generator: Adobe Illustrator 19.1.0, SVG Export Plug-In . SVG Version: 6.00 Build 0)  -->
<svg version="1.1" id="Layer_1" xmlns="http://www.w3.org/2000/svg" xmlns:xlink="http://www.w3.org/1999/xlink" x="0px" y="0px"
	 width="70px" height="70px" viewBox="0 0 70 70" style="enable-background:new 0 0 70 70;" xml:space="preserve">
<g>
	<g>
		<polygon style="fill:#247CE6;" points="59.2,55 70,26.3 37.3,19 33,31.2 		"/>
		<linearGradient id="SVGID_1_" gradientUnits="userSpaceOnUse" x1="20.617" y1="57.7547" x2="70" y2="57.7547">
			<stop  offset="0.1935" style="stop-color:#00DAF0"/>
			<stop  offset="0.9032" style="stop-color:#247CE6"/>
		</linearGradient>
		<polygon style="fill:url(#SVGID_1_);" points="70,56.1 53.5,70 20.6,61.5 29.4,45.5 		"/>
		<linearGradient id="SVGID_2_" gradientUnits="userSpaceOnUse" x1="1.2738" y1="17.4151" x2="38.4097" y2="17.4151">
			<stop  offset="0.1935" style="stop-color:#00DAF0"/>
			<stop  offset="0.9032" style="stop-color:#247CE6"/>
		</linearGradient>
		<polygon style="fill:url(#SVGID_2_);" points="9.7,34.8 1.3,10.8 38.4,0 35.4,31 		"/>
		<linearGradient id="SVGID_3_" gradientUnits="userSpaceOnUse" x1="45.8757" y1="72.2219" x2="11.1967" y2="23.8238">
			<stop  offset="9.139785e-002" style="stop-color:#1DDF93"/>
			<stop  offset="0.4839" style="stop-color:#00DAF0"/>
			<stop  offset="0.9032" style="stop-color:#247CE6"/>
		</linearGradient>
		<polygon style="fill:url(#SVGID_3_);" points="61.1,40.5 50.7,22.7 50.9,22.6 38.4,0 0,41.5 0,70 69.8,56.1 		"/>
	</g>
	<g>
		<rect x="13.4" y="13.4" style="fill:#000000;" width="43.2" height="43.2"/>
		<rect x="17.4" y="48.5" style="fill:#FFFFFF;" width="16.2" height="2.7"/>
		<path style="fill:#FFFFFF;" d="M24.5,19h3.6l7.6,17.9h-4.1l-1.6-4h-7.5l-1.6,4h-4L24.5,19z M28.6,29.4l-2.4-5.8l-2.4,5.8H28.6z"/>
		<path style="fill:#FFFFFF;" d="M34.7,28.1L34.7,28.1c0-5.2,3.9-9.4,9.4-9.4c3.4,0,5.4,1.1,7.1,2.8l-2.5,2.9c-1.4-1.3-2.8-2-4.6-2
			c-3,0-5.2,2.5-5.2,5.6V28c0,3.1,2.1,5.7,5.2,5.7c2.1,0,3.3-0.8,4.7-2.1l2.5,2.5c-1.9,2-3.9,3.2-7.4,3.2
			C38.6,37.3,34.7,33.2,34.7,28.1"/>
	</g>
</g>
</svg>
