<svg enable-background="new 0 0 70 70" height="70" viewBox="0 0 70 70" width="70" xmlns="http://www.w3.org/2000/svg" xmlns:xlink="http://www.w3.org/1999/xlink"><linearGradient id="a"><stop offset=".1935" stop-color="#00daf0"/><stop offset=".9032" stop-color="#247ce6"/></linearGradient><linearGradient id="b" gradientUnits="userSpaceOnUse" x1="20.617" x2="70" xlink:href="#a" y1="57.7547" y2="57.7547"/><linearGradient id="c" gradientUnits="userSpaceOnUse" x1="1.2738" x2="38.4097" xlink:href="#a" y1="17.4151" y2="17.4151"/><linearGradient id="d" gradientUnits="userSpaceOnUse" x1="45.8757" x2="11.1967" y1="72.2219" y2="23.8238"><stop offset=".09139785" stop-color="#1ddf93"/><stop offset=".4839" stop-color="#00daf0"/><stop offset=".9032" stop-color="#247ce6"/></linearGradient><path d="m59.2 55 10.8-28.7-32.7-7.3-4.3 12.2z" fill="#247ce6"/><path d="m70 56.1-16.5 13.9-32.9-8.5 8.8-16z" fill="url(#b)"/><path d="m9.7 34.8-8.4-24 37.1-10.8-3 31z" fill="url(#c)"/><path d="m61.1 40.5-10.4-17.8.2-.1-12.5-22.6-38.4 41.5v28.5l69.8-13.9z" fill="url(#d)"/><path d="m13.4 13.4h43.2v43.2h-43.2z"/><g fill="#fff"><path d="m17.4 48.5h16.2v2.7h-16.2z"/><path d="m24.5 19h3.6l7.6 17.9h-4.1l-1.6-4h-7.5l-1.6 4h-4zm4.1 10.4-2.4-5.8-2.4 5.8z"/><path d="m34.7 28.1c0-5.2 3.9-9.4 9.4-9.4 3.4 0 5.4 1.1 7.1 2.8l-2.5 2.9c-1.4-1.3-2.8-2-4.6-2-3 0-5.2 2.5-5.2 5.6s2.1 5.7 5.2 5.7c2.1 0 3.3-.8 4.7-2.1l2.5 2.5c-1.9 2-3.9 3.2-7.4 3.2-5.3 0-9.2-4.1-9.2-9.2"/></g></svg>