<?xml version="1.0" encoding="utf-8"?>
<!-- Generator: Adobe Illustrator 19.1.0, SVG Export Plug-In . SVG Version: 6.00 Build 0)  -->
<svg version="1.1" xmlns="http://www.w3.org/2000/svg" xmlns:xlink="http://www.w3.org/1999/xlink" x="0px" y="0px"
	 width="621.4px" height="108.1px" viewBox="0 0 621.4 108.1" style="enable-background:new 0 0 621.4 108.1;" xml:space="preserve"
	>
<g>
	<g>
		<path d="M139.1,3h17.3l36.5,85.7h-19.6l-7.8-19.1h-36l-7.8,19.1h-19.1L139.1,3z M158.8,53.1l-11.3-27.6
			l-11.3,27.6H158.8z"/>
		<path d="M194.9,23.6h18.5v9.4c4.5-6.1,10.7-10.6,20.3-10.6c15.2,0,29.6,11.9,29.6,33.7v0.2
			c0,21.7-14.2,33.7-29.6,33.7c-9.8,0-15.9-4.5-20.3-9.7v27.9h-18.5V23.6z M244.8,56.3V56c0-10.8-7.3-18-15.9-18s-15.8,7.2-15.8,18
			v0.2c0,10.8,7.2,18,15.8,18S244.8,67.2,244.8,56.3z"/>
		<path d="M265.8,23.6h18.5v9.4c4.5-6.1,10.7-10.6,20.3-10.6c15.2,0,29.6,11.9,29.6,33.7v0.2
			c0,21.7-14.2,33.7-29.6,33.7c-9.8,0-15.9-4.5-20.3-9.7v27.9h-18.5V23.6z M315.7,56.3V56c0-10.8-7.3-18-15.9-18S284,45.2,284,56
			v0.2c0,10.8,7.2,18,15.8,18S315.7,67.2,315.7,56.3z"/>
		<path d="M336.9,46.4v-0.2c0-24.2,18.2-44,44.3-44c16,0,25.6,5.3,33.5,13.1L402.9,29
			c-6.6-6-13.2-9.6-21.7-9.6c-14.3,0-24.7,11.9-24.7,26.5v0.2c0,14.6,10.1,26.7,24.7,26.7c9.7,0,15.7-3.9,22.4-10l11.9,12
			c-8.7,9.4-18.5,15.2-34.9,15.2C355.5,90.2,336.9,70.8,336.9,46.4z"/>
		<path d="M412.8,56.5v-0.2c0-18.7,15.1-33.9,35.4-33.9c20.2,0,35.1,14.9,35.1,33.7v0.2
			c0,18.7-15.1,33.9-35.4,33.9C427.8,90.2,412.8,75.2,412.8,56.5z M465.1,56.5v-0.2c0-9.6-6.9-18-17.1-18
			c-10.6,0-16.9,8.1-16.9,17.7v0.2c0,9.6,6.9,18,17.1,18C458.7,74.2,465.1,66.1,465.1,56.5z"/>
		<path d="M485.7,56.3V56c0-21.7,14.2-33.7,29.6-33.7c9.8,0,15.9,4.5,20.3,9.7V0h18.5v88.7h-18.5v-9.4
			c-4.5,6.1-10.7,10.6-20.3,10.6C500.2,89.9,485.7,78,485.7,56.3z M535.9,56.3V56c0-10.8-7.2-18-15.8-18s-15.9,7-15.9,18v0.2
			c0,10.8,7.3,18,15.9,18S535.9,67.1,535.9,56.3z"/>
		<path  d="M557.5,56.5v-0.2c0-18.6,13.2-33.9,32.2-33.9c21.7,0,31.7,16.9,31.7,35.4c0,1.5-0.1,3.2-0.2,4.9
			h-45.3c1.8,8.4,7.7,12.8,15.9,12.8c6.2,0,10.7-1.9,15.8-6.7l10.6,9.4c-6.1,7.5-14.8,12.2-26.6,12.2
			C572,90.2,557.5,76.4,557.5,56.5z M603.5,51c-1.1-8.3-6-13.9-13.7-13.9c-7.7,0-12.6,5.5-14.1,13.9H603.5z"/>
	</g>
	<g>
		<rect y="3.7" style="fill:#000000;" width="85" height="85"/>
		<path style="fill:#FFFFFF;" d="M15.6,14.3h4.3L29,35.6h-4.9l-1.9-4.7h-8.9l-1.9,4.7H6.6L15.6,14.3z M20.5,26.7l-2.8-6.9l-2.8,6.9
			H20.5z"/>
		<path style="fill:#FFFFFF;" d="M27.8,25L27.8,25c0-6.2,4.6-11.1,11.2-11.1c4,0,6.5,1.3,8.5,3.3l-3,3.5c-1.7-1.5-3.3-2.4-5.5-2.4
			c-3.6,0-6.2,3-6.2,6.7V25c0,3.7,2.5,6.7,6.2,6.7c2.5,0,4-1,5.6-2.5l3,3c-2.2,2.4-4.7,3.8-8.8,3.8C32.5,36.1,27.8,31.2,27.8,25"/>
		<rect x="8" y="72.8" style="fill:#FFFFFF;" width="31.9" height="5.3"/>
	</g>
</g>
</svg>
