<svg xmlns="http://www.w3.org/2000/svg" width="648" height="109" fill="none" viewBox="0 0 648 109">
  <path fill="#000" d="M0 4H85V89H0V4Z"/>
  <path fill="#fff" d="M10.5435 72.9795H42.472V78.3009H10.5435V72.9795Z"/>
  <path fill="#fff" d="M21.924 14.5713H28.3097L41.9042 46.5424H34.6103L31.7722 39.4472H18.2912L15.4531 46.5424H8.35791L21.924 14.5713ZM29.2747 33.2601L25.0175 22.9579L20.7604 33.2601H29.2747Z"/>
  <path fill="#fff" d="M40.7833 30.706V30.6209C40.7442 28.4122 41.1528 26.2184 41.9845 24.1719C42.8161 22.1254 44.0535 20.2684 45.6222 18.7131C47.1908 17.1577 49.0582 15.936 51.1117 15.1218C53.1652 14.3076 55.3624 13.9176 57.5707 13.9755C59.9172 13.8579 62.2621 14.2384 64.4511 15.0919C66.6401 15.9455 68.6236 17.2528 70.2711 18.9279L65.7586 24.1358C63.5984 21.8913 60.6421 20.5864 57.5281 20.5031C52.1073 20.5031 48.1907 25.0015 48.1907 30.5216V30.6209C48.1907 36.141 52.008 40.7387 57.5281 40.7387C61.2034 40.7387 63.4597 39.3196 66.0424 36.964L70.4982 41.5334C68.8685 43.413 66.835 44.8998 64.5496 45.8828C62.2643 46.8657 59.7864 47.3193 57.301 47.2096C55.1231 47.246 52.96 46.8441 50.9404 46.0278C48.9209 45.2115 47.0861 43.9974 45.5452 42.4578C44.0042 40.9182 42.7886 39.0844 41.9706 37.0656C41.1525 35.0468 40.7488 32.884 40.7833 30.706"/>
  <path fill="#fff" d="M147.155 3.95703H164.325L200.582 89.1708H181.127L173.393 70.1982H137.619L129.871 89.1708H110.898L147.155 3.95703ZM166.737 53.7514L155.499 26.3212L144.26 53.7514H166.737Z"/>
  <path fill="#fff" d="M204.513 24.3912H222.96V33.7002C227.43 27.6551 233.589 23.1851 243.139 23.1851C258.252 23.1851 272.627 35.0199 272.627 56.6604V56.9016C272.627 78.5279 258.437 90.377 243.139 90.377C239.254 90.455 235.406 89.6215 231.901 87.9433C228.397 86.265 225.335 83.7888 222.96 80.7133V108.512H204.513V24.3912ZM254.179 56.9016V56.6604C254.179 45.904 246.928 38.7662 238.343 38.7662C229.758 38.7662 222.634 45.8614 222.634 56.6604V56.9016C222.634 67.658 229.729 74.7816 238.343 74.7816C246.956 74.7816 254.194 67.7715 254.194 56.9016H254.179Z"/>
  <path fill="#fff" d="M279.325 24.3912H297.687V33.7002C302.157 27.6551 308.33 23.1851 317.866 23.1851C332.979 23.1851 347.368 35.0199 347.368 56.6604V56.9016C347.368 78.5279 333.178 90.377 317.866 90.377C313.982 90.4517 310.134 89.6167 306.63 87.9387C303.127 86.2607 300.064 83.7863 297.687 80.7133V108.512H279.325V24.3912ZM328.991 56.9016V56.6604C328.991 45.904 321.74 38.7662 313.155 38.7662C304.57 38.7662 297.446 45.8614 297.446 56.6604V56.9016C297.446 67.658 304.541 74.7816 313.155 74.7816C321.768 74.7816 328.991 67.7715 328.991 56.9016V56.9016Z"/>
  <path fill="#fff" d="M353.399 47.1101V46.8689C353.399 22.816 371.52 3.11963 397.503 3.11963C413.467 3.11963 423.046 8.44106 430.865 16.1749L419.03 29.8261C412.502 23.9087 405.847 20.2759 397.389 20.2759C383.199 20.2759 372.854 32.125 372.854 46.6276V46.8689C372.854 61.3715 382.887 73.4618 397.389 73.4618C407.053 73.4618 412.999 69.5878 419.626 63.5285L431.475 75.5904C422.776 84.8852 413.098 90.6891 396.779 90.6891C371.889 90.6181 353.399 71.4042 353.399 47.1101V47.1101Z"/>
  <path fill="#fff" d="M432.554 57.1429V56.9016C432.554 38.2837 447.553 23.1851 467.732 23.1851C487.911 23.1851 502.655 38.0425 502.655 56.6604V56.9016C502.655 75.5195 487.67 90.6182 467.491 90.6182C447.312 90.6182 432.554 75.7608 432.554 57.1429ZM484.533 57.1429V56.9016C484.533 47.3514 477.637 39.0074 467.505 39.0074C456.99 39.0074 450.703 47.1102 450.703 56.6604V56.9016C450.703 66.4518 457.586 74.7816 467.732 74.7816C478.247 74.7816 484.533 66.6931 484.533 57.1429V57.1429Z"/>
  <path fill="#fff" d="M508.458 56.9018V56.6606C508.458 35.0201 522.649 23.1852 537.946 23.1852C541.831 23.1072 545.68 23.9407 549.184 25.6189C552.689 27.2972 555.751 29.7734 558.125 32.849V0.93457H576.502V89.171H558.125V79.8478C553.655 85.893 547.497 90.363 537.946 90.363C522.848 90.3771 508.458 78.5281 508.458 56.9018ZM558.381 56.9018V56.6606C558.381 45.9042 551.285 38.7664 542.658 38.7664C534.03 38.7664 526.835 45.7907 526.835 56.6606V56.9018C526.835 67.6582 534.086 74.7818 542.658 74.7818C551.229 74.7818 558.324 67.6582 558.324 56.9018H558.381Z"/>
  <path fill="#fff" d="M583.512 57.1429V56.9016C583.512 38.454 596.68 23.1851 615.54 23.1851C637.166 23.1851 647.085 39.9866 647.085 58.3491C647.085 59.7681 646.957 61.4993 646.844 63.188H601.761C603.577 71.5178 609.367 75.8743 617.597 75.8743C623.756 75.8743 628.226 73.9444 633.306 69.2331L643.821 78.5279C637.776 86.0347 629.077 90.6182 617.356 90.6182C597.887 90.6182 583.512 77.0095 583.512 57.1429V57.1429ZM629.191 51.7079C628.112 43.4916 623.273 37.929 615.54 37.929C607.806 37.929 602.967 43.3639 601.519 51.7079H629.191Z"/>
</svg>
