<svg enable-background="new 0 0 621.4 108.1" height="108.1" viewBox="0 0 621.4 108.1" width="621.4" xmlns="http://www.w3.org/2000/svg"><path d="m139.1 3h17.3l36.5 85.7h-19.6l-7.8-19.1h-36l-7.8 19.1h-19.1zm19.7 50.1-11.3-27.6-11.3 27.6z"/><path d="m194.9 23.6h18.5v9.4c4.5-6.1 10.7-10.6 20.3-10.6 15.2 0 29.6 11.9 29.6 33.7v.2c0 21.7-14.2 33.7-29.6 33.7-9.8 0-15.9-4.5-20.3-9.7v27.9h-18.5zm49.9 32.7v-.3c0-10.8-7.3-18-15.9-18s-15.8 7.2-15.8 18v.2c0 10.8 7.2 18 15.8 18s15.9-7 15.9-17.9z"/><path d="m265.8 23.6h18.5v9.4c4.5-6.1 10.7-10.6 20.3-10.6 15.2 0 29.6 11.9 29.6 33.7v.2c0 21.7-14.2 33.7-29.6 33.7-9.8 0-15.9-4.5-20.3-9.7v27.9h-18.5zm49.9 32.7v-.3c0-10.8-7.3-18-15.9-18s-15.8 7.2-15.8 18v.2c0 10.8 7.2 18 15.8 18s15.9-7 15.9-17.9z"/><path d="m336.9 46.4v-.2c0-24.2 18.2-44 44.3-44 16 0 25.6 5.3 33.5 13.1l-11.8 13.7c-6.6-6-13.2-9.6-21.7-9.6-14.3 0-24.7 11.9-24.7 26.5v.2c0 14.6 10.1 26.7 24.7 26.7 9.7 0 15.7-3.9 22.4-10l11.9 12c-8.7 9.4-18.5 15.2-34.9 15.2-25.1.2-43.7-19.2-43.7-43.6z"/><path d="m412.8 56.5v-.2c0-18.7 15.1-33.9 35.4-33.9 20.2 0 35.1 14.9 35.1 33.7v.2c0 18.7-15.1 33.9-35.4 33.9-20.1 0-35.1-15-35.1-33.7zm52.3 0v-.2c0-9.6-6.9-18-17.1-18-10.6 0-16.9 8.1-16.9 17.7v.2c0 9.6 6.9 18 17.1 18 10.5 0 16.9-8.1 16.9-17.7z"/><path d="m485.7 56.3v-.3c0-21.7 14.2-33.7 29.6-33.7 9.8 0 15.9 4.5 20.3 9.7v-32h18.5v88.7h-18.5v-9.4c-4.5 6.1-10.7 10.6-20.3 10.6-15.1 0-29.6-11.9-29.6-33.6zm50.2 0v-.3c0-10.8-7.2-18-15.8-18s-15.9 7-15.9 18v.2c0 10.8 7.3 18 15.9 18s15.8-7.1 15.8-17.9z"/><path d="m557.5 56.5v-.2c0-18.6 13.2-33.9 32.2-33.9 21.7 0 31.7 16.9 31.7 35.4 0 1.5-.1 3.2-.2 4.9h-45.3c1.8 8.4 7.7 12.8 15.9 12.8 6.2 0 10.7-1.9 15.8-6.7l10.6 9.4c-6.1 7.5-14.8 12.2-26.6 12.2-19.6-.2-34.1-14-34.1-33.9zm46-5.5c-1.1-8.3-6-13.9-13.7-13.9s-12.6 5.5-14.1 13.9z"/><path d="m0 3.7h85v85h-85z"/><g fill="#fff"><path d="m15.6 14.3h4.3l9.1 21.3h-4.9l-1.9-4.7h-8.9l-1.9 4.7h-4.8zm4.9 12.4-2.8-6.9-2.8 6.9z"/><path d="m27.8 25c0-6.2 4.6-11.1 11.2-11.1 4 0 6.5 1.3 8.5 3.3l-3 3.5c-1.7-1.5-3.3-2.4-5.5-2.4-3.6 0-6.2 3-6.2 6.7s2.5 6.7 6.2 6.7c2.5 0 4-1 5.6-2.5l3 3c-2.2 2.4-4.7 3.8-8.8 3.8-6.3.1-11-4.8-11-11"/><path d="m8 72.8h31.9v5.3h-31.9z"/></g></svg>