<svg xmlns="http://www.w3.org/2000/svg" width="64" height="64" fill="none" viewBox="0 0 64 64">
  <defs>
    <linearGradient id="a" x1="7.67063" x2="61.125" y1="64.3931" y2="39.6094" gradientUnits="userSpaceOnUse">
      <stop offset=".08" stop-color="#00D886"/>
      <stop offset=".46" stop-color="#FFAB00"/>
    </linearGradient>
    <linearGradient id="b" x1="59.9325" x2="1.33625" y1="59.6763" y2="1.08" gradientUnits="userSpaceOnUse">
      <stop offset=".19" stop-color="#FFAB00"/>
      <stop offset=".83" stop-color="#FF004C"/>
    </linearGradient>
  </defs>
  <path fill="#00D886" d="M6 47.5494v12.2587c0 2.3038 1.88688 4.1613 4.1906 4.1244l11.0431-.1763c1.1813-.0187 2.2975-.5431 3.0663-1.44l32.7069-38.1581c.6406-.7475.9931-1.7.9931-2.6844V10.125C58 7.84687 56.1531 6 53.875 6H42.8719c-1.1894 0-2.3213.51375-3.1044 1.40875L7.02063 44.8331C6.3625 45.585 6 46.55 6 47.5494Z"/>
  <path fill="url(#a)" d="M6 49.015v10.8619c0 2.2781 1.84687 4.125 4.125 4.125h12.5656c.2 0 .4-.0144.5981-.0438L60.4738 58.51c2.0256-.2969 3.5268-2.0344 3.5268-4.0812V39.0312c0-2.2787-1.8475-4.1256-4.1262-4.1249l-18.5044.0043c-.4256 0-.8488.0663-1.2538.1957L8.87062 45.085c-1.70937.5463-2.86999 2.135-2.86999 3.9294L6 49.015Z"/>
  <path fill="url(#b)" d="M0 4.125v34.1275c0 1.6581.993125 3.155 2.52063 3.8L39.9419 57.85c.5181.2187 1.0756.3294 1.6381.3244l18.3287-.15c2.265-.0188 4.0913-1.86 4.0913-4.125V36.2337c0-.8056-.2356-1.5931-.6781-2.2662L42.2131 1.85938C41.45.69875 40.155 0 38.7663 0H4.125C1.84687 0 0 1.84687 0 4.125Z"/>
  <path fill="#000" d="M52 12H12v40h40V12Z"/>
  <path fill="#fff" d="M33 44H17v3h16v-3Z"/>
  <path fill="#fff" d="M16.9922 16.9922h6.4419c1.0506 0 1.9756.1931 2.7762.5787.8.3857 1.4163.9288 1.8488 1.6294.4325.7006.6487 1.5113.6487 2.4331 0 .9219-.22 1.7488-.6594 2.46-.4393.7113-1.065 1.2613-1.8756 1.6507-.8112.3893-1.7525.5843-2.8244.5843h-3.43v5.67h-2.9262V16.9922Zm7.5406 6.6294c.3681-.1825.6519-.4432.8519-.7825.2-.3394.3-.7344.3-1.1844 0-.45-.1-.8519-.3-1.1844-.2-.3325-.4844-.5894-.8519-.7719-.3681-.1825-.7987-.2731-1.2919-.2731h-3.3231v4.47h3.3231c.4932 0 .9238-.0912 1.2919-.2731v-.0006Zm-2.6312 1.7637h3.1943l3.9338 6.6138h-3.355l-3.7731-6.6138Z"/>
  <path fill="#fff" d="M31.6133 16.9922h6.4419c1.0506 0 1.9756.1931 2.7762.5787.8.3857 1.4169.9288 1.8488 1.6294.4325.7006.6487 1.5113.6487 2.4331 0 .9219-.22 1.7488-.6594 2.46-.4393.7113-1.065 1.2613-1.8756 1.6507-.8112.3893-1.7525.5843-2.8244.5843h-3.43v5.67h-2.9262V16.9922Zm7.5406 6.6294c.3681-.1825.6519-.4432.8519-.7825.2-.3394.3-.7344.3-1.1844 0-.45-.1-.8519-.3-1.1844-.2-.3325-.4844-.5894-.8519-.7719-.3681-.1825-.7987-.2731-1.2919-.2731h-3.3231v4.47h3.3231c.4932 0 .9238-.0912 1.2919-.2731v-.0006Zm-2.6312 1.7637h3.1943l3.9338 6.6138h-3.355l-3.7731-6.6138Z"/>
</svg>
