<svg xmlns="http://www.w3.org/2000/svg" width="128" height="128" fill="none" viewBox="0 0 128 128">
  <defs>
    <linearGradient id="a" x1="15.3413" x2="122.25" y1="128.786" y2="79.2188" gradientUnits="userSpaceOnUse">
      <stop offset=".08" stop-color="#00D886"/>
      <stop offset=".46" stop-color="#FFAB00"/>
    </linearGradient>
    <linearGradient id="b" x1="119.865" x2="2.67251" y1="119.353" y2="2.16001" gradientUnits="userSpaceOnUse">
      <stop offset=".19" stop-color="#FFAB00"/>
      <stop offset=".83" stop-color="#FF004C"/>
    </linearGradient>
  </defs>
  <path fill="#00D886" d="M12 95.0987v24.5173c0 4.608 3.7738 8.323 8.3813 8.249l22.0862-.353c2.3625-.037 4.595-1.086 6.1325-2.88l65.414-76.3158c1.281-1.495 1.986-3.4 1.986-5.3687V20.25c0-4.5563-3.694-8.25-8.25-8.25H85.7438c-2.3788 0-4.6425 1.0275-6.2088 2.8175L14.0413 89.6663C12.725 91.17 12 93.1 12 95.0987Z"/>
  <path fill="url(#a)" d="M12 98.03v21.724c0 4.556 3.6937 8.25 8.25 8.25h25.1312c.4 0 .8-.029 1.1963-.088l74.3705-10.896c4.051-.594 7.053-4.069 7.053-8.162V78.0625c0-4.5575-3.695-8.2512-8.252-8.25l-37.009.0088c-.8513 0-1.6975.1325-2.5075.3912L17.7412 90.17c-3.4187 1.0925-5.7399 4.27-5.7399 7.8588L12 98.03Z"/>
  <path fill="url(#b)" d="M0 8.25v68.255c0 3.3162 1.98625 6.31 5.04125 7.6L79.8838 115.7c1.0362.437 2.1512.659 3.2762.649l36.657-.3c4.53-.038 8.183-3.72 8.183-8.25V72.4675c0-1.6113-.471-3.1863-1.356-4.5325L84.4262 3.71875C82.9 1.3975 80.31 0 77.5325 0H8.25C3.69375 0 0 3.69375 0 8.25Z"/>
  <path fill="#000" d="M104 24H24v80h80V24Z"/>
  <path fill="#fff" d="M66 88H34v6h32v-6Z"/>
  <path fill="#fff" d="M33.9844 33.9844h12.8837c2.1013 0 3.9513.3862 5.5525 1.1575 1.6.7712 2.8325 1.8575 3.6975 3.2587.865 1.4013 1.2975 3.0225 1.2975 4.8663 0 1.8437-.44 3.4975-1.3187 4.92-.8788 1.4225-2.13 2.5225-3.7513 3.3012-1.6225.7788-3.505 1.1688-5.6487 1.1688h-6.86v11.34h-5.8525V33.9844Zm15.0812 13.2587c.7363-.365 1.3038-.8862 1.7038-1.565.4-.6787.6-1.4687.6-2.3687 0-.9-.2-1.7038-.6-2.3688-.4-.665-.9688-1.1787-1.7038-1.5437-.7362-.365-1.5975-.5463-2.5837-.5463h-6.6463v8.94h6.6463c.9862 0 1.8475-.1825 2.5837-.5462v-.0013Zm-5.2625 3.5275h6.3888l7.8675 13.2275h-6.71l-7.5463-13.2275Z"/>
  <path fill="#fff" d="M63.2266 33.9844h12.8837c2.1013 0 3.9513.3862 5.5525 1.1575 1.6.7712 2.8338 1.8575 3.6975 3.2587.865 1.4013 1.2975 3.0225 1.2975 4.8663 0 1.8437-.44 3.4975-1.3187 4.92-.8788 1.4225-2.13 2.5225-3.7513 3.3012-1.6225.7788-3.505 1.1688-5.6487 1.1688h-6.86v11.34h-5.8525V33.9844Zm15.0812 13.2587c.7363-.365 1.3038-.8862 1.7038-1.565.4-.6787.6-1.4687.6-2.3687 0-.9-.2-1.7038-.6-2.3688-.4-.665-.9688-1.1787-1.7038-1.5437-.7362-.365-1.5975-.5463-2.5837-.5463h-6.6463v8.94h6.6463c.9862 0 1.8475-.1825 2.5837-.5462v-.0013Zm-5.2625 3.5275h6.3888l7.8675 13.2275h-6.71l-7.5463-13.2275Z"/>
</svg>
