<svg xmlns="http://www.w3.org/2000/svg" width="282" height="64" fill="none" viewBox="0 0 282 64">
  <defs>
    <linearGradient id="a" x1="7.61165" x2="61.2378" y1="64.7192" y2="39.8564" gradientUnits="userSpaceOnUse">
      <stop offset=".08" stop-color="#00D886"/>
      <stop offset=".46" stop-color="#FFAB00"/>
    </linearGradient>
    <linearGradient id="b" x1="60.0108" x2="1.30535" y1="59.7777" y2="1.07287" gradientUnits="userSpaceOnUse">
      <stop offset=".19" stop-color="#FFAB00"/>
      <stop offset=".83" stop-color="#FF004C"/>
    </linearGradient>
  </defs>
  <path fill="#fff" d="M102.038 34.2c1.58-.77 2.8-1.85 3.66-3.24.86-1.39 1.29-3 1.29-4.83s-.42-3.41-1.27-4.79c-.85-1.38-2.05-2.45-3.61-3.21-1.56-.76-3.3597-1.13-5.4197-1.13h-12.7v29.96h5.33v-11.6h5.49l6.7297 11.6h6.12l-7.29-12.13c.58-.17 1.15-.37 1.68-.63h-.01Zm-2.9497-3.92c-.76.39-1.67.58-2.71.58h-7.06v-9.35h7.06c1.04 0 1.94.19 2.71.57.76.38 1.3497.92 1.7797 1.62.42.7.63 1.52.63 2.46s-.21 1.79-.63 2.49c-.42.71-1.0097 1.25-1.7797 1.64v-.01Zm26.2797 7.45c0 1.03-.2 1.94-.62 2.75s-1.02 1.43-1.79 1.88c-.77.45-1.66.67-2.65.67-.94 0-1.74-.2-2.41-.59-.66-.39-1.17-.96-1.53-1.7-.36-.74-.54-1.64-.54-2.7V25.03h-5.03v13.78c0 1.8.33 3.35.98 4.64.66 1.3 1.58 2.29 2.76 2.97 1.18.69 2.56 1.03 4.13 1.03 1.68 0 3.15-.39 4.4-1.18 1.01-.63 1.82-1.5 2.45-2.56v3.23h4.9v-21.9h-5.05v12.69Zm24.67-2.48c-.87-.61-1.88-1.02-3.04-1.22l-4.82-.83c-.56-.1-1.02-.24-1.38-.43-.36-.18-.64-.42-.82-.71-.19-.29-.28-.62-.28-1.01 0-.51.15-.97.45-1.37.3-.4.72-.71 1.27-.93.55-.22 1.18-.33 1.89-.33s1.31.11 1.87.34c.56.23 1.02.55 1.37.95.35.41.57.89.65 1.44h5.03c-.1-1.34-.54-2.51-1.32-3.51s-1.83-1.77-3.15-2.31c-1.32-.54-2.81-.81-4.46-.81s-3.17.29-4.46.87c-1.29.58-2.29 1.38-2.99 2.4-.7 1.02-1.05 2.18-1.05 3.48 0 1.06.24 2.03.72 2.91.48.88 1.15 1.62 2.02 2.21.87.59 1.89.98 3.06 1.17l4.86.81c.46.07.86.22 1.21.44s.62.5.81.82c.19.33.29.69.29 1.09 0 .54-.17 1.02-.52 1.42-.35.41-.84.72-1.47.95-.63.23-1.33.34-2.12.34-.84 0-1.58-.11-2.21-.33-.64-.22-1.15-.54-1.54-.95-.39-.41-.62-.91-.7-1.5h-5.05c.09 1.34.55 2.53 1.38 3.56.83 1.04 1.96 1.83 3.37 2.4 1.41.56 3 .84 4.77.84 1.77 0 3.21-.29 4.59-.88 1.38-.59 2.46-1.41 3.25-2.47.79-1.06 1.19-2.26 1.19-3.58 0-1.07-.23-2.07-.7-2.99-.46-.92-1.13-1.69-2-2.3l.03.02Zm13.36-15.56h-4.71v3.55c0 .53-.17.96-.49 1.29-.33.34-.76.5-1.31.5h-2.4l-.02 4.39h3.85l.02 11.71c0 1.11.26 2.11.78 3 .52.88 1.25 1.58 2.18 2.08.93.5 1.99.75 3.16.75h4.73v-4.39h-3.72c-.6 0-1.1-.2-1.49-.59-.39-.39-.59-.89-.59-1.49l-.02-11.06h5.82l.02-4.39h-5.82v-5.35h.01Zm27.39 14.51c1.58-.77 2.8-1.85 3.66-3.24.86-1.39 1.29-3 1.29-4.83s-.42-3.41-1.27-4.79c-.85-1.38-2.05-2.45-3.61-3.21-1.55-.76-3.36-1.13-5.41-1.13h-12.71v29.96h5.33v-11.6h5.49l6.73 11.6h6.12l-7.29-12.13c.58-.17 1.15-.37 1.67-.63Zm-2.95-3.92c-.76.39-1.67.58-2.71.58h-7.06v-9.35h7.06c1.04 0 1.94.19 2.71.57.77.38 1.36.92 1.78 1.62.42.7.63 1.52.63 2.46s-.21 1.79-.63 2.49c-.42.7-1.01 1.25-1.78 1.64v-.01Zm27.88-4.26c-1.75-1-3.71-1.5-5.86-1.5-2.15 0-4.13.5-5.9 1.5-1.76 1-3.14 2.37-4.14 4.12-1 1.75-1.5 3.7-1.5 5.85 0 2.15.5 4.11 1.51 5.85 1.01 1.75 2.39 3.12 4.14 4.12 1.75 1 3.71 1.5 5.86 1.5 2.15 0 4.13-.5 5.89-1.5 1.75-1 3.13-2.37 4.14-4.12 1.01-1.75 1.51-3.7 1.51-5.85 0-2.15-.5-4.11-1.51-5.85-1.01-1.74-2.39-3.12-4.14-4.12Zm-.39 13.59c-.52 1.06-1.26 1.88-2.21 2.46-.95.58-2.05.88-3.27.88-1.22 0-2.32-.29-3.26-.88-.95-.58-1.68-1.41-2.2-2.46-.52-1.06-.78-2.26-.78-3.62 0-1.36.26-2.58.78-3.64s1.25-1.88 2.2-2.46c.95-.58 2.04-.88 3.26-.88 1.22 0 2.31.3 3.26.89.95.59 1.69 1.41 2.21 2.46.53 1.05.79 2.26.79 3.63s-.26 2.56-.78 3.62Zm17.39.94-5.71-15.52h-5.37l8.45 21.92h4.99l8.37-21.92h-5.22l-5.5 15.52h-.01Zm28.1-14.57c-1.68-.97-3.6-1.46-5.76-1.46-2.16 0-4.03.5-5.77 1.49-1.73.99-3.1 2.36-4.1 4.1-1 1.74-1.5 3.69-1.5 5.84s.5 4.17 1.49 5.93c.99 1.75 2.35 3.12 4.07 4.11 1.72.99 3.66 1.48 5.81 1.48 1.7 0 3.25-.26 4.64-.79 1.4-.53 2.59-1.28 3.57-2.25s1.73-2.13 2.25-3.49h-5.5c-.56.74-1.25 1.32-2.1 1.73-.84.41-1.79.62-2.85.62-1.2 0-2.27-.29-3.22-.88-.95-.58-1.69-1.4-2.23-2.45-.43-.83-.68-1.76-.78-2.77h17.29v-1.22c0-2.23-.47-4.21-1.4-5.94-.93-1.73-2.24-3.08-3.93-4.06l.02.01Zm-11.88 7.83c.13-.72.34-1.4.67-2.02.54-1.02 1.28-1.82 2.23-2.4.95-.58 2.02-.87 3.22-.87 1.2 0 2.26.3 3.18.9.92.6 1.63 1.43 2.13 2.49.28.59.47 1.22.59 1.89h-12.02v.01Zm32.08-8.92c-1.56 0-2.92.4-4.09 1.21-.83.57-1.53 1.33-2.1 2.26v-3.32h-5.01v21.92h5.05V35.13c0-1.06.22-1.97.67-2.74.45-.77 1.09-1.36 1.93-1.78.84-.42 1.82-.62 2.94-.62h1.41V24.9h-.81l.01-.01Z"/>
  <path fill="#00D886" d="m5.80859 48.0551.00175 11.8755c0 2.2493 1.82342 4.0721 4.07273 4.0721H21.3897c1.1886 0 2.3185-.5196 3.0923-1.422l32.7099-38.1614c.6324-.7383.9803-1.6786.9803-2.6508V9.89304c0-2.24931-1.8234-4.07273-4.0727-4.07273H42.5911c-1.1886 0-2.3185.51957-3.0923 1.42197L6.78896 45.4037c-.63302.7384-.98037 1.6786-.98037 2.6514Z"/>
  <path fill="url(#a)" d="M5.80859 49.4825v10.4466c0 2.2493 1.82342 4.0727 4.07273 4.0727H22.974c.1926 0 .3851-.014.576-.0407l36.9437-5.2771c2.0067-.2868 3.4967-2.005 3.4967-4.032V38.979c0-2.2499-1.824-4.0733-4.0739-4.0727l-18.5385.0046c-.4375 0-.8721.0704-1.2869.2089L8.59317 45.6193c-1.66283.5544-2.78458 2.1108-2.78458 3.8638v-.0006Z"/>
  <path fill="url(#b)" d="M-.007813 4.07273V38.041c0 1.6291.971055 3.1017 2.468073 3.7434L39.9509 57.8525c.5067.217 1.0531.3293 1.6046.3293h18.3639c2.2494 0 4.0728-1.8234 4.0728-4.0727v-17.966c0-.8046-.2386-1.5913-.6854-2.2609L41.9034 1.81353C41.1482.681309 39.8776.001745 38.5161.001745L4.06491 0C1.81561 0-.007813 1.82342-.007813 4.07273Z"/>
  <path fill="#000" d="M51.9922 12h-40v40h40V12Z"/>
  <path fill="#fff" fill-rule="evenodd" d="M20.0101 26.3347h2.5244L25.7637 32h3.3538l-3.5713-6.0085c.0732-.0233.1478-.0446.2224-.0659.1682-.0481.3363-.0962.4882-.1666.8145-.4017 1.439-.9511 1.8752-1.6605.4425-.71.6641-1.5268.6641-2.4647 0-.9379-.2181-1.7277-.6538-2.4239-.4287-.6963-1.0429-1.2456-1.843-1.6342C25.4991 17.1871 24.5744 17 23.524 17h-6.4395v15h2.925l.0006-5.6653Zm0-6.897h3.3216c.4931 0 .9213.0936 1.2858.2681.3713.1871.6572.4419.8575.7772.1998.3346.3002.7232.3002 1.1784 0 .4551-.0999.8437-.3002 1.1921-.2003.3347-.4856.5895-.8575.7766-.3645.1877-.7927.2681-1.2858.2681h-3.3216v-4.4605Z" clip-rule="evenodd"/>
  <path fill="#fff" fill-rule="evenodd" d="m43.5573 32-3.5713-6.0085c.0732-.0233.1478-.0446.2224-.0659.1682-.0481.3363-.0962.4882-.1666.8145-.4017 1.4395-.9511 1.8752-1.6605.4425-.71.6641-1.5268.6641-2.4647 0-.9379-.2181-1.7277-.6538-2.4239-.4287-.6963-1.0429-1.2456-1.8431-1.6342-.8001-.3886-1.7248-.5757-2.7752-.5757h-6.4395v15h2.925v-5.6653h2.5244L40.2029 32h3.3544Zm-9.1069-12.5623h3.3217c.4931 0 .9213.0936 1.2857.2681.3714.1871.6572.4419.857.7772.1997.3346.3002.7232.3002 1.1784 0 .4551-.0999.8437-.3002 1.1921-.2003.3347-.4856.5895-.857.7766-.3644.1877-.7926.2681-1.2857.2681h-3.3217v-4.4605Z" clip-rule="evenodd"/>
  <path fill="#fff" d="M16.9844 44h16v3h-16v-3Z"/>
</svg>
