<svg xmlns="http://www.w3.org/2000/svg" width="70" height="70" fill="none" viewBox="0 0 70 70">
  <defs>
    <linearGradient id="b" x1="59.6819" x2="-3.18984" y1="8.5482" y2="71.42" gradientUnits="userSpaceOnUse">
      <stop stop-color="#21D789"/>
      <stop offset="1" stop-color="#FDB60D"/>
    </linearGradient>
    <linearGradient id="c" x1="65.2153" x2="26.9539" y1="8.75991" y2="63.7487" gradientUnits="userSpaceOnUse">
      <stop stop-color="#21D789"/>
      <stop offset="1" stop-color="#FDB60D"/>
    </linearGradient>
    <linearGradient id="d" x1="33.1739" x2="15.6775" y1="4.09916" y2="59.4724" gradientUnits="userSpaceOnUse">
      <stop stop-color="#FE2857"/>
      <stop offset="1" stop-color="#FDB60D"/>
    </linearGradient>
  </defs>
  <path fill="url(#b)" d="m48.2998 0 20.0813 14.2844-20.6282 26.7804-19.25-21.9242L48.2998 0Z"/>
  <path fill="url(#c)" d="M70 42.7715 42.5359 26.0371 7.79297 50.4004l8.43833 19.1953L70 42.7715Z"/>
  <path fill="url(#d)" d="m15.1211.49805 37.0125 9.09453L16.2313 69.5957 0 43.5973 15.1211.49805Z"/>
  <path fill="#000" d="M56 14H14v42h42V14Z"/>
  <path fill="#fff" d="M34.957 48.252H19.165v2.6302h15.792V48.252Z"/>
  <path fill="#fff" d="M29.0097 28.7151c.9135-.441 1.6223-1.0658 2.121-1.869.4988-.8033.7508-1.7273.7508-2.772 0-1.0343-.2468-1.953-.735-2.7405-.4935-.7928-1.1865-1.407-2.0895-1.8428-.903-.4357-1.953-.651-3.15-.651h-7.2713v16.6215h3.5858v-6.0795h2.3887l3.3968 6.0795h4.0162l-3.7747-6.4365c.2625-.0892.5197-.189.7612-.3097Zm-6.7882-6.93h3.3967c.525 0 .9765.0945 1.365.2782.3885.1838.6825.4568.8925.8085.2048.3518.3098.7613.3098 1.2285 0 .4725-.105.8873-.3098 1.239-.2047.3518-.504.6195-.8925.8085-.3885.1838-.8452.2783-1.365.2783h-3.3967v-4.641Z"/>
  <path fill="#fff" d="m47.6369 35.462-3.7748-6.4365c.2625-.084.5198-.189.7613-.3045.9135-.441 1.6222-1.0658 2.121-1.869.4987-.8033.7507-1.7273.7507-2.772 0-1.0343-.2467-1.953-.735-2.7405-.4935-.7928-1.1865-1.407-2.0895-1.8428-.903-.4357-1.953-.651-3.15-.651h-7.2765v16.6215h3.5858v-6.0847h2.3887l3.3968 6.0795h4.0215Zm-9.8018-13.6763h3.3968c.525 0 .9765.0945 1.365.2783.3885.1837.6825.4567.8925.8085.2047.3517.3097.7612.3097 1.2285 0 .4725-.105.8872-.3097 1.239-.2048.3517-.504.6195-.8925.8085-.3885.1837-.8453.2782-1.365.2782h-3.3968v-4.641Z"/>
</svg>
