<svg xmlns="http://www.w3.org/2000/svg" width="64" height="64" fill="none" viewBox="0 0 64 64">
  <defs>
    <linearGradient id="a" x1="7.67063" x2="61.1256" y1="64.3931" y2="39.6094" gradientUnits="userSpaceOnUse">
      <stop offset=".1" stop-color="#00D886"/>
      <stop offset=".59" stop-color="#F0EB18"/>
    </linearGradient>
    <linearGradient id="b" x1="59.9331" x2="1.33687" y1="59.6762" y2="1.08" gradientUnits="userSpaceOnUse">
      <stop offset=".3" stop-color="#F0EB18"/>
      <stop offset=".7" stop-color="#00C4F4"/>
    </linearGradient>
  </defs>
  <path fill="#00D886" d="M6 47.55v12.2588c0 2.3037 1.88688 4.1612 4.1906 4.1243l11.0431-.1762c1.1813-.0188 2.2975-.5431 3.0663-1.44l32.7069-38.1581c.6406-.7475.9931-1.7001.9931-2.6844V10.125C58 7.84687 56.1531 6 53.875 6H42.8719c-1.1894 0-2.3213.51375-3.1044 1.40875L7.02063 44.8338C6.3625 45.5856 6 46.5506 6 47.55Z"/>
  <path fill="url(#a)" d="M6 49.015v10.8619c0 2.2781 1.84687 4.125 4.125 4.125h12.5656c.2 0 .4-.0144.5981-.0438L60.4738 58.51c2.0256-.2969 3.5268-2.0344 3.5268-4.0812V39.0312c0-2.2787-1.8475-4.1256-4.1262-4.1249l-18.5044.0043c-.4256 0-.8488.0663-1.2538.1957L8.87062 45.085c-1.70937.5463-2.86999 2.135-2.86999 3.9294L6 49.015Z"/>
  <path fill="url(#b)" d="M0 4.125v34.1275c0 1.6581.993125 3.155 2.52063 3.8L39.9419 57.85c.5181.2187 1.0756.3294 1.6381.3244l18.3287-.15c2.265-.0188 4.0913-1.86 4.0913-4.125V36.2337c0-.8056-.2356-1.5931-.6781-2.2662L42.2131 1.85938C41.45.69875 40.155 0 38.7663 0H4.125C1.84687 0 0 1.84687 0 4.125Z"/>
  <path fill="#000" d="M52 12H12v40h40V12Z"/>
  <path fill="#fff" d="M33 44H17v3h16v-3Z"/>
  <path fill="#fff" d="M16.9928 16.9922h6.4419c1.0575 0 1.9844.1931 2.7812.5787.7969.3857 1.4113.9288 1.8438 1.6294.4325.7006.6487 1.5113.6487 2.4331 0 .9219-.22 1.7582-.6593 2.4657-.4394.7075-1.0632 1.2556-1.8707 1.6456-.8075.3894-1.7506.5844-2.83.5844h-3.43v5.67h-2.9262V16.9928l.0006-.0006Zm7.5406 6.63c.3682-.1825.6519-.4431.8519-.7825.2-.3394.3-.7375.3-1.195s-.1-.8413-.3-1.1738c-.2-.3325-.4844-.5893-.8519-.7718-.3681-.1825-.7987-.2732-1.2918-.2732h-3.3232v4.47h3.3232c.4931 0 .9237-.0912 1.2918-.2731v-.0006Z"/>
  <path fill="#fff" d="M33.7133 31.2425c-1.165-.675-2.0794-1.6044-2.7438-2.7869-.6643-1.1825-.9968-2.5025-.9968-3.9606s.3325-2.7781.9968-3.9606c.6644-1.1825 1.5794-2.1119 2.7438-2.7869 1.1644-.675 2.4656-1.0131 3.9019-1.0131 1.215 0 2.3293.225 3.3443.675 1.0144.45 1.86 1.0806 2.535 1.8919.675.8112 1.1269 1.7418 1.3557 2.7925h-3.0657c-.2-.5432-.4981-1.02-.895-1.4313-.3968-.4106-.8737-.7269-1.4312-.9487-.5575-.2213-1.165-.3325-1.8225-.3325-.8863 0-1.6863.2212-2.4013.6643-.7143.4432-1.2737 1.0525-1.6775 1.8275-.4037.7757-.6056 1.6488-.6056 2.6206 0 .9719.2019 1.8457.6056 2.6207.4038.7756.9632 1.3844 1.6775 1.8275.7144.4431 1.515.6644 2.4013.6644.6575 0 1.265-.1107 1.8225-.3325.5575-.2213 1.0344-.5375 1.4312-.9488.3969-.4106.695-.8881.895-1.4313h3.0657c-.2288 1.0507-.6807 1.9813-1.3557 2.7926-.675.8112-1.5206 1.4418-2.535 1.8918-1.015.45-2.1293.675-3.3443.675-1.4363 0-2.7369-.3375-3.9019-1.0131v.0025Z"/>
</svg>
