<svg xmlns="http://www.w3.org/2000/svg" width="627" height="109" fill="none" viewBox="0 0 627 109">
  <path fill="#fff" d="M117.696 4.08496H152.453C172.744 4.08496 185.006 16.1061 185.006 33.4843V33.7258C185.006 53.4201 169.703 63.5656 150.62 63.5656H136.41V89.1426H117.696V4.08496ZM151.302 46.969C160.666 46.969 166.122 41.3847 166.122 34.0953V33.8537C166.122 25.4701 160.296 20.9658 150.932 20.9658H136.41V46.969H151.302Z"/>
  <path fill="#fff" d="M237.155 24.0068H256.352L231.315 90.7201C226.342 103.963 220.985 108.951 209.93 108.951C204.147 109.034 198.461 107.472 193.532 104.446L199.727 91.0895C202.108 92.5816 204.824 93.4559 207.628 93.633C210.782 93.633 212.488 92.6668 214.065 89.3702L188.488 24.0068H208.139L222.96 68.3544L237.155 24.0068Z"/>
  <path fill="#fff" d="M256.949 46.8552V46.6137C256.949 22.4576 275.179 2.56445 301.296 2.56445C317.339 2.56445 326.944 7.9072 334.845 15.694L322.937 29.4203C316.373 23.4665 309.68 19.8147 301.183 19.8147C286.845 19.8147 276.515 31.7222 276.515 46.3153V46.5568C276.515 61.1357 286.604 73.2847 301.183 73.2847C310.902 73.2847 316.813 69.3914 323.534 63.3381L335.442 75.3593C326.703 84.7233 316.969 90.5492 300.572 90.5492C275.535 90.5918 256.949 71.2812 256.949 46.8552V46.8552Z"/>
  <path fill="#fff" d="M341.623 0.418945H360.095V33.2427C364.358 27.7721 369.814 22.7988 379.164 22.7988C393.146 22.7988 401.288 32.0349 401.288 46.9548V89.1426H382.816V52.8091C382.816 44.0561 378.681 39.5659 371.633 39.5659C364.585 39.5659 360.095 44.0561 360.095 52.8091V89.1426H341.623V0.418945Z"/>
  <path fill="#fff" d="M409.032 70.4288V70.1872C409.032 55.9778 419.846 49.3988 435.291 49.3988C440.713 49.3493 446.101 50.2585 451.206 52.0844V50.9903C451.206 43.3314 446.46 39.0828 437.224 39.0828C431.061 39.0888 424.958 40.2854 419.249 42.6067L414.631 28.511C422.545 24.8689 431.186 23.0804 439.895 23.2819C449.984 23.2819 457.273 25.9533 461.891 30.5714C466.751 35.431 468.996 42.6067 468.996 51.3455V89.1426H451.121V82.0379C446.63 87.0112 440.435 90.2936 431.44 90.2936C419.121 90.3504 409.032 83.3025 409.032 70.4288V70.4288ZM451.447 66.166V62.9404C447.734 61.3011 443.713 60.4728 439.654 60.5106C431.767 60.5106 426.865 63.6651 426.865 69.491V69.7467C426.865 74.72 431 77.633 436.954 77.633C445.607 77.5903 451.447 72.887 451.447 66.1802V66.166Z"/>
  <path fill="#fff" d="M478.985 24.0068H497.457V37.1363C501.223 28.1417 507.304 22.3017 518.231 22.799V42.1096H517.265C504.988 42.1096 497.457 49.5269 497.457 65.0862V89.1428H478.985V24.0068Z"/>
  <path fill="#fff" d="M526.629 24.0066H545.102V33.2428C549.364 27.7721 554.949 22.7988 564.313 22.7988C572.838 22.7988 579.247 26.5643 582.657 33.1291C588.341 26.4364 595.176 22.7988 604.042 22.7988C617.769 22.7988 626.039 31.0545 626.039 46.7275V89.1426H607.566V52.8091C607.566 44.0561 603.673 39.5659 596.753 39.5659C589.833 39.5659 585.57 44.0561 585.57 52.8091V89.1426H567.098V52.8091C567.098 44.0561 563.219 39.5659 556.284 39.5659C549.35 39.5659 545.102 44.0561 545.102 52.8091V89.1426H526.629V24.0066Z"/>
  <path fill="#000" d="M0 4H85V89H0V4Z"/>
  <path fill="#fff" d="M10.5996 73.1572H42.5708V78.4858H10.5996V73.1572Z"/>
  <path fill="#fff" d="M10.6279 14.6289H23.6864C31.2884 14.6289 35.9065 19.1333 35.9065 25.6554V25.7549C35.9065 33.1438 30.1517 36.9661 22.9901 36.9661H17.7326V46.6001H10.6279V14.6289ZM23.2175 30.7282C26.7414 30.7282 28.7876 28.6252 28.7876 25.8828V25.8544C28.7876 22.6999 26.5993 21.0231 23.1038 21.0231H17.7326V30.785L23.2175 30.7282Z"/>
  <path fill="#fff" d="M39.743 30.7278V30.6426C39.7039 28.4515 40.109 26.2751 40.9338 24.2448C41.7587 22.2145 42.9863 20.3723 44.5425 18.8293C46.0988 17.2864 47.9514 16.0746 49.9887 15.2672C52.026 14.4597 54.2058 14.0733 56.3965 14.1312C58.7224 14.0138 61.0467 14.3927 63.2149 15.2429C65.3831 16.093 67.3455 17.3948 68.9718 19.0619L64.5101 24.2057C62.3628 21.9832 59.4289 20.6923 56.3396 20.6107C50.9685 20.6107 47.0893 25.0725 47.0893 30.5573V30.6426C47.0893 36.1132 50.869 40.6744 56.3396 40.6744C59.9915 40.6744 62.2223 39.2535 64.7374 36.9374L69.1992 41.456C67.5916 43.3337 65.578 44.8213 63.3107 45.806C61.0434 46.7907 58.5819 47.2468 56.1123 47.1397C53.9495 47.1744 51.8018 46.7733 49.7973 45.9603C47.7928 45.1473 45.9725 43.939 44.445 42.4074C42.9174 40.8759 41.7138 39.0525 40.906 37.0459C40.0982 35.0393 39.7027 32.8906 39.743 30.7278"/>
</svg>
