<svg enable-background="new 0 0 70 70" height="70" viewBox="0 0 70 70" width="70" xmlns="http://www.w3.org/2000/svg" xmlns:xlink="http://www.w3.org/1999/xlink"><linearGradient id="a" gradientUnits="userSpaceOnUse" x1="24.9985" x2="66.6565" y1="27.0461" y2="27.0461"><stop offset="0" stop-color="#21d789"/><stop offset="1" stop-color="#07c3f2"/></linearGradient><linearGradient id="b" gradientUnits="userSpaceOnUse" x1="-24.5594" x2="61.2196" y1="59.0806" y2="-4.2413"><stop offset=".01075269" stop-color="#fcf84a"/><stop offset=".1116" stop-color="#a7eb62"/><stop offset=".2056" stop-color="#5fe077"/><stop offset=".2727" stop-color="#32da84"/><stop offset=".3065" stop-color="#21d789"/><stop offset=".5768" stop-color="#21d789"/><stop offset=".5968" stop-color="#21d789"/><stop offset=".686" stop-color="#20d68c"/><stop offset=".7627" stop-color="#1ed497"/><stop offset=".8348" stop-color="#19d1a9"/><stop offset=".904" stop-color="#13ccc2"/><stop offset=".9707" stop-color="#0bc6e1"/><stop offset="1" stop-color="#07c3f2"/></linearGradient><linearGradient id="c" gradientUnits="userSpaceOnUse" x1="9.3301" x2="23.6369" y1="77.6536" y2="32.7598"><stop offset="0" stop-color="#21d789"/><stop offset=".1638" stop-color="#24d788"/><stop offset=".3047" stop-color="#2fd886"/><stop offset=".4371" stop-color="#41da82"/><stop offset=".5644" stop-color="#5adc7d"/><stop offset=".6881" stop-color="#7ae077"/><stop offset=".809" stop-color="#a1e36e"/><stop offset=".9254" stop-color="#cfe865"/><stop offset="1" stop-color="#f1eb5e"/></linearGradient><linearGradient id="d" gradientUnits="userSpaceOnUse" x1="28.2753" x2="59.4088" y1="38.6231" y2="-3.2358"><stop offset="0" stop-color="#21d789"/><stop offset=".0608105" stop-color="#24d788"/><stop offset=".1131" stop-color="#2fd886"/><stop offset=".1622" stop-color="#41da82"/><stop offset=".2094" stop-color="#5add7d"/><stop offset=".2548" stop-color="#79e077"/><stop offset=".2581" stop-color="#7ce076"/><stop offset=".4986" stop-color="#8ce173"/><stop offset=".9247" stop-color="#b2e56b"/></linearGradient><linearGradient id="e" gradientUnits="userSpaceOnUse" x1="75.8893" x2="13.1579" y1="43.9496" y2="43.3687"><stop offset=".3871" stop-color="#fcf84a"/><stop offset=".5358" stop-color="#ecf451"/><stop offset=".8259" stop-color="#c2e964"/><stop offset=".9247" stop-color="#b2e56b"/></linearGradient><path d="m49.1 11 20.4 17.1-7.3 14.9-12.4-3.4h-10.6z" fill="url(#a)"/><path d="m28.5 22.1-4 20.9-.4 7.2-9.9 4.3-14.2 1.5 4.3-45.3 25.6-10.7 15.8 10.4z" fill="url(#b)"/><path d="m28.5 22.1 1.9 40.4-6.4 7.5-24-14 19.7-29.4z" fill="url(#c)"/><path d="m54.9 19.1h-24.3l21.5-19.1z" fill="url(#d)"/><path d="m70 62.6-21.4 7.3-28.4-8 8.3-39.8 3.3-3 17.3-1.6-1.6 17.4 13.8-5.3z" fill="url(#e)"/><path d="m13.4 13.4h43.2v43.2h-43.2z"/><g fill="#fff"><path d="m17.5 48.5h16.2v2.7h-16.2z"/><path d="m17.3 19.1h7.3c4.3 0 6.9 2.5 6.9 6.2v.1c0 4.1-3.2 6.3-7.2 6.3h-3v5.3h-3.9v-17.9zm7.1 9c2 0 3.1-1.2 3.1-2.7v-.1c0-1.8-1.2-2.7-3.2-2.7h-3v5.5z"/><path d="m33.1 28.1c0-5.1 3.8-9.3 9.3-9.3 3.4 0 5.4 1.1 7.1 2.8l-2.5 2.9c-1.4-1.3-2.8-2-4.6-2-3 0-5.2 2.5-5.2 5.6v-.1c0 3.1 2.1 5.6 5.2 5.6 2 0 3.3-.8 4.7-2.1l2.5 2.5c-1.8 2-3.9 3.2-7.3 3.2-5.3.1-9.2-4-9.2-9.1"/></g></svg>