<svg xmlns="http://www.w3.org/2000/svg" width="128" height="128" fill="none" viewBox="0 0 128 128">
  <defs>
    <linearGradient id="a" x1="15.3413" x2="122.251" y1="128.786" y2="79.2188" gradientUnits="userSpaceOnUse">
      <stop offset=".1" stop-color="#00D886"/>
      <stop offset=".59" stop-color="#F0EB18"/>
    </linearGradient>
    <linearGradient id="b" x1="119.866" x2="2.67375" y1="119.352" y2="2.16" gradientUnits="userSpaceOnUse">
      <stop offset=".3" stop-color="#F0EB18"/>
      <stop offset=".7" stop-color="#00C4F4"/>
    </linearGradient>
  </defs>
  <path fill="#00D886" d="M12 95.1v24.518c0 4.607 3.7738 8.322 8.3813 8.248l22.0862-.352c2.3625-.038 4.595-1.086 6.1325-2.88l65.414-76.3165c1.281-1.495 1.986-3.4 1.986-5.3688V20.25c0-4.5563-3.694-8.25-8.25-8.25H85.7438c-2.3788 0-4.6425 1.0275-6.2088 2.8175l-65.4937 74.85C12.725 91.1713 12 93.1012 12 95.1Z"/>
  <path fill="url(#a)" d="M12 98.03v21.724c0 4.556 3.6937 8.25 8.25 8.25h25.1312c.4 0 .8-.029 1.1963-.088l74.3705-10.896c4.051-.594 7.053-4.069 7.053-8.162V78.0625c0-4.5575-3.695-8.2512-8.252-8.25l-37.009.0088c-.8513 0-1.6975.1325-2.5075.3912L17.7412 90.17c-3.4187 1.0925-5.7399 4.27-5.7399 7.8588L12 98.03Z"/>
  <path fill="url(#b)" d="M0 8.25v68.255c0 3.3162 1.98625 6.31 5.04125 7.6L79.8838 115.7c1.0362.437 2.1512.659 3.2762.649l36.657-.3c4.53-.038 8.183-3.72 8.183-8.25V72.4675c0-1.6113-.471-3.1863-1.356-4.5325L84.4262 3.71875C82.9 1.3975 80.31 0 77.5325 0H8.25C3.69375 0 0 3.69375 0 8.25Z"/>
  <path fill="#000" d="M104 24H24v80h80V24Z"/>
  <path fill="#fff" d="M66 88H34v6h32v-6Z"/>
  <path fill="#fff" d="M33.9856 33.9844h12.8838c2.115 0 3.9687.3862 5.5625 1.1575 1.5937.7712 2.8225 1.8575 3.6875 3.2587.865 1.4013 1.2975 3.0225 1.2975 4.8663 0 1.8437-.44 3.5162-1.3188 4.9312-.8787 1.415-2.1262 2.5113-3.7412 3.2913-1.615.7787-3.5013 1.1687-5.66 1.1687h-6.86v11.34h-5.8525V33.9856l.0012-.0012Zm15.0813 13.26c.7362-.365 1.3037-.8863 1.7037-1.565.4-.6788.6-1.475.6-2.39s-.2-1.6825-.6-2.3475c-.4-.665-.9687-1.1788-1.7037-1.5438-.7363-.365-1.5975-.5462-2.5838-.5462h-6.6462v8.94h6.6462c.9863 0 1.8475-.1825 2.5838-.5463v-.0012Z"/>
  <path fill="#fff" d="M67.4285 62.485c-2.33-1.35-4.1587-3.2087-5.4875-5.5737-1.3287-2.365-1.9937-5.005-1.9937-7.9213 0-2.9162.665-5.5563 1.9937-7.9213 1.3288-2.365 3.1588-4.2237 5.4875-5.5737 2.3288-1.35 4.9313-2.0262 7.8038-2.0262 2.43 0 4.6587.4499 6.6887 1.3499 2.0288.9 3.72 2.1613 5.07 3.7838 1.35 1.6225 2.2538 3.4838 2.7113 5.585H83.571c-.4-1.0862-.9962-2.04-1.79-2.8625-.7937-.8212-1.7475-1.4537-2.8625-1.8975-1.115-.4425-2.33-.665-3.645-.665-1.7725 0-3.3725.4425-4.8025 1.3288-1.4287.8862-2.5475 2.105-3.355 3.655-.8075 1.5512-1.2112 3.2974-1.2112 5.2412 0 1.9437.4037 3.6912 1.2112 5.2412.8075 1.5513 1.9263 2.7688 3.355 3.6551 1.4288.8862 3.03 1.3287 4.8025 1.3287 1.315 0 2.53-.2212 3.645-.665 1.115-.4425 2.0688-1.075 2.8625-1.8975.7938-.8212 1.39-1.7763 1.79-2.8625h6.1313c-.4575 2.1012-1.3613 3.9625-2.7113 5.585s-3.0412 2.8838-5.07 3.7837c-2.03.9-4.2587 1.3501-6.6887 1.3501-2.8725 0-5.4738-.6751-7.8038-2.0263v.005Z"/>
  <path fill="#FDB60D" d="M112.377 128H47.623A15.622 15.622 0 0 1 32 112.377V95.623A15.623 15.623 0 0 1 47.623 80h64.754A15.622 15.622 0 0 1 128 95.623v16.754A15.62 15.62 0 0 1 112.377 128Z"/>
  <path fill="#000" d="M49.825 93.512h16.477v4.277H54.6v4.431h10.3v4.275H54.6v4.588h11.86v4.275H49.825V93.512Zm28.398-.154h4.431l9.362 22h-5.024l-1.997-4.899h-9.237l-1.997 4.899h-4.899l9.36-22Zm5.057 12.857-2.904-7.085-2.901 7.085h5.805Zm12.107-12.703h8.926c5.211 0 8.363 3.09 8.363 7.552v.063c0 5.055-3.932 7.678-8.83 7.678h-3.652v6.553h-4.807V93.512ZM104 104.53a3.382 3.382 0 0 0 3.807-3.308v-.063c0-2.152-1.497-3.308-3.901-3.308h-3.712v6.679H104Z"/>
</svg>
