<svg height="70" viewBox="0 0 70 70" width="70" xmlns="http://www.w3.org/2000/svg" xmlns:xlink="http://www.w3.org/1999/xlink"><linearGradient id="a" gradientTransform="matrix(1 0 0 -1 0 71.27997)" gradientUnits="userSpaceOnUse" x1="24.99854" x2="66.65652" y1="44.26433" y2="44.26433"><stop offset="0" stop-color="#21d789"/><stop offset="1" stop-color="#07c3f2"/></linearGradient><linearGradient id="b" gradientTransform="matrix(1 0 0 -1 0 71.27997)" gradientUnits="userSpaceOnUse" x1="-24.55117" x2="61.22783" y1="12.1992" y2="75.52098"><stop offset=".01075" stop-color="#fcf84a"/><stop offset=".1116" stop-color="#a7eb62"/><stop offset=".2056" stop-color="#5fe077"/><stop offset=".2727" stop-color="#32da84"/><stop offset=".3065" stop-color="#21d789"/><stop offset=".5768" stop-color="#21d789"/><stop offset=".5968" stop-color="#21d789"/><stop offset=".686" stop-color="#20d68c"/><stop offset=".7627" stop-color="#1ed497"/><stop offset=".8348" stop-color="#19d1a9"/><stop offset=".904" stop-color="#13ccc2"/><stop offset=".9707" stop-color="#0bc6e1"/><stop offset="1" stop-color="#07c3f2"/></linearGradient><linearGradient id="c" gradientTransform="matrix(1 0 0 -1 0 71.27997)" gradientUnits="userSpaceOnUse" x1="9.33385" x2="23.64065" y1="-6.36395" y2="38.5298"><stop offset="0" stop-color="#21d789"/><stop offset=".1638" stop-color="#24d788"/><stop offset=".3047" stop-color="#2fd886"/><stop offset=".4371" stop-color="#41da82"/><stop offset=".5644" stop-color="#5adc7d"/><stop offset=".6881" stop-color="#7ae077"/><stop offset=".809" stop-color="#a1e36e"/><stop offset=".9254" stop-color="#cfe865"/><stop offset="1" stop-color="#f1eb5e"/></linearGradient><linearGradient id="d" gradientTransform="matrix(1 0 0 -1 0 71.27997)" gradientUnits="userSpaceOnUse" x1="28.28039" x2="59.41396" y1="32.66397" y2="74.523"><stop offset="0" stop-color="#21d789"/><stop offset=".06081" stop-color="#24d788"/><stop offset=".1131" stop-color="#2fd886"/><stop offset=".1622" stop-color="#41da82"/><stop offset=".2094" stop-color="#5add7d"/><stop offset=".2548" stop-color="#79e077"/><stop offset=".2581" stop-color="#7ce076"/><stop offset=".4986" stop-color="#8ce173"/><stop offset=".9247" stop-color="#b2e56b"/></linearGradient><linearGradient id="e" gradientTransform="matrix(1 0 0 -1 0 71.27997)" gradientUnits="userSpaceOnUse" x1="75.88924" x2="13.15785" y1="27.33466" y2="27.91554"><stop offset=".3871" stop-color="#fcf84a"/><stop offset=".5358" stop-color="#ecf451"/><stop offset=".8259" stop-color="#c2e964"/><stop offset=".9247" stop-color="#b2e56b"/></linearGradient><path d="m49.109 11.047 20.454 16.953-7.438 14.984-12.25-3.39h-10.719z" fill="url(#a)"/><path d="m28.438 22.094-3.938 20.89-.328 7.219-10.063 4.266-14.109 1.531 4.266-45.281 25.703-10.719 15.75 10.391z" fill="url(#b)"/><path d="m28.438 22.094 1.968 40.359-6.453 7.547-23.953-14 19.688-29.422z" fill="url(#c)"/><path d="m54.906 19.141h-24.281l21.438-19.141z" fill="url(#d)"/><path d="m70 62.563-21.328 7.328-28.438-7.985 8.204-39.812 3.281-2.953 17.39-1.641-1.64 17.391 13.781-5.36z" fill="url(#e)"/><path d="m14 14h42v42h-42z"/><g fill="#fff"><path d="m17.98999 48.125h15.75v2.625h-15.75z"/><path d="m17.885 19.46h7.14c4.2 0 6.615 2.415 6.615 5.985 0 3.99-3.15 6.09-7.035 6.09h-2.94v5.25h-3.78zm6.825 8.82c1.89 0 3.045-1.155 3.045-2.625 0-1.68-1.155-2.625-3.15-2.625h-2.94v5.355h3.045z"/><path d="m33.11 28.28a8.835 8.835 0 0 1 9.03-9.03 8.5891 8.5891 0 0 1 6.825 2.73l-2.415 2.835a6.34366 6.34366 0 0 0 -4.41-1.995 5.14585 5.14585 0 0 0 -5.04 5.46 5.20813 5.20813 0 0 0 5.04 5.46 6.687 6.687 0 0 0 4.62-1.995l2.415 2.415a9.15357 9.15357 0 0 1 -16.065-5.88"/></g><path d="m37 53h33v17h-33z" fill="#d99e2b"/><path d="m40.05563 66.966h7.19661v-1.72329h-5.50724v-2.94521h4.82041v-1.72325h-4.82041v-2.85131h5.43874v-1.72325h-7.12811z"/><path d="m48.15627 66.966h1.86832l1.06757-2.6268h4.9082l1.05281 2.6268h1.9277l-4.5671-10.95841h-1.6904zm3.60316-4.321 1.77945-4.35241 1.79421 4.35241z"/><path d="m59.87536 66.966h1.62869v-3.52491h1.84026a3.50288 3.50288 0 0 0 3.70715-3.74426v-.03124a3.3623 3.3623 0 0 0 -3.52185-3.6659h-3.65425zm1.62869-5.26364v-3.94818h1.89333a1.80657 1.80657 0 0 1 1.99894 1.95836v.03146a1.86935 1.86935 0 0 1 -1.99894 1.95836z"/></svg>