<svg xmlns="http://www.w3.org/2000/svg" width="266" height="64" fill="none" viewBox="0 0 266 64">
  <defs>
    <linearGradient id="a" x1="7.61555" x2="61.2417" y1="64.7192" y2="39.8558" gradientUnits="userSpaceOnUse">
      <stop offset=".1" stop-color="#00D886"/>
      <stop offset=".59" stop-color="#F0EB18"/>
    </linearGradient>
    <linearGradient id="b" x1="60.0128" x2="1.30731" y1="59.7778" y2="1.07229" gradientUnits="userSpaceOnUse">
      <stop offset=".3" stop-color="#F0EB18"/>
      <stop offset=".7" stop-color="#00C4F4"/>
    </linearGradient>
  </defs>
  <path fill="#fff" d="M102.118 18.14c-1.56-.76-3.3597-1.13-5.4197-1.13h-12.71v29.96h5.33v-11.6h7.21c2.1 0 3.9297-.38 5.5097-1.16 1.58-.77 2.8-1.85 3.66-3.24.86-1.39 1.29-3 1.29-4.83s-.42-3.41-1.27-4.79c-.85-1.38-2.05-2.45-3.61-3.21h.01Zm-1.26 10.52c-.42.71-1.0097 1.25-1.7797 1.64-.76.39-1.67.58-2.71.58h-7.06v-9.35h7.06c1.04 0 1.94.19 2.71.57.76.38 1.3497.92 1.7797 1.62.42.7.63 1.52.63 2.46s-.21 1.79-.63 2.49v-.01Zm23.56 7.25c0 1.03-.21 1.94-.63 2.75-.42.81-1.02 1.43-1.79 1.88-.77.45-1.66.67-2.65.67-.93 0-1.73-.2-2.4-.59-.67-.39-1.18-.96-1.54-1.7-.36-.74-.54-1.64-.54-2.7V25.05h-5.03v11.92c0 1.8.33 3.34.98 4.63.66 1.29 1.58 2.27 2.76 2.94 1.18.67 2.56 1.01 4.13 1.01 1.68 0 3.15-.39 4.4-1.16.95-.59 1.73-1.37 2.34-2.34l-.04 3.15c0 .9-.18 1.66-.55 2.29-.36.63-.88 1.11-1.56 1.43-.68.32-1.49.49-2.45.49h-7.88v4.39h8.2c1.88 0 3.52-.34 4.92-1.02 1.4-.68 2.48-1.64 3.23-2.88.76-1.24 1.13-2.7 1.13-4.39V25.03h-5.05v10.85l.02.03Zm19.81-13.2c1.49-.92 3.16-1.38 5-1.38 1.36 0 2.62.23 3.78.69 1.16.46 2.16 1.11 3 1.97.83.86 1.46 1.85 1.87 3h5.61c-.49-2.05-1.39-3.88-2.73-5.47-1.34-1.59-3-2.83-5-3.7-2-.88-4.19-1.32-6.57-1.32-2.85 0-5.43.67-7.74 2.02-2.3 1.35-4.12 3.2-5.44 5.56-1.32 2.36-1.98 5-1.98 7.91s.66 5.55 1.98 7.91c1.32 2.36 3.13 4.22 5.44 5.56 2.3 1.35 4.88 2.02 7.74 2.02 2.38 0 4.57-.44 6.57-1.32 2-.88 3.66-2.11 5-3.7 1.34-1.59 2.24-3.41 2.73-5.47h-5.61c-.41 1.14-1.04 2.14-1.87 3-.83.86-1.83 1.51-3 1.97-1.16.46-2.42.68-3.78.68-1.84 0-3.51-.46-5-1.38-1.49-.92-2.66-2.19-3.5-3.81-.84-1.62-1.26-3.44-1.26-5.47s.42-3.85 1.26-5.47c.84-1.62 2.01-2.89 3.5-3.81v.01Zm38.78 2.86c-1.18-.69-2.56-1.03-4.13-1.03-1.67 0-3.12.39-4.37 1.18-1.04.66-1.86 1.56-2.5 2.68v-.56l.06-4.04v-6.78h-4.94v29.96h5.05V34.29c0-1.04.21-1.96.63-2.76.42-.8 1.02-1.42 1.79-1.87.77-.45 1.65-.67 2.65-.67.93 0 1.73.2 2.4.59.67.39 1.18.96 1.54 1.7.36.74.54 1.64.54 2.7v13.01h5.03V33.21c0-1.8-.33-3.35-.98-4.64-.65-1.29-1.58-2.29-2.76-2.97l-.01-.03Zm25.06 2.8c-.71-1.09-1.62-1.97-2.73-2.63-1.36-.8-2.95-1.2-4.76-1.2-1.96 0-3.7.49-5.23 1.47-1.53.98-2.74 2.34-3.61 4.09-.87 1.75-1.31 3.72-1.31 5.92 0 2.2.44 4.17 1.31 5.92.87 1.75 2.08 3.11 3.62 4.09s3.28 1.47 5.22 1.47c1.81 0 3.4-.4 4.76-1.2 1.11-.65 2.02-1.54 2.73-2.63v3.31h4.97V25.06h-4.97v3.31Zm-.82 11.27c-.53 1.05-1.26 1.87-2.21 2.46-.94.59-2.03.89-3.25.89-1.22 0-2.27-.29-3.21-.88-.94-.58-1.67-1.4-2.19-2.46s-.78-2.27-.78-3.64.26-2.58.78-3.63c.52-1.05 1.25-1.87 2.19-2.46.94-.59 2.01-.89 3.21-.89 1.2 0 2.31.3 3.25.89.94.59 1.68 1.41 2.21 2.46s.79 2.26.79 3.63-.26 2.58-.79 3.63Zm17.88-13.52c-.83.57-1.53 1.33-2.1 2.26v-3.32h-5.01v21.92h5.05V35.15c0-1.06.22-1.97.67-2.74.45-.77 1.09-1.36 1.93-1.78.83-.41 1.82-.62 2.94-.62h1.41v-5.09h-.81c-1.56 0-2.92.4-4.09 1.21l.01-.01Zm39.79 2.49c-.64-1.3-1.54-2.3-2.72-3.01-1.18-.71-2.54-1.06-4.1-1.06-1.68 0-3.15.4-4.41 1.2-1.14.73-2.03 1.74-2.7 3.01l-.06-.15c-.61-1.3-1.49-2.3-2.62-3.01-1.13-.71-2.48-1.06-4.03-1.06-1.55 0-2.96.39-4.12 1.17-.98.66-1.76 1.57-2.37 2.71v-3.36h-4.9v21.92h5.05V34.26c0-1.07.19-2 .58-2.8.39-.8.93-1.41 1.65-1.84.71-.43 1.55-.64 2.5-.64.88 0 1.64.19 2.28.58.64.39 1.12.93 1.46 1.65.34.72.5 1.56.5 2.55v13.23h4.94V34.28c0-1.07.2-2 .59-2.8.39-.8.95-1.41 1.67-1.84.72-.43 1.55-.64 2.49-.64.88 0 1.64.19 2.27.58.63.39 1.11.93 1.44 1.65.33.72.5 1.56.5 2.55v13.23h5.05V33.18c0-1.73-.32-3.24-.95-4.54l.01-.03Z"/>
  <path fill="#00D886" d="m5.8125 48.0551.00175 11.8755c0 2.2493 1.82341 4.0721 4.07272 4.0721H21.3936c1.1886 0 2.3185-.5195 3.0924-1.4219l32.7092-38.1615c.6324-.7383.9804-1.6786.9804-2.6508V9.89304c0-2.24931-1.8235-4.07273-4.0728-4.07273H42.5945c-1.1887 0-2.3186.51957-3.0924 1.42197L6.79286 45.4037c-.63301.7384-.98036 1.6786-.98036 2.6514Z"/>
  <path fill="url(#a)" d="M5.8125 49.4825v10.4466c0 2.2493 1.82342 4.0727 4.07273 4.0727H22.9779c.1926 0 .3851-.0139.576-.0407l36.9437-5.2771c2.0067-.2868 3.4967-2.0049 3.4967-4.032V38.979c0-2.2499-1.824-4.0733-4.0739-4.0727l-18.5384.0046c-.4376 0-.8722.0704-1.287.2089L8.59708 45.6193c-1.66283.5544-2.78458 2.1108-2.78458 3.8638v-.0006Z"/>
  <path fill="url(#b)" d="M-.00586 4.07273V38.041c0 1.6291.971055 3.1017 2.46807 3.7434L39.9528 57.8525c.5068.217 1.0531.3293 1.6047.3293h18.3639c2.2493 0 4.0727-1.8234 4.0727-4.0727v-17.966c0-.8046-.2385-1.5912-.6853-2.2609L41.906 1.81353C41.1502.681309 39.8795.001745 38.5187.001745L4.06687 0C1.81756 0-.00586 1.82342-.00586 4.07273Z"/>
  <path fill="#000" d="M51.9941 12h-40v40h40V12Z"/>
  <path fill="#fff" fill-rule="evenodd" d="M23.5305 16.9676h-6.4408v15.0055h2.9261v-5.6702h3.4297c1.0714 0 2.0114-.1929 2.8187-.5788.8148-.3927 1.4401-.9434 1.8759-1.6508.4427-.7074.6644-1.5434.6644-2.465 0-.9216-.2182-1.7324-.654-2.4329-.429-.7005-1.0434-1.2431-1.8438-1.629-.8004-.3859-1.726-.5788-2.7762-.5788Zm1.0927 6.6349c-.3646.1785-.793.2681-1.2862.2681h-3.3229v-4.4695h3.3229c.4932 0 .9216.0924 1.2862.2784.3715.178.6569.4353.8572.7718.2004.3278.3004.7286.3004 1.1788 0 .4502-.1005.8469-.3004 1.1897-.1998.3365-.4857.5966-.8572.7827Z" clip-rule="evenodd"/>
  <path fill="#fff" d="M33.3762 31.2232c1.1651.6713 2.4656 1.0077 3.9017 1.0077v-.0011c1.2144 0 2.3295-.2251 3.3441-.6753 1.0147-.4501 1.8576-1.0783 2.5294-1.8862.6787-.8148 1.1329-1.7473 1.3614-2.7975h-3.0656c-.2004.5426-.5002 1.0221-.9004 1.4361-.3933.4076-.8687.7223-1.4257.9434-.557.221-1.1645.3324-1.8219.3324-.886 0-1.6865-.221-2.4008-.6643-.7148-.4433-1.2758-1.0502-1.6829-1.8219-.4003-.7781-.6001-1.6543-.6001-2.6259 0-.9715.1998-1.8437.6001-2.6154.4076-.7786.9681-1.3896 1.6829-1.8329.7143-.4432 1.5148-.6643 2.4008-.6643.6568 0 1.2643.1114 1.8219.3325.5575.221 1.0324.5397 1.4257.9537.4002.4077.7.8831.9004 1.4257h3.0656c-.2291-1.0502-.6827-1.9787-1.3614-2.7866-.6718-.8147-1.5147-1.4469-2.5294-1.8971-1.0146-.4502-2.1297-.6753-3.3441-.6753-1.4366 0-2.7372.3388-3.9017 1.0181-1.165.6712-2.0797 1.6009-2.744 2.7866-.6644 1.1788-.9969 2.4972-.9969 3.955 0 1.4579.3325 2.7803.9969 3.966.6649 1.1789 1.579 2.1073 2.744 2.7866Z"/>
  <path fill="#fff" d="M16.9883 44.001h16v3h-16v-3Z"/>
</svg>
