<svg xmlns="http://www.w3.org/2000/svg" width="64" height="64" fill="none" viewBox="0 0 64 64">
  <defs>
    <linearGradient id="a" x1="4.0675" x2="62.6637" y1="4.32704" y2="62.9233" gradientUnits="userSpaceOnUse">
      <stop offset=".28" stop-color="#007DFE"/>
      <stop offset=".73" stop-color="#00D980"/>
    </linearGradient>
    <linearGradient id="b" x1="56.3294" x2="2.875" y1="-.390625" y2="24.3925" gradientUnits="userSpaceOnUse">
      <stop offset=".32" stop-color="#F0EB18"/>
      <stop offset=".55" stop-color="#007DFE"/>
    </linearGradient>
  </defs>
  <path fill="url(#a)" d="M64 59.8777V25.7502c0-1.6582-.9931-3.155-2.5206-3.8L24.0581 6.15266c-.5181-.21875-1.0756-.32937-1.6381-.32437l-18.32875.15C1.82625 5.99641 0 7.83766 0 10.1027v17.6656c0 .8056.235625 1.5931.678125 2.2662L21.7869 62.1439c.7625 1.1606 2.0581 1.8588 3.4468 1.8588H59.875c2.2781 0 4.125-1.8469 4.125-4.125Z"/>
  <path fill="url(#b)" d="M58 14.9875V4.125C58 1.84687 56.1531 0 53.875 0H41.3094c-.2 0-.4.014375-.5981.04375L3.52688 5.49188C1.50125 5.78875 0 7.52625 0 9.57312V24.9706c0 2.2788 1.8475 4.1256 4.12625 4.125l18.50435-.0044c.4256 0 .8488-.0662 1.2538-.1956L55.13 18.9169c1.7094-.5463 2.87-2.135 2.87-3.9294Z"/>
  <path fill="#F0EB18" d="M58 16.45V4.19125C58 1.8875 56.1131.03 53.8094.066875L43 0c-1.1812.01875-2.5312.785625-3.3 1.6825L6.99312 39.8413C6.3525 40.5888 6 41.5412 6 42.5256V53.875C6 56.1531 7.84687 58 10.125 58h11.0031c1.1894 0 2.3213-.5137 3.1044-1.4087l32.7469-37.425C57.6375 18.4144 58 17.4494 58 16.45Z"/>
  <path fill="#000" d="M52 12H12v40h40V12Z"/>
  <path fill="#fff" d="M33 44H17v3h16v-3Z"/>
  <path fill="#fff" d="M17.0117 16.9922h5.7131c1.4219 0 2.6957.3212 3.8213.9644 1.1256.6431 2.0062 1.5343 2.6419 2.6743.6356 1.14.9537 2.4275.9537 3.8644 0 1.4369-.3181 2.7244-.9537 3.8644-.6363 1.14-1.5169 2.0312-2.6419 2.6744-1.125.6431-2.3994.9643-3.8213.9643h-5.7131V16.9922Zm8.0281 11.8762c.6719-.4 1.19-.9737 1.5544-1.7206.3644-.7469.5469-1.6306.5469-2.6531 0-1.0225-.1825-1.9063-.5469-2.6531-.3644-.7469-.8825-1.32-1.5544-1.7207-.6718-.4-1.4543-.6-2.3475-.6h-2.755v9.9469h2.755c.8932 0 1.6757-.2 2.3475-.6v.0006Z"/>
  <path fill="#fff" d="M34.7127 31.6644c-.84-.3931-1.4968-.9431-1.9725-1.6506-.475-.7075-.72-1.5219-.7343-2.4438h2.9368c0 .4356.1144.8181.3432 1.1469.2287.3287.5468.5862.9537.7719.4075.1856.875.2787 1.4044.2787.5294 0 .9519-.0837 1.3344-.2519.3818-.1681.6787-.4019.8893-.7019.2107-.3.3163-.6431.3163-1.0287 0-.4788-.145-.875-.4344-1.19-.2894-.3144-.6881-.5325-1.195-.6538l-2.6475-.5893c-.7144-.1569-1.3362-.4269-1.865-.8094-.5287-.3825-.94-.8556-1.2325-1.42-.2931-.5644-.4394-1.2006-.4394-1.9081 0-.8575.2213-1.6275.6644-2.31.4431-.6825 1.0613-1.215 1.8544-1.5969.7931-.3825 1.6937-.5731 2.7012-.5731s1.9332.1856 2.7332.5575 1.4237.8881 1.8706 1.5487c.4462.6613.6737 1.42.6806 2.2775h-2.9262c0-.3643-.0963-.6912-.2894-.9806s-.4663-.5144-.82-.675c-.3538-.1606-.7594-.2412-1.2169-.2412-.4575 0-.8594.0768-1.2056.2306-.3469.1537-.6163.3681-.8094.6431-.1931.275-.2894.595-.2894.9594 0 .4143.1338.7575.4019 1.0287.2681.2719.6344.4644 1.0988.5788l2.5512.5575c.7356.15 1.3919.4344 1.9669.8519.575.4181 1.0237.9324 1.345 1.5437.3212.6112.4825 1.2775.4825 1.9988 0 .8862-.2344 1.6812-.7019 2.385-.4681.7037-1.1237 1.2556-1.9669 1.6562-.8431.4-1.8081.6-2.8943.6-1.0863 0-2.0494-.1969-2.8888-.5894l.0006-.0012Z"/>
</svg>
