<svg xmlns="http://www.w3.org/2000/svg" width="128" height="128" fill="none" viewBox="0 0 128 128">
  <defs>
    <linearGradient id="a" x1="8.135" x2="125.327" y1="8.64626" y2="125.839" gradientUnits="userSpaceOnUse">
      <stop offset=".28" stop-color="#007DFE"/>
      <stop offset=".73" stop-color="#00D980"/>
    </linearGradient>
    <linearGradient id="b" x1="112.659" x2="5.75" y1="-.78125" y2="48.785" gradientUnits="userSpaceOnUse">
      <stop offset=".32" stop-color="#F0EB18"/>
      <stop offset=".55" stop-color="#007DFE"/>
    </linearGradient>
  </defs>
  <path fill="url(#a)" d="M128 119.748V51.4925c0-3.3162-1.986-6.31-5.041-7.6l-74.8428-31.595c-1.0362-.4375-2.1512-.6587-3.2762-.6487l-36.6575.3C3.6525 11.985 0 15.6675 0 20.1975v35.3313c0 1.6112.47125 3.1862 1.35625 4.5325L43.5737 124.28c1.525 2.321 4.1163 3.718 6.8938 3.718H119.75c4.556 0 8.25-3.694 8.25-8.25Z"/>
  <path fill="url(#b)" d="M116 29.975V8.25c0-4.55625-3.694-8.25-8.25-8.25H82.6188c-.4 0-.8.02875-1.1963.0875L7.05375 10.9838C3.0025 11.5775 0 15.0525 0 19.1462v30.795c0 4.5575 3.695 8.2513 8.2525 8.25l37.0087-.0087c.8513 0 1.6975-.1325 2.5075-.3913L110.26 37.8338c3.419-1.0925 5.74-4.27 5.74-7.8588Z"/>
  <path fill="#F0EB18" d="M116 32.9V8.3825C116 3.775 112.226.06 107.619.13375L86 0c-2.3625.0375-5.0625 1.57125-6.6 3.365L13.9862 79.6825C12.705 81.1775 12 83.0825 12 85.0512V107.75c0 4.556 3.6937 8.25 8.25 8.25h22.0062c2.3788 0 4.6426-1.027 6.2088-2.817l65.494-74.8505C115.275 36.8288 116 34.8988 116 32.9Z"/>
  <path fill="#000" d="M104 24H24v80h80V24Z"/>
  <path fill="#fff" d="M66 88H34v6h32v-6Z"/>
  <path fill="#fff" d="M34.0254 33.9844h11.4262c2.8438 0 5.3913.6425 7.6425 1.9287 2.2513 1.2863 4.0125 3.0688 5.2838 5.3488 1.2712 2.28 1.9075 4.855 1.9075 7.7287 0 2.8738-.6363 5.4488-1.9075 7.7288-1.2725 2.28-3.0338 4.0625-5.2838 5.3487-2.25 1.2863-4.7987 1.9288-7.6425 1.9288H34.0254V33.9844Zm16.0562 23.7525c1.3438-.8 2.38-1.9475 3.1088-3.4413.7287-1.4937 1.0937-3.2612 1.0937-5.3062 0-2.045-.365-3.8125-1.0937-5.3063-.7288-1.4937-1.765-2.64-3.1088-3.4412-1.3437-.8-2.9087-1.2-4.695-1.2h-5.51v19.8937h5.51c1.7863 0 3.3513-.4 4.695-1.2v.0013Z"/>
  <path fill="#fff" d="M69.4274 63.3366c-1.68-.7863-2.9937-1.8863-3.945-3.3013-.95-1.415-1.44-3.0437-1.4687-4.8875h5.8737c0 .8713.2288 1.6363.6863 2.2938s1.0937 1.1725 1.9075 1.5437c.815.3713 1.75.5575 2.8087.5575 1.0588 0 1.9038-.1675 2.6688-.5037.7637-.3363 1.3575-.8038 1.7787-1.4038.4213-.6.6325-1.2862.6325-2.0575 0-.9575-.29-1.75-.8687-2.38-.5788-.6287-1.3763-1.065-2.39-1.3075l-5.295-1.1787c-1.4288-.3138-2.6725-.8538-3.73-1.6188s-1.88-1.7112-2.465-2.84c-.5863-1.1287-.8788-2.4012-.8788-3.8162 0-1.715.4425-3.255 1.3288-4.62.8862-1.365 2.1225-2.43 3.7087-3.1938 1.5863-.765 3.3875-1.1462 5.4025-1.1462 2.015 0 3.8663.3712 5.4663 1.115 1.6.7437 2.8475 1.7762 3.7412 3.0975.8925 1.3225 1.3475 2.84 1.3613 4.555h-5.8525c0-.7288-.1925-1.3825-.5788-1.9613-.3862-.5787-.9325-1.0287-1.64-1.35-.7075-.3212-1.5187-.4825-2.4337-.4825s-1.7188.1538-2.4113.4613c-.6937.3075-1.2325.7362-1.6187 1.2862-.3863.55-.5788 1.19-.5788 1.9188 0 .8287.2675 1.515.8038 2.0575.5362.5437 1.2687.9287 2.1975 1.1575l5.1025 1.115c1.4712.3 2.7837.8687 3.9337 1.7037 1.15.8363 2.0475 1.865 2.69 3.0875.6425 1.2225.965 2.555.965 3.9975 0 1.7725-.4687 3.3625-1.4037 4.77-.9363 1.4075-2.2475 2.5113-3.9338 3.3125-1.6862.8-3.6162 1.2-5.7887 1.2-2.1725 0-4.0988-.3937-5.7775-1.1787l.0012-.0025Z"/>
</svg>
