<svg height="124" width="622" viewBox="0 0 622 124" xmlns="http://www.w3.org/2000/svg"
  xmlns:xlink="http://www.w3.org/1999/xlink">
  <path d="m26.656 26.572h71.086v70.857h-71.086v-70.859z" fill="#000"/>
  <path
    d="m35.543 84.143h26.657v4.428h-26.657zm0-48.714h10.405c8.37 0 14.146 5.721 14.146 13.188v.097c0 7.467-5.776 13.286-14.146 13.286h-10.405v-26.57zm5.882 5.314v15.943h4.523c4.798 0 7.997-3.224 7.997-7.972a7.604 7.604 0 0 0 -2.232-5.746 7.653 7.653 0 0 0 -5.765-2.225zm20.775 17.493 3.491-4.163c2.408 1.984 4.94 3.242 7.997 3.242 2.417 0 3.875-.948 3.875-2.525v-.07c0-1.489-.889-2.26-5.403-3.402-5.411-1.373-8.886-2.87-8.886-8.175v-.08c0-4.844 3.91-8.06 9.393-8.06a15.538 15.538 0 0 1 9.97 3.402l-3.066 4.428c-2.373-1.647-4.71-2.657-6.975-2.657-2.266 0-3.448 1.054-3.448 2.338v.071c0 1.772 1.146 2.338 5.785 3.543 5.446 1.417 8.512 3.366 8.512 8.025v.08c0 5.314-4.06 8.29-9.854 8.29a17.12 17.12 0 0 1 -11.392-4.287z"
    fill="#fff"/>
  <path
    d="m124.666 26.855h27.501c22.17 0 37.48 15.163 37.48 34.941v.204c0 19.787-15.31 35.154-37.48 35.154h-27.501v-70.3zm15.514 13.959v42.381h11.987c12.698 0 21.264-8.538 21.264-20.991v-.204c0-12.453-8.566-21.186-21.264-21.186zm54.418 40.866v-.194c0-11.754 8.965-17.174 21.761-17.174 4.494-.04 8.96.707 13.195 2.205v-.885c0-6.325-3.927-9.84-11.551-9.84a39.888 39.888 0 0 0 -14.919 2.913l-3.821-11.647a47.72 47.72 0 0 1 20.952-4.322c8.362 0 14.404 2.214 18.234 6.023 4.034 4.02 5.846 9.946 5.846 17.174v31.239h-14.848v-5.828c-3.723 4.118-8.885 6.829-16.323 6.829-10.174-.018-18.526-5.846-18.526-16.492zm35.16-3.542v-2.684a23.814 23.814 0 0 0 -9.774-2.002c-6.549 0-10.574 2.604-10.574 7.431v.195c0 4.119 3.421 6.528 8.362 6.528 7.144 0 11.978-3.915 11.978-9.433zm25.689 3.746v-25.508h-6.451v-13.056h6.451v-13.755h15.31v13.755h12.698v13.056h-12.698v23.028c0 3.543 1.511 5.217 4.941 5.217a15.607 15.607 0 0 0 7.553-1.904v12.25a22.594 22.594 0 0 1 -12.094 3.117c-9.365-.026-15.71-3.746-15.71-16.2zm32.032-.204v-.194c0-11.754 8.965-17.174 21.761-17.174a38.59 38.59 0 0 1 13.204 2.205v-.885c0-6.325-3.937-9.84-11.552-9.84a39.815 39.815 0 0 0 -14.91 2.913l-3.83-11.647a47.726 47.726 0 0 1 20.953-4.322c8.361 0 14.413 2.214 18.233 6.023 4.035 4.02 5.847 9.946 5.847 17.174v31.239h-14.848v-5.828c-3.723 4.118-8.886 6.829-16.323 6.829-10.174-.018-18.535-5.846-18.535-16.492zm35.16-3.542v-2.684a23.788 23.788 0 0 0 -9.774-2.002c-6.549 0-10.574 2.604-10.574 7.431v.195c0 4.119 3.421 6.528 8.361 6.528 7.153 0 11.987-3.915 11.987-9.433zm20.455 8.768 9.17-10.947c6.344 5.226 13 8.538 21.059 8.538 6.344 0 10.174-2.515 10.174-6.625v-.204c0-3.915-2.417-5.925-14.217-8.937-14.217-3.613-23.369-7.537-23.369-21.496v-.195c0-12.754 10.271-21.195 24.675-21.195a40.959 40.959 0 0 1 26.195 8.937l-8.059 11.656c-6.22-4.322-12.387-6.935-18.331-6.935-5.945 0-9.073 2.71-9.073 6.129v.204c0 4.614 3.022 6.12 15.213 9.238 14.315 3.71 22.374 8.857 22.374 21.089v.194c0 13.968-10.663 21.798-25.893 21.798a45.002 45.002 0 0 1 -29.918-11.249zm63.676-43.586h15.301v7.733c3.723-5.022 8.885-8.734 16.82-8.734 12.591 0 24.587 9.84 24.587 27.812v.204c0 17.98-11.791 27.82-24.587 27.82-8.157 0-13.195-3.72-16.82-8.034v23.1h-15.301v-69.9zm41.407 27.015v-.204c0-8.937-6.042-14.862-13.195-14.862s-13.098 5.925-13.098 14.862v.204c0 8.936 5.945 14.862 13.098 14.862s13.195-5.82 13.195-14.862zm19.95.203v-.203c0-15.368 10.983-28.016 26.657-28.016 18.029 0 26.293 13.96 26.293 29.229 0 1.204-.098 2.657-.195 4.021h-37.498c1.51 6.926 6.353 10.54 13.204 10.54 5.136 0 8.886-1.603 13.097-5.518l8.762 7.732c-5.038 6.2-12.289 10.044-22.063 10.044-16.27-.008-28.257-11.363-28.257-27.829zm38.084-4.517c-.888-6.829-4.931-11.452-11.382-11.452s-10.477 4.517-11.685 11.452zm22.969-42.186h15.319v73.32h-15.319zm26.398 0h15.31v73.32h-15.31z"
    fill="#000"/>
</svg>
