<svg xmlns="http://www.w3.org/2000/svg" width="275" height="64" fill="none" viewBox="0 0 275 64">
  <defs>
    <linearGradient id="a" x1="3.98196" x2="62.6868" y1="4.22439" y2="62.9293" gradientUnits="userSpaceOnUse">
      <stop offset=".28" stop-color="#007DFE"/>
      <stop offset=".73" stop-color="#00D980"/>
    </linearGradient>
    <linearGradient id="b" x1="56.3788" x2="1.93862" y1="-.717381" y2="24.5231" gradientUnits="userSpaceOnUse">
      <stop offset=".32" stop-color="#F0EB18"/>
      <stop offset=".55" stop-color="#007DFE"/>
    </linearGradient>
  </defs>
  <path fill="#fff" d="M102.814 18.9669c-2.23-1.28-4.7599-1.93-7.5899-1.93h-11.23v29.96h11.24c2.83 0 5.3499-.64 7.5899-1.93 2.23-1.28 3.98-3.06 5.23-5.33 1.26-2.27 1.88-4.84 1.88-7.73 0-2.89-.63-5.46-1.88-7.73-1.25-2.27-3-4.04-5.23-5.33l-.01.02Zm.52 18.53c-.76 1.56-1.85 2.75-3.25 3.6-1.3999.85-3.0399 1.26-4.8899 1.26h-5.86v-20.67h5.86c1.85 0 3.49.42 4.8899 1.26 1.4.84 2.49 2.04 3.25 3.6.76 1.56 1.14 3.38 1.14 5.48 0 2.1-.38 3.92-1.14 5.48v-.01Zm27.4-9.1c-.71-1.09-1.62-1.97-2.73-2.63-1.36-.8-2.95-1.2-4.76-1.2-1.95 0-3.7.49-5.23 1.47-1.53.98-2.74 2.34-3.61 4.09-.87 1.75-1.3 3.72-1.3 5.92 0 2.2.43 4.17 1.3 5.92.87 1.75 2.08 3.11 3.62 4.09s3.28 1.47 5.22 1.47c1.81 0 3.4-.4 4.76-1.2 1.11-.65 2.02-1.54 2.73-2.63v3.31h4.96v-21.92h-4.96v3.31Zm-.82 11.27c-.53 1.05-1.26 1.87-2.2 2.46-.94.59-2.03.89-3.25.89-1.22 0-2.27-.29-3.21-.88-.94-.58-1.67-1.4-2.19-2.46s-.78-2.27-.78-3.64.26-2.58.78-3.63c.52-1.05 1.25-1.87 2.19-2.46.94-.59 2.01-.89 3.21-.89 1.2 0 2.31.3 3.25.89.94.59 1.68 1.41 2.2 2.46.53 1.05.79 2.26.79 3.63s-.26 2.58-.79 3.63Zm17.62-19.93h-4.71v3.55c0 .53-.17.96-.49 1.29-.33.34-.76.5-1.31.5h-2.4l-.02 4.39h3.85l.02 11.71c0 1.11.26 2.11.78 3 .52.88 1.25 1.58 2.18 2.08.93.5 1.99.75 3.16.75h4.73v-4.39h-3.72c-.6 0-1.1-.2-1.49-.59-.39-.39-.59-.89-.59-1.49l-.02-11.06h5.82l.02-4.39h-5.82v-5.35h.01Zm25.04 8.66c-.71-1.09-1.62-1.97-2.73-2.63-1.36-.8-2.95-1.2-4.76-1.2-1.96 0-3.7.49-5.23 1.47-1.53.98-2.74 2.34-3.61 4.09-.87 1.75-1.31 3.72-1.31 5.92 0 2.2.44 4.17 1.31 5.92.87 1.75 2.08 3.11 3.62 4.09s3.28 1.47 5.22 1.47c1.81 0 3.4-.4 4.76-1.2 1.11-.65 2.02-1.54 2.73-2.63v3.31h4.97v-21.92h-4.97v3.31Zm-.81 11.27c-.53 1.05-1.26 1.87-2.21 2.46-.94.59-2.03.89-3.25.89-1.22 0-2.27-.29-3.21-.88-.94-.58-1.67-1.4-2.19-2.46s-.78-2.27-.78-3.64.26-2.58.78-3.63c.52-1.05 1.25-1.87 2.19-2.46.94-.59 2.01-.89 3.21-.89 1.2 0 2.31.3 3.25.89.94.59 1.68 1.41 2.21 2.46s.79 2.26.79 3.63-.26 2.58-.79 3.63Zm28.5-8.25c-1.14-.83-2.44-1.4-3.89-1.73l-5.05-1.13c-1.01-.27-1.81-.7-2.4-1.27-.58-.58-.88-1.32-.88-2.21 0-.8.21-1.5.62-2.1.41-.6.99-1.06 1.73-1.39.74-.33 1.6-.49 2.57-.49.97 0 1.85.17 2.6.51.75.34 1.33.83 1.73 1.46.4.63.61 1.33.61 2.12h5.35c-.01-1.68-.46-3.18-1.33-4.48-.87-1.31-2.09-2.33-3.66-3.06-1.57-.73-3.36-1.1-5.37-1.1-2.01 0-3.73.38-5.29 1.13-1.55.76-2.77 1.8-3.64 3.12-.87 1.33-1.31 2.83-1.31 4.52 0 1.38.29 2.63.88 3.75.59 1.12 1.41 2.05 2.46 2.8 1.06.76 2.29 1.3 3.7 1.63l5.22 1.18c1.1.27 1.96.75 2.59 1.42.63.67.94 1.54.94 2.58 0 .84-.22 1.59-.67 2.24-.45.65-1.08 1.16-1.9 1.52-.82.36-1.77.55-2.86.55-1.09 0-2.12-.2-2.99-.6-.86-.4-1.54-.95-2.02-1.66-.49-.71-.73-1.52-.73-2.45h-5.35c.01 1.83.49 3.44 1.42 4.84.93 1.4 2.23 2.49 3.88 3.26 1.65.78 3.55 1.17 5.69 1.17 2.14 0 4.02-.4 5.68-1.19 1.66-.79 2.95-1.88 3.87-3.26.92-1.38 1.38-2.94 1.38-4.67 0-1.43-.32-2.74-.95-3.94-.64-1.2-1.52-2.21-2.67-3.04l.04-.03Zm25.47-5.38c-1.53-.98-3.28-1.47-5.23-1.47-1.8 0-3.38.4-4.75 1.2-1.17.68-2.1 1.62-2.82 2.78v-3.47h-4.94v28.76h5.05v-10.14c.71 1.08 1.6 1.96 2.71 2.6 1.36.8 2.95 1.2 4.76 1.2 1.94 0 3.68-.49 5.22-1.47 1.54-.98 2.75-2.34 3.62-4.09.87-1.75 1.3-3.72 1.3-5.92 0-2.2-.43-4.17-1.3-5.92-.87-1.75-2.07-3.11-3.61-4.09l-.01.03Zm-1.05 13.63c-.52 1.05-1.25 1.87-2.19 2.46-.94.59-2.01.89-3.21.89-1.2 0-2.31-.29-3.25-.88-.94-.58-1.68-1.4-2.2-2.46-.53-1.06-.79-2.27-.79-3.64s.26-2.58.79-3.63c.53-1.05 1.26-1.87 2.2-2.46.94-.59 2.03-.89 3.25-.89 1.22 0 2.27.3 3.21.89.94.59 1.67 1.41 2.19 2.46s.78 2.26.78 3.63-.26 2.58-.78 3.63Zm25.62-13.64c-1.68-.97-3.6-1.46-5.76-1.46-2.16 0-4.03.5-5.77 1.49-1.74.99-3.1 2.36-4.1 4.1-1 1.74-1.5 3.69-1.5 5.84s.5 4.17 1.49 5.93c.99 1.75 2.35 3.12 4.07 4.11 1.72.98 3.66 1.48 5.81 1.48 1.7 0 3.25-.26 4.64-.79 1.4-.53 2.59-1.28 3.57-2.25s1.73-2.13 2.25-3.49h-5.5c-.56.74-1.25 1.32-2.1 1.73-.84.41-1.79.62-2.85.62-1.2 0-2.27-.29-3.22-.88-.95-.58-1.69-1.4-2.23-2.45-.43-.83-.68-1.76-.78-2.77h17.29v-1.22c0-2.23-.47-4.21-1.4-5.94-.93-1.73-2.24-3.08-3.93-4.06l.02.01Zm-11.88 7.83c.13-.72.34-1.4.67-2.02.54-1.02 1.28-1.82 2.23-2.4.95-.58 2.02-.87 3.22-.87 1.2 0 2.26.3 3.18.9.92.6 1.63 1.43 2.13 2.49.28.59.47 1.22.59 1.89h-12.02v.01Zm20.86 13.14h5.05v-29.96h-5.05v29.96Zm9.94-29.96v29.96h5.05v-29.96h-5.05Z"/>
  <path fill="url(#a)" d="M64 59.9294V25.9611c0-1.6291-.9711-3.1017-2.4681-3.7434L24.0413 6.14962c-.5068-.21702-1.0531-.32931-1.6046-.32931H4.07273C1.82342 5.82031 0 7.64373 0 9.89304V27.859c0 .8047.238545 1.5913.685382 2.261L22.0887 62.1886c.7552 1.1322 2.0265 1.8118 3.3874 1.8118l34.4512.0017c2.2493 0 4.0727-1.8234 4.0727-4.0727Z"/>
  <path fill="url(#b)" d="M58.1818 14.5193V4.07273C58.1818 1.82342 56.3584 0 54.1091 0H41.0164c-.1925 0-.3851.013964-.576.040727L3.49673 5.3184C1.49062 5.60465 0 7.32334 0 9.34982V25.0228c0 2.2499 1.824 4.0733 4.07389 4.0728l18.53851-.0047c.4375 0 .8721-.0704 1.2869-.2089l31.4979-10.4995c1.6629-.5544 2.7846-2.1108 2.7846-3.8638v.0006Z"/>
  <path fill="#F0EB18" d="m58.182 15.9476-.0018-11.87545C58.1797 1.82342 56.3562 0 54.1075 0H42.6009c-1.1886 0-2.3185.519564-3.0924 1.42196L6.79872 39.5834c-.63243.7383-.98036 1.6786-.98036 2.6508v11.8755c0 2.2493 1.82342 4.0727 4.07273 4.0727H21.3994c1.1887 0 2.3186-.5196 3.0924-1.422L57.2016 18.599c.6331-.7383.9804-1.6786.9804-2.6514Z"/>
  <path fill="#000" d="M52 12H12v40h40V12Z"/>
  <path fill="#fff" fill-rule="evenodd" d="M22.8086 16.966h-5.7144v15.0099h5.7144c1.4222 0 2.6944-.3216 3.8167-.9649 1.1292-.6433 2.012-1.5278 2.6484-2.6668.6358-1.1522.954-2.4388.954-3.873 0-1.4342-.3182-2.7208-.954-3.8597-.6364-1.1396-1.5192-2.0373-2.6484-2.6806-1.1223-.6433-2.3945-.9649-3.8167-.9649Zm2.3159 11.8744c-.672.4021-1.4543.6031-2.348.6031l-2.7553-.0005v-9.9441h2.7553c.8931 0 1.676.201 2.348.6031.672.3889 1.1901.9649 1.5548 1.7156s.5468 1.6353.5468 2.6536c0 1.0184-.1821 1.9029-.5468 2.6536-.3647.7507-.8828 1.3268-1.5548 1.7156Z" clip-rule="evenodd"/>
  <path fill="#fff" d="M34.3597 31.6411c.8438.402 1.8087.5898 2.8949.5898 1.0867 0 2.0522-.2016 2.8954-.6036.8437-.3889 1.4973-.9517 1.962-1.6485.4715-.7099.7076-1.5008.7076-2.3853 0-.7237-.1608-1.394-.4825-1.9971-.3216-.6163-.7719-1.1257-1.3509-1.541-.5715-.4285-1.2257-.7099-1.962-.8575l-2.5519-.5629c-.4647-.1069-.8329-.3079-1.1045-.5761-.2648-.2683-.3969-.6169-.3969-1.0322 0-.3618.0965-.6835.2895-.9517.1929-.2814.4612-.4957.8041-.6433.3503-.1608.7541-.2412 1.2113-.2412.4572 0 .861.0936 1.2114.2544.3572.1609.6323.3757.8253.6703.193.2947.2895.6163.2895.9782h2.927c-.0075-.8581-.2361-1.6221-.6864-2.2786-.4428-.657-1.0649-1.1797-1.8655-1.5548-.8007-.3618-1.726-.5491-2.734-.5491s-1.9087.1873-2.7019.5761c-.7932.3757-1.4112.9116-1.8546 1.595-.4428.683-.6645 1.4475-.6645 2.305 0 .7105.1464 1.3406.4394 1.9167.2935.5628.7041 1.0315 1.2331 1.4204.529.375 1.1511.6433 1.8656.8041l2.6484.5899c.5077.1206.904.3348 1.1901.6565.2929.3084.4394.7105.4394 1.1929 0 .3751-.1074.7237-.3217 1.0184-.2067.3084-.5037.5364-.8897.7105-.3791.1608-.8012.2544-1.3296.2544-.5285 0-.9971-.0936-1.4044-.2814-.4072-.1873-.7254-.4423-.954-.7771-.2286-.3217-.3429-.71-.3429-1.139h-2.9379c.0144.9115.2573 1.7288.7289 2.4393.479.7105 1.1367 1.2602 1.9729 1.6485Z"/>
  <path fill="#fff" d="M16.9941 44.0009h16v3h-16v-3Z"/>
</svg>
