<svg xmlns="http://www.w3.org/2000/svg" width="545" height="90" fill="none" viewBox="0 0 545 90">
  <path fill="#000000" d="M0 2.737H71.086V73.594H0V2.735V2.737Z"/>
  <path fill="#ffffff"
        d="M8.88699 60.308H35.544V64.736H8.88699V60.308ZM8.88699 11.594H19.292C27.662 11.594 33.438 17.315 33.438 24.782V24.879C33.438 32.346 27.662 38.165 19.292 38.165H8.88699V11.595V11.594ZM14.769 16.908V32.851H19.292C24.09 32.851 27.289 29.627 27.289 24.879C27.3387 23.8185 27.1658 22.7593 26.7814 21.7697C26.3969 20.78 25.8095 19.8819 25.057 19.133C24.3035 18.3817 23.4017 17.7959 22.409 17.4128C21.4164 17.0297 20.3548 16.8577 19.292 16.908H14.769ZM35.544 34.401L39.035 30.238C41.443 32.222 43.975 33.48 47.032 33.48C49.449 33.48 50.907 32.532 50.907 30.955V30.885C50.907 29.396 50.018 28.625 45.504 27.483C40.093 26.11 36.618 24.613 36.618 19.308V19.228C36.618 14.384 40.528 11.168 46.011 11.168C49.6291 11.1065 53.1552 12.3096 55.981 14.57L52.915 18.998C50.542 17.351 48.205 16.341 45.94 16.341C43.674 16.341 42.492 17.395 42.492 18.679V18.75C42.492 20.522 43.638 21.088 48.277 22.293C53.723 23.71 56.789 25.659 56.789 30.318V30.398C56.789 35.712 52.729 38.688 46.935 38.688C42.7407 38.7027 38.687 37.1772 35.543 34.401H35.544Z"/>
  <path fill="#000000"
        d="M98.01 3.02H125.511C147.681 3.02 162.991 18.183 162.991 37.961V38.165C162.991 57.952 147.681 73.319 125.511 73.319H98.01V3.019V3.02ZM113.524 16.979V59.36H125.511C138.209 59.36 146.775 50.822 146.775 38.369V38.165C146.775 25.712 138.209 16.979 125.511 16.979H113.524ZM167.942 57.845V57.651C167.942 45.897 176.907 40.477 189.703 40.477C194.197 40.437 198.663 41.184 202.898 42.682V41.797C202.898 35.472 198.971 31.957 191.347 31.957C186.233 31.9627 181.168 32.9517 176.428 34.87L172.607 23.223C179.174 20.2152 186.338 18.7374 193.559 18.901C201.921 18.901 207.963 21.115 211.793 24.924C215.827 28.944 217.639 34.87 217.639 42.098V73.337H202.791V67.509C199.068 71.627 193.906 74.338 186.468 74.338C176.294 74.32 167.942 68.492 167.942 57.846V57.845ZM203.102 54.303V51.619C200.022 50.269 196.691 49.5867 193.328 49.617C186.779 49.617 182.754 52.221 182.754 57.048V57.243C182.754 61.362 186.175 63.771 191.116 63.771C198.26 63.771 203.094 59.856 203.094 54.338L203.102 54.303ZM228.791 58.049V32.541H222.34V19.485H228.791V5.73H244.101V19.485H256.799V32.541H244.101V55.569C244.101 59.112 245.612 60.786 249.042 60.786C251.68 60.7999 254.279 60.1448 256.595 58.882V71.132C252.937 73.2867 248.745 74.367 244.501 74.249C235.136 74.223 228.791 70.503 228.791 58.049V58.049ZM260.823 57.845V57.651C260.823 45.897 269.788 40.477 282.584 40.477C287.08 40.4371 291.549 41.1834 295.788 42.682V41.797C295.788 35.472 291.851 31.957 284.236 31.957C279.125 31.962 274.063 32.951 269.326 34.87L265.496 23.223C272.063 20.2153 279.228 18.7375 286.449 18.901C294.81 18.901 300.862 21.115 304.682 24.924C308.717 28.944 310.529 34.87 310.529 42.098V73.337H295.681V67.509C291.958 71.627 286.795 74.338 279.358 74.338C269.184 74.32 260.823 68.492 260.823 57.846V57.845ZM295.983 54.303V51.619C292.903 50.2683 289.572 49.5859 286.209 49.617C279.66 49.617 275.635 52.221 275.635 57.048V57.243C275.635 61.362 279.056 63.771 283.996 63.771C291.149 63.771 295.983 59.856 295.983 54.338V54.303ZM316.438 63.071L325.608 52.124C331.952 57.35 338.608 60.662 346.667 60.662C353.011 60.662 356.841 58.147 356.841 54.037V53.833C356.841 49.918 354.424 47.908 342.624 44.896C328.407 41.283 319.255 37.359 319.255 23.4V23.205C319.255 10.451 329.526 2.01 343.93 2.01C353.434 1.85922 362.695 5.01871 370.125 10.947L362.066 22.603C355.846 18.281 349.679 15.668 343.735 15.668C337.79 15.668 334.662 18.378 334.662 21.797V22.001C334.662 26.615 337.684 28.121 349.875 31.239C364.19 34.949 372.249 40.096 372.249 52.328V52.522C372.249 66.49 361.586 74.32 346.356 74.32C335.343 74.3575 324.698 70.3552 316.438 63.071V63.071ZM380.114 19.485H395.415V27.218C399.138 22.196 404.3 18.484 412.235 18.484C424.826 18.484 436.822 28.324 436.822 46.296V46.5C436.822 64.48 425.031 74.32 412.235 74.32C404.078 74.32 399.04 70.6 395.415 66.286V89.386H380.114V19.486V19.485ZM421.521 46.5V46.296C421.521 37.359 415.479 31.434 408.326 31.434C401.173 31.434 395.228 37.359 395.228 46.296V46.5C395.228 55.436 401.173 61.362 408.326 61.362C415.479 61.362 421.521 55.542 421.521 46.5ZM441.471 46.703V46.5C441.471 31.132 452.454 18.484 468.128 18.484C486.157 18.484 494.421 32.444 494.421 47.713C494.421 48.917 494.323 50.37 494.226 51.734H456.728C458.238 58.66 463.081 62.274 469.932 62.274C475.068 62.274 478.818 60.671 483.029 56.756L491.791 64.488C486.753 70.688 479.502 74.532 469.728 74.532C453.458 74.524 441.471 63.169 441.471 46.703V46.703ZM479.555 42.186C478.667 35.357 474.624 30.734 468.173 30.734C461.722 30.734 457.696 35.251 456.488 42.186H479.555ZM502.524 0H517.843V73.32H502.524V0ZM528.922 0H544.232V73.32H528.922V0Z"/>
</svg>
