<svg xmlns="http://www.w3.org/2000/svg" width="652" height="109" fill="none" viewBox="0 0 652 109">
  <path fill="#000" d="M117.319 4.26475H150.263C176.811 4.26475 195.154 22.4865 195.154 46.2595V46.5007C195.154 70.2736 176.811 88.7365 150.263 88.7365H117.319V4.26475ZM135.903 21.0388V71.9631H150.263C165.468 71.9631 175.725 61.7056 175.725 46.7418V46.5006C175.725 31.5374 165.468 21.0387 150.263 21.0387L135.903 21.0388Z"/>
  <path fill="#000" d="M201.069 70.153V69.9111C201.069 55.7927 211.808 49.2762 227.133 49.2762C232.518 49.2282 237.869 50.1269 242.942 51.9312V50.8452C242.942 43.2427 238.236 39.0187 229.064 39.0187C222.941 39.0253 216.877 40.2136 211.205 42.5185L206.619 28.5207C214.484 24.9099 223.067 23.1353 231.719 23.3313C241.735 23.3313 248.976 25.9863 253.561 30.572C258.388 35.399 260.56 42.5185 260.56 51.207V88.7365H242.821V81.7376C238.356 86.6852 232.202 89.9431 223.272 89.9431C211.084 89.9431 201.069 82.9442 201.069 70.153ZM243.183 65.929V62.671C239.496 61.0466 235.507 60.2238 231.478 60.2572C223.634 60.2572 218.807 63.3953 218.807 69.1876V69.4288C218.807 74.3763 222.91 77.2724 228.823 77.2724C237.391 77.2724 243.183 72.5661 243.183 65.929Z"/>
  <path fill="#000" d="M273.957 70.3941V39.7429H266.234V24.0555H273.957V7.52332H292.299V24.0555H307.504V39.7429H292.299V67.3774C292.299 71.6007 294.109 73.6521 298.212 73.6521C301.375 73.6675 304.489 72.8786 307.263 71.3595V86.0815C302.883 88.6654 297.864 89.962 292.782 89.8225C281.56 89.8225 273.957 85.3573 273.957 70.3941Z"/>
  <path fill="#000" d="M312.33 70.153V69.9111C312.33 55.7927 323.071 49.2762 338.396 49.2762C343.78 49.2283 349.131 50.127 354.204 51.9312V50.8452C354.204 43.2427 349.498 39.0187 340.327 39.0187C334.204 39.0253 328.14 40.2136 322.467 42.5185L317.881 28.5207C325.746 24.9099 334.329 23.1353 342.981 23.3313C352.998 23.3313 360.238 25.9863 364.823 30.572C369.65 35.399 371.822 42.5185 371.822 51.207V88.7365H354.084V81.7376C349.618 86.6852 343.464 89.9431 334.535 89.9431C322.346 89.9431 312.33 82.9442 312.33 70.153ZM354.445 65.929V62.671C350.759 61.0466 346.769 60.2238 342.74 60.2572C334.896 60.2572 330.07 63.3953 330.07 69.1876V69.4288C330.07 74.3763 334.172 77.2724 340.085 77.2724C348.653 77.2724 354.445 72.5661 354.445 65.929Z"/>
  <path fill="#000" d="M378.943 76.4276L389.924 63.2746C397.527 69.5493 405.491 73.5314 415.145 73.5314C422.747 73.5314 427.333 70.5147 427.333 65.5672V65.326C427.333 60.6197 424.437 58.2059 410.318 54.5862C393.303 50.2416 382.322 45.5352 382.322 28.7619V28.5207C382.322 13.1951 394.631 3.05814 411.887 3.05814C423.277 2.87423 434.374 6.67277 443.262 13.798L433.608 27.7965C426.126 22.6078 418.765 19.4697 411.645 19.4697C404.526 19.4697 400.785 22.7284 400.785 26.8311V27.0723C400.785 32.6234 404.405 34.4336 419.006 38.1746C436.142 42.6391 445.796 48.7938 445.796 63.5158V63.757C445.796 80.5311 433.004 89.9431 414.783 89.9431C401.582 89.9919 388.824 85.1811 378.943 76.4276Z"/>
  <path fill="#000" d="M455.21 24.0555H473.552V33.3476C478.017 27.3134 484.172 22.849 493.705 22.849C508.789 22.849 523.149 34.6748 523.149 56.2751V56.5169C523.149 78.1172 509.03 89.9431 493.705 89.9431C483.93 89.9431 477.897 85.4786 473.552 80.2892V108.044H455.21V24.0555ZM504.807 56.5169V56.2751C504.807 45.5352 497.566 38.4158 488.998 38.4158C480.431 38.4158 473.311 45.5352 473.311 56.2751V56.5169C473.311 67.2568 480.431 74.3763 488.998 74.3763C497.566 74.3763 504.807 67.3774 504.807 56.5169Z"/>
  <path fill="#000" d="M528.7 56.7581V56.5169C528.7 38.054 541.853 22.849 560.678 22.849C582.279 22.849 592.174 39.6223 592.174 57.9647C592.174 59.4131 592.054 61.102 591.933 62.7916H546.921C548.732 71.1184 554.524 75.4623 562.729 75.4623C568.884 75.4623 573.349 73.5315 578.418 68.8251L588.916 78.1172C582.882 85.5992 574.194 90.1849 562.488 90.1849C543.06 90.1849 528.7 76.5482 528.7 56.7581ZM574.314 51.3276C573.228 43.1221 568.401 37.5709 560.678 37.5709C553.075 37.5709 548.128 43.0015 546.68 51.3276H574.314Z"/>
  <path fill="#000" d="M601.828 0.64502H620.17V88.7365H601.828V0.64502Z"/>
  <path fill="#000" d="M633.443 0.64502H651.786V88.7365H633.443V0.64502Z"/>
  <path fill="#000" d="M85 4H0V89H85V4Z"/>
  <path fill="#fff" d="M42.5 73.0631H10.625V78.3755H42.5V73.0631Z"/>
  <path fill="#fff" d="M10.6557 14.6417H23.0703C33.0748 14.6417 39.9869 21.5085 39.9869 30.4669V30.5581C39.9869 39.5165 33.0748 46.4742 23.0703 46.4742H10.6557V14.6417ZM17.6588 20.963V40.1533H23.0703C28.8002 40.1533 32.6655 36.2877 32.6655 30.649V30.5581C32.7305 29.2809 32.5268 28.0043 32.0676 26.8107C31.6084 25.6171 30.9039 24.5331 29.9996 23.6288C29.0953 22.7245 28.0113 22.02 26.8178 21.5608C25.6242 21.1016 24.3475 20.898 23.0703 20.963H17.6588Z"/>
  <path fill="#fff" d="M42.5109 41.9848L46.6838 36.9907C49.5688 39.3711 52.597 40.8851 56.2578 40.8851C59.1503 40.8851 60.8903 39.7401 60.8903 37.857V37.7666C60.8903 35.9814 59.7906 35.0624 54.4273 33.6914C47.9645 32.0418 43.7913 30.249 43.7913 23.8839V23.7861C43.7913 17.9709 48.4691 14.1142 55.0224 14.1142C59.3491 14.0445 63.5642 15.4886 66.939 18.1969L63.2706 23.5149C60.431 21.5414 57.6363 20.3513 54.9321 20.3512C52.2278 20.3512 50.8042 21.5866 50.8042 23.1458V23.2362C50.8042 25.3453 52.1827 26.0383 57.7267 27.4545C64.2347 29.1493 67.9031 31.492 67.9031 37.0812V37.1715C67.9031 43.5441 63.0447 47.1145 56.1221 47.1145C51.1092 47.1333 46.2645 45.3074 42.5109 41.9848Z"/>
</svg>
