<svg xmlns="http://www.w3.org/2000/svg" width="64" height="64" fill="none" viewBox="0 0 64 64">
  <defs>
    <linearGradient id="a" x1="-.390625" x2="24.3925" y1="7.67063" y2="61.1256" gradientUnits="userSpaceOnUse">
      <stop offset=".19" stop-color="#FF45ED"/>
      <stop offset=".54" stop-color="#FF0A67"/>
    </linearGradient>
    <linearGradient id="b" x1="4.32509" x2="62.9207" y1="59.9325" y2="1.33625" gradientUnits="userSpaceOnUse">
      <stop offset=".26" stop-color="#FF0A67"/>
      <stop offset=".65" stop-color="#FDB60D"/>
    </linearGradient>
  </defs>
  <path fill="#FF45ED" d="M16.4501 6H4.19132C1.88757 6 .03007 7.88688.066946 10.1906l.17625 11.0431C.261946 22.415.786321 23.5312 1.6832 24.3l38.1587 32.7069c.7475.6406 1.7.9931 2.6844.9931h11.3494c2.2781 0 4.125-1.8469 4.125-4.125V42.8719c0-1.1894-.5138-2.3213-1.4088-3.1044L19.1663 7.02063C18.4144 6.3625 17.4494 6 16.4501 6Z"/>
  <path fill="url(#a)" d="M14.9875 6H4.125C1.84687 6 0 7.84687 0 10.125v12.5656c0 .2.014375.4.04375.5981l5.44813 37.1851c.29687 2.0256 2.03437 3.5268 4.08124 3.5268H24.9706c2.2788 0 4.1256-1.8475 4.125-4.1262L29.0912 41.37c0-.4256-.0662-.8488-.1956-1.2538L18.9169 8.87062c-.5463-1.70937-2.135-2.86999-3.9294-2.86999V6Z"/>
  <path fill="url(#b)" d="M59.8757 0H25.7482c-1.6581 0-3.155.993125-3.8 2.52063L6.15071 39.9419c-.21875.5181-.32938 1.0756-.32438 1.6381l.15 18.3287C5.99508 62.1737 7.83633 64 10.1013 64H27.767c.8056 0 1.5931-.2356 2.2662-.6781l32.1094-21.1088c1.1606-.7625 1.8587-2.0581 1.8587-3.4468V4.125c0-2.27813-1.8468-4.125-4.125-4.125h-.0006Z"/>
  <path fill="#000" d="M52 12H12v40h40V12Z"/>
  <path fill="#fff" d="M33 44H17v3h16v-3Z"/>
  <path fill="#fff" d="M16.9961 16.9922h6.4419c1.0506 0 1.9756.1931 2.7762.5787.8.3857 1.4169.9288 1.8488 1.6294.4325.7006.6487 1.5113.6487 2.4331 0 .9219-.22 1.7488-.6594 2.46-.4393.7113-1.065 1.2613-1.8756 1.6507-.8112.3893-1.7525.5843-2.8244.5843h-3.43v5.67h-2.9262V16.9922Zm7.5406 6.63c.3681-.1825.6519-.4431.8519-.7825.2-.3394.3-.7344.3-1.1844 0-.45-.1-.8519-.3-1.1844-.2-.3325-.4844-.5893-.8519-.7718-.3681-.1825-.7987-.2732-1.2919-.2732h-3.3231v4.47h3.3231c.4932 0 .9238-.0912 1.2919-.2731v-.0006Zm-2.6319 1.7631h3.1944l3.9338 6.6138h-3.355l-3.7732-6.6138Z"/>
  <path fill="#fff" d="M44.4113 19.6169v-3.6325h-2.2644v3.6381H38.565v2.1806h3.5819v3.6244h2.2644v-3.6381h3.5818v-2.1807h-3.5818v.0082Zm-7.9557 2.9356h-2.2644v3.6381h-3.5818v2.1807h3.5818v3.6243h2.2644v-3.6381h3.5819v-2.1806h-3.5819v-3.6244Z"/>
</svg>
