<svg xmlns="http://www.w3.org/2000/svg" width="380" height="64" fill="none" viewBox="0 0 380 64">
  <defs>
    <linearGradient id="a" x1="-.384766" x2="24.3984" y1="7.67063" y2="61.1256" gradientUnits="userSpaceOnUse">
      <stop offset=".19" stop-color="#FF45ED"/>
      <stop offset=".54" stop-color="#FF0A67"/>
    </linearGradient>
    <linearGradient id="b" x1="4.33095" x2="62.9266" y1="59.9325" y2="1.33625" gradientUnits="userSpaceOnUse">
      <stop offset=".26" stop-color="#FF0A67"/>
      <stop offset=".65" stop-color="#FDB60D"/>
    </linearGradient>
  </defs>
  <path fill="#fff" d="M102.05 34.21c1.58-.77 2.8-1.85 3.66-3.24.86-1.39 1.29-3 1.29-4.83s-.42-3.41-1.27-4.79c-.85-1.38-2.05-2.45-3.61-3.21-1.56-.76-3.36-1.13-5.42-1.13H84v29.96h5.33V35.3701h5.49l6.73 11.5999h6.12l-7.29-12.13c.58-.17 1.15-.37 1.68-.63h-.01ZM99.1 30.3c-.76.38-1.67.58-2.71.58h-7.06v-9.35h7.06c1.04 0 1.94.19 2.71.57.76.38 1.35.92 1.78 1.62.42.7.63 1.5201.63 2.4601 0 .94-.21 1.7899-.63 2.4899-.42.71-1.01 1.25-1.78 1.64v-.01Zm27.61-4.3099c-1.68-.97-3.6-1.4601-5.76-1.4601-2.16 0-4.03.5-5.77 1.49-1.73.99-3.1 2.3601-4.1 4.1001-1 1.74-1.5 3.6899-1.5 5.8399s.5 4.17 1.49 5.93c.99 1.75 2.35 3.12 4.07 4.11 1.72.98 3.66 1.48 5.81 1.48 1.7 0 3.25-.26 4.64-.79 1.39-.53 2.59-1.28 3.57-2.25s1.73-2.13 2.25-3.49h-5.5c-.56.74-1.26 1.3201-2.1 1.7301-.84.41-1.79.6199-2.85.6199-1.2 0-2.27-.29-3.22-.88-.95-.58-1.69-1.4-2.23-2.45-.43-.83-.68-1.76-.78-2.77h17.29v-1.22c0-2.23-.47-4.21-1.4-5.94-.93-1.73-2.24-3.08-3.93-4.06l.02.0101ZM114.83 33.83c.13-.72.34-1.4.67-2.02.54-1.02 1.28-1.82 2.23-2.4.95-.58 2.02-.87 3.22-.87 1.2 0 2.26.3 3.18.9.92.6 1.63 1.4301 2.13 2.4901.28.59.47 1.2199.59 1.8899h-12.02v.01Zm37.96-2.44c-1.14-.83-2.44-1.4-3.89-1.73l-5.05-1.13c-1.01-.27-1.81-.7-2.4-1.27-.59-.57-.88-1.32-.88-2.21 0-.8.21-1.5.62-2.1.41-.6.99-1.06 1.73-1.39.74-.33 1.6-.49 2.57-.49.97 0 1.85.17 2.6.51.75.34 1.33.83 1.73 1.46.4.63.61 1.33.61 2.12h5.35c-.01-1.68-.46-3.1799-1.33-4.4799-.87-1.31-2.09-2.33-3.66-3.06-1.57-.73-3.36-1.1001-5.37-1.1001-2.01 0-3.73.38-5.29 1.13-1.55.76-2.77 1.8-3.64 3.12-.87 1.33-1.31 2.83-1.31 4.52 0 1.38.29 2.63.88 3.75.58 1.11 1.41 2.05 2.46 2.8 1.06.76 2.29 1.3 3.7 1.63l5.22 1.18c1.1.27 1.96.75 2.59 1.42.63.67.94 1.54.94 2.58 0 .84-.22 1.59-.67 2.24-.45.65-1.08 1.16-1.9 1.52-.82.36-1.77.55-2.86.55-1.09 0-2.12-.2-2.99-.6-.86-.4-1.54-.95-2.02-1.66-.49-.71-.73-1.52-.73-2.45h-5.35c.01 1.83.49 3.44 1.42 4.84.93 1.4 2.23 2.49 3.88 3.26 1.65.78 3.55 1.17 5.69 1.17 2.14 0 4.02-.4 5.68-1.19 1.66-.79 2.95-1.88 3.87-3.26.92-1.38 1.38-2.94 1.38-4.67 0-1.43-.32-2.74-.95-3.94-.64-1.2-1.52-2.21-2.67-3.04l.04-.03Zm23.59-5.82c-1.18-.69-2.56-1.03-4.13-1.03-1.67 0-3.12.39-4.37 1.18-1.04.66-1.86 1.56-2.5 2.68v-.57l.06-4.04V17h-4.94v29.96h5.05V34.27c0-1.04.21-1.96.63-2.76.42-.8 1.02-1.42 1.79-1.87.77-.45 1.66-.67 2.65-.67.93 0 1.73.2 2.4.59.67.39 1.18.96 1.54 1.7.36.74.54 1.64.54 2.7v13.01h5.03V33.19c0-1.8-.33-3.35-.98-4.64-.66-1.3-1.58-2.29-2.76-2.97l-.01-.01Zm25.06 2.8001c-.71-1.09-1.62-1.97-2.73-2.63-1.36-.8-2.95-1.2001-4.76-1.2001-1.95 0-3.7.49-5.23 1.47-1.53.98-2.74 2.34-3.61 4.09-.87 1.75-1.3 3.72-1.3 5.92 0 2.2.43 4.17 1.3 5.92.87 1.75 2.08 3.11 3.62 4.09s3.28 1.47 5.22 1.47c1.81 0 3.4-.4 4.76-1.2 1.11-.65 2.02-1.54 2.73-2.63v3.31h4.96V25.06h-4.96v3.3101Zm-.81 11.2699c-.53 1.05-1.26 1.87-2.2 2.46-.94.59-2.03.8901-3.25.8901-1.22 0-2.27-.2901-3.21-.8801-.94-.58-1.67-1.41-2.19-2.46s-.78-2.27-.78-3.64.26-2.58.78-3.63c.52-1.05 1.25-1.87 2.19-2.46.94-.59 2.01-.89 3.21-.89 1.2 0 2.31.3 3.25.89.94.59 1.68 1.41 2.2 2.46.53 1.05.79 2.26.79 3.63s-.26 2.58-.79 3.63Zm17.87-13.53c-.83.57-1.53 1.3301-2.1 2.2601V25.05h-5.01v21.92h5.05V35.14c0-1.06.22-1.97.67-2.74.45-.77 1.09-1.3599 1.93-1.7799.83-.41 1.82-.6201 2.94-.6201h1.41v-5.09h-.81c-1.55 0-2.92.4001-4.09 1.2101l.01-.0101Zm25.52-.1c-1.53-.98-3.28-1.47-5.23-1.47-1.8 0-3.38.4001-4.75 1.2001-1.17.68-2.1 1.6199-2.83 2.7799v-3.47h-4.94v28.76h5.05V43.67c.71 1.08 1.6 1.95 2.71 2.6 1.36.8 2.95 1.2 4.76 1.2 1.94 0 3.68-.49 5.22-1.47 1.54-.98 2.75-2.34 3.62-4.09.87-1.75 1.31-3.7199 1.31-5.9199s-.44-4.1701-1.31-5.9201c-.87-1.75-2.07-3.11-3.61-4.09v.03Zm-1.05 13.63c-.52 1.05-1.25 1.87-2.19 2.46-.94.59-2.01.8901-3.21.8901-1.2 0-2.31-.2901-3.25-.8801-.94-.58-1.68-1.41-2.21-2.46-.53-1.06-.79-2.27-.79-3.64s.26-2.58.79-3.63c.53-1.05 1.26-1.87 2.21-2.46.94-.59 2.03-.89 3.25-.89 1.22 0 2.27.3 3.21.89.94.59 1.67 1.41 2.19 2.46s.78 2.26.78 3.63-.26 2.58-.78 3.63Zm25.62-13.6499c-1.68-.97-3.6-1.4601-5.76-1.4601-2.16 0-4.03.5-5.77 1.49-1.73.99-3.1 2.3601-4.1 4.1001-1 1.74-1.5 3.6899-1.5 5.8399s.5 4.17 1.49 5.93c.99 1.75 2.35 3.12 4.07 4.11 1.72.98 3.66 1.48 5.81 1.48 1.7 0 3.25-.26 4.64-.79 1.4-.53 2.59-1.28 3.57-2.25s1.73-2.13 2.25-3.49h-5.5c-.56.74-1.25 1.3201-2.1 1.7301-.85.41-1.79.6199-2.85.6199-1.2 0-2.27-.29-3.22-.88-.95-.58-1.69-1.4-2.23-2.45-.43-.83-.68-1.76-.78-2.77h17.29v-1.22c0-2.23-.47-4.21-1.4-5.94-.93-1.73-2.24-3.08-3.93-4.06l.02.0101ZM256.71 33.83c.13-.72.34-1.4.67-2.02.54-1.02 1.28-1.82 2.23-2.4.95-.58 2.02-.87 3.22-.87 1.2 0 2.26.3 3.18.9.92.6 1.63 1.4301 2.13 2.4901.28.59.47 1.2199.59 1.8899h-12.02v.01Zm27.99-7.72c-.83.57-1.53 1.3301-2.1 2.2601V25.05h-5.01v21.92h5.05V35.14c0-1.06.22-1.97.67-2.74.45-.77 1.09-1.3599 1.93-1.7799.83-.41 1.82-.6201 2.94-.6201h1.41v-5.09h-.81c-1.56 0-2.92.4001-4.09 1.2101l.01-.0101Zm29.72-3.4c1.49-.92 3.16-1.38 5-1.38 1.36 0 2.61.23 3.78.69 1.16.46 2.16 1.1101 3 1.9701.83.86 1.46 1.85 1.87 3h5.61c-.48-2.05-1.39-3.8801-2.73-5.4701-1.34-1.59-3-2.83-5-3.7-2-.88-4.19-1.32-6.57-1.32-2.85 0-5.43.67-7.74 2.02-2.3 1.35-4.12 3.2-5.44 5.56-1.32 2.36-1.98 5.0001-1.98 7.9101s.66 5.5499 1.98 7.9099c1.32 2.36 3.13 4.22 5.44 5.56 2.3 1.35 4.88 2.02 7.74 2.02 2.38 0 4.57-.44 6.57-1.32 2-.88 3.66-2.11 5-3.7 1.34-1.59 2.24-3.4099 2.73-5.4699h-5.61c-.41 1.14-1.04 2.14-1.87 3-.83.86-1.83 1.5099-3 1.9699-1.16.46-2.42.68-3.78.68-1.84 0-3.51-.46-5-1.38-1.49-.92-2.66-2.19-3.5-3.81-.84-1.62-1.26-3.44-1.26-5.47s.42-3.85 1.26-5.47c.84-1.62 2.01-2.89 3.5-3.81v.01Zm34.1 2.43h-4.15v7.52l-7.47.0201v3.94l7.47-.0201v7.49h4.15V36.6l7.47-.02v-3.94l-7.47.02v-7.52Zm23.95 7.51v-7.51h-4.15v7.52l-7.47.0201v3.94l7.47-.0201v7.49h4.15V36.6l7.47-.02v-3.94l-7.47.02v-.01Z"/>
  <path fill="#FF45ED" d="M16.4559 6H4.19718C1.89343 6 .03593 7.88688.072805 10.1906l.17625 11.0431C.267805 22.415.79218 23.5312 1.68906 24.3L39.8478 57.0069c.7475.6406 1.7.9931 2.6844.9931h11.3494c2.2781 0 4.125-1.8469 4.125-4.125V42.8719c0-1.1894-.5138-2.3213-1.4088-3.1044L19.1722 7.02063C18.4203 6.3625 17.4553 6 16.4559 6Z"/>
  <path fill="url(#a)" d="M14.9934 6H4.13086c-2.27813 0-4.125 1.84687-4.125 4.125v12.5656c0 .2.014374.4.04375.5981l5.44812 37.1851c.29688 2.0256 2.03438 3.5268 4.08125 3.5268H24.9765c2.2787 0 4.1256-1.8475 4.125-4.1262L29.0971 41.37c0-.4256-.0662-.8488-.1956-1.2538L18.9227 8.87062c-.5462-1.70937-2.135-2.86999-3.9293-2.86999V6Z"/>
  <path fill="url(#b)" d="M59.8816 0H25.7541c-1.6582 0-3.155.993125-3.8 2.52063L6.15657 39.9419c-.21875.5181-.32938 1.0756-.32438 1.6381l.15 18.3287C6.00094 62.1737 7.84219 64 10.1072 64h17.6656c.8056 0 1.5931-.2356 2.2663-.6781l32.1093-21.1088c1.1607-.7625 1.8588-2.0581 1.8588-3.4468V4.125c0-2.27813-1.8469-4.125-4.125-4.125h-.0006Z"/>
  <path fill="#000" d="M52.0059 12h-40v40h40V12Z"/>
  <path fill="#fff" d="M44.4186 15.9844v3.6243h3.5819v2.1807h-3.5819v3.6381h-2.2644v-3.6244h-3.5819v-2.1806h3.5819v-3.6381h2.2644Z"/>
  <path fill="#fff" d="M34.1986 22.5525h2.2643v3.6244h3.5819v2.1806h-3.5819v3.6381h-2.2643v-3.6243h-3.5819v-2.1807h3.5819v-3.6381Z"/>
  <path fill="#fff" fill-rule="evenodd" d="M17.0039 16.99h6.4419c1.0506 0 1.9756.1931 2.7762.5787.8.3857 1.4169.9288 1.8488 1.6294.4325.7006.6487 1.5113.6487 2.4331 0 .9219-.22 1.7488-.6593 2.46-.4394.7113-1.065 1.2613-1.8757 1.6507-.2232.1071-.4563.1995-.6992.2772l3.5555 5.9778h-3.355l-3.2351-5.6707h-2.5205v5.67h-2.9263V16.99Zm7.5406 6.63c.3682-.1825.6519-.4431.8519-.7825.2-.3394.3-.7344.3-1.1844 0-.45-.1-.8519-.3-1.1844-.2-.3325-.4844-.5893-.8519-.7718-.3681-.1825-.7987-.2732-1.2918-.2732h-3.3232v4.47h3.3232c.4931 0 .9237-.0918 1.2918-.2737Z" clip-rule="evenodd"/>
  <path fill="#fff" d="M33.0068 43.9963h-16v3h16v-3Z"/>
</svg>
