<svg xmlns="http://www.w3.org/2000/svg" width="70" height="70" fill="none" viewBox="0 0 70 70">
  <defs>
    <linearGradient id="a" x1="5.12561" x2="26.3226" y1="17.3025" y2="70.9185" gradientUnits="userSpaceOnUse">
      <stop offset="0.22043" stop-color="#DD1265"/>
      <stop offset="0.73647" stop-color="#FF45ED"/>
      <stop offset="1" stop-color="#FDB60D"/>
    </linearGradient>
    <linearGradient id="b" x1="52.2816" x2="0.444719" y1="73.2921" y2="18.1517" gradientUnits="userSpaceOnUse">
      <stop offset="0.1129" stop-color="#FDB60D"/>
      <stop offset="0.50895" stop-color="#FF45ED"/>
      <stop offset="0.76457" stop-color="#FF45ED"/>
      <stop offset="1" stop-color="#FDB60D"/>
    </linearGradient>
    <linearGradient id="c" x1="25.5001" x2="69.9602" y1="-1.93021" y2="51.168" gradientUnits="userSpaceOnUse">
      <stop offset="0.17541" stop-color="#FDB60D"/>
      <stop offset="0.48991" stop-color="#FF45ED"/>
      <stop offset="0.81907" stop-color="#DD1265"/>
    </linearGradient>
  </defs>
  <path fill="url(#a)" d="M18.894 15.6855L16.8323 52.3261L11.5517 70L0 23.0667L18.894 15.6855Z"/>
  <path fill="url(#b)" d="M18.8942 15.6854L21.0145 0L49.2185 69.9999H11.5519L16.8325 52.326L18.8942 15.6854Z"/>
  <path fill="url(#c)" d="M35.2592 47.0706H70L58.3871 0H21.0142L35.2592 47.0706Z"/>
  <g>
    <path fill="#000000" d="M56 14H14V56H56V14Z"/>
    <path fill="#FFFFFF" d="M34.4166 48.6499H18.6666V51.3332H34.4166V48.6499Z"/>
    <path fill="#FFFFFF" d="M19 19L26.2892 19.0002C28.309 19.0003 29.8581 19.5391 30.9364 20.6168C31.3996 21.0997 31.7597 21.6719 31.9946 22.2985C32.2295 22.925 32.3344 23.5929 32.3029 24.2613V24.3073C32.3532 25.4356 32.0198 26.5476 31.3572 27.4622C30.7195 28.2803 29.8626 28.9003 28.8862 29.2503L32.7818 34.9446L28.6816 34.9445L25.3814 30.0472L22.4886 30.0472L22.5085 34.9443L19.0005 34.9442L19 19ZM26.0616 26.7442C26.7793 26.7923 27.4894 26.5732 28.0552 26.1291C28.285 25.924 28.4665 25.6706 28.5865 25.387C28.7066 25.1034 28.7622 24.7967 28.7495 24.489V24.4437C28.772 24.1215 28.7177 23.7986 28.5908 23.5016C28.464 23.2045 28.2683 22.9419 28.02 22.7354C27.4272 22.3239 26.7135 22.1234 25.9932 22.1661L22.5081 22.166L22.5083 26.7441L26.0616 26.7442Z"/>
    <path fill="#FFFFFF" d="M43.872 24.2626H40.2574V21.0512H43.872V17.46H47.1766V21.0512H50.7912V24.2626H47.1766V27.8539H43.872V24.2626Z"/>
    <path fill="#FFFFFF" d="M36.9551 32.9623H33.3406V29.7509H36.9551V26.1597H40.2598V29.7509H43.8743V32.9623H40.2598V36.5536H36.9551V32.9623Z"/>
  </g>
</svg>
