<svg xmlns="http://www.w3.org/2000/svg" width="921" height="110" fill="none" viewBox="0 0 921 110">
  <path fill="#000" d="M0 5H85V90H0V5Z"/>
  <path fill="#fff" d="M10.543 73.894H42.4715V79.2155H10.543V73.894Z"/>
  <path fill="#fff" d="M10.5713 15.4013H25.1591C26.8516 15.2899 28.5493 15.5202 30.151 16.0785C31.7527 16.6368 33.2257 17.5116 34.4822 18.6509C35.4128 19.6216 36.1367 20.771 36.6099 22.0297C37.0831 23.2883 37.2958 24.6299 37.2352 25.9732V26.0584C37.3342 28.3266 36.6641 30.5618 35.3337 32.4015C34.0704 34.0333 32.374 35.2774 30.438 35.9917L38.2569 47.4292H30.0264L23.3427 37.5952H17.5246V47.4292H10.5713V15.4013ZM24.7618 31.0108C26.1805 31.0885 27.5787 30.6444 28.6925 29.7621C29.1597 29.3539 29.5296 28.8464 29.7751 28.2768C30.0206 27.7071 30.1356 27.0898 30.1116 26.4699V26.3848C30.1632 25.7409 30.0616 25.094 29.8149 24.4971C29.5682 23.9002 29.1836 23.3702 28.6925 22.9507C27.5085 22.1199 26.0779 21.7147 24.6341 21.8012H17.553V30.9967L24.7618 31.0108Z"/>
  <path fill="#fff" d="M60.4649 25.973H53.1426V19.5164H60.4081V12.3076H67.0492V19.5164H74.4283V25.973H67.106V33.1818H60.4649V25.973Z"/>
  <path fill="#fff" d="M46.5727 43.4413H39.3071V36.9847H46.5727V29.7617H53.2138V36.9705H60.4651V43.4271H53.2138V50.6359H46.5727V43.4413Z"/>
  <path fill="#fff" d="M712.659 47.1878V46.9465C712.659 22.8227 730.894 2.95605 757.019 2.95605C773.068 2.95605 782.675 8.30586 790.579 16.0822L778.659 29.7619C772.103 23.8161 765.405 20.1691 756.905 20.1691C742.559 20.1691 732.228 32.0749 732.228 46.6627V46.904C732.228 61.4918 742.317 73.653 756.905 73.653C766.626 73.653 772.515 69.7506 779.269 63.7197L791.175 75.7532C782.434 85.1189 772.727 90.9512 756.295 90.9512C731.263 90.9512 712.659 71.6238 712.659 47.1878V47.1878Z"/>
  <path fill="#fff" d="M812.333 55.0919H790.253V38.2762H812.333V16.437H829.589V38.2762H851.584V55.0919H829.589V76.9736H812.333V55.0919Z"/>
  <path fill="#fff" d="M881.228 55.0919H859.162V38.2762H881.172V16.437H898.427V38.2762H920.422V55.0919H898.427V76.9736H881.228V55.0919Z"/>
  <path fill="#fff" d="M117.553 4.40332H156.478C167.305 4.40332 175.706 7.44008 181.297 13.0453C186.036 17.7849 188.591 24.4828 188.591 32.5147V32.7559C188.591 46.4923 181.169 55.1343 170.342 59.1502L191.145 89.5604H169.249L151.057 62.3146H136.285V89.5604H117.553V4.40332ZM155.314 45.7686C164.439 45.7686 169.675 40.9012 169.675 33.7208V33.4796C169.675 25.4478 164.084 21.3184 154.959 21.3184H136.285V45.7686H155.314Z"/>
  <path fill="#fff" d="M190.691 57.3196V57.0784C190.691 38.4747 203.945 23.1348 222.932 23.1348C244.7 23.1348 254.676 40.0498 254.676 58.611C254.676 60.03 254.562 61.7754 254.435 63.4783H209.025C210.841 71.879 216.688 76.2497 224.961 76.2497C231.162 76.2497 235.661 74.3056 240.769 69.566L251.355 78.9317C245.267 86.4669 236.512 91.093 224.705 91.093C205.165 91.022 190.691 77.2714 190.691 57.3196V57.3196ZM236.682 51.8563C235.575 43.5832 230.722 37.978 222.932 37.978C215.141 37.978 210.274 43.4555 208.741 51.8563H236.682Z"/>
  <path fill="#fff" d="M256.762 77.1579L267.831 63.8898C275.494 70.2188 283.525 74.2347 293.26 74.2347C300.923 74.2347 305.549 71.1979 305.549 66.2028V65.9616C305.549 61.222 302.626 58.7812 288.393 55.1343C271.236 50.7494 260.168 46.0098 260.168 29.0948V28.8535C260.168 13.4143 272.57 3.18295 289.968 3.18295C301.45 3.00116 312.636 6.83021 321.598 14.0103L311.864 28.2008C304.329 22.9645 296.907 19.8 289.727 19.8C282.546 19.8 278.772 23.0212 278.772 27.1507V27.3919C278.772 33.0681 282.433 34.8135 297.148 38.5882C314.418 43.0866 324.11 49.302 324.11 64.131V64.3723C324.11 81.2731 311.211 90.7666 292.891 90.7666C279.585 90.8219 266.725 85.9777 256.762 77.1579V77.1579Z"/>
  <path fill="#fff" d="M330.779 0.756348H349.227V33.6073C353.484 28.1298 358.962 23.1347 368.327 23.1347C382.319 23.1347 390.464 32.3869 390.464 47.3437V89.5603H372.017V53.1902C372.017 44.4346 367.887 39.9221 360.821 39.9221C353.754 39.9221 349.269 44.4346 349.269 53.1902V89.5603H330.822L330.779 0.756348Z"/>
  <path fill="#fff" d="M397.006 70.8293V70.5881C397.006 56.3976 407.834 49.7848 423.287 49.7848C428.715 49.7346 434.11 50.6425 439.223 52.4668V51.36C439.223 43.6971 434.483 39.44 425.231 39.44C419.057 39.4506 412.943 40.6503 407.223 42.9734L402.612 28.7829C410.54 25.1446 419.192 23.3588 427.913 23.5608C438.003 23.5608 445.311 26.2286 449.937 30.8547C454.79 35.7221 457.032 42.9024 457.032 51.658V89.5607H439.124V82.4655C434.597 87.5031 428.396 90.7811 419.399 90.7811C407.11 90.7811 397.006 83.6859 397.006 70.8293V70.8293ZM439.464 66.5722V63.2942C435.751 61.6535 431.731 60.8215 427.672 60.8534C419.754 60.8534 414.901 64.0179 414.901 69.8502V70.1056C414.901 75.0865 419.044 78.0097 425.004 78.0097C433.632 78.0097 439.464 73.2701 439.464 66.5722Z"/>
  <path fill="#fff" d="M466.199 24.3556H484.647V37.4959C488.422 28.4992 494.495 22.6527 505.45 23.1352V42.5336H504.471C492.182 42.5336 484.604 49.941 484.604 65.5221V89.6459H466.157L466.199 24.3556Z"/>
  <path fill="#fff" d="M512.63 24.3551H531.078V33.7209C535.576 27.6473 541.778 23.1348 551.399 23.1348C566.597 23.1348 581.071 35.069 581.071 56.8371V57.0784C581.114 78.8608 566.838 90.7808 551.441 90.7808C547.529 90.8605 543.652 90.0213 540.123 88.3306C536.594 86.64 533.51 84.1449 531.121 81.0461V109.03H512.673L512.63 24.3551ZM562.581 57.0784V56.8371C562.581 46.0098 555.287 38.8294 546.645 38.8294C538.003 38.8294 530.837 46.0098 530.837 56.8371V57.0784C530.837 67.9057 538.017 75.0861 546.645 75.0861C555.273 75.0861 562.581 68.076 562.581 57.0784Z"/>
  <path fill="#fff" d="M586.705 57.3196V57.0784C586.705 38.4747 599.958 23.1348 618.945 23.1348C640.714 23.1348 650.689 40.0498 650.689 58.611C650.689 60.03 650.576 61.7754 650.448 63.4783H605.152C606.983 71.879 612.815 76.2497 621.088 76.2497C627.304 76.2497 631.802 74.3056 636.911 69.566L647.497 78.9317C641.409 86.4669 632.653 91.093 620.847 91.093C601.207 91.022 586.705 77.2714 586.705 57.3196V57.3196ZM632.682 51.8563C631.589 43.5832 626.722 37.978 618.945 37.978C611.169 37.978 606.287 43.4555 604.826 51.8563H632.682Z"/>
  <path fill="#fff" d="M657.302 24.3556H675.75V37.4959C679.525 28.4992 685.683 22.6527 696.553 23.1352V42.5336H695.588C683.299 42.5336 675.722 49.9552 675.722 65.5221V89.6459H657.274L657.302 24.3556Z"/>
</svg>
