<svg enable-background="new 0 0 70 70" height="70" viewBox="0 0 70 70" width="70" xmlns="http://www.w3.org/2000/svg" xmlns:xlink="http://www.w3.org/1999/xlink"><linearGradient id="a" gradientUnits="userSpaceOnUse" x1="8.0628" x2="29.2598" y1="16.1412" y2="69.7572"><stop offset=".2204" stop-color="#c40b55"/><stop offset=".6828" stop-color="#e343e6"/><stop offset=".9247" stop-color="#f59252"/></linearGradient><linearGradient id="b" gradientTransform="matrix(-1 0 0 1 928 -.000206)" gradientUnits="userSpaceOnUse" x1="875.7187" x2="927.5556" y1="73.2924" y2="18.1521"><stop offset=".1129" stop-color="#ffbd00"/><stop offset=".586" stop-color="#e343e6"/><stop offset=".8172" stop-color="#ec841b"/><stop offset=".9355" stop-color="#ffbd00"/></linearGradient><linearGradient id="c" gradientUnits="userSpaceOnUse" x1="25.5002" x2="69.9604" y1="-1.9302" y2="51.1679"><stop offset=".129" stop-color="#ffbd00"/><stop offset=".6398" stop-color="#e343e6"/><stop offset=".9086" stop-color="#c40b55"/></linearGradient><path d="m20.2 15.2 13.8 21.5-22.4 33.3-11.6-46.9z" fill="url(#a)"/><path d="m18.9 15.7 2.1-15.7 30.2 33.6-8.8 8.7 6.8 27.7h-37.6z" fill="url(#b)"/><path d="m35.3 47.1h34.7l-11.6-47.1h-37.4z" fill="url(#c)"/><path d="m13.4 13.4h43.2v43.2h-43.2z"/><g fill="#fff"><path d="m17.4 19h8.2c2.3 0 4 .6 5.2 1.8 1 1 1.5 2.4 1.5 4.1v.1c0 1.5-.4 2.6-1.1 3.5s-1.6 1.6-2.8 2l4.4 6.4h-4.6l-3.7-5.5h-3.3v5.5h-3.9v-17.9zm8 8.7c1 0 1.7-.2 2.2-.7s.8-1.1.8-1.8v-.1c0-.9-.3-1.5-.8-1.9s-1.3-.6-2.3-.6h-3.9v5.1z"/><path d="m17.4 48.5h16.2v2.7h-16.2z"/><path d="m43.7 24.4h-4v-3.6h4v-4h3.7v4h4v3.6h-4v4h-3.7z"/><path d="m37.1 34.6h-4v-3.6h4v-4h3.7v4h4v3.6h-4v4h-3.7z"/></g></svg>