<svg xmlns="http://www.w3.org/2000/svg" width="128" height="128" fill="none" viewBox="0 0 128 128">
  <defs>
    <linearGradient id="a" x1="-.78125" x2="48.785" y1="15.3413" y2="122.251" gradientUnits="userSpaceOnUse">
      <stop offset=".19" stop-color="#FF45ED"/>
      <stop offset=".54" stop-color="#FF0A67"/>
    </linearGradient>
    <linearGradient id="b" x1="8.64822" x2="125.839" y1="119.865" y2="2.6725" gradientUnits="userSpaceOnUse">
      <stop offset=".26" stop-color="#FF0A67"/>
      <stop offset=".65" stop-color="#FDB60D"/>
    </linearGradient>
  </defs>
  <path fill="#FF45ED" d="M32.9001 12H8.38264c-4.6075 0-8.322498 3.7738-8.248748 8.3813l.3525 22.0862C.523892 44.83 1.57264 47.0625 3.36639 48.6l76.31751 65.414c1.495 1.281 3.4 1.986 5.3687 1.986h22.6984c4.557 0 8.25-3.694 8.25-8.25V85.7438c0-2.3788-1.027-4.6425-2.817-6.2088L38.3326 14.0413C36.8289 12.725 34.8989 12 32.9001 12Z"/>
  <path fill="url(#a)" d="M29.975 12H8.25C3.69375 12 0 15.6937 0 20.25v25.1312c0 .4.02875.8.0875 1.1963l10.8963 74.3705c.5937 4.051 4.0687 7.053 8.1624 7.053h30.795c4.5575 0 8.2513-3.695 8.25-8.252l-.0087-37.009c0-.8513-.1325-1.6975-.3913-2.5075L37.8338 17.7412c-1.0925-3.4187-4.27-5.7399-7.8588-5.7399V12Z"/>
  <path fill="url(#b)" d="M119.749 0H51.4945c-3.3163 0-6.31 1.98625-7.6 5.04125L12.2995 79.8838c-.4375 1.0362-.6588 2.1512-.6488 3.2762l.3 36.657c.0375 4.53 3.72 8.183 8.25 8.183H55.532c1.6112 0 3.1862-.471 4.5325-1.356l64.2185-42.2178c2.321-1.525 3.718-4.1162 3.718-6.8937V8.25c0-4.55625-3.694-8.25-8.25-8.25h-.002Z"/>
  <path fill="#000" d="M104 24H24v80h80V24Z"/>
  <path fill="#fff" d="M66 88H34v6h32v-6Z"/>
  <path fill="#fff" d="M33.9941 33.9844h12.8838c2.1012 0 3.9512.3862 5.5525 1.1575 1.6.7712 2.8337 1.8575 3.6975 3.2587.865 1.4013 1.2975 3.0225 1.2975 4.8663 0 1.8437-.44 3.4975-1.3188 4.92-.8787 1.4225-2.13 2.5225-3.7512 3.3012-1.6225.7788-3.505 1.1688-5.6488 1.1688h-6.86v11.34h-5.8525V33.9844Zm15.0813 13.26c.7362-.365 1.3037-.8863 1.7037-1.565.4-.6788.6-1.4688.6-2.3688 0-.9-.2-1.7037-.6-2.3687-.4-.665-.9687-1.1788-1.7037-1.5438-.7363-.365-1.5975-.5462-2.5838-.5462h-6.6462v8.94h6.6462c.9863 0 1.8475-.1825 2.5838-.5463v-.0012Zm-5.2638 3.5262h6.3888l7.8675 13.2275h-6.71l-7.5463-13.2275Z"/>
  <path fill="#fff" d="M88.8245 39.2416v-7.265h-4.5288v7.2762H77.132v4.3613h7.1637v7.2487h4.5288v-7.2762h7.1637v-4.3613h-7.1637v.0163Zm-15.9113 5.8712h-4.5287v7.2763h-7.1638v4.3612h7.1638v7.2488h4.5287v-7.2763h7.1638v-4.3612h-7.1638v-7.2488Z"/>
</svg>
