<svg height="53.37358" viewBox="0 0 223.43233 53.37358" width="223.43233" xmlns="http://www.w3.org/2000/svg" xmlns:xlink="http://www.w3.org/1999/xlink"><linearGradient id="a" gradientTransform="matrix(1 0 0 -1 0 -88.13101)" gradientUnits="userSpaceOnUse" x1=".24235" x2="46.3362" y1="-126.69502" y2="-102.75017"><stop offset=".04301" stop-color="#fc801d"/><stop offset=".38172" stop-color="#fe2857"/><stop offset=".98925" stop-color="#af1df5"/></linearGradient><path d="m69.82781 17.90543h-9.27793v-6.26594h25.26412v6.26594h-9.27816v24.62287h-6.708z"/><path d="m82.63231 30.83469v-.08834a12.63757 12.63757 0 0 1 25.26413-.0882v.0882a12.63757 12.63757 0 0 1 -25.26413.08834zm18.73036 0v-.08834a6.2488 6.2488 0 0 0 -6.14179-6.53067c-3.78951 0-6.05466 2.95649-6.05466 6.44248v.08821a6.24877 6.24877 0 0 0 6.14178 6.53082c3.78966-.00002 6.05467-2.95651 6.05467-6.4425z"/><path d="m109.63635 30.83469v-.08834a12.63757 12.63757 0 0 1 25.26413-.0882v.0882a12.63757 12.63757 0 0 1 -25.26413.08834zm18.73036 0v-.08834a6.2488 6.2488 0 0 0 -6.14179-6.53067c-3.78951 0-6.05466 2.95649-6.05466 6.44248v.08821a6.24876 6.24876 0 0 0 6.14178 6.53082c3.78966-.00002 6.05467-2.95651 6.05467-6.4425z"/><path d="m138.0779 10.31563h6.62091v32.21267h-6.62091z"/><path d="m156.00467 39.43935v3.0889h-6.62058v-32.21262h6.62058v11.95842a8.54468 8.54468 0 0 1 7.27412-3.839c5.44486 0 10.6282 4.32437 10.6282 12.223v.0884c0 7.89862-5.09618 12.22319-10.6282 12.22319a8.927 8.927 0 0 1 -7.27412-3.53029zm11.28174-8.69293v-.08842c0-3.92722-2.61378-6.53076-5.70634-6.53076s-5.66257 2.60356-5.66257 6.53076v.0884c0 3.92721 2.57 6.53075 5.66257 6.53075s5.70636-2.55935 5.70636-6.53076z"/><path d="m176.17388 30.83469v-.08834a12.63757 12.63757 0 0 1 25.26413-.0882v.0882a12.63757 12.63757 0 0 1 -25.26413.08834zm18.73021 0v-.08834a6.2487 6.2487 0 0 0 -6.14165-6.53067c-3.78965 0-6.05466 2.95649-6.05466 6.44248v.08821a6.24875 6.24875 0 0 0 6.14165 6.53082c3.78968 0 6.05468-2.95651 6.05468-6.4425z"/><path d="m211.75864 25.80414 4.3994-6.92781h6.92578l-7.884 11.56124 8.23254 12.09073h-7.10005l-4.70441-7.36922-4.7043 7.36922h-6.92593l8.18905-12.00252-7.88415-11.64945h7.10019z"/><path d="m23.106 53.374 23.106-13.361v-26.702l-23.106 13.361z" fill="#000001"/><path d="m37.673 40.053-10.069 5.789v-3.691l10.069-5.789z" fill="#fff"/><path d="m23.106 0-23.106 13.311v26.702l23.106 13.361v-26.702l23.106-13.361z" fill="url(#a)"/></svg>