<svg id="Layer_1" data-name="Layer 1" xmlns="http://www.w3.org/2000/svg" xmlns:xlink="http://www.w3.org/1999/xlink" width="185px" height="47px" viewBox="0 0 185 47">
  <defs>
    <linearGradient id="linear-gradient" x1="0.8196" y1="31.2804" x2="37.725" y2="12.1088" gradientUnits="userSpaceOnUse">
      <stop offset="0.043" stop-color="#ff8618"/>
      <stop offset="0.3817" stop-color="#ff246e"/>
      <stop offset="0.9892" stop-color="#af1df5"/>
    </linearGradient>
  </defs>
  <g>
    <g>
      <g>
        <path d="M46.5,17.23l1.827-2.032a3.2543,3.2543,0,0,0,2.4112,1.3175c1.0931,0,1.7712-.6588,1.7712-2.1825V5.8471h2.9758v8.6171a4.78,4.78,0,0,1-1.2428,3.5181,4.7143,4.7143,0,0,1-3.4289,1.2232A5.3928,5.3928,0,0,1,46.5,17.23Z"/>
        <path d="M56.2352,14.0318V13.9937a5.0237,5.0237,0,0,1,4.9921-5.2491c3.3716,0,4.9163,2.615,4.9163,5.4748,0,0.2258-.0186.49-0.0377,0.7526H59.0794a2.3415,2.3415,0,0,0,2.4679,1.9758,3.311,3.311,0,0,0,2.4489-1.0346l1.6386,1.4485A5.3346,5.3346,0,0,1,56.2352,14.0318Zm7.1205-.8469A2.1637,2.1637,0,0,0,61.2274,11.04a2.2491,2.2491,0,0,0-2.1851,2.1449h4.3135Z"/>
        <path d="M67.3258,16.1576V11.3787H66.12V8.9327h1.2056V6.3554H70.189V8.9327h2.374v2.4459H70.189v4.3088a0.8292,0.8292,0,0,0,.9233.9784,2.9126,2.9126,0,0,0,1.4126-.3577v2.2954a4.2267,4.2267,0,0,1-2.26.583C68.5128,19.1865,67.3258,18.4906,67.3258,16.1576Z"/>
        <path d="M73.5587,5.8471h6.1224a4.7634,4.7634,0,0,1,3.447,1.1665,3.0182,3.0182,0,0,1,.9042,2.2387V9.29a3.0628,3.0628,0,0,1-1.733,2.8408c1.5261,0.583,2.4674,1.4675,2.4674,3.2361V15.405c0,2.4083-1.9591,3.6124-4.9349,3.6124H73.5587V5.8471ZM81.15,9.742c0-.866-0.6781-1.3547-1.9023-1.3547H76.3843v2.7846h2.6749c1.2809,0,2.0907-.4144,2.0907-1.3928V9.742ZM79.7374,13.58h-3.353v2.897h3.4475c1.2809,0,2.053-.4516,2.053-1.43V15.01C81.8848,14.1256,81.2253,13.58,79.7374,13.58Z"/>
        <path d="M85.44,8.9327h2.8633v2.032a3.1185,3.1185,0,0,1,3.2214-2.22v2.9913H91.3739c-1.9028,0-3.0707,1.1479-3.0707,3.5562v3.7253H85.44V8.9327Z"/>
        <path d="M90.825,16.12V16.0823c0-2.2011,1.6763-3.2176,4.0689-3.2176a7.1773,7.1773,0,0,1,2.4679.4144V13.11c0-1.1851-.7349-1.8438-2.1665-1.8438a7.4454,7.4454,0,0,0-2.7879.5454L91.6915,9.6286A8.9252,8.9252,0,0,1,95.61,8.82a4.6662,4.6662,0,0,1,3.4093,1.1289,4.3913,4.3913,0,0,1,1.0921,3.2171v5.8516H97.3432V17.9262a3.8849,3.8849,0,0,1-3.0521,1.2794C92.3887,19.2056,90.825,18.1143,90.825,16.12Zm6.574-.6583V14.9535a4.4422,4.4422,0,0,0-1.827-.3763c-1.2242,0-1.9777.4892-1.9777,1.3923v0.0376A1.33,1.33,0,0,0,95.158,17.23C96.4948,17.23,97.399,16.4963,97.399,15.4617Z"/>
        <path d="M101.2193,5.2827h3.014v2.54h-3.014v-2.54Zm0.0753,3.65h2.8633V19.0174h-2.8633V8.9327Z"/>
        <path d="M105.4369,8.9327H108.3v1.43a3.5739,3.5739,0,0,1,2.9572-1.6181c2.1665,0,3.4289,1.43,3.4289,3.7439v6.529H111.823V13.3916c0-1.3547-.641-2.0506-1.733-2.0506a1.7556,1.7556,0,0,0-1.79,2.0506v5.6259h-2.8633V8.9327Z"/>
        <path d="M114.9632,17.6814L116.1883,15.8a5.7063,5.7063,0,0,0,3.1833,1.2041c0.8288,0,1.2056-.301,1.2056-0.7526V16.2143c0-.6211-0.98-0.8278-2.0912-1.167-1.413-.4134-3.014-1.0722-3.014-3.0289V11.9807c0-2.0511,1.6577-3.1985,3.6921-3.1985a6.9946,6.9946,0,0,1,3.7675,1.1665L121.84,11.9245a5.99,5.99,0,0,0-2.7312-.9412c-0.6977,0-1.0549.301-1.0549,0.6964v0.0376c0,0.5644.96,0.8278,2.053,1.2041,1.413,0.47,3.0512,1.1475,3.0512,2.9918V15.95c0,2.2392-1.6763,3.2552-3.8614,3.2552A7.08,7.08,0,0,1,114.9632,17.6814Z"/>
      </g>
      <g>
        <path d="M54.5221,29.5711H48.2695V25.4082H65.2948v4.1629H59.0426v16.36H54.5221v-16.36Z"/>
        <path d="M64.7626,35.7283V35.6693a10.9251,10.9251,0,0,1,21.8394-.0584v0.0584A10.9251,10.9251,0,0,1,64.7626,35.7283Zm17.1133,0V35.6693a6.2385,6.2385,0,0,0-6.2231-6.45,6.1412,6.1412,0,0,0-6.1641,6.3915v0.0584a6.2389,6.2389,0,0,0,6.2231,6.45A6.1412,6.1412,0,0,0,81.8759,35.7283Z"/>
        <path d="M87.5063,35.7283V35.6693a10.9248,10.9248,0,0,1,21.8389-.0584v0.0584A10.9248,10.9248,0,0,1,87.5063,35.7283Zm17.1133,0V35.6693a6.2385,6.2385,0,0,0-6.2231-6.45,6.1412,6.1412,0,0,0-6.1641,6.3915v0.0584a6.2389,6.2389,0,0,0,6.2231,6.45A6.1409,6.1409,0,0,0,104.62,35.7283Z"/>
        <path d="M111.16,25.4082H115.68V41.8265h10.2445V45.931H111.16V25.4082Z"/>
        <path d="M127.1242,25.4082h9.54a7.4261,7.4261,0,0,1,5.3718,1.8174,4.7077,4.7077,0,0,1,1.4085,3.489v0.0589A4.7712,4.7712,0,0,1,140.7438,35.2c2.3778,0.9092,3.8453,2.287,3.8453,5.0432v0.0584c0,3.7528-3.052,5.6292-7.6906,5.6292h-9.7743V25.4082Zm11.829,6.0688c0-1.3488-1.0564-2.1107-2.964-2.1107h-4.4625V33.705h4.1684c1.9967,0,3.2581-.6449,3.2581-2.17V31.4769Zm-2.2007,5.9808h-5.2258v4.5151h5.3718c1.9967,0,3.2-.7034,3.2-2.2281V39.6864C140.0986,38.3081,139.0713,37.4578,136.7525,37.4578Z"/>
        <path d="M145.2013,35.7283V35.6693a10.9251,10.9251,0,0,1,21.8394-.0584v0.0584A10.9251,10.9251,0,0,1,145.2013,35.7283Zm17.1138,0V35.6693a6.2391,6.2391,0,0,0-6.2231-6.45,6.1409,6.1409,0,0,0-6.1641,6.3915v0.0584a6.2384,6.2384,0,0,0,6.2221,6.45A6.1417,6.1417,0,0,0,162.3151,35.7283Z"/>
        <path d="M185.2069,25.4082L178.3376,35.435,185.5,45.931h-5.2838l-4.6086-7.0364L170.97,45.931h-5.1367l7.1624-10.4375-6.8693-10.0853H171.41l4.2855,6.6553,4.3735-6.6553h5.1377Z"/>
      </g>
    </g>
    <g>
      <polygon points="19.126 43.138 37.626 32.44 37.626 11.062 19.126 21.759 19.126 43.138" fill="#000001"/>
      <polygon points="30.789 32.472 22.727 37.107 22.727 34.152 30.789 29.517 30.789 32.472" fill="#fff"/>
      <polygon points="19.126 0.404 0.626 11.062 0.626 11.062 0.626 11.062 0.626 32.44 19.126 43.138 19.126 21.759 37.626 11.062 19.126 0.404" fill="url(#linear-gradient)"/>
    </g>
  </g>
</svg>
