<svg xmlns="http://www.w3.org/2000/svg" width="315" height="56" fill="none" viewBox="0 0 315 56">
  <defs>
    <linearGradient id="a" x1=".255812" x2="48.1438" y1="40.072" y2="15.2" gradientUnits="userSpaceOnUse">
      <stop offset=".04" stop-color="#FC801D"/>
      <stop offset=".38" stop-color="#FE2857"/>
      <stop offset=".99" stop-color="#AF1DF5"/>
    </linearGradient>
  </defs>
  <path fill="#000" d="M91.8478 13h-23.84v4.82h9.29v25.15h5.31V17.82h9.25V13h-.01Zm15.2902 9.03c-1.75-1-3.71-1.5-5.86-1.5-2.1502 0-4.1302.5-5.9002 1.5-1.76 1-3.14 2.37-4.14 4.12-1 1.75-1.5 3.7-1.5 5.85 0 2.15.5 4.11 1.51 5.85 1.01 1.75 2.39 3.12 4.14 4.12 1.75 1 3.71 1.5 5.8602 1.5 2.15 0 4.13-.5 5.89-1.5 1.75-1 3.13-2.37 4.14-4.12 1.01-1.75 1.51-3.7 1.51-5.85 0-2.15-.5-4.11-1.51-5.85-1.01-1.75-2.39-3.12-4.14-4.12Zm-.4 13.59c-.52 1.06-1.26 1.88-2.21 2.46-.96.59-2.05.88-3.27.88-1.22 0-2.3202-.29-3.2602-.88-.95-.58-1.68-1.41-2.2-2.46-.52-1.06-.78-2.26-.78-3.62 0-1.36.26-2.58.78-3.64s1.25-1.88 2.2-2.46c.95-.58 2.0402-.88 3.2602-.88 1.22 0 2.31.3 3.26.89.95.59 1.69 1.41 2.21 2.46.53 1.05.79 2.26.79 3.63s-.26 2.56-.78 3.62Zm25.85-13.59c-1.75-1-3.71-1.5-5.86-1.5-2.15 0-4.13.5-5.9 1.5-1.76 1-3.14 2.37-4.14 4.12-1 1.75-1.5 3.7-1.5 5.85 0 2.15.5 4.11 1.51 5.85 1.01 1.75 2.39 3.12 4.14 4.12 1.75 1 3.71 1.5 5.86 1.5 2.15 0 4.13-.5 5.88-1.5s3.14-2.37 4.14-4.12c1.01-1.75 1.51-3.7 1.51-5.85 0-2.15-.5-4.11-1.51-5.85-1.01-1.75-2.39-3.12-4.14-4.12h.01Zm-.39 13.59c-.52 1.06-1.26 1.88-2.21 2.46-.96.59-2.05.88-3.27.88-1.22 0-2.32-.29-3.26-.88-.95-.58-1.68-1.41-2.2-2.46-.52-1.05-.78-2.26-.78-3.62 0-1.36.26-2.58.78-3.64s1.26-1.88 2.2-2.46c.95-.58 2.04-.88 3.26-.88 1.22 0 2.31.3 3.26.89.95.59 1.69 1.41 2.21 2.46.53 1.05.79 2.26.79 3.63s-.26 2.56-.78 3.62Zm9.74 7.34h5.05V13h-5.05v29.96ZM169.628 22c-1.53-.98-3.27-1.47-5.21-1.47-1.81 0-3.4.4-4.77 1.2-1.11.65-2.01 1.52-2.72 2.6V13h-5.05v29.96h5.05v-3.29c.71 1.08 1.61 1.96 2.72 2.6 1.37.8 2.95 1.2 4.75 1.2 1.96 0 3.7-.49 5.23-1.47 1.53-.98 2.74-2.34 3.61-4.09.87-1.75 1.31-3.72 1.31-5.92 0-2.2-.44-4.17-1.31-5.92-.87-1.75-2.07-3.11-3.61-4.09V22Zm-1.05 13.63c-.52 1.05-1.25 1.87-2.19 2.46-.94.59-2.01.89-3.21.89-1.2 0-2.31-.29-3.25-.88-.94-.58-1.68-1.41-2.21-2.46-.53-1.06-.79-2.27-.79-3.64s.26-2.58.79-3.63c.53-1.05 1.26-1.87 2.21-2.46.94-.59 2.03-.89 3.25-.89 1.22 0 2.27.3 3.21.89.94.59 1.67 1.41 2.19 2.46s.78 2.26.78 3.63-.26 2.58-.78 3.63Zm25.89-13.6c-1.75-1-3.71-1.5-5.86-1.5-2.15 0-4.13.5-5.9 1.5-1.76 1-3.14 2.37-4.14 4.12-1 1.75-1.5 3.7-1.5 5.85 0 2.15.5 4.11 1.51 5.85 1.01 1.75 2.39 3.12 4.14 4.12 1.75 1 3.71 1.5 5.86 1.5 2.15 0 4.13-.5 5.88-1.5s3.14-2.37 4.14-4.12c1.01-1.75 1.51-3.7 1.51-5.85 0-2.15-.5-4.11-1.51-5.85-1.01-1.75-2.39-3.12-4.14-4.12h.01Zm-.4 13.59c-.52 1.06-1.26 1.88-2.21 2.46-.96.59-2.05.88-3.27.88-1.22 0-2.32-.29-3.26-.88-.95-.58-1.68-1.41-2.2-2.46-.52-1.05-.78-2.26-.78-3.62 0-1.36.26-2.58.78-3.64s1.26-1.88 2.2-2.46c.95-.58 2.04-.88 3.26-.88 1.22 0 2.31.3 3.26.89.95.59 1.69 1.41 2.21 2.46.53 1.05.79 2.26.79 3.63s-.26 2.56-.78 3.62Zm27.04-14.57h-5.65l-4.49 6.78-4.69-6.78h-5.76l7.46 10.56-7.69 11.36h5.65l4.85-7.48 5.02 7.48h5.76l-7.76-11.25 7.31-10.66-.01-.01Zm24.22-8.05-10.87 29.96h5.52l2.35-7.19h12.03l2.55 7.19h5.39L251.088 13h-5.76Zm-1.67 18.58 4.04-12.01.45-1.86.47 1.86 4.3 12.01h-9.27.01Zm39.13-9.58c-1.53-.98-3.28-1.47-5.23-1.47-1.8 0-3.38.4-4.75 1.2-1.17.68-2.1 1.62-2.83 2.78v-3.47h-4.94V49.8h5.05V39.66c.71 1.08 1.6 1.96 2.71 2.6 1.36.8 2.95 1.2 4.76 1.2 1.94 0 3.68-.49 5.22-1.47 1.54-.98 2.75-2.34 3.62-4.09.87-1.75 1.31-3.72 1.31-5.92 0-2.2-.44-4.17-1.31-5.92-.87-1.75-2.07-3.11-3.61-4.09V22Zm-1.05 13.63c-.52 1.05-1.25 1.87-2.19 2.46-.94.59-2.01.89-3.21.89-1.2 0-2.31-.29-3.25-.88-.94-.58-1.68-1.41-2.21-2.46-.53-1.06-.79-2.27-.79-3.64s.26-2.58.79-3.63c.53-1.05 1.26-1.87 2.21-2.46.94-.59 2.03-.89 3.25-.89 1.22 0 2.27.3 3.21.89.94.59 1.67 1.41 2.19 2.46s.78 2.26.78 3.63-.26 2.58-.78 3.63Zm31.06-9.54c-.87-1.75-2.07-3.11-3.61-4.09-1.53-.98-3.28-1.47-5.23-1.47-1.8 0-3.38.4-4.75 1.2-1.17.68-2.1 1.62-2.82 2.78v-3.47h-4.94V49.8h5.05V39.66c.71 1.08 1.6 1.96 2.71 2.6 1.36.8 2.95 1.2 4.76 1.2 1.94 0 3.68-.49 5.22-1.47 1.54-.98 2.75-2.34 3.62-4.09.87-1.75 1.3-3.72 1.3-5.92 0-2.2-.43-4.17-1.3-5.92l-.01.03Zm-4.66 9.54c-.52 1.05-1.25 1.87-2.19 2.46-.94.59-2.01.89-3.21.89-1.2 0-2.31-.29-3.25-.88-.94-.58-1.68-1.41-2.2-2.46-.53-1.06-.79-2.27-.79-3.64s.26-2.58.79-3.63c.53-1.05 1.26-1.87 2.2-2.46.94-.59 2.03-.89 3.25-.89 1.22 0 2.27.3 3.21.89.94.59 1.67 1.41 2.19 2.46s.78 2.26.78 3.63-.26 2.58-.78 3.63Z"/>
  <path fill="#000" d="m24.0078 56 24-14V14l-24 13.9999V56Z"/>
  <path fill="#fff" d="m39.0078 42-10 6v-4l10-6v4Z"/>
  <path fill="url(#a)" d="M24.0078 0 .007813 14v28L24.0078 56V28l24-14-24-14Z"/>
</svg>
