<svg id="Layer_1" data-name="Layer 1" xmlns="http://www.w3.org/2000/svg" xmlns:xlink="http://www.w3.org/1999/xlink" width="223.43233" height="53.37358" viewBox="0 0 223.43233 53.37358">
  <defs>
    <linearGradient id="linear-gradient" x1="0.24235" y1="-126.69502" x2="46.3362" y2="-102.75017" gradientTransform="matrix(1, 0, 0, -1, 0, -88.13101)" gradientUnits="userSpaceOnUse">
      <stop offset="0.04301" stop-color="#fc801d"/>
      <stop offset="0.38172" stop-color="#fe2857"/>
      <stop offset="0.98925" stop-color="#af1df5"/>
    </linearGradient>
  </defs>
  <title>toolboxApplogo</title>
  <g>
    <g>
      <path d="M69.82781,17.90543H60.54988V11.63949H85.814v6.26594H76.53584V42.5283h-6.708Z"/>
      <path d="M82.63231,30.83469v-.08834a12.63757,12.63757,0,0,1,25.26413-.0882v.0882a12.63757,12.63757,0,0,1-25.26413.08834Zm18.73036,0v-.08834a6.2488,6.2488,0,0,0-6.14179-6.53067c-3.78951,0-6.05466,2.95649-6.05466,6.44248v.08821A6.24877,6.24877,0,0,0,95.308,37.27719C99.09766,37.27717,101.36267,34.32068,101.36267,30.83469Z"/>
      <path d="M109.63635,30.83469v-.08834a12.63757,12.63757,0,0,1,25.26413-.0882v.0882a12.63757,12.63757,0,0,1-25.26413.08834Zm18.73036,0v-.08834a6.2488,6.2488,0,0,0-6.14179-6.53067c-3.78951,0-6.05466,2.95649-6.05466,6.44248v.08821a6.24876,6.24876,0,0,0,6.14178,6.53082C126.1017,37.27717,128.36671,34.32068,128.36671,30.83469Z"/>
      <path d="M138.0779,10.31563h6.62091V42.5283H138.0779Z"/>
      <path d="M156.00467,39.43935v3.0889h-6.62058V10.31563h6.62058V22.27405a8.54468,8.54468,0,0,1,7.27412-3.839c5.44486,0,10.6282,4.32437,10.6282,12.223v.0884c0,7.89862-5.09618,12.22319-10.6282,12.22319A8.927,8.927,0,0,1,156.00467,39.43935Zm11.28174-8.69293V30.658c0-3.92722-2.61378-6.53076-5.70634-6.53076S155.9175,26.7308,155.9175,30.658v.0884c0,3.92721,2.57,6.53075,5.66257,6.53075s5.70636-2.55935,5.70636-6.53076Z"/>
      <path d="M176.17388,30.83469v-.08834a12.63757,12.63757,0,0,1,25.26413-.0882v.0882a12.63757,12.63757,0,0,1-25.26413.08834Zm18.73021,0v-.08834a6.2487,6.2487,0,0,0-6.14165-6.53067c-3.78965,0-6.05466,2.95649-6.05466,6.44248v.08821a6.24875,6.24875,0,0,0,6.14165,6.53082c3.78968,0,6.05468-2.95651,6.05468-6.4425Z"/>
      <path d="M211.75864,25.80414l4.3994-6.92781h6.92578l-7.884,11.56124,8.23254,12.09073h-7.10005l-4.70441-7.36922L206.9236,42.5283h-6.92593l8.18905-12.00252-7.88415-11.64945h7.10019Z"/>
    </g>
    <g>
      <polygon points="23.106 53.374 46.212 40.013 46.212 13.311 23.106 26.672 23.106 53.374" fill="#000001"/>
      <polygon points="37.673 40.053 27.604 45.842 27.604 42.151 37.673 36.362 37.673 40.053" fill="#fff"/>
      <polygon points="23.106 0 0 13.311 0 13.311 0 13.311 0 40.013 23.106 53.374 23.106 26.672 46.212 13.311 23.106 0" fill="url(#linear-gradient)"/>
    </g>
  </g>
</svg>
