<svg xmlns="http://www.w3.org/2000/svg" width="206" height="50" fill="none" viewBox="0 0 206 50">
  <path fill="#000" d="M95.3496 32.959c0 1.5374.2588 2.8596.7764 3.9658.536 1.0872 1.2938 1.9218 2.2734 2.5029.9797.5625 2.1446.8438 3.4946.8438 1.46-.0001 2.744-.3284 3.853-.9844 1.128-.6562 1.996-1.5756 2.607-2.7568.628-1.1812.943-2.5312.943-4.0498V15.5781h5.379V44.377h-5.213v-4.4737c-.848 1.505-1.966 2.6972-3.356 3.5742-1.645 1.0498-3.585 1.5742-5.822 1.5743-2.0332 0-3.827-.4401-5.3797-1.3213-1.5526-.8999-2.772-2.2033-3.6592-3.9092-.8688-1.7062-1.3037-3.7593-1.3037-6.1592v-18.084h5.4072V32.959Zm86.8294-18.0557c2.754 0 5.194.6374 7.32 1.9121 2.126 1.2562 3.781 3.0282 4.964 5.3155 1.183 2.2872 1.774 4.8936 1.774 7.8183v1.294h-23.021c.127 1.5647.499 2.9804 1.116 4.247.776 1.5562 1.849 2.7655 3.217 3.628 1.368.8622 2.911 1.2938 4.63 1.2939 1.552 0 2.94-.3195 4.16-.957 1.238-.6374 2.255-1.5275 3.05-2.6709h5.933c-.684 1.7059-1.654 3.1777-2.911 4.415-1.257 1.2374-2.755 2.1932-4.492 2.8682-1.738.6562-3.651.9844-5.74.9844-2.717-.0001-5.176-.6469-7.375-1.9405-2.2-1.2937-3.929-3.0932-5.186-5.3994-1.257-2.306-1.886-4.9028-1.886-7.79 0-2.8124.639-5.363 1.914-7.6504 1.276-2.3059 3.014-4.1058 5.213-5.3994 2.2-1.3123 4.64-1.9687 7.32-1.9688ZM81.7686 33.1836c0 2.1374-.49 4.0594-1.4698 5.7656-.9796 1.6873-2.3289 3.0183-4.0478 3.9932-1.719.9561-3.6508 1.4345-5.7949 1.4346h-6.378v-5.3155h5.878c1.183 0 2.2467-.2621 3.1894-.7871.9427-.5249 1.6729-1.2656 2.1904-2.2217.5361-.9562.8037-2.0344.8037-3.2343V5.00391h5.629V33.1836Zm55.9424-18.2803c2.033.0001 3.826.4498 5.379 1.3496 1.553.8812 2.764 2.1757 3.633 3.8819.887 1.7061 1.33 3.7594 1.33 6.1591V44.377h-5.379V26.9971c0-1.5373-.268-2.8501-.804-3.9375-.517-1.1061-1.266-1.9405-2.246-2.503-.98-.5812-2.145-.872-3.494-.872-1.46 0-2.754.3282-3.882.9843-1.109.6562-1.978 1.5748-2.606 2.7559-.61 1.1812-.915 2.5312-.915 4.0498V44.377h-5.379V15.5781h5.213v4.4365c.855-1.4874 1.964-2.6663 3.327-3.5361 1.645-1.0499 3.586-1.5752 5.823-1.5752Zm23.618 29.4737h-5.38V15.5781h5.38V44.377Zm20.85-24.917c-1.738 0-3.291.421-4.658 1.2646-1.368.8249-2.44 1.9971-3.216 3.5156-.47.9298-.794 1.9427-.973 3.0381h17.334c-.176-1.0411-.472-2.0072-.89-2.8974-.721-1.556-1.746-2.7656-3.077-3.628-1.312-.8624-2.82-1.2929-4.52-1.2929ZM161.8 12.4287h-6.294V6.52246h6.294v5.90624Z"/>
  <path fill="#48E054" d="M32 .980469H16V17.0184h16V.980469Z"/>
  <path fill="#48E054" d="M16 16.9805H0v16.038h16v-16.038Z"/>
  <path fill="#48E054" d="M31.9934 16.9662H48v2.6741c0 18.7186-8.0033 29.402-29.3323 29.402H16V32.9977h2.6677c9.3306 0 13.3387-4.0046 13.3387-13.3704v-2.6742l-.013.0131Z"/>
</svg>
