<svg xmlns="http://www.w3.org/2000/svg" width="696" height="110" fill="none" viewBox="0 0 696 110">
  <path fill="#000" d="M0 5H85V90H0V5Z"/>
  <path fill="#fff" d="M10.543 74.0078H42.4715V79.3292H10.543V74.0078Z"/>
  <path fill="#fff" d="M45.3946 40.6887H41.918V34.828H46.4022L47.5374 28.0592H43.5215V22.1985H48.5449L49.6943 15.5715H55.7395L54.5617 22.1985H61.2312L62.3806 15.5715H68.4116L67.3331 22.1985H70.8098V28.0592H66.2688L65.1194 34.828H69.1495V40.6887H64.1119L62.9199 47.5569H56.8889L58.0667 40.6887H51.4398L50.3045 47.5569H44.2026L45.3946 40.6887ZM59.0743 34.828L60.2379 28.0592H53.5825L52.4473 34.828H59.0743Z"/>
  <path fill="#fff" d="M10.5713 15.5715H25.2442C29.3027 15.5715 32.4152 16.6547 34.5816 18.8212C35.5096 19.793 36.2308 20.9429 36.7016 22.2015C37.1723 23.4601 37.3828 24.8011 37.3203 26.1434V26.2286C37.4307 28.4982 36.7595 30.7371 35.4188 32.5717C34.1259 34.1967 32.3989 35.4219 30.438 36.1052L38.2569 47.5427H30.0264L23.3995 37.6945H17.6665V47.5285H10.5713V15.5715ZM24.7618 31.1811C26.202 31.2751 27.6265 30.8356 28.7635 29.9465C29.2252 29.5339 29.5914 29.0256 29.8364 28.457C30.0815 27.8884 30.1996 27.2732 30.1825 26.6543V26.555C30.2354 25.9131 30.1342 25.2679 29.8874 24.6731C29.6405 24.0782 29.2552 23.5509 28.7635 23.1351C27.5741 22.3043 26.1391 21.8993 24.6908 21.9856H17.6665V31.1811H24.7618Z"/>
  <path fill="#fff" d="M116.291 4.51709H155.215C166.042 4.51709 174.443 7.55385 180.034 13.1449C184.788 17.8987 187.342 24.5824 187.342 32.6142V32.8555C187.342 46.606 179.921 55.248 169.093 59.2639L189.897 89.6741H168.001L149.752 62.4H135.022V89.6458H116.291V4.51709ZM154.009 45.8823C163.133 45.8823 168.355 41.015 168.355 33.8346V33.5934C168.355 25.5616 162.764 21.4179 153.64 21.4179H135.022V45.8823H154.009Z"/>
  <path fill="#fff" d="M189.372 57.4334V57.1922C189.372 38.5743 202.64 23.2485 221.612 23.2485C243.395 23.2485 253.371 40.1636 253.371 58.7247C253.371 60.1438 253.243 61.8892 253.129 63.5921H207.819C209.636 71.9786 215.482 76.3635 223.755 76.3635C229.956 76.3635 234.455 74.4194 239.563 69.6656L250.149 79.0455C244.076 86.5806 235.306 91.2067 223.514 91.2067C203.917 91.1358 189.372 77.3852 189.372 57.4334V57.4334ZM235.363 51.9559C234.27 43.6828 229.403 38.0918 221.612 38.0918C213.822 38.0918 208.969 43.5693 207.507 51.9559H235.363Z"/>
  <path fill="#fff" d="M255.499 77.2717L266.568 64.0036C274.23 70.3325 282.262 74.3484 291.997 74.3484C299.66 74.3484 304.286 71.2975 304.286 66.3166V66.0754C304.286 61.3216 301.363 58.895 287.13 55.248C269.973 50.8632 258.905 46.1236 258.905 29.2085V28.9673C258.905 13.5138 271.321 3.2967 288.705 3.2967C300.196 3.11485 311.39 6.9548 320.349 14.1524L310.615 28.3429C303.065 23.0073 295.644 19.8286 288.463 19.8286C281.283 19.8286 277.523 23.1066 277.523 27.2502V27.4915C277.523 33.0825 281.17 34.9131 295.885 38.6877C313.169 43.1861 322.847 49.3874 322.847 64.2306V64.4718C322.847 81.3869 309.948 90.8803 291.628 90.8803C278.323 90.933 265.463 86.0892 255.499 77.2717V77.2717Z"/>
  <path fill="#fff" d="M329.517 0.870117H347.964V33.7069C352.221 28.2435 357.699 23.2485 367.065 23.2485C381.056 23.2485 389.216 32.5007 389.216 47.4575V89.6741H370.768V53.3039C370.768 44.5342 366.625 40.0358 359.572 40.0358C352.519 40.0358 348.007 44.5342 348.007 53.3039V89.6741H329.559L329.517 0.870117Z"/>
  <path fill="#fff" d="M395.758 70.9142V70.6729C395.758 56.4825 406.585 49.8697 422.024 49.8697C427.456 49.8223 432.854 50.7252 437.974 52.5375V51.4732C437.974 43.8104 433.221 39.5532 423.983 39.5532C417.81 39.558 411.696 40.7529 405.975 43.0725L401.349 28.9671C409.276 25.3253 417.929 23.5347 426.65 23.7308C436.754 23.7308 444.048 26.4128 448.674 31.0389C453.541 35.9063 455.769 43.0867 455.769 51.8422V89.674H437.847V82.5787C433.348 87.5596 427.147 90.8518 418.136 90.8518C405.847 90.8944 395.758 83.8275 395.758 70.9142ZM438.216 66.657V63.3932C434.478 61.7545 430.433 60.9321 426.352 60.9808C418.448 60.9808 413.581 64.1453 413.581 69.9776V70.2188C413.581 75.2139 417.71 78.1371 423.67 78.1371C432.369 78.1229 438.216 73.3691 438.216 66.657Z"/>
  <path fill="#fff" d="M464.936 24.4689H483.384V37.6093C487.158 28.5983 493.246 22.7661 504.187 23.2485V42.5334H503.222C490.933 42.5334 483.355 49.955 483.355 65.5361V89.66H464.908L464.936 24.4689Z"/>
  <path fill="#fff" d="M511.368 24.4689H529.815V33.8346C534.314 27.7469 540.529 23.2485 550.136 23.2485C565.348 23.2485 579.823 35.1685 579.823 56.9509V57.1922C579.823 78.9745 565.632 90.8945 550.136 90.8945C546.224 90.9709 542.349 90.1302 538.82 88.4398C535.291 86.7494 532.207 84.2562 529.815 81.1599V109.143H511.368V24.4689ZM561.375 57.1922V56.9509C561.375 46.1236 554.067 38.9432 545.439 38.9432C536.811 38.9432 529.617 46.1236 529.617 56.9509V57.1922C529.617 68.0763 536.797 75.1715 545.439 75.1715C554.081 75.1715 561.375 68.1472 561.375 57.1922Z"/>
  <path fill="#fff" d="M585.47 57.4334V57.1922C585.47 38.5743 598.738 23.2485 617.711 23.2485C639.493 23.2485 649.469 40.1636 649.469 58.7247C649.469 60.1438 649.342 61.8892 649.228 63.5921H603.818C605.635 71.9786 611.481 76.3635 619.754 76.3635C625.956 76.3635 630.454 74.4194 635.563 69.6656L646.149 79.0455C640.075 86.5806 631.305 91.2067 619.513 91.2067C599.944 91.1358 585.47 77.3852 585.47 57.4334V57.4334ZM631.462 51.9559C630.369 43.6828 625.502 38.0918 617.711 38.0918C609.92 38.0918 605.067 43.5693 603.606 51.9559H631.462Z"/>
  <path fill="#fff" d="M656.054 24.4689H674.501V37.6093C678.276 28.5983 684.35 22.7661 695.305 23.2485V42.5334H694.326C682.037 42.5334 674.459 49.955 674.459 65.5361V89.66H656.011L656.054 24.4689Z"/>
</svg>
