<svg xmlns="http://www.w3.org/2000/svg" width="70" height="70" fill="none" viewBox="0 0 70 70">
  <defs>
    <linearGradient id="a" x1="34.4476" x2="64.631" y1="70.1461" y2="26.1553" gradientUnits="userSpaceOnUse">
      <stop offset="0.01613" stop-color="#FF45ED"/>
      <stop offset="0.4" stop-color="#DD1265"/>
      <stop offset="1" stop-color="#FDB60D"/>
    </linearGradient>
    <linearGradient id="b" x1="1.82813" x2="48.8246" y1="53.4276" y2="9.22552" gradientUnits="userSpaceOnUse">
      <stop offset="0.01613" stop-color="#FF45ED"/>
      <stop offset="0.66129" stop-color="#DD1265"/>
    </linearGradient>
    <linearGradient id="c" x1="47.5981" x2="48.0798" y1="-1.65814" y2="26.1171" gradientUnits="userSpaceOnUse">
      <stop offset="0" stop-color="#DD1265"/>
      <stop offset="0.05507" stop-color="#DF1961"/>
      <stop offset="0.70112" stop-color="#F46330"/>
      <stop offset="1" stop-color="#FC801D"/>
    </linearGradient>
  </defs>
  <path fill="url(#a)" d="M51.1974 15.7209L26.3802 47.0706L20.7823 70H58.4484L70 23.0666L51.1974 15.7209Z"/>
  <path fill="url(#b)" d="M48.9858 0H11.6129L0 47.0707H55.6073L48.9858 0Z"/>
  <path fill="url(#c)" d="M50.9338 13.3164L48.9858 0L44.782 13.3164H50.9338Z"/>
  <g>
    <path fill="#000000" d="M56 14H14V56H56V14Z"/>
    <path fill="#FFFFFF" d="M34.4166 48.6499H18.6666V51.3332H34.4166V48.6499Z"/>
    <path fill="#FFFFFF" d="M36.0781 31.3592L34.3704 31.3592L34.3703 28.4832L36.5725 28.4832L37.1343 25.1573L35.1567 25.1573L35.1566 22.2812L37.6288 22.2813L38.19 19.0007L41.1567 19.0008L40.5949 22.2814L43.8536 22.2815L44.4147 19.0009L47.3814 19.001L46.8196 22.2816L48.5273 22.2816L48.5274 25.1577L46.3252 25.1576L45.7634 28.4835L47.741 28.4835L47.7411 31.3596L45.2696 31.3595L44.6852 34.73L41.7191 34.7299L42.3029 31.3594L39.0448 31.3593L38.4604 34.7299L35.4943 34.7298L36.0781 31.3592ZM42.7973 28.4834L43.3591 25.1575L40.1004 25.1574L39.5387 28.4833L42.7973 28.4834Z"/>
    <path fill="#FFFFFF" d="M19 19L26.1868 19.0002C28.1783 19.0003 29.7056 19.5316 30.7688 20.5941C31.2255 21.0702 31.5805 21.6344 31.8121 22.2521C32.0437 22.8699 32.1471 23.5284 32.116 24.1874V24.2327C32.1656 25.3452 31.837 26.4416 31.1836 27.3434C30.5549 28.1499 29.7101 28.7613 28.7474 29.1063L32.5883 34.7207L28.5456 34.7206L25.2918 29.8921L22.4396 29.892L22.4593 34.7204L19.0005 34.7203L19 19ZM25.9625 26.6354C26.6701 26.6828 27.3702 26.4668 27.9281 26.0289C28.1546 25.8268 28.3335 25.5769 28.4519 25.2973C28.5703 25.0177 28.6252 24.7153 28.6126 24.4119V24.3673C28.6348 24.0496 28.5812 23.7312 28.4561 23.4383C28.3311 23.1455 28.1382 22.8865 27.8934 22.6829C27.3089 22.2772 26.6052 22.0796 25.895 22.1216L22.4589 22.1215L22.459 26.6353L25.9625 26.6354Z"/>
  </g>
</svg>
