<svg xmlns="http://www.w3.org/2000/svg" width="128" height="128" fill="none" viewBox="0 0 128 128">
  <defs>
    <linearGradient id="a" x1="8.64825" x2="125.841" y1="119.866" y2="2.67489" gradientUnits="userSpaceOnUse">
      <stop offset=".29" stop-color="#FF45ED"/>
      <stop offset=".7" stop-color="#FF0A67"/>
    </linearGradient>
    <linearGradient id="b" x1="-.781244" x2="48.7866" y1="15.3413" y2="122.251" gradientUnits="userSpaceOnUse">
      <stop offset=".3" stop-color="#FDB60D"/>
      <stop offset=".54" stop-color="#FF45ED"/>
    </linearGradient>
  </defs>
  <path fill="url(#a)" d="M119.75 0H51.4953c-3.3162 0-6.3099 1.98625-7.5999 5.04125L12.2995 79.8838c-.4375 1.0362-.6588 2.1512-.6488 3.2762l.3 36.657c.0375 4.53 3.72 8.183 8.2499 8.183h35.3309c1.6113 0 3.1863-.471 4.5325-1.356l64.218-42.2178c2.321-1.525 3.718-4.1162 3.718-6.8937V8.25c0-4.55625-3.694-8.25-8.25-8.25Z"/>
  <path fill="url(#b)" d="M29.9747 12H8.24992C3.69371 12 0 15.6937 0 20.25v25.1312c0 .4.02875.8.0875 1.1963l10.8961 74.3705c.5938 4.051 4.0688 7.053 8.1625 7.053h30.7947c4.5574 0 8.2511-3.695 8.2499-8.252l-.0088-37.009c0-.8513-.1325-1.6975-.3912-2.5075L37.8334 17.7412c-1.0925-3.4187-4.27-5.7399-7.8587-5.7399V12Z"/>
  <path fill="#FDB60D" d="M32.9016 12H8.38437C3.77692 12 .061952 15.7738.135702 20.3813L.001953 42c.0375 2.3625 1.572487 5.0613 3.366217 6.5988L79.6849 114.012c1.495 1.282 3.4 1.987 5.3687 1.987h22.6984c4.556 0 8.25-3.694 8.25-8.25V85.7425c0-2.3787-1.027-4.6425-2.817-6.2087L38.3341 14.0413C36.8303 12.725 34.9004 12 32.9016 12Z"/>
  <path fill="#000" d="M104 24H24v80h79.999V24H104Z"/>
  <path fill="#fff" d="M65.9997 88H34v6h31.9997v-6Z"/>
  <path fill="#fff" d="M34.0254 33.9844H46.909c2.1012 0 3.9512.3862 5.5525 1.1575 1.5999.7712 2.8324 1.8575 3.6974 3.2587.865 1.4013 1.2975 3.0225 1.2975 4.8663 0 1.8437-.44 3.4975-1.3187 4.92-.8788 1.4225-2.13 2.5225-3.7512 3.3012-1.6225.7788-3.505 1.1688-5.6487 1.1688h-6.86v11.34h-5.8524V33.9844Zm15.0811 13.26c.7362-.365 1.3037-.8863 1.7037-1.565.4-.6788.6-1.4688.6-2.3688 0-.9-.2-1.7037-.6-2.3687-.4-.665-.9687-1.1788-1.7037-1.5438-.7362-.365-1.5975-.5462-2.5837-.5462h-6.6462v8.94h6.6462c.9862 0 1.8475-.1825 2.5837-.5463v-.0012Zm-5.2625 3.5262h6.3887l7.8675 13.2275h-6.71L43.844 50.7706Z"/>
  <path fill="#fff" d="M85.6245 52.5281v3.8163l-24.396.0425v-3.8163l24.396-.0425Zm2.1438-10.9337v3.8587l-24.3961.0425v-3.8587l24.3961-.0425Zm-17.5136-7.61h4.2662l-6.4312 30.0125h-4.2662l6.4312-30.0125Zm10.6536 0h4.2662l-6.4312 30.0125h-4.2662l6.4312-30.0125Z"/>
</svg>
