<svg xmlns="http://www.w3.org/2000/svg" width="64" height="64" fill="none" viewBox="0 0 64 64">
  <defs>
    <linearGradient id="a" x1="4.3251" x2="62.9213" y1="59.9331" y2="1.33745" gradientUnits="userSpaceOnUse">
      <stop offset=".29" stop-color="#FF45ED"/>
      <stop offset=".7" stop-color="#FF0A67"/>
    </linearGradient>
    <linearGradient id="b" x1="-.390622" x2="24.3933" y1="7.67063" y2="61.1254" gradientUnits="userSpaceOnUse">
      <stop offset=".3" stop-color="#FDB60D"/>
      <stop offset=".54" stop-color="#FF45ED"/>
    </linearGradient>
  </defs>
  <path fill="url(#a)" d="M59.8758 0H25.7486c-1.6581 0-3.1549.993125-3.7999 2.52063L6.15071 39.9419c-.21875.5181-.32938 1.0756-.32438 1.6381l.15 18.3287C5.99508 62.1737 7.83631 64 10.1013 64h17.6654c.8057 0 1.5932-.2356 2.2663-.6781l32.109-21.1088c1.1606-.7625 1.8588-2.0581 1.8588-3.4468V4.125c0-2.27813-1.8469-4.125-4.125-4.125Z"/>
  <path fill="url(#b)" d="M14.9874 6H4.12496C1.84686 6 0 7.84687 0 10.125v12.5656c0 .2.014375.4.04375.5981l5.44807 37.1851c.29687 2.0256 2.03436 3.5268 4.08121 3.5268H24.9704c2.2787 0 4.1256-1.8475 4.1249-4.1262L29.091 41.37c0-.4256-.0663-.8488-.1957-1.2538L18.9167 8.87062c-.5463-1.70937-2.135-2.86999-3.9293-2.86999V6Z"/>
  <path fill="#FDB60D" d="M16.4498 6H4.19121C1.88748 6 .03 7.88688.066874 10.1906L0 21c.01875 1.1812.786242 2.5306 1.68311 3.2994L39.8415 57.0062c.7475.6407 1.7.9932 2.6843.9932h11.3493c2.2781 0 4.125-1.8469 4.125-4.125V42.8713c0-1.1894-.5138-2.3213-1.4088-3.1044L19.1661 7.02063C18.4142 6.3625 17.4492 6 16.4498 6Z"/>
  <path fill="#000" d="M52.0002 12H12v40h39.9996V12h.0006Z"/>
  <path fill="#fff" d="M32.9998 44H17v3h15.9998v-3Z"/>
  <path fill="#fff" d="M17.0117 16.9922h6.4418c1.0506 0 1.9756.1931 2.7763.5787.7999.3857 1.4162.9288 1.8487 1.6294.4325.7006.6487 1.5113.6487 2.4331 0 .9219-.22 1.7488-.6593 2.46-.4394.7113-1.065 1.2613-1.8756 1.6507-.8113.3893-1.7525.5843-2.8244.5843h-3.43v5.67h-2.9262V16.9922Zm7.5406 6.63c.3681-.1825.6518-.4431.8518-.7825.2-.3394.3-.7344.3-1.1844 0-.45-.1-.8519-.3-1.1844-.2-.3325-.4843-.5893-.8518-.7718-.3682-.1825-.7988-.2732-1.2919-.2732h-3.3231v4.47h3.3231c.4931 0 .9237-.0912 1.2919-.2731v-.0006Zm-2.6313 1.7631h3.1944l3.9337 6.6138h-3.355l-3.7731-6.6138Z"/>
  <path fill="#fff" d="M42.8113 26.2641v1.9081l-12.198.0212v-1.9081l12.198-.0212Zm1.0719-5.4669v1.9294l-12.1981.0212v-1.9294l12.1981-.0212Zm-8.7568-3.805h2.1331l-3.2156 15.0062h-2.1331l3.2156-15.0062Zm5.3268 0h2.1331l-3.2156 15.0062h-2.1331l3.2156-15.0062Z"/>
</svg>
