<svg enable-background="new 0 0 70 70" height="70" viewBox="0 0 70 70" width="70" xmlns="http://www.w3.org/2000/svg" xmlns:xlink="http://www.w3.org/1999/xlink"><linearGradient id="a" gradientUnits="userSpaceOnUse" x1="22.9451" x2="74.7868" y1="75.7869" y2="20.6415"><stop offset=".01612903" stop-color="#b35ba3"/><stop offset=".4044" stop-color="#c41e57"/><stop offset=".4677" stop-color="#c41e57"/><stop offset=".6505" stop-color="#eb8523"/><stop offset=".9516" stop-color="#febd11"/></linearGradient><linearGradient id="b" gradientUnits="userSpaceOnUse" x1="17.7187" x2="69.5556" y1="73.2922" y2="18.1519"><stop offset=".01612903" stop-color="#b35ba3"/><stop offset=".4044" stop-color="#c41e57"/><stop offset=".4677" stop-color="#c41e57"/><stop offset=".7043" stop-color="#eb8523"/></linearGradient><linearGradient id="c" gradientUnits="userSpaceOnUse" x1="1.8281" x2="48.8245" y1="53.4275" y2="9.2255"><stop offset=".01612903" stop-color="#b35ba3"/><stop offset=".6613" stop-color="#c41e57"/></linearGradient><linearGradient id="d" gradientUnits="userSpaceOnUse" x1="49.8935" x2="48.8588" y1="-11.5569" y2="24.0352"><stop offset=".5" stop-color="#c41e57"/><stop offset=".6668" stop-color="#d13f48"/><stop offset=".7952" stop-color="#d94f39"/><stop offset=".8656" stop-color="#dd5433"/></linearGradient><path d="m49.8 15.2-13.8 21.5 22.4 33.3 11.6-46.9z" fill="url(#a)"/><path d="m51.1 15.7-2.1-15.7-30.2 33.6 8.8 8.7-6.8 27.7h37.6z" fill="url(#b)"/><path d="m49 0h-37.4l-11.6 47.1h55.6z" fill="url(#c)"/><path d="m55.3 47.1-4.2-31.4-2.1-15.7-7.3 23z" fill="url(#d)"/><path d="m13.4 13.5h43.2v43.2h-43.2z" transform="matrix(-1 .00257729 -.00257729 -1 70.0288 70.081)"/><g fill="#fff"><path d="m17.6 48.6h16.2v2.7h-16.2z" transform="matrix(1 -.00257729 .00257729 1 -.1287 .066341)"/><path d="m17.4 19.1h8.2c2.3 0 4 .6 5.2 1.8 1 1 1.5 2.4 1.5 4.1v.1c0 1.5-.3 2.6-1.1 3.5-.7.9-1.6 1.6-2.8 2l4.4 6.4h-4.6l-3.7-5.5h-3.3v5.5h-3.9zm7.9 8.7c1 0 1.7-.2 2.2-.7s.8-1.1.8-1.8v-.1c0-.9-.3-1.5-.8-1.9s-1.3-.6-2.3-.6h-3.9v5.1z"/><path d="m36 33.2h-1.9v-3.3h2.5l.6-3.8h-2.3v-3.3h2.8l.6-3.7h3.4l-.6 3.7h3.7l.6-3.7h3.4l-.6 3.7h1.9v3.3h-2.5l-.6 3.8h2.3v3.3h-2.8l-.7 3.8h-3.4l.7-3.8h-3.7l-.7 3.8h-3.4zm7.7-3.3.6-3.8h-3.7l-.6 3.8z"/></g></svg>