<svg xmlns="http://www.w3.org/2000/svg" width="290" height="64" fill="none" viewBox="0 0 290 64">
  <defs>
    <linearGradient id="a" x1="4.33096" x2="62.9266" y1="59.9325" y2="1.33686" gradientUnits="userSpaceOnUse">
      <stop offset=".29" stop-color="#FF45ED"/>
      <stop offset=".7" stop-color="#FF0A67"/>
    </linearGradient>
    <linearGradient id="b" x1="-.384762" x2="24.3987" y1="7.67061" y2="61.1251" gradientUnits="userSpaceOnUse">
      <stop offset=".3" stop-color="#FDB60D"/>
      <stop offset=".54" stop-color="#FF45ED"/>
    </linearGradient>
  </defs>
  <path fill="#000" d="M102.05 34.2c1.58-.77 2.8-1.85 3.66-3.24.86-1.39 1.29-3.0001 1.29-4.8301 0-1.83-.42-3.4099-1.27-4.7899-.85-1.38-2.05-2.4501-3.61-3.2101C100.56 17.3699 98.76 17 96.7 17H84v29.96h5.33v-11.6h5.49l6.73 11.6h6.12l-7.29-12.13c.58-.17 1.15-.37 1.68-.63h-.01Zm-2.95-3.92c-.76.39-1.67.58-2.71.58h-7.06v-9.3501h7.06c1.04 0 1.94.1901 2.71.5701.76.38 1.35.92 1.78 1.62.42.7.63 1.52.63 2.46s-.21 1.79-.63 2.49c-.42.71-1.01 1.25-1.78 1.64v-.01Zm27.61-4.3c-1.68-.97-3.6-1.46-5.76-1.46-2.16 0-4.03.4999-5.77 1.4899-1.73.99-3.1 2.3601-4.1 4.1001-1 1.74-1.5 3.69-1.5 5.84s.5 4.1699 1.49 5.9299c.99 1.75 2.35 3.1201 4.07 4.1101 1.72.98 3.66 1.48 5.81 1.48 1.7 0 3.25-.26 4.64-.79 1.4-.53 2.59-1.28 3.57-2.25s1.73-2.13 2.25-3.49h-5.5c-.56.74-1.26 1.32-2.1 1.73-.84.41-1.79.62-2.85.62-1.2 0-2.27-.29-3.22-.88-.95-.58-1.69-1.4-2.23-2.45-.43-.83-.68-1.76-.78-2.77h17.29v-1.22c0-2.23-.47-4.21-1.4-5.94-.93-1.73-2.24-3.08-3.93-4.06l.02.01Zm-11.88 7.83c.13-.72.34-1.4.67-2.02.54-1.02 1.28-1.82 2.23-2.4.95-.58 2.02-.87 3.22-.87 1.2 0 2.26.3 3.18.9.92.6 1.63 1.43 2.13 2.49.28.59.47 1.22.59 1.89h-12.02v.01Zm37.96-2.44c-1.14-.83-2.44-1.41-3.89-1.73l-5.05-1.1301c-1.01-.27-1.81-.6999-2.4-1.2699-.58-.58-.88-1.32-.88-2.21 0-.8.21-1.5.62-2.1.41-.6.99-1.06 1.73-1.39.74-.33 1.6-.49 2.57-.49.97 0 1.85.17 2.6.51.75.34 1.33.83 1.73 1.46.4.63.61 1.33.61 2.12h5.35c-.01-1.68-.46-3.18-1.33-4.48-.87-1.3-2.09-2.33-3.66-3.06-1.57-.74-3.36-1.1-5.37-1.1-2.01 0-3.73.3799-5.29 1.1299-1.55.76-2.77 1.8001-3.64 3.1201-.87 1.33-1.31 2.83-1.31 4.52 0 1.38.29 2.63.88 3.75.58 1.11 1.41 2.0499 2.46 2.7999 1.06.76 2.29 1.3001 3.7 1.6301l5.22 1.1799c1.1.27 1.96.7501 2.59 1.4201.63.67.94 1.5399.94 2.5799 0 .84-.22 1.5901-.67 2.2401-.45.65-1.08 1.16-1.9 1.52-.82.36-1.77.55-2.86.55-1.09 0-2.12-.2-2.99-.6-.86-.4-1.54-.95-2.02-1.66-.49-.71-.73-1.52-.73-2.45h-5.35c.01 1.83.49 3.4399 1.42 4.8399.93 1.4 2.23 2.4901 3.88 3.2601 1.65.78 3.55 1.17 5.69 1.17 2.14 0 4.02-.4 5.68-1.19 1.66-.79 2.95-1.88 3.87-3.26.92-1.38 1.38-2.9401 1.38-4.6701 0-1.43-.32-2.7399-.95-3.9399-.64-1.2-1.52-2.21-2.67-3.04l.04-.03Zm23.59-5.82c-1.18-.68-2.56-1.03-4.13-1.03-1.67 0-3.12.39-4.37 1.18-1.04.66-1.86 1.5599-2.5 2.6799V27.81l.06-4.04v-6.78h-4.94v29.96h5.05V34.2599c0-1.04.21-1.9599.63-2.7599.42-.8 1.02-1.4201 1.79-1.8701.77-.45 1.66-.6699 2.65-.6699.93 0 1.73.2 2.4.59.67.39 1.18.96 1.54 1.7.36.74.54 1.64.54 2.7v13.01h5.03V33.18c0-1.8-.33-3.35-.98-4.64-.66-1.3-1.58-2.2901-2.76-2.9701l-.01-.0199Zm25.06 2.8c-.71-1.09-1.62-1.97-2.73-2.63-1.36-.8-2.95-1.2-4.76-1.2-1.95 0-3.7.49-5.23 1.47-1.53.98-2.74 2.34-3.61 4.09-.87 1.75-1.3 3.72-1.3 5.92 0 2.2.43 4.17 1.3 5.92.87 1.75 2.08 3.1099 3.62 4.0899s3.28 1.4701 5.22 1.4701c1.81 0 3.4-.4 4.76-1.2 1.11-.65 2.02-1.54 2.73-2.63v3.31h4.96V25.04h-4.96v3.31Zm-.81 11.27c-.53 1.05-1.26 1.87-2.2 2.46-.94.59-2.03.89-3.25.89-1.22 0-2.27-.29-3.21-.88-.94-.58-1.67-1.4001-2.19-2.4601-.52-1.06-.78-2.2699-.78-3.6399s.26-2.58.78-3.63c.52-1.05 1.25-1.87 2.19-2.46.94-.59 2.01-.8901 3.21-.8901 1.2 0 2.31.3001 3.25.8901.94.59 1.68 1.41 2.2 2.46.53 1.05.79 2.26.79 3.63s-.26 2.58-.79 3.63ZM218.5 26.1c-.83.57-1.53 1.33-2.1 2.26v-3.32h-5.01v21.92h5.05V35.1299c0-1.06.22-1.9699.67-2.7399.45-.77 1.09-1.36 1.93-1.78.83-.41 1.82-.62 2.94-.62h1.41V24.9h-.81c-1.55 0-2.92.4-4.09 1.21l.01-.01Zm25.52-.11c-1.53-.98-3.28-1.47-5.23-1.47-1.8 0-3.38.4-4.75 1.2-1.17.68-2.1 1.62-2.83 2.78v-3.47h-4.94v28.76h5.05V43.65c.71 1.08 1.6 1.96 2.71 2.6 1.36.8 2.95 1.2 4.76 1.2 1.94 0 3.68-.49 5.22-1.47 1.54-.98 2.75-2.34 3.62-4.09.87-1.75 1.31-3.72 1.31-5.92 0-2.2-.44-4.17-1.31-5.92-.87-1.75-2.07-3.11-3.61-4.09v.03Zm-1.05 13.63c-.52 1.05-1.25 1.87-2.19 2.46-.94.59-2.01.89-3.21.89-1.2 0-2.31-.29-3.25-.88-.94-.58-1.68-1.4001-2.21-2.4601-.53-1.06-.79-2.2699-.79-3.6399s.26-2.58.79-3.63c.53-1.05 1.26-1.87 2.21-2.46.94-.59 2.03-.8901 3.25-.8901 1.22 0 2.27.3001 3.21.8901.94.59 1.67 1.41 2.19 2.46s.78 2.26.78 3.63-.26 2.58-.78 3.63Zm25.62-13.64c-1.68-.97-3.6-1.46-5.76-1.46-2.16 0-4.03.4999-5.77 1.4899-1.73.99-3.1 2.3601-4.1 4.1001-1 1.74-1.5 3.69-1.5 5.84s.5 4.1699 1.49 5.9299c.99 1.75 2.35 3.1201 4.07 4.1101 1.72.99 3.66 1.48 5.81 1.48 1.7 0 3.25-.26 4.64-.79 1.4-.53 2.59-1.28 3.57-2.25s1.73-2.13 2.25-3.49h-5.5c-.56.74-1.25 1.32-2.1 1.73-.84.41-1.79.62-2.85.62-1.2 0-2.27-.29-3.22-.88-.95-.58-1.69-1.4-2.23-2.45-.43-.83-.68-1.76-.78-2.77h17.29v-1.22c0-2.23-.47-4.21-1.4-5.94-.93-1.73-2.24-3.08-3.93-4.06l.02.01Zm-11.88 7.83c.13-.72.34-1.4.67-2.02.54-1.02 1.28-1.82 2.23-2.4.95-.58 2.02-.87 3.22-.87 1.2 0 2.26.3 3.18.9.92.6 1.63 1.43 2.13 2.49.28.59.47 1.22.59 1.89h-12.02v.01Zm32.08-8.92c-1.56 0-2.92.4-4.09 1.21-.83.57-1.53 1.33-2.1 2.26v-3.32h-5.01v21.92h5.05V35.1299c0-1.06.22-1.9699.67-2.7399.45-.77 1.09-1.36 1.93-1.78.84-.42 1.82-.62 2.94-.62h1.41V24.9h-.81l.01-.01Z"/>
  <path fill="url(#a)" d="M59.8817 0H25.7545c-1.6581 0-3.155.993115-3.8 2.5206L6.15657 39.9415c-.21875.5181-.32938 1.0756-.32438 1.6381l.15 18.3286c.01875 2.2649 1.85998 4.0912 4.12501 4.0912h17.6654c.8056 0 1.5931-.2356 2.2662-.6781l32.1091-21.1086c1.1606-.7625 1.8587-2.0581 1.8587-3.4468V4.12496C64.0066 1.84686 62.1598 0 59.8817 0Z"/>
  <path fill="url(#b)" d="M14.9932 6H4.13082C1.85272 6 .00586 7.84686.00586 10.125v12.5655c0 .2.014374.4.043749.5981L5.49768 60.4732c.29687 2.0256 2.03436 3.5269 4.08121 3.5269H24.9762c2.2788 0 4.1256-1.8475 4.125-4.1263l-.0044-18.5041c0-.4257-.0662-.8488-.1956-1.2538L18.9226 8.8706c-.5463-1.70936-2.135-2.86997-3.9294-2.86997V6Z"/>
  <path fill="#FDB60D" d="M16.4557 6H4.19707C1.89334 6 .03586 7.88686.072734 10.1906L.005859 20.9999c.01875 1.1812.786243 2.5306 1.683111 3.2993L39.8473 57.0057c.7475.6407 1.7.9932 2.6844.9932H53.881c2.2781 0 4.1249-1.8469 4.1249-4.125v-11.003c0-1.1894-.5137-2.3212-1.4087-3.1044L19.1719 7.02062C18.4201 6.3625 17.4551 6 16.4557 6Z"/>
  <path fill="#000" d="M52.0061 12H12.0059v39.9996h39.9996V12h.0006Z"/>
  <path fill="#fff" fill-rule="evenodd" d="M17.0181 16.9922h6.4418c1.0506 0 1.9756.1931 2.7762.5787.8.3857 1.4162.9288 1.8487 1.6294.4325.7006.6488 1.5112.6488 2.4331 0 .9219-.22 1.7487-.6594 2.46-.4394.7112-1.065 1.2612-1.8756 1.6506-.2231.107-.4559.1994-.6987.2771l3.5555 5.9778h-3.3549l-3.2351-5.6706h-2.5211v5.67h-2.9262V16.9922Zm7.5405 6.6299c.3681-.1825.6519-.4431.8519-.7825.2-.3393.3-.7343.3-1.1843 0-.45-.1-.8519-.3-1.1844-.2-.3325-.4844-.5894-.8519-.7719-.3681-.1825-.7987-.2731-1.2918-.2731h-3.3231v4.47h3.3231c.4931 0 .9237-.0919 1.2918-.2738Z" clip-rule="evenodd"/>
  <path fill="#fff" d="M33.0057 43.998H17.0059v3h15.9998v-3Z"/>
  <path fill="#fff" fill-rule="evenodd" d="M42.8178 28.1721V26.264l-2.2126.0038.7579-3.5369 2.5266-.0044v-1.9294l-2.113.0037.8161-3.8086h-2.1331l-.8169 3.8123-3.1949.0056.8181-3.8179h-2.1331l-.8189 3.8216-2.6223.0046v1.9294l2.2087-.0039-.7579 3.5369-2.5227.0044v1.9081l2.1136-.0037-.8161 3.8087h2.1331l.8169-3.8124 3.1949-.0055-.8181 3.8179h2.1331l.8189-3.8217 2.6217-.0045Zm-7.5414-1.895 3.1949-.0056.7579-3.5369-3.1949.0056-.7579 3.5369Z" clip-rule="evenodd"/>
</svg>
