<svg xmlns="http://www.w3.org/2000/svg" width="70" height="70" fill="none" viewBox="0 0 70 70">
  <defs>
    <linearGradient id="a" x1="16.6253" x2="53.3751" y1="20.1182" y2="62.9941" gradientUnits="userSpaceOnUse">
      <stop offset="0.0729167" stop-color="#FF45ED"/>
      <stop offset="0.572917" stop-color="#B74AF7"/>
      <stop offset="0.989583" stop-color="#009AE5"/>
    </linearGradient>
  </defs>
  <path fill="url(#a)" d="M62.7431 7.31081C59.0637 7.02364 55.3716 6.93109 51.6824 7.03354C51.5022 7.03783 51.2246 7.04778 51.0339 7.05366C43.6718 7.28098 34.3639 8.20193 26.184 11.2289C25.9382 11.3198 25.3895 11.5092 25.0359 11.6487C20.7776 13.2148 16.9 15.6665 13.6594 18.8418C4.11586 28.6774 4.9295 44.9279 15.4596 55.1217C25.9898 65.3156 42.3544 65.6939 51.7923 55.7569C52.836 54.6507 53.7834 53.4574 54.6243 52.19C65.2487 36.2888 62.7431 7.31081 62.7431 7.31081Z"/>
</svg>
