<?xml version="1.0" encoding="utf-8"?>
<!-- Generator: Adobe Illustrator 19.1.0, SVG Export Plug-In . SVG Version: 6.00 Build 0)  -->
<svg version="1.1" xmlns="http://www.w3.org/2000/svg" xmlns:xlink="http://www.w3.org/1999/xlink" x="0px" y="0px"
	 width="548px" height="196.6px" viewBox="147 590.4 548 196.6" style="enable-background:new 147 590.4 548 196.6;"
	 xml:space="preserve">
<g>
	<g>
		<path d="M147,593.9h37.7c10.5,0,18.6,2.9,24,8.4c4.6,4.6,7.1,11.1,7.1,18.8v0.2c0,13.3-7.2,21.6-17.6,25.5l20.1,29.4H197
			l-17.6-26.4h-14.2v26.5H147V593.9z M183.4,633.9c8.8,0,13.9-4.7,13.9-11.6v-0.2c0-7.8-5.4-11.8-14.2-11.8h-18v23.6H183.4z"/>
		<path d="M218,645.1v-0.2c0-18,12.8-32.8,31.2-32.8c21.1,0,30.7,16.4,30.7,34.2c0,1.4-0.1,3.1-0.2,4.7h-43.9
			c1.8,8.1,7.4,12.4,15.4,12.4c6,0,10.4-1.9,15.3-6.5l10.2,9.1c-5.9,7.3-14.4,11.8-25.8,11.8C232,677.7,218,664.4,218,645.1z
			 M262.5,639.8c-1.1-8-5.8-13.4-13.3-13.4c-7.4,0-12.2,5.3-13.6,13.4H262.5z"/>
		<path d="M281.6,664.3l10.7-12.8c7.4,6.1,15.2,10,24.6,10c7.4,0,11.9-2.9,11.9-7.8v-0.2c0-4.6-2.8-6.9-16.6-10.5
			c-16.6-4.2-27.3-8.8-27.3-25.2v-0.2c0-14.9,12-24.8,28.8-24.8c12,0,22.2,3.8,30.6,10.5l-9.4,13.6c-7.3-5.1-14.5-8.1-21.4-8.1
			s-10.6,3.2-10.6,7.2v0.2c0,5.4,3.5,7.2,17.8,10.8c16.7,4.4,26.1,10.4,26.1,24.7v0.2c0,16.4-12.5,25.5-30.2,25.5
			C304,677.5,291.4,673.1,281.6,664.3z"/>
		<path d="M352.7,590.4h17.9v31.8c4.1-5.3,9.4-10.1,18.5-10.1c13.5,0,21.4,8.9,21.4,23.4v40.8h-17.9v-35.2c0-8.5-4-12.8-10.8-12.8
			s-11.2,4.4-11.2,12.8v35.2h-17.9V590.4z"/>
		<path d="M414.4,658.2V658c0-13.8,10.5-20.1,25.4-20.1c6.4,0,10.9,1.1,15.4,2.6v-1.1c0-7.4-4.6-11.5-13.5-11.5
			c-6.8,0-11.6,1.3-17.4,3.4l-4.5-13.6c6.9-3.1,13.8-5.1,24.5-5.1c9.8,0,16.8,2.6,21.3,7.1c4.7,4.7,6.8,11.6,6.8,20.1v36.5h-17.3
			v-6.8c-4.4,4.8-10.4,8-19.1,8C424.2,677.5,414.4,670.7,414.4,658.2z M455.5,654.1v-3.2c-3.1-1.4-7.1-2.4-11.4-2.4
			c-7.6,0-12.4,3.1-12.4,8.7v0.2c0,4.8,4,7.6,9.8,7.6C449.8,665.1,455.5,660.5,455.5,654.1z"/>
		<path d="M479.9,613.2h17.9v12.7c3.6-8.7,9.5-14.4,20.1-13.9v18.7H517c-11.9,0-19.2,7.2-19.2,22.2v23.4h-17.9V613.2z"/>
		<path d="M521.2,613.2h17.9v9.1c4.4-5.9,10.4-10.2,19.6-10.2c14.7,0,28.7,11.5,28.7,32.6v0.2c0,21.1-13.8,32.6-28.7,32.6
			c-9.5,0-15.4-4.4-19.6-9.4v27.1h-17.9L521.2,613.2L521.2,613.2z M569.6,644.9v-0.2c0-10.5-7.1-17.4-15.4-17.4s-15.3,6.9-15.3,17.4
			v0.2c0,10.5,6.9,17.4,15.3,17.4S569.6,655.5,569.6,644.9z"/>
		<path d="M589.7,645.1v-0.2c0-18,12.8-32.8,31.2-32.8c21.1,0,30.7,16.4,30.7,34.2c0,1.4-0.1,3.1-0.2,4.7h-43.9
			c1.8,8.1,7.4,12.4,15.4,12.4c6,0,10.4-1.9,15.3-6.5l10.2,9.1c-5.9,7.3-14.4,11.8-25.8,11.8C603.7,677.7,589.7,664.4,589.7,645.1z
			 M634.2,639.8c-1.1-8-5.8-13.4-13.3-13.4c-7.4,0-12.2,5.3-13.6,13.4H634.2z"/>
		<path d="M657,613.2h17.9v12.7c3.6-8.7,9.5-14.4,20.1-13.9v18.7h-0.9c-11.9,0-19.2,7.2-19.2,22.2v23.4H657V613.2z"/>
	</g>
	<g>
		<path d="M148,751.5v-48.1h6.1v47.5c0,19.4,10.5,30.6,27.9,30.6c16.7,0,27.4-10.1,27.4-30v-48.1h6.1v47.4
			c0,23.6-13.8,36.2-33.8,36.2C162,787.1,148,774.6,148,751.5z"/>
		<path d="M231.9,703.4h6.1v76.7h48.4v5.6h-54.5V703.4z"/>
		<path d="M309,709.1h-28.7v-5.6h63.5v5.6h-28.7v76.7H309V709.1z"/>
		<path d="M356.4,703.4h6.1v82.4h-6.1V703.4z"/>
		<path d="M381,703.4h5.8l33.1,48.7l33.1-48.7h5.8v82.4h-6.1v-71.5l-32.6,47.4h-0.5L387,714.3v71.5h-6V703.4z"/>
		<path d="M507.6,702.8h5.9l38.4,82.9h-6.7l-10.5-23.1H486l-10.5,23.1h-6.4L507.6,702.8z M532.1,757.2l-21.6-47.7l-21.8,47.7H532.1z
			"/>
		<path d="M574.6,709.1h-28.7v-5.6h63.5v5.6h-28.7v76.7h-6.1V709.1z"/>
		<path d="M621.2,703.4h58.6v5.6h-52.5v32.4h47.2v5.6h-47.2v33.1h53.1v5.6h-59.2L621.2,703.4L621.2,703.4z"/>
	</g>
</g>
</svg>
