<svg enable-background="new 0 0 595.9 90.2" height="90.2" viewBox="0 0 595.9 90.2" width="595.9" xmlns="http://www.w3.org/2000/svg"><path d="m105.6 56.3v-.3c0-21.7 14.2-33.7 29.6-33.7 9.8 0 15.9 4.5 20.3 9.7v-32h18.5v88.7h-18.5v-9.4c-4.5 6.1-10.7 10.6-20.3 10.6-15.1 0-29.6-11.9-29.6-33.6zm50.2 0v-.3c0-10.8-7.2-18-15.8-18s-15.9 7-15.9 18v.2c0 10.8 7.3 18 15.9 18s15.8-7.1 15.8-17.9z"/><path d="m176 56.5v-.2c0-18.7 15.1-33.9 35.4-33.9 20.2 0 35.1 14.9 35.1 33.7v.2c0 18.7-15.1 33.9-35.4 33.9-20.2 0-35.1-15-35.1-33.7zm52.2 0v-.2c0-9.6-6.9-18-17.1-18-10.6 0-16.9 8.1-16.9 17.7v.2c0 9.6 6.9 18 17.1 18 10.6 0 16.9-8.1 16.9-17.7z"/><path d="m252.9 70.2v-30.8h-7.8v-15.8h7.8v-16.7h18.5v16.6h15.3v15.8h-15.3v27.8c0 4.3 1.8 6.3 6 6.3 3.4 0 6.4-.9 9.1-2.3v14.9c-3.9 2.3-8.4 3.8-14.6 3.8-11.4 0-19-4.5-19-19.6z"/><path d="m288.9 46.4v-.2c0-24.2 18.2-44 44.3-44 16 0 25.6 5.3 33.5 13.1l-11.8 13.7c-6.6-6-13.2-9.6-21.8-9.6-14.3 0-24.7 11.9-24.7 26.5v.2c0 14.6 10.1 26.7 24.7 26.7 9.7 0 15.7-3.9 22.4-10l11.9 12c-8.7 9.4-18.5 15.2-34.9 15.2-25 .2-43.6-19.2-43.6-43.6z"/><path d="m364.8 56.5v-.2c0-18.7 15.1-33.9 35.4-33.9 20.2 0 35.1 14.9 35.1 33.7v.2c0 18.7-15.1 33.9-35.4 33.9-20.2 0-35.1-15-35.1-33.7zm52.2 0v-.2c0-9.6-6.9-18-17.1-18-10.6 0-16.9 8.1-16.9 17.7v.2c0 9.6 6.9 18 17.1 18 10.6 0 16.9-8.1 16.9-17.7z"/><path d="m428.4 23.6h19.6l14.6 43.6 14.7-43.6h19.2l-25.6 65.6h-16.8z"/><path d="m489.9 56.5v-.2c0-18.6 13.2-33.9 32.2-33.9 21.7 0 31.7 16.9 31.7 35.4 0 1.5-.1 3.2-.2 4.9h-45.3c1.8 8.4 7.7 12.8 15.9 12.8 6.2 0 10.7-1.9 15.8-6.7l10.6 9.4c-6.1 7.5-14.8 12.2-26.6 12.2-19.6-.2-34.1-14-34.1-33.9zm45.9-5.5c-1.1-8.3-6-13.9-13.7-13.9s-12.6 5.5-14.1 13.9z"/><path d="m556.6 23.6h18.5v13.1c3.8-9 9.8-14.8 20.8-14.3v19.3h-1c-12.3 0-19.8 7.4-19.8 23v24.1h-18.5z"/><path d="m0 4.1h85v85h-85z"/><g fill="#fff"><path d="m8 14.7h8.3c6.7 0 11.3 4.6 11.3 10.6v.1c0 6-4.6 10.6-11.3 10.6h-8.3zm4.6 4.2v12.8h3.6c3.8 0 6.4-2.6 6.4-6.3v-.1c0-3.8-2.6-6.4-6.4-6.4z"/><path d="m29.4 25.4c0-6.1 4.6-11.1 11.1-11.1 4 0 6.4 1.3 8.4 3.3l-3 3.4c-1.6-1.5-3.3-2.4-5.5-2.4-3.6 0-6.2 3-6.2 6.6v.1c0 3.7 2.5 6.7 6.2 6.7 2.4 0 3.9-1 5.6-2.5l3 3c-2.2 2.3-4.6 3.8-8.7 3.8-6.3.1-10.9-4.7-10.9-10.9"/><path d="m8 73.2h31.9v5.3h-31.9z"/></g></svg>