<svg xmlns="http://www.w3.org/2000/svg" width="64" height="64" fill="none" viewBox="0 0 64 64">
  <defs>
    <linearGradient id="a" x1="56.3294" x2="2.87438" y1="-.391251" y2="24.3925" gradientUnits="userSpaceOnUse">
      <stop offset=".18" stop-color="#6B57FF"/>
      <stop offset=".54" stop-color="#FF45ED"/>
    </linearGradient>
    <linearGradient id="b" x1="4.0675" x2="62.6638" y1="4.32641" y2="62.9227" gradientUnits="userSpaceOnUse">
      <stop offset=".12" stop-color="#FF45ED"/>
      <stop offset=".92" stop-color="#FC801D"/>
    </linearGradient>
  </defs>
  <path fill="#6B57FF" d="M58 16.4462V4.18741C58 1.88366 56.1131.026165 53.8094.06304L42.7663.23929c-1.1813.01875-2.2975.543125-3.0663 1.44L6.99312 39.8374C6.3525 40.5849 6 41.5374 6 42.5218v11.3494c0 2.2781 1.84687 4.125 4.125 4.125h11.0031c1.1894 0 2.3213-.5138 3.1044-1.4088l32.7469-37.425C57.6375 18.4105 58 17.4455 58 16.4462Z"/>
  <path fill="url(#a)" d="M58 14.9875V4.125C58 1.84687 56.1531 0 53.875 0H41.3094c-.2 0-.4.014375-.5981.04375L3.52688 5.49188C1.50125 5.78875 0 7.52625 0 9.57312V24.9706c0 2.2788 1.8475 4.1256 4.12625 4.125l18.50435-.0044c.4256 0 .8488-.0662 1.2538-.1956L55.13 18.9169c1.7094-.5463 2.87-2.135 2.87-3.9294Z"/>
  <path fill="url(#b)" d="M64 59.8777V25.7502c0-1.6582-.9931-3.155-2.5206-3.8L24.0581 6.15266c-.5181-.21875-1.0756-.32937-1.6381-.32437l-18.32875.15C1.82625 5.99641 0 7.83766 0 10.1027v17.6656c0 .8056.235625 1.5931.678125 2.2662L21.7869 62.1439c.7625 1.1606 2.0581 1.8588 3.4468 1.8588H59.875c2.2781 0 4.125-1.8469 4.125-4.125Z"/>
  <path fill="#000" d="M52 12H12v40h40V12Z"/>
  <path fill="#fff" d="M33 44H17v3h16v-3Z"/>
  <path fill="#fff" d="M16.9961 16.9922h5.7131c1.4219 0 2.6956.3212 3.8213.9644 1.1256.6431 2.0062 1.5343 2.6425 2.6743.6356 1.14.9537 2.4275.9537 3.8644 0 1.4369-.3181 2.7244-.9537 3.8644-.6363 1.14-1.5169 2.0312-2.6425 2.6744-1.1257.6431-2.3994.9643-3.8213.9643h-5.7131V16.9922Zm8.0281 11.8762c.6719-.4 1.19-.9737 1.5544-1.7206.3644-.7469.5469-1.6306.5469-2.6531 0-1.0225-.1825-1.9063-.5469-2.6531-.3644-.7469-.8825-1.32-1.5544-1.7207-.6719-.4-1.4544-.6-2.3475-.6h-2.755v9.9469h2.755c.8931 0 1.6756-.2 2.3475-.6v.0006Z"/>
  <path fill="#fff" d="M35.4105 31.2425c-1.165-.675-2.0793-1.6044-2.7437-2.7869-.6644-1.1825-.9969-2.5025-.9969-3.9606s.3325-2.7781.9969-3.9606 1.5794-2.1119 2.7437-2.7869c1.1644-.675 2.465-1.0131 3.9019-1.0131 1.215 0 2.3294.225 3.3444.675 1.0144.45 1.8594 1.0806 2.535 1.8919.675.8112 1.1275 1.7418 1.3562 2.7925h-3.0656c-.2-.5432-.4981-1.02-.895-1.4313-.3969-.4106-.8737-.7269-1.4312-.9487-.5575-.2213-1.165-.3325-1.8225-.3325-.8863 0-1.6863.2212-2.4013.6643-.7144.4432-1.2737 1.0525-1.6775 1.8275-.4037.7757-.6056 1.6488-.6056 2.6206 0 .9719.2019 1.8457.6056 2.6207.4038.7756.9631 1.3844 1.6775 1.8275.7144.4431 1.515.6644 2.4013.6644.6575 0 1.265-.1107 1.8225-.3325.5575-.2213 1.0343-.5375 1.4312-.9488.3969-.4106.695-.8881.895-1.4313h3.0656c-.2287 1.0507-.6806 1.9813-1.3562 2.7926-.675.8112-1.5206 1.4418-2.535 1.8918-1.015.45-2.1294.675-3.3444.675-1.4362 0-2.7369-.3375-3.9019-1.0131v.0025Z"/>
</svg>
