<?xml version="1.0" encoding="utf-8"?>
<!-- Generator: Adobe Illustrator 19.1.0, SVG Export Plug-In . SVG Version: 6.00 Build 0)  -->
<svg version="1.1" xmlns="http://www.w3.org/2000/svg" xmlns:xlink="http://www.w3.org/1999/xlink" x="0px" y="0px"
	 width="595.9px" height="90.2px" viewBox="0 0 595.9 90.2" style="enable-background:new 0 0 595.9 90.2;" xml:space="preserve">
<g>
	<g>
		<g>
			<path d="M105.6,56.3V56c0-21.7,14.2-33.7,29.6-33.7c9.8,0,15.9,4.5,20.3,9.7V0H174v88.7h-18.5v-9.4
				c-4.5,6.1-10.7,10.6-20.3,10.6C120.1,89.9,105.6,78,105.6,56.3z M155.8,56.3V56c0-10.8-7.2-18-15.8-18s-15.9,7-15.9,18v0.2
				c0,10.8,7.3,18,15.9,18S155.8,67.1,155.8,56.3z"/>
			<path d="M176,56.5v-0.2c0-18.7,15.1-33.9,35.4-33.9c20.2,0,35.1,14.9,35.1,33.7v0.2
				c0,18.7-15.1,33.9-35.4,33.9C190.9,90.2,176,75.2,176,56.5z M228.2,56.5v-0.2c0-9.6-6.9-18-17.1-18c-10.6,0-16.9,8.1-16.9,17.7
				v0.2c0,9.6,6.9,18,17.1,18C221.9,74.2,228.2,66.1,228.2,56.5z"/>
			<path d="M252.9,70.2V39.4h-7.8V23.6h7.8V6.9h18.5v16.6h15.3v15.8h-15.3v27.8c0,4.3,1.8,6.3,6,6.3
				c3.4,0,6.4-0.9,9.1-2.3V86c-3.9,2.3-8.4,3.8-14.6,3.8C260.5,89.8,252.9,85.3,252.9,70.2z"/>
			<path d="M288.9,46.4v-0.2c0-24.2,18.2-44,44.3-44c16,0,25.6,5.3,33.5,13.1L354.9,29
				c-6.6-6-13.2-9.6-21.8-9.6c-14.3,0-24.7,11.9-24.7,26.5v0.2c0,14.6,10.1,26.7,24.7,26.7c9.7,0,15.7-3.9,22.4-10l11.9,12
				c-8.7,9.4-18.5,15.2-34.9,15.2C307.5,90.2,288.9,70.8,288.9,46.4z"/>
			<path d="M364.8,56.5v-0.2c0-18.7,15.1-33.9,35.4-33.9c20.2,0,35.1,14.9,35.1,33.7v0.2
				c0,18.7-15.1,33.9-35.4,33.9C379.7,90.2,364.8,75.2,364.8,56.5z M417,56.5v-0.2c0-9.6-6.9-18-17.1-18c-10.6,0-16.9,8.1-16.9,17.7
				v0.2c0,9.6,6.9,18,17.1,18C410.7,74.2,417,66.1,417,56.5z"/>
			<path d="M428.4,23.6H448l14.6,43.6l14.7-43.6h19.2l-25.6,65.6h-16.8L428.4,23.6z"/>
			<path d="M489.9,56.5v-0.2c0-18.6,13.2-33.9,32.2-33.9c21.7,0,31.7,16.9,31.7,35.4c0,1.5-0.1,3.2-0.2,4.9
				h-45.3c1.8,8.4,7.7,12.8,15.9,12.8c6.2,0,10.7-1.9,15.8-6.7l10.6,9.4c-6.1,7.5-14.8,12.2-26.6,12.2
				C504.4,90.2,489.9,76.4,489.9,56.5z M535.8,51c-1.1-8.3-6-13.9-13.7-13.9c-7.7,0-12.6,5.5-14.1,13.9H535.8z"/>
			<path d="M556.6,23.6h18.5v13.1c3.8-9,9.8-14.8,20.8-14.3v19.3h-1c-12.3,0-19.8,7.4-19.8,23v24.1h-18.5
				V23.6z"/>
		</g>
	</g>
	<g>
		<rect x="0" y="4.1" style="fill:#000000;" width="85" height="85"/>
		<path style="fill:#FFFFFF;" d="M8,14.7h8.3c6.7,0,11.3,4.6,11.3,10.6v0.1c0,6-4.6,10.6-11.3,10.6H8V14.7z M12.6,18.9v12.8h3.6
			c3.8,0,6.4-2.6,6.4-6.3v-0.1c0-3.8-2.6-6.4-6.4-6.4H12.6z"/>
		<path style="fill:#FFFFFF;" d="M29.4,25.4L29.4,25.4c0-6.1,4.6-11.1,11.1-11.1c4,0,6.4,1.3,8.4,3.3l-3,3.4
			c-1.6-1.5-3.3-2.4-5.5-2.4c-3.6,0-6.2,3-6.2,6.6v0.1c0,3.7,2.5,6.7,6.2,6.7c2.4,0,3.9-1,5.6-2.5l3,3c-2.2,2.3-4.6,3.8-8.7,3.8
			C34,36.4,29.4,31.6,29.4,25.4"/>
		<rect x="8" y="73.2" style="fill:#FFFFFF;" width="31.9" height="5.3"/>
	</g>
</g>
</svg>
