<svg enable-background="new 0 0 70 70" height="70" viewBox="0 0 70 70" width="70" xmlns="http://www.w3.org/2000/svg" xmlns:xlink="http://www.w3.org/1999/xlink"><linearGradient id="a" gradientUnits="userSpaceOnUse" x1="37.049" x2="23.5584" y1="55.637" y2="5.4222"><stop offset=".0483871" stop-color="#7866ff"/><stop offset=".135" stop-color="#8265fa"/><stop offset=".2807" stop-color="#9c64ee"/><stop offset=".4665" stop-color="#c661d9"/><stop offset=".6075" stop-color="#eb5fc7"/><stop offset=".7292" stop-color="#fa6398"/><stop offset=".7688" stop-color="#ff6488"/><stop offset=".9946" stop-color="#ff7500"/></linearGradient><linearGradient id="b" gradientUnits="userSpaceOnUse" x1="69.1096" x2="57.1689" y1="50.4511" y2="46.1321"><stop offset=".2473" stop-color="#7866ff"/><stop offset=".3461" stop-color="#8f5ffa"/><stop offset=".5314" stop-color="#b353f1"/><stop offset=".7045" stop-color="#cd4aeb"/><stop offset=".859" stop-color="#dd45e7"/><stop offset=".9793" stop-color="#e343e6"/></linearGradient><linearGradient id="c" gradientUnits="userSpaceOnUse" x1="57.0116" x2="23.73" y1="46.8403" y2="32.8671"><stop offset=".006215526" stop-color="#e343e6"/><stop offset=".06426319" stop-color="#e649ca"/><stop offset=".1899" stop-color="#ef5982"/><stop offset=".3724" stop-color="#fd7110"/><stop offset=".3978" stop-color="#ff7500"/></linearGradient><path d="m42.8 0-42.8 4.8v22l10.7 35.8 53.9-13.7z" fill="url(#a)"/><path d="m70 41.3-4.1-19.1-9.2 12.7-6.4 19.3-2.1 15.8 15.8-10z" fill="url(#b)"/><path d="m65.9 22.2-13.4-6.4-15.7 1.4-15.4 10.7-3.1 19.2 13.5 18.4 16.4 4.5z" fill="url(#c)"/><path d="m13.4 13.4h43.2v43.2h-43.2z"/><g fill="#fff"><path d="m17.5 19.1h7c5.6 0 9.5 3.9 9.5 8.9v.1c0 5-3.9 8.9-9.5 8.9h-7zm3.9 3.6v10.8h3c3.2 0 5.4-2.2 5.4-5.3v-.1c0-3.2-2.2-5.4-5.4-5.4z"/><path d="m17.5 48.5h16.2v2.7h-16.2z"/><path d="m35.4 28.1c0-5.1 3.8-9.3 9.3-9.3 3.4 0 5.4 1.1 7.1 2.8l-2.5 2.9c-1.4-1.3-2.8-2-4.6-2-3 0-5.2 2.5-5.2 5.6v.1c0 3.1 2.1 5.6 5.2 5.6 2 0 3.3-.8 4.7-2.1l2.5 2.5c-1.8 2-3.9 3.2-7.3 3.2-5.2-.1-9.2-4.1-9.2-9.3"/></g></svg>