<svg xmlns="http://www.w3.org/2000/svg" width="267" height="64" fill="none" viewBox="0 0 267 64">
  <defs>
    <linearGradient id="a" x1="56.3352" x2="2.88024" y1="-.391251" y2="24.3925" gradientUnits="userSpaceOnUse">
      <stop offset=".18" stop-color="#6B57FF"/>
      <stop offset=".54" stop-color="#FF45ED"/>
    </linearGradient>
    <linearGradient id="b" x1="4.07336" x2="62.6696" y1="4.32641" y2="62.9227" gradientUnits="userSpaceOnUse">
      <stop offset=".12" stop-color="#FF45ED"/>
      <stop offset=".92" stop-color="#FC801D"/>
    </linearGradient>
  </defs>
  <path fill="#000" d="M100.62 28.33c-.71-1.07-1.61-1.95-2.71-2.59-1.36-.8-2.95-1.2-4.76-1.2-1.96 0-3.7.49-5.23 1.47-1.53.98-2.74 2.34-3.61 4.09-.87 1.75-1.31 3.72-1.31 5.92 0 2.2.44 4.17 1.31 5.92.87 1.75 2.08 3.11 3.62 4.09s3.28 1.47 5.22 1.47c1.81 0 3.4-.4 4.76-1.2 1.1-.65 2-1.52 2.71-2.59v3.28h5.05V17.03h-5.05v11.32-.02Zm-.79 11.31c-.53 1.05-1.26 1.87-2.21 2.46-.94.59-2.03.89-3.25.89-1.22 0-2.27-.29-3.21-.88-.94-.58-1.67-1.4-2.19-2.46s-.78-2.27-.78-3.64.26-2.58.78-3.63c.52-1.05 1.25-1.87 2.19-2.46.94-.59 2.01-.89 3.21-.89 1.2 0 2.31.3 3.25.89.94.59 1.68 1.41 2.21 2.46s.79 2.26.79 3.63-.26 2.58-.79 3.63Zm26.91-13.61c-1.75-1-3.71-1.5-5.86-1.5-2.15 0-4.13.5-5.9 1.5-1.76 1-3.14 2.37-4.14 4.12-1 1.75-1.5 3.7-1.5 5.85 0 2.15.5 4.11 1.51 5.85 1.01 1.75 2.39 3.12 4.14 4.12 1.75 1 3.71 1.5 5.86 1.5 2.15 0 4.13-.5 5.89-1.5 1.76-1 3.13-2.37 4.14-4.12 1.01-1.75 1.51-3.7 1.51-5.85 0-2.15-.5-4.11-1.51-5.85-1.01-1.75-2.39-3.12-4.14-4.12Zm-.39 13.59c-.52 1.06-1.26 1.88-2.21 2.46-.95.58-2.05.88-3.27.88-1.22 0-2.32-.29-3.26-.88-.95-.58-1.68-1.41-2.2-2.46-.52-1.06-.78-2.26-.78-3.62 0-1.36.26-2.58.78-3.64s1.25-1.88 2.2-2.46c.95-.58 2.04-.88 3.26-.88 1.22 0 2.31.3 3.26.89.95.59 1.69 1.41 2.21 2.46.53 1.05.79 2.26.79 3.63s-.26 2.56-.78 3.62Zm15.88-19.92h-4.71v3.55c0 .53-.16.96-.49 1.29-.33.33-.76.5-1.31.5h-2.4l-.02 4.39h3.85l.02 11.71c0 1.11.26 2.11.78 3 .52.88 1.25 1.58 2.18 2.08.93.5 1.99.75 3.16.75h4.73v-4.39h-3.72c-.6 0-1.09-.2-1.49-.59-.39-.39-.59-.89-.59-1.49l-.02-11.06h5.82l.02-4.39h-5.82V19.7h.01Zm18.6 3.01c1.49-.92 3.16-1.38 5-1.38 1.36 0 2.62.23 3.78.69 1.16.46 2.16 1.11 3 1.97.83.86 1.46 1.85 1.87 3h5.61c-.49-2.05-1.39-3.88-2.73-5.47-1.34-1.59-3-2.83-5-3.7-2-.88-4.19-1.32-6.57-1.32-2.85 0-5.43.67-7.74 2.02-2.3 1.35-4.12 3.2-5.44 5.56-1.32 2.36-1.98 5-1.98 7.91s.66 5.55 1.98 7.91c1.32 2.36 3.13 4.22 5.44 5.56 2.3 1.35 4.88 2.02 7.74 2.02 2.38 0 4.57-.44 6.57-1.32 2-.88 3.66-2.11 5-3.7 1.34-1.59 2.24-3.41 2.73-5.47h-5.61c-.41 1.14-1.04 2.14-1.87 3-.83.86-1.83 1.51-3 1.97-1.16.46-2.42.68-3.78.68-1.84 0-3.51-.46-5-1.38-1.49-.92-2.66-2.19-3.5-3.81-.84-1.62-1.26-3.44-1.26-5.47s.42-3.85 1.26-5.47c.84-1.62 2.01-2.89 3.5-3.81v.01Zm39.23 3.32c-1.75-1-3.71-1.5-5.86-1.5-2.15 0-4.13.5-5.9 1.5-1.76 1-3.14 2.37-4.14 4.12-1 1.75-1.5 3.7-1.5 5.85 0 2.15.5 4.11 1.51 5.85 1.01 1.75 2.39 3.12 4.14 4.12 1.75 1 3.71 1.5 5.86 1.5 2.15 0 4.13-.5 5.88-1.5s3.14-2.37 4.14-4.12c1.01-1.75 1.51-3.7 1.51-5.85 0-2.15-.5-4.11-1.51-5.85-1.01-1.75-2.39-3.12-4.14-4.12h.01Zm-.39 13.59c-.52 1.06-1.26 1.88-2.21 2.46-.96.58-2.05.88-3.27.88-1.22 0-2.32-.29-3.26-.88-.95-.58-1.68-1.41-2.2-2.46-.52-1.06-.78-2.26-.78-3.62 0-1.36.26-2.58.78-3.64s1.26-1.88 2.2-2.46c.95-.58 2.04-.88 3.26-.88 1.22 0 2.31.3 3.26.89.95.59 1.69 1.41 2.21 2.46.53 1.05.79 2.26.79 3.63s-.26 2.56-.78 3.62Zm17.39.95-5.71-15.52h-5.37l8.45 21.92h4.99l8.37-21.92h-5.22l-5.5 15.52h-.01Zm28.1-14.58c-1.68-.97-3.6-1.46-5.76-1.46-2.16 0-4.03.5-5.77 1.49-1.73.99-3.1 2.36-4.1 4.1-1 1.74-1.5 3.69-1.5 5.84s.5 4.17 1.49 5.93c.99 1.75 2.35 3.12 4.07 4.11 1.72.98 3.66 1.48 5.81 1.48 1.7 0 3.25-.26 4.64-.79 1.4-.53 2.59-1.28 3.57-2.25s1.73-2.13 2.25-3.49h-5.5c-.56.74-1.26 1.32-2.1 1.73-.84.41-1.79.62-2.85.62-1.2 0-2.27-.29-3.22-.88-.95-.58-1.69-1.4-2.23-2.45-.43-.83-.68-1.76-.78-2.77h17.29v-1.22c0-2.23-.47-4.21-1.4-5.94-.93-1.73-2.24-3.08-3.93-4.06l.02.01Zm-11.88 7.83c.13-.72.34-1.4.67-2.02.54-1.02 1.28-1.82 2.23-2.4.95-.58 2.02-.87 3.22-.87 1.2 0 2.26.3 3.18.9.92.6 1.63 1.43 2.13 2.49.28.59.47 1.22.59 1.89h-12.02v.01Zm32.08-8.92c-1.55 0-2.92.4-4.09 1.21-.83.57-1.53 1.33-2.1 2.26v-3.32h-5.01v21.92h5.05V35.14c0-1.06.22-1.97.67-2.74.45-.77 1.09-1.36 1.93-1.78.83-.41 1.82-.62 2.94-.62h1.41v-5.09h-.81l.01-.01Z"/>
  <path fill="#6B57FF" d="M58.0059 16.4462V4.18741c0-2.30375-1.8869-4.161245-4.1907-4.12437L42.7721.23929c-1.1812.01875-2.2975.543125-3.0662 1.44L6.99898 39.8374c-.64062.7475-.99312 1.7-.99312 2.6844v11.3494c0 2.2781 1.84687 4.125 4.12504 4.125H21.134c1.1894 0 2.3212-.5138 3.1044-1.4088l32.7468-37.425c.6582-.7519 1.0207-1.7169 1.0207-2.7162Z"/>
  <path fill="url(#a)" d="M58.0059 14.9875V4.125c0-2.27813-1.8469-4.125-4.125-4.125H41.3152c-.2 0-.4.014375-.5981.04375L3.53273 5.49188C1.50711 5.78875.00586 7.52625.00586 9.57312V24.9706c0 2.2788 1.8475 4.1256 4.12625 4.125l18.50439-.0044c.4256 0 .8487-.0662 1.2537-.1956l31.2457-9.9787c1.7093-.5463 2.87-2.135 2.87-3.9294Z"/>
  <path fill="url(#b)" d="M64.0059 59.8777V25.7502c0-1.6582-.9932-3.155-2.5207-3.8L24.064 6.15266c-.5181-.21875-1.0756-.32937-1.6381-.32437l-18.32879.15C1.83211 5.99641.00586 7.83766.00586 10.1027v17.6656c0 .8056.235624 1.5931.678124 2.2662L21.7927 62.1439c.7625 1.1606 2.0582 1.8588 3.4469 1.8588h34.6413c2.2781 0 4.125-1.8469 4.125-4.125Z"/>
  <path fill="#000" d="M52.0059 12h-40v40h40V12Z"/>
  <path fill="#fff" d="M32.6667 28.4556c.6644 1.1825 1.5788 2.1119 2.7438 2.7869V31.24c1.165.6756 2.4656 1.0131 3.9018 1.0131 1.215 0 2.3294-.225 3.3444-.675 1.0144-.45 1.86-1.0806 2.535-1.8919.6756-.8112 1.1275-1.7418 1.3563-2.7924h-3.0657c-.2.5431-.4981 1.0206-.895 1.4312-.3968.4113-.8737.7275-1.4312.9488-.5575.2218-1.165.3324-1.8225.3324-.8863 0-1.6869-.2212-2.4013-.6643-.7143-.4432-1.2737-1.0519-1.6775-1.8275-.4037-.775-.6056-1.6488-.6056-2.6206 0-.9719.2019-1.845.6056-2.6207.4038-.775.9632-1.3843 1.6775-1.8275.715-.4431 1.515-.6644 2.4013-.6644.6575 0 1.265.1113 1.8225.3326.5575.2218 1.0344.5381 1.4312.9487.3969.4112.695.8881.895 1.4313h3.0657c-.2288-1.0507-.6813-1.9813-1.3563-2.7925-.6756-.8113-1.5206-1.4419-2.535-1.8919-1.015-.45-2.1294-.675-3.3444-.675-1.4368 0-2.7375.3381-3.9018 1.0131-1.1644.675-2.0794 1.6044-2.7438 2.7869-.6644 1.1825-.9969 2.5025-.9969 3.9606s.3325 2.7781.9969 3.9606Z"/>
  <path fill="#fff" fill-rule="evenodd" d="M16.9961 16.9919h5.7131c1.4219 0 2.6956.3212 3.8213.9643 1.1256.6432 2.0062 1.5344 2.6425 2.6744.6356 1.14.9537 2.4275.9537 3.8644 0 1.4369-.3181 2.7244-.9537 3.8644-.6363 1.14-1.5169 2.0312-2.6425 2.6744-1.1257.6431-2.3994.9643-3.8213.9643h-5.7131V16.9919Zm8.0281 11.8762c.6719-.4 1.19-.9737 1.5544-1.7206.3644-.7469.5469-1.6306.5469-2.6531 0-1.0225-.1825-1.9063-.5469-2.6532-.3644-.7468-.8825-1.32-1.5544-1.7206-.6719-.4-1.4544-.6-2.3475-.6h-2.755v9.9469h2.755c.8931 0 1.6756-.1994 2.3475-.5994Z" clip-rule="evenodd"/>
  <path fill="#fff" d="M32.999 43.9982h-16v3h16v-3Z"/>
</svg>
