<svg xmlns="http://www.w3.org/2000/svg" width="128" height="128" fill="none" viewBox="0 0 128 128">
  <defs>
    <linearGradient id="a" x1="112.659" x2="5.74875" y1="-.782502" y2="48.785" gradientUnits="userSpaceOnUse">
      <stop offset=".18" stop-color="#6B57FF"/>
      <stop offset=".54" stop-color="#FF45ED"/>
    </linearGradient>
    <linearGradient id="b" x1="8.135" x2="125.328" y1="8.64501" y2="125.838" gradientUnits="userSpaceOnUse">
      <stop offset=".12" stop-color="#FF45ED"/>
      <stop offset=".92" stop-color="#FC801D"/>
    </linearGradient>
  </defs>
  <path fill="#6B57FF" d="M116 32.9001V8.38264c0-4.6075-3.774-8.322498-8.381-8.248748l-22.0865.3525C83.17.523892 80.9375 1.57264 79.4 3.36639L13.9862 79.6826C12.705 81.1776 12 83.0826 12 85.0514V107.75c0 4.556 3.6937 8.25 8.25 8.25h22.0062c2.3788 0 4.6426-1.027 6.2088-2.817l65.494-74.8504c1.316-1.5037 2.041-3.4337 2.041-5.4325Z"/>
  <path fill="url(#a)" d="M116 29.975V8.25c0-4.55625-3.694-8.25-8.25-8.25H82.6188c-.4 0-.8.02875-1.1963.0875L7.05375 10.9838C3.0025 11.5775 0 15.0525 0 19.1462v30.795c0 4.5575 3.695 8.2513 8.2525 8.25l37.0087-.0087c.8513 0 1.6975-.1325 2.5075-.3913L110.26 37.8338c3.419-1.0925 5.74-4.27 5.74-7.8588Z"/>
  <path fill="url(#b)" d="M128 119.748V51.4925c0-3.3162-1.986-6.31-5.041-7.6l-74.8428-31.595c-1.0362-.4375-2.1512-.6587-3.2762-.6487l-36.6575.3C3.6525 11.985 0 15.6675 0 20.1975v35.3313c0 1.6112.47125 3.1862 1.35625 4.5325L43.5737 124.28c1.525 2.321 4.1163 3.718 6.8938 3.718H119.75c4.556 0 8.25-3.694 8.25-8.25Z"/>
  <path fill="#000" d="M104 24H24v80h80V24Z"/>
  <path fill="#fff" d="M66 88H34v6h32v-6Z"/>
  <path fill="#fff" d="M33.9941 33.9844h11.4263c2.8437 0 5.3912.6425 7.6425 1.9287 2.2512 1.2863 4.0125 3.0688 5.285 5.3488 1.2712 2.28 1.9075 4.855 1.9075 7.7287 0 2.8738-.6363 5.4488-1.9075 7.7288-1.2725 2.28-3.0338 4.0625-5.285 5.3487-2.2513 1.2863-4.7988 1.9288-7.6425 1.9288H33.9941V33.9844Zm16.0563 23.7525c1.3437-.8 2.38-1.9475 3.1087-3.4413.7288-1.4937 1.0938-3.2612 1.0938-5.3062 0-2.045-.365-3.8125-1.0938-5.3063-.7287-1.4937-1.765-2.64-3.1087-3.4412-1.3438-.8-2.9088-1.2-4.695-1.2h-5.51v19.8937h5.51c1.7862 0 3.3512-.4 4.695-1.2v.0013Z"/>
  <path fill="#fff" d="M70.823 62.485c-2.33-1.35-4.1587-3.2087-5.4875-5.5737-1.3287-2.365-1.9937-5.005-1.9937-7.9213 0-2.9162.665-5.5563 1.9937-7.9213 1.3288-2.365 3.1588-4.2237 5.4875-5.5737 2.3288-1.35 4.93-2.0262 7.8038-2.0262 2.43 0 4.6587.4499 6.6887 1.3499 2.0288.9 3.7188 2.1613 5.07 3.7838 1.35 1.6225 2.255 3.4838 2.7125 5.585h-6.1312c-.4-1.0862-.9963-2.04-1.79-2.8625-.7938-.8212-1.7475-1.4537-2.8625-1.8975-1.115-.4425-2.33-.665-3.645-.665-1.7725 0-3.3725.4425-4.8025 1.3288-1.4288.8862-2.5475 2.105-3.355 3.655-.8075 1.5512-1.2113 3.2974-1.2113 5.2412 0 1.9437.4038 3.6912 1.2113 5.2412.8075 1.5513 1.9262 2.7688 3.355 3.6551 1.4287.8862 3.03 1.3287 4.8025 1.3287 1.315 0 2.53-.2212 3.645-.665 1.115-.4425 2.0687-1.075 2.8625-1.8975.7937-.8212 1.39-1.7763 1.79-2.8625h6.1312c-.4575 2.1012-1.3612 3.9625-2.7125 5.585-1.35 1.6225-3.0412 2.8838-5.07 3.7837-2.03.9-4.2587 1.3501-6.6887 1.3501-2.8725 0-5.4738-.6751-7.8038-2.0263v.005Z"/>
</svg>
