<svg xmlns="http://www.w3.org/2000/svg" width="630" height="91" fill="none" viewBox="0 0 630 91">
  <path fill="#000" d="M114.729 56.6603V56.4049C114.729 34.6225 128.92 22.7025 144.416 22.7025C148.328 22.6227 152.205 23.4619 155.734 25.1526C159.264 26.8433 162.347 29.3383 164.737 32.4371V0.380859H183.184V89.1565H164.737V79.8475C160.238 85.9352 154.037 90.4336 144.416 90.4336C129.204 90.3627 114.729 78.4285 114.729 56.6603V56.6603ZM164.992 56.6603V56.4049C164.992 45.5775 157.812 38.3971 149.17 38.3971C140.528 38.3971 133.22 45.4924 133.22 56.4049V56.6603C133.22 67.4876 140.528 74.668 149.17 74.668C157.812 74.668 164.992 67.4876 164.992 56.6603Z"/>
  <path fill="#000" d="M190.592 56.9017V56.6604C190.592 37.9148 205.69 22.7026 226.068 22.7026C246.446 22.7026 261.246 37.6736 261.246 56.405V56.6604C261.246 75.3919 246.148 90.6041 225.77 90.6041C205.392 90.6041 190.592 75.5905 190.592 56.9017ZM242.926 56.9017V56.6604C242.926 47.0393 235.987 38.6385 225.77 38.6385C215.184 38.6385 208.855 46.7981 208.855 56.405V56.6604C208.855 66.2674 215.794 74.6682 226.011 74.6682C236.597 74.6682 242.926 66.5086 242.926 56.9017Z"/>
  <path fill="#000" d="M271.591 70.6521V39.7452H263.8V23.9228H271.591V7.24902H290.038V23.9228H305.364V39.7452H290.124V67.6011C290.124 71.8583 291.94 73.9301 296.084 73.9301C299.27 73.9427 302.408 73.1521 305.208 71.6312V86.4745C300.793 89.0809 295.732 90.3892 290.606 90.2491C279.254 90.2491 271.591 85.7365 271.591 70.6521V70.6521Z"/>
  <path fill="#000" d="M311.722 46.7981V46.5569C311.722 22.3337 329.985 2.56641 356.152 2.56641C372.216 2.56641 381.823 7.9304 389.741 15.7068L377.807 29.4715C371.237 23.4974 364.553 19.8504 356.024 19.8504C341.664 19.8504 331.319 31.7846 331.319 46.3866V46.6278C331.319 61.2298 341.422 73.4053 356.024 73.4053C365.759 73.4053 371.733 69.5029 378.417 63.4719L390.351 75.5196C381.581 84.8995 371.904 90.7318 355.414 90.7318C330.354 90.6041 311.722 71.3335 311.722 46.7981V46.7981Z"/>
  <path fill="#000" d="M390.876 56.9017V56.6604C390.876 37.9148 405.975 22.7026 426.352 22.7026C446.73 22.7026 461.516 37.6736 461.516 56.405V56.6604C461.516 75.3919 446.432 90.6041 426.111 90.6041C405.79 90.6041 390.876 75.5905 390.876 56.9017ZM443.21 56.9017V56.6604C443.21 47.0393 436.271 38.6385 426.054 38.6385C415.454 38.6385 409.139 46.7981 409.139 56.405V56.6604C409.139 66.2674 416.064 74.6682 426.295 74.6682C436.938 74.6682 443.267 66.5086 443.267 56.9017H443.21Z"/>
  <path fill="#000" d="M457.245 23.9229H476.842L491.444 67.6011L506.174 23.9229H525.402L499.717 89.6389H482.916L457.245 23.9229Z"/>
  <path fill="#000" d="M521.429 56.9017V56.6604C521.429 38.0425 534.697 22.7026 553.684 22.7026C575.466 22.7026 585.442 39.6177 585.442 58.1788C585.442 59.5979 585.328 61.3433 585.201 63.0462H539.791C541.622 71.4327 547.468 75.8176 555.741 75.8176C561.943 75.8176 566.455 73.8735 571.564 69.1197L582.093 78.4286C576.005 85.978 567.25 90.5899 555.443 90.5899C535.846 90.6041 521.429 76.8535 521.429 56.9017ZM567.363 51.4667C566.271 43.1937 561.403 37.5884 553.613 37.5884C545.822 37.5884 540.955 43.066 539.493 51.4667H567.363Z"/>
  <path fill="#000" d="M590.352 23.923H608.799V37.0634C612.56 28.0524 618.647 22.2202 629.603 22.7026V42.0443H628.638C616.334 42.0443 608.771 49.4801 608.771 65.047V89.1708H590.323L590.352 23.923Z"/>
  <path fill="#000" d="M0 4H85V89H0V4Z"/>
  <path fill="#fff" d="M10.543 72.9937H42.4715V78.3151H10.543V72.9937Z"/>
  <path fill="#fff" d="M10.5713 14.4722H23.0589C33.12 14.4722 40.0875 21.3829 40.0875 30.3939V30.4932C40.0875 39.5042 33.1341 46.5001 23.0589 46.5001H10.5713V14.4722ZM17.6665 20.8295V40.1144H23.1157C24.3953 40.1897 25.6764 39.9946 26.8756 39.5418C28.0747 39.0889 29.165 38.3885 30.0754 37.4862C30.9858 36.5838 31.6959 35.4998 32.1593 34.3046C32.6228 33.1095 32.8292 31.8302 32.7652 30.55V30.4648C32.8302 29.1798 32.6252 27.8955 32.1634 26.6945C31.7017 25.4936 30.9934 24.4027 30.0843 23.4923C29.1752 22.5818 28.0853 21.8719 26.8851 21.4084C25.6848 20.9449 24.4008 20.738 23.1157 20.8011L17.6665 20.8295Z"/>
  <path fill="#fff" d="M43.4225 30.7201V30.6349C43.3833 28.4238 43.7927 26.2276 44.6261 24.1791C45.4594 22.1306 46.6994 20.2724 48.2712 18.7166C49.8429 17.1608 51.7137 15.9398 53.7705 15.1273C55.8274 14.3148 58.0276 13.9278 60.2382 13.9895C62.5839 13.8721 64.9278 14.2542 67.1148 15.1104C69.3017 15.9666 71.282 17.2774 72.9245 18.9561L68.4119 24.1499C66.2518 21.9053 63.2955 20.6004 60.1814 20.5171C54.7607 20.5171 50.8583 25.0155 50.8583 30.5356V30.6349C50.8583 36.155 54.6613 40.7527 60.1814 40.7527C63.871 40.7527 66.1131 39.3337 68.6957 36.9781L73.1232 41.5332C71.4955 43.4152 69.4623 44.9038 67.1765 45.887C64.8907 46.8701 62.4117 47.3222 59.926 47.2094C57.7504 47.2438 55.5901 46.841 53.5732 46.0247C51.5562 45.2084 49.7238 43.9953 48.1846 42.4574C46.6453 40.9195 45.4307 39.0881 44.6127 37.0719C43.7946 35.0557 43.3899 32.8957 43.4225 30.7201"/>
</svg>
