<svg enable-background="new 0 0 623.9 108.1" height="108.1" viewBox="0 0 623.9 108.1" width="623.9" xmlns="http://www.w3.org/2000/svg"><path d="m0 3.7h85v85h-85z"/><g fill="#fff"><path d="m7.9 14.3h8.7c5.1 0 8.2 3 8.2 7.4v.1c0 4.9-3.8 7.5-8.6 7.5h-3.6v6.4h-4.7zm8.4 10.7c2.3 0 3.7-1.4 3.7-3.2v-.1c0-2.1-1.5-3.2-3.8-3.2h-3.6v6.5z"/><path d="m26 32.5 2.8-3.3c1.9 1.6 3.9 2.6 6.4 2.6 1.9 0 3.1-.8 3.1-2v-.1c0-1.2-.7-1.8-4.3-2.7-4.3-1.1-7.1-2.3-7.1-6.5v-.1c0-3.9 3.1-6.4 7.5-6.4 3.1 0 5.8 1 7.9 2.7l-2.4 3.5c-1.9-1.3-3.8-2.1-5.6-2.1s-2.8.8-2.8 1.9v.1c0 1.4.9 1.9 4.6 2.8 4.3 1.1 6.8 2.7 6.8 6.4v.1c0 4.2-3.2 6.6-7.8 6.6-3.3 0-6.6-1.2-9.1-3.5"/><path d="m7.9 72.8h31.9v5.3h-31.9z"/></g><path d="m106.1 3.6h34.8c20.3 0 32.6 12 32.6 29.4v.2c0 19.7-15.3 29.9-34.4 29.9h-14.2v25.5h-18.7v-85zm33.5 42.9c9.4 0 14.8-5.6 14.8-12.9v-.2c0-8.4-5.8-12.9-15.2-12.9h-14.5v26z"/><path d="m176.7 0h18.5v32.8c4.3-5.5 9.7-10.4 19.1-10.4 14 0 22.1 9.2 22.1 24.2v42.2h-18.5v-36.4c0-8.7-4.1-13.2-11.2-13.2s-11.5 4.5-11.5 13.2v36.3h-18.5z"/><path d="m240.2 23.6h18.5v9.4c4.5-6.1 10.7-10.6 20.3-10.6 15.2 0 29.6 11.9 29.6 33.7v.2c0 21.7-14.2 33.7-29.6 33.7-9.8 0-15.9-4.5-20.3-9.7v27.9h-18.5zm50 32.7v-.3c0-10.8-7.3-18-15.9-18s-15.8 7.2-15.8 18v.2c0 10.8 7.2 18 15.8 18s15.9-7 15.9-17.9z"/><path d="m305.8 76.3 11.1-13.2c7.7 6.3 15.7 10.3 25.4 10.3 7.7 0 12.3-3 12.3-8v-.2c0-4.7-2.9-7.2-17.1-10.8-17.1-4.4-28.2-9.1-28.2-26v-.2c0-15.4 12.4-25.6 29.8-25.6 12.4 0 23 3.9 31.6 10.8l-9.7 14.1c-7.5-5.2-14.9-8.4-22.1-8.4s-10.9 3.3-10.9 7.4v.2c0 5.6 3.6 7.4 18.3 11.2 17.3 4.5 27 10.7 27 25.5v.2c0 16.9-12.9 26.4-31.2 26.4-13.1-.1-26.1-4.6-36.3-13.7z"/><path d="m377.4 70.2v-30.8h-7.8v-15.8h7.8v-16.7h18.5v16.6h15.3v15.8h-15.3v27.8c0 4.3 1.8 6.3 6 6.3 3.4 0 6.4-.9 9.1-2.3v14.9c-3.9 2.3-8.4 3.8-14.6 3.8-11.3 0-19-4.5-19-19.6z"/><path d="m410 56.5v-.2c0-18.7 15.1-33.9 35.4-33.9 20.2 0 35.1 14.9 35.1 33.7v.2c0 18.7-15.1 33.9-35.4 33.9-20.2 0-35.1-15-35.1-33.7zm52.2 0v-.2c0-9.6-6.9-18-17.1-18-10.6 0-16.9 8.1-16.9 17.7v.2c0 9.6 6.9 18 17.1 18 10.6 0 16.9-8.1 16.9-17.7z"/><path d="m482.9 23.6h18.5v13.1c3.8-9 9.8-14.8 20.8-14.3v19.3h-1c-12.3 0-19.8 7.4-19.8 23v24.1h-18.5z"/><path d="m524.5 23.6h18.5v9.2c4.3-5.5 9.8-10.4 19.2-10.4 8.5 0 14.9 3.8 18.3 10.3 5.7-6.7 12.5-10.3 21.4-10.3 13.7 0 22 8.3 22 23.9v42.4h-18.5v-36.3c0-8.7-3.9-13.2-10.8-13.2s-11.2 4.5-11.2 13.2v36.3h-18.4v-36.3c0-8.7-3.9-13.2-10.8-13.2s-11.2 4.4-11.2 13.2v36.3h-18.5z"/></svg>