<svg xmlns="http://www.w3.org/2000/svg" width="64" height="64" fill="none" viewBox="0 0 64 64">
  <defs>
    <linearGradient id="a" x1="56.3294" x2="2.87438" y1="-.391251" y2="24.3925" gradientUnits="userSpaceOnUse">
      <stop offset=".16" stop-color="#D249FC"/>
      <stop offset=".55" stop-color="#FF2D90"/>
    </linearGradient>
    <linearGradient id="b" x1="4.0675" x2="62.6638" y1="4.32641" y2="62.9227" gradientUnits="userSpaceOnUse">
      <stop offset=".3" stop-color="#FF2D90"/>
      <stop offset=".7" stop-color="#7256FF"/>
    </linearGradient>
  </defs>
  <path fill="#D249FC" d="M58 16.4462V4.18741C58 1.88366 56.1131.026165 53.8094.06304L42.7663.23929c-1.1813.01875-2.2975.543125-3.0663 1.44L6.99312 39.8374C6.3525 40.5849 6 41.5374 6 42.5218v11.3494c0 2.2781 1.84687 4.125 4.125 4.125h11.0031c1.1894 0 2.3213-.5138 3.1044-1.4088l32.7469-37.425C57.6375 18.4105 58 17.4455 58 16.4462Z"/>
  <path fill="url(#a)" d="M58 14.9875V4.125C58 1.84687 56.1531 0 53.875 0H41.3094c-.2 0-.4.014375-.5981.04375L3.52688 5.49188C1.50125 5.78875 0 7.52625 0 9.57312V24.9706c0 2.2788 1.8475 4.1256 4.12625 4.125l18.50435-.0044c.4256 0 .8488-.0662 1.2538-.1956L55.13 18.9169c1.7094-.5463 2.87-2.135 2.87-3.9294Z"/>
  <path fill="url(#b)" d="M64 59.8777V25.7502c0-1.6582-.9931-3.155-2.5206-3.8L24.0581 6.15266c-.5181-.21875-1.0756-.32937-1.6381-.32437l-18.32875.15C1.82625 5.99641 0 7.83766 0 10.1027v17.6656c0 .8056.235625 1.5931.678125 2.2662L21.7869 62.1439c.7625 1.1606 2.0581 1.8588 3.4468 1.8588H59.875c2.2781 0 4.125-1.8469 4.125-4.125Z"/>
  <path fill="#000" d="M52 12H12v40h40V12Z"/>
  <path fill="#fff" d="M33 44H17v3h16v-3Z"/>
  <path fill="#fff" d="M16.9928 16.9922h6.4419c1.0575 0 1.9844.1931 2.7812.5787.7969.3857 1.4113.9288 1.8438 1.6294.4325.7006.6487 1.5113.6487 2.4331 0 .9219-.22 1.7582-.6593 2.4657-.4394.7075-1.0632 1.2556-1.8707 1.6456-.8075.3894-1.7506.5844-2.83.5844h-3.43v5.67h-2.9262V16.9928l.0006-.0006Zm7.5406 6.63c.3682-.1825.6519-.4431.8519-.7825.2-.3394.3-.7375.3-1.195s-.1-.8413-.3-1.1738c-.2-.3325-.4844-.5893-.8519-.7718-.3681-.1825-.7987-.2732-1.2918-.2732h-3.3225v4.47h3.3225c.4931 0 .9237-.0912 1.2918-.2731v-.0006Z"/>
  <path fill="#fff" d="M32.5721 31.6644c-.84-.3931-1.4969-.9431-1.9725-1.6506-.475-.7075-.72-1.5219-.7344-2.4438h2.9369c0 .4356.1144.8181.3431 1.1469.2288.3287.5469.5862.9538.7719.4075.1856.875.2787 1.4044.2787.5293 0 .9518-.0837 1.3343-.2519.3825-.1681.6788-.4019.8894-.7019s.3163-.6431.3163-1.0287c0-.4788-.145-.875-.4344-1.19-.2894-.3144-.6881-.5325-1.195-.6538l-2.6475-.5893c-.7144-.1569-1.3363-.4269-1.865-.8094-.5288-.3825-.94-.8556-1.2325-1.42-.2931-.5644-.4394-1.2006-.4394-1.9081 0-.8575.2213-1.6275.6644-2.31.4431-.6825 1.0612-1.215 1.8544-1.5969.7931-.3825 1.6937-.5731 2.7012-.5731s1.9331.1856 2.7331.5575c.8.3719 1.4238.8881 1.8707 1.5487.4462.6613.6731 1.42.6806 2.2775h-2.9263c0-.3643-.0962-.6912-.2893-.9806-.1932-.2894-.4663-.5144-.82-.675-.3538-.1606-.7594-.2412-1.2169-.2412-.4575 0-.8594.0768-1.2056.2306-.3469.1537-.6163.3681-.8094.6431-.1931.275-.2894.595-.2894.9594 0 .4143.1338.7575.4019 1.0287.2681.2719.6344.4644 1.0987.5788l2.5513.5575c.7356.15 1.3919.4344 1.9669.8519.575.4181 1.0237.9324 1.345 1.5437.3212.6112.4825 1.2775.4825 1.9988 0 .8862-.2344 1.6812-.7019 2.385-.4681.7037-1.1238 1.2556-1.9669 1.6562-.8431.4-1.8081.6-2.8944.6-1.0862 0-2.0493-.1969-2.8887-.5894l.0006-.0012Z"/>
  <path fill="#FDB60D" d="M56.1887 64H23.8113c-2.0716 0-4.0585-.8229-5.5234-2.2878C16.823 60.2473 16 58.2604 16 56.1887v-8.3774c0-1.0258.202-2.0416.5946-2.9893.3926-.9477.968-1.8088 1.6933-2.5342a7.812297 7.812297 0 0 1 2.5342-1.6932C21.7698 40.202 22.7855 40 23.8113 40h32.3774c2.0717 0 4.0585.8229 5.5234 2.2878C63.177 43.7527 64 45.7396 64 47.8113v8.3774c0 2.0717-.823 4.0586-2.2879 5.5235S58.2604 64 56.1887 64Z"/>
  <path fill="#000" d="M24.9121 46.7578h8.2388v2.1384h-5.8515v2.2157h5.1495v2.1374h-5.1495v2.2939h5.9297v2.1375h-8.317V46.7578Z"/>
  <path fill="#000" d="M39.1118 46.6797h2.2157l4.6812 11h-2.5123l-.9986-2.4494h-4.6182l-.9986 2.4494h-2.4494l4.6802-11Zm2.5286 6.4285-1.4517-3.5424-1.4507 3.5424h2.9024Z"/>
  <path fill="#000" d="M47.6934 46.7578h4.4627c2.6058 0 4.1814 1.5452 4.1814 3.776v.0315c0 2.5275-1.9657 3.839-4.415 3.839H50.097v3.2762h-2.4036V46.7578Zm4.3063 5.5082c.2362.03.476.0098.7038-.0593s.4384-.1856.6182-.3417c.1797-.1561.3244-.3484.4246-.5643.1003-.216.1538-.4506.1571-.6886v-.0315c0-1.0759-.7487-1.6538-1.9505-1.6538H50.097v3.3392h1.9027Z"/>
</svg>
