<svg xmlns="http://www.w3.org/2000/svg" width="128" height="128" fill="none" viewBox="0 0 128 128">
  <defs>
    <linearGradient id="a" gradientUnits="userSpaceOnUse" x1="112.659" x2="5.74875" y1="-.782502" y2="48.785">
      <stop offset=".16" stop-color="#d249fc"/>
      <stop offset=".55" stop-color="#ff2d90"/>
    </linearGradient>
    <linearGradient id="b" gradientUnits="userSpaceOnUse" x1="8.135" x2="125.328" y1="8.64501" y2="125.838">
      <stop offset=".3" stop-color="#ff2d90"/>
      <stop offset=".7" stop-color="#7256ff"/>
    </linearGradient>
  </defs>
  <path
    d="m116 32.9001v-24.51746c0-4.6075-3.774-8.322498-8.381-8.248748l-22.0865.3525c-2.3625.0375-4.595 1.086248-6.1325 2.879998l-65.4138 76.31621c-1.2812 1.495-1.9862 3.4-1.9862 5.3688v22.6986c0 4.556 3.6937 8.25 8.25 8.25h22.0062c2.3788 0 4.6426-1.027 6.2088-2.817l65.494-74.8504c1.316-1.5037 2.041-3.4337 2.041-5.4325z"
    fill="#d249fc"/>
  <path
    d="m116 29.975v-21.725c0-4.55625-3.694-8.25-8.25-8.25h-25.1312c-.4 0-.8.02875-1.1963.0875l-74.36875 10.8963c-4.05125.5937-7.05375 4.0687-7.05375 8.1624v30.795c0 4.5575 3.695 8.2513 8.2525 8.25l37.0087-.0087c.8513 0 1.6975-.1325 2.5075-.3913l62.4913-19.9574c3.419-1.0925 5.74-4.27 5.74-7.8588z"
    fill="url(#a)"/>
  <path
    d="m128 119.748v-68.2555c0-3.3162-1.986-6.31-5.041-7.6l-74.8428-31.595c-1.0362-.4375-2.1512-.6587-3.2762-.6487l-36.6575.3c-4.53.0362-8.1825 3.7187-8.1825 8.2487v35.3313c0 1.6112.47125 3.1862 1.35625 4.5325l42.21745 64.2187c1.525 2.321 4.1163 3.718 6.8938 3.718h69.2825c4.556 0 8.25-3.694 8.25-8.25z"
    fill="url(#b)"/>
  <path d="m104 24h-80v80h80z" fill="#000"/>
  <path d="m66 88h-32v6h32z" fill="#fff"/>
  <path
    d="m33.9856 33.9844h12.8838c2.115 0 3.9687.3862 5.5625 1.1575 1.5937.7712 2.8225 1.8575 3.6875 3.2587.865 1.4013 1.2975 3.0225 1.2975 4.8663 0 1.8437-.44 3.5162-1.3188 4.9312-.8787 1.415-2.1262 2.5113-3.7412 3.2913-1.615.7787-3.5013 1.1687-5.66 1.1687h-6.86v11.34h-5.8525v-30.0125zm15.0813 13.26c.7362-.365 1.3037-.8863 1.7037-1.565.4-.6788.6-1.475.6-2.39s-.2-1.6825-.6-2.3475-.9687-1.1788-1.7037-1.5438c-.7363-.365-1.5975-.5462-2.5838-.5462h-6.645v8.94h6.645c.9863 0 1.8475-.1825 2.5838-.5463z"
    fill="#fff"/>
  <path
    d="m65.1462 63.3366c-1.68-.7863-2.9938-1.8863-3.945-3.3013-.95-1.415-1.44-3.0437-1.4688-4.8875h5.8738c0 .8713.2287 1.6363.6862 2.2938s1.0938 1.1725 1.9075 1.5437c.815.3713 1.75.5575 2.8088.5575 1.0587 0 1.9037-.1675 2.6687-.5037.765-.3363 1.3575-.8038 1.7788-1.4038.4212-.6.6325-1.2862.6325-2.0575 0-.9575-.29-1.75-.8688-2.38-.5787-.6287-1.3762-1.065-2.39-1.3075l-5.295-1.1787c-1.4287-.3138-2.6725-.8538-3.73-1.6188s-1.88-1.7112-2.465-2.84c-.5862-1.1287-.8787-2.4012-.8787-3.8162 0-1.715.4425-3.255 1.3287-4.62.8863-1.365 2.1225-2.43 3.7088-3.1938 1.5862-.765 3.3875-1.1462 5.4025-1.1462s3.8662.3712 5.4662 1.115c1.6.7437 2.8475 1.7762 3.7413 3.0975.8925 1.3225 1.3462 2.84 1.3612 4.555h-5.8525c0-.7288-.1925-1.3825-.5787-1.9613-.3863-.5787-.9325-1.0287-1.64-1.35-.7075-.3212-1.5188-.4825-2.4338-.4825s-1.7187.1538-2.4112.4613c-.6938.3075-1.2325.7362-1.6188 1.2862-.3862.55-.5787 1.19-.5787 1.9188 0 .8287.2675 1.515.8037 2.0575.5363.5437 1.2688.9287 2.1975 1.1575l5.1025 1.115c1.4713.3 2.7838.8687 3.9338 1.7037 1.15.8363 2.0475 1.865 2.69 3.0875s.965 2.555.965 3.9975c0 1.7725-.4688 3.3625-1.4038 4.77-.9362 1.4075-2.2475 2.5113-3.9337 3.3125-1.6863.8-3.6163 1.2-5.7888 1.2s-4.0987-.3937-5.7775-1.1787z"
    fill="#fff"/>
</svg>
