<svg xmlns="http://www.w3.org/2000/svg" width="662" height="109" fill="none" viewBox="0 0 662 109">
  <path fill="#000" d="M117.284 3.98535H151.979C172.243 3.98535 184.504 15.9905 184.504 33.3454V33.5867C184.504 53.2547 169.221 63.3867 150.163 63.3867H135.973V88.9295H117.284V3.98535ZM150.773 46.8122C160.111 46.8122 165.574 41.2353 165.574 33.9556V33.7144C165.574 25.342 159.756 20.8436 150.404 20.8436H135.973V46.8122H150.773Z"/>
  <path fill="#000" d="M190.208 0.380859H208.656V33.1041C212.913 27.6408 218.362 22.6741 227.7 22.6741C241.663 22.6741 249.794 31.8979 249.794 46.7979V88.9294H231.347V52.6444C231.347 43.9031 227.217 39.4189 220.179 39.4189C213.14 39.4189 208.656 43.9031 208.656 52.6444V88.9294H190.208V0.380859Z"/>
  <path fill="#000" d="M258.053 23.88H276.501V33.2315C280.985 27.158 287.186 22.6738 296.765 22.6738C311.934 22.6738 326.38 34.5654 326.38 56.2769V56.5323C326.38 78.2437 312.19 90.1354 296.765 90.1354C292.864 90.214 288.998 89.3768 285.479 87.6912C281.96 86.0055 278.885 83.5183 276.501 80.4291V108.342H258.053V23.88ZM307.933 56.5181V56.2627C307.933 45.4637 300.653 38.3117 292.039 38.3117C283.426 38.3117 276.26 45.407 276.26 56.2627V56.5181C276.26 67.3171 283.355 74.4691 292.039 74.4691C300.724 74.4691 307.933 67.4448 307.933 56.5323V56.5181Z"/>
  <path fill="#000" d="M327.97 76.5551L339.01 63.3153C346.659 69.6301 354.619 73.6318 364.368 73.6318C372.017 73.6318 376.629 70.6093 376.629 65.6284V65.3871C376.629 60.6475 373.791 58.221 359.515 54.5882C342.401 50.2175 331.361 45.4779 331.361 28.6196V28.3784C331.361 12.9675 343.75 2.83553 361.09 2.83553C372.547 2.65037 383.708 6.46966 392.65 13.6345L382.944 27.7114C375.408 22.5035 368.015 19.3391 360.849 19.3391C353.683 19.3391 349.937 22.6171 349.937 26.7465V26.9877C349.937 32.5646 353.569 34.3951 368.256 38.1556C385.484 42.6398 395.218 48.8269 395.218 63.6985V63.9397C395.218 80.798 382.362 90.2631 363.999 90.2631C350.713 90.2773 337.887 85.3973 327.97 76.5551V76.5551Z"/>
  <path fill="#000" d="M404.584 70.4823V39.6605H396.822V23.8807H404.584V7.26367H423.032V23.8807H438.329V39.6605H423.032V67.4455C423.032 71.7026 424.848 73.7602 428.978 73.7602C432.162 73.7754 435.297 72.9794 438.088 71.4472V86.2621C433.679 88.8577 428.629 90.1608 423.515 90.0225C412.233 90.0225 404.584 85.5242 404.584 70.4823V70.4823Z"/>
  <path fill="#000" d="M440.742 56.7735V56.5323C440.742 37.8434 455.784 22.6738 476.062 22.6738C496.34 22.6738 511.126 37.6022 511.126 56.2769V56.5323C511.126 75.2212 496.085 90.3766 475.821 90.3766C455.557 90.3766 440.742 75.4624 440.742 56.7735ZM492.92 56.7735V56.5323C492.92 46.9395 486.009 38.5672 475.821 38.5672C465.263 38.5672 458.948 46.6983 458.948 56.2769V56.5323C458.948 66.1109 465.859 74.4833 476.062 74.4833C486.619 74.4833 492.92 66.3521 492.92 56.7735V56.7735Z"/>
  <path fill="#000" d="M516.661 23.8802H535.108V36.9921C538.869 28.0096 544.942 22.1773 555.869 22.674V41.9588H554.89C542.629 41.9588 535.108 49.3662 535.108 64.9048V88.9293H516.661V23.8802Z"/>
  <path fill="#000" d="M562.439 23.88H580.887V33.1038C585.144 27.6405 590.721 22.6738 600.058 22.6738C608.572 22.6738 614.986 26.4343 618.378 32.9903C624.054 26.3066 630.88 22.6738 639.749 22.6738C653.457 22.6738 661.701 30.9185 661.701 46.5706V88.9292H643.254V52.6441C643.254 43.9028 639.366 39.4186 632.441 39.4186C625.516 39.4186 621.287 43.9028 621.287 52.6441V88.9292H602.839V52.6441C602.839 43.9028 598.951 39.4186 592.04 39.4186C585.13 39.4186 580.872 43.9028 580.872 52.6441V88.9292H562.425L562.439 23.88Z"/>
  <path fill="#000" d="M0 4H85V89H0V4Z"/>
  <path fill="#fff" d="M10.543 72.9795H42.4715V78.3009H10.543V72.9795Z"/>
  <path fill="#fff" d="M38.3848 41.9168L42.5426 36.936C45.1544 39.3479 48.5531 40.7296 52.107 40.8241C54.9451 40.8241 56.7331 39.6889 56.7331 37.8016V37.7164C56.7331 35.9284 55.6262 35.0202 50.2764 33.6438C43.8197 31.9977 39.6619 30.2097 39.6619 23.8523V23.753C39.6619 17.9491 44.3306 14.1035 50.8724 14.1035C55.1908 14.0271 59.3991 15.4684 62.764 18.1761L59.1029 23.4834C56.7105 21.6118 53.8051 20.513 50.7731 20.3331C48.0769 20.3331 46.6578 21.5677 46.6578 23.1712V23.2705C46.6578 25.3707 48.0769 26.1086 53.5686 27.5277C60.0678 29.2305 63.729 31.5578 63.729 37.1488V37.234C63.729 43.5913 58.8758 47.1673 51.9651 47.1673C46.9625 47.187 42.128 45.3633 38.3848 42.0445"/>
  <path fill="#fff" d="M10.5713 14.5713H23.6265C31.2326 14.5713 35.8445 19.0839 35.8445 25.5973V25.6824C35.8445 33.0615 30.0974 36.8929 22.9454 36.8929H17.6665V46.4573H10.5713V14.5713ZM23.1441 30.6491C26.6491 30.6491 28.7067 28.5631 28.7067 25.8243V25.7392C28.7067 22.5889 26.5214 20.9002 23.0305 20.9002H17.6665V30.6491H23.1441Z"/>
</svg>
