<svg height="70" viewBox="0 0 70 70" width="70" xmlns="http://www.w3.org/2000/svg" xmlns:xlink="http://www.w3.org/1999/xlink"><linearGradient id="a" gradientUnits="userSpaceOnUse" x1=".55804" x2="29.94728" y1="46.84571" y2="8.0256"><stop offset=".01613" stop-color="#765af8"/><stop offset=".38213" stop-color="#b345f1"/><stop offset=".75806" stop-color="#fa3293"/><stop offset=".94086" stop-color="#ff318c"/></linearGradient><linearGradient id="b" x1="2.72973" x2="32.07189" xlink:href="#a" y1="48.37884" y2="9.62091"/><linearGradient id="c" gradientUnits="userSpaceOnUse" x1="50.85683" x2="34.27386" y1="46.405" y2="7.04809"><stop offset=".1828" stop-color="#765af8"/><stop offset=".2382" stop-color="#8655f6"/><stop offset=".34492" stop-color="#9f4cf3"/><stop offset=".44251" stop-color="#ae47f2"/><stop offset=".52191" stop-color="#b345f1"/></linearGradient><linearGradient id="d" gradientUnits="userSpaceOnUse" x1="63.26564" x2="24.69766" y1="57.33876" y2="27.51584"><stop offset=".01613" stop-color="#765af8"/><stop offset=".38213" stop-color="#b345f1"/></linearGradient><path d="m39.599 15.201-3.293-9.952-24.365-5.249-11.941 13.513 37.19 19.016z" fill="url(#a)"/><path d="m28.043 41.4-.754-20.84-27.289-7.047 6.673 40.073 21.37-.172z" fill="url(#b)"/><path d="m22.131 41.01 1.317-16.513 19.772-20.341 17.671 3.28 9.109 22.638-9.54 9.476-15.43-2.583-9.67 10.121z" fill="url(#c)"/><path d="m43.22 4.156-28.443 25.262 5.489 32.354 23.591 8.228 26.143-15.648z" fill="url(#d)"/><path d="m14 14h42v42h-42z"/><g fill="#fff"><path d="m17.98999 48.125h15.75v2.625h-15.75z"/><path d="m17.8215 19.46817h7.124c4.1599 0 6.67785 2.46476 6.67785 6.03091v.04913c0 4.037-3.14032 6.12919-7.05044 6.12919h-2.915v5.22839h-3.83642zm6.87439 8.79455c1.9202 0 3.03786-1.1464 3.03786-2.64082v-.04913c0-1.7196-1.1955-2.64082-3.11158-2.64082h-2.96427v5.33076z"/><path d="m32.577 34.4233 2.27448-2.722a8.02615 8.02615 0 0 0 5.21829 2.12262c1.57659 0 2.52495-.62406 2.52495-1.65048v-.04927c0-.973-.59941-1.47393-3.52267-2.22116-3.52255-.89915-5.79715-1.87629-5.79715-5.34557v-.05334c0-3.16958 2.54963-5.27168 6.12154-5.27168a10.11693 10.11693 0 0 1 6.49517 2.22527l-1.99946 2.89859a8.18766 8.18766 0 0 0 -4.54495-1.72436c-1.474 0-2.24993.67333-2.24993 1.52317v.04927c0 1.14958.7514 1.52731 3.77314 2.29919 3.54723.92377 5.54668 2.20061 5.54668 5.247v.04924c0 3.47338-2.64811 5.41949-6.42125 5.41949a11.13024 11.13024 0 0 1 -7.41884-2.796"/></g><path d="m37 53h33v17h-33z" fill="#d99e2b"/><path d="m40.05563 66.966h7.19661v-1.72329h-5.50724v-2.94521h4.82041v-1.72325h-4.82041v-2.85131h5.43874v-1.72325h-7.12811z"/><path d="m48.15627 66.966h1.86832l1.06757-2.6268h4.9082l1.05281 2.6268h1.9277l-4.5671-10.95841h-1.6904zm3.60316-4.321 1.77945-4.35241 1.79421 4.35241z"/><path d="m59.87536 66.966h1.62869v-3.52491h1.84026a3.50288 3.50288 0 0 0 3.70715-3.74426v-.03124a3.3623 3.3623 0 0 0 -3.52185-3.6659h-3.65425zm1.62869-5.26364v-3.94818h1.89333a1.80657 1.80657 0 0 1 1.99894 1.95836v.03146a1.86935 1.86935 0 0 1 -1.99894 1.95836z"/><path d="m37 53h33v17h-33z" fill="#d99e2b"/><path d="m40.05563 66.966h7.19661v-1.72329h-5.50724v-2.94521h4.82041v-1.72325h-4.82041v-2.85131h5.43874v-1.72325h-7.12811z"/><path d="m48.15627 66.966h1.86832l1.06757-2.6268h4.9082l1.05281 2.6268h1.9277l-4.5671-10.95841h-1.6904zm3.60316-4.321 1.77945-4.35241 1.79421 4.35241z"/><path d="m59.87536 66.966h1.62869v-3.52491h1.84026a3.50285 3.50285 0 0 0 3.70715-3.74426v-.03124a3.36233 3.36233 0 0 0 -3.52185-3.6659h-3.65425zm1.62869-5.26364v-3.94818h1.89333a1.80658 1.80658 0 0 1 1.99894 1.95836v.03146a1.86938 1.86938 0 0 1 -1.99894 1.95836z"/></svg>