<svg enable-background="new 0 0 70 70" height="70" viewBox="0 0 70 70" width="70" xmlns="http://www.w3.org/2000/svg" xmlns:xlink="http://www.w3.org/1999/xlink"><linearGradient id="a"><stop offset=".01612903" stop-color="#765af8"/><stop offset=".3821" stop-color="#b345f1"/><stop offset=".7581" stop-color="#fa3293"/><stop offset=".9409" stop-color="#ff318c"/></linearGradient><linearGradient id="b" gradientUnits="userSpaceOnUse" x1=".558" x2="29.9473" xlink:href="#a" y1="46.8457" y2="8.0256"/><linearGradient id="c" gradientUnits="userSpaceOnUse" x1="2.7297" x2="32.0719" xlink:href="#a" y1="48.3788" y2="9.6209"/><linearGradient id="d" gradientUnits="userSpaceOnUse" x1="50.8568" x2="34.2739" y1="46.405" y2="7.0481"><stop offset=".1828" stop-color="#765af8"/><stop offset=".2382" stop-color="#8655f6"/><stop offset=".3449" stop-color="#9f4cf3"/><stop offset=".4425" stop-color="#ae47f2"/><stop offset=".5219" stop-color="#b345f1"/></linearGradient><linearGradient id="e" gradientUnits="userSpaceOnUse" x1="63.2656" x2="24.6977" y1="57.3388" y2="27.5158"><stop offset=".01612903" stop-color="#765af8"/><stop offset=".3821" stop-color="#b345f1"/></linearGradient><path d="m39.6 15.2-3.3-10-24.4-5.2-11.9 13.5 37.2 19z" fill="url(#b)"/><path d="m28 41.4-.7-20.8-27.3-7.1 6.7 40.1 21.3-.2z" fill="url(#c)"/><path d="m22.1 41 1.3-16.5 19.8-20.3 17.7 3.2 9.1 22.7-9.5 9.4-15.5-2.5-9.6 10.1z" fill="url(#d)"/><path d="m43.2 4.2-28.4 25.2 5.5 32.4 23.6 8.2 26.1-15.6z" fill="url(#e)"/><path d="m13.4 13.4h43.2v43.2h-43.2z"/><g fill="#fff"><path d="m17.5 48.5h16.2v2.7h-16.2z"/><path d="m17.3 19h7.3c4.3 0 6.9 2.5 6.9 6.2v.1c0 4.2-3.2 6.3-7.3 6.3h-3v5.4h-3.9zm7.1 9c2 0 3.1-1.2 3.1-2.7v-.1c0-1.8-1.2-2.7-3.2-2.7h-3v5.5z"/><path d="m32.5 34.4 2.3-2.8c1.6 1.3 3.3 2.2 5.4 2.2 1.6 0 2.6-.6 2.6-1.7v-.1c0-1-.6-1.5-3.6-2.3-3.6-.9-6-1.9-6-5.5v-.1c0-3.3 2.6-5.4 6.3-5.4 2.6 0 4.9.8 6.7 2.3l-2.1 3c-1.6-1.1-3.2-1.8-4.7-1.8s-2.3.7-2.3 1.6v.1c0 1.2.8 1.6 3.9 2.4 3.6 1 5.7 2.3 5.7 5.4v.1c0 3.6-2.7 5.6-6.6 5.6-2.7-.1-5.4-1.1-7.6-3"/></g></svg>