<svg xmlns="http://www.w3.org/2000/svg" width="275" height="64" fill="none" viewBox="0 0 275 64">
  <defs>
    <linearGradient id="a" x1="56.3788" x2="2.75258" y1="-.717381" y2="24.146" gradientUnits="userSpaceOnUse">
      <stop offset=".16" stop-color="#D249FC"/>
      <stop offset=".55" stop-color="#FF2D90"/>
    </linearGradient>
    <linearGradient id="b" x1="3.98196" x2="62.6868" y1="4.22439" y2="62.9298" gradientUnits="userSpaceOnUse">
      <stop offset=".3" stop-color="#FF2D90"/>
      <stop offset=".7" stop-color="#7256FF"/>
    </linearGradient>
  </defs>
  <path fill="#fff" d="M102.154 18.1322c-1.562-.761-3.3642-1.1315-5.427-1.1315H84v30.0001h5.3371V35.3853h7.2197c2.1028 0 3.9352-.3905 5.5172-1.1616 1.582-.771 2.804-1.8525 3.665-3.2443.861-1.3919 1.292-3.004 1.292-4.8365 0-1.8324-.421-3.4146-1.272-4.7964-.851-1.3819-2.053-2.4533-3.615-3.2143h.01Zm-1.261 10.5341c-.421.7109-1.0117 1.2517-1.7828 1.6422-.761.3905-1.6722.5808-2.7136.5808h-7.0695v-9.3626h7.0695c1.0414 0 1.9426.1903 2.7136.5708.761.3805 1.3518.9212 1.7828 1.6222.42.7009.63 1.522.63 2.4633 0 .9412-.21 1.7924-.63 2.4933v-.01Zm24.893-3.1041c-1.182-.691-2.563-1.0315-4.136-1.0315-1.672 0-3.124.3906-4.375 1.1816-1.042.6609-1.863 1.5621-2.504 2.6836v-.5707l.06-4.0455v-6.7891h-4.946v30.0002h5.056v-12.707c0-1.0414.211-1.9626.631-2.7637.421-.8011 1.022-1.4219 1.793-1.8725.771-.4506 1.662-.6709 2.653-.6709.931 0 1.733.2003 2.403.5908.671.3905 1.182.9613 1.543 1.7023.36.741.54 1.6422.54 2.7036v13.0274h5.037V33.2024c0-1.8025-.33-3.3545-.981-4.6463-.651-1.2917-1.582-2.293-2.764-2.9739l-.01-.02Zm26.275.4405c-1.532-.9813-3.284-1.472-5.237-1.472-1.802 0-3.384.4006-4.756 1.2017-1.172.6809-2.103 1.6221-2.824 2.7837v-3.4747h-4.947V53.84h5.057V43.6864c.711 1.0814 1.602 1.9626 2.714 2.6035 1.362.8011 2.954 1.2016 4.766 1.2016 1.943 0 3.685-.4907 5.227-1.472 1.542-.9813 2.754-2.3431 3.625-4.0954.871-1.7524 1.302-3.725 1.302-5.928 0-2.2029-.431-4.1756-1.302-5.9279-.871-1.7524-2.073-3.1142-3.615-4.0955l-.01.03ZM151.01 39.651c-.521 1.0514-1.252 1.8725-2.193 2.4633-.941.5908-2.013.8912-3.215.8912-1.201 0-2.313-.2904-3.254-.8812-.941-.5808-1.682-1.4019-2.203-2.4633-.531-1.0614-.791-2.273-.791-3.6449 0-1.3718.26-2.5834.791-3.6348.531-1.0514 1.262-1.8726 2.203-2.4633.941-.5908 2.033-.8912 3.254-.8912 1.222 0 2.274.3004 3.215.8912.941.5907 1.672 1.4119 2.193 2.4633.52 1.0514.781 2.263.781 3.6348 0 1.3719-.261 2.5835-.781 3.6349Zm27.026-8.2611c-1.142-.8311-2.443-1.4018-3.895-1.7323l-5.057-1.1315c-1.011-.2704-1.813-.7009-2.403-1.2717-.581-.5808-.881-1.3218-.881-2.213 0-.801.21-1.502.62-2.1028.411-.6008.992-1.0614 1.733-1.3918.741-.3305 1.602-.4907 2.573-.4907.971 0 1.853.1702 2.604.5107.751.3404 1.331.8311 1.732 1.4619.4.6309.611 1.3318.611 2.1229h5.357c-.01-1.6823-.461-3.1843-1.332-4.486-.871-1.3118-2.093-2.3331-3.665-3.0641-1.572-.731-3.364-1.1015-5.377-1.1015s-3.735.3805-5.297 1.1315c-1.552.761-2.774 1.8024-3.645 3.1242-.871 1.3318-1.312 2.8338-1.312 4.526 0 1.3819.291 2.6336.881 3.7551.591 1.1215 1.412 2.0527 2.464 2.8037 1.061.7611 2.293 1.3018 3.705 1.6322l5.227 1.1816c1.101.2704 1.962.751 2.593 1.4219.631.6709.941 1.5421.941 2.5835 0 .8411-.22 1.5921-.67 2.243-.451.6508-1.082 1.1615-1.903 1.522-.821.3605-1.772.5507-2.864.5507-1.091 0-2.123-.2002-2.994-.6008-.861-.4005-1.542-.9512-2.023-1.6622-.49-.7109-.731-1.522-.731-2.4533h-5.357c.01 1.8325.491 3.4447 1.422 4.8465.931 1.4019 2.233 2.4934 3.885 3.2644 1.653.7811 3.555 1.1716 5.698 1.1716 2.143 0 4.025-.4006 5.688-1.1916 1.662-.7911 2.954-1.8825 3.875-3.2644.921-1.3818 1.382-2.9439 1.382-4.6763 0-1.4319-.321-2.7436-.952-3.9452-.64-1.2017-1.522-2.213-2.673-3.0441l.04-.0301Zm14.76-11.6956h-4.717v3.5547c0 .5307-.17.9613-.49 1.2918-.331.3404-.761.5006-1.312.5006h-2.403l-.02 4.3959h3.855l.02 11.7257c0 1.1115.26 2.1129.781 3.004.521.8812 1.252 1.5822 2.183 2.0828.931.5007 1.993.751 3.164.751h4.736V42.605h-3.725c-.6 0-1.101-.2003-1.492-.5908-.39-.3906-.59-.8912-.59-1.492l-.02-11.0749h5.827l.02-4.3958h-5.827v-5.3572h.01Zm24.563 6.3385c-1.753-1.0014-3.715-1.5021-5.868-1.5021-2.153 0-4.136.5007-5.908 1.5021-1.763 1.0013-3.144 2.3732-4.146 4.1255-1.001 1.7523-1.502 3.7049-1.502 5.8578 0 2.1529.501 4.1155 1.512 5.8579 1.012 1.7523 2.393 3.1241 4.146 4.1255 1.752 1.0013 3.715 1.502 5.868 1.502 2.153 0 4.135-.5007 5.898-1.502 1.762-1.0014 3.134-2.3732 4.145-4.1255 1.011-1.7524 1.512-3.705 1.512-5.8579s-.501-4.1155-1.512-5.8578c-1.011-1.7523-2.393-3.1242-4.145-4.1255Zm-.401 13.6082c-.521 1.0614-1.262 1.8825-2.213 2.4633-.951.5808-2.053.8812-3.274.8812-1.222 0-2.323-.2904-3.265-.8812-.951-.5808-1.682-1.4119-2.203-2.4633-.52-1.0614-.781-2.2631-.781-3.6249 0-1.3618.261-2.5834.781-3.6448.521-1.0615 1.252-1.8826 2.203-2.4633.952-.5808 2.043-.8812 3.265-.8812 1.221 0 2.313.3004 3.264.8912.951.5907 1.692 1.4119 2.213 2.4633.531 1.0514.791 2.263.791 3.6348 0 1.3719-.26 2.5635-.781 3.6249Zm16.823-13.5281c-.832.5707-1.533 1.3318-2.103 2.263v-3.3244h-5.017v21.9493h5.057V35.155c0-1.0614.22-1.9727.671-2.7437.45-.771 1.091-1.3618 1.932-1.7824.831-.4105 1.823-.6208 2.944-.6208h1.412v-5.0968h-.811c-1.562 0-2.924.4005-4.095 1.2116l.01-.01Zm39.843 2.4933c-.631-1.3017-1.542-2.3031-2.724-3.014-1.181-.711-2.543-1.0615-4.105-1.0615-1.683 0-3.154.4006-4.416 1.2017-1.142.7309-2.033 1.7423-2.704 3.014-.02-.0501-.04-.1001-.06-.1502-.611-1.3017-1.492-2.3031-2.623-3.014-1.132-.711-2.484-1.0615-4.036-1.0615-1.552 0-2.964.3906-4.125 1.1716-.982.6609-1.763 1.5721-2.363 2.7137v-3.3646h-4.907v21.9494h5.057v-12.727c0-1.0715.19-2.0027.58-2.8038.381-.801.932-1.4119 1.653-1.8424.711-.4306 1.552-.6409 2.503-.6409.881 0 1.642.1903 2.283.5808.641.3905 1.122.9312 1.462 1.6522.331.7109.501 1.5621.501 2.5534v13.2478h4.946V34.2838c0-1.0714.201-2.0027.591-2.8038.391-.801.951-1.4118 1.672-1.8424.721-.4306 1.552-.6409 2.494-.6409.881 0 1.642.1903 2.273.5808.631.3905 1.111.9312 1.442 1.6522.34.711.5 1.5621.5 2.5534v13.2478h5.057V33.1823c0-1.7323-.32-3.2443-.951-4.5461v-.03Z"/>
  <path fill="#D249FC" d="m58.182 15.9476-.0018-11.87545C58.1797 1.82342 56.3562 0 54.1075 0H42.6009c-1.1886 0-2.3185.519564-3.0924 1.42196L6.79872 39.5834c-.63243.7383-.98036 1.6786-.98036 2.6508v11.8755c0 2.2493 1.82342 4.0727 4.07273 4.0727H21.3994c1.1887 0 2.3186-.5196 3.0924-1.422L57.2011 18.599c.633-.7383.9803-1.6786.9803-2.6514h.0006Z"/>
  <path fill="url(#a)" d="M58.1818 14.5193V4.07273C58.1818 1.82342 56.3584 0 54.1091 0H41.0164c-.1925 0-.3851.013964-.576.040727L3.49673 5.3184C1.49062 5.60465 0 7.32334 0 9.34982V25.0228c0 2.2499 1.824 4.0733 4.07389 4.0728l18.53851-.0047c.4375 0 .8721-.0704 1.2869-.2089l31.4979-10.4995c1.6629-.5544 2.7846-2.1108 2.7846-3.8638v.0006Z"/>
  <path fill="url(#b)" d="M64 59.9294V25.9611c0-1.6291-.9711-3.1017-2.4681-3.7434L24.0413 6.14962c-.5068-.21702-1.0531-.32931-1.6046-.32931H4.07273C1.82342 5.82031 0 7.64373 0 9.89304V27.859c0 .8047.238545 1.5913.685382 2.261L22.0887 62.1886c.7552 1.1322 2.0265 1.8118 3.3874 1.8118l34.4512.0017c2.2493 0 4.0727-1.8234 4.0727-4.0727Z"/>
  <path fill="#000" d="M52.189 12.0469H12.043v40.146h40.146v-40.146Z"/>
  <path fill="#fff" fill-rule="evenodd" d="M23.3777 17.3936h-6.3199v14.724h2.8712v-5.5638h3.3653c1.0514 0 1.9737-.1893 2.7659-.5679.7995-.3854 1.4131-.9257 1.8407-1.6199.4344-.6941.6519-1.5145.6519-2.4188 0-.9043-.2141-1.6998-.6417-2.3872-.4209-.6874-1.0238-1.2198-1.8092-1.5985-.7854-.3786-1.6937-.5679-2.7242-.5679Zm1.0722 6.5104c-.3577.1752-.7781.2631-1.262.2631h-3.2606v-4.3857h3.2606c.4839 0 .9043.0907 1.262.2733.3646.1746.6446.427.8412.7572.1967.3217.2947.715.2947 1.1567 0 .4418-.0986.8311-.2947 1.1675-.196.3301-.4766.5854-.8412.7679Z" clip-rule="evenodd"/>
  <path fill="#fff" d="M32.2602 31.792c.8626.3854 1.8333.5786 2.9134.5786 1.0863 0 2.0605-.1927 2.9231-.5781.8626-.3853 1.5353-.9217 2.0193-1.6091.484-.6941.7257-1.4829.7257-2.3664 0-.715-.1544-1.3736-.4626-1.9771-.3082-.6102-.7465-1.1189-1.3144-1.5252-.5606-.4062-1.2092-.6766-1.9456-.8096l-2.9236-.5471c-.4631-.0907-.8243-.2738-1.0834-.5471-.2598-.28-.3894-.6243-.3894-1.0305 0-.351.1054-.6586.3155-.9257.2102-.2738.5049-.4879.8835-.6417.3786-.1539.7961-.2316 1.2728-.2316.4766 0 .9043.08 1.2829.2417.3786.1538.6733.3719.8835.6519.2174.28.3262.6034.3262.9674h2.8712c-.0068-.8412-.2451-1.5838-.715-2.2295-.4626-.6524-1.1043-1.1612-1.9246-1.5252-.8136-.3645-1.7388-.5471-2.7558-.5471s-1.932.1854-2.745.5573c-.8068.3724-1.4412.8902-1.9038 1.5567-.4558.6665-.6834 1.4266-.6834 2.2824 0 .6942.1402 1.3252.4208 1.8932.2806.5611.6801 1.0305 1.199 1.4091.5257.3719 1.1426.6243 1.8509.7572l3.0182.5787c.4976.0986.8869.3087 1.1675.631.2873.3155.431.7088.431 1.1781 0 .3787-.1155.715-.3471 1.0097-.231.2947-.5538.5257-.9674.6941-.4068.1617-.8694.2418-1.3883.2418-.5465 0-1.0378-.0908-1.4722-.2733-.4282-.1826-.768-.435-1.0204-.7573-.2451-.3296-.3679-.7042-.3679-1.1251h-2.8819c.0141.8981.2665 1.697.7572 2.3979.4908.6942 1.1674 1.2345 2.0301 1.6199Z"/>
  <path fill="#fff" d="M17.0566 44.1622H33.115v3.011H17.0566v-3.011Z"/>
</svg>
