<svg id="Layer_1" data-name="Layer 1" xmlns="http://www.w3.org/2000/svg" xmlns:xlink="http://www.w3.org/1999/xlink" width="70" height="70" viewBox="0 0 70 70">
  <defs>
    <linearGradient id="linear-gradient" x1="0.55804" y1="46.84571" x2="29.94728" y2="8.0256" gradientUnits="userSpaceOnUse">
      <stop offset="0.01613" stop-color="#765af8"/>
      <stop offset="0.38213" stop-color="#b345f1"/>
      <stop offset="0.75806" stop-color="#fa3293"/>
      <stop offset="0.94086" stop-color="#ff318c"/>
    </linearGradient>
    <linearGradient id="linear-gradient-2" x1="2.72973" y1="48.37884" x2="32.07189" y2="9.62091" xlink:href="#linear-gradient"/>
    <linearGradient id="linear-gradient-3" x1="50.85683" y1="46.405" x2="34.27386" y2="7.04809" gradientUnits="userSpaceOnUse">
      <stop offset="0.1828" stop-color="#765af8"/>
      <stop offset="0.2382" stop-color="#8655f6"/>
      <stop offset="0.34492" stop-color="#9f4cf3"/>
      <stop offset="0.44251" stop-color="#ae47f2"/>
      <stop offset="0.52191" stop-color="#b345f1"/>
    </linearGradient>
    <linearGradient id="linear-gradient-4" x1="63.26564" y1="57.33876" x2="24.69766" y2="27.51584" gradientUnits="userSpaceOnUse">
      <stop offset="0.01613" stop-color="#765af8"/>
      <stop offset="0.38213" stop-color="#b345f1"/>
    </linearGradient>
  </defs>
  <title>phpStormEAP</title>
  <g>
    <polygon points="39.599 15.201 36.306 5.249 11.941 0 0 13.513 37.19 32.529 39.599 15.201" fill="url(#linear-gradient)"/>
    <polygon points="28.043 41.4 27.289 20.56 0 13.513 6.673 53.586 28.043 53.414 28.043 41.4" fill="url(#linear-gradient-2)"/>
    <polygon points="22.131 41.01 23.448 24.497 43.22 4.156 60.891 7.436 70 30.074 60.46 39.55 45.03 36.967 35.36 47.088 22.131 41.01" fill="url(#linear-gradient-3)"/>
    <polygon points="43.22 4.156 14.777 29.418 20.266 61.772 43.857 70 70 54.352 43.22 4.156" fill="url(#linear-gradient-4)"/>
  </g>
  <g>
    <rect x="14" y="14" width="42" height="42"/>
    <rect x="17.98999" y="48.125" width="15.75" height="2.625" fill="#fff"/>
    <path d="M17.8215,19.46817h7.124c4.1599,0,6.67785,2.46476,6.67785,6.03091v.04913c0,4.037-3.14032,6.12919-7.05044,6.12919h-2.915v5.22839H17.82149Zm6.87439,8.79455c1.9202,0,3.03786-1.1464,3.03786-2.64082v-.04913c0-1.7196-1.1955-2.64082-3.11158-2.64082H21.6579v5.33076Z" fill="#fff"/>
    <path d="M32.577,34.4233l2.27448-2.722a8.02615,8.02615,0,0,0,5.21829,2.12262c1.57659,0,2.52495-.62406,2.52495-1.65048v-.04927c0-.973-.59941-1.47393-3.52267-2.22116-3.52255-.89915-5.79715-1.87629-5.79715-5.34557v-.05334c0-3.16958,2.54963-5.27168,6.12154-5.27168a10.11693,10.11693,0,0,1,6.49517,2.22527l-1.99946,2.89859a8.18766,8.18766,0,0,0-4.54495-1.72436c-1.474,0-2.24993.67333-2.24993,1.52317v.04927c0,1.14958.7514,1.52731,3.77314,2.29919,3.54723.92377,5.54668,2.20061,5.54668,5.247v.04924c0,3.47338-2.64811,5.41949-6.42125,5.41949a11.13024,11.13024,0,0,1-7.41884-2.796" fill="#fff"/>
  </g>
  <g>
    <rect x="37" y="53" width="33" height="17" fill="#d99e2b"/>
    <g>
      <path d="M40.05563,66.966h7.19661V65.24271H41.745V62.2975h4.82041V60.57425H41.745V57.72294h5.43874V55.99969H40.05563Z"/>
      <path d="M48.15627,66.966h1.86832l1.06757-2.6268h4.9082l1.05281,2.6268h1.9277l-4.5671-10.95841h-1.6904Zm3.60316-4.321,1.77945-4.35241L55.33309,62.645Z"/>
      <path d="M59.87536,66.966h1.62869V63.44109h1.84026a3.50288,3.50288,0,0,0,3.70715-3.74426v-.03124a3.3623,3.3623,0,0,0-3.52185-3.6659H59.87536Zm1.62869-5.26364V57.75418h1.89333a1.80657,1.80657,0,0,1,1.99894,1.95836V59.744a1.86935,1.86935,0,0,1-1.99894,1.95836Z"/>
    </g>
  </g>
  <g>
    <rect x="37" y="53" width="33" height="17" fill="#d99e2b"/>
    <g>
      <path d="M40.05563,66.966h7.19661V65.24271H41.745V62.2975h4.82041V60.57425H41.745V57.72294h5.43874V55.99969H40.05563Z"/>
      <path d="M48.15627,66.966h1.86832l1.06757-2.6268h4.9082l1.05281,2.6268h1.9277l-4.5671-10.95841h-1.6904Zm3.60316-4.321,1.77945-4.35241L55.33309,62.645Z"/>
      <path d="M59.87536,66.966h1.62869V63.44109h1.84026a3.50285,3.50285,0,0,0,3.70715-3.74426v-.03124a3.36233,3.36233,0,0,0-3.52185-3.6659H59.87536Zm1.62869-5.26364V57.75418h1.89333a1.80658,1.80658,0,0,1,1.99894,1.95836V59.744a1.86938,1.86938,0,0,1-1.99894,1.95836Z"/>
    </g>
  </g>
</svg>
