<svg xmlns="http://www.w3.org/2000/svg" width="502" height="64" fill="none" viewBox="0 0 502 64">
  <defs>
    <linearGradient id="a" x1="55.5087" x2="8.00852" y1="9" y2="55.5074" gradientUnits="userSpaceOnUse">
      <stop stop-color="#B74AF7"/>
      <stop offset="1" stop-color="#21D789"/>
    </linearGradient>
  </defs>
  <path fill="#000" d="M86.51 40.5839c0 .8464-.18 1.5932-.54 2.2504-.36.6572-.86 1.165-1.52 1.5234-.66.3585-1.4.5377-2.25.5377H78v6.1039h5.1c1.92 0 3.64-.4282 5.17-1.2845 1.53-.8563 2.73-2.0413 3.6-3.5448.87-1.5036 1.31-3.1963 1.31-5.0882v-20.064h-6.66v19.5661h-.01Zm17.93-1.8222h13.95v-5.6059h-13.95V26.793h15.42v-5.7752H97.95v29.9715h22.34v-5.7752h-15.85v-6.4524Zm17.94-11.7994h8.92v24.0171h6.66V26.9623h8.88v-5.9445h-24.47v5.9545l.01-.01Zm47.23 9.0014c-.52-.2788-1.09-.4879-1.68-.6472.45-.1295.88-.2888 1.28-.4879 1.1-.5676 1.97-1.3642 2.59-2.3898.62-1.0256.94-2.2005.94-3.5348 0-1.5235-.42-2.8876-1.25-4.0925-.83-1.1949-2-2.1308-3.5-2.8079-1.5-.6672-3.22-1.0057-5.14-1.0057h-13.37v29.9715h13.63c2.02 0 3.82-.3485 5.41-1.0555 1.58-.7069 2.81-1.6828 3.69-2.9473.87-1.2547 1.31-2.6885 1.31-4.3016 0-1.4836-.34-2.808-1.03-3.9829-.69-1.175-1.64-2.0811-2.87-2.7283l-.01.0099Zm-13.67-9.9175h5.91c.82 0 1.54.1494 2.17.4382.63.2887 1.12.7069 1.47 1.2546.35.5377.53 1.1749.53 1.9018 0 .7269-.18 1.414-.53 1.9815-.35.5676-.84.9958-1.47 1.3044-.63.3087-1.35.4581-2.17.4581h-5.91v-7.3485.0099Zm10.18 18.1323c-.38.5676-.92 1.0057-1.61 1.3144-.7.3087-1.49.458-2.4.458h-6.17v-7.687h6.17c.89 0 1.68.1692 2.38.4978.69.3286 1.24.7867 1.62 1.3841.38.5974.58 1.2745.58 2.0412 0 .7668-.19 1.4239-.57 1.9915Zm29.73-5.3072c1.67-.7966 2.96-1.9218 3.88-3.3656.92-1.4438 1.38-3.1167 1.38-5.0285 0-1.9118-.45-3.5249-1.35-4.9587-.9-1.4339-2.18-2.5391-3.83-3.3258-1.65-.7866-3.56-1.1749-5.74-1.1749h-13.18v29.9715h6.67V40.0761h4.34l6.11 10.9132h7.61l-6.88-11.7197c.34-.1195.68-.249 1-.3983h-.01Zm-2.16-6.1238c-.37.6273-.9 1.1152-1.59 1.4438-.69.3386-1.5.5078-2.43.5078h-6v-8.2944h6c.93 0 1.74.1693 2.43.4979.69.3285 1.22.8165 1.59 1.4338.37.6174.56 1.3542.56 2.1906 0 .8364-.19 1.5733-.56 2.2006v.0199Zm20.67-11.7297-10.75 29.9715h6.77l2.13-6.6116h11.16l2.28 6.6116h6.64l-11-29.9715h-7.23Zm-.34 18.3414 3.46-10.5747.41-1.9218.41 1.9218 3.7 10.5747h-7.98Zm20.79 11.6301h6.88V21.0178h-6.88v29.9715Zm31.14-9.6984-12.94-20.2731h-6.49v29.9715h6.08V30.7162l12.88 20.2731h6.56V21.0178h-6.08v20.2731h-.01Zm28.93-6.4922c-1.18-.8464-2.52-1.404-4.04-1.6927l-5.12-1.0455c-.8-.1892-1.44-.5178-1.91-.9958-.47-.4779-.71-1.0754-.71-1.7823 0-.6473.17-1.2049.52-1.6828.34-.478.83-.8464 1.45-1.1152.62-.2689 1.34-.3983 2.16-.3983.82 0 1.56.1394 2.19.4182.63.2788 1.12.6671 1.47 1.1749.35.5079.53 1.0754.53 1.7226h6.67c-.04-1.7425-.53-3.2859-1.45-4.6202-.92-1.3442-2.21-2.3897-3.85-3.1465-1.64-.7567-3.52-1.1351-5.62-1.1351s-3.96.3883-5.59 1.175c-1.63.7866-2.91 1.8719-3.82 3.266-.91 1.394-1.37 2.9772-1.37 4.7596 0 1.4438.29 2.7482.88 3.9032.59 1.165 1.42 2.1309 2.49 2.8976 1.08.7667 2.32 1.3044 3.74 1.6031l5.42 1.1153c.89.2091 1.59.5974 2.11 1.155.52.5576.77 1.2447.77 2.0811 0 .6671-.19 1.2745-.57 1.8023-.38.5277-.91.936-1.59 1.2247-.68.2888-1.48.4282-2.4.4282-.92 0-1.79-.1593-2.54-.478-.75-.3186-1.33-.7766-1.74-1.3741-.42-.5875-.62-1.2745-.62-2.0412h-6.67c.03 1.8719.53 3.5149 1.52 4.9488.98 1.4239 2.33 2.5391 4.05 3.3357 1.72.7966 3.69 1.1948 5.91 1.1948s4.22-.4082 5.94-1.2247c1.73-.8165 3.07-1.9417 4.04-3.3755.97-1.4339 1.45-3.0569 1.45-4.8692 0-1.4836-.33-2.8478-.98-4.1024-.65-1.2447-1.57-2.2902-2.74-3.1365l.02.0099Zm28.55-13.7809-10.92 29.9715h5.55l2.36-7.1892h12.08l2.56 7.1892h5.42l-11.27-29.9715h-5.78Zm-1.68 18.5803 4.06-12.0085.45-1.862.47 1.862 4.32 12.0085h-9.31.01Zm27.92-5.6756c.94-.5975 2-.8962 3.17-.8962.8 0 1.56.1494 2.26.4481.7.2987 1.31.7169 1.84 1.2546.52.5377.94 1.175 1.24 1.9118h5.4c-.39-1.5932-1.09-3.0071-2.1-4.2318-1.01-1.2248-2.26-2.1707-3.75-2.8478-1.49-.6771-3.12-1.0157-4.9-1.0157-2.15 0-4.1.4979-5.84 1.4936-1.74.9957-3.11 2.3699-4.11 4.1223-1 1.7525-1.49 3.7042-1.49 5.855 0 2.1507.5 4.1024 1.49 5.8549.99 1.7524 2.37 3.1266 4.11 4.1223 1.74.9957 3.69 1.4936 5.84 1.4936 1.78 0 3.41-.3386 4.9-1.0157 1.49-.6771 2.74-1.623 3.75-2.8478 1.01-1.2147 1.71-2.6287 2.1-4.2318h-5.4c-.3.7468-.71 1.3841-1.24 1.9118-.52.5377-1.14.9559-1.84 1.2546-.7.2987-1.46.4481-2.26.4481-1.18 0-2.23-.2987-3.17-.9061-.94-.6074-1.67-1.4438-2.2-2.5093-.53-1.0654-.8-2.2603-.8-3.5846s.27-2.5391.8-3.6046c.53-1.0654 1.26-1.8918 2.2-2.4893v.01Zm33.96-1.5434c-.72-1.0953-1.62-1.9716-2.74-2.6287-1.37-.7966-2.96-1.1949-4.78-1.1949-1.96 0-3.72.4879-5.26 1.4637-1.54.9758-2.75 2.34-3.62 4.0925-.87 1.7524-1.31 3.724-1.31 5.9246 0 2.2005.44 4.1721 1.31 5.9146.87 1.7525 2.09 3.1067 3.63 4.0925 1.55.9758 3.3 1.4637 5.25 1.4637 1.82 0 3.42-.3983 4.78-1.1949 1.12-.6572 2.02-1.5334 2.74-2.6287v3.3158h4.99v-21.936h-4.99v3.3158Zm-.82 11.2717c-.53 1.0455-1.27 1.8719-2.21 2.4594-.95.5975-2.04.8862-3.27.8862s-2.28-.2887-3.23-.8762c-.95-.5875-1.68-1.404-2.2-2.4595-.52-1.0554-.78-2.2702-.78-3.6443 0-1.3742.26-2.579.78-3.6245.52-1.0455 1.26-1.872 2.2-2.4595.95-.5875 2.02-.8862 3.23-.8862s2.32.2987 3.27.8862c.95.5875 1.68 1.414 2.21 2.4595.53 1.0455.8 2.2603.8 3.6245 0 1.3641-.27 2.5789-.8 3.6244v.01Zm27.33-11.3115c-.71-1.0754-1.61-1.9517-2.72-2.5889-1.37-.7966-2.96-1.1949-4.78-1.1949-1.96 0-3.72.4879-5.26 1.4637-1.54.9758-2.75 2.34-3.62 4.0925-.87 1.7524-1.31 3.724-1.31 5.9246 0 2.2005.44 4.1721 1.31 5.9146.87 1.7525 2.09 3.1067 3.63 4.0925 1.55.9758 3.3 1.4637 5.25 1.4637 1.82 0 3.42-.3983 4.78-1.1949 1.11-.6472 2.01-1.5135 2.72-2.5889v3.276h5.07V21.0178h-5.07v11.3314-.0099Zm-.8 11.3115c-.53 1.0455-1.27 1.8719-2.21 2.4594-.95.5975-2.04.8862-3.27.8862s-2.28-.2887-3.23-.8762c-.95-.5875-1.68-1.404-2.2-2.4595-.52-1.0554-.78-2.2702-.78-3.6443 0-1.3742.26-2.579.78-3.6245.52-1.0455 1.26-1.872 2.2-2.4595.95-.5875 2.02-.8862 3.23-.8862s2.32.2987 3.27.8862c.95.5875 1.68 1.414 2.21 2.4595.53 1.0455.8 2.2603.8 3.6245 0 1.3641-.27 2.5789-.8 3.6244v.01Zm26.83-13.6416c-1.69-.9658-3.62-1.4537-5.78-1.4537s-4.05.4978-5.79 1.4836c-1.74.9957-3.11 2.3599-4.12 4.1024-1 1.7426-1.5 3.6942-1.5 5.845s.5 4.1721 1.49 5.9345c1 1.7525 2.36 3.1266 4.08 4.1124 1.73.9858 3.67 1.4737 5.84 1.4737 1.71 0 3.26-.2589 4.67-.7866 1.41-.5278 2.6-1.2746 3.59-2.2504.99-.9658 1.74-2.1308 2.26-3.485h-5.53c-.56.7468-1.26 1.3243-2.11 1.7325-.85.4083-1.8.6174-2.86.6174-1.2 0-2.28-.2888-3.24-.8763-.96-.5874-1.7-1.4039-2.24-2.4495-.43-.8364-.68-1.7624-.78-2.7681h17.37v-1.2247c0-2.2305-.47-4.202-1.41-5.9446-.94-1.7325-2.25-3.0867-3.95-4.0526l.01-.01Zm-11.93 7.8365c.13-.717.34-1.3941.67-2.0214.54-1.0256 1.28-1.8222 2.24-2.3997.95-.5775 2.03-.8663 3.24-.8663 1.21 0 2.27.2987 3.19.8962.92.5974 1.64 1.4338 2.14 2.4893.28.5875.47 1.2248.59 1.8919h-12.07v.01Zm50.43-8.2348c-1.18-.7069-2.56-1.0554-4.12-1.0554-1.69 0-3.17.3983-4.43 1.1949-1.15.7268-2.04 1.7425-2.72 3.017-.02-.0498-.04-.0996-.06-.1493-.62-1.2945-1.49-2.3002-2.63-3.0072-1.14-.7069-2.49-1.0554-4.05-1.0554-1.56 0-2.97.3883-4.14 1.165-.99.6572-1.77 1.5732-2.38 2.7084v-3.3656h-4.92v21.926h5.07V38.2738c0-1.0654.19-2.0014.58-2.8079.39-.7966.94-1.414 1.66-1.8421.72-.4282 1.56-.6373 2.52-.6373.89 0 1.65.1892 2.29.5775.64.3883 1.13.936 1.46 1.6529.34.7169.5 1.5633.5 2.5491v13.2333h4.97V38.2838c0-1.0655.2-2.0014.59-2.808.39-.7966.95-1.4139 1.68-1.8421.72-.4282 1.56-.6373 2.5-.6373.89 0 1.65.1892 2.28.5776.63.3883 1.11.936 1.45 1.6529.34.7169.51 1.5633.51 2.5491v13.2332h5.07V37.1785c0-1.7226-.32-3.2361-.96-4.5405-.64-1.2945-1.55-2.3002-2.73-3.0071l.01-.02Zm21.41-.5476-5.4 15.0953-5.74-15.0953h-5.27l8.45 20.9602-.9 1.9018c-.23.458-.53.8065-.9 1.0555-.37.2489-.8.3784-1.27.3784h-3.42V57.83h3.72c1.5 0 2.81-.4282 3.91-1.2745 1.1-.8464 1.93-1.9815 2.47-3.3955l9.52-24.1067h-5.18l.01.01Z"/>
  <path fill="url(#a)" d="M20.34 3.66 3.66 20.34C1.32 22.68 0 25.86 0 29.18V59c0 2.76 2.24 5 5 5h29.82c3.32 0 6.49-1.32 8.84-3.66l16.68-16.68c2.34-2.34 3.66-5.52 3.66-8.84V5c0-2.76-2.24-5-5-5H29.18c-3.32 0-6.49 1.32-8.84 3.66Z"/>
  <path fill="#000" d="M48 16H8v40h40V16Z"/>
  <path fill="#fff" d="M30 47H13v4h17v-4Z"/>
</svg>
