<svg xmlns="http://www.w3.org/2000/svg" width="96" height="96" fill="none" viewBox="0 0 96 96">
  <defs>
    <linearGradient id="a" x1="83.263" x2="12.0128" y1="13.5" y2="83.2611" gradientUnits="userSpaceOnUse">
      <stop stop-color="#B74AF7"/>
      <stop offset="1" stop-color="#21D789"/>
    </linearGradient>
  </defs>
  <path fill="url(#a)" d="M30.51 5.49 5.49 30.51C1.98 34.02 0 38.79 0 43.77V88.5C0 92.64 3.36 96 7.5 96h44.73c4.98 0 9.735-1.98 13.26-5.49l25.02-25.02C94.02 61.98 96 57.21 96 52.23V7.5C96 3.36 92.64 0 88.5 0H43.77c-4.98 0-9.735 1.98-13.26 5.49Z"/>
  <path fill="#000" d="M72 24H12v60h60V24Z"/>
  <path fill="#fff" d="M45 71H19v6h26v-6Z"/>
</svg>
