<svg height="97" viewBox="0 0 418 97" width="418" xmlns="http://www.w3.org/2000/svg"
     xmlns:xlink="http://www.w3.org/1999/xlink">
  <linearGradient id="a" gradientUnits="userSpaceOnUse" x1="55.221" x2="-.326" y1="56.115" y2=".568">
    <stop offset=".233" stop-color="#21d789"/>
    <stop offset=".89" stop-color="#af1df5"/>
  </linearGradient>
  <path
    d="m135.62111 38.07136h9.40025l19.85937 47.27856h-10.65783l-4.23669-10.52892h-19.59476l-4.23669 10.5289h-10.39322zm10.72414 27.62957-6.15652-15.2232-6.15633 15.2232z"/>
  <path
    d="m165.93837 67.57881v-.13425a18.33678 18.33678 0 0 1 18.602-18.71c6.686 0 10.85634 2.27982 14.16637 6.03517l-6.15652 6.70643c-2.25076-2.41448-4.50151-3.95673-8.07616-3.95673-5.03115 0-8.6058 4.49292-8.6058 9.79093v.13425c0 5.499 3.50855 9.92478 9.003 9.92478 3.37613 0 5.693-1.47513 8.14246-3.82207l5.89151 6.03558c-3.44224 3.82206-7.41411 6.57176-14.49751 6.57176a18.23567 18.23567 0 0 1 -18.46935-18.57585z"/>
  <path
    d="m201.68442 75.02239v-.13425c0-7.84633 5.89171-11.46743 14.299-11.46743a24.92112 24.92112 0 0 1 8.67189 1.47553v-.60372c0-4.22482-2.58167-6.57217-7.61282-6.57217a25.802 25.802 0 0 0 -9.79728 1.945l-2.51557-7.77921a30.96464 30.96464 0 0 1 13.76936-2.88394c5.49448 0 9.46636 1.47553 11.98193 4.02426 2.64778 2.68216 3.83926 6.63889 3.83926 11.467v20.85646h-9.73119v-3.8896a13.56229 13.56229 0 0 1 -10.72415 4.56c-6.68595.00004-12.18043-3.88916-12.18043-10.99793zm23.1033-2.34694v-1.81075a15.43176 15.43176 0 0 0 -6.42134-1.34129c-4.3028 0-6.95078 1.74363-6.95078 4.9628v.13384c0 2.74929 2.25075 4.35907 5.49448 4.35907 4.70002 0 7.87764-2.61544 7.87764-6.30367z"/>
  <path
    d="m239.74713 67.44456v-.13425c0-12.004 7.74523-18.5758 16.15231-18.5758a13.56657 13.56657 0 0 1 11.05527 5.36473v-17.70439h10.06209v48.95507h-10.06209v-5.16376a12.98632 12.98632 0 0 1 -11.05527 5.8342c-8.27467 0-16.15231-6.57177-16.15231-18.5758zm27.33978 0v-.13425c0-5.96845-3.90556-9.92518-8.60559-9.92518s-8.67189 3.8896-8.67189 9.92518v.13425c0 5.96846 3.97187 9.92478 8.67189 9.92478s8.60559-3.95634 8.60559-9.92478z"/>
  <path
    d="m282.64165 67.57881v-.13425c0-10.2604 7.2156-18.71 17.54251-18.71 11.84952 0 17.27769 9.32146 17.27769 19.51474 0 .80469-.0661 1.74363-.1322 2.68257h-24.692c.993 4.62717 4.17039 7.04124 8.6719 7.04124 3.37613 0 5.8254-1.07279 8.60579-3.68823l5.7591 5.16376a17.6563 17.6563 0 0 1 -14.4973 6.706c-10.65805-.00003-18.53549-7.57786-18.53549-18.57583zm25.02293-3.0182c-.59574-4.56-3.24373-7.64495-7.48042-7.64495-4.17059 0-6.88468 3.01779-7.67913 7.64495z"/>
  <path
    d="m323.28582 49.405h10.06189v5.09664c2.31707-3.01779 5.36228-5.76708 10.45933-5.76708 4.63412 0 8.14267 2.07844 9.996 5.7 3.11152-3.68863 6.81858-5.7 11.651-5.7 7.48042 0 11.98193 4.55964 11.98193 13.21066v23.4047h-10.0621v-20.05174c0-4.82814-2.11855-7.30933-5.89171-7.30933-3.77336 0-6.09022 2.48119-6.09022 7.30933v20.05174h-10.0623v-20.05174c0-4.82814-2.11814-7.30933-5.8915-7.30933s-6.09043 2.48119-6.09043 7.30933v20.05174h-10.06189z"/>
  <path
    d="m406.82616 49.405h10.45932l-13.63674 36.81674c-2.71429 7.30973-5.62709 10.059-11.651 10.059a16.50058 16.50058 0 0 1 -8.93692-2.48119l3.37634-7.37646a9.062 9.062 0 0 0 4.3028 1.408c1.72111 0 2.648-.53619 3.50854-2.34695l-13.90178-36.07914h10.658l8.07616 24.47713z"/>
  <path d="m85 .894v85l-85-.001z"/>
  <path d="M74.4052,75.26834H53.128V70.5807H74.4052Z" fill="#fff"/>
  <path d="m0 85.894v-85h85z" fill="url(#a)"/>
  <path
    d="m113.95242 22.9821 2.17965-1.87391c1.64425 2.4854 3.32654 3.8239 6.11837 3.8239 3.02079 0 5.23848-2.17965 5.23848-6.42411v-17.93453h3.05953v17.89648c0 3.13562-.91793 5.50618-2.44735 7.0363a8.21008 8.21008 0 0 1 -5.8894 2.21769 9.16526 9.16526 0 0 1 -8.25928-4.74182z"/>
  <path
    d="m136.06363 17.514v-.07679c0-5.69779 4.0155-10.28674 9.48364-10.28674 5.85067 0 9.21594 4.66573 9.21594 10.43962a7.57889 7.57889 0 0 1 -.03873.956h-15.6781c.42057 4.2832 3.44136 6.69251 6.95951 6.69251a8.183 8.183 0 0 0 6.23319-2.79183l1.83586 1.64424a10.20634 10.20634 0 0 1 -8.14514 3.70899c-5.4301 0-9.86617-4.16768-9.86617-10.286zm15.71684-1.14759c-.30575-3.59423-2.37126-6.72985-6.31-6.72985-3.44137 0-6.04159 2.86792-6.42411 6.72985z"/>
  <path
    d="m160.29084 22.10221v-11.93029h-2.75309v-2.60022h2.75309v-5.9655h2.944v5.9655h6.27193v2.60022h-6.27193v11.54846c0 2.40861 1.3385 3.28849 3.32723 3.28849a6.19819 6.19819 0 0 0 2.86793-.68827v2.5234a7.406 7.406 0 0 1 -3.55619.84184c-3.17367.00003-5.58297-1.56812-5.58297-5.58363z"/>
  <path
    d="m174.40148.57345h11.39559a9.83115 9.83115 0 0 1 6.99756 2.37125 5.94376 5.94376 0 0 1 1.721 4.28251v.07679a6.46149 6.46149 0 0 1 -4.24447 6.19445c3.17366.956 5.73584 2.79183 5.73584 6.46285v.07609c0 4.589-3.86263 7.304-9.7133 7.304h-11.89222zm17.05465 7.07434c0-2.63827-2.10287-4.3593-5.92676-4.3593h-8.14514v9.216h7.91548c3.633 0 6.15642-1.64425 6.15642-4.77987zm-5.621 7.53365h-8.45088v9.4449h8.98628c4.05355 0 6.577-1.79712 6.577-4.77986v-.07679c-.00003-2.90596-2.44738-4.58825-7.11242-4.58825z"/>
  <path
    d="m201.65364 7.5717h2.9447v5.16239c1.45333-3.28918 4.32125-5.65975 8.06836-5.50688v3.17367h-.2297c-4.32055 0-7.8387 3.09757-7.8387 9.06307v7.87744h-2.9447z"/>
  <path
    d="m215.076 21.60555v-.07678c0-4.16769 3.44206-6.38607 8.45089-6.38607a21.00763 21.00763 0 0 1 6.08032.84115v-.68828c0-3.55619-2.17965-5.39135-5.88871-5.39135a13.768 13.768 0 0 0 -6.00354 1.45263l-.87989-2.40861a16.31955 16.31955 0 0 1 7.18917-1.64424c2.79183 0 4.93274.72631 6.38607 2.17964a7.803 7.803 0 0 1 2.02677 5.77389v12.08386h-2.82987v-2.98275a8.6643 8.6643 0 0 1 -7.15113 3.40332c-3.67032.00004-7.38008-2.10286-7.38008-6.15641zm14.56925-1.52942v-1.91195a20.59337 20.59337 0 0 0 -5.81193-.84183c-3.70975 0-5.77457 1.6062-5.77457 4.09159v.07678c0 2.48539 2.29447 3.93872 4.97147 3.93872 3.63229 0 6.61503-2.21769 6.61503-5.35331z"/>
  <path d="m238.43855 0h3.36527v3.25045h-3.36527zm.19092 7.5717h2.9447v19.76969h-2.9447z"/>
  <path
    d="m247.99275 7.5717h2.9447v3.44136a7.48641 7.48641 0 0 1 6.76855-3.86263c4.77987 0 7.571 3.2124 7.571 7.91618v12.27478h-2.944v-11.54846c0-3.671-1.98873-5.9655-5.46883-5.9655a5.81656 5.81656 0 0 0 -5.92676 6.19515v11.31881h-2.9447z"/>
  <path
    d="m269.60037 24.81726 1.49138-2.10286a11.55653 11.55653 0 0 0 6.84468 2.52413c2.37126 0 4.0916-1.22368 4.0916-3.13632v-.07609c0-1.98873-2.33252-2.75309-4.93274-3.4801-3.09758-.87919-6.53894-1.95-6.53894-5.583v-.07602c0-3.40332 2.82987-5.65975 6.73055-5.65975a13.51546 13.51546 0 0 1 7.11238 2.17965l-1.3385 2.21769a11.18182 11.18182 0 0 0 -5.85067-1.91194c-2.33252 0-3.82389 1.22367-3.82389 2.86792v.07678c0 1.8739 2.44735 2.60022 5.08561 3.40332 3.05953.91793 6.348 2.10355 6.348 5.65975v.07609c0 3.7478-3.09757 5.92745-7.03629 5.92745a13.59323 13.59323 0 0 1 -8.18317-2.9067z"/>
</svg>
