<svg xmlns="http://www.w3.org/2000/svg" width="48" height="34" fill="none" viewBox="0 0 48 34">
  <defs>
    <linearGradient id="a" x1=".00025704" x2=".00025703" y1=".268555" y2="33.6979" gradientUnits="userSpaceOnUse">
      <stop stop-color="#C3C3FF"/>
      <stop offset="1" stop-color="#1A1ABC"/>
    </linearGradient>
  </defs>
  <path fill="url(#a)" d="M23.8977.268555c3.078 0 5.6873 3.751235 6.6016 8.948245C31.5857 4.19294 34.1139.655836 37.3626.344727c4.9137-.47015 9.6116 6.617823 10.4931 15.831073.8814 9.2131-2.3871 17.063-7.3008 17.5332-4.7307.4523-9.2605-6.101-10.3779-14.8115-1.1167 4.3987-3.5081 7.4394-6.2793 7.4394-2.6646-.0001-4.9778-2.8116-6.1445-6.9385C16.529 27.8583 12.0833 34.153 7.44362 33.709 2.52993 33.2384-.738447 25.388.143812 16.1748 1.02611 6.96201 5.72445-.12541 10.6379.344727c3.142.300878 5.6086 3.620253 6.75 8.382813.9882-4.94146 3.5293-8.458834 6.5098-8.458985Z"/>
</svg>
