<svg xmlns="http://www.w3.org/2000/svg" width="64" height="64" fill="none" viewBox="0 0 64 64">
  <path fill="#3574F0" d="M48.1621 20.3371c1.0028-.4628 2.1904-.0252 2.6533.9775.4629 1.0029.0254 2.1904-.9775 2.6533L34 31.2775v17.7207c0 1.1046-.8954 2-2 2s-2-.8954-2-2V31.2775l-15.8379-7.3096c-1.0028-.4629-1.4404-1.6504-.9775-2.6533.4629-1.0027 1.6505-1.4403 2.6533-.9775L32 27.7961l16.1621-7.459Z"/>
  <path fill="#3574F0" d="M29.9043 4.76481c1.3294-.6135 2.862-.6135 4.1914 0l23 10.61519c1.7703.8173 2.9041 2.59 2.9043 4.5401v24.0732c0 1.9448-1.1276 3.7138-2.8906 4.5342L34.1035 59.2277c-1.3322.6196-2.8699.6227-4.2041.0068L6.9043 48.6213c-1.65986-.7664-2.76061-2.3722-2.8916-4.1768L4 44.0812V19.9201c.00022-1.9501 1.1339-3.7228 2.9043-4.5401l23-10.61519Zm2.5146 3.63183c-.2657-.12249-.5721-.12249-.8378 0L8.58105 19.0119c-.35406.1634-.58083.5184-.58105.9082v24.1611l.01074.1445c.04831.3313.26052.6207.57031.7637L31.5762 55.6027c.2667.123.5743.122.8408-.002l23.0049-10.7002.126-.0703c.2793-.183.4521-.4966.4521-.8369V19.9201c-.0002-.3898-.227-.7448-.5811-.9082l-23-10.61526Z"/>
</svg>
