<svg xmlns="http://www.w3.org/2000/svg" width="244" height="48" fill="none" viewBox="0 0 244 48">
  <defs>
    <linearGradient id="a" x1="4.36217" x2="42.3928" y1="4.3052" y2="42.3358" gradientUnits="userSpaceOnUse">
      <stop offset=".05481" stop-color="#009AE5"/>
      <stop offset=".80429" stop-color="#AF1DF5"/>
    </linearGradient>
  </defs>
  <path fill="#fff" d="M77.2 14.7295c1.49-.92 3.16-1.38 5-1.38 1.36 0 2.61.23 3.78.69 1.17.46 2.16 1.11 3 1.97.84.86 1.46 1.85 1.87 3h5.61c-.48-2.05-1.39-3.88-2.73-5.47-1.34-1.59-3-2.83-5-3.69997-2-.88-4.19-1.32-6.57-1.32-2.85 0-5.43.67-7.74 2.01997-2.3 1.35-4.12 3.2-5.44 5.56-1.32 2.36-1.98 5-1.98 7.91s.66 5.55 1.98 7.91c1.32 2.36 3.13 4.22 5.44 5.56 2.3 1.35 4.88 2.02 7.74 2.02 2.38 0 4.57-.44 6.57-1.32 2-.88 3.66-2.11 5-3.7 1.34-1.59 2.24-3.41 2.73-5.47h-5.61c-.41 1.14-1.04 2.14-1.87 3-.83.86-1.83 1.51-3 1.97-1.17.46-2.42.68-3.78.68-1.84 0-3.51-.46-5-1.38-1.49-.92-2.66-2.19-3.5-3.81-.84-1.62-1.26-3.44-1.26-5.47s.42-3.85 1.26-5.47c.84-1.62 2.01-2.89 3.5-3.81v.01Zm36.31 2.77c-1.33-.63-2.88-.94-4.67-.94s-3.24.3-4.57.89c-1.33.59-2.4 1.41-3.19 2.44s-1.27 2.2-1.42 3.5h4.99c.07-.51.28-.97.63-1.38.35-.41.82-.73 1.42-.97s1.29-.36 2.08-.36 1.49.13 2.08.4c.58.26 1.03.64 1.35 1.13.31.49.47 1.07.47 1.74v.44c-.06.29-.15.54-.3.72-.23.29-.54.45-.92.49l-5.42.62c-1.37.14-2.6.54-3.68 1.19-1.08.65-1.93 1.47-2.55 2.47-.61 1-.92 2.1-.92 3.3 0 1.2.32 2.3.95 3.26.63.96 1.51 1.72 2.62 2.26 1.11.54 2.38.81 3.79.81 1.58 0 2.94-.35 4.08-1.04 1.01-.62 1.8-1.49 2.39-2.6v3.13h4.99v-14.53c0-1.61-.37-3.02-1.1-4.22-.73-1.2-1.77-2.11-3.09-2.74l-.01-.01Zm-.84 13.29c0 .96-.2 1.79-.6 2.51-.4.72-.97 1.28-1.71 1.67-.74.39-1.59.59-2.55.59-.74 0-1.4-.12-1.97-.36-.57-.24-1.01-.59-1.33-1.05-.31-.46-.47-.98-.47-1.56 0-.58.14-1.09.41-1.55.27-.46.65-.85 1.13-1.15.48-.3 1.04-.48 1.67-.56l5.42-.63v2.09Zm26.19-10.44c-.71-1.07-1.61-1.95-2.71-2.59-1.36-.8-2.95-1.2-4.76-1.2-1.96 0-3.7.49-5.23 1.47-1.53.98-2.74 2.34-3.61 4.09-.87 1.75-1.31 3.72-1.31 5.92 0 2.2.44 4.17 1.31 5.92.87 1.75 2.08 3.11 3.62 4.09s3.28 1.47 5.22 1.47c1.81 0 3.4-.4 4.76-1.2 1.1-.65 2-1.52 2.71-2.59v3.28h5.05V9.01953h-5.05V20.3495Zm-.79 11.31c-.53 1.05-1.26 1.87-2.21 2.46-.94.59-2.03.89-3.25.89-1.22 0-2.27-.29-3.21-.88-.94-.58-1.67-1.4-2.19-2.46s-.78-2.27-.78-3.64.26-2.58.78-3.63c.52-1.05 1.25-1.87 2.19-2.46.94-.59 2.01-.89 3.21-.89 1.2 0 2.31.3 3.25.89.94.59 1.68 1.41 2.21 2.46s.79 2.26.79 3.63-.26 2.58-.79 3.63Zm26.7-13.65c-1.68-.97-3.6-1.46-5.76-1.46-2.16 0-4.03.5-5.77 1.49-1.74.99-3.1 2.36-4.1 4.1-1 1.74-1.5 3.69-1.5 5.84s.5 4.17 1.49 5.93c.99 1.75 2.35 3.12 4.07 4.11 1.72.98 3.66 1.48 5.81 1.48 1.7 0 3.25-.26 4.64-.79 1.4-.53 2.59-1.28 3.57-2.25s1.73-2.13 2.25-3.49h-5.5c-.56.74-1.25 1.32-2.1 1.73-.84.41-1.79.62-2.85.62-1.2 0-2.27-.29-3.22-.88-.95-.58-1.69-1.4-2.23-2.45-.43-.83-.68-1.76-.78-2.77h17.29v-1.22c0-2.23-.47-4.21-1.4-5.94-.93-1.73-2.24-3.08-3.93-4.06l.02.01Zm-11.87 7.84c.13-.72.34-1.4.67-2.02.54-1.02 1.28-1.82 2.23-2.4.95-.58 2.02-.87 3.22-.87 1.2 0 2.26.3 3.18.9.92.6 1.63 1.43 2.13 2.49.28.59.47 1.22.59 1.89H152.9v.01Zm36.76-8.27c-1.18-.69-2.56-1.03-4.13-1.03-1.68 0-3.15.39-4.4 1.18-1 .63-1.82 1.49-2.45 2.55v-3.21h-4.9v21.92h5.05v-12.69c0-1.03.21-1.94.63-2.75.42-.81 1.02-1.43 1.79-1.88.77-.45 1.65-.67 2.65-.67.93 0 1.73.2 2.4.59.67.39 1.18.96 1.54 1.7.36.74.54 1.64.54 2.7v13.01h5.03v-13.78c0-1.8-.33-3.35-.98-4.64-.65-1.29-1.58-2.29-2.76-2.97l-.01-.03Zm15.46 4.35c.93-.6 1.99-.9 3.16-.9.8 0 1.55.15 2.25.45.7.3 1.31.72 1.83 1.25.52.54.93 1.17 1.23 1.92h5.37c-.39-1.6-1.08-3.01-2.09-4.23-1.01-1.22-2.25-2.17-3.73-2.85-1.48-.68-3.11-1.02-4.88-1.02-2.14 0-4.08.5-5.81 1.5-1.73 1-3.1 2.37-4.09 4.12-.99 1.75-1.49 3.7-1.49 5.85 0 2.15.5 4.11 1.49 5.85.99 1.75 2.35 3.12 4.09 4.12 1.74 1 3.67 1.5 5.81 1.5 1.77 0 3.4-.34 4.88-1.02 1.48-.68 2.73-1.63 3.73-2.85 1.01-1.22 1.7-2.63 2.09-4.23h-5.37c-.3.74-.71 1.38-1.23 1.92s-1.13.95-1.83 1.25c-.7.3-1.45.45-2.25.45-1.17 0-2.22-.3-3.16-.91-.94-.61-1.67-1.44-2.19-2.5-.53-1.06-.79-2.26-.79-3.58 0-1.32.26-2.54.79-3.61.53-1.06 1.26-1.89 2.19-2.49v.01Zm38.47 6.08c0-2.23-.47-4.21-1.4-5.94-.93-1.73-2.24-3.08-3.93-4.06-1.68-.97-3.6-1.46-5.76-1.46-2.16 0-4.03.5-5.77 1.49-1.74.99-3.1 2.36-4.1 4.1-1 1.74-1.5 3.69-1.5 5.84s.5 4.17 1.49 5.93c.99 1.75 2.35 3.12 4.07 4.11 1.72.98 3.66 1.48 5.81 1.48 1.7 0 3.25-.26 4.64-.79 1.4-.53 2.59-1.28 3.57-2.25s1.73-2.13 2.25-3.49h-5.5c-.56.74-1.25 1.32-2.1 1.73-.84.41-1.79.62-2.85.62-1.2 0-2.27-.29-3.22-.88-.95-.58-1.69-1.4-2.23-2.45-.43-.83-.68-1.76-.78-2.77h17.29v-1.22l.02.01Zm-17.21-2.16c.13-.72.34-1.4.67-2.02.54-1.02 1.28-1.82 2.23-2.4.95-.58 2.02-.87 3.22-.87 1.2 0 2.26.3 3.18.9.92.6 1.63 1.43 2.13 2.49.28.59.47 1.22.59 1.89h-12.02v.01Z"/>
  <path fill="url(#a)" d="M29.1507 36.1642V11.654c.9788.2694 1.9591.4233 2.9635.4233.4401 0 .874-.0302 1.3031-.0826v24.027c-.5207-.0857-1.0459-.1332-1.5752-.1332-.9251 0-1.8194.0986-2.6914.2757Zm11.558 3.5705V8.6199c-1.3226 1.06728-2.7495 1.9657-4.2667 2.5792V36.968c1.4928.6828 2.9241 1.6469 4.2667 2.7667Zm3.0246-34.00243V42.6424c1.6471 1.7923 3.0793 3.6903 4.2229 5.3576H48V.020848C46.8654 1.8265 45.4278 3.85787 43.7333 5.73227ZM1.73378 47.8417c.87272 0 1.71556-.0524 2.53288-.148V.80232C2.20286.377688.484696.081776 0 0v47.8652c.341472-.0142.886064-.0235 1.73378-.0235Zm9.81932-2.2813V2.70998c-1.1609-.43684-2.6925-.8603-4.26665-1.23843V47.1203c1.50319-.3957 2.91805-.9325 4.26665-1.5599Zm14.5729-8.4569V10.4914c-1.3633-.65222-2.7672-1.46319-4.2667-2.34994V39.3413c1.4088-.8636 2.8174-1.6403 4.2667-2.2378Zm-7.2864 4.1759V6.36334c-1.326-.76498-2.7386-1.54468-4.2667-2.29616V43.9695c1.4748-.8586 2.8848-1.7832 4.2667-2.6901Z"/>
</svg>
