<svg xmlns="http://www.w3.org/2000/svg" width="48" height="48" fill="none" viewBox="0 0 48 48">
  <defs>
    <linearGradient id="a" x1="4.36217" x2="42.3928" y1="4.3052" y2="42.3358" gradientUnits="userSpaceOnUse">
      <stop offset=".05481" stop-color="#009AE5"/>
      <stop offset=".80429" stop-color="#AF1DF5"/>
    </linearGradient>
  </defs>
  <path fill="url(#a)" d="M29.1507 36.1642V11.654c.9788.2694 1.9591.4233 2.9635.4233.4401 0 .874-.0302 1.3031-.0826v24.027c-.5207-.0857-1.0459-.1332-1.5752-.1332-.9251 0-1.8194.0986-2.6914.2757Zm11.558 3.5705V8.6199c-1.3226 1.06728-2.7495 1.9657-4.2667 2.5792V36.968c1.4928.6828 2.9241 1.6469 4.2667 2.7667Zm3.0246-34.00243V42.6424c1.6471 1.7923 3.0793 3.6903 4.2229 5.3576H48V.020848C46.8654 1.8265 45.4278 3.85787 43.7333 5.73227ZM1.73378 47.8417c.87272 0 1.71556-.0524 2.53288-.148V.80232C2.20286.377688.484696.081776 0 0v47.8652c.341472-.0142.886064-.0235 1.73378-.0235Zm9.81932-2.2813V2.70998c-1.1609-.43684-2.6925-.8603-4.26665-1.23843V47.1203c1.50319-.3957 2.91805-.9325 4.26665-1.5599Zm14.5729-8.4569V10.4914c-1.3633-.65222-2.7672-1.46319-4.2667-2.34994V39.3413c1.4088-.8636 2.8174-1.6403 4.2667-2.2378Zm-7.2864 4.1759V6.36334c-1.326-.76498-2.7386-1.54468-4.2667-2.29616V43.9695c1.4748-.8586 2.8848-1.7832 4.2667-2.6901Z"/>
</svg>
