<svg enable-background="new 0 0 70 70" height="70" viewBox="0 0 70 70" width="70" xmlns="http://www.w3.org/2000/svg"><path d="m0 58.5v.2c0 6.2 5.2 11.3 11.6 11.3s11.6-5.1 11.6-11.3v-12.4z"/><path d="m69.9 58.5c-.2-2.4-1.3-4.7-3-6.4v-.1l-20.8-17.7-20.1 10.5 26.1 22.6c2 1.7 4.5 2.5 7.1 2.5h.9c2.9-.2 5.5-1.6 7.3-3.7 1.9-2.1 2.8-4.9 2.5-7.7z"/><path d="m23.1 12.8v-1.2c0-.1 0-.2 0-.3 0-6.2-5.2-11.3-11.6-11.3-6.3 0-11.5 5.1-11.5 11.3v13.8z"/><path d="m0 29.9 54.1-28.7c1.6-.8 3.3-1.2 5.1-1.2 1.1 0 2.2.2 3.3.5 5.7 1.8 8.8 7.7 6.9 13.2-.8 2.3-2.3 4.3-4.4 5.5v.1l-.7.4-64.3 33.8zm3.2 18.4 59.7-31.3.3-.2c1.5-.9 2.5-2.3 3.1-3.9.6-1.8.5-3.9-.5-5.6-.9-1.8-2.5-3-4.4-3.7-.8-.2-1.5-.4-2.3-.4-1.2 0-2.5.3-3.5.9l-52.4 27.7z"/></svg>