<svg enable-background="new 0 0 92.1 20" viewBox="0 0 92.1 20" xmlns="http://www.w3.org/2000/svg" xmlns:xlink="http://www.w3.org/1999/xlink"><radialGradient id="a" cx="18.306727" cy="1.534258" gradientUnits="userSpaceOnUse" r="21.685762"><stop offset=".003435144" stop-color="#e44857"/><stop offset=".4689" stop-color="#c711e1"/><stop offset="1" stop-color="#7f52ff"/></radialGradient><path d="m18.9 19.7h-18.9v-18.9h18.9l-9.6 9.3z" fill="url(#a)"/><path d="m41.8.7h-3.8l-8.2 8.8v-8.7h-3v18.9h3v-9.2l8.2 9.2h3.9l-8.7-9.8z"/><path d="m52 6.4c-1.1-.6-2.3-.9-3.6-.9-1.4 0-2.6.3-3.7.9s-2 1.5-2.6 2.6-.9 2.4-.9 3.7c0 1.4.3 2.6.9 3.7s1.5 2 2.5 2.6c1.1.6 2.3.9 3.7.9s2.6-.3 3.7-.9 1.9-1.5 2.5-2.6.9-2.4.9-3.7c0-1.4-.3-2.6-.9-3.7s-1.4-1.9-2.5-2.6zm-.2 8.7c-.3.7-.8 1.2-1.4 1.6s-1.3.6-2.1.6-1.5-.2-2.1-.6-1.1-.9-1.4-1.6-.5-1.5-.5-2.4.2-1.7.5-2.4.8-1.2 1.4-1.6 1.3-.6 2.1-.6 1.5.2 2.1.6 1.1.9 1.4 1.6.5 1.5.5 2.4c0 1-.1 1.8-.5 2.4z"/><path d="m61.6 2.4h-2.9v2.4c0 .4-.1.7-.3.8-.2.2-.5.3-.8.3h-1.4v2.5h2.5v7.5c0 .8.2 1.5.5 2.1s.8 1.1 1.3 1.4c.6.3 1.3.5 2.1.5h2.2v-2.6h-1.8c-.4 0-.8-.2-1.1-.5s-.4-.7-.4-1.2v-7.3h3.2v-2.5h-3.2z"/><path d="m67.1 0h3v19.7h-3z"/><path d="m73.4 0h3v3.1h-3z"/><path d="m73.4 5.8h3v13.8h-3z"/><path d="m91.5 8.1c-.4-.8-1-1.5-1.8-1.9-.8-.5-1.7-.7-2.7-.7-1.1 0-2 .3-2.8.8-.7.4-1.2 1-1.6 1.7v-2.1h-2.9v13.8h3v-7.7c0-.8.1-1.4.4-2s.7-1 1.2-1.4 1.1-.5 1.8-.5c.6 0 1.2.1 1.6.4.5.3.8.6 1 1.1s.3 1.1.3 1.7v8.3h3v-8.6c.2-1.1-.1-2.1-.5-2.9z"/></svg>