<svg enable-background="new 0 0 486 108" height="108" viewBox="0 0 486 108" width="486" xmlns="http://www.w3.org/2000/svg" xmlns:xlink="http://www.w3.org/1999/xlink"><linearGradient id="a" gradientUnits="userSpaceOnUse" x1="-11.37946" x2="70.30235" y1="92.36929" y2="10.68748"><stop offset=".10753" stop-color="#c757bc"/><stop offset=".21383" stop-color="#d0609a"/><stop offset=".42537" stop-color="#e1725c"/><stop offset=".60485" stop-color="#ee7e2f"/><stop offset=".74303" stop-color="#f58613"/><stop offset=".82323" stop-color="#f88909"/></linearGradient><linearGradient id="b"><stop offset=".09677" stop-color="#0095d5"/><stop offset=".30073" stop-color="#238ad9"/><stop offset=".62106" stop-color="#557bde"/><stop offset=".86432" stop-color="#7472e2"/><stop offset="1" stop-color="#806ee3"/></linearGradient><linearGradient id="c" gradientUnits="userSpaceOnUse" x1="36.09638" x2="79.12573" xlink:href="#b" y1="121.14526" y2="78.11591"/><linearGradient id="d" gradientUnits="userSpaceOnUse" x1="-4.50558" x2="33.10503" xlink:href="#b" y1="35.88097" y2="-1.72965"/><g fill="#231f20"><path d="m134.84839 4.36696h22.41515l-.00002 44.53899 41.33662-44.53899h27.07285l-41.48227 43.22878 43.37444 58.65769-26.9272-.00001-31.58487-43.37384-11.78957 12.22592-.00002 31.14793h-22.41516z"/><path d="m215.65276 67.68176v-.29012c.00002-22.41514 18.04878-40.60953 42.35612-40.60953 24.16174 0 42.06482 17.9031 42.06482 40.31824v.29129c0 22.41515-18.04877 40.60836-42.35614 40.60836-24.1617 0-42.0648-17.90311-42.0648-40.31824zm62.58778 0v-.29012c0-11.49944-8.29645-21.54244-20.52295-21.54244-12.66284 0-20.23166 9.75171-20.23166 21.25115v.29129c-.00002 11.49828 8.29643 21.54128 20.52295 21.54128 12.66284 0 20.23166-9.75171 20.23166-21.25116z"/><path d="m306.18082 84.12959v-36.97018h-9.31537v-18.92202h9.31537l.00003-19.94094h22.12445v19.94094h18.33945v18.92202h-18.33948v33.332c0 5.09345 2.18289 7.56881 7.13187 7.56881 4.07571 0 7.71448-1.01892 10.91629-2.76665v17.75804c-4.65768 2.76548-10.043 4.51204-17.46619 4.51204-13.53614.00001-22.70645-5.3859-22.70642-23.43406z"/><path d="m352.99567 0h22.12387l-.00006 106.25345h-22.12384z"/><path d="m383.11664 0h23.28784v19.64966h-23.28787zm.58255 28.23739h22.12387l-.00003 78.01606-22.12387-.00001z"/><path d="m414.23929 28.2374h22.12387v11.06193c5.09464-6.54988 11.64453-12.51719 22.8515-12.51719 16.73914 0 26.49084 11.06193 26.49084 28.96503v50.50631l-22.12387-.00001v-43.52008c0-10.47935-4.94955-15.86526-13.39105-15.86526-8.44269 0-13.82742 5.3859-13.82742 15.86525l-.00003 43.52007h-22.12387z"/></g><path d="m51.3125 4.31559-51.14583 53.78603v48.08329l51.07209-51.16163 50.7972-50.70769z" fill="url(#a)"/><path d="m.1667 106.18496 51.0721-51.16149 50.79726 51.16149z" fill="url(#c)"/><path d="m.16672 4.31566h51.14583l-51.14583 53.78602z" fill="url(#d)"/></svg>