<svg xmlns="http://www.w3.org/2000/svg" width="54" height="48" fill="none" viewBox="0 0 54 48">
  <path fill="#C202D7" d="M36.218 2.896c3.89-3.882 10.17-3.849 14.06.025 3.89 3.874 3.92 10.13.03 14.004l-7.106 7.076 7.094 7.073c3.89 3.873 3.864 10.13-.027 14.004-3.89 3.874-10.17 3.908-14.06.026L22.09 31.04a9.889 9.889 0 0 1-2.734-8.921 9.858 9.858 0 0 1 2.742-5.16l14.12-14.063Z"/>
  <path fill="url(#a)" d="M.906 10C7.211 3.802 9.531 0 14.996 0c5.487 0 9.91 4.518 9.91 10 0 5.483-4.423 10-9.91 10-5.465 0-7.785-3.793-14.09-10Z"/>
  <path fill="#fff" d="M10.657 12.195a2.862 2.862 0 0 0 2.868-2.855 2.864 2.864 0 0 0-2.868-2.863A2.865 2.865 0 0 0 7.79 9.34a2.863 2.863 0 0 0 2.868 2.855Z"/>
  <path fill="#000" d="M9.6 11.144a1.808 1.808 0 0 0 1.812-1.802 1.81 1.81 0 0 0-1.811-1.81 1.81 1.81 0 0 0-1.812 1.81c0 .994.811 1.802 1.812 1.802Z"/>
  <defs>
    <linearGradient id="a" x1="11.996" x2=".996" y1="10" y2="10" gradientUnits="userSpaceOnUse">
      <stop stop-color="#C202D7"/>
      <stop offset="1" stop-color="#E00189"/>
    </linearGradient>
  </defs>
</svg>
