<svg xmlns="http://www.w3.org/2000/svg" width="64" height="64" fill="none" viewBox="0 0 64 64">
  <path fill="#FF45ED" d="M22 6c0-3.31371 2.6863-6 6-6h30c3.3137 0 6 2.68629 6 6v30c0 3.3137-2.6863 6-6 6H28c-3.3137 0-6-2.6863-6-6V6Z"/>
  <path fill="#AF1DF5" d="M11 17c0-3.3137 2.6863-6 6-6h30c3.3137 0 6 2.6863 6 6v30c0 3.3137-2.6863 6-6 6H17c-3.3137 0-6-2.6863-6-6V17Z"/>
  <path fill="#6B57FF" d="M0 28c0-3.3137 2.68629-6 6-6h30c3.3137 0 6 2.6863 6 6v30c0 3.3137-2.6863 6-6 6H6c-3.31371 0-6-2.6863-6-6V28Z"/>
  <path fill="#000" d="M11 22h31v31H11z"/>
  <path fill="#fff" d="M27 47H15v2h12v-2Z"/>
</svg>
