<svg xmlns="http://www.w3.org/2000/svg" width="48" height="56" fill="none" viewBox="0 0 48 56">
  <defs>
    <linearGradient id="a" x1="33" x2="20.984" y1="5.29687" y2="35.7906" gradientUnits="userSpaceOnUse">
      <stop stop-color="#33C3FF"/>
      <stop offset=".487417" stop-color="#5383EC"/>
      <stop offset="1" stop-color="#6B57FF"/>
    </linearGradient>
  </defs>
  <path fill="url(#a)" d="M48 14.1641v27.7343L24 55.7666 0 41.8984V14.1641L24 .296875 48 14.1641ZM22.8643 12.21c-.0059.0178-.7665 2.3129-8.1817 9.7783-3.7365 3.762-3.6984 8.8397-3.6982 8.8564 0 5.2363 3.0569 9.7529 7.4707 11.8438-.1128-.8437-.1729-1.7274-.1729-2.6377 0-5.8972 2.5146-10.6779 5.6162-10.6787 3.102 0 5.6172 4.781 5.6172 10.6787 0 .9399-.0646 1.8514-.1845 2.7197 4.5079-2.0533 7.6445-6.6205 7.6445-11.9258-.0002-.0056-.0141-.4391-.0518-.7529-.5569-4.6396-2.8972-7.7341-4.4736-9.3096-.5358 1.1989-1.3555 3.2786-2.5938 4.6612-.4803-9.0793-6.9564-13.2107-6.9921-13.2334Z"/>
</svg>
