<svg xmlns="http://www.w3.org/2000/svg" width="64" height="64" fill="none" viewBox="0 0 64 64">
  <ellipse cx="51.5" cy="40.5" fill="#fff" rx="1.5" ry="2.5"/>
  <ellipse cx="47" cy="29.5" fill="#fff" rx="2" ry="2.5"/>
  <ellipse cx="32" cy="17.5" fill="#fff" rx="4" ry="4.5"/>
  <path fill="#3DDC84" d="M46.0037 30.5926c-.246-.5021-.0351-1.1045.4669-1.3505.502-.2459 1.1044-.0351 1.3504.4669s.0351 1.1044-.4669 1.3504-1.1044.0352-1.3504-.4668Zm4.8846 10.0402c-.246-.502-.0352-1.1044.4669-1.3504.502-.246 1.1044-.0352 1.3504.4668s.0351 1.1044-.4669 1.3504-1.1044.0352-1.3504-.4668Zm.4267-13.0272c-3.2129-2.2942-7.4047-2.8866-11.2852-1.3856l10.6075 21.8124c3.5743-2.1235 5.693-5.7932 5.8737-9.734l4.026.2862c.2307.015.432-.1556.4467-.3916.0153-.231-.1554-.4318-.3914-.4468l-4.0766-.2912c-.04-1.7168-.4514-3.4688-1.27-5.1556-.8182-1.6818-1.9427-3.0874-3.268-4.1818l2.2892-3.3886c.1304-.1907.0802-.4518-.1105-.5823-.1907-.1305-.4518-.0803-.5823.1105l-2.2591 3.3434"/>
  <path fill="#4285F4" d="M41.5355 35.8184c-2.992 1.4458-6.2099 2.1787-9.5633 2.1787-7.5553 0-14.4178-3.8353-18.4188-9.9398-.3163-.4819-.9689-.5974-1.4357-.256l-3.8505 2.8364c-.43673.3212-.53713.9337-.23093 1.3855C13.2923 39.8697 22.193 44.7843 31.9722 44.7843c4.3825 0 8.5944-.9588 12.5151-2.8514l-2.9518-6.1145Zm-9.5981-24.1316h2.0833V7.08333C34.0207 5.93373 33.087 5 31.9374 5s-2.0834.93373-2.0834 2.08333v4.60347h2.0834Z"/>
  <path fill="#4285F4" d="m26.5152 20.6729-14.3224 29.478c-.3112.6376-.4769 1.3304-.492 2.0382l-.0853 3.8605c-.0201.999 1.1345 1.5613 1.9076.9287l2.9819-2.4498c.5472-.4468.989-1.009 1.3003-1.6466l14.1165-29.0614-5.4016-3.1426-.005-.005ZM52.1779 52.184c-.0151-.7078-.1857-1.4006-.4919-2.0381L37.3636 20.6677l-5.4017 3.1527 14.1166 29.0514c.3112.6375.753 1.1948 1.3002 1.6466l2.9819 2.4498c.7731.6325 1.9328.0703 1.9077-.9287l-.0853-3.8605-.0051.005Z"/>
  <path fill="#073042" d="M31.937 11.3203c-3.4488 0-6.25 2.8063-6.25 6.2501s2.8062 6.25 6.25 6.25 6.2501-2.8062 6.2501-6.25-2.8063-6.2501-6.2501-6.2501Zm0 9.6889c-1.8925 0-3.4387-1.5412-3.4387-3.4388 0-1.8976 1.5411-3.4388 3.4387-3.4388s3.4388 1.5412 3.4388 3.4388c0 1.8976-1.5412 3.4388-3.4388 3.4388Z"/>
</svg>
