<svg xmlns="http://www.w3.org/2000/svg" width="70" height="70" fill="none" viewBox="0 0 70 70">
  <defs>
    <linearGradient id="a" x1="70.5058" x2="-11.4231" y1="70.4621" y2="-11.4662" gradientUnits="userSpaceOnUse">
      <stop offset="0.3475" stop-color="#087CFA"/>
      <stop offset="0.8562" stop-color="#FE2857"/>
      <stop offset="1" stop-color="#FE2857"/>
    </linearGradient>
  </defs>
  <path fill="url(#a)" d="M64 6H6V64H64V6Z"/>
  <path fill="#000000" d="M56 14H14V56H56V14Z"/>
  <path fill="#FFFFFF" d="M27.1366 22.1433V19.25H19.2733V22.1433H21.4666V32.1067H19.2733V34.9767H27.1366V32.1067H24.92V22.1433H27.1366Z"/>
  <path fill="#FFFFFF" d="M43.8677 19.25V22.3398H35.4409V25.5701H42.9548V28.6599H35.4409V31.8902H44.0784V34.98H32V19.25H43.8677Z"/>
  <path fill="#FFFFFF" d="M34.4166 48.6499H18.6666V51.3332H34.4166V48.6499Z"/>
  <g>
    <rect x="37" y="53" width="33" height="17" fill="#d99e2b"/>
    <path fill="#000000" d="M40.05563,66.966h7.19661V65.24271H41.745V62.2975h4.82041V60.57425H41.745V57.72294h5.43874V55.99969H40.05563Z"/>
    <path fill="#000000" d="M48.15627,66.966h1.86832l1.06757-2.6268h4.9082l1.05281,2.6268h1.9277l-4.5671-10.95841h-1.6904Zm3.60316-4.321,1.77945-4.35241L55.33309,62.645Z"/>
    <path fill="#000000" d="M59.87536,66.966h1.62869V63.44109h1.84026a3.50285,3.50285,0,0,0,3.70715-3.74426v-.03124a3.36233,3.36233,0,0,0-3.52185-3.6659H59.87536Zm1.62869-5.26364V57.75418h1.89333a1.80658,1.80658,0,0,1,1.99894,1.95836V59.744a1.86938,1.86938,0,0,1-1.99894,1.95836Z"/>
  </g>
</svg>
