<svg xmlns="http://www.w3.org/2000/svg" width="986" height="91" fill="none" viewBox="0 0 986 91">
  <path fill="#000" d="M0 4H85V89H0V4Z"/>
  <path fill="#fff" d="M11.3467 72.7148H43.3389V78.0469H11.3467V72.7148Z"/>
  <path fill="#fff" d="M27.3142 20.091V14.2471H22.8495H15.8397H11.375V20.091H15.8397V40.2674H11.375V46.1113H15.8397H22.8495H27.3142V40.2674H22.8495V20.091H27.3142Z"/>
  <path fill="#fff" d="M35.6465 14.4605H59.7188V20.5604H42.898V27.0157H57.7851V33.1297H42.898V39.6135H60.0743V45.7275H36.0304V14.4463L35.6465 14.4605Z"/>
  <path fill="#fff" d="M782.401 4.53613H844.963V20.9446H800.516V38.0071H839.574V54.3871H800.516V72.0183H845.489V88.441H782.401V4.53613Z"/>
  <path fill="#fff" d="M850.836 56.4343V56.1925C850.836 34.7364 864.685 22.9918 879.714 22.9918C883.53 22.924 887.308 23.7563 890.742 25.4214C894.175 27.0864 897.169 29.5373 899.478 32.5752V0.938477H917.465V88.4407H899.478V79.2127C895.099 85.1988 889.056 89.635 879.714 89.635C864.912 89.5782 850.836 77.8904 850.836 56.4343V56.4343ZM899.706 56.4343V56.1925C899.706 45.5285 892.724 38.4475 884.321 38.4475C875.918 38.4475 868.766 45.4005 868.766 56.1925V56.4343C868.766 67.0983 875.875 74.1793 884.264 74.1793C892.653 74.1793 899.706 67.0983 899.706 56.4343V56.4343Z"/>
  <path fill="#fff" d="M926.579 65.7902V24.1719H944.566V60.0316C944.566 68.6623 948.59 73.0986 955.457 73.0986C962.325 73.0986 966.704 68.6623 966.704 60.0316V24.1719H984.691V88.4406H966.704V79.3264C962.609 84.7153 957.235 89.5781 948.121 89.5781C934.513 89.5781 926.579 80.5208 926.579 65.7902V65.7902Z"/>
  <path fill="#fff" d="M118.172 3.9668H136.784V88.5541H118.172V3.9668Z"/>
  <path fill="#fff" d="M145.315 23.7877H163.672V32.9588C167.937 27.5272 173.341 22.5791 182.654 22.5791C196.546 22.5791 204.65 31.7502 204.65 46.623V88.5541H186.265V52.4243C186.265 43.7224 182.156 39.2435 175.146 39.2435C168.137 39.2435 163.658 43.7224 163.658 52.4243V88.5541H145.315V23.7877Z"/>
  <path fill="#fff" d="M215.798 70.1833V39.485H208.063V23.8444H215.798V7.22266H234.154V23.7875H249.383V39.4281H234.154V67.1689C234.154 71.4345 235.974 73.4536 240.084 73.4536C243.254 73.4493 246.371 72.637 249.141 71.0933V85.895C244.739 88.463 239.703 89.7393 234.609 89.5777C223.405 89.5777 215.798 85.1698 215.798 70.1833Z"/>
  <path fill="#fff" d="M252.468 56.5335V56.2918C252.468 37.8074 265.649 22.5791 284.489 22.5791C306.13 22.5791 316.04 39.3714 316.04 57.7421C316.04 59.1639 315.912 60.8844 315.799 62.5764H270.725C272.531 70.9086 278.332 75.2596 286.551 75.2596C292.707 75.2596 297.186 73.3258 302.262 68.6194L312.813 77.9185C306.77 85.4118 298.068 90.0044 286.352 90.0044C266.858 90.0044 252.468 76.3544 252.468 56.5335V56.5335ZM298.153 51.0877C297.058 42.8693 292.224 37.3097 284.489 37.3097C276.754 37.3097 271.92 42.7555 270.483 51.0877H298.153Z"/>
  <path fill="#fff" d="M321.188 0.34082H339.558V88.4971H321.188V0.34082Z"/>
  <path fill="#fff" d="M347.35 0.34082H365.72V88.4971H347.35V0.34082Z"/>
  <path fill="#fff" d="M373.015 0.34082H392.352V16.6497H373.015V0.34082ZM373.498 23.7875H391.869V88.5539H373.498V23.7875Z"/>
  <path fill="#fff" d="M395.679 77.0796L407.41 63.9841C412.23 69.302 416.95 72.5154 422.865 72.5154C429.875 72.5154 434.24 68.2498 434.24 58.4957V3.9668H453.336V59.3062C453.336 69.3446 450.492 76.8379 445.36 81.914C440.227 86.9901 432.563 89.7627 423.363 89.7627C418.087 89.8995 412.85 88.8278 408.051 86.6295C403.253 84.4313 399.021 81.1647 395.679 77.0796V77.0796Z"/>
  <path fill="#fff" d="M485.187 3.9668H503.799V88.5541H485.187V3.9668Z"/>
  <path fill="#fff" d="M512.515 3.9668H545.502C572.091 3.9668 590.462 22.2095 590.462 46.0116V46.2534C590.462 70.0698 572.091 88.5541 545.502 88.5541H512.515V3.9668ZM531.127 20.7591V71.7618H545.502C560.73 71.7618 571.011 61.4816 571.011 46.4951V46.2534C571.011 31.2668 560.73 20.7591 545.502 20.7591H531.127Z"/>
  <path fill="#fff" d="M596.633 3.9668H660.447V20.5174H615.131V37.6795H654.944V54.2301H615.131V72.0035H661.044V88.5541H596.633V3.9668Z"/>
  <path fill="#fff" d="M701.909 3.35547H719.071L755.314 88.5542H735.863L728.128 69.5864H692.368L684.633 88.5542H665.651L701.909 3.35547ZM721.488 53.1211L710.241 25.6931L699.008 53.1211H721.488Z"/>
</svg>
