<svg height="90" viewBox="0 0 981 90" width="981" xmlns="http://www.w3.org/2000/svg" xmlns:xlink="http://www.w3.org/1999/xlink">
  <path d="m778.82312 4.17529h62.26029v16.3619h-44.21773v16.96145h38.91075v16.358h-38.91075v17.55716h44.80761v16.36189h-62.85017z"/>
  <path d="m847.008 55.8874v-.236c0-21.37878 13.79544-33.08353 28.77063-33.08353 9.55025 0 15.4471 4.42119 19.6923 9.55411v-31.52851h17.92266v87.18222h-17.92259v-9.19438c-4.36317 5.96842-10.37607 10.38962-19.6923 10.38962-14.73928 0-28.7707-11.70476-28.7707-33.08353zm48.69888 0v-.236c0-10.62944-6.95671-17.677-15.32912-17.677s-15.4471 6.9277-15.4471 17.677v.236c0 10.62943 7.07468 17.677 15.4471 17.677s15.32915-7.04757 15.32915-17.677z"/>
  <path d="m922.47871 65.20556v-41.44241h17.92266v35.70994c0 8.5987 4.00924 13.016 10.848 13.016 6.84066 0 11.2019-4.41733 11.2019-13.016v-35.70994h17.92459v64.01254h-17.92462v-9.07834c-4.12724 5.37665-9.43224 10.27358-18.51253 10.27358-13.55949 0-21.46-9.07834-21.46-23.76537z"/>
  <path d="m117.03643 3.61184h18.54157v84.27991h-18.54157z"/>
  <path d="m144.06937 23.35768h18.30163v9.15032c4.21325-5.418 9.63124-10.35458 18.90251-10.35458 13.84546 0 21.91294 9.15031 21.91294 23.95957v41.77876h-18.30163v-35.99935c0-8.66889-4.09325-13.12357-11.076-13.12357-6.98369 0-11.43789 4.45468-11.43789 13.12357v35.99935h-18.30156z"/>
  <path d="m214.29419 69.59113v-30.58183h-7.70557v-15.65162h7.70557v-16.49495h18.30062v16.495h15.17019v15.65157h-15.1702v27.57189c0 4.21373 1.80568 6.26084 5.8999 6.26084a18.60434 18.60434 0 0 0 9.02935-2.28806v14.68878a26.9779 26.9779 0 0 1 -14.44735 3.7328c-11.19693 0-18.78251-4.45517-18.78251-19.38442z"/>
  <path d="m250.83742 55.98566v-.24047c0-18.4211 13.12357-33.59178 31.90609-33.59178 21.552 0 31.42419 16.73589 31.42419 35.03652 0 1.44473-.12 3.13042-.24095 4.8161h-44.9087c1.80568 8.30747 7.58558 12.64167 15.77209 12.64167 6.14085 0 10.596-1.92615 15.6521-6.62178l10.475 9.27079c-6.01989 7.46462-14.68829 12.03978-26.36713 12.03978-19.38436 0-33.71269-13.60499-33.71269-33.35083zm45.51157-5.418c-1.0838-8.187-5.8999-13.72547-13.60548-13.72547-7.58461 0-12.52168 5.418-13.96641 13.72547z"/>
  <path d="m319.3091 0h18.30061v87.89175h-18.30061z"/>
  <path d="m345.36482 0h18.30062v87.89175h-18.30062z"/>
  <path d="m370.93913 0h19.26345v16.254h-19.26345zm.4819 23.35768h18.30062v64.53407h-18.30065z"/>
  <path d="m393.52337 76.45387 11.67884-13.0031c4.81611 5.29752 9.51125 8.42794 15.41115 8.42794 6.98272 0 11.31693-4.21421 11.31693-13.96642v-54.30045h19.02347v55.1433c0 9.99315-2.88947 17.45777-7.94653 22.51483-5.177 5.177-12.76166 7.82557-21.912 7.82557-13.12354 0-21.79292-5.77894-27.57186-12.64167z"/>
  <path d="m482.70115 3.61184h18.54157v84.27991h-18.54157z"/>
  <path d="m509.92994 3.61184h32.86989c26.48713 0 44.78871 18.18063 44.78871 41.89925v.24091c0 23.71862-18.30158 42.13971-44.78871 42.13971h-32.86989zm18.54157 16.73589v50.80861h14.32832c15.1702 0 25.4043-10.2341 25.4043-25.16384v-.2405c0-14.92974-10.2341-25.40431-25.4043-25.40431z"/>
  <path d="m593.74433 3.61184h63.57124v16.49494h-45.14966v17.09684h39.73166v16.49446h-39.73166v17.69873h45.75155v16.49494h-64.17313z"/>
  <path d="m698.62883 3.01h17.09683l36.11934 84.88175h-19.38441l-7.70559-18.90251h-35.6384l-7.7056 18.90251h-18.90248zm19.5044 49.60482-11.19694-27.33099-11.19693 27.33094z"/>
  <path d="m0 3h85v85.00005h-85z"/>
  <g fill="#fff">
    <path d="m10.5024 72.06397h31.87471v5.31203h-31.87471z"/>
    <path d="m13.39495 13.63374h4.66671v21.21231h-4.66671z"/>
    <path d="m10.4252 30.95713h10.60615v3.88892h-10.60615z"/>
    <path d="m10.42521 13.63374h10.60615v3.88892h-10.60615z"/>
    <path d="m26.58087 13.76633h16.01139v4.06641h-11.18256v4.32057h9.91181v4.0664h-9.91181v4.32058h11.43672v4.0664h-16.01142v-20.84036z"/>
  </g>
</svg>
