<svg height="70" viewBox="0 0 70 70" width="70" xmlns="http://www.w3.org/2000/svg" xmlns:xlink="http://www.w3.org/1999/xlink"><linearGradient id="a" gradientUnits="userSpaceOnUse" x1="41.28634" x2="13.83939" y1="41.28595" y2="13.839"><stop offset=".2334" stop-color="#21d789"/><stop offset=".88985" stop-color="#af1df5"/></linearGradient><linearGradient id="b" gradientUnits="userSpaceOnUse" x1=".78984" x2="33.31716" y1="40.08934" y2="40.08934"><stop offset=".25806" stop-color="#f97a12"/><stop offset=".45911" stop-color="#b07b58"/><stop offset=".7241" stop-color="#577bae"/><stop offset=".91053" stop-color="#1e7ce5"/><stop offset="1" stop-color="#087cfa"/></linearGradient><linearGradient id="c" gradientUnits="userSpaceOnUse" x1="25.76735" x2="79.42399" y1="24.87998" y2="54.56998"><stop offset="0" stop-color="#f97a12"/><stop offset=".0718" stop-color="#cb7a3e"/><stop offset=".15406" stop-color="#9e7b6a"/><stop offset=".24204" stop-color="#757b91"/><stop offset=".33443" stop-color="#537bb1"/><stop offset=".43243" stop-color="#387ccc"/><stop offset=".53813" stop-color="#237ce0"/><stop offset=".65516" stop-color="#147cef"/><stop offset=".79251" stop-color="#0b7cf7"/><stop offset="1" stop-color="#087cfa"/></linearGradient><linearGradient id="d" gradientUnits="userSpaceOnUse" x1="63.22771" x2="48.29029" y1="42.91532" y2="-1.7191"><stop offset="0" stop-color="#fe315d"/><stop offset=".0784" stop-color="#cb417e"/><stop offset=".16008" stop-color="#9e4e9b"/><stop offset=".24742" stop-color="#755bb4"/><stop offset=".33917" stop-color="#5365ca"/><stop offset=".43648" stop-color="#386ddb"/><stop offset=".54144" stop-color="#2374e9"/><stop offset=".65763" stop-color="#1478f3"/><stop offset=".794" stop-color="#0b7bf8"/><stop offset="1" stop-color="#087cfa"/></linearGradient><linearGradient id="e" gradientUnits="userSpaceOnUse" x1="10.72041" x2="55.52365" y1="16.47302" y2="90.58"><stop offset="0" stop-color="#fe315d"/><stop offset=".04023" stop-color="#f63462"/><stop offset=".10373" stop-color="#df3a71"/><stop offset=".16667" stop-color="#c24383"/><stop offset=".29121" stop-color="#ad4a91"/><stop offset=".5498" stop-color="#755bb4"/><stop offset=".91755" stop-color="#1d76ed"/><stop offset="1" stop-color="#087cfa"/></linearGradient><path d="m56 14v42h-42z"/><path d="m40.25192 48.4336h10.51343v2.31624h-10.51343z" fill="#fff" transform="matrix(-1 0 0 -1 91.01726 99.18345)"/><path d="m14 56v-42h42z" fill="url(#a)"/><path d="m17.688 54.582-16.898-13.337 8.449-15.648 24.078 9.433z" fill="url(#b)"/><path d="m70 18.662-1.258 40.543-26.965 10.795-16.179-10.439 23.653-24.597-10.351-22.703 9.348-11.203z" fill="url(#c)"/><path d="m70 18.662-21.328 25.25-9.772-31.651 9.348-11.203z" fill="url(#d)"/><path d="m33.687 58.138-28.043 10.136 4.496-15.73 5.815-19.479-15.955-5.333 10.14-27.732 21.929 2.658 21.637 24.717z" fill="url(#e)"/><path d="m15 15h39.99999v40.00001h-39.99999z"/><g fill="#fff"><path d="m18.75036 47.49391h14.99986v2.49978h-14.99986z"/><path d="m28.327 23.237v-3.037h-8.282v3.037h2.319v10.49h-2.319v3.037h8.282v-3.037h-2.319v-10.49z"/><path d="m32.95965 20.166h12.59972v3.2h-8.79981v3.4h7.79983v3.19995h-7.79983v3.4h8.99982v3.19995h-12.59972v-16.3999z"/></g><path d="m37 53h33v17h-33z" fill="#d99e2b"/><path d="m40.05563 66.966h7.19661v-1.72329h-5.50724v-2.94521h4.82041v-1.72325h-4.82041v-2.85131h5.43874v-1.72325h-7.12811z"/><path d="m48.15627 66.966h1.86832l1.06757-2.6268h4.9082l1.05281 2.6268h1.9277l-4.5671-10.95841h-1.6904zm3.60316-4.321 1.77945-4.35241 1.79421 4.35241z"/><path d="m59.87536 66.966h1.62869v-3.52491h1.84026a3.50285 3.50285 0 0 0 3.70715-3.74426v-.03124a3.36233 3.36233 0 0 0 -3.52185-3.6659h-3.65425zm1.62869-5.26364v-3.94818h1.89333a1.80658 1.80658 0 0 1 1.99894 1.95836v.03146a1.86938 1.86938 0 0 1 -1.99894 1.95836z"/></svg>